M48
; DRILL file {KiCad 5.1.2-f72e74a~84~ubuntu18.04.1} date 2019-06-23T16:29:05 CEST
; FORMAT={3:3/ absolute / metric / suppress leading zeros}
; #@! TF.CreationDate,2019-06-23T16:29:05+02:00
; #@! TF.GenerationSoftware,Kicad,Pcbnew,5.1.2-f72e74a~84~ubuntu18.04.1
FMAT,2
METRIC,TZ
T1C1.000
T2C1.400
%
G90
G05
T1
X-26670Y12700
X-11430Y12700
X-8890Y12700
X-52070Y12700
X-11430Y48260
X-8890Y48260
X-34290Y12700
X-52070Y20320
X-16510Y48260
X-13970Y48260
X-26670Y48260
X-24130Y48260
X-21590Y48260
X-19050Y48260
X-31750Y12700
X-16510Y12700
X-13970Y12700
X-21590Y12700
X-19050Y12700
X-36830Y48260
X-34290Y48260
X-31750Y48260
X-29210Y48260
X-36830Y12700
X-24130Y12700
X-29210Y12700
X-49530Y12700
X-46990Y12700
X-44450Y12700
T2
X-44450Y5080
X-39370Y5080
X-34290Y5080
X-54610Y5080
X-49530Y5080
X-29210Y5080
X-24130Y5080
X-19050Y5080
X-13970Y5080
X-8890Y5080
X-3810Y5080
T0
M30
