<?xml version="1.0" standalone="no"?>
 <!DOCTYPE svg PUBLIC "-//W3C//DTD SVG 1.1//EN" 
 "http://www.w3.org/Graphics/SVG/1.1/DTD/svg11.dtd"> 
<svg xmlns="http://www.w3.org/2000/svg" version="1.1" 
    width="10.5004cm" height="14.8006cm" viewBox="0 0 41340 58270 ">
<title>SVG Picture created as TMC262_mount-F_SilkS.svg date 2019/06/22 19:18:58 </title>
  <desc>Picture generated by PCBNEW </desc>
<g style="fill:#000000; fill-opacity:1;stroke:#000000; stroke-opacity:1;
stroke-linecap:round; stroke-linejoin:round; "
 transform="translate(0 0) scale(1 1)">
</g>
<g style="fill:#000000; fill-opacity:0.0; 
stroke:#000000; stroke-width:-0.000393701; stroke-opacity:1; 
stroke-linecap:round; stroke-linejoin:round;">
</g>
<g style="fill:#000000; fill-opacity:1.0; 
stroke:#000000; stroke-width:39.3701; stroke-opacity:1; 
stroke-linecap:round; stroke-linejoin:round;">
<rect x="6052.5" y="4818.01" width="28421.2" height="25515.7" rx="0" />
</g>
<g style="fill:#FFFFFF; fill-opacity:1.0; 
stroke:#FFFFFF; stroke-width:39.3701; stroke-opacity:1; 
stroke-linecap:round; stroke-linejoin:round;">
</g>
<g style="fill:#FFFFFF; fill-opacity:0.0; 
stroke:#FFFFFF; stroke-width:39.3701; stroke-opacity:1; 
stroke-linecap:round; stroke-linejoin:round;">
</g>
<g style="fill:#FFFFFF; fill-opacity:0.0; 
stroke:#FFFFFF; stroke-width:55.1181; stroke-opacity:1; 
stroke-linecap:round; stroke-linejoin:round;">
<path d="M11485 19435
L11499 19393
L11499 19323
L11485 19295
L11471 19281
L11443 19267
L11415 19267
L11386 19281
L11372 19295
L11358 19323
L11344 19379
L11330 19407
L11316 19421
L11288 19435
L11260 19435
L11232 19421
L11218 19407
L11204 19379
L11204 19309
L11218 19267
" />
<path d="M11218 18986
L11204 19014
L11204 19056
L11218 19098
L11246 19126
L11274 19140
L11330 19154
L11372 19154
L11429 19140
L11457 19126
L11485 19098
L11499 19056
L11499 19028
L11485 18986
L11471 18971
L11372 18971
L11372 19028
" />
<path d="M11527 18915
L11527 18690
" />
<path d="M11204 18662
L11204 18493
" />
<path d="M11499 18578
L11204 18578
" />
<path d="M11485 18409
L11499 18367
L11499 18297
L11485 18268
L11471 18254
L11443 18240
L11415 18240
L11386 18254
L11372 18268
L11358 18297
L11344 18353
L11330 18381
L11316 18395
L11288 18409
L11260 18409
L11232 18395
L11218 18381
L11204 18353
L11204 18282
L11218 18240
" />
<path d="M11204 18156
L11204 17987
" />
<path d="M11499 18072
L11204 18072
" />
</g>
<g style="fill:#FFFFFF; fill-opacity:0.0; 
stroke:#FFFFFF; stroke-width:82.6772; stroke-opacity:1; 
stroke-linecap:round; stroke-linejoin:round;">
<path d="M9933 8119
L10158 8119
" />
<path d="M10046 8512
L10046 8119
" />
<path d="M10290 8512
L10290 8119
L10421 8400
L10552 8119
L10552 8512
" />
<path d="M10964 8475
L10946 8494
L10889 8512
L10852 8512
L10796 8494
L10758 8456
L10739 8419
L10721 8344
L10721 8287
L10739 8212
L10758 8175
L10796 8137
L10852 8119
L10889 8119
L10946 8137
L10964 8156
" />
<path d="M11114 8156
L11133 8137
L11171 8119
L11264 8119
L11302 8137
L11321 8156
L11339 8194
L11339 8231
L11321 8287
L11096 8512
L11339 8512
" />
<path d="M11677 8119
L11602 8119
L11564 8137
L11546 8156
L11508 8212
L11489 8287
L11489 8437
L11508 8475
L11527 8494
L11564 8512
L11639 8512
L11677 8494
L11696 8475
L11714 8437
L11714 8344
L11696 8306
L11677 8287
L11639 8269
L11564 8269
L11527 8287
L11508 8306
L11489 8344
" />
<path d="M11864 8156
L11883 8137
L11921 8119
L12014 8119
L12052 8137
L12071 8156
L12089 8194
L12089 8231
L12071 8287
L11846 8512
L12089 8512
" />
<path d="M12164 8550
L12464 8550
" />
<path d="M12689 8306
L12745 8325
L12764 8344
L12783 8381
L12783 8437
L12764 8475
L12745 8494
L12708 8512
L12558 8512
L12558 8119
L12689 8119
L12727 8137
L12745 8156
L12764 8194
L12764 8231
L12745 8269
L12727 8287
L12689 8306
L12558 8306
" />
<path d="M13027 8119
L13102 8119
L13139 8137
L13177 8175
L13195 8250
L13195 8381
L13177 8456
L13139 8494
L13102 8512
L13027 8512
L12989 8494
L12952 8456
L12933 8381
L12933 8250
L12952 8175
L12989 8137
L13027 8119
" />
<path d="M13495 8306
L13552 8325
L13570 8344
L13589 8381
L13589 8437
L13570 8475
L13552 8494
L13514 8512
L13364 8512
L13364 8119
L13495 8119
L13533 8137
L13552 8156
L13570 8194
L13570 8231
L13552 8269
L13533 8287
L13495 8306
L13364 8306
" />
<path d="M13927 8119
L13852 8119
L13814 8137
L13795 8156
L13758 8212
L13739 8287
L13739 8437
L13758 8475
L13777 8494
L13814 8512
L13889 8512
L13927 8494
L13945 8475
L13964 8437
L13964 8344
L13945 8306
L13927 8287
L13889 8269
L13814 8269
L13777 8287
L13758 8306
L13739 8344
" />
<path d="M14208 8119
L14245 8119
L14283 8137
L14302 8156
L14320 8194
L14339 8269
L14339 8362
L14320 8437
L14302 8475
L14283 8494
L14245 8512
L14208 8512
L14170 8494
L14152 8475
L14133 8437
L14114 8362
L14114 8269
L14133 8194
L14152 8156
L14170 8137
L14208 8119
" />
<path d="M14808 8512
L14808 8119
" />
<path d="M14808 8306
L15033 8306
" />
<path d="M15033 8512
L15033 8119
" />
<path d="M15276 8512
L15239 8494
L15220 8475
L15201 8437
L15201 8325
L15220 8287
L15239 8269
L15276 8250
L15333 8250
L15370 8269
L15389 8287
L15408 8325
L15408 8437
L15389 8475
L15370 8494
L15333 8512
L15276 8512
" />
<path d="M15633 8512
L15595 8494
L15576 8456
L15576 8119
" />
<path d="M15951 8512
L15951 8119
" />
<path d="M15951 8494
L15914 8512
L15839 8512
L15801 8494
L15783 8475
L15764 8437
L15764 8325
L15783 8287
L15801 8269
L15839 8250
L15914 8250
L15951 8269
" />
<path d="M16289 8494
L16251 8512
L16176 8512
L16139 8494
L16120 8456
L16120 8306
L16139 8269
L16176 8250
L16251 8250
L16289 8269
L16308 8306
L16308 8344
L16120 8381
" />
<path d="M16476 8512
L16476 8250
" />
<path d="M16476 8325
L16495 8287
L16514 8269
L16551 8250
L16589 8250
" />
<path d="M11068 8886
L11030 8867
L10955 8867
L10918 8886
L10880 8923
L10861 8961
L10861 9036
L10880 9073
L10918 9111
L10955 9129
L11030 9129
L11068 9111
" />
<path d="M10993 8736
L10899 8754
L10805 8811
L10749 8904
L10730 8998
L10749 9092
L10805 9186
L10899 9242
L10993 9261
L11086 9242
L11180 9186
L11236 9092
L11255 8998
L11236 8904
L11180 8811
L11086 8754
L10993 8736
" />
<path d="M11424 9186
L11424 8792
" />
<path d="M11424 8979
L11649 8979
" />
<path d="M11649 9186
L11649 8792
" />
<path d="M11892 9186
L11855 9167
L11836 9148
L11817 9111
L11817 8998
L11836 8961
L11855 8942
L11892 8923
L11949 8923
L11986 8942
L12005 8961
L12024 8998
L12024 9111
L12005 9148
L11986 9167
L11949 9186
L11892 9186
" />
<path d="M12249 9186
L12211 9167
L12192 9129
L12192 8792
" />
<path d="M12455 9186
L12417 9167
L12399 9148
L12380 9111
L12380 8998
L12399 8961
L12417 8942
L12455 8923
L12511 8923
L12549 8942
L12567 8961
L12586 8998
L12586 9111
L12567 9148
L12549 9167
L12511 9186
L12455 9186
" />
<path d="M12699 8923
L12849 8923
" />
<path d="M12755 8792
L12755 9129
L12774 9167
L12811 9186
L12849 9186
" />
<path d="M12980 9186
L12980 8923
" />
<path d="M12980 8998
L12999 8961
L13017 8942
L13055 8923
L13092 8923
" />
<path d="M13280 9186
L13242 9167
L13224 9148
L13205 9111
L13205 8998
L13224 8961
L13242 8942
L13280 8923
L13336 8923
L13374 8942
L13392 8961
L13411 8998
L13411 9111
L13392 9148
L13374 9167
L13336 9186
L13280 9186
" />
<path d="M13580 8923
L13580 9186
" />
<path d="M13580 8961
L13598 8942
L13636 8923
L13692 8923
L13730 8942
L13748 8979
L13748 9186
" />
<path d="M13936 9186
L13936 8923
" />
<path d="M13936 8792
L13917 8811
L13936 8829
L13955 8811
L13936 8792
L13936 8829
" />
<path d="M14292 9167
L14255 9186
L14180 9186
L14142 9167
L14123 9148
L14105 9111
L14105 8998
L14123 8961
L14142 8942
L14180 8923
L14255 8923
L14292 8942
" />
<path d="M14442 8829
L14461 8811
L14498 8792
L14592 8792
L14630 8811
L14648 8829
L14667 8867
L14667 8904
L14648 8961
L14423 9186
L14667 9186
" />
<path d="M14911 8792
L14948 8792
L14986 8811
L15005 8829
L15023 8867
L15042 8942
L15042 9036
L15023 9111
L15005 9148
L14986 9167
L14948 9186
L14911 9186
L14873 9167
L14855 9148
L14836 9111
L14817 9036
L14817 8942
L14836 8867
L14855 8829
L14873 8811
L14911 8792
" />
<path d="M15417 9186
L15192 9186
" />
<path d="M15305 9186
L15305 8792
L15267 8848
L15230 8886
L15192 8904
" />
<path d="M15604 9186
L15679 9186
L15717 9167
L15736 9148
L15773 9092
L15792 9017
L15792 8867
L15773 8829
L15754 8811
L15717 8792
L15642 8792
L15604 8811
L15586 8829
L15567 8867
L15567 8961
L15586 8998
L15604 9017
L15642 9036
L15717 9036
L15754 9017
L15773 8998
L15792 8961
" />
</g>
<g style="fill:#FFFFFF; fill-opacity:0.0; 
stroke:#FFFFFF; stroke-width:78.7402; stroke-opacity:1; 
stroke-linecap:round; stroke-linejoin:round;">
<path d="M17965 22029
L17928 22010
L17872 22010
L17815 22029
L17778 22066
L17759 22104
L17740 22179
L17740 22235
L17759 22310
L17778 22347
L17815 22385
L17872 22403
L17909 22403
L17965 22385
L17984 22366
L17984 22235
L17909 22235
" />
<path d="M18153 22403
L18153 22010
L18378 22403
L18378 22010
" />
<path d="M18565 22403
L18565 22010
L18659 22010
L18715 22029
L18753 22066
L18772 22104
L18790 22179
L18790 22235
L18772 22310
L18753 22347
L18715 22385
L18659 22403
L18565 22403
" />
<path d="M28162 21625
L28181 21588
L28181 21532
L28162 21475
L28125 21438
L28087 21419
L28012 21400
L27956 21400
L27881 21419
L27843 21438
L27806 21475
L27787 21532
L27787 21569
L27806 21625
L27825 21644
L27956 21644
L27956 21569
" />
<path d="M27787 21813
L28181 21813
L27787 22038
L28181 22038
" />
<path d="M27787 22225
L28181 22225
L28181 22319
L28162 22375
L28125 22413
L28087 22432
L28012 22450
L27956 22450
L27881 22432
L27843 22413
L27806 22375
L27787 22319
L27787 22225
" />
<path d="M29181 21807
L28787 21938
L29181 22069
" />
<path d="M28806 22182
L28787 22238
L28787 22332
L28806 22369
L28825 22388
L28862 22407
L28900 22407
L28937 22388
L28956 22369
L28975 22332
L28993 22257
L29012 22219
L29031 22200
L29068 22182
L29106 22182
L29143 22200
L29162 22219
L29181 22257
L29181 22350
L29162 22407
" />
<path d="M17806 10379
L17787 10435
L17787 10529
L17806 10566
L17825 10585
L17862 10604
L17900 10604
L17937 10585
L17956 10566
L17975 10529
L17993 10454
L18012 10416
L18031 10397
L18068 10379
L18106 10379
L18143 10397
L18162 10416
L18181 10454
L18181 10547
L18162 10604
" />
<path d="M18162 10979
L18181 10941
L18181 10885
L18162 10829
L18125 10791
L18087 10772
L18012 10754
L17956 10754
L17881 10772
L17843 10791
L17806 10829
L17787 10885
L17787 10922
L17806 10979
L17825 10997
L17956 10997
L17956 10922
" />
<path d="M17750 11072
L17750 11372
" />
<path d="M18181 11410
L18181 11635
" />
<path d="M17787 11522
L18181 11522
" />
<path d="M17806 11747
L17787 11803
L17787 11897
L17806 11935
L17825 11953
L17862 11972
L17900 11972
L17937 11953
L17956 11935
L17975 11897
L17993 11822
L18012 11785
L18031 11766
L18068 11747
L18106 11747
L18143 11766
L18162 11785
L18181 11822
L18181 11916
L18162 11972
" />
<path d="M18181 12085
L18181 12310
" />
<path d="M17787 12197
L18181 12197
" />
<path d="M28062 10425
L28081 10388
L28081 10332
L28062 10275
L28025 10238
L27987 10219
L27912 10200
L27856 10200
L27781 10219
L27743 10238
L27706 10275
L27687 10332
L27687 10369
L27706 10425
L27725 10444
L27856 10444
L27856 10369
" />
<path d="M27687 10613
L28081 10613
L27687 10838
L28081 10838
" />
<path d="M27687 11025
L28081 11025
L28081 11119
L28062 11175
L28025 11213
L27987 11232
L27912 11250
L27856 11250
L27781 11232
L27743 11213
L27706 11175
L27687 11119
L27687 11025
" />
<path d="M29181 10200
L28787 10332
L29181 10463
" />
<path d="M28825 10819
L28806 10800
L28787 10744
L28787 10707
L28806 10650
L28843 10613
L28881 10594
L28956 10575
L29012 10575
L29087 10594
L29125 10613
L29162 10650
L29181 10707
L29181 10744
L29162 10800
L29143 10819
" />
<path d="M28825 11213
L28806 11194
L28787 11138
L28787 11100
L28806 11044
L28843 11007
L28881 10988
L28956 10969
L29012 10969
L29087 10988
L29125 11007
L29162 11044
L29181 11100
L29181 11138
L29162 11194
L29143 11213
" />
<path d="M31081 14004
L31081 14229
" />
<path d="M30687 14116
L31081 14116
" />
<path d="M30687 14360
L31081 14360
L30800 14491
L31081 14622
L30687 14622
" />
<path d="M30725 15035
L30706 15016
L30687 14960
L30687 14922
L30706 14866
L30743 14829
L30781 14810
L30856 14791
L30912 14791
L30987 14810
L31025 14829
L31062 14866
L31081 14922
L31081 14960
L31062 15016
L31043 15035
" />
<path d="M31043 15185
L31062 15204
L31081 15241
L31081 15335
L31062 15372
L31043 15391
L31006 15410
L30968 15410
L30912 15391
L30687 15166
L30687 15410
" />
<path d="M31081 15747
L31081 15672
L31062 15635
L31043 15616
L30987 15579
L30912 15560
L30762 15560
L30725 15579
L30706 15597
L30687 15635
L30687 15710
L30706 15747
L30725 15766
L30762 15785
L30856 15785
L30893 15766
L30912 15747
L30931 15710
L30931 15635
L30912 15597
L30893 15579
L30856 15560
" />
<path d="M31043 15935
L31062 15954
L31081 15991
L31081 16085
L31062 16122
L31043 16141
L31006 16160
L30968 16160
L30912 16141
L30687 15916
L30687 16160
" />
<path d="M30650 16235
L30650 16535
" />
<path d="M30893 16760
L30875 16816
L30856 16835
L30818 16853
L30762 16853
L30725 16835
L30706 16816
L30687 16778
L30687 16628
L31081 16628
L31081 16760
L31062 16797
L31043 16816
L31006 16835
L30968 16835
L30931 16816
L30912 16797
L30893 16760
L30893 16628
" />
<path d="M31081 17097
L31081 17172
L31062 17210
L31025 17247
L30950 17266
L30818 17266
L30743 17247
L30706 17210
L30687 17172
L30687 17097
L30706 17060
L30743 17022
L30818 17003
L30950 17003
L31025 17022
L31062 17060
L31081 17097
" />
<path d="M30893 17566
L30875 17622
L30856 17641
L30818 17660
L30762 17660
L30725 17641
L30706 17622
L30687 17585
L30687 17435
L31081 17435
L31081 17566
L31062 17603
L31043 17622
L31006 17641
L30968 17641
L30931 17622
L30912 17603
L30893 17566
L30893 17435
" />
<path d="M31081 17997
L31081 17922
L31062 17885
L31043 17866
L30987 17828
L30912 17810
L30762 17810
L30725 17828
L30706 17847
L30687 17885
L30687 17960
L30706 17997
L30725 18016
L30762 18035
L30856 18035
L30893 18016
L30912 17997
L30931 17960
L30931 17885
L30912 17847
L30893 17828
L30856 17810
" />
<path d="M31081 18278
L31081 18316
L31062 18353
L31043 18372
L31006 18391
L30931 18409
L30837 18409
L30762 18391
L30725 18372
L30706 18353
L30687 18316
L30687 18278
L30706 18241
L30725 18222
L30762 18203
L30837 18185
L30931 18185
L31006 18203
L31043 18222
L31062 18241
L31081 18278
" />
<path d="M30750 24744
L31143 24613
L30750 24482
" />
<path d="M31125 24369
L31143 24313
L31143 24219
L31125 24182
L31106 24163
L31068 24144
L31031 24144
L30993 24163
L30975 24182
L30956 24219
L30937 24294
L30918 24332
L30900 24350
L30862 24369
L30825 24369
L30787 24350
L30768 24332
L30750 24294
L30750 24200
L30768 24144
" />
<path d="M28768 24525
L28750 24563
L28750 24619
L28768 24675
L28806 24713
L28843 24732
L28918 24750
L28975 24750
L29050 24732
L29087 24713
L29125 24675
L29143 24619
L29143 24582
L29125 24525
L29106 24507
L28975 24507
L28975 24582
" />
<path d="M29143 24338
L28750 24338
L29143 24113
L28750 24113
" />
<path d="M29143 23925
L28750 23925
L28750 23832
L28768 23775
L28806 23738
L28843 23719
L28918 23700
L28975 23700
L29050 23719
L29087 23738
L29125 23775
L29143 23832
L29143 23925
" />
<path d="M27031 24707
L27031 24519
" />
<path d="M27143 24744
L26750 24613
L27143 24482
" />
<path d="M27143 24144
L27143 24369
" />
<path d="M27143 24257
L26750 24257
L26806 24294
L26843 24332
L26862 24369
" />
<path d="M24931 24707
L24931 24519
" />
<path d="M25043 24744
L24650 24613
L25043 24482
" />
<path d="M24687 24369
L24668 24350
L24650 24313
L24650 24219
L24668 24182
L24687 24163
L24725 24144
L24762 24144
L24818 24163
L25043 24388
L25043 24144
" />
<path d="M22837 24585
L22856 24528
L22875 24510
L22912 24491
L22968 24491
L23006 24510
L23025 24528
L23043 24566
L23043 24716
L22650 24716
L22650 24585
L22668 24547
L22687 24528
L22725 24510
L22762 24510
L22800 24528
L22818 24547
L22837 24585
L22837 24716
" />
<path d="M23043 24116
L23043 24341
" />
<path d="M23043 24229
L22650 24229
L22706 24266
L22743 24304
L22762 24341
" />
<path d="M20837 24585
L20856 24528
L20875 24510
L20912 24491
L20968 24491
L21006 24510
L21025 24528
L21043 24566
L21043 24716
L20650 24716
L20650 24585
L20668 24547
L20687 24528
L20725 24510
L20762 24510
L20800 24528
L20818 24547
L20837 24585
L20837 24716
" />
<path d="M20687 24341
L20668 24322
L20650 24285
L20650 24191
L20668 24154
L20687 24135
L20725 24116
L20762 24116
L20818 24135
L21043 24360
L21043 24116
" />
<path d="M19143 24719
L18750 24719
L18750 24625
L18768 24569
L18806 24532
L18843 24513
L18918 24494
L18975 24494
L19050 24513
L19087 24532
L19125 24569
L19143 24625
L19143 24719
" />
<path d="M19143 24325
L18750 24325
" />
<path d="M19143 23913
L18956 24044
" />
<path d="M19143 24138
L18750 24138
L18750 23988
L18768 23950
L18787 23932
L18825 23913
L18881 23913
L18918 23932
L18937 23950
L18956 23988
L18956 24138
" />
<path d="M17325 24663
L17343 24607
L17343 24513
L17325 24475
L17306 24457
L17268 24438
L17231 24438
L17193 24457
L17175 24475
L17156 24513
L17137 24588
L17118 24625
L17100 24644
L17062 24663
L17025 24663
L16987 24644
L16968 24625
L16950 24588
L16950 24494
L16968 24438
" />
<path d="M16950 24325
L16950 24100
" />
<path d="M17343 24213
L16950 24213
" />
<path d="M17137 23969
L17137 23838
" />
<path d="M17343 23782
L17343 23969
L16950 23969
L16950 23782
" />
<path d="M17343 23613
L16950 23613
L16950 23463
L16968 23425
L16987 23407
L17025 23388
L17081 23388
L17118 23407
L17137 23425
L17156 23463
L17156 23613
" />
<path d="M16543 24606
L16150 24606
L16150 24513
L16168 24457
L16206 24419
L16243 24400
L16318 24382
L16375 24382
L16450 24400
L16487 24419
L16525 24457
L16543 24513
L16543 24606
" />
<path d="M16543 23988
L16356 24119
" />
<path d="M16543 24213
L16150 24213
L16150 24063
L16168 24025
L16187 24007
L16225 23988
L16281 23988
L16318 24007
L16337 24025
L16356 24063
L16356 24213
" />
<path d="M16150 23875
L16543 23744
L16150 23613
" />
<path d="M16581 23575
L16581 23275
" />
<path d="M16337 23182
L16337 23050
" />
<path d="M16543 22994
L16543 23182
L16150 23182
L16150 22994
" />
<path d="M16543 22825
L16150 22825
L16543 22600
L16150 22600
" />
<path d="M16281 22413
L16543 22413
" />
<path d="M16318 22413
L16300 22394
L16281 22357
L16281 22301
L16300 22263
L16337 22244
L16543 22244
" />
<path d="M12868 24525
L12850 24563
L12850 24619
L12868 24675
L12906 24713
L12943 24732
L13018 24750
L13075 24750
L13150 24732
L13187 24713
L13225 24675
L13243 24619
L13243 24582
L13225 24525
L13206 24507
L13075 24507
L13075 24582
" />
<path d="M13243 24338
L12850 24338
L13243 24113
L12850 24113
" />
<path d="M13243 23925
L12850 23925
L12850 23832
L12868 23775
L12906 23738
L12943 23719
L13018 23700
L13075 23700
L13150 23719
L13187 23738
L13225 23775
L13243 23832
L13243 23925
" />
<path d="M10150 24550
L10543 24419
L10150 24288
" />
<path d="M10506 23932
L10525 23950
L10543 24007
L10543 24044
L10525 24100
L10487 24138
L10450 24157
L10375 24175
L10318 24175
L10243 24157
L10206 24138
L10168 24100
L10150 24044
L10150 24007
L10168 23950
L10187 23932
" />
<path d="M10506 23538
L10525 23557
L10543 23613
L10543 23650
L10525 23707
L10487 23744
L10450 23763
L10375 23782
L10318 23782
L10243 23763
L10206 23744
L10168 23707
L10150 23650
L10150 23613
L10168 23557
L10187 23538
" />
</g>
<g style="fill:#FFFFFF; fill-opacity:0.0; 
stroke:#FFFFFF; stroke-width:55.1181; stroke-opacity:1; 
stroke-linecap:round; stroke-linejoin:round;">
<path d="M15285 22112
L15299 22070
L15299 22000
L15285 21971
L15271 21957
L15243 21943
L15215 21943
L15186 21957
L15172 21971
L15158 22000
L15144 22056
L15130 22084
L15116 22098
L15088 22112
L15060 22112
L15032 22098
L15018 22084
L15004 22056
L15004 21986
L15018 21943
" />
<path d="M15299 21817
L15004 21817
L15004 21746
L15018 21704
L15046 21676
L15074 21662
L15130 21648
L15172 21648
L15229 21662
L15257 21676
L15285 21704
L15299 21746
L15299 21817
" />
<path d="M15004 21465
L15004 21409
L15018 21381
L15046 21353
L15102 21339
L15200 21339
L15257 21353
L15285 21381
L15299 21409
L15299 21465
L15285 21493
L15257 21522
L15200 21536
L15102 21536
L15046 21522
L15018 21493
L15004 21465
" />
<path d="M14085 22128
L14099 22086
L14099 22015
L14085 21987
L14071 21973
L14043 21959
L14015 21959
L13986 21973
L13972 21987
L13958 22015
L13944 22071
L13930 22100
L13916 22114
L13888 22128
L13860 22128
L13832 22114
L13818 22100
L13804 22071
L13804 22001
L13818 21959
" />
<path d="M14099 21832
L13804 21832
L13804 21762
L13818 21720
L13846 21692
L13874 21678
L13930 21664
L13972 21664
L14029 21678
L14057 21692
L14085 21720
L14099 21762
L14099 21832
" />
<path d="M14099 21537
L13804 21537
" />
<path d="M13085 22105
L13099 22063
L13099 21993
L13085 21964
L13071 21950
L13043 21936
L13015 21936
L12986 21950
L12972 21964
L12958 21993
L12944 22049
L12930 22077
L12916 22091
L12888 22105
L12860 22105
L12832 22091
L12818 22077
L12804 22049
L12804 21978
L12818 21936
" />
<path d="M13071 21641
L13085 21655
L13099 21697
L13099 21725
L13085 21768
L13057 21796
L13029 21810
L12972 21824
L12930 21824
L12874 21810
L12846 21796
L12818 21768
L12804 21725
L12804 21697
L12818 21655
L12832 21641
" />
<path d="M13099 21514
L12804 21514
" />
<path d="M13099 21346
L12930 21472
" />
<path d="M12804 21346
L12972 21514
" />
<path d="M11971 21908
L11985 21922
L11999 21964
L11999 21993
L11985 22035
L11957 22063
L11929 22077
L11872 22091
L11830 22091
L11774 22077
L11746 22063
L11718 22035
L11704 21993
L11704 21964
L11718 21922
L11732 21908
" />
<path d="M11985 21796
L11999 21754
L11999 21683
L11985 21655
L11971 21641
L11943 21627
L11915 21627
L11886 21641
L11872 21655
L11858 21683
L11844 21739
L11830 21768
L11816 21782
L11788 21796
L11760 21796
L11732 21782
L11718 21768
L11704 21739
L11704 21669
L11718 21627
" />
<path d="M11802 21500
L11999 21500
" />
<path d="M11830 21500
L11816 21486
L11802 21458
L11802 21416
L11816 21388
L11844 21374
L11999 21374
" />
</g>
<g style="fill:#FFFFFF; fill-opacity:0.0; 
stroke:#FFFFFF; stroke-width:78.7402; stroke-opacity:1; 
stroke-linecap:round; stroke-linejoin:round;">
<path d="M8965 6825
L8965 28325
" />
<path d="M32465 6825
L8965 6825
" />
<path d="M32465 28325
L32465 6825
" />
<path d="M8965 28325
L32465 28325
" />
</g>
<g style="fill:#FFFFFF; fill-opacity:0.0; 
stroke:#FFFFFF; stroke-width:47.2441; stroke-opacity:1; 
stroke-linecap:round; stroke-linejoin:round;">
<path d="M21965 22802
L22489 22802
" />
<path d="M22489 22802
L22489 23325
" />
<path d="M22489 23802
L22489 23849
" />
<path d="M21442 23802
L21442 23849
" />
<path d="M21442 23849
L22489 23849
" />
<path d="M19965 22802
L20489 22802
" />
<path d="M20489 22802
L20489 23325
" />
<path d="M20489 23802
L20489 23849
" />
<path d="M19442 23802
L19442 23849
" />
<path d="M19442 23849
L20489 23849
" />
<path d="M18965 22802
L19489 22802
" />
<path d="M19489 22802
L19489 23325
" />
<path d="M19489 23802
L19489 23849
" />
<path d="M18442 23802
L18442 23849
" />
<path d="M18442 23849
L19489 23849
" />
<path d="M17965 22802
L18489 22802
" />
<path d="M18489 22802
L18489 23325
" />
<path d="M18489 23802
L18489 23849
" />
<path d="M17442 23802
L17442 23849
" />
<path d="M17442 23849
L18489 23849
" />
<path d="M12532 19802
L12532 20849
" />
<path d="M12532 20849
L13580 20849
" />
<path d="M13580 20849
L13580 19802
" />
<path d="M13580 19802
L12532 19802
" />
<path d="M13580 20176
L15942 20176
" />
<path d="M15942 20176
L15942 20475
" />
<path d="M15942 20475
L13580 20475
" />
<path d="M13580 20199
L15942 20199
" />
<path d="M13580 20247
L15942 20247
" />
<path d="M13580 20294
L15942 20294
" />
<path d="M13580 20341
L15942 20341
" />
<path d="M13580 20388
L15942 20388
" />
<path d="M13580 20436
L15942 20436
" />
<path d="M12402 20176
L12532 20176
" />
<path d="M12402 20475
L12532 20475
" />
<path d="M11465 20325
L11465 19825
" />
<path d="M11465 19825
L11965 19825
" />
<path d="M12465 23849
L12465 22802
" />
<path d="M12465 23849
L15489 23849
" />
<path d="M15489 23849
L15489 22802
" />
<path d="M12465 22802
L15489 22802
" />
<path d="M11442 22802
L11965 22802
" />
<path d="M11442 23325
L11442 22802
" />
<path d="M19965 24825
L19965 27825
" />
<path d="M31965 27825
L31965 24825
" />
<path d="M19965 27325
L31965 27325
" />
<path d="M19965 24825
L31965 24825
" />
<path d="M19965 27825
L31965 27825
" />
<path d="M13965 27825
L13965 24825
" />
<path d="M19965 27825
L19965 24825
" />
<path d="M13965 27325
L19965 27325
" />
<path d="M13965 24825
L19965 24825
" />
<path d="M13965 27825
L19965 27825
" />
<path d="M13965 27325
L9965 27325
" />
<path d="M13965 27825
L13965 24825
" />
<path d="M13965 24825
L9965 24825
" />
<path d="M9965 24825
L9965 27825
" />
<path d="M9965 27825
L13965 27825
" />
<path d="M21442 9325
L21442 8802
" />
<path d="M21442 8802
L21965 8802
" />
<path d="M22465 8802
L25489 8802
" />
<path d="M25489 9849
L25489 8802
" />
<path d="M22465 9849
L25489 9849
" />
<path d="M22465 9849
L22465 8802
" />
<path d="M25442 9325
L25442 8802
" />
<path d="M25442 8802
L25965 8802
" />
<path d="M26465 8802
L27489 8802
" />
<path d="M27489 9849
L27489 8802
" />
<path d="M26465 9849
L27489 9849
" />
<path d="M26465 9849
L26465 8802
" />
<path d="M18465 9849
L18465 8802
" />
<path d="M18465 9849
L21489 9849
" />
<path d="M21489 9849
L21489 8802
" />
<path d="M18465 8802
L21489 8802
" />
<path d="M17442 8802
L17965 8802
" />
<path d="M17442 9325
L17442 8802
" />
<path d="M21489 23325
L21489 23849
" />
<path d="M21489 23849
L20965 23849
" />
<path d="M20489 23849
L20442 23849
" />
<path d="M20489 22802
L20442 22802
" />
<path d="M20442 22802
L20442 23849
" />
<path d="M22442 22802
L22442 23849
" />
<path d="M22489 22802
L22442 22802
" />
<path d="M22489 23849
L22442 23849
" />
<path d="M23489 23849
L22965 23849
" />
<path d="M23489 23325
L23489 23849
" />
<path d="M26465 23849
L26465 22802
" />
<path d="M26465 23849
L27489 23849
" />
<path d="M27489 23849
L27489 22802
" />
<path d="M26465 22802
L27489 22802
" />
<path d="M25442 22802
L25965 22802
" />
<path d="M25442 23325
L25442 22802
" />
<path d="M23442 23325
L23442 22802
" />
<path d="M23442 22802
L23965 22802
" />
<path d="M24465 22802
L25489 22802
" />
<path d="M25489 23849
L25489 22802
" />
<path d="M24465 23849
L25489 23849
" />
<path d="M24465 23849
L24465 22802
" />
<path d="M27442 9325
L27442 8802
" />
<path d="M27442 8802
L27965 8802
" />
<path d="M28465 8802
L29489 8802
" />
<path d="M29489 9849
L29489 8802
" />
<path d="M28465 9849
L29489 9849
" />
<path d="M28465 9849
L28465 8802
" />
<path d="M28465 23849
L28465 22802
" />
<path d="M28465 23849
L29489 23849
" />
<path d="M29489 23849
L29489 22802
" />
<path d="M28465 22802
L29489 22802
" />
<path d="M27442 22802
L27965 22802
" />
<path d="M27442 23325
L27442 22802
" />
<g >
</g>
<g >
</g>
<g >
</g>
<g >
</g>
<g >
</g>
<g >
</g>
<g >
</g>
<g >
</g>
<g >
</g>
<g >
</g>
<g >
</g>
<g >
</g>
<g >
</g>
<g >
</g>
<g >
</g>
<g >
</g>
<g >
</g>
<g >
</g>
</g>
<g style="fill:#FFFFFF; fill-opacity:0.0; 
stroke:#FFFFFF; stroke-width:59.0551; stroke-opacity:1; 
stroke-linecap:round; stroke-linejoin:round;">
<path d="M12134 18910
L12134 19191
L12115 19247
L12078 19285
L12022 19303
L11984 19303
" />
<path d="M12509 18910
L12322 18910
L12303 19097
L12322 19079
L12359 19060
L12453 19060
L12490 19079
L12509 19097
L12528 19135
L12528 19228
L12509 19266
L12490 19285
L12453 19303
L12359 19303
L12322 19285
L12303 19266
" />
<path d="M10150 22757
L10431 22757
L10487 22775
L10525 22813
L10543 22869
L10543 22907
" />
<path d="M10281 22400
L10543 22400
" />
<path d="M10131 22494
L10412 22588
L10412 22344
" />
<path d="M20834 25010
L20834 25291
L20815 25347
L20778 25385
L20722 25403
L20684 25403
" />
<path d="M20984 25010
L21228 25010
L21097 25160
L21153 25160
L21190 25178
L21209 25197
L21228 25235
L21228 25328
L21209 25366
L21190 25385
L21153 25403
L21040 25403
L21003 25385
L20984 25366
" />
<path d="M14834 25010
L14834 25291
L14815 25347
L14778 25385
L14722 25403
L14684 25403
" />
<path d="M15003 25047
L15022 25029
L15059 25010
L15153 25010
L15190 25029
L15209 25047
L15228 25085
L15228 25122
L15209 25178
L14984 25403
L15228 25403
" />
<path d="M10834 25010
L10834 25291
L10815 25347
L10778 25385
L10722 25403
L10684 25403
" />
<path d="M11228 25403
L11003 25403
" />
<path d="M11115 25403
L11115 25010
L11078 25066
L11040 25104
L11003 25122
" />
<path d="M22234 9616
L21840 9616
L21840 9466
L21859 9428
L21877 9410
L21915 9391
L21971 9391
L22009 9410
L22027 9428
L22046 9466
L22046 9616
" />
<path d="M22234 9016
L22234 9241
" />
<path d="M22234 9129
L21840 9129
L21896 9166
L21934 9204
L21952 9241
" />
<path d="M27104 9650
L26711 9650
L26711 9500
L26729 9463
L26748 9444
L26786 9425
L26842 9425
L26879 9444
L26898 9463
L26917 9500
L26917 9650
" />
<path d="M26748 9275
L26729 9257
L26711 9219
L26711 9126
L26729 9088
L26748 9069
L26786 9051
L26823 9051
L26879 9069
L27104 9294
L27104 9051
" />
<path d="M18100 9616
L17706 9616
L17706 9466
L17725 9428
L17744 9410
L17781 9391
L17837 9391
L17875 9410
L17894 9428
L17912 9466
L17912 9616
" />
<path d="M17706 9260
L17706 9016
L17856 9147
L17856 9091
L17875 9054
L17894 9035
L17931 9016
L18025 9016
L18062 9035
L18081 9054
L18100 9091
L18100 9204
L18081 9241
L18062 9260
" />
<path d="M21100 23483
L20706 23483
L20706 23333
L20725 23296
L20744 23277
L20781 23258
L20837 23258
L20875 23277
L20894 23296
L20912 23333
L20912 23483
" />
<path d="M20837 22921
L21100 22921
" />
<path d="M20687 23014
L20969 23108
L20969 22864
" />
<path d="M23151 23581
L22757 23581
L22757 23431
L22776 23394
L22795 23375
L22832 23357
L22889 23357
L22926 23375
L22945 23394
L22964 23431
L22964 23581
" />
<path d="M22757 23000
L22757 23188
L22945 23207
L22926 23188
L22907 23150
L22907 23057
L22926 23019
L22945 23000
L22982 22982
L23076 22982
L23114 23000
L23132 23019
L23151 23057
L23151 23150
L23132 23188
L23114 23207
" />
<path d="M26202 23616
L25808 23616
L25808 23466
L25827 23428
L25846 23410
L25883 23391
L25940 23391
L25977 23410
L25996 23428
L26015 23466
L26015 23616
" />
<path d="M25808 23054
L25808 23129
L25827 23166
L25846 23185
L25902 23222
L25977 23241
L26127 23241
L26165 23222
L26183 23204
L26202 23166
L26202 23091
L26183 23054
L26165 23035
L26127 23016
L26033 23016
L25996 23035
L25977 23054
L25958 23091
L25958 23166
L25977 23204
L25996 23222
L26033 23241
" />
<path d="M24234 23680
L23840 23680
L23840 23530
L23859 23492
L23877 23474
L23915 23455
L23971 23455
L24009 23474
L24027 23492
L24046 23530
L24046 23680
" />
<path d="M23840 23324
L23840 23061
L24234 23230
" />
<path d="M28171 9703
L27777 9703
L27777 9553
L27796 9516
L27814 9497
L27852 9478
L27908 9478
L27946 9497
L27964 9516
L27983 9553
L27983 9703
" />
<path d="M27946 9253
L27927 9291
L27908 9310
L27871 9328
L27852 9328
L27814 9310
L27796 9291
L27777 9253
L27777 9178
L27796 9141
L27814 9122
L27852 9103
L27871 9103
L27908 9122
L27927 9141
L27946 9178
L27946 9253
L27964 9291
L27983 9310
L28021 9328
L28096 9328
L28133 9310
L28152 9291
L28171 9253
L28171 9178
L28152 9141
L28133 9122
L28096 9103
L28021 9103
L27983 9122
L27964 9141
L27946 9178
" />
<path d="M28171 23616
L27777 23616
L27777 23466
L27796 23428
L27814 23410
L27852 23391
L27908 23391
L27946 23410
L27964 23428
L27983 23466
L27983 23616
" />
<path d="M28171 23204
L28171 23129
L28152 23091
L28133 23072
L28077 23035
L28002 23016
L27852 23016
L27814 23035
L27796 23054
L27777 23091
L27777 23166
L27796 23204
L27814 23222
L27852 23241
L27946 23241
L27983 23222
L28002 23204
L28021 23166
L28021 23091
L28002 23054
L27983 23035
L27946 23016
" />
<g >
</g>
</g> 
</svg>
