  0
SECTION
  2
HEADER
  9
$ANGBASE
  50
0.0
  9
$ANGDIR
  70
  1
  9
$MEASUREMENT
  70
0
  0
ENDSEC
  0
SECTION
  2
TABLES
  0
TABLE
  2
LTYPE
  70
4
  0
LTYPE
  5
40F
  2
CONTINUOUS
  70
0
  3
Solid line
  72
65
  73
0
  40
0.0
  0
LTYPE
  5
410
  2
DASHDOT
 70
0
  3
Dash Dot ____ _ ____ _
 72
65
 73
4
 40
2.0
 49
1.25
 49
-0.25
 49
0.25
 49
-0.25
  0
LTYPE
  5
411
  2
DASHED
 70
0
  3
Dashed __ __ __ __ __
 72
65
 73
2
 40
0.75
 49
0.5
 49
-0.25
  0
LTYPE
  5
43B
  2
DOTTED
 70
0
  3
Dotted .  .  .  .
 72
65
 73
2
 40
0.2
 49
0.0
 49
-0.2
  0
ENDTAB
  0
TABLE
  2
STYLE
  70
4
  0
STYLE
  2
KICAD
  70
0
  40
0
  41
1
  42
1
  50
0
  71
0
  3
isocp.shx
  0
STYLE
  2
KICADB
  70
0
  40
0
  41
1
  42
1
  50
0
  71
0
  3
isocp.shx
  0
STYLE
  2
KICADI
  70
0
  40
0
  41
1
  42
1
  50
15
  71
0
  3
isocp.shx
  0
STYLE
  2
KICADBI
  70
0
  40
0
  41
1
  42
1
  50
15
  71
0
  3
isocp.shx
  0
ENDTAB
  0
TABLE
  2
LAYER
  70
30
  0
LAYER
  2
BLACK
  70
0
  62
7
  6
CONTINUOUS
  0
LAYER
  2
GRAY1
  70
0
  62
251
  6
CONTINUOUS
  0
LAYER
  2
GRAY2
  70
0
  62
8
  6
CONTINUOUS
  0
LAYER
  2
GRAY3
  70
0
  62
9
  6
CONTINUOUS
  0
LAYER
  2
WHITE
  70
0
  62
7
  6
CONTINUOUS
  0
LAYER
  2
LYELLOW
  70
0
  62
51
  6
CONTINUOUS
  0
LAYER
  2
BLUE1
  70
0
  62
178
  6
CONTINUOUS
  0
LAYER
  2
GREEN1
  70
0
  62
98
  6
CONTINUOUS
  0
LAYER
  2
CYAN1
  70
0
  62
138
  6
CONTINUOUS
  0
LAYER
  2
RED1
  70
0
  62
18
  6
CONTINUOUS
  0
LAYER
  2
MAGENTA1
  70
0
  62
228
  6
CONTINUOUS
  0
LAYER
  2
BROWN1
  70
0
  62
58
  6
CONTINUOUS
  0
LAYER
  2
BLUE2
  70
0
  62
5
  6
CONTINUOUS
  0
LAYER
  2
GREEN2
  70
0
  62
3
  6
CONTINUOUS
  0
LAYER
  2
CYAN2
  70
0
  62
4
  6
CONTINUOUS
  0
LAYER
  2
RED2
  70
0
  62
1
  6
CONTINUOUS
  0
LAYER
  2
MAGENTA2
  70
0
  62
6
  6
CONTINUOUS
  0
LAYER
  2
BROWN2
  70
0
  62
54
  6
CONTINUOUS
  0
LAYER
  2
BLUE3
  70
0
  62
171
  6
CONTINUOUS
  0
LAYER
  2
GREEN3
  70
0
  62
91
  6
CONTINUOUS
  0
LAYER
  2
CYAN3
  70
0
  62
131
  6
CONTINUOUS
  0
LAYER
  2
RED3
  70
0
  62
11
  6
CONTINUOUS
  0
LAYER
  2
MAGENTA3
  70
0
  62
221
  6
CONTINUOUS
  0
LAYER
  2
YELLOW3
  70
0
  62
2
  6
CONTINUOUS
  0
LAYER
  2
BLUE4
  70
0
  62
5
  6
CONTINUOUS
  0
LAYER
  2
GREEN4
  70
0
  62
3
  6
CONTINUOUS
  0
LAYER
  2
CYAN4
  70
0
  62
4
  6
CONTINUOUS
  0
LAYER
  2
RED4
  70
0
  62
1
  6
CONTINUOUS
  0
LAYER
  2
MAGENTA4
  70
0
  62
6
  6
CONTINUOUS
  0
LAYER
  2
YELLOW4
  70
0
  62
2
  6
CONTINUOUS
  0
ENDTAB
  0
ENDSEC
  0
SECTION
  2
ENTITIES
0
LINE
8
BLACK
6
CONTINUOUS
10
29.1728
20
-49.3673
11
29.2085
21
-49.2602
0
LINE
8
BLACK
6
CONTINUOUS
10
29.2085
20
-49.2602
11
29.2085
21
-49.0816
0
LINE
8
BLACK
6
CONTINUOUS
10
29.2085
20
-49.0816
11
29.1728
21
-49.0102
0
LINE
8
BLACK
6
CONTINUOUS
10
29.1728
20
-49.0102
11
29.1371
21
-48.9745
0
LINE
8
BLACK
6
CONTINUOUS
10
29.1371
20
-48.9745
11
29.0656
21
-48.9387
0
LINE
8
BLACK
6
CONTINUOUS
10
29.0656
20
-48.9387
11
28.9942
21
-48.9387
0
LINE
8
BLACK
6
CONTINUOUS
10
28.9942
20
-48.9387
11
28.9228
21
-48.9745
0
LINE
8
BLACK
6
CONTINUOUS
10
28.9228
20
-48.9745
11
28.8871
21
-49.0102
0
LINE
8
BLACK
6
CONTINUOUS
10
28.8871
20
-49.0102
11
28.8513
21
-49.0816
0
LINE
8
BLACK
6
CONTINUOUS
10
28.8513
20
-49.0816
11
28.8156
21
-49.2245
0
LINE
8
BLACK
6
CONTINUOUS
10
28.8156
20
-49.2245
11
28.7799
21
-49.2959
0
LINE
8
BLACK
6
CONTINUOUS
10
28.7799
20
-49.2959
11
28.7442
21
-49.3316
0
LINE
8
BLACK
6
CONTINUOUS
10
28.7442
20
-49.3316
11
28.6728
21
-49.3673
0
LINE
8
BLACK
6
CONTINUOUS
10
28.6728
20
-49.3673
11
28.6013
21
-49.3673
0
LINE
8
BLACK
6
CONTINUOUS
10
28.6013
20
-49.3673
11
28.5299
21
-49.3316
0
LINE
8
BLACK
6
CONTINUOUS
10
28.5299
20
-49.3316
11
28.4942
21
-49.2959
0
LINE
8
BLACK
6
CONTINUOUS
10
28.4942
20
-49.2959
11
28.4585
21
-49.2245
0
LINE
8
BLACK
6
CONTINUOUS
10
28.4585
20
-49.2245
11
28.4585
21
-49.0459
0
LINE
8
BLACK
6
CONTINUOUS
10
28.4585
20
-49.0459
11
28.4942
21
-48.9387
0
LINE
8
BLACK
6
CONTINUOUS
10
28.4942
20
-48.2245
11
28.4585
21
-48.2959
0
LINE
8
BLACK
6
CONTINUOUS
10
28.4585
20
-48.2959
11
28.4585
21
-48.403
0
LINE
8
BLACK
6
CONTINUOUS
10
28.4585
20
-48.403
11
28.4942
21
-48.5102
0
LINE
8
BLACK
6
CONTINUOUS
10
28.4942
20
-48.5102
11
28.5656
21
-48.5816
0
LINE
8
BLACK
6
CONTINUOUS
10
28.5656
20
-48.5816
11
28.6371
21
-48.6173
0
LINE
8
BLACK
6
CONTINUOUS
10
28.6371
20
-48.6173
11
28.7799
21
-48.653
0
LINE
8
BLACK
6
CONTINUOUS
10
28.7799
20
-48.653
11
28.8871
21
-48.653
0
LINE
8
BLACK
6
CONTINUOUS
10
28.8871
20
-48.653
11
29.0299
21
-48.6173
0
LINE
8
BLACK
6
CONTINUOUS
10
29.0299
20
-48.6173
11
29.1013
21
-48.5816
0
LINE
8
BLACK
6
CONTINUOUS
10
29.1013
20
-48.5816
11
29.1728
21
-48.5102
0
LINE
8
BLACK
6
CONTINUOUS
10
29.1728
20
-48.5102
11
29.2085
21
-48.403
0
LINE
8
BLACK
6
CONTINUOUS
10
29.2085
20
-48.403
11
29.2085
21
-48.3316
0
LINE
8
BLACK
6
CONTINUOUS
10
29.2085
20
-48.3316
11
29.1728
21
-48.2245
0
LINE
8
BLACK
6
CONTINUOUS
10
29.1728
20
-48.2245
11
29.1371
21
-48.1887
0
LINE
8
BLACK
6
CONTINUOUS
10
29.1371
20
-48.1887
11
28.8871
21
-48.1887
0
LINE
8
BLACK
6
CONTINUOUS
10
28.8871
20
-48.1887
11
28.8871
21
-48.3316
0
LINE
8
BLACK
6
CONTINUOUS
10
29.2799
20
-48.0459
11
29.2799
21
-47.4745
0
LINE
8
BLACK
6
CONTINUOUS
10
28.4585
20
-47.403
11
28.4585
21
-46.9745
0
LINE
8
BLACK
6
CONTINUOUS
10
29.2085
20
-47.1887
11
28.4585
21
-47.1887
0
LINE
8
BLACK
6
CONTINUOUS
10
29.1728
20
-46.7602
11
29.2085
21
-46.653
0
LINE
8
BLACK
6
CONTINUOUS
10
29.2085
20
-46.653
11
29.2085
21
-46.4745
0
LINE
8
BLACK
6
CONTINUOUS
10
29.2085
20
-46.4745
11
29.1728
21
-46.403
0
LINE
8
BLACK
6
CONTINUOUS
10
29.1728
20
-46.403
11
29.1371
21
-46.3673
0
LINE
8
BLACK
6
CONTINUOUS
10
29.1371
20
-46.3673
11
29.0656
21
-46.3316
0
LINE
8
BLACK
6
CONTINUOUS
10
29.0656
20
-46.3316
11
28.9942
21
-46.3316
0
LINE
8
BLACK
6
CONTINUOUS
10
28.9942
20
-46.3316
11
28.9228
21
-46.3673
0
LINE
8
BLACK
6
CONTINUOUS
10
28.9228
20
-46.3673
11
28.8871
21
-46.403
0
LINE
8
BLACK
6
CONTINUOUS
10
28.8871
20
-46.403
11
28.8513
21
-46.4745
0
LINE
8
BLACK
6
CONTINUOUS
10
28.8513
20
-46.4745
11
28.8156
21
-46.6173
0
LINE
8
BLACK
6
CONTINUOUS
10
28.8156
20
-46.6173
11
28.7799
21
-46.6887
0
LINE
8
BLACK
6
CONTINUOUS
10
28.7799
20
-46.6887
11
28.7442
21
-46.7245
0
LINE
8
BLACK
6
CONTINUOUS
10
28.7442
20
-46.7245
11
28.6728
21
-46.7602
0
LINE
8
BLACK
6
CONTINUOUS
10
28.6728
20
-46.7602
11
28.6013
21
-46.7602
0
LINE
8
BLACK
6
CONTINUOUS
10
28.6013
20
-46.7602
11
28.5299
21
-46.7245
0
LINE
8
BLACK
6
CONTINUOUS
10
28.5299
20
-46.7245
11
28.4942
21
-46.6887
0
LINE
8
BLACK
6
CONTINUOUS
10
28.4942
20
-46.6887
11
28.4585
21
-46.6173
0
LINE
8
BLACK
6
CONTINUOUS
10
28.4585
20
-46.6173
11
28.4585
21
-46.4387
0
LINE
8
BLACK
6
CONTINUOUS
10
28.4585
20
-46.4387
11
28.4942
21
-46.3316
0
LINE
8
BLACK
6
CONTINUOUS
10
28.4585
20
-46.1173
11
28.4585
21
-45.6887
0
LINE
8
BLACK
6
CONTINUOUS
10
29.2085
20
-45.903
11
28.4585
21
-45.903
0
LINE
8
BLACK
6
CONTINUOUS
10
25.47
20
-20.6225
11
26.0414
21
-20.6225
0
LINE
8
BLACK
6
CONTINUOUS
10
25.7557
20
-21.6225
11
25.7557
21
-20.6225
0
LINE
8
BLACK
6
CONTINUOUS
10
26.3748
20
-21.6225
11
26.3748
21
-20.6225
0
LINE
8
BLACK
6
CONTINUOUS
10
26.3748
20
-20.6225
11
26.7081
21
-21.3368
0
LINE
8
BLACK
6
CONTINUOUS
10
26.7081
20
-21.3368
11
27.0414
21
-20.6225
0
LINE
8
BLACK
6
CONTINUOUS
10
27.0414
20
-20.6225
11
27.0414
21
-21.6225
0
LINE
8
BLACK
6
CONTINUOUS
10
28.0891
20
-21.5273
11
28.0414
21
-21.5749
0
LINE
8
BLACK
6
CONTINUOUS
10
28.0414
20
-21.5749
11
27.8986
21
-21.6225
0
LINE
8
BLACK
6
CONTINUOUS
10
27.8986
20
-21.6225
11
27.8033
21
-21.6225
0
LINE
8
BLACK
6
CONTINUOUS
10
27.8033
20
-21.6225
11
27.6605
21
-21.5749
0
LINE
8
BLACK
6
CONTINUOUS
10
27.6605
20
-21.5749
11
27.5653
21
-21.4797
0
LINE
8
BLACK
6
CONTINUOUS
10
27.5653
20
-21.4797
11
27.5176
21
-21.3844
0
LINE
8
BLACK
6
CONTINUOUS
10
27.5176
20
-21.3844
11
27.47
21
-21.194
0
LINE
8
BLACK
6
CONTINUOUS
10
27.47
20
-21.194
11
27.47
21
-21.0511
0
LINE
8
BLACK
6
CONTINUOUS
10
27.47
20
-21.0511
11
27.5176
21
-20.8606
0
LINE
8
BLACK
6
CONTINUOUS
10
27.5176
20
-20.8606
11
27.5653
21
-20.7654
0
LINE
8
BLACK
6
CONTINUOUS
10
27.5653
20
-20.7654
11
27.6605
21
-20.6702
0
LINE
8
BLACK
6
CONTINUOUS
10
27.6605
20
-20.6702
11
27.8033
21
-20.6225
0
LINE
8
BLACK
6
CONTINUOUS
10
27.8033
20
-20.6225
11
27.8986
21
-20.6225
0
LINE
8
BLACK
6
CONTINUOUS
10
27.8986
20
-20.6225
11
28.0414
21
-20.6702
0
LINE
8
BLACK
6
CONTINUOUS
10
28.0414
20
-20.6702
11
28.0891
21
-20.7178
0
LINE
8
BLACK
6
CONTINUOUS
10
28.47
20
-20.7178
11
28.5176
21
-20.6702
0
LINE
8
BLACK
6
CONTINUOUS
10
28.5176
20
-20.6702
11
28.6129
21
-20.6225
0
LINE
8
BLACK
6
CONTINUOUS
10
28.6129
20
-20.6225
11
28.851
21
-20.6225
0
LINE
8
BLACK
6
CONTINUOUS
10
28.851
20
-20.6225
11
28.9462
21
-20.6702
0
LINE
8
BLACK
6
CONTINUOUS
10
28.9462
20
-20.6702
11
28.9938
21
-20.7178
0
LINE
8
BLACK
6
CONTINUOUS
10
28.9938
20
-20.7178
11
29.0414
21
-20.813
0
LINE
8
BLACK
6
CONTINUOUS
10
29.0414
20
-20.813
11
29.0414
21
-20.9083
0
LINE
8
BLACK
6
CONTINUOUS
10
29.0414
20
-20.9083
11
28.9938
21
-21.0511
0
LINE
8
BLACK
6
CONTINUOUS
10
28.9938
20
-21.0511
11
28.4224
21
-21.6225
0
LINE
8
BLACK
6
CONTINUOUS
10
28.4224
20
-21.6225
11
29.0414
21
-21.6225
0
LINE
8
BLACK
6
CONTINUOUS
10
29.8986
20
-20.6225
11
29.7081
21
-20.6225
0
LINE
8
BLACK
6
CONTINUOUS
10
29.7081
20
-20.6225
11
29.6129
21
-20.6702
0
LINE
8
BLACK
6
CONTINUOUS
10
29.6129
20
-20.6702
11
29.5653
21
-20.7178
0
LINE
8
BLACK
6
CONTINUOUS
10
29.5653
20
-20.7178
11
29.47
21
-20.8606
0
LINE
8
BLACK
6
CONTINUOUS
10
29.47
20
-20.8606
11
29.4224
21
-21.0511
0
LINE
8
BLACK
6
CONTINUOUS
10
29.4224
20
-21.0511
11
29.4224
21
-21.4321
0
LINE
8
BLACK
6
CONTINUOUS
10
29.4224
20
-21.4321
11
29.47
21
-21.5273
0
LINE
8
BLACK
6
CONTINUOUS
10
29.47
20
-21.5273
11
29.5176
21
-21.5749
0
LINE
8
BLACK
6
CONTINUOUS
10
29.5176
20
-21.5749
11
29.6129
21
-21.6225
0
LINE
8
BLACK
6
CONTINUOUS
10
29.6129
20
-21.6225
11
29.8033
21
-21.6225
0
LINE
8
BLACK
6
CONTINUOUS
10
29.8033
20
-21.6225
11
29.8986
21
-21.5749
0
LINE
8
BLACK
6
CONTINUOUS
10
29.8986
20
-21.5749
11
29.9462
21
-21.5273
0
LINE
8
BLACK
6
CONTINUOUS
10
29.9462
20
-21.5273
11
29.9938
21
-21.4321
0
LINE
8
BLACK
6
CONTINUOUS
10
29.9938
20
-21.4321
11
29.9938
21
-21.194
0
LINE
8
BLACK
6
CONTINUOUS
10
29.9938
20
-21.194
11
29.9462
21
-21.0987
0
LINE
8
BLACK
6
CONTINUOUS
10
29.9462
20
-21.0987
11
29.8986
21
-21.0511
0
LINE
8
BLACK
6
CONTINUOUS
10
29.8986
20
-21.0511
11
29.8033
21
-21.0035
0
LINE
8
BLACK
6
CONTINUOUS
10
29.8033
20
-21.0035
11
29.6129
21
-21.0035
0
LINE
8
BLACK
6
CONTINUOUS
10
29.6129
20
-21.0035
11
29.5176
21
-21.0511
0
LINE
8
BLACK
6
CONTINUOUS
10
29.5176
20
-21.0511
11
29.47
21
-21.0987
0
LINE
8
BLACK
6
CONTINUOUS
10
29.47
20
-21.0987
11
29.4224
21
-21.194
0
LINE
8
BLACK
6
CONTINUOUS
10
30.851
20
-20.6225
11
30.6605
21
-20.6225
0
LINE
8
BLACK
6
CONTINUOUS
10
30.6605
20
-20.6225
11
30.5653
21
-20.6702
0
LINE
8
BLACK
6
CONTINUOUS
10
30.5653
20
-20.6702
11
30.5176
21
-20.7178
0
LINE
8
BLACK
6
CONTINUOUS
10
30.5176
20
-20.7178
11
30.4224
21
-20.8606
0
LINE
8
BLACK
6
CONTINUOUS
10
30.4224
20
-20.8606
11
30.3748
21
-21.0511
0
LINE
8
BLACK
6
CONTINUOUS
10
30.3748
20
-21.0511
11
30.3748
21
-21.4321
0
LINE
8
BLACK
6
CONTINUOUS
10
30.3748
20
-21.4321
11
30.4224
21
-21.5273
0
LINE
8
BLACK
6
CONTINUOUS
10
30.4224
20
-21.5273
11
30.47
21
-21.5749
0
LINE
8
BLACK
6
CONTINUOUS
10
30.47
20
-21.5749
11
30.5653
21
-21.6225
0
LINE
8
BLACK
6
CONTINUOUS
10
30.5653
20
-21.6225
11
30.7557
21
-21.6225
0
LINE
8
BLACK
6
CONTINUOUS
10
30.7557
20
-21.6225
11
30.851
21
-21.5749
0
LINE
8
BLACK
6
CONTINUOUS
10
30.851
20
-21.5749
11
30.8986
21
-21.5273
0
LINE
8
BLACK
6
CONTINUOUS
10
30.8986
20
-21.5273
11
30.9462
21
-21.4321
0
LINE
8
BLACK
6
CONTINUOUS
10
30.9462
20
-21.4321
11
30.9462
21
-21.194
0
LINE
8
BLACK
6
CONTINUOUS
10
30.9462
20
-21.194
11
30.8986
21
-21.0987
0
LINE
8
BLACK
6
CONTINUOUS
10
30.8986
20
-21.0987
11
30.851
21
-21.0511
0
LINE
8
BLACK
6
CONTINUOUS
10
30.851
20
-21.0511
11
30.7557
21
-21.0035
0
LINE
8
BLACK
6
CONTINUOUS
10
30.7557
20
-21.0035
11
30.5653
21
-21.0035
0
LINE
8
BLACK
6
CONTINUOUS
10
30.5653
20
-21.0035
11
30.47
21
-21.0511
0
LINE
8
BLACK
6
CONTINUOUS
10
30.47
20
-21.0511
11
30.4224
21
-21.0987
0
LINE
8
BLACK
6
CONTINUOUS
10
30.4224
20
-21.0987
11
30.3748
21
-21.194
0
LINE
8
BLACK
6
CONTINUOUS
10
31.5653
20
-20.6225
11
31.6605
21
-20.6225
0
LINE
8
BLACK
6
CONTINUOUS
10
31.6605
20
-20.6225
11
31.7557
21
-20.6702
0
LINE
8
BLACK
6
CONTINUOUS
10
31.7557
20
-20.6702
11
31.8033
21
-20.7178
0
LINE
8
BLACK
6
CONTINUOUS
10
31.8033
20
-20.7178
11
31.851
21
-20.813
0
LINE
8
BLACK
6
CONTINUOUS
10
31.851
20
-20.813
11
31.8986
21
-21.0035
0
LINE
8
BLACK
6
CONTINUOUS
10
31.8986
20
-21.0035
11
31.8986
21
-21.2416
0
LINE
8
BLACK
6
CONTINUOUS
10
31.8986
20
-21.2416
11
31.851
21
-21.4321
0
LINE
8
BLACK
6
CONTINUOUS
10
31.851
20
-21.4321
11
31.8033
21
-21.5273
0
LINE
8
BLACK
6
CONTINUOUS
10
31.8033
20
-21.5273
11
31.7557
21
-21.5749
0
LINE
8
BLACK
6
CONTINUOUS
10
31.7557
20
-21.5749
11
31.6605
21
-21.6225
0
LINE
8
BLACK
6
CONTINUOUS
10
31.6605
20
-21.6225
11
31.5653
21
-21.6225
0
LINE
8
BLACK
6
CONTINUOUS
10
31.5653
20
-21.6225
11
31.47
21
-21.5749
0
LINE
8
BLACK
6
CONTINUOUS
10
31.47
20
-21.5749
11
31.4224
21
-21.5273
0
LINE
8
BLACK
6
CONTINUOUS
10
31.4224
20
-21.5273
11
31.3748
21
-21.4321
0
LINE
8
BLACK
6
CONTINUOUS
10
31.3748
20
-21.4321
11
31.3272
21
-21.2416
0
LINE
8
BLACK
6
CONTINUOUS
10
31.3272
20
-21.2416
11
31.3272
21
-21.0035
0
LINE
8
BLACK
6
CONTINUOUS
10
31.3272
20
-21.0035
11
31.3748
21
-20.813
0
LINE
8
BLACK
6
CONTINUOUS
10
31.3748
20
-20.813
11
31.4224
21
-20.7178
0
LINE
8
BLACK
6
CONTINUOUS
10
31.4224
20
-20.7178
11
31.47
21
-20.6702
0
LINE
8
BLACK
6
CONTINUOUS
10
31.47
20
-20.6702
11
31.5653
21
-20.6225
0
LINE
8
BLACK
6
CONTINUOUS
10
32.3272
20
-21.2416
11
33.0891
21
-21.2416
0
LINE
8
BLACK
6
CONTINUOUS
10
33.8986
20
-21.0987
11
34.0414
21
-21.1464
0
LINE
8
BLACK
6
CONTINUOUS
10
34.0414
20
-21.1464
11
34.0891
21
-21.194
0
LINE
8
BLACK
6
CONTINUOUS
10
34.0891
20
-21.194
11
34.1367
21
-21.2892
0
LINE
8
BLACK
6
CONTINUOUS
10
34.1367
20
-21.2892
11
34.1367
21
-21.4321
0
LINE
8
BLACK
6
CONTINUOUS
10
34.1367
20
-21.4321
11
34.0891
21
-21.5273
0
LINE
8
BLACK
6
CONTINUOUS
10
34.0891
20
-21.5273
11
34.0414
21
-21.5749
0
LINE
8
BLACK
6
CONTINUOUS
10
34.0414
20
-21.5749
11
33.9462
21
-21.6225
0
LINE
8
BLACK
6
CONTINUOUS
10
33.9462
20
-21.6225
11
33.5653
21
-21.6225
0
LINE
8
BLACK
6
CONTINUOUS
10
33.5653
20
-21.6225
11
33.5653
21
-20.6225
0
LINE
8
BLACK
6
CONTINUOUS
10
33.5653
20
-20.6225
11
33.8986
21
-20.6225
0
LINE
8
BLACK
6
CONTINUOUS
10
33.8986
20
-20.6225
11
33.9938
21
-20.6702
0
LINE
8
BLACK
6
CONTINUOUS
10
33.9938
20
-20.6702
11
34.0414
21
-20.7178
0
LINE
8
BLACK
6
CONTINUOUS
10
34.0414
20
-20.7178
11
34.0891
21
-20.813
0
LINE
8
BLACK
6
CONTINUOUS
10
34.0891
20
-20.813
11
34.0891
21
-20.9083
0
LINE
8
BLACK
6
CONTINUOUS
10
34.0891
20
-20.9083
11
34.0414
21
-21.0035
0
LINE
8
BLACK
6
CONTINUOUS
10
34.0414
20
-21.0035
11
33.9938
21
-21.0511
0
LINE
8
BLACK
6
CONTINUOUS
10
33.9938
20
-21.0511
11
33.8986
21
-21.0987
0
LINE
8
BLACK
6
CONTINUOUS
10
33.8986
20
-21.0987
11
33.5653
21
-21.0987
0
LINE
8
BLACK
6
CONTINUOUS
10
34.7557
20
-20.6225
11
34.9462
21
-20.6225
0
LINE
8
BLACK
6
CONTINUOUS
10
34.9462
20
-20.6225
11
35.0414
21
-20.6702
0
LINE
8
BLACK
6
CONTINUOUS
10
35.0414
20
-20.6702
11
35.1367
21
-20.7654
0
LINE
8
BLACK
6
CONTINUOUS
10
35.1367
20
-20.7654
11
35.1843
21
-20.9559
0
LINE
8
BLACK
6
CONTINUOUS
10
35.1843
20
-20.9559
11
35.1843
21
-21.2892
0
LINE
8
BLACK
6
CONTINUOUS
10
35.1843
20
-21.2892
11
35.1367
21
-21.4797
0
LINE
8
BLACK
6
CONTINUOUS
10
35.1367
20
-21.4797
11
35.0414
21
-21.5749
0
LINE
8
BLACK
6
CONTINUOUS
10
35.0414
20
-21.5749
11
34.9462
21
-21.6225
0
LINE
8
BLACK
6
CONTINUOUS
10
34.9462
20
-21.6225
11
34.7557
21
-21.6225
0
LINE
8
BLACK
6
CONTINUOUS
10
34.7557
20
-21.6225
11
34.6605
21
-21.5749
0
LINE
8
BLACK
6
CONTINUOUS
10
34.6605
20
-21.5749
11
34.5653
21
-21.4797
0
LINE
8
BLACK
6
CONTINUOUS
10
34.5653
20
-21.4797
11
34.5176
21
-21.2892
0
LINE
8
BLACK
6
CONTINUOUS
10
34.5176
20
-21.2892
11
34.5176
21
-20.9559
0
LINE
8
BLACK
6
CONTINUOUS
10
34.5176
20
-20.9559
11
34.5653
21
-20.7654
0
LINE
8
BLACK
6
CONTINUOUS
10
34.5653
20
-20.7654
11
34.6605
21
-20.6702
0
LINE
8
BLACK
6
CONTINUOUS
10
34.6605
20
-20.6702
11
34.7557
21
-20.6225
0
LINE
8
BLACK
6
CONTINUOUS
10
35.9462
20
-21.0987
11
36.0891
21
-21.1464
0
LINE
8
BLACK
6
CONTINUOUS
10
36.0891
20
-21.1464
11
36.1367
21
-21.194
0
LINE
8
BLACK
6
CONTINUOUS
10
36.1367
20
-21.194
11
36.1843
21
-21.2892
0
LINE
8
BLACK
6
CONTINUOUS
10
36.1843
20
-21.2892
11
36.1843
21
-21.4321
0
LINE
8
BLACK
6
CONTINUOUS
10
36.1843
20
-21.4321
11
36.1367
21
-21.5273
0
LINE
8
BLACK
6
CONTINUOUS
10
36.1367
20
-21.5273
11
36.0891
21
-21.5749
0
LINE
8
BLACK
6
CONTINUOUS
10
36.0891
20
-21.5749
11
35.9938
21
-21.6225
0
LINE
8
BLACK
6
CONTINUOUS
10
35.9938
20
-21.6225
11
35.6129
21
-21.6225
0
LINE
8
BLACK
6
CONTINUOUS
10
35.6129
20
-21.6225
11
35.6129
21
-20.6225
0
LINE
8
BLACK
6
CONTINUOUS
10
35.6129
20
-20.6225
11
35.9462
21
-20.6225
0
LINE
8
BLACK
6
CONTINUOUS
10
35.9462
20
-20.6225
11
36.0414
21
-20.6702
0
LINE
8
BLACK
6
CONTINUOUS
10
36.0414
20
-20.6702
11
36.0891
21
-20.7178
0
LINE
8
BLACK
6
CONTINUOUS
10
36.0891
20
-20.7178
11
36.1367
21
-20.813
0
LINE
8
BLACK
6
CONTINUOUS
10
36.1367
20
-20.813
11
36.1367
21
-20.9083
0
LINE
8
BLACK
6
CONTINUOUS
10
36.1367
20
-20.9083
11
36.0891
21
-21.0035
0
LINE
8
BLACK
6
CONTINUOUS
10
36.0891
20
-21.0035
11
36.0414
21
-21.0511
0
LINE
8
BLACK
6
CONTINUOUS
10
36.0414
20
-21.0511
11
35.9462
21
-21.0987
0
LINE
8
BLACK
6
CONTINUOUS
10
35.9462
20
-21.0987
11
35.6129
21
-21.0987
0
LINE
8
BLACK
6
CONTINUOUS
10
37.3748
20
-21.6225
11
37.3748
21
-20.6225
0
LINE
8
BLACK
6
CONTINUOUS
10
37.3748
20
-21.0987
11
37.9462
21
-21.0987
0
LINE
8
BLACK
6
CONTINUOUS
10
37.9462
20
-21.6225
11
37.9462
21
-20.6225
0
LINE
8
BLACK
6
CONTINUOUS
10
38.5653
20
-21.6225
11
38.47
21
-21.5749
0
LINE
8
BLACK
6
CONTINUOUS
10
38.47
20
-21.5749
11
38.4224
21
-21.5273
0
LINE
8
BLACK
6
CONTINUOUS
10
38.4224
20
-21.5273
11
38.3748
21
-21.4321
0
LINE
8
BLACK
6
CONTINUOUS
10
38.3748
20
-21.4321
11
38.3748
21
-21.1464
0
LINE
8
BLACK
6
CONTINUOUS
10
38.3748
20
-21.1464
11
38.4224
21
-21.0511
0
LINE
8
BLACK
6
CONTINUOUS
10
38.4224
20
-21.0511
11
38.47
21
-21.0035
0
LINE
8
BLACK
6
CONTINUOUS
10
38.47
20
-21.0035
11
38.5653
21
-20.9559
0
LINE
8
BLACK
6
CONTINUOUS
10
38.5653
20
-20.9559
11
38.7081
21
-20.9559
0
LINE
8
BLACK
6
CONTINUOUS
10
38.7081
20
-20.9559
11
38.8033
21
-21.0035
0
LINE
8
BLACK
6
CONTINUOUS
10
38.8033
20
-21.0035
11
38.851
21
-21.0511
0
LINE
8
BLACK
6
CONTINUOUS
10
38.851
20
-21.0511
11
38.8986
21
-21.1464
0
LINE
8
BLACK
6
CONTINUOUS
10
38.8986
20
-21.1464
11
38.8986
21
-21.4321
0
LINE
8
BLACK
6
CONTINUOUS
10
38.8986
20
-21.4321
11
38.851
21
-21.5273
0
LINE
8
BLACK
6
CONTINUOUS
10
38.851
20
-21.5273
11
38.8033
21
-21.5749
0
LINE
8
BLACK
6
CONTINUOUS
10
38.8033
20
-21.5749
11
38.7081
21
-21.6225
0
LINE
8
BLACK
6
CONTINUOUS
10
38.7081
20
-21.6225
11
38.5653
21
-21.6225
0
LINE
8
BLACK
6
CONTINUOUS
10
39.47
20
-21.6225
11
39.3748
21
-21.5749
0
LINE
8
BLACK
6
CONTINUOUS
10
39.3748
20
-21.5749
11
39.3272
21
-21.4797
0
LINE
8
BLACK
6
CONTINUOUS
10
39.3272
20
-21.4797
11
39.3272
21
-20.6225
0
LINE
8
BLACK
6
CONTINUOUS
10
40.2795
20
-21.6225
11
40.2795
21
-20.6225
0
LINE
8
BLACK
6
CONTINUOUS
10
40.2795
20
-21.5749
11
40.1843
21
-21.6225
0
LINE
8
BLACK
6
CONTINUOUS
10
40.1843
20
-21.6225
11
39.9938
21
-21.6225
0
LINE
8
BLACK
6
CONTINUOUS
10
39.9938
20
-21.6225
11
39.8986
21
-21.5749
0
LINE
8
BLACK
6
CONTINUOUS
10
39.8986
20
-21.5749
11
39.851
21
-21.5273
0
LINE
8
BLACK
6
CONTINUOUS
10
39.851
20
-21.5273
11
39.8033
21
-21.4321
0
LINE
8
BLACK
6
CONTINUOUS
10
39.8033
20
-21.4321
11
39.8033
21
-21.1464
0
LINE
8
BLACK
6
CONTINUOUS
10
39.8033
20
-21.1464
11
39.851
21
-21.0511
0
LINE
8
BLACK
6
CONTINUOUS
10
39.851
20
-21.0511
11
39.8986
21
-21.0035
0
LINE
8
BLACK
6
CONTINUOUS
10
39.8986
20
-21.0035
11
39.9938
21
-20.9559
0
LINE
8
BLACK
6
CONTINUOUS
10
39.9938
20
-20.9559
11
40.1843
21
-20.9559
0
LINE
8
BLACK
6
CONTINUOUS
10
40.1843
20
-20.9559
11
40.2795
21
-21.0035
0
LINE
8
BLACK
6
CONTINUOUS
10
41.1367
20
-21.5749
11
41.0414
21
-21.6225
0
LINE
8
BLACK
6
CONTINUOUS
10
41.0414
20
-21.6225
11
40.851
21
-21.6225
0
LINE
8
BLACK
6
CONTINUOUS
10
40.851
20
-21.6225
11
40.7557
21
-21.5749
0
LINE
8
BLACK
6
CONTINUOUS
10
40.7557
20
-21.5749
11
40.7081
21
-21.4797
0
LINE
8
BLACK
6
CONTINUOUS
10
40.7081
20
-21.4797
11
40.7081
21
-21.0987
0
LINE
8
BLACK
6
CONTINUOUS
10
40.7081
20
-21.0987
11
40.7557
21
-21.0035
0
LINE
8
BLACK
6
CONTINUOUS
10
40.7557
20
-21.0035
11
40.851
21
-20.9559
0
LINE
8
BLACK
6
CONTINUOUS
10
40.851
20
-20.9559
11
41.0414
21
-20.9559
0
LINE
8
BLACK
6
CONTINUOUS
10
41.0414
20
-20.9559
11
41.1367
21
-21.0035
0
LINE
8
BLACK
6
CONTINUOUS
10
41.1367
20
-21.0035
11
41.1843
21
-21.0987
0
LINE
8
BLACK
6
CONTINUOUS
10
41.1843
20
-21.0987
11
41.1843
21
-21.194
0
LINE
8
BLACK
6
CONTINUOUS
10
41.1843
20
-21.194
11
40.7081
21
-21.2892
0
LINE
8
BLACK
6
CONTINUOUS
10
41.6129
20
-21.6225
11
41.6129
21
-20.9559
0
LINE
8
BLACK
6
CONTINUOUS
10
41.6129
20
-21.1464
11
41.6605
21
-21.0511
0
LINE
8
BLACK
6
CONTINUOUS
10
41.6605
20
-21.0511
11
41.7081
21
-21.0035
0
LINE
8
BLACK
6
CONTINUOUS
10
41.7081
20
-21.0035
11
41.8033
21
-20.9559
0
LINE
8
BLACK
6
CONTINUOUS
10
41.8033
20
-20.9559
11
41.8986
21
-20.9559
0
LINE
8
BLACK
6
CONTINUOUS
10
28.1129
20
-22.5706
11
28.0176
21
-22.523
0
LINE
8
BLACK
6
CONTINUOUS
10
28.0176
20
-22.523
11
27.8272
21
-22.523
0
LINE
8
BLACK
6
CONTINUOUS
10
27.8272
20
-22.523
11
27.7319
21
-22.5706
0
LINE
8
BLACK
6
CONTINUOUS
10
27.7319
20
-22.5706
11
27.6367
21
-22.6659
0
LINE
8
BLACK
6
CONTINUOUS
10
27.6367
20
-22.6659
11
27.5891
21
-22.7611
0
LINE
8
BLACK
6
CONTINUOUS
10
27.5891
20
-22.7611
11
27.5891
21
-22.9516
0
LINE
8
BLACK
6
CONTINUOUS
10
27.5891
20
-22.9516
11
27.6367
21
-23.0468
0
LINE
8
BLACK
6
CONTINUOUS
10
27.6367
20
-23.0468
11
27.7319
21
-23.1421
0
LINE
8
BLACK
6
CONTINUOUS
10
27.7319
20
-23.1421
11
27.8272
21
-23.1897
0
LINE
8
BLACK
6
CONTINUOUS
10
27.8272
20
-23.1897
11
28.0176
21
-23.1897
0
LINE
8
BLACK
6
CONTINUOUS
10
28.0176
20
-23.1897
11
28.1129
21
-23.1421
0
LINE
8
BLACK
6
CONTINUOUS
10
27.9224
20
-22.1897
11
27.6843
21
-22.2373
0
LINE
8
BLACK
6
CONTINUOUS
10
27.6843
20
-22.2373
11
27.4462
21
-22.3802
0
LINE
8
BLACK
6
CONTINUOUS
10
27.4462
20
-22.3802
11
27.3033
21
-22.6183
0
LINE
8
BLACK
6
CONTINUOUS
10
27.3033
20
-22.6183
11
27.2557
21
-22.8564
0
LINE
8
BLACK
6
CONTINUOUS
10
27.2557
20
-22.8564
11
27.3033
21
-23.0944
0
LINE
8
BLACK
6
CONTINUOUS
10
27.3033
20
-23.0944
11
27.4462
21
-23.3325
0
LINE
8
BLACK
6
CONTINUOUS
10
27.4462
20
-23.3325
11
27.6843
21
-23.4754
0
LINE
8
BLACK
6
CONTINUOUS
10
27.6843
20
-23.4754
11
27.9224
21
-23.523
0
LINE
8
BLACK
6
CONTINUOUS
10
27.9224
20
-23.523
11
28.1605
21
-23.4754
0
LINE
8
BLACK
6
CONTINUOUS
10
28.1605
20
-23.4754
11
28.3986
21
-23.3325
0
LINE
8
BLACK
6
CONTINUOUS
10
28.3986
20
-23.3325
11
28.5414
21
-23.0944
0
LINE
8
BLACK
6
CONTINUOUS
10
28.5414
20
-23.0944
11
28.5891
21
-22.8564
0
LINE
8
BLACK
6
CONTINUOUS
10
28.5891
20
-22.8564
11
28.5414
21
-22.6183
0
LINE
8
BLACK
6
CONTINUOUS
10
28.5414
20
-22.6183
11
28.3986
21
-22.3802
0
LINE
8
BLACK
6
CONTINUOUS
10
28.3986
20
-22.3802
11
28.1605
21
-22.2373
0
LINE
8
BLACK
6
CONTINUOUS
10
28.1605
20
-22.2373
11
27.9224
21
-22.1897
0
LINE
8
BLACK
6
CONTINUOUS
10
29.0176
20
-23.3325
11
29.0176
21
-22.3325
0
LINE
8
BLACK
6
CONTINUOUS
10
29.0176
20
-22.8087
11
29.5891
21
-22.8087
0
LINE
8
BLACK
6
CONTINUOUS
10
29.5891
20
-23.3325
11
29.5891
21
-22.3325
0
LINE
8
BLACK
6
CONTINUOUS
10
30.2081
20
-23.3325
11
30.1129
21
-23.2849
0
LINE
8
BLACK
6
CONTINUOUS
10
30.1129
20
-23.2849
11
30.0653
21
-23.2373
0
LINE
8
BLACK
6
CONTINUOUS
10
30.0653
20
-23.2373
11
30.0176
21
-23.1421
0
LINE
8
BLACK
6
CONTINUOUS
10
30.0176
20
-23.1421
11
30.0176
21
-22.8564
0
LINE
8
BLACK
6
CONTINUOUS
10
30.0176
20
-22.8564
11
30.0653
21
-22.7611
0
LINE
8
BLACK
6
CONTINUOUS
10
30.0653
20
-22.7611
11
30.1129
21
-22.7135
0
LINE
8
BLACK
6
CONTINUOUS
10
30.1129
20
-22.7135
11
30.2081
21
-22.6659
0
LINE
8
BLACK
6
CONTINUOUS
10
30.2081
20
-22.6659
11
30.351
21
-22.6659
0
LINE
8
BLACK
6
CONTINUOUS
10
30.351
20
-22.6659
11
30.4462
21
-22.7135
0
LINE
8
BLACK
6
CONTINUOUS
10
30.4462
20
-22.7135
11
30.4938
21
-22.7611
0
LINE
8
BLACK
6
CONTINUOUS
10
30.4938
20
-22.7611
11
30.5414
21
-22.8564
0
LINE
8
BLACK
6
CONTINUOUS
10
30.5414
20
-22.8564
11
30.5414
21
-23.1421
0
LINE
8
BLACK
6
CONTINUOUS
10
30.5414
20
-23.1421
11
30.4938
21
-23.2373
0
LINE
8
BLACK
6
CONTINUOUS
10
30.4938
20
-23.2373
11
30.4462
21
-23.2849
0
LINE
8
BLACK
6
CONTINUOUS
10
30.4462
20
-23.2849
11
30.351
21
-23.3325
0
LINE
8
BLACK
6
CONTINUOUS
10
30.351
20
-23.3325
11
30.2081
21
-23.3325
0
LINE
8
BLACK
6
CONTINUOUS
10
31.1129
20
-23.3325
11
31.0176
21
-23.2849
0
LINE
8
BLACK
6
CONTINUOUS
10
31.0176
20
-23.2849
11
30.97
21
-23.1897
0
LINE
8
BLACK
6
CONTINUOUS
10
30.97
20
-23.1897
11
30.97
21
-22.3325
0
LINE
8
BLACK
6
CONTINUOUS
10
31.6367
20
-23.3325
11
31.5414
21
-23.2849
0
LINE
8
BLACK
6
CONTINUOUS
10
31.5414
20
-23.2849
11
31.4938
21
-23.2373
0
LINE
8
BLACK
6
CONTINUOUS
10
31.4938
20
-23.2373
11
31.4462
21
-23.1421
0
LINE
8
BLACK
6
CONTINUOUS
10
31.4462
20
-23.1421
11
31.4462
21
-22.8564
0
LINE
8
BLACK
6
CONTINUOUS
10
31.4462
20
-22.8564
11
31.4938
21
-22.7611
0
LINE
8
BLACK
6
CONTINUOUS
10
31.4938
20
-22.7611
11
31.5414
21
-22.7135
0
LINE
8
BLACK
6
CONTINUOUS
10
31.5414
20
-22.7135
11
31.6367
21
-22.6659
0
LINE
8
BLACK
6
CONTINUOUS
10
31.6367
20
-22.6659
11
31.7795
21
-22.6659
0
LINE
8
BLACK
6
CONTINUOUS
10
31.7795
20
-22.6659
11
31.8748
21
-22.7135
0
LINE
8
BLACK
6
CONTINUOUS
10
31.8748
20
-22.7135
11
31.9224
21
-22.7611
0
LINE
8
BLACK
6
CONTINUOUS
10
31.9224
20
-22.7611
11
31.97
21
-22.8564
0
LINE
8
BLACK
6
CONTINUOUS
10
31.97
20
-22.8564
11
31.97
21
-23.1421
0
LINE
8
BLACK
6
CONTINUOUS
10
31.97
20
-23.1421
11
31.9224
21
-23.2373
0
LINE
8
BLACK
6
CONTINUOUS
10
31.9224
20
-23.2373
11
31.8748
21
-23.2849
0
LINE
8
BLACK
6
CONTINUOUS
10
31.8748
20
-23.2849
11
31.7795
21
-23.3325
0
LINE
8
BLACK
6
CONTINUOUS
10
31.7795
20
-23.3325
11
31.6367
21
-23.3325
0
LINE
8
BLACK
6
CONTINUOUS
10
32.2557
20
-22.6659
11
32.6367
21
-22.6659
0
LINE
8
BLACK
6
CONTINUOUS
10
32.3986
20
-22.3325
11
32.3986
21
-23.1897
0
LINE
8
BLACK
6
CONTINUOUS
10
32.3986
20
-23.1897
11
32.4462
21
-23.2849
0
LINE
8
BLACK
6
CONTINUOUS
10
32.4462
20
-23.2849
11
32.5414
21
-23.3325
0
LINE
8
BLACK
6
CONTINUOUS
10
32.5414
20
-23.3325
11
32.6367
21
-23.3325
0
LINE
8
BLACK
6
CONTINUOUS
10
32.97
20
-23.3325
11
32.97
21
-22.6659
0
LINE
8
BLACK
6
CONTINUOUS
10
32.97
20
-22.8564
11
33.0176
21
-22.7611
0
LINE
8
BLACK
6
CONTINUOUS
10
33.0176
20
-22.7611
11
33.0653
21
-22.7135
0
LINE
8
BLACK
6
CONTINUOUS
10
33.0653
20
-22.7135
11
33.1605
21
-22.6659
0
LINE
8
BLACK
6
CONTINUOUS
10
33.1605
20
-22.6659
11
33.2557
21
-22.6659
0
LINE
8
BLACK
6
CONTINUOUS
10
33.7319
20
-23.3325
11
33.6367
21
-23.2849
0
LINE
8
BLACK
6
CONTINUOUS
10
33.6367
20
-23.2849
11
33.5891
21
-23.2373
0
LINE
8
BLACK
6
CONTINUOUS
10
33.5891
20
-23.2373
11
33.5414
21
-23.1421
0
LINE
8
BLACK
6
CONTINUOUS
10
33.5414
20
-23.1421
11
33.5414
21
-22.8564
0
LINE
8
BLACK
6
CONTINUOUS
10
33.5414
20
-22.8564
11
33.5891
21
-22.7611
0
LINE
8
BLACK
6
CONTINUOUS
10
33.5891
20
-22.7611
11
33.6367
21
-22.7135
0
LINE
8
BLACK
6
CONTINUOUS
10
33.6367
20
-22.7135
11
33.7319
21
-22.6659
0
LINE
8
BLACK
6
CONTINUOUS
10
33.7319
20
-22.6659
11
33.8748
21
-22.6659
0
LINE
8
BLACK
6
CONTINUOUS
10
33.8748
20
-22.6659
11
33.97
21
-22.7135
0
LINE
8
BLACK
6
CONTINUOUS
10
33.97
20
-22.7135
11
34.0176
21
-22.7611
0
LINE
8
BLACK
6
CONTINUOUS
10
34.0176
20
-22.7611
11
34.0653
21
-22.8564
0
LINE
8
BLACK
6
CONTINUOUS
10
34.0653
20
-22.8564
11
34.0653
21
-23.1421
0
LINE
8
BLACK
6
CONTINUOUS
10
34.0653
20
-23.1421
11
34.0176
21
-23.2373
0
LINE
8
BLACK
6
CONTINUOUS
10
34.0176
20
-23.2373
11
33.97
21
-23.2849
0
LINE
8
BLACK
6
CONTINUOUS
10
33.97
20
-23.2849
11
33.8748
21
-23.3325
0
LINE
8
BLACK
6
CONTINUOUS
10
33.8748
20
-23.3325
11
33.7319
21
-23.3325
0
LINE
8
BLACK
6
CONTINUOUS
10
34.4938
20
-22.6659
11
34.4938
21
-23.3325
0
LINE
8
BLACK
6
CONTINUOUS
10
34.4938
20
-22.7611
11
34.5414
21
-22.7135
0
LINE
8
BLACK
6
CONTINUOUS
10
34.5414
20
-22.7135
11
34.6367
21
-22.6659
0
LINE
8
BLACK
6
CONTINUOUS
10
34.6367
20
-22.6659
11
34.7795
21
-22.6659
0
LINE
8
BLACK
6
CONTINUOUS
10
34.7795
20
-22.6659
11
34.8748
21
-22.7135
0
LINE
8
BLACK
6
CONTINUOUS
10
34.8748
20
-22.7135
11
34.9224
21
-22.8087
0
LINE
8
BLACK
6
CONTINUOUS
10
34.9224
20
-22.8087
11
34.9224
21
-23.3325
0
LINE
8
BLACK
6
CONTINUOUS
10
35.3986
20
-23.3325
11
35.3986
21
-22.6659
0
LINE
8
BLACK
6
CONTINUOUS
10
35.3986
20
-22.3325
11
35.351
21
-22.3802
0
LINE
8
BLACK
6
CONTINUOUS
10
35.351
20
-22.3802
11
35.3986
21
-22.4278
0
LINE
8
BLACK
6
CONTINUOUS
10
35.3986
20
-22.4278
11
35.4462
21
-22.3802
0
LINE
8
BLACK
6
CONTINUOUS
10
35.4462
20
-22.3802
11
35.3986
21
-22.3325
0
LINE
8
BLACK
6
CONTINUOUS
10
35.3986
20
-22.3325
11
35.3986
21
-22.4278
0
LINE
8
BLACK
6
CONTINUOUS
10
36.3033
20
-23.2849
11
36.2081
21
-23.3325
0
LINE
8
BLACK
6
CONTINUOUS
10
36.2081
20
-23.3325
11
36.0176
21
-23.3325
0
LINE
8
BLACK
6
CONTINUOUS
10
36.0176
20
-23.3325
11
35.9224
21
-23.2849
0
LINE
8
BLACK
6
CONTINUOUS
10
35.9224
20
-23.2849
11
35.8748
21
-23.2373
0
LINE
8
BLACK
6
CONTINUOUS
10
35.8748
20
-23.2373
11
35.8272
21
-23.1421
0
LINE
8
BLACK
6
CONTINUOUS
10
35.8272
20
-23.1421
11
35.8272
21
-22.8564
0
LINE
8
BLACK
6
CONTINUOUS
10
35.8272
20
-22.8564
11
35.8748
21
-22.7611
0
LINE
8
BLACK
6
CONTINUOUS
10
35.8748
20
-22.7611
11
35.9224
21
-22.7135
0
LINE
8
BLACK
6
CONTINUOUS
10
35.9224
20
-22.7135
11
36.0176
21
-22.6659
0
LINE
8
BLACK
6
CONTINUOUS
10
36.0176
20
-22.6659
11
36.2081
21
-22.6659
0
LINE
8
BLACK
6
CONTINUOUS
10
36.2081
20
-22.6659
11
36.3033
21
-22.7135
0
LINE
8
BLACK
6
CONTINUOUS
10
36.6843
20
-22.4278
11
36.7319
21
-22.3802
0
LINE
8
BLACK
6
CONTINUOUS
10
36.7319
20
-22.3802
11
36.8272
21
-22.3325
0
LINE
8
BLACK
6
CONTINUOUS
10
36.8272
20
-22.3325
11
37.0653
21
-22.3325
0
LINE
8
BLACK
6
CONTINUOUS
10
37.0653
20
-22.3325
11
37.1605
21
-22.3802
0
LINE
8
BLACK
6
CONTINUOUS
10
37.1605
20
-22.3802
11
37.2081
21
-22.4278
0
LINE
8
BLACK
6
CONTINUOUS
10
37.2081
20
-22.4278
11
37.2557
21
-22.523
0
LINE
8
BLACK
6
CONTINUOUS
10
37.2557
20
-22.523
11
37.2557
21
-22.6183
0
LINE
8
BLACK
6
CONTINUOUS
10
37.2557
20
-22.6183
11
37.2081
21
-22.7611
0
LINE
8
BLACK
6
CONTINUOUS
10
37.2081
20
-22.7611
11
36.6367
21
-23.3325
0
LINE
8
BLACK
6
CONTINUOUS
10
36.6367
20
-23.3325
11
37.2557
21
-23.3325
0
LINE
8
BLACK
6
CONTINUOUS
10
37.8748
20
-22.3325
11
37.97
21
-22.3325
0
LINE
8
BLACK
6
CONTINUOUS
10
37.97
20
-22.3325
11
38.0653
21
-22.3802
0
LINE
8
BLACK
6
CONTINUOUS
10
38.0653
20
-22.3802
11
38.1129
21
-22.4278
0
LINE
8
BLACK
6
CONTINUOUS
10
38.1129
20
-22.4278
11
38.1605
21
-22.523
0
LINE
8
BLACK
6
CONTINUOUS
10
38.1605
20
-22.523
11
38.2081
21
-22.7135
0
LINE
8
BLACK
6
CONTINUOUS
10
38.2081
20
-22.7135
11
38.2081
21
-22.9516
0
LINE
8
BLACK
6
CONTINUOUS
10
38.2081
20
-22.9516
11
38.1605
21
-23.1421
0
LINE
8
BLACK
6
CONTINUOUS
10
38.1605
20
-23.1421
11
38.1129
21
-23.2373
0
LINE
8
BLACK
6
CONTINUOUS
10
38.1129
20
-23.2373
11
38.0653
21
-23.2849
0
LINE
8
BLACK
6
CONTINUOUS
10
38.0653
20
-23.2849
11
37.97
21
-23.3325
0
LINE
8
BLACK
6
CONTINUOUS
10
37.97
20
-23.3325
11
37.8748
21
-23.3325
0
LINE
8
BLACK
6
CONTINUOUS
10
37.8748
20
-23.3325
11
37.7795
21
-23.2849
0
LINE
8
BLACK
6
CONTINUOUS
10
37.7795
20
-23.2849
11
37.7319
21
-23.2373
0
LINE
8
BLACK
6
CONTINUOUS
10
37.7319
20
-23.2373
11
37.6843
21
-23.1421
0
LINE
8
BLACK
6
CONTINUOUS
10
37.6843
20
-23.1421
11
37.6367
21
-22.9516
0
LINE
8
BLACK
6
CONTINUOUS
10
37.6367
20
-22.9516
11
37.6367
21
-22.7135
0
LINE
8
BLACK
6
CONTINUOUS
10
37.6367
20
-22.7135
11
37.6843
21
-22.523
0
LINE
8
BLACK
6
CONTINUOUS
10
37.6843
20
-22.523
11
37.7319
21
-22.4278
0
LINE
8
BLACK
6
CONTINUOUS
10
37.7319
20
-22.4278
11
37.7795
21
-22.3802
0
LINE
8
BLACK
6
CONTINUOUS
10
37.7795
20
-22.3802
11
37.8748
21
-22.3325
0
LINE
8
BLACK
6
CONTINUOUS
10
39.1605
20
-23.3325
11
38.5891
21
-23.3325
0
LINE
8
BLACK
6
CONTINUOUS
10
38.8748
20
-23.3325
11
38.8748
21
-22.3325
0
LINE
8
BLACK
6
CONTINUOUS
10
38.8748
20
-22.3325
11
38.7795
21
-22.4754
0
LINE
8
BLACK
6
CONTINUOUS
10
38.7795
20
-22.4754
11
38.6843
21
-22.5706
0
LINE
8
BLACK
6
CONTINUOUS
10
38.6843
20
-22.5706
11
38.5891
21
-22.6183
0
LINE
8
BLACK
6
CONTINUOUS
10
39.6367
20
-23.3325
11
39.8272
21
-23.3325
0
LINE
8
BLACK
6
CONTINUOUS
10
39.8272
20
-23.3325
11
39.9224
21
-23.2849
0
LINE
8
BLACK
6
CONTINUOUS
10
39.9224
20
-23.2849
11
39.97
21
-23.2373
0
LINE
8
BLACK
6
CONTINUOUS
10
39.97
20
-23.2373
11
40.0653
21
-23.0944
0
LINE
8
BLACK
6
CONTINUOUS
10
40.0653
20
-23.0944
11
40.1129
21
-22.904
0
LINE
8
BLACK
6
CONTINUOUS
10
40.1129
20
-22.904
11
40.1129
21
-22.523
0
LINE
8
BLACK
6
CONTINUOUS
10
40.1129
20
-22.523
11
40.0653
21
-22.4278
0
LINE
8
BLACK
6
CONTINUOUS
10
40.0653
20
-22.4278
11
40.0176
21
-22.3802
0
LINE
8
BLACK
6
CONTINUOUS
10
40.0176
20
-22.3802
11
39.9224
21
-22.3325
0
LINE
8
BLACK
6
CONTINUOUS
10
39.9224
20
-22.3325
11
39.7319
21
-22.3325
0
LINE
8
BLACK
6
CONTINUOUS
10
39.7319
20
-22.3325
11
39.6367
21
-22.3802
0
LINE
8
BLACK
6
CONTINUOUS
10
39.6367
20
-22.3802
11
39.5891
21
-22.4278
0
LINE
8
BLACK
6
CONTINUOUS
10
39.5891
20
-22.4278
11
39.5414
21
-22.523
0
LINE
8
BLACK
6
CONTINUOUS
10
39.5414
20
-22.523
11
39.5414
21
-22.7611
0
LINE
8
BLACK
6
CONTINUOUS
10
39.5414
20
-22.7611
11
39.5891
21
-22.8564
0
LINE
8
BLACK
6
CONTINUOUS
10
39.5891
20
-22.8564
11
39.6367
21
-22.904
0
LINE
8
BLACK
6
CONTINUOUS
10
39.6367
20
-22.904
11
39.7319
21
-22.9516
0
LINE
8
BLACK
6
CONTINUOUS
10
39.7319
20
-22.9516
11
39.9224
21
-22.9516
0
LINE
8
BLACK
6
CONTINUOUS
10
39.9224
20
-22.9516
11
40.0176
21
-22.904
0
LINE
8
BLACK
6
CONTINUOUS
10
40.0176
20
-22.904
11
40.0653
21
-22.8564
0
LINE
8
BLACK
6
CONTINUOUS
10
40.0653
20
-22.8564
11
40.1129
21
-22.7611
0
LINE
8
BLACK
6
CONTINUOUS
10
45.6333
20
-55.9537
11
45.5381
21
-55.9061
0
LINE
8
BLACK
6
CONTINUOUS
10
45.5381
20
-55.9061
11
45.3952
21
-55.9061
0
LINE
8
BLACK
6
CONTINUOUS
10
45.3952
20
-55.9061
11
45.2523
21
-55.9537
0
LINE
8
BLACK
6
CONTINUOUS
10
45.2523
20
-55.9537
11
45.1571
21
-56.049
0
LINE
8
BLACK
6
CONTINUOUS
10
45.1571
20
-56.049
11
45.1095
21
-56.1442
0
LINE
8
BLACK
6
CONTINUOUS
10
45.1095
20
-56.1442
11
45.0619
21
-56.3347
0
LINE
8
BLACK
6
CONTINUOUS
10
45.0619
20
-56.3347
11
45.0619
21
-56.4776
0
LINE
8
BLACK
6
CONTINUOUS
10
45.0619
20
-56.4776
11
45.1095
21
-56.668
0
LINE
8
BLACK
6
CONTINUOUS
10
45.1095
20
-56.668
11
45.1571
21
-56.7633
0
LINE
8
BLACK
6
CONTINUOUS
10
45.1571
20
-56.7633
11
45.2523
21
-56.8585
0
LINE
8
BLACK
6
CONTINUOUS
10
45.2523
20
-56.8585
11
45.3952
21
-56.9061
0
LINE
8
BLACK
6
CONTINUOUS
10
45.3952
20
-56.9061
11
45.4904
21
-56.9061
0
LINE
8
BLACK
6
CONTINUOUS
10
45.4904
20
-56.9061
11
45.6333
21
-56.8585
0
LINE
8
BLACK
6
CONTINUOUS
10
45.6333
20
-56.8585
11
45.6809
21
-56.8109
0
LINE
8
BLACK
6
CONTINUOUS
10
45.6809
20
-56.8109
11
45.6809
21
-56.4776
0
LINE
8
BLACK
6
CONTINUOUS
10
45.6809
20
-56.4776
11
45.4904
21
-56.4776
0
LINE
8
BLACK
6
CONTINUOUS
10
46.1095
20
-56.9061
11
46.1095
21
-55.9061
0
LINE
8
BLACK
6
CONTINUOUS
10
46.1095
20
-55.9061
11
46.6809
21
-56.9061
0
LINE
8
BLACK
6
CONTINUOUS
10
46.6809
20
-56.9061
11
46.6809
21
-55.9061
0
LINE
8
BLACK
6
CONTINUOUS
10
47.1571
20
-56.9061
11
47.1571
21
-55.9061
0
LINE
8
BLACK
6
CONTINUOUS
10
47.1571
20
-55.9061
11
47.3952
21
-55.9061
0
LINE
8
BLACK
6
CONTINUOUS
10
47.3952
20
-55.9061
11
47.5381
21
-55.9537
0
LINE
8
BLACK
6
CONTINUOUS
10
47.5381
20
-55.9537
11
47.6333
21
-56.049
0
LINE
8
BLACK
6
CONTINUOUS
10
47.6333
20
-56.049
11
47.6809
21
-56.1442
0
LINE
8
BLACK
6
CONTINUOUS
10
47.6809
20
-56.1442
11
47.7285
21
-56.3347
0
LINE
8
BLACK
6
CONTINUOUS
10
47.7285
20
-56.3347
11
47.7285
21
-56.4776
0
LINE
8
BLACK
6
CONTINUOUS
10
47.7285
20
-56.4776
11
47.6809
21
-56.668
0
LINE
8
BLACK
6
CONTINUOUS
10
47.6809
20
-56.668
11
47.6333
21
-56.7633
0
LINE
8
BLACK
6
CONTINUOUS
10
47.6333
20
-56.7633
11
47.5381
21
-56.8585
0
LINE
8
BLACK
6
CONTINUOUS
10
47.5381
20
-56.8585
11
47.3952
21
-56.9061
0
LINE
8
BLACK
6
CONTINUOUS
10
47.3952
20
-56.9061
11
47.1571
21
-56.9061
0
LINE
8
BLACK
6
CONTINUOUS
10
71.5332
20
-54.9298
11
71.5808
21
-54.8346
0
LINE
8
BLACK
6
CONTINUOUS
10
71.5808
20
-54.8346
11
71.5808
21
-54.6917
0
LINE
8
BLACK
6
CONTINUOUS
10
71.5808
20
-54.6917
11
71.5332
21
-54.5489
0
LINE
8
BLACK
6
CONTINUOUS
10
71.5332
20
-54.5489
11
71.438
21
-54.4536
0
LINE
8
BLACK
6
CONTINUOUS
10
71.438
20
-54.4536
11
71.3427
21
-54.406
0
LINE
8
BLACK
6
CONTINUOUS
10
71.3427
20
-54.406
11
71.1522
21
-54.3584
0
LINE
8
BLACK
6
CONTINUOUS
10
71.1522
20
-54.3584
11
71.0094
21
-54.3584
0
LINE
8
BLACK
6
CONTINUOUS
10
71.0094
20
-54.3584
11
70.8189
21
-54.406
0
LINE
8
BLACK
6
CONTINUOUS
10
70.8189
20
-54.406
11
70.7237
21
-54.4536
0
LINE
8
BLACK
6
CONTINUOUS
10
70.7237
20
-54.4536
11
70.6284
21
-54.5489
0
LINE
8
BLACK
6
CONTINUOUS
10
70.6284
20
-54.5489
11
70.5808
21
-54.6917
0
LINE
8
BLACK
6
CONTINUOUS
10
70.5808
20
-54.6917
11
70.5808
21
-54.787
0
LINE
8
BLACK
6
CONTINUOUS
10
70.5808
20
-54.787
11
70.6284
21
-54.9298
0
LINE
8
BLACK
6
CONTINUOUS
10
70.6284
20
-54.9298
11
70.6761
21
-54.9775
0
LINE
8
BLACK
6
CONTINUOUS
10
70.6761
20
-54.9775
11
71.0094
21
-54.9775
0
LINE
8
BLACK
6
CONTINUOUS
10
71.0094
20
-54.9775
11
71.0094
21
-54.787
0
LINE
8
BLACK
6
CONTINUOUS
10
70.5808
20
-55.406
11
71.5808
21
-55.406
0
LINE
8
BLACK
6
CONTINUOUS
10
71.5808
20
-55.406
11
70.5808
21
-55.9775
0
LINE
8
BLACK
6
CONTINUOUS
10
70.5808
20
-55.9775
11
71.5808
21
-55.9775
0
LINE
8
BLACK
6
CONTINUOUS
10
70.5808
20
-56.4536
11
71.5808
21
-56.4536
0
LINE
8
BLACK
6
CONTINUOUS
10
71.5808
20
-56.4536
11
71.5808
21
-56.6917
0
LINE
8
BLACK
6
CONTINUOUS
10
71.5808
20
-56.6917
11
71.5332
21
-56.8346
0
LINE
8
BLACK
6
CONTINUOUS
10
71.5332
20
-56.8346
11
71.438
21
-56.9298
0
LINE
8
BLACK
6
CONTINUOUS
10
71.438
20
-56.9298
11
71.3427
21
-56.9775
0
LINE
8
BLACK
6
CONTINUOUS
10
71.3427
20
-56.9775
11
71.1522
21
-57.0251
0
LINE
8
BLACK
6
CONTINUOUS
10
71.1522
20
-57.0251
11
71.0094
21
-57.0251
0
LINE
8
BLACK
6
CONTINUOUS
10
71.0094
20
-57.0251
11
70.8189
21
-56.9775
0
LINE
8
BLACK
6
CONTINUOUS
10
70.8189
20
-56.9775
11
70.7237
21
-56.9298
0
LINE
8
BLACK
6
CONTINUOUS
10
70.7237
20
-56.9298
11
70.6284
21
-56.8346
0
LINE
8
BLACK
6
CONTINUOUS
10
70.6284
20
-56.8346
11
70.5808
21
-56.6917
0
LINE
8
BLACK
6
CONTINUOUS
10
70.5808
20
-56.6917
11
70.5808
21
-56.4536
0
LINE
8
BLACK
6
CONTINUOUS
10
74.1208
20
-55.3902
11
73.1208
21
-55.7235
0
LINE
8
BLACK
6
CONTINUOUS
10
73.1208
20
-55.7235
11
74.1208
21
-56.0569
0
LINE
8
BLACK
6
CONTINUOUS
10
73.1684
20
-56.3426
11
73.1208
21
-56.4855
0
LINE
8
BLACK
6
CONTINUOUS
10
73.1208
20
-56.4855
11
73.1208
21
-56.7235
0
LINE
8
BLACK
6
CONTINUOUS
10
73.1208
20
-56.7235
11
73.1684
21
-56.8188
0
LINE
8
BLACK
6
CONTINUOUS
10
73.1684
20
-56.8188
11
73.2161
21
-56.8664
0
LINE
8
BLACK
6
CONTINUOUS
10
73.2161
20
-56.8664
11
73.3113
21
-56.914
0
LINE
8
BLACK
6
CONTINUOUS
10
73.3113
20
-56.914
11
73.4065
21
-56.914
0
LINE
8
BLACK
6
CONTINUOUS
10
73.4065
20
-56.914
11
73.5018
21
-56.8664
0
LINE
8
BLACK
6
CONTINUOUS
10
73.5018
20
-56.8664
11
73.5494
21
-56.8188
0
LINE
8
BLACK
6
CONTINUOUS
10
73.5494
20
-56.8188
11
73.597
21
-56.7235
0
LINE
8
BLACK
6
CONTINUOUS
10
73.597
20
-56.7235
11
73.6446
21
-56.5331
0
LINE
8
BLACK
6
CONTINUOUS
10
73.6446
20
-56.5331
11
73.6922
21
-56.4378
0
LINE
8
BLACK
6
CONTINUOUS
10
73.6922
20
-56.4378
11
73.7399
21
-56.3902
0
LINE
8
BLACK
6
CONTINUOUS
10
73.7399
20
-56.3902
11
73.8351
21
-56.3426
0
LINE
8
BLACK
6
CONTINUOUS
10
73.8351
20
-56.3426
11
73.9303
21
-56.3426
0
LINE
8
BLACK
6
CONTINUOUS
10
73.9303
20
-56.3426
11
74.0256
21
-56.3902
0
LINE
8
BLACK
6
CONTINUOUS
10
74.0256
20
-56.3902
11
74.0732
21
-56.4378
0
LINE
8
BLACK
6
CONTINUOUS
10
74.0732
20
-56.4378
11
74.1208
21
-56.5331
0
LINE
8
BLACK
6
CONTINUOUS
10
74.1208
20
-56.5331
11
74.1208
21
-56.7712
0
LINE
8
BLACK
6
CONTINUOUS
10
74.1208
20
-56.7712
11
74.0732
21
-56.914
0
LINE
8
BLACK
6
CONTINUOUS
10
45.2284
20
-26.363
11
45.1808
21
-26.5058
0
LINE
8
BLACK
6
CONTINUOUS
10
45.1808
20
-26.5058
11
45.1808
21
-26.7439
0
LINE
8
BLACK
6
CONTINUOUS
10
45.1808
20
-26.7439
11
45.2284
21
-26.8392
0
LINE
8
BLACK
6
CONTINUOUS
10
45.2284
20
-26.8392
11
45.2761
21
-26.8868
0
LINE
8
BLACK
6
CONTINUOUS
10
45.2761
20
-26.8868
11
45.3713
21
-26.9344
0
LINE
8
BLACK
6
CONTINUOUS
10
45.3713
20
-26.9344
11
45.4665
21
-26.9344
0
LINE
8
BLACK
6
CONTINUOUS
10
45.4665
20
-26.9344
11
45.5618
21
-26.8868
0
LINE
8
BLACK
6
CONTINUOUS
10
45.5618
20
-26.8868
11
45.6094
21
-26.8392
0
LINE
8
BLACK
6
CONTINUOUS
10
45.6094
20
-26.8392
11
45.657
21
-26.7439
0
LINE
8
BLACK
6
CONTINUOUS
10
45.657
20
-26.7439
11
45.7046
21
-26.5535
0
LINE
8
BLACK
6
CONTINUOUS
10
45.7046
20
-26.5535
11
45.7522
21
-26.4582
0
LINE
8
BLACK
6
CONTINUOUS
10
45.7522
20
-26.4582
11
45.7999
21
-26.4106
0
LINE
8
BLACK
6
CONTINUOUS
10
45.7999
20
-26.4106
11
45.8951
21
-26.363
0
LINE
8
BLACK
6
CONTINUOUS
10
45.8951
20
-26.363
11
45.9903
21
-26.363
0
LINE
8
BLACK
6
CONTINUOUS
10
45.9903
20
-26.363
11
46.0856
21
-26.4106
0
LINE
8
BLACK
6
CONTINUOUS
10
46.0856
20
-26.4106
11
46.1332
21
-26.4582
0
LINE
8
BLACK
6
CONTINUOUS
10
46.1332
20
-26.4582
11
46.1808
21
-26.5535
0
LINE
8
BLACK
6
CONTINUOUS
10
46.1808
20
-26.5535
11
46.1808
21
-26.7915
0
LINE
8
BLACK
6
CONTINUOUS
10
46.1808
20
-26.7915
11
46.1332
21
-26.9344
0
LINE
8
BLACK
6
CONTINUOUS
10
46.1332
20
-27.8868
11
46.1808
21
-27.7915
0
LINE
8
BLACK
6
CONTINUOUS
10
46.1808
20
-27.7915
11
46.1808
21
-27.6487
0
LINE
8
BLACK
6
CONTINUOUS
10
46.1808
20
-27.6487
11
46.1332
21
-27.5058
0
LINE
8
BLACK
6
CONTINUOUS
10
46.1332
20
-27.5058
11
46.038
21
-27.4106
0
LINE
8
BLACK
6
CONTINUOUS
10
46.038
20
-27.4106
11
45.9427
21
-27.363
0
LINE
8
BLACK
6
CONTINUOUS
10
45.9427
20
-27.363
11
45.7522
21
-27.3154
0
LINE
8
BLACK
6
CONTINUOUS
10
45.7522
20
-27.3154
11
45.6094
21
-27.3154
0
LINE
8
BLACK
6
CONTINUOUS
10
45.6094
20
-27.3154
11
45.4189
21
-27.363
0
LINE
8
BLACK
6
CONTINUOUS
10
45.4189
20
-27.363
11
45.3237
21
-27.4106
0
LINE
8
BLACK
6
CONTINUOUS
10
45.3237
20
-27.4106
11
45.2284
21
-27.5058
0
LINE
8
BLACK
6
CONTINUOUS
10
45.2284
20
-27.5058
11
45.1808
21
-27.6487
0
LINE
8
BLACK
6
CONTINUOUS
10
45.1808
20
-27.6487
11
45.1808
21
-27.7439
0
LINE
8
BLACK
6
CONTINUOUS
10
45.1808
20
-27.7439
11
45.2284
21
-27.8868
0
LINE
8
BLACK
6
CONTINUOUS
10
45.2284
20
-27.8868
11
45.2761
21
-27.9344
0
LINE
8
BLACK
6
CONTINUOUS
10
45.2761
20
-27.9344
11
45.6094
21
-27.9344
0
LINE
8
BLACK
6
CONTINUOUS
10
45.6094
20
-27.9344
11
45.6094
21
-27.7439
0
LINE
8
BLACK
6
CONTINUOUS
10
45.0856
20
-28.1249
11
45.0856
21
-28.8868
0
LINE
8
BLACK
6
CONTINUOUS
10
46.1808
20
-28.982
11
46.1808
21
-29.5535
0
LINE
8
BLACK
6
CONTINUOUS
10
45.1808
20
-29.2677
11
46.1808
21
-29.2677
0
LINE
8
BLACK
6
CONTINUOUS
10
45.2284
20
-29.8392
11
45.1808
21
-29.982
0
LINE
8
BLACK
6
CONTINUOUS
10
45.1808
20
-29.982
11
45.1808
21
-30.2201
0
LINE
8
BLACK
6
CONTINUOUS
10
45.1808
20
-30.2201
11
45.2284
21
-30.3154
0
LINE
8
BLACK
6
CONTINUOUS
10
45.2284
20
-30.3154
11
45.2761
21
-30.363
0
LINE
8
BLACK
6
CONTINUOUS
10
45.2761
20
-30.363
11
45.3713
21
-30.4106
0
LINE
8
BLACK
6
CONTINUOUS
10
45.3713
20
-30.4106
11
45.4665
21
-30.4106
0
LINE
8
BLACK
6
CONTINUOUS
10
45.4665
20
-30.4106
11
45.5618
21
-30.363
0
LINE
8
BLACK
6
CONTINUOUS
10
45.5618
20
-30.363
11
45.6094
21
-30.3154
0
LINE
8
BLACK
6
CONTINUOUS
10
45.6094
20
-30.3154
11
45.657
21
-30.2201
0
LINE
8
BLACK
6
CONTINUOUS
10
45.657
20
-30.2201
11
45.7046
21
-30.0296
0
LINE
8
BLACK
6
CONTINUOUS
10
45.7046
20
-30.0296
11
45.7522
21
-29.9344
0
LINE
8
BLACK
6
CONTINUOUS
10
45.7522
20
-29.9344
11
45.7999
21
-29.8868
0
LINE
8
BLACK
6
CONTINUOUS
10
45.7999
20
-29.8868
11
45.8951
21
-29.8392
0
LINE
8
BLACK
6
CONTINUOUS
10
45.8951
20
-29.8392
11
45.9903
21
-29.8392
0
LINE
8
BLACK
6
CONTINUOUS
10
45.9903
20
-29.8392
11
46.0856
21
-29.8868
0
LINE
8
BLACK
6
CONTINUOUS
10
46.0856
20
-29.8868
11
46.1332
21
-29.9344
0
LINE
8
BLACK
6
CONTINUOUS
10
46.1332
20
-29.9344
11
46.1808
21
-30.0296
0
LINE
8
BLACK
6
CONTINUOUS
10
46.1808
20
-30.0296
11
46.1808
21
-30.2677
0
LINE
8
BLACK
6
CONTINUOUS
10
46.1808
20
-30.2677
11
46.1332
21
-30.4106
0
LINE
8
BLACK
6
CONTINUOUS
10
46.1808
20
-30.6963
11
46.1808
21
-31.2677
0
LINE
8
BLACK
6
CONTINUOUS
10
45.1808
20
-30.982
11
46.1808
21
-30.982
0
LINE
8
BLACK
6
CONTINUOUS
10
71.2792
20
-26.4818
11
71.3268
21
-26.3866
0
LINE
8
BLACK
6
CONTINUOUS
10
71.3268
20
-26.3866
11
71.3268
21
-26.2437
0
LINE
8
BLACK
6
CONTINUOUS
10
71.3268
20
-26.2437
11
71.2792
21
-26.1009
0
LINE
8
BLACK
6
CONTINUOUS
10
71.2792
20
-26.1009
11
71.184
21
-26.0056
0
LINE
8
BLACK
6
CONTINUOUS
10
71.184
20
-26.0056
11
71.0887
21
-25.958
0
LINE
8
BLACK
6
CONTINUOUS
10
71.0887
20
-25.958
11
70.8982
21
-25.9104
0
LINE
8
BLACK
6
CONTINUOUS
10
70.8982
20
-25.9104
11
70.7554
21
-25.9104
0
LINE
8
BLACK
6
CONTINUOUS
10
70.7554
20
-25.9104
11
70.5649
21
-25.958
0
LINE
8
BLACK
6
CONTINUOUS
10
70.5649
20
-25.958
11
70.4697
21
-26.0056
0
LINE
8
BLACK
6
CONTINUOUS
10
70.4697
20
-26.0056
11
70.3744
21
-26.1009
0
LINE
8
BLACK
6
CONTINUOUS
10
70.3744
20
-26.1009
11
70.3268
21
-26.2437
0
LINE
8
BLACK
6
CONTINUOUS
10
70.3268
20
-26.2437
11
70.3268
21
-26.339
0
LINE
8
BLACK
6
CONTINUOUS
10
70.3268
20
-26.339
11
70.3744
21
-26.4818
0
LINE
8
BLACK
6
CONTINUOUS
10
70.3744
20
-26.4818
11
70.4221
21
-26.5295
0
LINE
8
BLACK
6
CONTINUOUS
10
70.4221
20
-26.5295
11
70.7554
21
-26.5295
0
LINE
8
BLACK
6
CONTINUOUS
10
70.7554
20
-26.5295
11
70.7554
21
-26.339
0
LINE
8
BLACK
6
CONTINUOUS
10
70.3268
20
-26.958
11
71.3268
21
-26.958
0
LINE
8
BLACK
6
CONTINUOUS
10
71.3268
20
-26.958
11
70.3268
21
-27.5295
0
LINE
8
BLACK
6
CONTINUOUS
10
70.3268
20
-27.5295
11
71.3268
21
-27.5295
0
LINE
8
BLACK
6
CONTINUOUS
10
70.3268
20
-28.0056
11
71.3268
21
-28.0056
0
LINE
8
BLACK
6
CONTINUOUS
10
71.3268
20
-28.0056
11
71.3268
21
-28.2437
0
LINE
8
BLACK
6
CONTINUOUS
10
71.3268
20
-28.2437
11
71.2792
21
-28.3866
0
LINE
8
BLACK
6
CONTINUOUS
10
71.2792
20
-28.3866
11
71.184
21
-28.4818
0
LINE
8
BLACK
6
CONTINUOUS
10
71.184
20
-28.4818
11
71.0887
21
-28.5295
0
LINE
8
BLACK
6
CONTINUOUS
10
71.0887
20
-28.5295
11
70.8982
21
-28.5771
0
LINE
8
BLACK
6
CONTINUOUS
10
70.8982
20
-28.5771
11
70.7554
21
-28.5771
0
LINE
8
BLACK
6
CONTINUOUS
10
70.7554
20
-28.5771
11
70.5649
21
-28.5295
0
LINE
8
BLACK
6
CONTINUOUS
10
70.5649
20
-28.5295
11
70.4697
21
-28.4818
0
LINE
8
BLACK
6
CONTINUOUS
10
70.4697
20
-28.4818
11
70.3744
21
-28.3866
0
LINE
8
BLACK
6
CONTINUOUS
10
70.3744
20
-28.3866
11
70.3268
21
-28.2437
0
LINE
8
BLACK
6
CONTINUOUS
10
70.3268
20
-28.2437
11
70.3268
21
-28.0056
0
LINE
8
BLACK
6
CONTINUOUS
10
74.1208
20
-25.9104
11
73.1208
21
-26.2437
0
LINE
8
BLACK
6
CONTINUOUS
10
73.1208
20
-26.2437
11
74.1208
21
-26.5771
0
LINE
8
BLACK
6
CONTINUOUS
10
73.2161
20
-27.4818
11
73.1684
21
-27.4342
0
LINE
8
BLACK
6
CONTINUOUS
10
73.1684
20
-27.4342
11
73.1208
21
-27.2914
0
LINE
8
BLACK
6
CONTINUOUS
10
73.1208
20
-27.2914
11
73.1208
21
-27.1961
0
LINE
8
BLACK
6
CONTINUOUS
10
73.1208
20
-27.1961
11
73.1684
21
-27.0533
0
LINE
8
BLACK
6
CONTINUOUS
10
73.1684
20
-27.0533
11
73.2637
21
-26.958
0
LINE
8
BLACK
6
CONTINUOUS
10
73.2637
20
-26.958
11
73.3589
21
-26.9104
0
LINE
8
BLACK
6
CONTINUOUS
10
73.3589
20
-26.9104
11
73.5494
21
-26.8628
0
LINE
8
BLACK
6
CONTINUOUS
10
73.5494
20
-26.8628
11
73.6922
21
-26.8628
0
LINE
8
BLACK
6
CONTINUOUS
10
73.6922
20
-26.8628
11
73.8827
21
-26.9104
0
LINE
8
BLACK
6
CONTINUOUS
10
73.8827
20
-26.9104
11
73.978
21
-26.958
0
LINE
8
BLACK
6
CONTINUOUS
10
73.978
20
-26.958
11
74.0732
21
-27.0533
0
LINE
8
BLACK
6
CONTINUOUS
10
74.0732
20
-27.0533
11
74.1208
21
-27.1961
0
LINE
8
BLACK
6
CONTINUOUS
10
74.1208
20
-27.1961
11
74.1208
21
-27.2914
0
LINE
8
BLACK
6
CONTINUOUS
10
74.1208
20
-27.2914
11
74.0732
21
-27.4342
0
LINE
8
BLACK
6
CONTINUOUS
10
74.0732
20
-27.4342
11
74.0256
21
-27.4818
0
LINE
8
BLACK
6
CONTINUOUS
10
73.2161
20
-28.4818
11
73.1684
21
-28.4342
0
LINE
8
BLACK
6
CONTINUOUS
10
73.1684
20
-28.4342
11
73.1208
21
-28.2914
0
LINE
8
BLACK
6
CONTINUOUS
10
73.1208
20
-28.2914
11
73.1208
21
-28.1961
0
LINE
8
BLACK
6
CONTINUOUS
10
73.1208
20
-28.1961
11
73.1684
21
-28.0533
0
LINE
8
BLACK
6
CONTINUOUS
10
73.1684
20
-28.0533
11
73.2637
21
-27.958
0
LINE
8
BLACK
6
CONTINUOUS
10
73.2637
20
-27.958
11
73.3589
21
-27.9104
0
LINE
8
BLACK
6
CONTINUOUS
10
73.3589
20
-27.9104
11
73.5494
21
-27.8628
0
LINE
8
BLACK
6
CONTINUOUS
10
73.5494
20
-27.8628
11
73.6922
21
-27.8628
0
LINE
8
BLACK
6
CONTINUOUS
10
73.6922
20
-27.8628
11
73.8827
21
-27.9104
0
LINE
8
BLACK
6
CONTINUOUS
10
73.8827
20
-27.9104
11
73.978
21
-27.958
0
LINE
8
BLACK
6
CONTINUOUS
10
73.978
20
-27.958
11
74.0732
21
-28.0533
0
LINE
8
BLACK
6
CONTINUOUS
10
74.0732
20
-28.0533
11
74.1208
21
-28.1961
0
LINE
8
BLACK
6
CONTINUOUS
10
74.1208
20
-28.1961
11
74.1208
21
-28.2914
0
LINE
8
BLACK
6
CONTINUOUS
10
74.1208
20
-28.2914
11
74.0732
21
-28.4342
0
LINE
8
BLACK
6
CONTINUOUS
10
74.0732
20
-28.4342
11
74.0256
21
-28.4818
0
LINE
8
BLACK
6
CONTINUOUS
10
78.9468
20
-35.5709
11
78.9468
21
-36.1423
0
LINE
8
BLACK
6
CONTINUOUS
10
77.9468
20
-35.8566
11
78.9468
21
-35.8566
0
LINE
8
BLACK
6
CONTINUOUS
10
77.9468
20
-36.4756
11
78.9468
21
-36.4756
0
LINE
8
BLACK
6
CONTINUOUS
10
78.9468
20
-36.4756
11
78.2325
21
-36.809
0
LINE
8
BLACK
6
CONTINUOUS
10
78.2325
20
-36.809
11
78.9468
21
-37.1423
0
LINE
8
BLACK
6
CONTINUOUS
10
78.9468
20
-37.1423
11
77.9468
21
-37.1423
0
LINE
8
BLACK
6
CONTINUOUS
10
78.0421
20
-38.1899
11
77.9944
21
-38.1423
0
LINE
8
BLACK
6
CONTINUOUS
10
77.9944
20
-38.1423
11
77.9468
21
-37.9995
0
LINE
8
BLACK
6
CONTINUOUS
10
77.9468
20
-37.9995
11
77.9468
21
-37.9042
0
LINE
8
BLACK
6
CONTINUOUS
10
77.9468
20
-37.9042
11
77.9944
21
-37.7614
0
LINE
8
BLACK
6
CONTINUOUS
10
77.9944
20
-37.7614
11
78.0897
21
-37.6661
0
LINE
8
BLACK
6
CONTINUOUS
10
78.0897
20
-37.6661
11
78.1849
21
-37.6185
0
LINE
8
BLACK
6
CONTINUOUS
10
78.1849
20
-37.6185
11
78.3754
21
-37.5709
0
LINE
8
BLACK
6
CONTINUOUS
10
78.3754
20
-37.5709
11
78.5182
21
-37.5709
0
LINE
8
BLACK
6
CONTINUOUS
10
78.5182
20
-37.5709
11
78.7087
21
-37.6185
0
LINE
8
BLACK
6
CONTINUOUS
10
78.7087
20
-37.6185
11
78.804
21
-37.6661
0
LINE
8
BLACK
6
CONTINUOUS
10
78.804
20
-37.6661
11
78.8992
21
-37.7614
0
LINE
8
BLACK
6
CONTINUOUS
10
78.8992
20
-37.7614
11
78.9468
21
-37.9042
0
LINE
8
BLACK
6
CONTINUOUS
10
78.9468
20
-37.9042
11
78.9468
21
-37.9995
0
LINE
8
BLACK
6
CONTINUOUS
10
78.9468
20
-37.9995
11
78.8992
21
-38.1423
0
LINE
8
BLACK
6
CONTINUOUS
10
78.8992
20
-38.1423
11
78.8516
21
-38.1899
0
LINE
8
BLACK
6
CONTINUOUS
10
78.8516
20
-38.5709
11
78.8992
21
-38.6185
0
LINE
8
BLACK
6
CONTINUOUS
10
78.8992
20
-38.6185
11
78.9468
21
-38.7137
0
LINE
8
BLACK
6
CONTINUOUS
10
78.9468
20
-38.7137
11
78.9468
21
-38.9518
0
LINE
8
BLACK
6
CONTINUOUS
10
78.9468
20
-38.9518
11
78.8992
21
-39.0471
0
LINE
8
BLACK
6
CONTINUOUS
10
78.8992
20
-39.0471
11
78.8516
21
-39.0947
0
LINE
8
BLACK
6
CONTINUOUS
10
78.8516
20
-39.0947
11
78.7563
21
-39.1423
0
LINE
8
BLACK
6
CONTINUOUS
10
78.7563
20
-39.1423
11
78.6611
21
-39.1423
0
LINE
8
BLACK
6
CONTINUOUS
10
78.6611
20
-39.1423
11
78.5182
21
-39.0947
0
LINE
8
BLACK
6
CONTINUOUS
10
78.5182
20
-39.0947
11
77.9468
21
-38.5233
0
LINE
8
BLACK
6
CONTINUOUS
10
77.9468
20
-38.5233
11
77.9468
21
-39.1423
0
LINE
8
BLACK
6
CONTINUOUS
10
78.9468
20
-39.9995
11
78.9468
21
-39.809
0
LINE
8
BLACK
6
CONTINUOUS
10
78.9468
20
-39.809
11
78.8992
21
-39.7137
0
LINE
8
BLACK
6
CONTINUOUS
10
78.8992
20
-39.7137
11
78.8516
21
-39.6661
0
LINE
8
BLACK
6
CONTINUOUS
10
78.8516
20
-39.6661
11
78.7087
21
-39.5709
0
LINE
8
BLACK
6
CONTINUOUS
10
78.7087
20
-39.5709
11
78.5182
21
-39.5233
0
LINE
8
BLACK
6
CONTINUOUS
10
78.5182
20
-39.5233
11
78.1373
21
-39.5233
0
LINE
8
BLACK
6
CONTINUOUS
10
78.1373
20
-39.5233
11
78.0421
21
-39.5709
0
LINE
8
BLACK
6
CONTINUOUS
10
78.0421
20
-39.5709
11
77.9944
21
-39.6185
0
LINE
8
BLACK
6
CONTINUOUS
10
77.9944
20
-39.6185
11
77.9468
21
-39.7137
0
LINE
8
BLACK
6
CONTINUOUS
10
77.9468
20
-39.7137
11
77.9468
21
-39.9042
0
LINE
8
BLACK
6
CONTINUOUS
10
77.9468
20
-39.9042
11
77.9944
21
-39.9995
0
LINE
8
BLACK
6
CONTINUOUS
10
77.9944
20
-39.9995
11
78.0421
21
-40.0471
0
LINE
8
BLACK
6
CONTINUOUS
10
78.0421
20
-40.0471
11
78.1373
21
-40.0947
0
LINE
8
BLACK
6
CONTINUOUS
10
78.1373
20
-40.0947
11
78.3754
21
-40.0947
0
LINE
8
BLACK
6
CONTINUOUS
10
78.3754
20
-40.0947
11
78.4706
21
-40.0471
0
LINE
8
BLACK
6
CONTINUOUS
10
78.4706
20
-40.0471
11
78.5182
21
-39.9995
0
LINE
8
BLACK
6
CONTINUOUS
10
78.5182
20
-39.9995
11
78.5659
21
-39.9042
0
LINE
8
BLACK
6
CONTINUOUS
10
78.5659
20
-39.9042
11
78.5659
21
-39.7137
0
LINE
8
BLACK
6
CONTINUOUS
10
78.5659
20
-39.7137
11
78.5182
21
-39.6185
0
LINE
8
BLACK
6
CONTINUOUS
10
78.5182
20
-39.6185
11
78.4706
21
-39.5709
0
LINE
8
BLACK
6
CONTINUOUS
10
78.4706
20
-39.5709
11
78.3754
21
-39.5233
0
LINE
8
BLACK
6
CONTINUOUS
10
78.8516
20
-40.4756
11
78.8992
21
-40.5233
0
LINE
8
BLACK
6
CONTINUOUS
10
78.8992
20
-40.5233
11
78.9468
21
-40.6185
0
LINE
8
BLACK
6
CONTINUOUS
10
78.9468
20
-40.6185
11
78.9468
21
-40.8566
0
LINE
8
BLACK
6
CONTINUOUS
10
78.9468
20
-40.8566
11
78.8992
21
-40.9518
0
LINE
8
BLACK
6
CONTINUOUS
10
78.8992
20
-40.9518
11
78.8516
21
-40.9995
0
LINE
8
BLACK
6
CONTINUOUS
10
78.8516
20
-40.9995
11
78.7563
21
-41.0471
0
LINE
8
BLACK
6
CONTINUOUS
10
78.7563
20
-41.0471
11
78.6611
21
-41.0471
0
LINE
8
BLACK
6
CONTINUOUS
10
78.6611
20
-41.0471
11
78.5182
21
-40.9995
0
LINE
8
BLACK
6
CONTINUOUS
10
78.5182
20
-40.9995
11
77.9468
21
-40.428
0
LINE
8
BLACK
6
CONTINUOUS
10
77.9468
20
-40.428
11
77.9468
21
-41.0471
0
LINE
8
BLACK
6
CONTINUOUS
10
77.8516
20
-41.2375
11
77.8516
21
-41.9995
0
LINE
8
BLACK
6
CONTINUOUS
10
78.4706
20
-42.5709
11
78.423
21
-42.7137
0
LINE
8
BLACK
6
CONTINUOUS
10
78.423
20
-42.7137
11
78.3754
21
-42.7614
0
LINE
8
BLACK
6
CONTINUOUS
10
78.3754
20
-42.7614
11
78.2802
21
-42.809
0
LINE
8
BLACK
6
CONTINUOUS
10
78.2802
20
-42.809
11
78.1373
21
-42.809
0
LINE
8
BLACK
6
CONTINUOUS
10
78.1373
20
-42.809
11
78.0421
21
-42.7614
0
LINE
8
BLACK
6
CONTINUOUS
10
78.0421
20
-42.7614
11
77.9944
21
-42.7137
0
LINE
8
BLACK
6
CONTINUOUS
10
77.9944
20
-42.7137
11
77.9468
21
-42.6185
0
LINE
8
BLACK
6
CONTINUOUS
10
77.9468
20
-42.6185
11
77.9468
21
-42.2375
0
LINE
8
BLACK
6
CONTINUOUS
10
77.9468
20
-42.2375
11
78.9468
21
-42.2375
0
LINE
8
BLACK
6
CONTINUOUS
10
78.9468
20
-42.2375
11
78.9468
21
-42.5709
0
LINE
8
BLACK
6
CONTINUOUS
10
78.9468
20
-42.5709
11
78.8992
21
-42.6661
0
LINE
8
BLACK
6
CONTINUOUS
10
78.8992
20
-42.6661
11
78.8516
21
-42.7137
0
LINE
8
BLACK
6
CONTINUOUS
10
78.8516
20
-42.7137
11
78.7563
21
-42.7614
0
LINE
8
BLACK
6
CONTINUOUS
10
78.7563
20
-42.7614
11
78.6611
21
-42.7614
0
LINE
8
BLACK
6
CONTINUOUS
10
78.6611
20
-42.7614
11
78.5659
21
-42.7137
0
LINE
8
BLACK
6
CONTINUOUS
10
78.5659
20
-42.7137
11
78.5182
21
-42.6661
0
LINE
8
BLACK
6
CONTINUOUS
10
78.5182
20
-42.6661
11
78.4706
21
-42.5709
0
LINE
8
BLACK
6
CONTINUOUS
10
78.4706
20
-42.5709
11
78.4706
21
-42.2375
0
LINE
8
BLACK
6
CONTINUOUS
10
78.9468
20
-43.428
11
78.9468
21
-43.6185
0
LINE
8
BLACK
6
CONTINUOUS
10
78.9468
20
-43.6185
11
78.8992
21
-43.7137
0
LINE
8
BLACK
6
CONTINUOUS
10
78.8992
20
-43.7137
11
78.804
21
-43.809
0
LINE
8
BLACK
6
CONTINUOUS
10
78.804
20
-43.809
11
78.6135
21
-43.8566
0
LINE
8
BLACK
6
CONTINUOUS
10
78.6135
20
-43.8566
11
78.2802
21
-43.8566
0
LINE
8
BLACK
6
CONTINUOUS
10
78.2802
20
-43.8566
11
78.0897
21
-43.809
0
LINE
8
BLACK
6
CONTINUOUS
10
78.0897
20
-43.809
11
77.9944
21
-43.7137
0
LINE
8
BLACK
6
CONTINUOUS
10
77.9944
20
-43.7137
11
77.9468
21
-43.6185
0
LINE
8
BLACK
6
CONTINUOUS
10
77.9468
20
-43.6185
11
77.9468
21
-43.428
0
LINE
8
BLACK
6
CONTINUOUS
10
77.9468
20
-43.428
11
77.9944
21
-43.3328
0
LINE
8
BLACK
6
CONTINUOUS
10
77.9944
20
-43.3328
11
78.0897
21
-43.2375
0
LINE
8
BLACK
6
CONTINUOUS
10
78.0897
20
-43.2375
11
78.2802
21
-43.1899
0
LINE
8
BLACK
6
CONTINUOUS
10
78.2802
20
-43.1899
11
78.6135
21
-43.1899
0
LINE
8
BLACK
6
CONTINUOUS
10
78.6135
20
-43.1899
11
78.804
21
-43.2375
0
LINE
8
BLACK
6
CONTINUOUS
10
78.804
20
-43.2375
11
78.8992
21
-43.3328
0
LINE
8
BLACK
6
CONTINUOUS
10
78.8992
20
-43.3328
11
78.9468
21
-43.428
0
LINE
8
BLACK
6
CONTINUOUS
10
78.4706
20
-44.6185
11
78.423
21
-44.7614
0
LINE
8
BLACK
6
CONTINUOUS
10
78.423
20
-44.7614
11
78.3754
21
-44.809
0
LINE
8
BLACK
6
CONTINUOUS
10
78.3754
20
-44.809
11
78.2802
21
-44.8566
0
LINE
8
BLACK
6
CONTINUOUS
10
78.2802
20
-44.8566
11
78.1373
21
-44.8566
0
LINE
8
BLACK
6
CONTINUOUS
10
78.1373
20
-44.8566
11
78.0421
21
-44.809
0
LINE
8
BLACK
6
CONTINUOUS
10
78.0421
20
-44.809
11
77.9944
21
-44.7614
0
LINE
8
BLACK
6
CONTINUOUS
10
77.9944
20
-44.7614
11
77.9468
21
-44.6661
0
LINE
8
BLACK
6
CONTINUOUS
10
77.9468
20
-44.6661
11
77.9468
21
-44.2852
0
LINE
8
BLACK
6
CONTINUOUS
10
77.9468
20
-44.2852
11
78.9468
21
-44.2852
0
LINE
8
BLACK
6
CONTINUOUS
10
78.9468
20
-44.2852
11
78.9468
21
-44.6185
0
LINE
8
BLACK
6
CONTINUOUS
10
78.9468
20
-44.6185
11
78.8992
21
-44.7137
0
LINE
8
BLACK
6
CONTINUOUS
10
78.8992
20
-44.7137
11
78.8516
21
-44.7614
0
LINE
8
BLACK
6
CONTINUOUS
10
78.8516
20
-44.7614
11
78.7563
21
-44.809
0
LINE
8
BLACK
6
CONTINUOUS
10
78.7563
20
-44.809
11
78.6611
21
-44.809
0
LINE
8
BLACK
6
CONTINUOUS
10
78.6611
20
-44.809
11
78.5659
21
-44.7614
0
LINE
8
BLACK
6
CONTINUOUS
10
78.5659
20
-44.7614
11
78.5182
21
-44.7137
0
LINE
8
BLACK
6
CONTINUOUS
10
78.5182
20
-44.7137
11
78.4706
21
-44.6185
0
LINE
8
BLACK
6
CONTINUOUS
10
78.4706
20
-44.6185
11
78.4706
21
-44.2852
0
LINE
8
BLACK
6
CONTINUOUS
10
78.9468
20
-45.7137
11
78.9468
21
-45.5233
0
LINE
8
BLACK
6
CONTINUOUS
10
78.9468
20
-45.5233
11
78.8992
21
-45.428
0
LINE
8
BLACK
6
CONTINUOUS
10
78.8992
20
-45.428
11
78.8516
21
-45.3804
0
LINE
8
BLACK
6
CONTINUOUS
10
78.8516
20
-45.3804
11
78.7087
21
-45.2852
0
LINE
8
BLACK
6
CONTINUOUS
10
78.7087
20
-45.2852
11
78.5182
21
-45.2375
0
LINE
8
BLACK
6
CONTINUOUS
10
78.5182
20
-45.2375
11
78.1373
21
-45.2375
0
LINE
8
BLACK
6
CONTINUOUS
10
78.1373
20
-45.2375
11
78.0421
21
-45.2852
0
LINE
8
BLACK
6
CONTINUOUS
10
78.0421
20
-45.2852
11
77.9944
21
-45.3328
0
LINE
8
BLACK
6
CONTINUOUS
10
77.9944
20
-45.3328
11
77.9468
21
-45.428
0
LINE
8
BLACK
6
CONTINUOUS
10
77.9468
20
-45.428
11
77.9468
21
-45.6185
0
LINE
8
BLACK
6
CONTINUOUS
10
77.9468
20
-45.6185
11
77.9944
21
-45.7137
0
LINE
8
BLACK
6
CONTINUOUS
10
77.9944
20
-45.7137
11
78.0421
21
-45.7614
0
LINE
8
BLACK
6
CONTINUOUS
10
78.0421
20
-45.7614
11
78.1373
21
-45.809
0
LINE
8
BLACK
6
CONTINUOUS
10
78.1373
20
-45.809
11
78.3754
21
-45.809
0
LINE
8
BLACK
6
CONTINUOUS
10
78.3754
20
-45.809
11
78.4706
21
-45.7614
0
LINE
8
BLACK
6
CONTINUOUS
10
78.4706
20
-45.7614
11
78.5182
21
-45.7137
0
LINE
8
BLACK
6
CONTINUOUS
10
78.5182
20
-45.7137
11
78.5659
21
-45.6185
0
LINE
8
BLACK
6
CONTINUOUS
10
78.5659
20
-45.6185
11
78.5659
21
-45.428
0
LINE
8
BLACK
6
CONTINUOUS
10
78.5659
20
-45.428
11
78.5182
21
-45.3328
0
LINE
8
BLACK
6
CONTINUOUS
10
78.5182
20
-45.3328
11
78.4706
21
-45.2852
0
LINE
8
BLACK
6
CONTINUOUS
10
78.4706
20
-45.2852
11
78.3754
21
-45.2375
0
LINE
8
BLACK
6
CONTINUOUS
10
78.9468
20
-46.428
11
78.9468
21
-46.5233
0
LINE
8
BLACK
6
CONTINUOUS
10
78.9468
20
-46.5233
11
78.8992
21
-46.6185
0
LINE
8
BLACK
6
CONTINUOUS
10
78.8992
20
-46.6185
11
78.8516
21
-46.6661
0
LINE
8
BLACK
6
CONTINUOUS
10
78.8516
20
-46.6661
11
78.7563
21
-46.7137
0
LINE
8
BLACK
6
CONTINUOUS
10
78.7563
20
-46.7137
11
78.5659
21
-46.7614
0
LINE
8
BLACK
6
CONTINUOUS
10
78.5659
20
-46.7614
11
78.3278
21
-46.7614
0
LINE
8
BLACK
6
CONTINUOUS
10
78.3278
20
-46.7614
11
78.1373
21
-46.7137
0
LINE
8
BLACK
6
CONTINUOUS
10
78.1373
20
-46.7137
11
78.0421
21
-46.6661
0
LINE
8
BLACK
6
CONTINUOUS
10
78.0421
20
-46.6661
11
77.9944
21
-46.6185
0
LINE
8
BLACK
6
CONTINUOUS
10
77.9944
20
-46.6185
11
77.9468
21
-46.5233
0
LINE
8
BLACK
6
CONTINUOUS
10
77.9468
20
-46.5233
11
77.9468
21
-46.428
0
LINE
8
BLACK
6
CONTINUOUS
10
77.9468
20
-46.428
11
77.9944
21
-46.3328
0
LINE
8
BLACK
6
CONTINUOUS
10
77.9944
20
-46.3328
11
78.0421
21
-46.2852
0
LINE
8
BLACK
6
CONTINUOUS
10
78.0421
20
-46.2852
11
78.1373
21
-46.2375
0
LINE
8
BLACK
6
CONTINUOUS
10
78.1373
20
-46.2375
11
78.3278
21
-46.1899
0
LINE
8
BLACK
6
CONTINUOUS
10
78.3278
20
-46.1899
11
78.5659
21
-46.1899
0
LINE
8
BLACK
6
CONTINUOUS
10
78.5659
20
-46.1899
11
78.7563
21
-46.2375
0
LINE
8
BLACK
6
CONTINUOUS
10
78.7563
20
-46.2375
11
78.8516
21
-46.2852
0
LINE
8
BLACK
6
CONTINUOUS
10
78.8516
20
-46.2852
11
78.8992
21
-46.3328
0
LINE
8
BLACK
6
CONTINUOUS
10
78.8992
20
-46.3328
11
78.9468
21
-46.428
0
LINE
8
BLACK
6
CONTINUOUS
10
78.1056
20
-62.8513
11
79.1056
21
-62.5179
0
LINE
8
BLACK
6
CONTINUOUS
10
79.1056
20
-62.5179
11
78.1056
21
-62.1846
0
LINE
8
BLACK
6
CONTINUOUS
10
79.058
20
-61.8989
11
79.1056
21
-61.756
0
LINE
8
BLACK
6
CONTINUOUS
10
79.1056
20
-61.756
11
79.1056
21
-61.5179
0
LINE
8
BLACK
6
CONTINUOUS
10
79.1056
20
-61.5179
11
79.058
21
-61.4227
0
LINE
8
BLACK
6
CONTINUOUS
10
79.058
20
-61.4227
11
79.0103
21
-61.3751
0
LINE
8
BLACK
6
CONTINUOUS
10
79.0103
20
-61.3751
11
78.9151
21
-61.3275
0
LINE
8
BLACK
6
CONTINUOUS
10
78.9151
20
-61.3275
11
78.8199
21
-61.3275
0
LINE
8
BLACK
6
CONTINUOUS
10
78.8199
20
-61.3275
11
78.7246
21
-61.3751
0
LINE
8
BLACK
6
CONTINUOUS
10
78.7246
20
-61.3751
11
78.677
21
-61.4227
0
LINE
8
BLACK
6
CONTINUOUS
10
78.677
20
-61.4227
11
78.6294
21
-61.5179
0
LINE
8
BLACK
6
CONTINUOUS
10
78.6294
20
-61.5179
11
78.5818
21
-61.7084
0
LINE
8
BLACK
6
CONTINUOUS
10
78.5818
20
-61.7084
11
78.5342
21
-61.8036
0
LINE
8
BLACK
6
CONTINUOUS
10
78.5342
20
-61.8036
11
78.4865
21
-61.8513
0
LINE
8
BLACK
6
CONTINUOUS
10
78.4865
20
-61.8513
11
78.3913
21
-61.8989
0
LINE
8
BLACK
6
CONTINUOUS
10
78.3913
20
-61.8989
11
78.2961
21
-61.8989
0
LINE
8
BLACK
6
CONTINUOUS
10
78.2961
20
-61.8989
11
78.2008
21
-61.8513
0
LINE
8
BLACK
6
CONTINUOUS
10
78.2008
20
-61.8513
11
78.1532
21
-61.8036
0
LINE
8
BLACK
6
CONTINUOUS
10
78.1532
20
-61.8036
11
78.1056
21
-61.7084
0
LINE
8
BLACK
6
CONTINUOUS
10
78.1056
20
-61.7084
11
78.1056
21
-61.4703
0
LINE
8
BLACK
6
CONTINUOUS
10
78.1056
20
-61.4703
11
78.1532
21
-61.3275
0
LINE
8
BLACK
6
CONTINUOUS
10
73.0732
20
-62.2956
11
73.0256
21
-62.3909
0
LINE
8
BLACK
6
CONTINUOUS
10
73.0256
20
-62.3909
11
73.0256
21
-62.5337
0
LINE
8
BLACK
6
CONTINUOUS
10
73.0256
20
-62.5337
11
73.0732
21
-62.6766
0
LINE
8
BLACK
6
CONTINUOUS
10
73.0732
20
-62.6766
11
73.1684
21
-62.7718
0
LINE
8
BLACK
6
CONTINUOUS
10
73.1684
20
-62.7718
11
73.2637
21
-62.8195
0
LINE
8
BLACK
6
CONTINUOUS
10
73.2637
20
-62.8195
11
73.4542
21
-62.8671
0
LINE
8
BLACK
6
CONTINUOUS
10
73.4542
20
-62.8671
11
73.597
21
-62.8671
0
LINE
8
BLACK
6
CONTINUOUS
10
73.597
20
-62.8671
11
73.7875
21
-62.8195
0
LINE
8
BLACK
6
CONTINUOUS
10
73.7875
20
-62.8195
11
73.8827
21
-62.7718
0
LINE
8
BLACK
6
CONTINUOUS
10
73.8827
20
-62.7718
11
73.978
21
-62.6766
0
LINE
8
BLACK
6
CONTINUOUS
10
73.978
20
-62.6766
11
74.0256
21
-62.5337
0
LINE
8
BLACK
6
CONTINUOUS
10
74.0256
20
-62.5337
11
74.0256
21
-62.4385
0
LINE
8
BLACK
6
CONTINUOUS
10
74.0256
20
-62.4385
11
73.978
21
-62.2956
0
LINE
8
BLACK
6
CONTINUOUS
10
73.978
20
-62.2956
11
73.9303
21
-62.248
0
LINE
8
BLACK
6
CONTINUOUS
10
73.9303
20
-62.248
11
73.597
21
-62.248
0
LINE
8
BLACK
6
CONTINUOUS
10
73.597
20
-62.248
11
73.597
21
-62.4385
0
LINE
8
BLACK
6
CONTINUOUS
10
74.0256
20
-61.8195
11
73.0256
21
-61.8195
0
LINE
8
BLACK
6
CONTINUOUS
10
73.0256
20
-61.8195
11
74.0256
21
-61.248
0
LINE
8
BLACK
6
CONTINUOUS
10
74.0256
20
-61.248
11
73.0256
21
-61.248
0
LINE
8
BLACK
6
CONTINUOUS
10
74.0256
20
-60.7718
11
73.0256
21
-60.7718
0
LINE
8
BLACK
6
CONTINUOUS
10
73.0256
20
-60.7718
11
73.0256
21
-60.5337
0
LINE
8
BLACK
6
CONTINUOUS
10
73.0256
20
-60.5337
11
73.0732
21
-60.3909
0
LINE
8
BLACK
6
CONTINUOUS
10
73.0732
20
-60.3909
11
73.1684
21
-60.2956
0
LINE
8
BLACK
6
CONTINUOUS
10
73.1684
20
-60.2956
11
73.2637
21
-60.248
0
LINE
8
BLACK
6
CONTINUOUS
10
73.2637
20
-60.248
11
73.4542
21
-60.2004
0
LINE
8
BLACK
6
CONTINUOUS
10
73.4542
20
-60.2004
11
73.597
21
-60.2004
0
LINE
8
BLACK
6
CONTINUOUS
10
73.597
20
-60.2004
11
73.7875
21
-60.248
0
LINE
8
BLACK
6
CONTINUOUS
10
73.7875
20
-60.248
11
73.8827
21
-60.2956
0
LINE
8
BLACK
6
CONTINUOUS
10
73.8827
20
-60.2956
11
73.978
21
-60.3909
0
LINE
8
BLACK
6
CONTINUOUS
10
73.978
20
-60.3909
11
74.0256
21
-60.5337
0
LINE
8
BLACK
6
CONTINUOUS
10
74.0256
20
-60.5337
11
74.0256
21
-60.7718
0
LINE
8
BLACK
6
CONTINUOUS
10
68.6599
20
-62.756
11
68.6599
21
-62.2798
0
LINE
8
BLACK
6
CONTINUOUS
10
68.9456
20
-62.8513
11
67.9456
21
-62.5179
0
LINE
8
BLACK
6
CONTINUOUS
10
67.9456
20
-62.5179
11
68.9456
21
-62.1846
0
LINE
8
BLACK
6
CONTINUOUS
10
68.9456
20
-61.3275
11
68.9456
21
-61.8989
0
LINE
8
BLACK
6
CONTINUOUS
10
68.9456
20
-61.6132
11
67.9456
21
-61.6132
0
LINE
8
BLACK
6
CONTINUOUS
10
67.9456
20
-61.6132
11
68.0884
21
-61.7084
0
LINE
8
BLACK
6
CONTINUOUS
10
68.0884
20
-61.7084
11
68.1837
21
-61.8036
0
LINE
8
BLACK
6
CONTINUOUS
10
68.1837
20
-61.8036
11
68.2313
21
-61.8989
0
LINE
8
BLACK
6
CONTINUOUS
10
63.3259
20
-62.756
11
63.3259
21
-62.2798
0
LINE
8
BLACK
6
CONTINUOUS
10
63.6116
20
-62.8513
11
62.6116
21
-62.5179
0
LINE
8
BLACK
6
CONTINUOUS
10
62.6116
20
-62.5179
11
63.6116
21
-62.1846
0
LINE
8
BLACK
6
CONTINUOUS
10
62.7068
20
-61.8989
11
62.6592
21
-61.8513
0
LINE
8
BLACK
6
CONTINUOUS
10
62.6592
20
-61.8513
11
62.6116
21
-61.756
0
LINE
8
BLACK
6
CONTINUOUS
10
62.6116
20
-61.756
11
62.6116
21
-61.5179
0
LINE
8
BLACK
6
CONTINUOUS
10
62.6116
20
-61.5179
11
62.6592
21
-61.4227
0
LINE
8
BLACK
6
CONTINUOUS
10
62.6592
20
-61.4227
11
62.7068
21
-61.3751
0
LINE
8
BLACK
6
CONTINUOUS
10
62.7068
20
-61.3751
11
62.8021
21
-61.3275
0
LINE
8
BLACK
6
CONTINUOUS
10
62.8021
20
-61.3275
11
62.8973
21
-61.3275
0
LINE
8
BLACK
6
CONTINUOUS
10
62.8973
20
-61.3275
11
63.0402
21
-61.3751
0
LINE
8
BLACK
6
CONTINUOUS
10
63.0402
20
-61.3751
11
63.6116
21
-61.9465
0
LINE
8
BLACK
6
CONTINUOUS
10
63.6116
20
-61.9465
11
63.6116
21
-61.3275
0
LINE
8
BLACK
6
CONTINUOUS
10
58.0078
20
-62.4465
11
58.0554
21
-62.3036
0
LINE
8
BLACK
6
CONTINUOUS
10
58.0554
20
-62.3036
11
58.103
21
-62.256
0
LINE
8
BLACK
6
CONTINUOUS
10
58.103
20
-62.256
11
58.1982
21
-62.2084
0
LINE
8
BLACK
6
CONTINUOUS
10
58.1982
20
-62.2084
11
58.3411
21
-62.2084
0
LINE
8
BLACK
6
CONTINUOUS
10
58.3411
20
-62.2084
11
58.4363
21
-62.256
0
LINE
8
BLACK
6
CONTINUOUS
10
58.4363
20
-62.256
11
58.484
21
-62.3036
0
LINE
8
BLACK
6
CONTINUOUS
10
58.484
20
-62.3036
11
58.5316
21
-62.3989
0
LINE
8
BLACK
6
CONTINUOUS
10
58.5316
20
-62.3989
11
58.5316
21
-62.7798
0
LINE
8
BLACK
6
CONTINUOUS
10
58.5316
20
-62.7798
11
57.5316
21
-62.7798
0
LINE
8
BLACK
6
CONTINUOUS
10
57.5316
20
-62.7798
11
57.5316
21
-62.4465
0
LINE
8
BLACK
6
CONTINUOUS
10
57.5316
20
-62.4465
11
57.5792
21
-62.3513
0
LINE
8
BLACK
6
CONTINUOUS
10
57.5792
20
-62.3513
11
57.6268
21
-62.3036
0
LINE
8
BLACK
6
CONTINUOUS
10
57.6268
20
-62.3036
11
57.7221
21
-62.256
0
LINE
8
BLACK
6
CONTINUOUS
10
57.7221
20
-62.256
11
57.8173
21
-62.256
0
LINE
8
BLACK
6
CONTINUOUS
10
57.8173
20
-62.256
11
57.9125
21
-62.3036
0
LINE
8
BLACK
6
CONTINUOUS
10
57.9125
20
-62.3036
11
57.9602
21
-62.3513
0
LINE
8
BLACK
6
CONTINUOUS
10
57.9602
20
-62.3513
11
58.0078
21
-62.4465
0
LINE
8
BLACK
6
CONTINUOUS
10
58.0078
20
-62.4465
11
58.0078
21
-62.7798
0
LINE
8
BLACK
6
CONTINUOUS
10
58.5316
20
-61.256
11
58.5316
21
-61.8275
0
LINE
8
BLACK
6
CONTINUOUS
10
58.5316
20
-61.5417
11
57.5316
21
-61.5417
0
LINE
8
BLACK
6
CONTINUOUS
10
57.5316
20
-61.5417
11
57.6744
21
-61.637
0
LINE
8
BLACK
6
CONTINUOUS
10
57.6744
20
-61.637
11
57.7697
21
-61.7322
0
LINE
8
BLACK
6
CONTINUOUS
10
57.7697
20
-61.7322
11
57.8173
21
-61.8275
0
LINE
8
BLACK
6
CONTINUOUS
10
52.9278
20
-62.4465
11
52.9754
21
-62.3036
0
LINE
8
BLACK
6
CONTINUOUS
10
52.9754
20
-62.3036
11
53.023
21
-62.256
0
LINE
8
BLACK
6
CONTINUOUS
10
53.023
20
-62.256
11
53.1182
21
-62.2084
0
LINE
8
BLACK
6
CONTINUOUS
10
53.1182
20
-62.2084
11
53.2611
21
-62.2084
0
LINE
8
BLACK
6
CONTINUOUS
10
53.2611
20
-62.2084
11
53.3563
21
-62.256
0
LINE
8
BLACK
6
CONTINUOUS
10
53.3563
20
-62.256
11
53.404
21
-62.3036
0
LINE
8
BLACK
6
CONTINUOUS
10
53.404
20
-62.3036
11
53.4516
21
-62.3989
0
LINE
8
BLACK
6
CONTINUOUS
10
53.4516
20
-62.3989
11
53.4516
21
-62.7798
0
LINE
8
BLACK
6
CONTINUOUS
10
53.4516
20
-62.7798
11
52.4516
21
-62.7798
0
LINE
8
BLACK
6
CONTINUOUS
10
52.4516
20
-62.7798
11
52.4516
21
-62.4465
0
LINE
8
BLACK
6
CONTINUOUS
10
52.4516
20
-62.4465
11
52.4992
21
-62.3513
0
LINE
8
BLACK
6
CONTINUOUS
10
52.4992
20
-62.3513
11
52.5468
21
-62.3036
0
LINE
8
BLACK
6
CONTINUOUS
10
52.5468
20
-62.3036
11
52.6421
21
-62.256
0
LINE
8
BLACK
6
CONTINUOUS
10
52.6421
20
-62.256
11
52.7373
21
-62.256
0
LINE
8
BLACK
6
CONTINUOUS
10
52.7373
20
-62.256
11
52.8325
21
-62.3036
0
LINE
8
BLACK
6
CONTINUOUS
10
52.8325
20
-62.3036
11
52.8802
21
-62.3513
0
LINE
8
BLACK
6
CONTINUOUS
10
52.8802
20
-62.3513
11
52.9278
21
-62.4465
0
LINE
8
BLACK
6
CONTINUOUS
10
52.9278
20
-62.4465
11
52.9278
21
-62.7798
0
LINE
8
BLACK
6
CONTINUOUS
10
52.5468
20
-61.8275
11
52.4992
21
-61.7798
0
LINE
8
BLACK
6
CONTINUOUS
10
52.4992
20
-61.7798
11
52.4516
21
-61.6846
0
LINE
8
BLACK
6
CONTINUOUS
10
52.4516
20
-61.6846
11
52.4516
21
-61.4465
0
LINE
8
BLACK
6
CONTINUOUS
10
52.4516
20
-61.4465
11
52.4992
21
-61.3513
0
LINE
8
BLACK
6
CONTINUOUS
10
52.4992
20
-61.3513
11
52.5468
21
-61.3036
0
LINE
8
BLACK
6
CONTINUOUS
10
52.5468
20
-61.3036
11
52.6421
21
-61.256
0
LINE
8
BLACK
6
CONTINUOUS
10
52.6421
20
-61.256
11
52.7373
21
-61.256
0
LINE
8
BLACK
6
CONTINUOUS
10
52.7373
20
-61.256
11
52.8802
21
-61.3036
0
LINE
8
BLACK
6
CONTINUOUS
10
52.8802
20
-61.3036
11
53.4516
21
-61.8751
0
LINE
8
BLACK
6
CONTINUOUS
10
53.4516
20
-61.8751
11
53.4516
21
-61.256
0
LINE
8
BLACK
6
CONTINUOUS
10
48.6256
20
-62.7877
11
47.6256
21
-62.7877
0
LINE
8
BLACK
6
CONTINUOUS
10
47.6256
20
-62.7877
11
47.6256
21
-62.5496
0
LINE
8
BLACK
6
CONTINUOUS
10
47.6256
20
-62.5496
11
47.6732
21
-62.4068
0
LINE
8
BLACK
6
CONTINUOUS
10
47.6732
20
-62.4068
11
47.7684
21
-62.3115
0
LINE
8
BLACK
6
CONTINUOUS
10
47.7684
20
-62.3115
11
47.8637
21
-62.2639
0
LINE
8
BLACK
6
CONTINUOUS
10
47.8637
20
-62.2639
11
48.0542
21
-62.2163
0
LINE
8
BLACK
6
CONTINUOUS
10
48.0542
20
-62.2163
11
48.197
21
-62.2163
0
LINE
8
BLACK
6
CONTINUOUS
10
48.197
20
-62.2163
11
48.3875
21
-62.2639
0
LINE
8
BLACK
6
CONTINUOUS
10
48.3875
20
-62.2639
11
48.4827
21
-62.3115
0
LINE
8
BLACK
6
CONTINUOUS
10
48.4827
20
-62.3115
11
48.578
21
-62.4068
0
LINE
8
BLACK
6
CONTINUOUS
10
48.578
20
-62.4068
11
48.6256
21
-62.5496
0
LINE
8
BLACK
6
CONTINUOUS
10
48.6256
20
-62.5496
11
48.6256
21
-62.7877
0
LINE
8
BLACK
6
CONTINUOUS
10
48.6256
20
-61.7877
11
47.6256
21
-61.7877
0
LINE
8
BLACK
6
CONTINUOUS
10
48.6256
20
-60.7401
11
48.1494
21
-61.0735
0
LINE
8
BLACK
6
CONTINUOUS
10
48.6256
20
-61.3115
11
47.6256
21
-61.3115
0
LINE
8
BLACK
6
CONTINUOUS
10
47.6256
20
-61.3115
11
47.6256
21
-60.9306
0
LINE
8
BLACK
6
CONTINUOUS
10
47.6256
20
-60.9306
11
47.6732
21
-60.8354
0
LINE
8
BLACK
6
CONTINUOUS
10
47.6732
20
-60.8354
11
47.7208
21
-60.7877
0
LINE
8
BLACK
6
CONTINUOUS
10
47.7208
20
-60.7877
11
47.8161
21
-60.7401
0
LINE
8
BLACK
6
CONTINUOUS
10
47.8161
20
-60.7401
11
47.9589
21
-60.7401
0
LINE
8
BLACK
6
CONTINUOUS
10
47.9589
20
-60.7401
11
48.0542
21
-60.7877
0
LINE
8
BLACK
6
CONTINUOUS
10
48.0542
20
-60.7877
11
48.1018
21
-60.8354
0
LINE
8
BLACK
6
CONTINUOUS
10
48.1018
20
-60.8354
11
48.1494
21
-60.9306
0
LINE
8
BLACK
6
CONTINUOUS
10
48.1494
20
-60.9306
11
48.1494
21
-61.3115
0
LINE
8
BLACK
6
CONTINUOUS
10
44.006
20
-62.6448
11
44.0536
21
-62.5019
0
LINE
8
BLACK
6
CONTINUOUS
10
44.0536
20
-62.5019
11
44.0536
21
-62.2638
0
LINE
8
BLACK
6
CONTINUOUS
10
44.0536
20
-62.2638
11
44.006
21
-62.1686
0
LINE
8
BLACK
6
CONTINUOUS
10
44.006
20
-62.1686
11
43.9583
21
-62.121
0
LINE
8
BLACK
6
CONTINUOUS
10
43.9583
20
-62.121
11
43.8631
21
-62.0734
0
LINE
8
BLACK
6
CONTINUOUS
10
43.8631
20
-62.0734
11
43.7679
21
-62.0734
0
LINE
8
BLACK
6
CONTINUOUS
10
43.7679
20
-62.0734
11
43.6726
21
-62.121
0
LINE
8
BLACK
6
CONTINUOUS
10
43.6726
20
-62.121
11
43.625
21
-62.1686
0
LINE
8
BLACK
6
CONTINUOUS
10
43.625
20
-62.1686
11
43.5774
21
-62.2638
0
LINE
8
BLACK
6
CONTINUOUS
10
43.5774
20
-62.2638
11
43.5298
21
-62.4543
0
LINE
8
BLACK
6
CONTINUOUS
10
43.5298
20
-62.4543
11
43.4822
21
-62.5495
0
LINE
8
BLACK
6
CONTINUOUS
10
43.4822
20
-62.5495
11
43.4345
21
-62.5972
0
LINE
8
BLACK
6
CONTINUOUS
10
43.4345
20
-62.5972
11
43.3393
21
-62.6448
0
LINE
8
BLACK
6
CONTINUOUS
10
43.3393
20
-62.6448
11
43.2441
21
-62.6448
0
LINE
8
BLACK
6
CONTINUOUS
10
43.2441
20
-62.6448
11
43.1488
21
-62.5972
0
LINE
8
BLACK
6
CONTINUOUS
10
43.1488
20
-62.5972
11
43.1012
21
-62.5495
0
LINE
8
BLACK
6
CONTINUOUS
10
43.1012
20
-62.5495
11
43.0536
21
-62.4543
0
LINE
8
BLACK
6
CONTINUOUS
10
43.0536
20
-62.4543
11
43.0536
21
-62.2162
0
LINE
8
BLACK
6
CONTINUOUS
10
43.0536
20
-62.2162
11
43.1012
21
-62.0734
0
LINE
8
BLACK
6
CONTINUOUS
10
43.0536
20
-61.7876
11
43.0536
21
-61.2162
0
LINE
8
BLACK
6
CONTINUOUS
10
44.0536
20
-61.5019
11
43.0536
21
-61.5019
0
LINE
8
BLACK
6
CONTINUOUS
10
43.5298
20
-60.8829
11
43.5298
21
-60.5495
0
LINE
8
BLACK
6
CONTINUOUS
10
44.0536
20
-60.4067
11
44.0536
21
-60.8829
0
LINE
8
BLACK
6
CONTINUOUS
10
44.0536
20
-60.8829
11
43.0536
21
-60.8829
0
LINE
8
BLACK
6
CONTINUOUS
10
43.0536
20
-60.8829
11
43.0536
21
-60.4067
0
LINE
8
BLACK
6
CONTINUOUS
10
44.0536
20
-59.9781
11
43.0536
21
-59.9781
0
LINE
8
BLACK
6
CONTINUOUS
10
43.0536
20
-59.9781
11
43.0536
21
-59.5972
0
LINE
8
BLACK
6
CONTINUOUS
10
43.0536
20
-59.5972
11
43.1012
21
-59.5019
0
LINE
8
BLACK
6
CONTINUOUS
10
43.1012
20
-59.5019
11
43.1488
21
-59.4543
0
LINE
8
BLACK
6
CONTINUOUS
10
43.1488
20
-59.4543
11
43.2441
21
-59.4067
0
LINE
8
BLACK
6
CONTINUOUS
10
43.2441
20
-59.4067
11
43.3869
21
-59.4067
0
LINE
8
BLACK
6
CONTINUOUS
10
43.3869
20
-59.4067
11
43.4822
21
-59.4543
0
LINE
8
BLACK
6
CONTINUOUS
10
43.4822
20
-59.4543
11
43.5298
21
-59.5019
0
LINE
8
BLACK
6
CONTINUOUS
10
43.5298
20
-59.5019
11
43.5774
21
-59.5972
0
LINE
8
BLACK
6
CONTINUOUS
10
43.5774
20
-59.5972
11
43.5774
21
-59.9781
0
LINE
8
BLACK
6
CONTINUOUS
10
42.0216
20
-62.5017
11
41.0216
21
-62.5017
0
LINE
8
BLACK
6
CONTINUOUS
10
41.0216
20
-62.5017
11
41.0216
21
-62.2636
0
LINE
8
BLACK
6
CONTINUOUS
10
41.0216
20
-62.2636
11
41.0692
21
-62.1208
0
LINE
8
BLACK
6
CONTINUOUS
10
41.0692
20
-62.1208
11
41.1644
21
-62.0255
0
LINE
8
BLACK
6
CONTINUOUS
10
41.1644
20
-62.0255
11
41.2597
21
-61.9779
0
LINE
8
BLACK
6
CONTINUOUS
10
41.2597
20
-61.9779
11
41.4502
21
-61.9303
0
LINE
8
BLACK
6
CONTINUOUS
10
41.4502
20
-61.9303
11
41.593
21
-61.9303
0
LINE
8
BLACK
6
CONTINUOUS
10
41.593
20
-61.9303
11
41.7835
21
-61.9779
0
LINE
8
BLACK
6
CONTINUOUS
10
41.7835
20
-61.9779
11
41.8787
21
-62.0255
0
LINE
8
BLACK
6
CONTINUOUS
10
41.8787
20
-62.0255
11
41.974
21
-62.1208
0
LINE
8
BLACK
6
CONTINUOUS
10
41.974
20
-62.1208
11
42.0216
21
-62.2636
0
LINE
8
BLACK
6
CONTINUOUS
10
42.0216
20
-62.2636
11
42.0216
21
-62.5017
0
LINE
8
BLACK
6
CONTINUOUS
10
42.0216
20
-60.9303
11
41.5454
21
-61.2636
0
LINE
8
BLACK
6
CONTINUOUS
10
42.0216
20
-61.5017
11
41.0216
21
-61.5017
0
LINE
8
BLACK
6
CONTINUOUS
10
41.0216
20
-61.5017
11
41.0216
21
-61.1208
0
LINE
8
BLACK
6
CONTINUOUS
10
41.0216
20
-61.1208
11
41.0692
21
-61.0255
0
LINE
8
BLACK
6
CONTINUOUS
10
41.0692
20
-61.0255
11
41.1168
21
-60.9779
0
LINE
8
BLACK
6
CONTINUOUS
10
41.1168
20
-60.9779
11
41.2121
21
-60.9303
0
LINE
8
BLACK
6
CONTINUOUS
10
41.2121
20
-60.9303
11
41.3549
21
-60.9303
0
LINE
8
BLACK
6
CONTINUOUS
10
41.3549
20
-60.9303
11
41.4502
21
-60.9779
0
LINE
8
BLACK
6
CONTINUOUS
10
41.4502
20
-60.9779
11
41.4978
21
-61.0255
0
LINE
8
BLACK
6
CONTINUOUS
10
41.4978
20
-61.0255
11
41.5454
21
-61.1208
0
LINE
8
BLACK
6
CONTINUOUS
10
41.5454
20
-61.1208
11
41.5454
21
-61.5017
0
LINE
8
BLACK
6
CONTINUOUS
10
41.0216
20
-60.6446
11
42.0216
21
-60.3113
0
LINE
8
BLACK
6
CONTINUOUS
10
42.0216
20
-60.3113
11
41.0216
21
-59.9779
0
LINE
8
BLACK
6
CONTINUOUS
10
42.1168
20
-59.8827
11
42.1168
21
-59.1208
0
LINE
8
BLACK
6
CONTINUOUS
10
41.4978
20
-58.8827
11
41.4978
21
-58.5494
0
LINE
8
BLACK
6
CONTINUOUS
10
42.0216
20
-58.4065
11
42.0216
21
-58.8827
0
LINE
8
BLACK
6
CONTINUOUS
10
42.0216
20
-58.8827
11
41.0216
21
-58.8827
0
LINE
8
BLACK
6
CONTINUOUS
10
41.0216
20
-58.8827
11
41.0216
21
-58.4065
0
LINE
8
BLACK
6
CONTINUOUS
10
42.0216
20
-57.9779
11
41.0216
21
-57.9779
0
LINE
8
BLACK
6
CONTINUOUS
10
41.0216
20
-57.9779
11
42.0216
21
-57.4065
0
LINE
8
BLACK
6
CONTINUOUS
10
42.0216
20
-57.4065
11
41.0216
21
-57.4065
0
LINE
8
BLACK
6
CONTINUOUS
10
41.3549
20
-56.9303
11
42.0216
21
-56.9303
0
LINE
8
BLACK
6
CONTINUOUS
10
41.4502
20
-56.9303
11
41.4025
21
-56.8827
0
LINE
8
BLACK
6
CONTINUOUS
10
41.4025
20
-56.8827
11
41.3549
21
-56.7875
0
LINE
8
BLACK
6
CONTINUOUS
10
41.3549
20
-56.7875
11
41.3549
21
-56.6446
0
LINE
8
BLACK
6
CONTINUOUS
10
41.3549
20
-56.6446
11
41.4025
21
-56.5494
0
LINE
8
BLACK
6
CONTINUOUS
10
41.4025
20
-56.5494
11
41.4978
21
-56.5017
0
LINE
8
BLACK
6
CONTINUOUS
10
41.4978
20
-56.5017
11
42.0216
21
-56.5017
0
LINE
8
BLACK
6
CONTINUOUS
10
32.6872
20
-62.2956
11
32.6396
21
-62.3909
0
LINE
8
BLACK
6
CONTINUOUS
10
32.6396
20
-62.3909
11
32.6396
21
-62.5337
0
LINE
8
BLACK
6
CONTINUOUS
10
32.6396
20
-62.5337
11
32.6872
21
-62.6766
0
LINE
8
BLACK
6
CONTINUOUS
10
32.6872
20
-62.6766
11
32.7824
21
-62.7718
0
LINE
8
BLACK
6
CONTINUOUS
10
32.7824
20
-62.7718
11
32.8777
21
-62.8195
0
LINE
8
BLACK
6
CONTINUOUS
10
32.8777
20
-62.8195
11
33.0682
21
-62.8671
0
LINE
8
BLACK
6
CONTINUOUS
10
33.0682
20
-62.8671
11
33.211
21
-62.8671
0
LINE
8
BLACK
6
CONTINUOUS
10
33.211
20
-62.8671
11
33.4015
21
-62.8195
0
LINE
8
BLACK
6
CONTINUOUS
10
33.4015
20
-62.8195
11
33.4967
21
-62.7718
0
LINE
8
BLACK
6
CONTINUOUS
10
33.4967
20
-62.7718
11
33.592
21
-62.6766
0
LINE
8
BLACK
6
CONTINUOUS
10
33.592
20
-62.6766
11
33.6396
21
-62.5337
0
LINE
8
BLACK
6
CONTINUOUS
10
33.6396
20
-62.5337
11
33.6396
21
-62.4385
0
LINE
8
BLACK
6
CONTINUOUS
10
33.6396
20
-62.4385
11
33.592
21
-62.2956
0
LINE
8
BLACK
6
CONTINUOUS
10
33.592
20
-62.2956
11
33.5443
21
-62.248
0
LINE
8
BLACK
6
CONTINUOUS
10
33.5443
20
-62.248
11
33.211
21
-62.248
0
LINE
8
BLACK
6
CONTINUOUS
10
33.211
20
-62.248
11
33.211
21
-62.4385
0
LINE
8
BLACK
6
CONTINUOUS
10
33.6396
20
-61.8195
11
32.6396
21
-61.8195
0
LINE
8
BLACK
6
CONTINUOUS
10
32.6396
20
-61.8195
11
33.6396
21
-61.248
0
LINE
8
BLACK
6
CONTINUOUS
10
33.6396
20
-61.248
11
32.6396
21
-61.248
0
LINE
8
BLACK
6
CONTINUOUS
10
33.6396
20
-60.7718
11
32.6396
21
-60.7718
0
LINE
8
BLACK
6
CONTINUOUS
10
32.6396
20
-60.7718
11
32.6396
21
-60.5337
0
LINE
8
BLACK
6
CONTINUOUS
10
32.6396
20
-60.5337
11
32.6872
21
-60.3909
0
LINE
8
BLACK
6
CONTINUOUS
10
32.6872
20
-60.3909
11
32.7824
21
-60.2956
0
LINE
8
BLACK
6
CONTINUOUS
10
32.7824
20
-60.2956
11
32.8777
21
-60.248
0
LINE
8
BLACK
6
CONTINUOUS
10
32.8777
20
-60.248
11
33.0682
21
-60.2004
0
LINE
8
BLACK
6
CONTINUOUS
10
33.0682
20
-60.2004
11
33.211
21
-60.2004
0
LINE
8
BLACK
6
CONTINUOUS
10
33.211
20
-60.2004
11
33.4015
21
-60.248
0
LINE
8
BLACK
6
CONTINUOUS
10
33.4015
20
-60.248
11
33.4967
21
-60.2956
0
LINE
8
BLACK
6
CONTINUOUS
10
33.4967
20
-60.2956
11
33.592
21
-60.3909
0
LINE
8
BLACK
6
CONTINUOUS
10
33.592
20
-60.3909
11
33.6396
21
-60.5337
0
LINE
8
BLACK
6
CONTINUOUS
10
33.6396
20
-60.5337
11
33.6396
21
-60.7718
0
LINE
8
BLACK
6
CONTINUOUS
10
25.7816
20
-62.3591
11
26.7816
21
-62.0257
0
LINE
8
BLACK
6
CONTINUOUS
10
26.7816
20
-62.0257
11
25.7816
21
-61.6924
0
LINE
8
BLACK
6
CONTINUOUS
10
26.6863
20
-60.7876
11
26.734
21
-60.8353
0
LINE
8
BLACK
6
CONTINUOUS
10
26.734
20
-60.8353
11
26.7816
21
-60.9781
0
LINE
8
BLACK
6
CONTINUOUS
10
26.7816
20
-60.9781
11
26.7816
21
-61.0734
0
LINE
8
BLACK
6
CONTINUOUS
10
26.7816
20
-61.0734
11
26.734
21
-61.2162
0
LINE
8
BLACK
6
CONTINUOUS
10
26.734
20
-61.2162
11
26.6387
21
-61.3115
0
LINE
8
BLACK
6
CONTINUOUS
10
26.6387
20
-61.3115
11
26.5435
21
-61.3591
0
LINE
8
BLACK
6
CONTINUOUS
10
26.5435
20
-61.3591
11
26.353
21
-61.4067
0
LINE
8
BLACK
6
CONTINUOUS
10
26.353
20
-61.4067
11
26.2102
21
-61.4067
0
LINE
8
BLACK
6
CONTINUOUS
10
26.2102
20
-61.4067
11
26.0197
21
-61.3591
0
LINE
8
BLACK
6
CONTINUOUS
10
26.0197
20
-61.3591
11
25.9244
21
-61.3115
0
LINE
8
BLACK
6
CONTINUOUS
10
25.9244
20
-61.3115
11
25.8292
21
-61.2162
0
LINE
8
BLACK
6
CONTINUOUS
10
25.8292
20
-61.2162
11
25.7816
21
-61.0734
0
LINE
8
BLACK
6
CONTINUOUS
10
25.7816
20
-61.0734
11
25.7816
21
-60.9781
0
LINE
8
BLACK
6
CONTINUOUS
10
25.7816
20
-60.9781
11
25.8292
21
-60.8353
0
LINE
8
BLACK
6
CONTINUOUS
10
25.8292
20
-60.8353
11
25.8768
21
-60.7876
0
LINE
8
BLACK
6
CONTINUOUS
10
26.6863
20
-59.7876
11
26.734
21
-59.8353
0
LINE
8
BLACK
6
CONTINUOUS
10
26.734
20
-59.8353
11
26.7816
21
-59.9781
0
LINE
8
BLACK
6
CONTINUOUS
10
26.7816
20
-59.9781
11
26.7816
21
-60.0734
0
LINE
8
BLACK
6
CONTINUOUS
10
26.7816
20
-60.0734
11
26.734
21
-60.2162
0
LINE
8
BLACK
6
CONTINUOUS
10
26.734
20
-60.2162
11
26.6387
21
-60.3115
0
LINE
8
BLACK
6
CONTINUOUS
10
26.6387
20
-60.3115
11
26.5435
21
-60.3591
0
LINE
8
BLACK
6
CONTINUOUS
10
26.5435
20
-60.3591
11
26.353
21
-60.4067
0
LINE
8
BLACK
6
CONTINUOUS
10
26.353
20
-60.4067
11
26.2102
21
-60.4067
0
LINE
8
BLACK
6
CONTINUOUS
10
26.2102
20
-60.4067
11
26.0197
21
-60.3591
0
LINE
8
BLACK
6
CONTINUOUS
10
26.0197
20
-60.3591
11
25.9244
21
-60.3115
0
LINE
8
BLACK
6
CONTINUOUS
10
25.9244
20
-60.3115
11
25.8292
21
-60.2162
0
LINE
8
BLACK
6
CONTINUOUS
10
25.8292
20
-60.2162
11
25.7816
21
-60.0734
0
LINE
8
BLACK
6
CONTINUOUS
10
25.7816
20
-60.0734
11
25.7816
21
-59.9781
0
LINE
8
BLACK
6
CONTINUOUS
10
25.7816
20
-59.9781
11
25.8292
21
-59.8353
0
LINE
8
BLACK
6
CONTINUOUS
10
25.8292
20
-59.8353
11
25.8768
21
-59.7876
0
LINE
8
BLACK
6
CONTINUOUS
10
38.8248
20
-56.1659
11
38.8605
21
-56.0587
0
LINE
8
BLACK
6
CONTINUOUS
10
38.8605
20
-56.0587
11
38.8605
21
-55.8802
0
LINE
8
BLACK
6
CONTINUOUS
10
38.8605
20
-55.8802
11
38.8248
21
-55.8087
0
LINE
8
BLACK
6
CONTINUOUS
10
38.8248
20
-55.8087
11
38.7891
21
-55.773
0
LINE
8
BLACK
6
CONTINUOUS
10
38.7891
20
-55.773
11
38.7176
21
-55.7373
0
LINE
8
BLACK
6
CONTINUOUS
10
38.7176
20
-55.7373
11
38.6462
21
-55.7373
0
LINE
8
BLACK
6
CONTINUOUS
10
38.6462
20
-55.7373
11
38.5748
21
-55.773
0
LINE
8
BLACK
6
CONTINUOUS
10
38.5748
20
-55.773
11
38.5391
21
-55.8087
0
LINE
8
BLACK
6
CONTINUOUS
10
38.5391
20
-55.8087
11
38.5033
21
-55.8802
0
LINE
8
BLACK
6
CONTINUOUS
10
38.5033
20
-55.8802
11
38.4676
21
-56.023
0
LINE
8
BLACK
6
CONTINUOUS
10
38.4676
20
-56.023
11
38.4319
21
-56.0945
0
LINE
8
BLACK
6
CONTINUOUS
10
38.4319
20
-56.0945
11
38.3962
21
-56.1302
0
LINE
8
BLACK
6
CONTINUOUS
10
38.3962
20
-56.1302
11
38.3248
21
-56.1659
0
LINE
8
BLACK
6
CONTINUOUS
10
38.3248
20
-56.1659
11
38.2533
21
-56.1659
0
LINE
8
BLACK
6
CONTINUOUS
10
38.2533
20
-56.1659
11
38.1819
21
-56.1302
0
LINE
8
BLACK
6
CONTINUOUS
10
38.1819
20
-56.1302
11
38.1462
21
-56.0945
0
LINE
8
BLACK
6
CONTINUOUS
10
38.1462
20
-56.0945
11
38.1105
21
-56.023
0
LINE
8
BLACK
6
CONTINUOUS
10
38.1105
20
-56.023
11
38.1105
21
-55.8445
0
LINE
8
BLACK
6
CONTINUOUS
10
38.1105
20
-55.8445
11
38.1462
21
-55.7373
0
LINE
8
BLACK
6
CONTINUOUS
10
38.8605
20
-55.4159
11
38.1105
21
-55.4159
0
LINE
8
BLACK
6
CONTINUOUS
10
38.1105
20
-55.4159
11
38.1105
21
-55.2373
0
LINE
8
BLACK
6
CONTINUOUS
10
38.1105
20
-55.2373
11
38.1462
21
-55.1302
0
LINE
8
BLACK
6
CONTINUOUS
10
38.1462
20
-55.1302
11
38.2176
21
-55.0587
0
LINE
8
BLACK
6
CONTINUOUS
10
38.2176
20
-55.0587
11
38.2891
21
-55.023
0
LINE
8
BLACK
6
CONTINUOUS
10
38.2891
20
-55.023
11
38.4319
21
-54.9873
0
LINE
8
BLACK
6
CONTINUOUS
10
38.4319
20
-54.9873
11
38.5391
21
-54.9873
0
LINE
8
BLACK
6
CONTINUOUS
10
38.5391
20
-54.9873
11
38.6819
21
-55.023
0
LINE
8
BLACK
6
CONTINUOUS
10
38.6819
20
-55.023
11
38.7533
21
-55.0587
0
LINE
8
BLACK
6
CONTINUOUS
10
38.7533
20
-55.0587
11
38.8248
21
-55.1302
0
LINE
8
BLACK
6
CONTINUOUS
10
38.8248
20
-55.1302
11
38.8605
21
-55.2373
0
LINE
8
BLACK
6
CONTINUOUS
10
38.8605
20
-55.2373
11
38.8605
21
-55.4159
0
LINE
8
BLACK
6
CONTINUOUS
10
38.1105
20
-54.523
11
38.1105
21
-54.3802
0
LINE
8
BLACK
6
CONTINUOUS
10
38.1105
20
-54.3802
11
38.1462
21
-54.3087
0
LINE
8
BLACK
6
CONTINUOUS
10
38.1462
20
-54.3087
11
38.2176
21
-54.2373
0
LINE
8
BLACK
6
CONTINUOUS
10
38.2176
20
-54.2373
11
38.3605
21
-54.2016
0
LINE
8
BLACK
6
CONTINUOUS
10
38.3605
20
-54.2016
11
38.6105
21
-54.2016
0
LINE
8
BLACK
6
CONTINUOUS
10
38.6105
20
-54.2016
11
38.7533
21
-54.2373
0
LINE
8
BLACK
6
CONTINUOUS
10
38.7533
20
-54.2373
11
38.8248
21
-54.3087
0
LINE
8
BLACK
6
CONTINUOUS
10
38.8248
20
-54.3087
11
38.8605
21
-54.3802
0
LINE
8
BLACK
6
CONTINUOUS
10
38.8605
20
-54.3802
11
38.8605
21
-54.523
0
LINE
8
BLACK
6
CONTINUOUS
10
38.8605
20
-54.523
11
38.8248
21
-54.5945
0
LINE
8
BLACK
6
CONTINUOUS
10
38.8248
20
-54.5945
11
38.7533
21
-54.6659
0
LINE
8
BLACK
6
CONTINUOUS
10
38.7533
20
-54.6659
11
38.6105
21
-54.7016
0
LINE
8
BLACK
6
CONTINUOUS
10
38.6105
20
-54.7016
11
38.3605
21
-54.7016
0
LINE
8
BLACK
6
CONTINUOUS
10
38.3605
20
-54.7016
11
38.2176
21
-54.6659
0
LINE
8
BLACK
6
CONTINUOUS
10
38.2176
20
-54.6659
11
38.1462
21
-54.5945
0
LINE
8
BLACK
6
CONTINUOUS
10
38.1462
20
-54.5945
11
38.1105
21
-54.523
0
LINE
8
BLACK
6
CONTINUOUS
10
35.7768
20
-56.2056
11
35.8125
21
-56.0985
0
LINE
8
BLACK
6
CONTINUOUS
10
35.8125
20
-56.0985
11
35.8125
21
-55.9199
0
LINE
8
BLACK
6
CONTINUOUS
10
35.8125
20
-55.9199
11
35.7768
21
-55.8485
0
LINE
8
BLACK
6
CONTINUOUS
10
35.7768
20
-55.8485
11
35.7411
21
-55.8127
0
LINE
8
BLACK
6
CONTINUOUS
10
35.7411
20
-55.8127
11
35.6696
21
-55.777
0
LINE
8
BLACK
6
CONTINUOUS
10
35.6696
20
-55.777
11
35.5982
21
-55.777
0
LINE
8
BLACK
6
CONTINUOUS
10
35.5982
20
-55.777
11
35.5268
21
-55.8127
0
LINE
8
BLACK
6
CONTINUOUS
10
35.5268
20
-55.8127
11
35.4911
21
-55.8485
0
LINE
8
BLACK
6
CONTINUOUS
10
35.4911
20
-55.8485
11
35.4553
21
-55.9199
0
LINE
8
BLACK
6
CONTINUOUS
10
35.4553
20
-55.9199
11
35.4196
21
-56.0627
0
LINE
8
BLACK
6
CONTINUOUS
10
35.4196
20
-56.0627
11
35.3839
21
-56.1342
0
LINE
8
BLACK
6
CONTINUOUS
10
35.3839
20
-56.1342
11
35.3482
21
-56.1699
0
LINE
8
BLACK
6
CONTINUOUS
10
35.3482
20
-56.1699
11
35.2768
21
-56.2056
0
LINE
8
BLACK
6
CONTINUOUS
10
35.2768
20
-56.2056
11
35.2053
21
-56.2056
0
LINE
8
BLACK
6
CONTINUOUS
10
35.2053
20
-56.2056
11
35.1339
21
-56.1699
0
LINE
8
BLACK
6
CONTINUOUS
10
35.1339
20
-56.1699
11
35.0982
21
-56.1342
0
LINE
8
BLACK
6
CONTINUOUS
10
35.0982
20
-56.1342
11
35.0625
21
-56.0627
0
LINE
8
BLACK
6
CONTINUOUS
10
35.0625
20
-56.0627
11
35.0625
21
-55.8842
0
LINE
8
BLACK
6
CONTINUOUS
10
35.0625
20
-55.8842
11
35.0982
21
-55.777
0
LINE
8
BLACK
6
CONTINUOUS
10
35.8125
20
-55.4556
11
35.0625
21
-55.4556
0
LINE
8
BLACK
6
CONTINUOUS
10
35.0625
20
-55.4556
11
35.0625
21
-55.277
0
LINE
8
BLACK
6
CONTINUOUS
10
35.0625
20
-55.277
11
35.0982
21
-55.1699
0
LINE
8
BLACK
6
CONTINUOUS
10
35.0982
20
-55.1699
11
35.1696
21
-55.0985
0
LINE
8
BLACK
6
CONTINUOUS
10
35.1696
20
-55.0985
11
35.2411
21
-55.0627
0
LINE
8
BLACK
6
CONTINUOUS
10
35.2411
20
-55.0627
11
35.3839
21
-55.027
0
LINE
8
BLACK
6
CONTINUOUS
10
35.3839
20
-55.027
11
35.4911
21
-55.027
0
LINE
8
BLACK
6
CONTINUOUS
10
35.4911
20
-55.027
11
35.6339
21
-55.0627
0
LINE
8
BLACK
6
CONTINUOUS
10
35.6339
20
-55.0627
11
35.7053
21
-55.0985
0
LINE
8
BLACK
6
CONTINUOUS
10
35.7053
20
-55.0985
11
35.7768
21
-55.1699
0
LINE
8
BLACK
6
CONTINUOUS
10
35.7768
20
-55.1699
11
35.8125
21
-55.277
0
LINE
8
BLACK
6
CONTINUOUS
10
35.8125
20
-55.277
11
35.8125
21
-55.4556
0
LINE
8
BLACK
6
CONTINUOUS
10
35.8125
20
-54.7056
11
35.0625
21
-54.7056
0
LINE
8
BLACK
6
CONTINUOUS
10
33.2368
20
-56.148
11
33.2725
21
-56.0409
0
LINE
8
BLACK
6
CONTINUOUS
10
33.2725
20
-56.0409
11
33.2725
21
-55.8623
0
LINE
8
BLACK
6
CONTINUOUS
10
33.2725
20
-55.8623
11
33.2368
21
-55.7909
0
LINE
8
BLACK
6
CONTINUOUS
10
33.2368
20
-55.7909
11
33.2011
21
-55.7552
0
LINE
8
BLACK
6
CONTINUOUS
10
33.2011
20
-55.7552
11
33.1296
21
-55.7195
0
LINE
8
BLACK
6
CONTINUOUS
10
33.1296
20
-55.7195
11
33.0582
21
-55.7195
0
LINE
8
BLACK
6
CONTINUOUS
10
33.0582
20
-55.7195
11
32.9868
21
-55.7552
0
LINE
8
BLACK
6
CONTINUOUS
10
32.9868
20
-55.7552
11
32.9511
21
-55.7909
0
LINE
8
BLACK
6
CONTINUOUS
10
32.9511
20
-55.7909
11
32.9153
21
-55.8623
0
LINE
8
BLACK
6
CONTINUOUS
10
32.9153
20
-55.8623
11
32.8796
21
-56.0052
0
LINE
8
BLACK
6
CONTINUOUS
10
32.8796
20
-56.0052
11
32.8439
21
-56.0766
0
LINE
8
BLACK
6
CONTINUOUS
10
32.8439
20
-56.0766
11
32.8082
21
-56.1123
0
LINE
8
BLACK
6
CONTINUOUS
10
32.8082
20
-56.1123
11
32.7368
21
-56.148
0
LINE
8
BLACK
6
CONTINUOUS
10
32.7368
20
-56.148
11
32.6653
21
-56.148
0
LINE
8
BLACK
6
CONTINUOUS
10
32.6653
20
-56.148
11
32.5939
21
-56.1123
0
LINE
8
BLACK
6
CONTINUOUS
10
32.5939
20
-56.1123
11
32.5582
21
-56.0766
0
LINE
8
BLACK
6
CONTINUOUS
10
32.5582
20
-56.0766
11
32.5225
21
-56.0052
0
LINE
8
BLACK
6
CONTINUOUS
10
32.5225
20
-56.0052
11
32.5225
21
-55.8266
0
LINE
8
BLACK
6
CONTINUOUS
10
32.5225
20
-55.8266
11
32.5582
21
-55.7195
0
LINE
8
BLACK
6
CONTINUOUS
10
33.2011
20
-54.9695
11
33.2368
21
-55.0052
0
LINE
8
BLACK
6
CONTINUOUS
10
33.2368
20
-55.0052
11
33.2725
21
-55.1123
0
LINE
8
BLACK
6
CONTINUOUS
10
33.2725
20
-55.1123
11
33.2725
21
-55.1837
0
LINE
8
BLACK
6
CONTINUOUS
10
33.2725
20
-55.1837
11
33.2368
21
-55.2909
0
LINE
8
BLACK
6
CONTINUOUS
10
33.2368
20
-55.2909
11
33.1653
21
-55.3623
0
LINE
8
BLACK
6
CONTINUOUS
10
33.1653
20
-55.3623
11
33.0939
21
-55.398
0
LINE
8
BLACK
6
CONTINUOUS
10
33.0939
20
-55.398
11
32.9511
21
-55.4337
0
LINE
8
BLACK
6
CONTINUOUS
10
32.9511
20
-55.4337
11
32.8439
21
-55.4337
0
LINE
8
BLACK
6
CONTINUOUS
10
32.8439
20
-55.4337
11
32.7011
21
-55.398
0
LINE
8
BLACK
6
CONTINUOUS
10
32.7011
20
-55.398
11
32.6296
21
-55.3623
0
LINE
8
BLACK
6
CONTINUOUS
10
32.6296
20
-55.3623
11
32.5582
21
-55.2909
0
LINE
8
BLACK
6
CONTINUOUS
10
32.5582
20
-55.2909
11
32.5225
21
-55.1837
0
LINE
8
BLACK
6
CONTINUOUS
10
32.5225
20
-55.1837
11
32.5225
21
-55.1123
0
LINE
8
BLACK
6
CONTINUOUS
10
32.5225
20
-55.1123
11
32.5582
21
-55.0052
0
LINE
8
BLACK
6
CONTINUOUS
10
32.5582
20
-55.0052
11
32.5939
21
-54.9695
0
LINE
8
BLACK
6
CONTINUOUS
10
33.2725
20
-54.648
11
32.5225
21
-54.648
0
LINE
8
BLACK
6
CONTINUOUS
10
33.2725
20
-54.2195
11
32.8439
21
-54.5409
0
LINE
8
BLACK
6
CONTINUOUS
10
32.5225
20
-54.2195
11
32.9511
21
-54.648
0
LINE
8
BLACK
6
CONTINUOUS
10
30.4071
20
-55.648
11
30.4428
21
-55.6837
0
LINE
8
BLACK
6
CONTINUOUS
10
30.4428
20
-55.6837
11
30.4785
21
-55.7909
0
LINE
8
BLACK
6
CONTINUOUS
10
30.4785
20
-55.7909
11
30.4785
21
-55.8623
0
LINE
8
BLACK
6
CONTINUOUS
10
30.4785
20
-55.8623
11
30.4428
21
-55.9695
0
LINE
8
BLACK
6
CONTINUOUS
10
30.4428
20
-55.9695
11
30.3713
21
-56.0409
0
LINE
8
BLACK
6
CONTINUOUS
10
30.3713
20
-56.0409
11
30.2999
21
-56.0766
0
LINE
8
BLACK
6
CONTINUOUS
10
30.2999
20
-56.0766
11
30.1571
21
-56.1123
0
LINE
8
BLACK
6
CONTINUOUS
10
30.1571
20
-56.1123
11
30.0499
21
-56.1123
0
LINE
8
BLACK
6
CONTINUOUS
10
30.0499
20
-56.1123
11
29.9071
21
-56.0766
0
LINE
8
BLACK
6
CONTINUOUS
10
29.9071
20
-56.0766
11
29.8356
21
-56.0409
0
LINE
8
BLACK
6
CONTINUOUS
10
29.8356
20
-56.0409
11
29.7642
21
-55.9695
0
LINE
8
BLACK
6
CONTINUOUS
10
29.7642
20
-55.9695
11
29.7285
21
-55.8623
0
LINE
8
BLACK
6
CONTINUOUS
10
29.7285
20
-55.8623
11
29.7285
21
-55.7909
0
LINE
8
BLACK
6
CONTINUOUS
10
29.7285
20
-55.7909
11
29.7642
21
-55.6837
0
LINE
8
BLACK
6
CONTINUOUS
10
29.7642
20
-55.6837
11
29.7999
21
-55.648
0
LINE
8
BLACK
6
CONTINUOUS
10
30.4428
20
-55.3623
11
30.4785
21
-55.2552
0
LINE
8
BLACK
6
CONTINUOUS
10
30.4785
20
-55.2552
11
30.4785
21
-55.0766
0
LINE
8
BLACK
6
CONTINUOUS
10
30.4785
20
-55.0766
11
30.4428
21
-55.0052
0
LINE
8
BLACK
6
CONTINUOUS
10
30.4428
20
-55.0052
11
30.4071
21
-54.9695
0
LINE
8
BLACK
6
CONTINUOUS
10
30.4071
20
-54.9695
11
30.3356
21
-54.9337
0
LINE
8
BLACK
6
CONTINUOUS
10
30.3356
20
-54.9337
11
30.2642
21
-54.9337
0
LINE
8
BLACK
6
CONTINUOUS
10
30.2642
20
-54.9337
11
30.1928
21
-54.9695
0
LINE
8
BLACK
6
CONTINUOUS
10
30.1928
20
-54.9695
11
30.1571
21
-55.0052
0
LINE
8
BLACK
6
CONTINUOUS
10
30.1571
20
-55.0052
11
30.1213
21
-55.0766
0
LINE
8
BLACK
6
CONTINUOUS
10
30.1213
20
-55.0766
11
30.0856
21
-55.2195
0
LINE
8
BLACK
6
CONTINUOUS
10
30.0856
20
-55.2195
11
30.0499
21
-55.2909
0
LINE
8
BLACK
6
CONTINUOUS
10
30.0499
20
-55.2909
11
30.0142
21
-55.3266
0
LINE
8
BLACK
6
CONTINUOUS
10
30.0142
20
-55.3266
11
29.9428
21
-55.3623
0
LINE
8
BLACK
6
CONTINUOUS
10
29.9428
20
-55.3623
11
29.8713
21
-55.3623
0
LINE
8
BLACK
6
CONTINUOUS
10
29.8713
20
-55.3623
11
29.7999
21
-55.3266
0
LINE
8
BLACK
6
CONTINUOUS
10
29.7999
20
-55.3266
11
29.7642
21
-55.2909
0
LINE
8
BLACK
6
CONTINUOUS
10
29.7642
20
-55.2909
11
29.7285
21
-55.2195
0
LINE
8
BLACK
6
CONTINUOUS
10
29.7285
20
-55.2195
11
29.7285
21
-55.0409
0
LINE
8
BLACK
6
CONTINUOUS
10
29.7285
20
-55.0409
11
29.7642
21
-54.9337
0
LINE
8
BLACK
6
CONTINUOUS
10
29.9785
20
-54.6123
11
30.4785
21
-54.6123
0
LINE
8
BLACK
6
CONTINUOUS
10
30.0499
20
-54.6123
11
30.0142
21
-54.5766
0
LINE
8
BLACK
6
CONTINUOUS
10
30.0142
20
-54.5766
11
29.9785
21
-54.5052
0
LINE
8
BLACK
6
CONTINUOUS
10
29.9785
20
-54.5052
11
29.9785
21
-54.398
0
LINE
8
BLACK
6
CONTINUOUS
10
29.9785
20
-54.398
11
30.0142
21
-54.3266
0
LINE
8
BLACK
6
CONTINUOUS
10
30.0142
20
-54.3266
11
30.0856
21
-54.2909
0
LINE
8
BLACK
6
CONTINUOUS
10
30.0856
20
-54.2909
11
30.4785
21
-54.2909
0
LINE
8
BLACK
6
CONTINUOUS
10
22.7732
20
-17.3377
11
22.7732
21
-71.9477
0
LINE
8
BLACK
6
CONTINUOUS
10
82.4632
20
-17.3377
11
22.7732
21
-17.3377
0
LINE
8
BLACK
6
CONTINUOUS
10
82.4632
20
-71.9477
11
82.4632
21
-17.3377
0
LINE
8
BLACK
6
CONTINUOUS
10
22.7732
20
-71.9477
11
82.4632
21
-71.9477
0
LINE
8
BLACK
6
CONTINUOUS
10
55.7932
20
-57.9177
11
57.1232
21
-57.9177
0
LINE
8
BLACK
6
CONTINUOUS
10
57.1232
20
-57.9177
11
57.1232
21
-59.2477
0
LINE
8
BLACK
6
CONTINUOUS
10
57.1232
20
-60.4577
11
57.1232
21
-60.5777
0
LINE
8
BLACK
6
CONTINUOUS
10
54.4632
20
-60.4577
11
54.4632
21
-60.5777
0
LINE
8
BLACK
6
CONTINUOUS
10
54.4632
20
-60.5777
11
57.1232
21
-60.5777
0
LINE
8
BLACK
6
CONTINUOUS
10
50.7132
20
-57.9177
11
52.0432
21
-57.9177
0
LINE
8
BLACK
6
CONTINUOUS
10
52.0432
20
-57.9177
11
52.0432
21
-59.2477
0
LINE
8
BLACK
6
CONTINUOUS
10
52.0432
20
-60.4577
11
52.0432
21
-60.5777
0
LINE
8
BLACK
6
CONTINUOUS
10
49.3832
20
-60.4577
11
49.3832
21
-60.5777
0
LINE
8
BLACK
6
CONTINUOUS
10
49.3832
20
-60.5777
11
52.0432
21
-60.5777
0
LINE
8
BLACK
6
CONTINUOUS
10
48.1732
20
-57.9177
11
49.5032
21
-57.9177
0
LINE
8
BLACK
6
CONTINUOUS
10
49.5032
20
-57.9177
11
49.5032
21
-59.2477
0
LINE
8
BLACK
6
CONTINUOUS
10
49.5032
20
-60.4577
11
49.5032
21
-60.5777
0
LINE
8
BLACK
6
CONTINUOUS
10
46.8432
20
-60.4577
11
46.8432
21
-60.5777
0
LINE
8
BLACK
6
CONTINUOUS
10
46.8432
20
-60.5777
11
49.5032
21
-60.5777
0
LINE
8
BLACK
6
CONTINUOUS
10
45.6332
20
-57.9177
11
46.9632
21
-57.9177
0
LINE
8
BLACK
6
CONTINUOUS
10
46.9632
20
-57.9177
11
46.9632
21
-59.2477
0
LINE
8
BLACK
6
CONTINUOUS
10
46.9632
20
-60.4577
11
46.9632
21
-60.5777
0
LINE
8
BLACK
6
CONTINUOUS
10
44.3032
20
-60.4577
11
44.3032
21
-60.5777
0
LINE
8
BLACK
6
CONTINUOUS
10
44.3032
20
-60.5777
11
46.9632
21
-60.5777
0
LINE
8
BLACK
6
CONTINUOUS
10
31.8332
20
-50.2977
11
31.8332
21
-52.9577
0
LINE
8
BLACK
6
CONTINUOUS
10
31.8332
20
-52.9577
11
34.4932
21
-52.9577
0
LINE
8
BLACK
6
CONTINUOUS
10
34.4932
20
-52.9577
11
34.4932
21
-50.2977
0
LINE
8
BLACK
6
CONTINUOUS
10
34.4932
20
-50.2977
11
31.8332
21
-50.2977
0
LINE
8
BLACK
6
CONTINUOUS
10
34.4932
20
-51.2477
11
40.4932
21
-51.2477
0
LINE
8
BLACK
6
CONTINUOUS
10
40.4932
20
-51.2477
11
40.4932
21
-52.0077
0
LINE
8
BLACK
6
CONTINUOUS
10
40.4932
20
-52.0077
11
34.4932
21
-52.0077
0
LINE
8
BLACK
6
CONTINUOUS
10
34.4932
20
-51.3077
11
40.4932
21
-51.3077
0
LINE
8
BLACK
6
CONTINUOUS
10
34.4932
20
-51.4277
11
40.4932
21
-51.4277
0
LINE
8
BLACK
6
CONTINUOUS
10
34.4932
20
-51.5477
11
40.4932
21
-51.5477
0
LINE
8
BLACK
6
CONTINUOUS
10
34.4932
20
-51.6677
11
40.4932
21
-51.6677
0
LINE
8
BLACK
6
CONTINUOUS
10
34.4932
20
-51.7877
11
40.4932
21
-51.7877
0
LINE
8
BLACK
6
CONTINUOUS
10
34.4932
20
-51.9077
11
40.4932
21
-51.9077
0
LINE
8
BLACK
6
CONTINUOUS
10
31.5032
20
-51.2477
11
31.8332
21
-51.2477
0
LINE
8
BLACK
6
CONTINUOUS
10
31.5032
20
-52.0077
11
31.8332
21
-52.0077
0
LINE
8
BLACK
6
CONTINUOUS
10
29.1232
20
-51.6277
11
29.1232
21
-50.3577
0
LINE
8
BLACK
6
CONTINUOUS
10
29.1232
20
-50.3577
11
30.3932
21
-50.3577
0
LINE
8
BLACK
6
CONTINUOUS
10
31.6632
20
-60.5777
11
31.6632
21
-57.9177
0
LINE
8
BLACK
6
CONTINUOUS
10
31.6632
20
-60.5777
11
39.3432
21
-60.5777
0
LINE
8
BLACK
6
CONTINUOUS
10
39.3432
20
-60.5777
11
39.3432
21
-57.9177
0
LINE
8
BLACK
6
CONTINUOUS
10
31.6632
20
-57.9177
11
39.3432
21
-57.9177
0
LINE
8
BLACK
6
CONTINUOUS
10
29.0632
20
-57.9177
11
30.3932
21
-57.9177
0
LINE
8
BLACK
6
CONTINUOUS
10
29.0632
20
-59.2477
11
29.0632
21
-57.9177
0
LINE
8
BLACK
6
CONTINUOUS
10
50.7131
20
-63.0577
11
50.7131
21
-70.6777
0
LINE
8
BLACK
6
CONTINUOUS
10
81.1931
20
-70.6777
11
81.1931
21
-63.0577
0
LINE
8
BLACK
6
CONTINUOUS
10
50.7131
20
-69.4077
11
81.1931
21
-69.4077
0
LINE
8
BLACK
6
CONTINUOUS
10
50.7131
20
-63.0577
11
81.1931
21
-63.0577
0
LINE
8
BLACK
6
CONTINUOUS
10
50.7131
20
-70.6777
11
81.1931
21
-70.6777
0
LINE
8
BLACK
6
CONTINUOUS
10
35.4732
20
-70.6777
11
35.4732
21
-63.0577
0
LINE
8
BLACK
6
CONTINUOUS
10
50.7132
20
-70.6777
11
50.7132
21
-63.0577
0
LINE
8
BLACK
6
CONTINUOUS
10
35.4732
20
-69.4077
11
50.7132
21
-69.4077
0
LINE
8
BLACK
6
CONTINUOUS
10
35.4732
20
-63.0577
11
50.7132
21
-63.0577
0
LINE
8
BLACK
6
CONTINUOUS
10
35.4732
20
-70.6777
11
50.7132
21
-70.6777
0
LINE
8
BLACK
6
CONTINUOUS
10
35.4732
20
-69.4077
11
25.3132
21
-69.4077
0
LINE
8
BLACK
6
CONTINUOUS
10
35.4732
20
-70.6777
11
35.4732
21
-63.0577
0
LINE
8
BLACK
6
CONTINUOUS
10
35.4732
20
-63.0577
11
25.3132
21
-63.0577
0
LINE
8
BLACK
6
CONTINUOUS
10
25.3132
20
-63.0577
11
25.3132
21
-70.6777
0
LINE
8
BLACK
6
CONTINUOUS
10
25.3132
20
-70.6777
11
35.4732
21
-70.6777
0
LINE
8
BLACK
6
CONTINUOUS
10
54.4632
20
-23.6877
11
54.4632
21
-22.3577
0
LINE
8
BLACK
6
CONTINUOUS
10
54.4632
20
-22.3577
11
55.7932
21
-22.3577
0
LINE
8
BLACK
6
CONTINUOUS
10
57.0632
20
-22.3577
11
64.7432
21
-22.3577
0
LINE
8
BLACK
6
CONTINUOUS
10
64.7432
20
-25.0177
11
64.7432
21
-22.3577
0
LINE
8
BLACK
6
CONTINUOUS
10
57.0632
20
-25.0177
11
64.7432
21
-25.0177
0
LINE
8
BLACK
6
CONTINUOUS
10
57.0632
20
-25.0177
11
57.0632
21
-22.3577
0
LINE
8
BLACK
6
CONTINUOUS
10
64.6232
20
-23.6877
11
64.6232
21
-22.3577
0
LINE
8
BLACK
6
CONTINUOUS
10
64.6232
20
-22.3577
11
65.9532
21
-22.3577
0
LINE
8
BLACK
6
CONTINUOUS
10
67.2232
20
-22.3577
11
69.8232
21
-22.3577
0
LINE
8
BLACK
6
CONTINUOUS
10
69.8232
20
-25.0177
11
69.8232
21
-22.3577
0
LINE
8
BLACK
6
CONTINUOUS
10
67.2232
20
-25.0177
11
69.8232
21
-25.0177
0
LINE
8
BLACK
6
CONTINUOUS
10
67.2232
20
-25.0177
11
67.2232
21
-22.3577
0
LINE
8
BLACK
6
CONTINUOUS
10
46.9032
20
-25.0177
11
46.9032
21
-22.3577
0
LINE
8
BLACK
6
CONTINUOUS
10
46.9032
20
-25.0177
11
54.5832
21
-25.0177
0
LINE
8
BLACK
6
CONTINUOUS
10
54.5832
20
-25.0177
11
54.5832
21
-22.3577
0
LINE
8
BLACK
6
CONTINUOUS
10
46.9032
20
-22.3577
11
54.5832
21
-22.3577
0
LINE
8
BLACK
6
CONTINUOUS
10
44.3032
20
-22.3577
11
45.6332
21
-22.3577
0
LINE
8
BLACK
6
CONTINUOUS
10
44.3032
20
-23.6877
11
44.3032
21
-22.3577
0
LINE
8
BLACK
6
CONTINUOUS
10
54.5832
20
-59.2477
11
54.5832
21
-60.5777
0
LINE
8
BLACK
6
CONTINUOUS
10
54.5832
20
-60.5777
11
53.2532
21
-60.5777
0
LINE
8
BLACK
6
CONTINUOUS
10
52.0432
20
-60.5777
11
51.9232
21
-60.5777
0
LINE
8
BLACK
6
CONTINUOUS
10
52.0432
20
-57.9177
11
51.9232
21
-57.9177
0
LINE
8
BLACK
6
CONTINUOUS
10
51.9232
20
-57.9177
11
51.9232
21
-60.5777
0
LINE
8
BLACK
6
CONTINUOUS
10
57.0032
20
-57.9177
11
57.0032
21
-60.5777
0
LINE
8
BLACK
6
CONTINUOUS
10
57.1232
20
-57.9177
11
57.0032
21
-57.9177
0
LINE
8
BLACK
6
CONTINUOUS
10
57.1232
20
-60.5777
11
57.0032
21
-60.5777
0
LINE
8
BLACK
6
CONTINUOUS
10
59.6632
20
-60.5777
11
58.3332
21
-60.5777
0
LINE
8
BLACK
6
CONTINUOUS
10
59.6632
20
-59.2477
11
59.6632
21
-60.5777
0
LINE
8
BLACK
6
CONTINUOUS
10
67.2232
20
-60.5777
11
67.2232
21
-57.9177
0
LINE
8
BLACK
6
CONTINUOUS
10
67.2232
20
-60.5777
11
69.8232
21
-60.5777
0
LINE
8
BLACK
6
CONTINUOUS
10
69.8232
20
-60.5777
11
69.8232
21
-57.9177
0
LINE
8
BLACK
6
CONTINUOUS
10
67.2232
20
-57.9177
11
69.8232
21
-57.9177
0
LINE
8
BLACK
6
CONTINUOUS
10
64.6232
20
-57.9177
11
65.9532
21
-57.9177
0
LINE
8
BLACK
6
CONTINUOUS
10
64.6232
20
-59.2477
11
64.6232
21
-57.9177
0
LINE
8
BLACK
6
CONTINUOUS
10
59.5432
20
-59.2477
11
59.5432
21
-57.9177
0
LINE
8
BLACK
6
CONTINUOUS
10
59.5432
20
-57.9177
11
60.8732
21
-57.9177
0
LINE
8
BLACK
6
CONTINUOUS
10
62.1432
20
-57.9177
11
64.7432
21
-57.9177
0
LINE
8
BLACK
6
CONTINUOUS
10
64.7432
20
-60.5777
11
64.7432
21
-57.9177
0
LINE
8
BLACK
6
CONTINUOUS
10
62.1432
20
-60.5777
11
64.7432
21
-60.5777
0
LINE
8
BLACK
6
CONTINUOUS
10
62.1432
20
-60.5777
11
62.1432
21
-57.9177
0
LINE
8
BLACK
6
CONTINUOUS
10
69.7032
20
-23.6877
11
69.7032
21
-22.3577
0
LINE
8
BLACK
6
CONTINUOUS
10
69.7032
20
-22.3577
11
71.0332
21
-22.3577
0
LINE
8
BLACK
6
CONTINUOUS
10
72.3032
20
-22.3577
11
74.9032
21
-22.3577
0
LINE
8
BLACK
6
CONTINUOUS
10
74.9032
20
-25.0177
11
74.9032
21
-22.3577
0
LINE
8
BLACK
6
CONTINUOUS
10
72.3032
20
-25.0177
11
74.9032
21
-25.0177
0
LINE
8
BLACK
6
CONTINUOUS
10
72.3032
20
-25.0177
11
72.3032
21
-22.3577
0
LINE
8
BLACK
6
CONTINUOUS
10
72.3032
20
-60.5777
11
72.3032
21
-57.9177
0
LINE
8
BLACK
6
CONTINUOUS
10
72.3032
20
-60.5777
11
74.9032
21
-60.5777
0
LINE
8
BLACK
6
CONTINUOUS
10
74.9032
20
-60.5777
11
74.9032
21
-57.9177
0
LINE
8
BLACK
6
CONTINUOUS
10
72.3032
20
-57.9177
11
74.9032
21
-57.9177
0
LINE
8
BLACK
6
CONTINUOUS
10
69.7032
20
-57.9177
11
71.0332
21
-57.9177
0
LINE
8
BLACK
6
CONTINUOUS
10
69.7032
20
-59.2477
11
69.7032
21
-57.9177
0
LINE
8
BLACK
6
CONTINUOUS
10
30.8219
20
-48.0321
11
30.8219
21
-48.7464
0
LINE
8
BLACK
6
CONTINUOUS
10
30.8219
20
-48.7464
11
30.7742
21
-48.8893
0
LINE
8
BLACK
6
CONTINUOUS
10
30.7742
20
-48.8893
11
30.679
21
-48.9845
0
LINE
8
BLACK
6
CONTINUOUS
10
30.679
20
-48.9845
11
30.5362
21
-49.0321
0
LINE
8
BLACK
6
CONTINUOUS
10
30.5362
20
-49.0321
11
30.4409
21
-49.0321
0
LINE
8
BLACK
6
CONTINUOUS
10
31.7742
20
-48.0321
11
31.2981
21
-48.0321
0
LINE
8
BLACK
6
CONTINUOUS
10
31.2981
20
-48.0321
11
31.2504
21
-48.5083
0
LINE
8
BLACK
6
CONTINUOUS
10
31.2504
20
-48.5083
11
31.2981
21
-48.4607
0
LINE
8
BLACK
6
CONTINUOUS
10
31.2981
20
-48.4607
11
31.3933
21
-48.4131
0
LINE
8
BLACK
6
CONTINUOUS
10
31.3933
20
-48.4131
11
31.6314
21
-48.4131
0
LINE
8
BLACK
6
CONTINUOUS
10
31.6314
20
-48.4131
11
31.7266
21
-48.4607
0
LINE
8
BLACK
6
CONTINUOUS
10
31.7266
20
-48.4607
11
31.7742
21
-48.5083
0
LINE
8
BLACK
6
CONTINUOUS
10
31.7742
20
-48.5083
11
31.8219
21
-48.6035
0
LINE
8
BLACK
6
CONTINUOUS
10
31.8219
20
-48.6035
11
31.8219
21
-48.8416
0
LINE
8
BLACK
6
CONTINUOUS
10
31.8219
20
-48.8416
11
31.7742
21
-48.9369
0
LINE
8
BLACK
6
CONTINUOUS
10
31.7742
20
-48.9369
11
31.7266
21
-48.9845
0
LINE
8
BLACK
6
CONTINUOUS
10
31.7266
20
-48.9845
11
31.6314
21
-49.0321
0
LINE
8
BLACK
6
CONTINUOUS
10
31.6314
20
-49.0321
11
31.3933
21
-49.0321
0
LINE
8
BLACK
6
CONTINUOUS
10
31.3933
20
-49.0321
11
31.2981
21
-48.9845
0
LINE
8
BLACK
6
CONTINUOUS
10
31.2981
20
-48.9845
11
31.2504
21
-48.9369
0
LINE
8
BLACK
6
CONTINUOUS
10
25.7816
20
-57.8031
11
26.4959
21
-57.8031
0
LINE
8
BLACK
6
CONTINUOUS
10
26.4959
20
-57.8031
11
26.6387
21
-57.8507
0
LINE
8
BLACK
6
CONTINUOUS
10
26.6387
20
-57.8507
11
26.734
21
-57.9459
0
LINE
8
BLACK
6
CONTINUOUS
10
26.734
20
-57.9459
11
26.7816
21
-58.0888
0
LINE
8
BLACK
6
CONTINUOUS
10
26.7816
20
-58.0888
11
26.7816
21
-58.184
0
LINE
8
BLACK
6
CONTINUOUS
10
26.1149
20
-56.8983
11
26.7816
21
-56.8983
0
LINE
8
BLACK
6
CONTINUOUS
10
25.734
20
-57.1364
11
26.4482
21
-57.3745
0
LINE
8
BLACK
6
CONTINUOUS
10
26.4482
20
-57.3745
11
26.4482
21
-56.7555
0
LINE
8
BLACK
6
CONTINUOUS
10
52.9198
20
-63.5261
11
52.9198
21
-64.2404
0
LINE
8
BLACK
6
CONTINUOUS
10
52.9198
20
-64.2404
11
52.8721
21
-64.3832
0
LINE
8
BLACK
6
CONTINUOUS
10
52.8721
20
-64.3832
11
52.7769
21
-64.4785
0
LINE
8
BLACK
6
CONTINUOUS
10
52.7769
20
-64.4785
11
52.6341
21
-64.5261
0
LINE
8
BLACK
6
CONTINUOUS
10
52.6341
20
-64.5261
11
52.5388
21
-64.5261
0
LINE
8
BLACK
6
CONTINUOUS
10
53.3007
20
-63.5261
11
53.9198
21
-63.5261
0
LINE
8
BLACK
6
CONTINUOUS
10
53.9198
20
-63.5261
11
53.5864
21
-63.907
0
LINE
8
BLACK
6
CONTINUOUS
10
53.5864
20
-63.907
11
53.7293
21
-63.907
0
LINE
8
BLACK
6
CONTINUOUS
10
53.7293
20
-63.907
11
53.8245
21
-63.9547
0
LINE
8
BLACK
6
CONTINUOUS
10
53.8245
20
-63.9547
11
53.8721
21
-64.0023
0
LINE
8
BLACK
6
CONTINUOUS
10
53.8721
20
-64.0023
11
53.9198
21
-64.0975
0
LINE
8
BLACK
6
CONTINUOUS
10
53.9198
20
-64.0975
11
53.9198
21
-64.3356
0
LINE
8
BLACK
6
CONTINUOUS
10
53.9198
20
-64.3356
11
53.8721
21
-64.4308
0
LINE
8
BLACK
6
CONTINUOUS
10
53.8721
20
-64.4308
11
53.8245
21
-64.4785
0
LINE
8
BLACK
6
CONTINUOUS
10
53.8245
20
-64.4785
11
53.7293
21
-64.5261
0
LINE
8
BLACK
6
CONTINUOUS
10
53.7293
20
-64.5261
11
53.4436
21
-64.5261
0
LINE
8
BLACK
6
CONTINUOUS
10
53.4436
20
-64.5261
11
53.3483
21
-64.4785
0
LINE
8
BLACK
6
CONTINUOUS
10
53.3483
20
-64.4785
11
53.3007
21
-64.4308
0
LINE
8
BLACK
6
CONTINUOUS
10
37.6799
20
-63.5261
11
37.6799
21
-64.2404
0
LINE
8
BLACK
6
CONTINUOUS
10
37.6799
20
-64.2404
11
37.6322
21
-64.3832
0
LINE
8
BLACK
6
CONTINUOUS
10
37.6322
20
-64.3832
11
37.537
21
-64.4785
0
LINE
8
BLACK
6
CONTINUOUS
10
37.537
20
-64.4785
11
37.3942
21
-64.5261
0
LINE
8
BLACK
6
CONTINUOUS
10
37.3942
20
-64.5261
11
37.2989
21
-64.5261
0
LINE
8
BLACK
6
CONTINUOUS
10
38.1084
20
-63.6213
11
38.1561
21
-63.5737
0
LINE
8
BLACK
6
CONTINUOUS
10
38.1561
20
-63.5737
11
38.2513
21
-63.5261
0
LINE
8
BLACK
6
CONTINUOUS
10
38.2513
20
-63.5261
11
38.4894
21
-63.5261
0
LINE
8
BLACK
6
CONTINUOUS
10
38.4894
20
-63.5261
11
38.5846
21
-63.5737
0
LINE
8
BLACK
6
CONTINUOUS
10
38.5846
20
-63.5737
11
38.6322
21
-63.6213
0
LINE
8
BLACK
6
CONTINUOUS
10
38.6322
20
-63.6213
11
38.6799
21
-63.7166
0
LINE
8
BLACK
6
CONTINUOUS
10
38.6799
20
-63.7166
11
38.6799
21
-63.8118
0
LINE
8
BLACK
6
CONTINUOUS
10
38.6799
20
-63.8118
11
38.6322
21
-63.9547
0
LINE
8
BLACK
6
CONTINUOUS
10
38.6322
20
-63.9547
11
38.0608
21
-64.5261
0
LINE
8
BLACK
6
CONTINUOUS
10
38.0608
20
-64.5261
11
38.6799
21
-64.5261
0
LINE
8
BLACK
6
CONTINUOUS
10
27.5199
20
-63.5261
11
27.5199
21
-64.2404
0
LINE
8
BLACK
6
CONTINUOUS
10
27.5199
20
-64.2404
11
27.4722
21
-64.3832
0
LINE
8
BLACK
6
CONTINUOUS
10
27.4722
20
-64.3832
11
27.377
21
-64.4785
0
LINE
8
BLACK
6
CONTINUOUS
10
27.377
20
-64.4785
11
27.2342
21
-64.5261
0
LINE
8
BLACK
6
CONTINUOUS
10
27.2342
20
-64.5261
11
27.1389
21
-64.5261
0
LINE
8
BLACK
6
CONTINUOUS
10
28.5199
20
-64.5261
11
27.9484
21
-64.5261
0
LINE
8
BLACK
6
CONTINUOUS
10
28.2342
20
-64.5261
11
28.2342
21
-63.5261
0
LINE
8
BLACK
6
CONTINUOUS
10
28.2342
20
-63.5261
11
28.1389
21
-63.6689
0
LINE
8
BLACK
6
CONTINUOUS
10
28.1389
20
-63.6689
11
28.0437
21
-63.7642
0
LINE
8
BLACK
6
CONTINUOUS
10
28.0437
20
-63.7642
11
27.9484
21
-63.8118
0
LINE
8
BLACK
6
CONTINUOUS
10
56.4748
20
-24.4258
11
55.4748
21
-24.4258
0
LINE
8
BLACK
6
CONTINUOUS
10
55.4748
20
-24.4258
11
55.4748
21
-24.0448
0
LINE
8
BLACK
6
CONTINUOUS
10
55.4748
20
-24.0448
11
55.5224
21
-23.9496
0
LINE
8
BLACK
6
CONTINUOUS
10
55.5224
20
-23.9496
11
55.57
21
-23.902
0
LINE
8
BLACK
6
CONTINUOUS
10
55.57
20
-23.902
11
55.6653
21
-23.8544
0
LINE
8
BLACK
6
CONTINUOUS
10
55.6653
20
-23.8544
11
55.8081
21
-23.8544
0
LINE
8
BLACK
6
CONTINUOUS
10
55.8081
20
-23.8544
11
55.9034
21
-23.902
0
LINE
8
BLACK
6
CONTINUOUS
10
55.9034
20
-23.902
11
55.951
21
-23.9496
0
LINE
8
BLACK
6
CONTINUOUS
10
55.951
20
-23.9496
11
55.9986
21
-24.0448
0
LINE
8
BLACK
6
CONTINUOUS
10
55.9986
20
-24.0448
11
55.9986
21
-24.4258
0
LINE
8
BLACK
6
CONTINUOUS
10
56.4748
20
-22.902
11
56.4748
21
-23.4734
0
LINE
8
BLACK
6
CONTINUOUS
10
56.4748
20
-23.1877
11
55.4748
21
-23.1877
0
LINE
8
BLACK
6
CONTINUOUS
10
55.4748
20
-23.1877
11
55.6177
21
-23.2829
0
LINE
8
BLACK
6
CONTINUOUS
10
55.6177
20
-23.2829
11
55.7129
21
-23.3782
0
LINE
8
BLACK
6
CONTINUOUS
10
55.7129
20
-23.3782
11
55.7605
21
-23.4734
0
LINE
8
BLACK
6
CONTINUOUS
10
68.8464
20
-24.5134
11
67.8464
21
-24.5134
0
LINE
8
BLACK
6
CONTINUOUS
10
67.8464
20
-24.5134
11
67.8464
21
-24.1324
0
LINE
8
BLACK
6
CONTINUOUS
10
67.8464
20
-24.1324
11
67.894
21
-24.0372
0
LINE
8
BLACK
6
CONTINUOUS
10
67.894
20
-24.0372
11
67.9416
21
-23.9896
0
LINE
8
BLACK
6
CONTINUOUS
10
67.9416
20
-23.9896
11
68.0368
21
-23.9419
0
LINE
8
BLACK
6
CONTINUOUS
10
68.0368
20
-23.9419
11
68.1797
21
-23.9419
0
LINE
8
BLACK
6
CONTINUOUS
10
68.1797
20
-23.9419
11
68.2749
21
-23.9896
0
LINE
8
BLACK
6
CONTINUOUS
10
68.2749
20
-23.9896
11
68.3226
21
-24.0372
0
LINE
8
BLACK
6
CONTINUOUS
10
68.3226
20
-24.0372
11
68.3702
21
-24.1324
0
LINE
8
BLACK
6
CONTINUOUS
10
68.3702
20
-24.1324
11
68.3702
21
-24.5134
0
LINE
8
BLACK
6
CONTINUOUS
10
67.9416
20
-23.561
11
67.894
21
-23.5134
0
LINE
8
BLACK
6
CONTINUOUS
10
67.894
20
-23.5134
11
67.8464
21
-23.4181
0
LINE
8
BLACK
6
CONTINUOUS
10
67.8464
20
-23.4181
11
67.8464
21
-23.18
0
LINE
8
BLACK
6
CONTINUOUS
10
67.8464
20
-23.18
11
67.894
21
-23.0848
0
LINE
8
BLACK
6
CONTINUOUS
10
67.894
20
-23.0848
11
67.9416
21
-23.0372
0
LINE
8
BLACK
6
CONTINUOUS
10
67.9416
20
-23.0372
11
68.0368
21
-22.9896
0
LINE
8
BLACK
6
CONTINUOUS
10
68.0368
20
-22.9896
11
68.1321
21
-22.9896
0
LINE
8
BLACK
6
CONTINUOUS
10
68.1321
20
-22.9896
11
68.2749
21
-23.0372
0
LINE
8
BLACK
6
CONTINUOUS
10
68.2749
20
-23.0372
11
68.8464
21
-23.6086
0
LINE
8
BLACK
6
CONTINUOUS
10
68.8464
20
-23.6086
11
68.8464
21
-22.9896
0
LINE
8
BLACK
6
CONTINUOUS
10
45.9748
20
-24.4258
11
44.9748
21
-24.4258
0
LINE
8
BLACK
6
CONTINUOUS
10
44.9748
20
-24.4258
11
44.9748
21
-24.0448
0
LINE
8
BLACK
6
CONTINUOUS
10
44.9748
20
-24.0448
11
45.0224
21
-23.9496
0
LINE
8
BLACK
6
CONTINUOUS
10
45.0224
20
-23.9496
11
45.07
21
-23.902
0
LINE
8
BLACK
6
CONTINUOUS
10
45.07
20
-23.902
11
45.1653
21
-23.8544
0
LINE
8
BLACK
6
CONTINUOUS
10
45.1653
20
-23.8544
11
45.3081
21
-23.8544
0
LINE
8
BLACK
6
CONTINUOUS
10
45.3081
20
-23.8544
11
45.4034
21
-23.902
0
LINE
8
BLACK
6
CONTINUOUS
10
45.4034
20
-23.902
11
45.451
21
-23.9496
0
LINE
8
BLACK
6
CONTINUOUS
10
45.451
20
-23.9496
11
45.4986
21
-24.0448
0
LINE
8
BLACK
6
CONTINUOUS
10
45.4986
20
-24.0448
11
45.4986
21
-24.4258
0
LINE
8
BLACK
6
CONTINUOUS
10
44.9748
20
-23.521
11
44.9748
21
-22.902
0
LINE
8
BLACK
6
CONTINUOUS
10
44.9748
20
-22.902
11
45.3558
21
-23.2353
0
LINE
8
BLACK
6
CONTINUOUS
10
45.3558
20
-23.2353
11
45.3558
21
-23.0925
0
LINE
8
BLACK
6
CONTINUOUS
10
45.3558
20
-23.0925
11
45.4034
21
-22.9972
0
LINE
8
BLACK
6
CONTINUOUS
10
45.4034
20
-22.9972
11
45.451
21
-22.9496
0
LINE
8
BLACK
6
CONTINUOUS
10
45.451
20
-22.9496
11
45.5462
21
-22.902
0
LINE
8
BLACK
6
CONTINUOUS
10
45.5462
20
-22.902
11
45.7843
21
-22.902
0
LINE
8
BLACK
6
CONTINUOUS
10
45.7843
20
-22.902
11
45.8796
21
-22.9496
0
LINE
8
BLACK
6
CONTINUOUS
10
45.8796
20
-22.9496
11
45.9272
21
-22.9972
0
LINE
8
BLACK
6
CONTINUOUS
10
45.9272
20
-22.9972
11
45.9748
21
-23.0925
0
LINE
8
BLACK
6
CONTINUOUS
10
45.9748
20
-23.0925
11
45.9748
21
-23.3782
0
LINE
8
BLACK
6
CONTINUOUS
10
45.9748
20
-23.3782
11
45.9272
21
-23.4734
0
LINE
8
BLACK
6
CONTINUOUS
10
45.9272
20
-23.4734
11
45.8796
21
-23.521
0
LINE
8
BLACK
6
CONTINUOUS
10
53.5948
20
-59.6482
11
52.5948
21
-59.6482
0
LINE
8
BLACK
6
CONTINUOUS
10
52.5948
20
-59.6482
11
52.5948
21
-59.2673
0
LINE
8
BLACK
6
CONTINUOUS
10
52.5948
20
-59.2673
11
52.6424
21
-59.172
0
LINE
8
BLACK
6
CONTINUOUS
10
52.6424
20
-59.172
11
52.69
21
-59.1244
0
LINE
8
BLACK
6
CONTINUOUS
10
52.69
20
-59.1244
11
52.7853
21
-59.0768
0
LINE
8
BLACK
6
CONTINUOUS
10
52.7853
20
-59.0768
11
52.9281
21
-59.0768
0
LINE
8
BLACK
6
CONTINUOUS
10
52.9281
20
-59.0768
11
53.0234
21
-59.1244
0
LINE
8
BLACK
6
CONTINUOUS
10
53.0234
20
-59.1244
11
53.071
21
-59.172
0
LINE
8
BLACK
6
CONTINUOUS
10
53.071
20
-59.172
11
53.1186
21
-59.2673
0
LINE
8
BLACK
6
CONTINUOUS
10
53.1186
20
-59.2673
11
53.1186
21
-59.6482
0
LINE
8
BLACK
6
CONTINUOUS
10
52.9281
20
-58.2196
11
53.5948
21
-58.2196
0
LINE
8
BLACK
6
CONTINUOUS
10
52.5472
20
-58.4577
11
53.2615
21
-58.6958
0
LINE
8
BLACK
6
CONTINUOUS
10
53.2615
20
-58.6958
11
53.2615
21
-58.0768
0
LINE
8
BLACK
6
CONTINUOUS
10
58.8048
20
-59.8982
11
57.8048
21
-59.8982
0
LINE
8
BLACK
6
CONTINUOUS
10
57.8048
20
-59.8982
11
57.8048
21
-59.5173
0
LINE
8
BLACK
6
CONTINUOUS
10
57.8048
20
-59.5173
11
57.8524
21
-59.422
0
LINE
8
BLACK
6
CONTINUOUS
10
57.8524
20
-59.422
11
57.9
21
-59.3744
0
LINE
8
BLACK
6
CONTINUOUS
10
57.9
20
-59.3744
11
57.9953
21
-59.3268
0
LINE
8
BLACK
6
CONTINUOUS
10
57.9953
20
-59.3268
11
58.1381
21
-59.3268
0
LINE
8
BLACK
6
CONTINUOUS
10
58.1381
20
-59.3268
11
58.2334
21
-59.3744
0
LINE
8
BLACK
6
CONTINUOUS
10
58.2334
20
-59.3744
11
58.281
21
-59.422
0
LINE
8
BLACK
6
CONTINUOUS
10
58.281
20
-59.422
11
58.3286
21
-59.5173
0
LINE
8
BLACK
6
CONTINUOUS
10
58.3286
20
-59.5173
11
58.3286
21
-59.8982
0
LINE
8
BLACK
6
CONTINUOUS
10
57.8048
20
-58.422
11
57.8048
21
-58.8982
0
LINE
8
BLACK
6
CONTINUOUS
10
57.8048
20
-58.8982
11
58.281
21
-58.9458
0
LINE
8
BLACK
6
CONTINUOUS
10
58.281
20
-58.9458
11
58.2334
21
-58.8982
0
LINE
8
BLACK
6
CONTINUOUS
10
58.2334
20
-58.8982
11
58.1858
21
-58.803
0
LINE
8
BLACK
6
CONTINUOUS
10
58.1858
20
-58.803
11
58.1858
21
-58.5649
0
LINE
8
BLACK
6
CONTINUOUS
10
58.1858
20
-58.5649
11
58.2334
21
-58.4696
0
LINE
8
BLACK
6
CONTINUOUS
10
58.2334
20
-58.4696
11
58.281
21
-58.422
0
LINE
8
BLACK
6
CONTINUOUS
10
58.281
20
-58.422
11
58.3762
21
-58.3744
0
LINE
8
BLACK
6
CONTINUOUS
10
58.3762
20
-58.3744
11
58.6143
21
-58.3744
0
LINE
8
BLACK
6
CONTINUOUS
10
58.6143
20
-58.3744
11
58.7096
21
-58.422
0
LINE
8
BLACK
6
CONTINUOUS
10
58.7096
20
-58.422
11
58.7572
21
-58.4696
0
LINE
8
BLACK
6
CONTINUOUS
10
58.7572
20
-58.4696
11
58.8048
21
-58.5649
0
LINE
8
BLACK
6
CONTINUOUS
10
58.8048
20
-58.5649
11
58.8048
21
-58.803
0
LINE
8
BLACK
6
CONTINUOUS
10
58.8048
20
-58.803
11
58.7572
21
-58.8982
0
LINE
8
BLACK
6
CONTINUOUS
10
58.7572
20
-58.8982
11
58.7096
21
-58.9458
0
LINE
8
BLACK
6
CONTINUOUS
10
66.5548
20
-59.9858
11
65.5548
21
-59.9858
0
LINE
8
BLACK
6
CONTINUOUS
10
65.5548
20
-59.9858
11
65.5548
21
-59.6048
0
LINE
8
BLACK
6
CONTINUOUS
10
65.5548
20
-59.6048
11
65.6024
21
-59.5096
0
LINE
8
BLACK
6
CONTINUOUS
10
65.6024
20
-59.5096
11
65.65
21
-59.462
0
LINE
8
BLACK
6
CONTINUOUS
10
65.65
20
-59.462
11
65.7453
21
-59.4144
0
LINE
8
BLACK
6
CONTINUOUS
10
65.7453
20
-59.4144
11
65.8881
21
-59.4144
0
LINE
8
BLACK
6
CONTINUOUS
10
65.8881
20
-59.4144
11
65.9834
21
-59.462
0
LINE
8
BLACK
6
CONTINUOUS
10
65.9834
20
-59.462
11
66.031
21
-59.5096
0
LINE
8
BLACK
6
CONTINUOUS
10
66.031
20
-59.5096
11
66.0786
21
-59.6048
0
LINE
8
BLACK
6
CONTINUOUS
10
66.0786
20
-59.6048
11
66.0786
21
-59.9858
0
LINE
8
BLACK
6
CONTINUOUS
10
65.5548
20
-58.5572
11
65.5548
21
-58.7477
0
LINE
8
BLACK
6
CONTINUOUS
10
65.5548
20
-58.7477
11
65.6024
21
-58.8429
0
LINE
8
BLACK
6
CONTINUOUS
10
65.6024
20
-58.8429
11
65.65
21
-58.8906
0
LINE
8
BLACK
6
CONTINUOUS
10
65.65
20
-58.8906
11
65.7929
21
-58.9858
0
LINE
8
BLACK
6
CONTINUOUS
10
65.7929
20
-58.9858
11
65.9834
21
-59.0334
0
LINE
8
BLACK
6
CONTINUOUS
10
65.9834
20
-59.0334
11
66.3643
21
-59.0334
0
LINE
8
BLACK
6
CONTINUOUS
10
66.3643
20
-59.0334
11
66.4596
21
-58.9858
0
LINE
8
BLACK
6
CONTINUOUS
10
66.4596
20
-58.9858
11
66.5072
21
-58.9382
0
LINE
8
BLACK
6
CONTINUOUS
10
66.5072
20
-58.9382
11
66.5548
21
-58.8429
0
LINE
8
BLACK
6
CONTINUOUS
10
66.5548
20
-58.8429
11
66.5548
21
-58.6525
0
LINE
8
BLACK
6
CONTINUOUS
10
66.5548
20
-58.6525
11
66.5072
21
-58.5572
0
LINE
8
BLACK
6
CONTINUOUS
10
66.5072
20
-58.5572
11
66.4596
21
-58.5096
0
LINE
8
BLACK
6
CONTINUOUS
10
66.4596
20
-58.5096
11
66.3643
21
-58.462
0
LINE
8
BLACK
6
CONTINUOUS
10
66.3643
20
-58.462
11
66.1262
21
-58.462
0
LINE
8
BLACK
6
CONTINUOUS
10
66.1262
20
-58.462
11
66.031
21
-58.5096
0
LINE
8
BLACK
6
CONTINUOUS
10
66.031
20
-58.5096
11
65.9834
21
-58.5572
0
LINE
8
BLACK
6
CONTINUOUS
10
65.9834
20
-58.5572
11
65.9358
21
-58.6525
0
LINE
8
BLACK
6
CONTINUOUS
10
65.9358
20
-58.6525
11
65.9358
21
-58.8429
0
LINE
8
BLACK
6
CONTINUOUS
10
65.9358
20
-58.8429
11
65.9834
21
-58.9382
0
LINE
8
BLACK
6
CONTINUOUS
10
65.9834
20
-58.9382
11
66.031
21
-58.9858
0
LINE
8
BLACK
6
CONTINUOUS
10
66.031
20
-58.9858
11
66.1262
21
-59.0334
0
LINE
8
BLACK
6
CONTINUOUS
10
61.5548
20
-60.1482
11
60.5548
21
-60.1482
0
LINE
8
BLACK
6
CONTINUOUS
10
60.5548
20
-60.1482
11
60.5548
21
-59.7673
0
LINE
8
BLACK
6
CONTINUOUS
10
60.5548
20
-59.7673
11
60.6024
21
-59.672
0
LINE
8
BLACK
6
CONTINUOUS
10
60.6024
20
-59.672
11
60.65
21
-59.6244
0
LINE
8
BLACK
6
CONTINUOUS
10
60.65
20
-59.6244
11
60.7453
21
-59.5768
0
LINE
8
BLACK
6
CONTINUOUS
10
60.7453
20
-59.5768
11
60.8881
21
-59.5768
0
LINE
8
BLACK
6
CONTINUOUS
10
60.8881
20
-59.5768
11
60.9834
21
-59.6244
0
LINE
8
BLACK
6
CONTINUOUS
10
60.9834
20
-59.6244
11
61.031
21
-59.672
0
LINE
8
BLACK
6
CONTINUOUS
10
61.031
20
-59.672
11
61.0786
21
-59.7673
0
LINE
8
BLACK
6
CONTINUOUS
10
61.0786
20
-59.7673
11
61.0786
21
-60.1482
0
LINE
8
BLACK
6
CONTINUOUS
10
60.5548
20
-59.2435
11
60.5548
21
-58.5768
0
LINE
8
BLACK
6
CONTINUOUS
10
60.5548
20
-58.5768
11
61.5548
21
-59.0054
0
LINE
8
BLACK
6
CONTINUOUS
10
71.5548
20
-24.6478
11
70.5548
21
-24.6478
0
LINE
8
BLACK
6
CONTINUOUS
10
70.5548
20
-24.6478
11
70.5548
21
-24.2669
0
LINE
8
BLACK
6
CONTINUOUS
10
70.5548
20
-24.2669
11
70.6024
21
-24.1716
0
LINE
8
BLACK
6
CONTINUOUS
10
70.6024
20
-24.1716
11
70.65
21
-24.124
0
LINE
8
BLACK
6
CONTINUOUS
10
70.65
20
-24.124
11
70.7453
21
-24.0764
0
LINE
8
BLACK
6
CONTINUOUS
10
70.7453
20
-24.0764
11
70.8881
21
-24.0764
0
LINE
8
BLACK
6
CONTINUOUS
10
70.8881
20
-24.0764
11
70.9834
21
-24.124
0
LINE
8
BLACK
6
CONTINUOUS
10
70.9834
20
-24.124
11
71.031
21
-24.1716
0
LINE
8
BLACK
6
CONTINUOUS
10
71.031
20
-24.1716
11
71.0786
21
-24.2669
0
LINE
8
BLACK
6
CONTINUOUS
10
71.0786
20
-24.2669
11
71.0786
21
-24.6478
0
LINE
8
BLACK
6
CONTINUOUS
10
70.9834
20
-23.505
11
70.9358
21
-23.6002
0
LINE
8
BLACK
6
CONTINUOUS
10
70.9358
20
-23.6002
11
70.8881
21
-23.6478
0
LINE
8
BLACK
6
CONTINUOUS
10
70.8881
20
-23.6478
11
70.7929
21
-23.6954
0
LINE
8
BLACK
6
CONTINUOUS
10
70.7929
20
-23.6954
11
70.7453
21
-23.6954
0
LINE
8
BLACK
6
CONTINUOUS
10
70.7453
20
-23.6954
11
70.65
21
-23.6478
0
LINE
8
BLACK
6
CONTINUOUS
10
70.65
20
-23.6478
11
70.6024
21
-23.6002
0
LINE
8
BLACK
6
CONTINUOUS
10
70.6024
20
-23.6002
11
70.5548
21
-23.505
0
LINE
8
BLACK
6
CONTINUOUS
10
70.5548
20
-23.505
11
70.5548
21
-23.3145
0
LINE
8
BLACK
6
CONTINUOUS
10
70.5548
20
-23.3145
11
70.6024
21
-23.2192
0
LINE
8
BLACK
6
CONTINUOUS
10
70.6024
20
-23.2192
11
70.65
21
-23.1716
0
LINE
8
BLACK
6
CONTINUOUS
10
70.65
20
-23.1716
11
70.7453
21
-23.124
0
LINE
8
BLACK
6
CONTINUOUS
10
70.7453
20
-23.124
11
70.7929
21
-23.124
0
LINE
8
BLACK
6
CONTINUOUS
10
70.7929
20
-23.124
11
70.8881
21
-23.1716
0
LINE
8
BLACK
6
CONTINUOUS
10
70.8881
20
-23.1716
11
70.9358
21
-23.2192
0
LINE
8
BLACK
6
CONTINUOUS
10
70.9358
20
-23.2192
11
70.9834
21
-23.3145
0
LINE
8
BLACK
6
CONTINUOUS
10
70.9834
20
-23.3145
11
70.9834
21
-23.505
0
LINE
8
BLACK
6
CONTINUOUS
10
70.9834
20
-23.505
11
71.031
21
-23.6002
0
LINE
8
BLACK
6
CONTINUOUS
10
71.031
20
-23.6002
11
71.0786
21
-23.6478
0
LINE
8
BLACK
6
CONTINUOUS
10
71.0786
20
-23.6478
11
71.1738
21
-23.6954
0
LINE
8
BLACK
6
CONTINUOUS
10
71.1738
20
-23.6954
11
71.3643
21
-23.6954
0
LINE
8
BLACK
6
CONTINUOUS
10
71.3643
20
-23.6954
11
71.4596
21
-23.6478
0
LINE
8
BLACK
6
CONTINUOUS
10
71.4596
20
-23.6478
11
71.5072
21
-23.6002
0
LINE
8
BLACK
6
CONTINUOUS
10
71.5072
20
-23.6002
11
71.5548
21
-23.505
0
LINE
8
BLACK
6
CONTINUOUS
10
71.5548
20
-23.505
11
71.5548
21
-23.3145
0
LINE
8
BLACK
6
CONTINUOUS
10
71.5548
20
-23.3145
11
71.5072
21
-23.2192
0
LINE
8
BLACK
6
CONTINUOUS
10
71.5072
20
-23.2192
11
71.4596
21
-23.1716
0
LINE
8
BLACK
6
CONTINUOUS
10
71.4596
20
-23.1716
11
71.3643
21
-23.124
0
LINE
8
BLACK
6
CONTINUOUS
10
71.3643
20
-23.124
11
71.1738
21
-23.124
0
LINE
8
BLACK
6
CONTINUOUS
10
71.1738
20
-23.124
11
71.0786
21
-23.1716
0
LINE
8
BLACK
6
CONTINUOUS
10
71.0786
20
-23.1716
11
71.031
21
-23.2192
0
LINE
8
BLACK
6
CONTINUOUS
10
71.031
20
-23.2192
11
70.9834
21
-23.3145
0
LINE
8
BLACK
6
CONTINUOUS
10
71.5548
20
-59.9858
11
70.5548
21
-59.9858
0
LINE
8
BLACK
6
CONTINUOUS
10
70.5548
20
-59.9858
11
70.5548
21
-59.6048
0
LINE
8
BLACK
6
CONTINUOUS
10
70.5548
20
-59.6048
11
70.6024
21
-59.5096
0
LINE
8
BLACK
6
CONTINUOUS
10
70.6024
20
-59.5096
11
70.65
21
-59.462
0
LINE
8
BLACK
6
CONTINUOUS
10
70.65
20
-59.462
11
70.7453
21
-59.4144
0
LINE
8
BLACK
6
CONTINUOUS
10
70.7453
20
-59.4144
11
70.8881
21
-59.4144
0
LINE
8
BLACK
6
CONTINUOUS
10
70.8881
20
-59.4144
11
70.9834
21
-59.462
0
LINE
8
BLACK
6
CONTINUOUS
10
70.9834
20
-59.462
11
71.031
21
-59.5096
0
LINE
8
BLACK
6
CONTINUOUS
10
71.031
20
-59.5096
11
71.0786
21
-59.6048
0
LINE
8
BLACK
6
CONTINUOUS
10
71.0786
20
-59.6048
11
71.0786
21
-59.9858
0
LINE
8
BLACK
6
CONTINUOUS
10
71.5548
20
-58.9382
11
71.5548
21
-58.7477
0
LINE
8
BLACK
6
CONTINUOUS
10
71.5548
20
-58.7477
11
71.5072
21
-58.6525
0
LINE
8
BLACK
6
CONTINUOUS
10
71.5072
20
-58.6525
11
71.4596
21
-58.6048
0
LINE
8
BLACK
6
CONTINUOUS
10
71.4596
20
-58.6048
11
71.3167
21
-58.5096
0
LINE
8
BLACK
6
CONTINUOUS
10
71.3167
20
-58.5096
11
71.1262
21
-58.462
0
LINE
8
BLACK
6
CONTINUOUS
10
71.1262
20
-58.462
11
70.7453
21
-58.462
0
LINE
8
BLACK
6
CONTINUOUS
10
70.7453
20
-58.462
11
70.65
21
-58.5096
0
LINE
8
BLACK
6
CONTINUOUS
10
70.65
20
-58.5096
11
70.6024
21
-58.5572
0
LINE
8
BLACK
6
CONTINUOUS
10
70.6024
20
-58.5572
11
70.5548
21
-58.6525
0
LINE
8
BLACK
6
CONTINUOUS
10
70.5548
20
-58.6525
11
70.5548
21
-58.8429
0
LINE
8
BLACK
6
CONTINUOUS
10
70.5548
20
-58.8429
11
70.6024
21
-58.9382
0
LINE
8
BLACK
6
CONTINUOUS
10
70.6024
20
-58.9382
11
70.65
21
-58.9858
0
LINE
8
BLACK
6
CONTINUOUS
10
70.65
20
-58.9858
11
70.7453
21
-59.0334
0
LINE
8
BLACK
6
CONTINUOUS
10
70.7453
20
-59.0334
11
70.9834
21
-59.0334
0
LINE
8
BLACK
6
CONTINUOUS
10
70.9834
20
-59.0334
11
71.0786
21
-58.9858
0
LINE
8
BLACK
6
CONTINUOUS
10
71.0786
20
-58.9858
11
71.1262
21
-58.9382
0
LINE
8
BLACK
6
CONTINUOUS
10
71.1262
20
-58.9382
11
71.1738
21
-58.8429
0
LINE
8
BLACK
6
CONTINUOUS
10
71.1738
20
-58.8429
11
71.1738
21
-58.6525
0
LINE
8
BLACK
6
CONTINUOUS
10
71.1738
20
-58.6525
11
71.1262
21
-58.5572
0
LINE
8
BLACK
6
CONTINUOUS
10
71.1262
20
-58.5572
11
71.0786
21
-58.5096
0
LINE
8
BLACK
6
CONTINUOUS
10
71.0786
20
-58.5096
11
70.9834
21
-58.462
  0
ENDSEC
  0
EOF
