G04 #@! TF.GenerationSoftware,KiCad,Pcbnew,5.1.2-f72e74a~84~ubuntu18.04.1*
G04 #@! TF.CreationDate,2019-06-23T16:18:23+02:00*
G04 #@! TF.ProjectId,TMC262_mount,544d4332-3632-45f6-9d6f-756e742e6b69,rev?*
G04 #@! TF.SameCoordinates,PX4ea49dfPY449d5dd*
G04 #@! TF.FileFunction,Copper,L2,Bot*
G04 #@! TF.FilePolarity,Positive*
%FSLAX46Y46*%
G04 Gerber Fmt 4.6, Leading zero omitted, Abs format (unit mm)*
G04 Created by KiCad (PCBNEW 5.1.2-f72e74a~84~ubuntu18.04.1) date 2019-06-23 16:18:23*
%MOMM*%
%LPD*%
G04 APERTURE LIST*
%ADD10C,0.200000*%
%ADD11R,1.700000X1.700000*%
%ADD12O,1.700000X1.700000*%
%ADD13C,3.000000*%
%ADD14R,3.000000X3.000000*%
%ADD15C,0.600000*%
%ADD16C,1.700000*%
%ADD17C,0.254000*%
G04 APERTURE END LIST*
D10*
X-59690000Y54610000D02*
X-59690000Y0D01*
X0Y54610000D02*
X-59690000Y54610000D01*
X0Y0D02*
X0Y54610000D01*
X-59690000Y0D02*
X0Y0D01*
D11*
X-26669999Y12700041D03*
X-31749999Y12700041D03*
X-34289999Y12700041D03*
X-36829999Y12700041D03*
X-52069999Y20320041D03*
X-52069999Y12700041D03*
D12*
X-49529999Y12700041D03*
X-46989999Y12700041D03*
X-44449999Y12700041D03*
D13*
X-24130099Y5080041D03*
X-19050099Y5080041D03*
D14*
X-29210099Y5080041D03*
D13*
X-13970099Y5080041D03*
X-8890099Y5080041D03*
X-3810099Y5080041D03*
D14*
X-44449999Y5080041D03*
D13*
X-39369999Y5080041D03*
X-34289999Y5080041D03*
D14*
X-54609999Y5080041D03*
D13*
X-49529999Y5080041D03*
D12*
X-19049999Y48260041D03*
X-21589999Y48260041D03*
X-24129999Y48260041D03*
X-26669999Y48260041D03*
X-13969999Y48260041D03*
X-16509999Y48260041D03*
X-36829999Y48260041D03*
X-34289999Y48260041D03*
X-31749999Y48260041D03*
D11*
X-29209999Y48260041D03*
X-29209999Y12700041D03*
X-24129999Y12700041D03*
D12*
X-16509999Y12700041D03*
X-13969999Y12700041D03*
X-19049999Y12700041D03*
X-21589999Y12700041D03*
X-8889999Y48260041D03*
D11*
X-11429999Y48260041D03*
X-11429999Y12700041D03*
D12*
X-8889999Y12700041D03*
D15*
X-38100000Y52070000D02*
X-57150000Y33020000D01*
X-57150000Y33020000D02*
X-57150000Y7620042D01*
X-10795000Y52070000D02*
X-38100000Y52070000D01*
X-8889999Y48260041D02*
X-8889999Y50164999D01*
X-57150000Y7620042D02*
X-54609999Y5080041D01*
X-8889999Y50164999D02*
X-10795000Y52070000D01*
X-13969999Y48260041D02*
X-13969999Y38557941D01*
X-13969999Y38557941D02*
X-38280399Y14247541D01*
X-38280399Y14247541D02*
X-38280399Y9070441D01*
X-38280399Y9070441D02*
X-34289999Y5080041D01*
X-39369999Y5080041D02*
X-39369999Y14431241D01*
X-39369999Y14431241D02*
X-16509999Y37291241D01*
X-16509999Y37291241D02*
X-16509999Y48260041D01*
D16*
X-3810099Y5080041D02*
X-3810099Y5619841D01*
X-8889999Y12700041D02*
X-3810099Y5080041D01*
X-13969999Y12700041D02*
X-13969999Y5080141D01*
X-13969999Y5080141D02*
X-13970099Y5080041D01*
X-21844000Y11430000D02*
X-29210099Y5080041D01*
X-21589999Y12700041D02*
X-21844000Y11430000D01*
X-16509999Y12700041D02*
X-19050099Y5080041D01*
X-20066000Y10160000D02*
X-24130099Y5080041D01*
X-19049999Y12700041D02*
X-20066000Y10160000D01*
D15*
X-44449999Y12700041D02*
X-44449999Y14150341D01*
X-19049999Y48260041D02*
X-19049999Y39550341D01*
X-19049999Y39550341D02*
X-44449999Y14150341D01*
X-46989999Y12700041D02*
X-46989999Y14150341D01*
X-21589999Y48260041D02*
X-21589999Y39550341D01*
X-21589999Y39550341D02*
X-46989999Y14150341D01*
X-49529999Y12700041D02*
X-49529999Y14150341D01*
X-24129999Y48260041D02*
X-24129999Y39550341D01*
X-24129999Y39550341D02*
X-49529999Y14150341D01*
X-26669999Y38735001D02*
X-26669999Y48260041D01*
X-52069999Y12700041D02*
X-52069999Y13335001D01*
X-52069999Y13335001D02*
X-26669999Y38735001D01*
X-46550299Y5080041D02*
X-44449999Y5080041D01*
X-48650599Y7180341D02*
X-46550299Y5080041D01*
X-53224098Y11250040D02*
X-49154399Y7180341D01*
X-53400000Y11250040D02*
X-53224098Y11250040D01*
X-53159958Y14150042D02*
X-53400000Y14150042D01*
X-49154399Y7180341D02*
X-48650599Y7180341D01*
X-31749999Y35560001D02*
X-53159958Y14150042D01*
X-31749999Y48260041D02*
X-31749999Y35560001D01*
X-53520000Y11370040D02*
X-53400000Y11250040D01*
X-53400000Y14150042D02*
X-53520000Y14030042D01*
X-53520000Y14030042D02*
X-53520000Y11370040D01*
X-52069999Y20320041D02*
X-52069999Y21770341D01*
X-36829999Y48260041D02*
X-36829999Y37010341D01*
X-36829999Y37010341D02*
X-52069999Y21770341D01*
D17*
G36*
X-835000Y835000D02*
G01*
X-58855000Y835000D01*
X-58855000Y33020000D01*
X-58190006Y33020000D01*
X-58185000Y32969172D01*
X-58184999Y7670880D01*
X-58190006Y7620042D01*
X-58170023Y7417147D01*
X-58110840Y7222049D01*
X-58014734Y7042245D01*
X-57961554Y6977446D01*
X-57885395Y6884646D01*
X-57845908Y6852240D01*
X-56848555Y5854887D01*
X-56848555Y3580041D01*
X-56834364Y3435956D01*
X-56792336Y3297408D01*
X-56724086Y3169721D01*
X-56632237Y3057803D01*
X-56520319Y2965954D01*
X-56392632Y2897704D01*
X-56254084Y2855676D01*
X-56109999Y2841485D01*
X-53109999Y2841485D01*
X-52965914Y2855676D01*
X-52827366Y2897704D01*
X-52699679Y2965954D01*
X-52587761Y3057803D01*
X-52495912Y3169721D01*
X-52427662Y3297408D01*
X-52425162Y3305652D01*
X-50423333Y3305652D01*
X-50232633Y3053037D01*
X-49823683Y2954908D01*
X-49403447Y2938447D01*
X-48988075Y3004287D01*
X-48827365Y3053037D01*
X-48636665Y3305652D01*
X-49529999Y4198986D01*
X-50423333Y3305652D01*
X-52425162Y3305652D01*
X-52385634Y3435956D01*
X-52371443Y3580041D01*
X-52371443Y4953489D01*
X-51671593Y4953489D01*
X-51605753Y4538117D01*
X-51557003Y4377407D01*
X-51304388Y4186707D01*
X-50411054Y5080041D01*
X-51304388Y5973375D01*
X-51557003Y5782675D01*
X-51655132Y5373725D01*
X-51671593Y4953489D01*
X-52371443Y4953489D01*
X-52371443Y6580041D01*
X-52385634Y6724126D01*
X-52427662Y6862674D01*
X-52495912Y6990361D01*
X-52587761Y7102279D01*
X-52699679Y7194128D01*
X-52827366Y7262378D01*
X-52965914Y7304406D01*
X-53109999Y7318597D01*
X-55384845Y7318597D01*
X-56115000Y8048752D01*
X-56115000Y14030042D01*
X-54560006Y14030042D01*
X-54555000Y13979214D01*
X-54554999Y11420878D01*
X-54560006Y11370040D01*
X-54540023Y11167145D01*
X-54480840Y10972047D01*
X-54384734Y10792243D01*
X-54289623Y10676351D01*
X-54255395Y10634644D01*
X-54215907Y10602237D01*
X-54167807Y10554137D01*
X-54135396Y10514644D01*
X-53977797Y10385306D01*
X-53797993Y10289199D01*
X-53696039Y10258271D01*
X-50366923Y6929154D01*
X-50423333Y6854430D01*
X-49529999Y5961096D01*
X-49515856Y5975238D01*
X-48634801Y5094183D01*
X-48648944Y5080041D01*
X-47755610Y4186707D01*
X-47502995Y4377407D01*
X-47465913Y4531944D01*
X-47318102Y4384133D01*
X-47285695Y4344645D01*
X-47246207Y4312238D01*
X-47128097Y4215307D01*
X-47074589Y4186707D01*
X-46948292Y4119200D01*
X-46753194Y4060017D01*
X-46688555Y4053651D01*
X-46688555Y3580041D01*
X-46674364Y3435956D01*
X-46632336Y3297408D01*
X-46564086Y3169721D01*
X-46472237Y3057803D01*
X-46360319Y2965954D01*
X-46232632Y2897704D01*
X-46094084Y2855676D01*
X-45949999Y2841485D01*
X-42949999Y2841485D01*
X-42805914Y2855676D01*
X-42667366Y2897704D01*
X-42539679Y2965954D01*
X-42427761Y3057803D01*
X-42335912Y3169721D01*
X-42267662Y3297408D01*
X-42225634Y3435956D01*
X-42211443Y3580041D01*
X-42211443Y6580041D01*
X-42225634Y6724126D01*
X-42267662Y6862674D01*
X-42335912Y6990361D01*
X-42427761Y7102279D01*
X-42539679Y7194128D01*
X-42667366Y7262378D01*
X-42805914Y7304406D01*
X-42949999Y7318597D01*
X-45949999Y7318597D01*
X-46094084Y7304406D01*
X-46232632Y7262378D01*
X-46360319Y7194128D01*
X-46472237Y7102279D01*
X-46564086Y6990361D01*
X-46632336Y6862674D01*
X-46674364Y6724126D01*
X-46679413Y6672865D01*
X-47882792Y7876244D01*
X-47915203Y7915737D01*
X-48072802Y8045075D01*
X-48252606Y8141182D01*
X-48447704Y8200365D01*
X-48599761Y8215341D01*
X-48599771Y8215341D01*
X-48650599Y8220347D01*
X-48701427Y8215341D01*
X-48725688Y8215341D01*
X-51621833Y11111485D01*
X-51219999Y11111485D01*
X-51075914Y11125676D01*
X-50937366Y11167704D01*
X-50809679Y11235954D01*
X-50697761Y11327803D01*
X-50605912Y11439721D01*
X-50571406Y11504277D01*
X-50414838Y11375785D01*
X-50139487Y11228607D01*
X-49840713Y11137975D01*
X-49607863Y11115041D01*
X-49452135Y11115041D01*
X-49219285Y11137975D01*
X-48920511Y11228607D01*
X-48645160Y11375785D01*
X-48403812Y11573854D01*
X-48259999Y11749091D01*
X-48116186Y11573854D01*
X-47874838Y11375785D01*
X-47599487Y11228607D01*
X-47300713Y11137975D01*
X-47067863Y11115041D01*
X-46912135Y11115041D01*
X-46679285Y11137975D01*
X-46380511Y11228607D01*
X-46105160Y11375785D01*
X-45863812Y11573854D01*
X-45719999Y11749091D01*
X-45576186Y11573854D01*
X-45334838Y11375785D01*
X-45059487Y11228607D01*
X-44760713Y11137975D01*
X-44527863Y11115041D01*
X-44372135Y11115041D01*
X-44139285Y11137975D01*
X-43840511Y11228607D01*
X-43565160Y11375785D01*
X-43323812Y11573854D01*
X-43125743Y11815202D01*
X-42978565Y12090553D01*
X-42887933Y12389327D01*
X-42857330Y12700041D01*
X-42887933Y13010755D01*
X-42978565Y13309529D01*
X-43125743Y13584880D01*
X-43317767Y13818863D01*
X-18354091Y38782538D01*
X-18314603Y38814945D01*
X-18185265Y38972544D01*
X-18089158Y39152348D01*
X-18029975Y39347446D01*
X-18014999Y39499503D01*
X-18014999Y39499512D01*
X-18009993Y39550340D01*
X-18014999Y39601168D01*
X-18014999Y47059019D01*
X-17923812Y47133854D01*
X-17779999Y47309091D01*
X-17636186Y47133854D01*
X-17544998Y47059018D01*
X-17544999Y37719952D01*
X-40065906Y15199044D01*
X-40105394Y15166637D01*
X-40137801Y15127149D01*
X-40137802Y15127148D01*
X-40234733Y15009038D01*
X-40330839Y14829234D01*
X-40390022Y14634136D01*
X-40410005Y14431241D01*
X-40404998Y14380403D01*
X-40404999Y7070476D01*
X-40428668Y7060672D01*
X-40794728Y6816079D01*
X-41106037Y6504770D01*
X-41350630Y6138710D01*
X-41519109Y5731966D01*
X-41604999Y5300169D01*
X-41604999Y4859913D01*
X-41519109Y4428116D01*
X-41350630Y4021372D01*
X-41106037Y3655312D01*
X-40794728Y3344003D01*
X-40428668Y3099410D01*
X-40021924Y2930931D01*
X-39590127Y2845041D01*
X-39149871Y2845041D01*
X-38718074Y2930931D01*
X-38311330Y3099410D01*
X-37945270Y3344003D01*
X-37633961Y3655312D01*
X-37389368Y4021372D01*
X-37220889Y4428116D01*
X-37134999Y4859913D01*
X-37134999Y5300169D01*
X-37220889Y5731966D01*
X-37389368Y6138710D01*
X-37633961Y6504770D01*
X-37945270Y6816079D01*
X-38311330Y7060672D01*
X-38334999Y7070476D01*
X-38334999Y7661331D01*
X-36429305Y5755636D01*
X-36439109Y5731966D01*
X-36524999Y5300169D01*
X-36524999Y4859913D01*
X-36439109Y4428116D01*
X-36270630Y4021372D01*
X-36026037Y3655312D01*
X-35714728Y3344003D01*
X-35348668Y3099410D01*
X-34941924Y2930931D01*
X-34510127Y2845041D01*
X-34069871Y2845041D01*
X-33638074Y2930931D01*
X-33231330Y3099410D01*
X-32865270Y3344003D01*
X-32553961Y3655312D01*
X-32309368Y4021372D01*
X-32140889Y4428116D01*
X-32054999Y4859913D01*
X-32054999Y5300169D01*
X-32140889Y5731966D01*
X-32309368Y6138710D01*
X-32553961Y6504770D01*
X-32629232Y6580041D01*
X-31448655Y6580041D01*
X-31448655Y3580041D01*
X-31434464Y3435956D01*
X-31392436Y3297408D01*
X-31324186Y3169721D01*
X-31232337Y3057803D01*
X-31120419Y2965954D01*
X-30992732Y2897704D01*
X-30854184Y2855676D01*
X-30710099Y2841485D01*
X-27710099Y2841485D01*
X-27566014Y2855676D01*
X-27427466Y2897704D01*
X-27299779Y2965954D01*
X-27187861Y3057803D01*
X-27096012Y3169721D01*
X-27027762Y3297408D01*
X-26985734Y3435956D01*
X-26971543Y3580041D01*
X-26971543Y4917153D01*
X-26331543Y5468866D01*
X-26365099Y5300169D01*
X-26365099Y4859913D01*
X-26279209Y4428116D01*
X-26110730Y4021372D01*
X-25866137Y3655312D01*
X-25554828Y3344003D01*
X-25188768Y3099410D01*
X-24782024Y2930931D01*
X-24350227Y2845041D01*
X-23909971Y2845041D01*
X-23478174Y2930931D01*
X-23071430Y3099410D01*
X-22705370Y3344003D01*
X-22394061Y3655312D01*
X-22149468Y4021372D01*
X-21980989Y4428116D01*
X-21895099Y4859913D01*
X-21895099Y5300169D01*
X-21900889Y5329276D01*
X-19735515Y8035906D01*
X-20052890Y7083818D01*
X-20108768Y7060672D01*
X-20474828Y6816079D01*
X-20786137Y6504770D01*
X-21030730Y6138710D01*
X-21199209Y5731966D01*
X-21285099Y5300169D01*
X-21285099Y4859913D01*
X-21199209Y4428116D01*
X-21030730Y4021372D01*
X-20786137Y3655312D01*
X-20474828Y3344003D01*
X-20108768Y3099410D01*
X-19702024Y2930931D01*
X-19270227Y2845041D01*
X-18829971Y2845041D01*
X-18398174Y2930931D01*
X-17991430Y3099410D01*
X-17625370Y3344003D01*
X-17314061Y3655312D01*
X-17069468Y4021372D01*
X-16900989Y4428116D01*
X-16815099Y4859913D01*
X-16815099Y5300169D01*
X-16900989Y5731966D01*
X-17045634Y6081169D01*
X-15554999Y10552899D01*
X-15554998Y6655909D01*
X-15706137Y6504770D01*
X-15950730Y6138710D01*
X-16119209Y5731966D01*
X-16205099Y5300169D01*
X-16205099Y4859913D01*
X-16119209Y4428116D01*
X-15950730Y4021372D01*
X-15706137Y3655312D01*
X-15394828Y3344003D01*
X-15028768Y3099410D01*
X-14622024Y2930931D01*
X-14190227Y2845041D01*
X-13749971Y2845041D01*
X-13318174Y2930931D01*
X-12911430Y3099410D01*
X-12602767Y3305652D01*
X-9783433Y3305652D01*
X-9592733Y3053037D01*
X-9183783Y2954908D01*
X-8763547Y2938447D01*
X-8348175Y3004287D01*
X-8187465Y3053037D01*
X-7996765Y3305652D01*
X-8890099Y4198986D01*
X-9783433Y3305652D01*
X-12602767Y3305652D01*
X-12545370Y3344003D01*
X-12234061Y3655312D01*
X-11989468Y4021372D01*
X-11820989Y4428116D01*
X-11735099Y4859913D01*
X-11735099Y4953489D01*
X-11031693Y4953489D01*
X-10965853Y4538117D01*
X-10917103Y4377407D01*
X-10664488Y4186707D01*
X-9771154Y5080041D01*
X-8009044Y5080041D01*
X-7115710Y4186707D01*
X-6863095Y4377407D01*
X-6764966Y4786357D01*
X-6748505Y5206593D01*
X-6814345Y5621965D01*
X-6863095Y5782675D01*
X-7115710Y5973375D01*
X-8009044Y5080041D01*
X-9771154Y5080041D01*
X-10664488Y5973375D01*
X-10917103Y5782675D01*
X-11015232Y5373725D01*
X-11031693Y4953489D01*
X-11735099Y4953489D01*
X-11735099Y5300169D01*
X-11820989Y5731966D01*
X-11989468Y6138710D01*
X-12234061Y6504770D01*
X-12384999Y6655708D01*
X-12384999Y6854430D01*
X-9783433Y6854430D01*
X-8890099Y5961096D01*
X-7996765Y6854430D01*
X-8187465Y7107045D01*
X-8596415Y7205174D01*
X-9016651Y7221635D01*
X-9432023Y7155795D01*
X-9592733Y7107045D01*
X-9783433Y6854430D01*
X-12384999Y6854430D01*
X-12384999Y11222310D01*
X-12279999Y11211969D01*
X-12211749Y11215041D01*
X-12052999Y11373791D01*
X-12052999Y12077041D01*
X-12072999Y12077041D01*
X-12072999Y13323041D01*
X-12052999Y13323041D01*
X-12052999Y14026291D01*
X-10806999Y14026291D01*
X-10806999Y13323041D01*
X-10786999Y13323041D01*
X-10786999Y12077041D01*
X-10806999Y12077041D01*
X-10806999Y11373791D01*
X-10648249Y11215041D01*
X-10579999Y11211969D01*
X-10455517Y11224229D01*
X-10335819Y11260539D01*
X-10225505Y11319504D01*
X-10128814Y11398856D01*
X-10049462Y11495547D01*
X-10023865Y11543436D01*
X-6002969Y5511972D01*
X-6045099Y5300169D01*
X-6045099Y4859913D01*
X-5959209Y4428116D01*
X-5790730Y4021372D01*
X-5546137Y3655312D01*
X-5234828Y3344003D01*
X-4868768Y3099410D01*
X-4462024Y2930931D01*
X-4030227Y2845041D01*
X-3589971Y2845041D01*
X-3158174Y2930931D01*
X-2751430Y3099410D01*
X-2385370Y3344003D01*
X-2074061Y3655312D01*
X-1829468Y4021372D01*
X-1660989Y4428116D01*
X-1575099Y4859913D01*
X-1575099Y5300169D01*
X-1660989Y5731966D01*
X-1829468Y6138710D01*
X-2074061Y6504770D01*
X-2385370Y6816079D01*
X-2751430Y7060672D01*
X-3158174Y7229151D01*
X-3365364Y7270364D01*
X-7528463Y13515134D01*
X-7565743Y13584880D01*
X-7664730Y13705496D01*
X-7762625Y13825038D01*
X-7763272Y13825570D01*
X-7763812Y13826228D01*
X-7884426Y13925214D01*
X-8003763Y14023362D01*
X-8004506Y14023760D01*
X-8005160Y14024297D01*
X-8142365Y14097635D01*
X-8278959Y14170831D01*
X-8279766Y14171077D01*
X-8280511Y14171475D01*
X-8429293Y14216607D01*
X-8577637Y14261778D01*
X-8578476Y14261861D01*
X-8579285Y14262107D01*
X-8734552Y14277400D01*
X-8888320Y14292708D01*
X-8967017Y14285041D01*
X-8967863Y14285041D01*
X-9045007Y14277443D01*
X-9199064Y14262434D01*
X-9199872Y14262190D01*
X-9200713Y14262107D01*
X-9349504Y14216972D01*
X-9497934Y14172117D01*
X-9498678Y14171721D01*
X-9499487Y14171475D01*
X-9636921Y14098015D01*
X-9773440Y14025229D01*
X-9774090Y14024697D01*
X-9774838Y14024297D01*
X-9895612Y13925180D01*
X-10010297Y13831263D01*
X-10049462Y13904535D01*
X-10128814Y14001226D01*
X-10225505Y14080578D01*
X-10335819Y14139543D01*
X-10455517Y14175853D01*
X-10579999Y14188113D01*
X-10648249Y14185041D01*
X-10806999Y14026291D01*
X-12052999Y14026291D01*
X-12211749Y14185041D01*
X-12279999Y14188113D01*
X-12404481Y14175853D01*
X-12524179Y14139543D01*
X-12634493Y14080578D01*
X-12731184Y14001226D01*
X-12810536Y13904535D01*
X-12849776Y13831123D01*
X-13085160Y14024297D01*
X-13360511Y14171475D01*
X-13659285Y14262107D01*
X-13892135Y14285041D01*
X-13969999Y14292710D01*
X-14047863Y14285041D01*
X-14280713Y14262107D01*
X-14579487Y14171475D01*
X-14854838Y14024297D01*
X-15096186Y13826228D01*
X-15237579Y13653940D01*
X-15251789Y13676515D01*
X-15320454Y13749025D01*
X-15383812Y13826228D01*
X-15427561Y13862131D01*
X-15466466Y13903216D01*
X-15547952Y13960934D01*
X-15625160Y14024297D01*
X-15675070Y14050975D01*
X-15721245Y14083681D01*
X-15812431Y14124395D01*
X-15900511Y14171475D01*
X-15954665Y14187902D01*
X-16006335Y14210973D01*
X-16103716Y14233116D01*
X-16199285Y14262107D01*
X-16255602Y14267654D01*
X-16310781Y14280201D01*
X-16410608Y14282921D01*
X-16432135Y14285041D01*
X-16488433Y14285041D01*
X-16622883Y14288704D01*
X-16721324Y14271896D01*
X-16820713Y14262107D01*
X-16874864Y14245680D01*
X-16930647Y14236156D01*
X-17023920Y14200465D01*
X-17119487Y14171475D01*
X-17169396Y14144798D01*
X-17222246Y14124575D01*
X-17306760Y14071375D01*
X-17394838Y14024297D01*
X-17438583Y13988397D01*
X-17486473Y13958251D01*
X-17558986Y13889584D01*
X-17636186Y13826228D01*
X-17672087Y13782483D01*
X-17713175Y13743574D01*
X-17770900Y13662079D01*
X-17779368Y13651760D01*
X-17830854Y13712958D01*
X-17923812Y13826228D01*
X-17931357Y13832420D01*
X-17937633Y13839880D01*
X-18051883Y13931333D01*
X-18165160Y14024297D01*
X-18173770Y14028899D01*
X-18181379Y14034990D01*
X-18311271Y14102395D01*
X-18440511Y14171475D01*
X-18449851Y14174308D01*
X-18458505Y14178799D01*
X-18599077Y14219575D01*
X-18739285Y14262107D01*
X-18748998Y14263064D01*
X-18758362Y14265780D01*
X-18904205Y14278350D01*
X-18972135Y14285041D01*
X-18981830Y14285041D01*
X-19069426Y14292591D01*
X-19214928Y14276466D01*
X-19360713Y14262107D01*
X-19370052Y14259274D01*
X-19379744Y14258200D01*
X-19519321Y14213994D01*
X-19659487Y14171475D01*
X-19668091Y14166876D01*
X-19677390Y14163931D01*
X-19805657Y14093345D01*
X-19934838Y14024297D01*
X-19942382Y14018106D01*
X-19950926Y14013404D01*
X-20062938Y13919168D01*
X-20176186Y13826228D01*
X-20182378Y13818683D01*
X-20189838Y13812407D01*
X-20281310Y13698134D01*
X-20319999Y13650991D01*
X-20364998Y13705822D01*
X-20462642Y13825055D01*
X-20463280Y13825580D01*
X-20463812Y13826228D01*
X-20584859Y13925568D01*
X-20703783Y14023374D01*
X-20704510Y14023764D01*
X-20705160Y14024297D01*
X-20843314Y14098142D01*
X-20978981Y14170839D01*
X-20979771Y14171080D01*
X-20980511Y14171475D01*
X-21130053Y14216838D01*
X-21277660Y14261782D01*
X-21278484Y14261864D01*
X-21279285Y14262107D01*
X-21434799Y14277424D01*
X-21588342Y14292708D01*
X-21667026Y14285041D01*
X-21667863Y14285041D01*
X-21745319Y14277412D01*
X-21899087Y14262429D01*
X-21899881Y14262189D01*
X-21900713Y14262107D01*
X-22049827Y14216874D01*
X-22197955Y14172108D01*
X-22198687Y14171718D01*
X-22199487Y14171475D01*
X-22336989Y14097979D01*
X-22473460Y14025216D01*
X-22474101Y14024691D01*
X-22474838Y14024297D01*
X-22595547Y13925234D01*
X-22710296Y13831261D01*
X-22749462Y13904535D01*
X-22828814Y14001226D01*
X-22925505Y14080578D01*
X-23035819Y14139543D01*
X-23155517Y14175853D01*
X-23279999Y14188113D01*
X-23348249Y14185041D01*
X-23506999Y14026291D01*
X-23506999Y13323041D01*
X-23486999Y13323041D01*
X-23486999Y12106290D01*
X-23544129Y12057041D01*
X-24752999Y12057041D01*
X-24752999Y12077041D01*
X-26046999Y12077041D01*
X-26046999Y11373791D01*
X-25888249Y11215041D01*
X-25819999Y11211969D01*
X-25695517Y11224229D01*
X-25575819Y11260539D01*
X-25465505Y11319504D01*
X-25399999Y11373263D01*
X-25334493Y11319504D01*
X-25224179Y11260539D01*
X-25104481Y11224229D01*
X-24979999Y11211969D01*
X-24911749Y11215041D01*
X-24753001Y11373789D01*
X-24753001Y11215041D01*
X-24520868Y11215041D01*
X-29040833Y7318597D01*
X-30710099Y7318597D01*
X-30854184Y7304406D01*
X-30992732Y7262378D01*
X-31120419Y7194128D01*
X-31232337Y7102279D01*
X-31324186Y6990361D01*
X-31392436Y6862674D01*
X-31434464Y6724126D01*
X-31448655Y6580041D01*
X-32629232Y6580041D01*
X-32865270Y6816079D01*
X-33231330Y7060672D01*
X-33638074Y7229151D01*
X-34069871Y7315041D01*
X-34510127Y7315041D01*
X-34941924Y7229151D01*
X-34965594Y7219347D01*
X-37245399Y9499151D01*
X-37245399Y12077041D01*
X-36206999Y12077041D01*
X-36206999Y11373791D01*
X-36048249Y11215041D01*
X-35979999Y11211969D01*
X-35855517Y11224229D01*
X-35735819Y11260539D01*
X-35625505Y11319504D01*
X-35559999Y11373263D01*
X-35494493Y11319504D01*
X-35384179Y11260539D01*
X-35264481Y11224229D01*
X-35139999Y11211969D01*
X-35071749Y11215041D01*
X-34912999Y11373791D01*
X-34912999Y12077041D01*
X-33666999Y12077041D01*
X-33666999Y11373791D01*
X-33508249Y11215041D01*
X-33439999Y11211969D01*
X-33315517Y11224229D01*
X-33195819Y11260539D01*
X-33085505Y11319504D01*
X-33019999Y11373263D01*
X-32954493Y11319504D01*
X-32844179Y11260539D01*
X-32724481Y11224229D01*
X-32599999Y11211969D01*
X-32531749Y11215041D01*
X-32372999Y11373791D01*
X-32372999Y12077041D01*
X-31126999Y12077041D01*
X-31126999Y11373791D01*
X-30968249Y11215041D01*
X-30899999Y11211969D01*
X-30775517Y11224229D01*
X-30655819Y11260539D01*
X-30545505Y11319504D01*
X-30479999Y11373263D01*
X-30414493Y11319504D01*
X-30304179Y11260539D01*
X-30184481Y11224229D01*
X-30059999Y11211969D01*
X-29991749Y11215041D01*
X-29832999Y11373791D01*
X-29832999Y12077041D01*
X-28586999Y12077041D01*
X-28586999Y11373791D01*
X-28428249Y11215041D01*
X-28359999Y11211969D01*
X-28235517Y11224229D01*
X-28115819Y11260539D01*
X-28005505Y11319504D01*
X-27939999Y11373263D01*
X-27874493Y11319504D01*
X-27764179Y11260539D01*
X-27644481Y11224229D01*
X-27519999Y11211969D01*
X-27451749Y11215041D01*
X-27292999Y11373791D01*
X-27292999Y12077041D01*
X-28586999Y12077041D01*
X-29832999Y12077041D01*
X-31126999Y12077041D01*
X-32372999Y12077041D01*
X-33666999Y12077041D01*
X-34912999Y12077041D01*
X-36206999Y12077041D01*
X-37245399Y12077041D01*
X-37245399Y13818831D01*
X-37037939Y14026291D01*
X-36206999Y14026291D01*
X-36206999Y13323041D01*
X-34912999Y13323041D01*
X-34912999Y14026291D01*
X-33666999Y14026291D01*
X-33666999Y13323041D01*
X-32372999Y13323041D01*
X-32372999Y14026291D01*
X-31126999Y14026291D01*
X-31126999Y13323041D01*
X-29832999Y13323041D01*
X-29832999Y14026291D01*
X-28586999Y14026291D01*
X-28586999Y13323041D01*
X-27292999Y13323041D01*
X-27292999Y14026291D01*
X-26046999Y14026291D01*
X-26046999Y13323041D01*
X-24752999Y13323041D01*
X-24752999Y14026291D01*
X-24911749Y14185041D01*
X-24979999Y14188113D01*
X-25104481Y14175853D01*
X-25224179Y14139543D01*
X-25334493Y14080578D01*
X-25399999Y14026819D01*
X-25465505Y14080578D01*
X-25575819Y14139543D01*
X-25695517Y14175853D01*
X-25819999Y14188113D01*
X-25888249Y14185041D01*
X-26046999Y14026291D01*
X-27292999Y14026291D01*
X-27451749Y14185041D01*
X-27519999Y14188113D01*
X-27644481Y14175853D01*
X-27764179Y14139543D01*
X-27874493Y14080578D01*
X-27939999Y14026819D01*
X-28005505Y14080578D01*
X-28115819Y14139543D01*
X-28235517Y14175853D01*
X-28359999Y14188113D01*
X-28428249Y14185041D01*
X-28586999Y14026291D01*
X-29832999Y14026291D01*
X-29991749Y14185041D01*
X-30059999Y14188113D01*
X-30184481Y14175853D01*
X-30304179Y14139543D01*
X-30414493Y14080578D01*
X-30479999Y14026819D01*
X-30545505Y14080578D01*
X-30655819Y14139543D01*
X-30775517Y14175853D01*
X-30899999Y14188113D01*
X-30968249Y14185041D01*
X-31126999Y14026291D01*
X-32372999Y14026291D01*
X-32531749Y14185041D01*
X-32599999Y14188113D01*
X-32724481Y14175853D01*
X-32844179Y14139543D01*
X-32954493Y14080578D01*
X-33019999Y14026819D01*
X-33085505Y14080578D01*
X-33195819Y14139543D01*
X-33315517Y14175853D01*
X-33439999Y14188113D01*
X-33508249Y14185041D01*
X-33666999Y14026291D01*
X-34912999Y14026291D01*
X-35071749Y14185041D01*
X-35139999Y14188113D01*
X-35264481Y14175853D01*
X-35384179Y14139543D01*
X-35494493Y14080578D01*
X-35559999Y14026819D01*
X-35625505Y14080578D01*
X-35735819Y14139543D01*
X-35855517Y14175853D01*
X-35979999Y14188113D01*
X-36048249Y14185041D01*
X-36206999Y14026291D01*
X-37037939Y14026291D01*
X-13274091Y37790138D01*
X-13234603Y37822545D01*
X-13196447Y37869038D01*
X-13105265Y37980143D01*
X-13011282Y38155975D01*
X-13009158Y38159948D01*
X-12949975Y38355046D01*
X-12934999Y38507103D01*
X-12934999Y38507112D01*
X-12929993Y38557940D01*
X-12934999Y38608768D01*
X-12934999Y47059019D01*
X-12849776Y47128959D01*
X-12810536Y47055547D01*
X-12731184Y46958856D01*
X-12634493Y46879504D01*
X-12524179Y46820539D01*
X-12404481Y46784229D01*
X-12279999Y46771969D01*
X-12211749Y46775041D01*
X-12052999Y46933791D01*
X-12052999Y47637041D01*
X-12072999Y47637041D01*
X-12072999Y48883041D01*
X-12052999Y48883041D01*
X-12052999Y49586291D01*
X-12211749Y49745041D01*
X-12279999Y49748113D01*
X-12404481Y49735853D01*
X-12524179Y49699543D01*
X-12634493Y49640578D01*
X-12731184Y49561226D01*
X-12810536Y49464535D01*
X-12849776Y49391123D01*
X-13085160Y49584297D01*
X-13360511Y49731475D01*
X-13659285Y49822107D01*
X-13892135Y49845041D01*
X-14047863Y49845041D01*
X-14280713Y49822107D01*
X-14579487Y49731475D01*
X-14854838Y49584297D01*
X-15096186Y49386228D01*
X-15239999Y49210991D01*
X-15383812Y49386228D01*
X-15625160Y49584297D01*
X-15900511Y49731475D01*
X-16199285Y49822107D01*
X-16432135Y49845041D01*
X-16587863Y49845041D01*
X-16820713Y49822107D01*
X-17119487Y49731475D01*
X-17394838Y49584297D01*
X-17636186Y49386228D01*
X-17779999Y49210991D01*
X-17923812Y49386228D01*
X-18165160Y49584297D01*
X-18440511Y49731475D01*
X-18739285Y49822107D01*
X-18972135Y49845041D01*
X-19127863Y49845041D01*
X-19360713Y49822107D01*
X-19659487Y49731475D01*
X-19934838Y49584297D01*
X-20176186Y49386228D01*
X-20319999Y49210991D01*
X-20463812Y49386228D01*
X-20705160Y49584297D01*
X-20980511Y49731475D01*
X-21279285Y49822107D01*
X-21512135Y49845041D01*
X-21667863Y49845041D01*
X-21900713Y49822107D01*
X-22199487Y49731475D01*
X-22474838Y49584297D01*
X-22716186Y49386228D01*
X-22859999Y49210991D01*
X-23003812Y49386228D01*
X-23245160Y49584297D01*
X-23520511Y49731475D01*
X-23819285Y49822107D01*
X-24052135Y49845041D01*
X-24207863Y49845041D01*
X-24440713Y49822107D01*
X-24739487Y49731475D01*
X-25014838Y49584297D01*
X-25256186Y49386228D01*
X-25399999Y49210991D01*
X-25543812Y49386228D01*
X-25785160Y49584297D01*
X-26060511Y49731475D01*
X-26359285Y49822107D01*
X-26592135Y49845041D01*
X-26747863Y49845041D01*
X-26980713Y49822107D01*
X-27279487Y49731475D01*
X-27554838Y49584297D01*
X-27790222Y49391123D01*
X-27829462Y49464535D01*
X-27908814Y49561226D01*
X-28005505Y49640578D01*
X-28115819Y49699543D01*
X-28235517Y49735853D01*
X-28359999Y49748113D01*
X-28428249Y49745041D01*
X-28586999Y49586291D01*
X-28586999Y48883041D01*
X-28566999Y48883041D01*
X-28566999Y47637041D01*
X-28586999Y47637041D01*
X-28586999Y46933791D01*
X-28428249Y46775041D01*
X-28359999Y46771969D01*
X-28235517Y46784229D01*
X-28115819Y46820539D01*
X-28005505Y46879504D01*
X-27908814Y46958856D01*
X-27829462Y47055547D01*
X-27790222Y47128959D01*
X-27704998Y47059018D01*
X-27704999Y39163712D01*
X-30714999Y36153712D01*
X-30714999Y47059019D01*
X-30629776Y47128959D01*
X-30590536Y47055547D01*
X-30511184Y46958856D01*
X-30414493Y46879504D01*
X-30304179Y46820539D01*
X-30184481Y46784229D01*
X-30059999Y46771969D01*
X-29991749Y46775041D01*
X-29832999Y46933791D01*
X-29832999Y47637041D01*
X-29852999Y47637041D01*
X-29852999Y48883041D01*
X-29832999Y48883041D01*
X-29832999Y49586291D01*
X-29991749Y49745041D01*
X-30059999Y49748113D01*
X-30184481Y49735853D01*
X-30304179Y49699543D01*
X-30414493Y49640578D01*
X-30511184Y49561226D01*
X-30590536Y49464535D01*
X-30629776Y49391123D01*
X-30865160Y49584297D01*
X-31140511Y49731475D01*
X-31439285Y49822107D01*
X-31672135Y49845041D01*
X-31827863Y49845041D01*
X-32060713Y49822107D01*
X-32359487Y49731475D01*
X-32634838Y49584297D01*
X-32876186Y49386228D01*
X-33074255Y49144880D01*
X-33086069Y49122778D01*
X-33240926Y49311108D01*
X-33463796Y49493983D01*
X-33666999Y49430857D01*
X-33666999Y48883041D01*
X-33646999Y48883041D01*
X-33646999Y47637041D01*
X-33666999Y47637041D01*
X-33666999Y47089225D01*
X-33463796Y47026099D01*
X-33240926Y47208974D01*
X-33086069Y47397304D01*
X-33074255Y47375202D01*
X-32876186Y47133854D01*
X-32784999Y47059019D01*
X-32784998Y35988713D01*
X-53603970Y15169740D01*
X-53797993Y15110883D01*
X-53977797Y15014776D01*
X-54135396Y14885438D01*
X-54167807Y14845945D01*
X-54215903Y14797849D01*
X-54255396Y14765438D01*
X-54384734Y14607839D01*
X-54480841Y14428034D01*
X-54540024Y14232936D01*
X-54555000Y14080879D01*
X-54555000Y14080870D01*
X-54560006Y14030042D01*
X-56115000Y14030042D01*
X-56115000Y21170041D01*
X-53658555Y21170041D01*
X-53658555Y19470041D01*
X-53644364Y19325956D01*
X-53602336Y19187408D01*
X-53534086Y19059721D01*
X-53442237Y18947803D01*
X-53330319Y18855954D01*
X-53202632Y18787704D01*
X-53064084Y18745676D01*
X-52919999Y18731485D01*
X-51219999Y18731485D01*
X-51075914Y18745676D01*
X-50937366Y18787704D01*
X-50809679Y18855954D01*
X-50697761Y18947803D01*
X-50605912Y19059721D01*
X-50537662Y19187408D01*
X-50495634Y19325956D01*
X-50481443Y19470041D01*
X-50481443Y21170041D01*
X-50495634Y21314126D01*
X-50537662Y21452674D01*
X-50605912Y21580361D01*
X-50691716Y21684914D01*
X-36134091Y36242538D01*
X-36094603Y36274945D01*
X-36049092Y36330400D01*
X-35965265Y36432543D01*
X-35913895Y36528650D01*
X-35869158Y36612348D01*
X-35809975Y36807446D01*
X-35794999Y36959503D01*
X-35794999Y36959506D01*
X-35789992Y37010341D01*
X-35794999Y37061176D01*
X-35794999Y47059019D01*
X-35703812Y47133854D01*
X-35505743Y47375202D01*
X-35493929Y47397304D01*
X-35339072Y47208974D01*
X-35116202Y47026099D01*
X-34912999Y47089225D01*
X-34912999Y47637041D01*
X-34932999Y47637041D01*
X-34932999Y48883041D01*
X-34912999Y48883041D01*
X-34912999Y49430857D01*
X-35116202Y49493983D01*
X-35339072Y49311108D01*
X-35493929Y49122778D01*
X-35505743Y49144880D01*
X-35703812Y49386228D01*
X-35945160Y49584297D01*
X-36220511Y49731475D01*
X-36519285Y49822107D01*
X-36752135Y49845041D01*
X-36907863Y49845041D01*
X-37140713Y49822107D01*
X-37439487Y49731475D01*
X-37714838Y49584297D01*
X-37956186Y49386228D01*
X-38154255Y49144880D01*
X-38301433Y48869529D01*
X-38392065Y48570755D01*
X-38422668Y48260041D01*
X-38392065Y47949327D01*
X-38301433Y47650553D01*
X-38154255Y47375202D01*
X-37956186Y47133854D01*
X-37864999Y47059019D01*
X-37864998Y37439053D01*
X-52765906Y22538144D01*
X-52805394Y22505737D01*
X-52837801Y22466249D01*
X-52837802Y22466248D01*
X-52934733Y22348138D01*
X-53030839Y22168334D01*
X-53090022Y21973236D01*
X-53098824Y21883868D01*
X-53202632Y21852378D01*
X-53330319Y21784128D01*
X-53442237Y21692279D01*
X-53534086Y21580361D01*
X-53602336Y21452674D01*
X-53644364Y21314126D01*
X-53658555Y21170041D01*
X-56115000Y21170041D01*
X-56115000Y32591290D01*
X-37671289Y51035000D01*
X-11223710Y51035000D01*
X-9924998Y49736287D01*
X-9924998Y49461064D01*
X-10010222Y49391123D01*
X-10049462Y49464535D01*
X-10128814Y49561226D01*
X-10225505Y49640578D01*
X-10335819Y49699543D01*
X-10455517Y49735853D01*
X-10579999Y49748113D01*
X-10648249Y49745041D01*
X-10806999Y49586291D01*
X-10806999Y48883041D01*
X-10786999Y48883041D01*
X-10786999Y47637041D01*
X-10806999Y47637041D01*
X-10806999Y46933791D01*
X-10648249Y46775041D01*
X-10579999Y46771969D01*
X-10455517Y46784229D01*
X-10335819Y46820539D01*
X-10225505Y46879504D01*
X-10128814Y46958856D01*
X-10049462Y47055547D01*
X-10010222Y47128959D01*
X-9774838Y46935785D01*
X-9499487Y46788607D01*
X-9200713Y46697975D01*
X-8967863Y46675041D01*
X-8812135Y46675041D01*
X-8579285Y46697975D01*
X-8280511Y46788607D01*
X-8005160Y46935785D01*
X-7763812Y47133854D01*
X-7565743Y47375202D01*
X-7418565Y47650553D01*
X-7327933Y47949327D01*
X-7297330Y48260041D01*
X-7327933Y48570755D01*
X-7418565Y48869529D01*
X-7565743Y49144880D01*
X-7763812Y49386228D01*
X-7854999Y49461063D01*
X-7854999Y50114172D01*
X-7849993Y50165000D01*
X-7854999Y50215828D01*
X-7854999Y50215837D01*
X-7869975Y50367894D01*
X-7929158Y50562992D01*
X-7973895Y50646690D01*
X-8025265Y50742797D01*
X-8122196Y50860907D01*
X-8154603Y50900395D01*
X-8194091Y50932802D01*
X-10027193Y52765903D01*
X-10059604Y52805396D01*
X-10217203Y52934734D01*
X-10397007Y53030841D01*
X-10592105Y53090024D01*
X-10744162Y53105000D01*
X-10744172Y53105000D01*
X-10795000Y53110006D01*
X-10845828Y53105000D01*
X-38049173Y53105000D01*
X-38100001Y53110006D01*
X-38150829Y53105000D01*
X-38150838Y53105000D01*
X-38302895Y53090024D01*
X-38497993Y53030841D01*
X-38581691Y52986104D01*
X-38677798Y52934734D01*
X-38795908Y52837803D01*
X-38835396Y52805396D01*
X-38867803Y52765908D01*
X-57845903Y33787807D01*
X-57885396Y33755396D01*
X-58014734Y33597797D01*
X-58110841Y33417992D01*
X-58170024Y33222894D01*
X-58185000Y33070837D01*
X-58185000Y33070828D01*
X-58190006Y33020000D01*
X-58855000Y33020000D01*
X-58855000Y53775000D01*
X-834999Y53775000D01*
X-835000Y835000D01*
X-835000Y835000D01*
G37*
X-835000Y835000D02*
X-58855000Y835000D01*
X-58855000Y33020000D01*
X-58190006Y33020000D01*
X-58185000Y32969172D01*
X-58184999Y7670880D01*
X-58190006Y7620042D01*
X-58170023Y7417147D01*
X-58110840Y7222049D01*
X-58014734Y7042245D01*
X-57961554Y6977446D01*
X-57885395Y6884646D01*
X-57845908Y6852240D01*
X-56848555Y5854887D01*
X-56848555Y3580041D01*
X-56834364Y3435956D01*
X-56792336Y3297408D01*
X-56724086Y3169721D01*
X-56632237Y3057803D01*
X-56520319Y2965954D01*
X-56392632Y2897704D01*
X-56254084Y2855676D01*
X-56109999Y2841485D01*
X-53109999Y2841485D01*
X-52965914Y2855676D01*
X-52827366Y2897704D01*
X-52699679Y2965954D01*
X-52587761Y3057803D01*
X-52495912Y3169721D01*
X-52427662Y3297408D01*
X-52425162Y3305652D01*
X-50423333Y3305652D01*
X-50232633Y3053037D01*
X-49823683Y2954908D01*
X-49403447Y2938447D01*
X-48988075Y3004287D01*
X-48827365Y3053037D01*
X-48636665Y3305652D01*
X-49529999Y4198986D01*
X-50423333Y3305652D01*
X-52425162Y3305652D01*
X-52385634Y3435956D01*
X-52371443Y3580041D01*
X-52371443Y4953489D01*
X-51671593Y4953489D01*
X-51605753Y4538117D01*
X-51557003Y4377407D01*
X-51304388Y4186707D01*
X-50411054Y5080041D01*
X-51304388Y5973375D01*
X-51557003Y5782675D01*
X-51655132Y5373725D01*
X-51671593Y4953489D01*
X-52371443Y4953489D01*
X-52371443Y6580041D01*
X-52385634Y6724126D01*
X-52427662Y6862674D01*
X-52495912Y6990361D01*
X-52587761Y7102279D01*
X-52699679Y7194128D01*
X-52827366Y7262378D01*
X-52965914Y7304406D01*
X-53109999Y7318597D01*
X-55384845Y7318597D01*
X-56115000Y8048752D01*
X-56115000Y14030042D01*
X-54560006Y14030042D01*
X-54555000Y13979214D01*
X-54554999Y11420878D01*
X-54560006Y11370040D01*
X-54540023Y11167145D01*
X-54480840Y10972047D01*
X-54384734Y10792243D01*
X-54289623Y10676351D01*
X-54255395Y10634644D01*
X-54215907Y10602237D01*
X-54167807Y10554137D01*
X-54135396Y10514644D01*
X-53977797Y10385306D01*
X-53797993Y10289199D01*
X-53696039Y10258271D01*
X-50366923Y6929154D01*
X-50423333Y6854430D01*
X-49529999Y5961096D01*
X-49515856Y5975238D01*
X-48634801Y5094183D01*
X-48648944Y5080041D01*
X-47755610Y4186707D01*
X-47502995Y4377407D01*
X-47465913Y4531944D01*
X-47318102Y4384133D01*
X-47285695Y4344645D01*
X-47246207Y4312238D01*
X-47128097Y4215307D01*
X-47074589Y4186707D01*
X-46948292Y4119200D01*
X-46753194Y4060017D01*
X-46688555Y4053651D01*
X-46688555Y3580041D01*
X-46674364Y3435956D01*
X-46632336Y3297408D01*
X-46564086Y3169721D01*
X-46472237Y3057803D01*
X-46360319Y2965954D01*
X-46232632Y2897704D01*
X-46094084Y2855676D01*
X-45949999Y2841485D01*
X-42949999Y2841485D01*
X-42805914Y2855676D01*
X-42667366Y2897704D01*
X-42539679Y2965954D01*
X-42427761Y3057803D01*
X-42335912Y3169721D01*
X-42267662Y3297408D01*
X-42225634Y3435956D01*
X-42211443Y3580041D01*
X-42211443Y6580041D01*
X-42225634Y6724126D01*
X-42267662Y6862674D01*
X-42335912Y6990361D01*
X-42427761Y7102279D01*
X-42539679Y7194128D01*
X-42667366Y7262378D01*
X-42805914Y7304406D01*
X-42949999Y7318597D01*
X-45949999Y7318597D01*
X-46094084Y7304406D01*
X-46232632Y7262378D01*
X-46360319Y7194128D01*
X-46472237Y7102279D01*
X-46564086Y6990361D01*
X-46632336Y6862674D01*
X-46674364Y6724126D01*
X-46679413Y6672865D01*
X-47882792Y7876244D01*
X-47915203Y7915737D01*
X-48072802Y8045075D01*
X-48252606Y8141182D01*
X-48447704Y8200365D01*
X-48599761Y8215341D01*
X-48599771Y8215341D01*
X-48650599Y8220347D01*
X-48701427Y8215341D01*
X-48725688Y8215341D01*
X-51621833Y11111485D01*
X-51219999Y11111485D01*
X-51075914Y11125676D01*
X-50937366Y11167704D01*
X-50809679Y11235954D01*
X-50697761Y11327803D01*
X-50605912Y11439721D01*
X-50571406Y11504277D01*
X-50414838Y11375785D01*
X-50139487Y11228607D01*
X-49840713Y11137975D01*
X-49607863Y11115041D01*
X-49452135Y11115041D01*
X-49219285Y11137975D01*
X-48920511Y11228607D01*
X-48645160Y11375785D01*
X-48403812Y11573854D01*
X-48259999Y11749091D01*
X-48116186Y11573854D01*
X-47874838Y11375785D01*
X-47599487Y11228607D01*
X-47300713Y11137975D01*
X-47067863Y11115041D01*
X-46912135Y11115041D01*
X-46679285Y11137975D01*
X-46380511Y11228607D01*
X-46105160Y11375785D01*
X-45863812Y11573854D01*
X-45719999Y11749091D01*
X-45576186Y11573854D01*
X-45334838Y11375785D01*
X-45059487Y11228607D01*
X-44760713Y11137975D01*
X-44527863Y11115041D01*
X-44372135Y11115041D01*
X-44139285Y11137975D01*
X-43840511Y11228607D01*
X-43565160Y11375785D01*
X-43323812Y11573854D01*
X-43125743Y11815202D01*
X-42978565Y12090553D01*
X-42887933Y12389327D01*
X-42857330Y12700041D01*
X-42887933Y13010755D01*
X-42978565Y13309529D01*
X-43125743Y13584880D01*
X-43317767Y13818863D01*
X-18354091Y38782538D01*
X-18314603Y38814945D01*
X-18185265Y38972544D01*
X-18089158Y39152348D01*
X-18029975Y39347446D01*
X-18014999Y39499503D01*
X-18014999Y39499512D01*
X-18009993Y39550340D01*
X-18014999Y39601168D01*
X-18014999Y47059019D01*
X-17923812Y47133854D01*
X-17779999Y47309091D01*
X-17636186Y47133854D01*
X-17544998Y47059018D01*
X-17544999Y37719952D01*
X-40065906Y15199044D01*
X-40105394Y15166637D01*
X-40137801Y15127149D01*
X-40137802Y15127148D01*
X-40234733Y15009038D01*
X-40330839Y14829234D01*
X-40390022Y14634136D01*
X-40410005Y14431241D01*
X-40404998Y14380403D01*
X-40404999Y7070476D01*
X-40428668Y7060672D01*
X-40794728Y6816079D01*
X-41106037Y6504770D01*
X-41350630Y6138710D01*
X-41519109Y5731966D01*
X-41604999Y5300169D01*
X-41604999Y4859913D01*
X-41519109Y4428116D01*
X-41350630Y4021372D01*
X-41106037Y3655312D01*
X-40794728Y3344003D01*
X-40428668Y3099410D01*
X-40021924Y2930931D01*
X-39590127Y2845041D01*
X-39149871Y2845041D01*
X-38718074Y2930931D01*
X-38311330Y3099410D01*
X-37945270Y3344003D01*
X-37633961Y3655312D01*
X-37389368Y4021372D01*
X-37220889Y4428116D01*
X-37134999Y4859913D01*
X-37134999Y5300169D01*
X-37220889Y5731966D01*
X-37389368Y6138710D01*
X-37633961Y6504770D01*
X-37945270Y6816079D01*
X-38311330Y7060672D01*
X-38334999Y7070476D01*
X-38334999Y7661331D01*
X-36429305Y5755636D01*
X-36439109Y5731966D01*
X-36524999Y5300169D01*
X-36524999Y4859913D01*
X-36439109Y4428116D01*
X-36270630Y4021372D01*
X-36026037Y3655312D01*
X-35714728Y3344003D01*
X-35348668Y3099410D01*
X-34941924Y2930931D01*
X-34510127Y2845041D01*
X-34069871Y2845041D01*
X-33638074Y2930931D01*
X-33231330Y3099410D01*
X-32865270Y3344003D01*
X-32553961Y3655312D01*
X-32309368Y4021372D01*
X-32140889Y4428116D01*
X-32054999Y4859913D01*
X-32054999Y5300169D01*
X-32140889Y5731966D01*
X-32309368Y6138710D01*
X-32553961Y6504770D01*
X-32629232Y6580041D01*
X-31448655Y6580041D01*
X-31448655Y3580041D01*
X-31434464Y3435956D01*
X-31392436Y3297408D01*
X-31324186Y3169721D01*
X-31232337Y3057803D01*
X-31120419Y2965954D01*
X-30992732Y2897704D01*
X-30854184Y2855676D01*
X-30710099Y2841485D01*
X-27710099Y2841485D01*
X-27566014Y2855676D01*
X-27427466Y2897704D01*
X-27299779Y2965954D01*
X-27187861Y3057803D01*
X-27096012Y3169721D01*
X-27027762Y3297408D01*
X-26985734Y3435956D01*
X-26971543Y3580041D01*
X-26971543Y4917153D01*
X-26331543Y5468866D01*
X-26365099Y5300169D01*
X-26365099Y4859913D01*
X-26279209Y4428116D01*
X-26110730Y4021372D01*
X-25866137Y3655312D01*
X-25554828Y3344003D01*
X-25188768Y3099410D01*
X-24782024Y2930931D01*
X-24350227Y2845041D01*
X-23909971Y2845041D01*
X-23478174Y2930931D01*
X-23071430Y3099410D01*
X-22705370Y3344003D01*
X-22394061Y3655312D01*
X-22149468Y4021372D01*
X-21980989Y4428116D01*
X-21895099Y4859913D01*
X-21895099Y5300169D01*
X-21900889Y5329276D01*
X-19735515Y8035906D01*
X-20052890Y7083818D01*
X-20108768Y7060672D01*
X-20474828Y6816079D01*
X-20786137Y6504770D01*
X-21030730Y6138710D01*
X-21199209Y5731966D01*
X-21285099Y5300169D01*
X-21285099Y4859913D01*
X-21199209Y4428116D01*
X-21030730Y4021372D01*
X-20786137Y3655312D01*
X-20474828Y3344003D01*
X-20108768Y3099410D01*
X-19702024Y2930931D01*
X-19270227Y2845041D01*
X-18829971Y2845041D01*
X-18398174Y2930931D01*
X-17991430Y3099410D01*
X-17625370Y3344003D01*
X-17314061Y3655312D01*
X-17069468Y4021372D01*
X-16900989Y4428116D01*
X-16815099Y4859913D01*
X-16815099Y5300169D01*
X-16900989Y5731966D01*
X-17045634Y6081169D01*
X-15554999Y10552899D01*
X-15554998Y6655909D01*
X-15706137Y6504770D01*
X-15950730Y6138710D01*
X-16119209Y5731966D01*
X-16205099Y5300169D01*
X-16205099Y4859913D01*
X-16119209Y4428116D01*
X-15950730Y4021372D01*
X-15706137Y3655312D01*
X-15394828Y3344003D01*
X-15028768Y3099410D01*
X-14622024Y2930931D01*
X-14190227Y2845041D01*
X-13749971Y2845041D01*
X-13318174Y2930931D01*
X-12911430Y3099410D01*
X-12602767Y3305652D01*
X-9783433Y3305652D01*
X-9592733Y3053037D01*
X-9183783Y2954908D01*
X-8763547Y2938447D01*
X-8348175Y3004287D01*
X-8187465Y3053037D01*
X-7996765Y3305652D01*
X-8890099Y4198986D01*
X-9783433Y3305652D01*
X-12602767Y3305652D01*
X-12545370Y3344003D01*
X-12234061Y3655312D01*
X-11989468Y4021372D01*
X-11820989Y4428116D01*
X-11735099Y4859913D01*
X-11735099Y4953489D01*
X-11031693Y4953489D01*
X-10965853Y4538117D01*
X-10917103Y4377407D01*
X-10664488Y4186707D01*
X-9771154Y5080041D01*
X-8009044Y5080041D01*
X-7115710Y4186707D01*
X-6863095Y4377407D01*
X-6764966Y4786357D01*
X-6748505Y5206593D01*
X-6814345Y5621965D01*
X-6863095Y5782675D01*
X-7115710Y5973375D01*
X-8009044Y5080041D01*
X-9771154Y5080041D01*
X-10664488Y5973375D01*
X-10917103Y5782675D01*
X-11015232Y5373725D01*
X-11031693Y4953489D01*
X-11735099Y4953489D01*
X-11735099Y5300169D01*
X-11820989Y5731966D01*
X-11989468Y6138710D01*
X-12234061Y6504770D01*
X-12384999Y6655708D01*
X-12384999Y6854430D01*
X-9783433Y6854430D01*
X-8890099Y5961096D01*
X-7996765Y6854430D01*
X-8187465Y7107045D01*
X-8596415Y7205174D01*
X-9016651Y7221635D01*
X-9432023Y7155795D01*
X-9592733Y7107045D01*
X-9783433Y6854430D01*
X-12384999Y6854430D01*
X-12384999Y11222310D01*
X-12279999Y11211969D01*
X-12211749Y11215041D01*
X-12052999Y11373791D01*
X-12052999Y12077041D01*
X-12072999Y12077041D01*
X-12072999Y13323041D01*
X-12052999Y13323041D01*
X-12052999Y14026291D01*
X-10806999Y14026291D01*
X-10806999Y13323041D01*
X-10786999Y13323041D01*
X-10786999Y12077041D01*
X-10806999Y12077041D01*
X-10806999Y11373791D01*
X-10648249Y11215041D01*
X-10579999Y11211969D01*
X-10455517Y11224229D01*
X-10335819Y11260539D01*
X-10225505Y11319504D01*
X-10128814Y11398856D01*
X-10049462Y11495547D01*
X-10023865Y11543436D01*
X-6002969Y5511972D01*
X-6045099Y5300169D01*
X-6045099Y4859913D01*
X-5959209Y4428116D01*
X-5790730Y4021372D01*
X-5546137Y3655312D01*
X-5234828Y3344003D01*
X-4868768Y3099410D01*
X-4462024Y2930931D01*
X-4030227Y2845041D01*
X-3589971Y2845041D01*
X-3158174Y2930931D01*
X-2751430Y3099410D01*
X-2385370Y3344003D01*
X-2074061Y3655312D01*
X-1829468Y4021372D01*
X-1660989Y4428116D01*
X-1575099Y4859913D01*
X-1575099Y5300169D01*
X-1660989Y5731966D01*
X-1829468Y6138710D01*
X-2074061Y6504770D01*
X-2385370Y6816079D01*
X-2751430Y7060672D01*
X-3158174Y7229151D01*
X-3365364Y7270364D01*
X-7528463Y13515134D01*
X-7565743Y13584880D01*
X-7664730Y13705496D01*
X-7762625Y13825038D01*
X-7763272Y13825570D01*
X-7763812Y13826228D01*
X-7884426Y13925214D01*
X-8003763Y14023362D01*
X-8004506Y14023760D01*
X-8005160Y14024297D01*
X-8142365Y14097635D01*
X-8278959Y14170831D01*
X-8279766Y14171077D01*
X-8280511Y14171475D01*
X-8429293Y14216607D01*
X-8577637Y14261778D01*
X-8578476Y14261861D01*
X-8579285Y14262107D01*
X-8734552Y14277400D01*
X-8888320Y14292708D01*
X-8967017Y14285041D01*
X-8967863Y14285041D01*
X-9045007Y14277443D01*
X-9199064Y14262434D01*
X-9199872Y14262190D01*
X-9200713Y14262107D01*
X-9349504Y14216972D01*
X-9497934Y14172117D01*
X-9498678Y14171721D01*
X-9499487Y14171475D01*
X-9636921Y14098015D01*
X-9773440Y14025229D01*
X-9774090Y14024697D01*
X-9774838Y14024297D01*
X-9895612Y13925180D01*
X-10010297Y13831263D01*
X-10049462Y13904535D01*
X-10128814Y14001226D01*
X-10225505Y14080578D01*
X-10335819Y14139543D01*
X-10455517Y14175853D01*
X-10579999Y14188113D01*
X-10648249Y14185041D01*
X-10806999Y14026291D01*
X-12052999Y14026291D01*
X-12211749Y14185041D01*
X-12279999Y14188113D01*
X-12404481Y14175853D01*
X-12524179Y14139543D01*
X-12634493Y14080578D01*
X-12731184Y14001226D01*
X-12810536Y13904535D01*
X-12849776Y13831123D01*
X-13085160Y14024297D01*
X-13360511Y14171475D01*
X-13659285Y14262107D01*
X-13892135Y14285041D01*
X-13969999Y14292710D01*
X-14047863Y14285041D01*
X-14280713Y14262107D01*
X-14579487Y14171475D01*
X-14854838Y14024297D01*
X-15096186Y13826228D01*
X-15237579Y13653940D01*
X-15251789Y13676515D01*
X-15320454Y13749025D01*
X-15383812Y13826228D01*
X-15427561Y13862131D01*
X-15466466Y13903216D01*
X-15547952Y13960934D01*
X-15625160Y14024297D01*
X-15675070Y14050975D01*
X-15721245Y14083681D01*
X-15812431Y14124395D01*
X-15900511Y14171475D01*
X-15954665Y14187902D01*
X-16006335Y14210973D01*
X-16103716Y14233116D01*
X-16199285Y14262107D01*
X-16255602Y14267654D01*
X-16310781Y14280201D01*
X-16410608Y14282921D01*
X-16432135Y14285041D01*
X-16488433Y14285041D01*
X-16622883Y14288704D01*
X-16721324Y14271896D01*
X-16820713Y14262107D01*
X-16874864Y14245680D01*
X-16930647Y14236156D01*
X-17023920Y14200465D01*
X-17119487Y14171475D01*
X-17169396Y14144798D01*
X-17222246Y14124575D01*
X-17306760Y14071375D01*
X-17394838Y14024297D01*
X-17438583Y13988397D01*
X-17486473Y13958251D01*
X-17558986Y13889584D01*
X-17636186Y13826228D01*
X-17672087Y13782483D01*
X-17713175Y13743574D01*
X-17770900Y13662079D01*
X-17779368Y13651760D01*
X-17830854Y13712958D01*
X-17923812Y13826228D01*
X-17931357Y13832420D01*
X-17937633Y13839880D01*
X-18051883Y13931333D01*
X-18165160Y14024297D01*
X-18173770Y14028899D01*
X-18181379Y14034990D01*
X-18311271Y14102395D01*
X-18440511Y14171475D01*
X-18449851Y14174308D01*
X-18458505Y14178799D01*
X-18599077Y14219575D01*
X-18739285Y14262107D01*
X-18748998Y14263064D01*
X-18758362Y14265780D01*
X-18904205Y14278350D01*
X-18972135Y14285041D01*
X-18981830Y14285041D01*
X-19069426Y14292591D01*
X-19214928Y14276466D01*
X-19360713Y14262107D01*
X-19370052Y14259274D01*
X-19379744Y14258200D01*
X-19519321Y14213994D01*
X-19659487Y14171475D01*
X-19668091Y14166876D01*
X-19677390Y14163931D01*
X-19805657Y14093345D01*
X-19934838Y14024297D01*
X-19942382Y14018106D01*
X-19950926Y14013404D01*
X-20062938Y13919168D01*
X-20176186Y13826228D01*
X-20182378Y13818683D01*
X-20189838Y13812407D01*
X-20281310Y13698134D01*
X-20319999Y13650991D01*
X-20364998Y13705822D01*
X-20462642Y13825055D01*
X-20463280Y13825580D01*
X-20463812Y13826228D01*
X-20584859Y13925568D01*
X-20703783Y14023374D01*
X-20704510Y14023764D01*
X-20705160Y14024297D01*
X-20843314Y14098142D01*
X-20978981Y14170839D01*
X-20979771Y14171080D01*
X-20980511Y14171475D01*
X-21130053Y14216838D01*
X-21277660Y14261782D01*
X-21278484Y14261864D01*
X-21279285Y14262107D01*
X-21434799Y14277424D01*
X-21588342Y14292708D01*
X-21667026Y14285041D01*
X-21667863Y14285041D01*
X-21745319Y14277412D01*
X-21899087Y14262429D01*
X-21899881Y14262189D01*
X-21900713Y14262107D01*
X-22049827Y14216874D01*
X-22197955Y14172108D01*
X-22198687Y14171718D01*
X-22199487Y14171475D01*
X-22336989Y14097979D01*
X-22473460Y14025216D01*
X-22474101Y14024691D01*
X-22474838Y14024297D01*
X-22595547Y13925234D01*
X-22710296Y13831261D01*
X-22749462Y13904535D01*
X-22828814Y14001226D01*
X-22925505Y14080578D01*
X-23035819Y14139543D01*
X-23155517Y14175853D01*
X-23279999Y14188113D01*
X-23348249Y14185041D01*
X-23506999Y14026291D01*
X-23506999Y13323041D01*
X-23486999Y13323041D01*
X-23486999Y12106290D01*
X-23544129Y12057041D01*
X-24752999Y12057041D01*
X-24752999Y12077041D01*
X-26046999Y12077041D01*
X-26046999Y11373791D01*
X-25888249Y11215041D01*
X-25819999Y11211969D01*
X-25695517Y11224229D01*
X-25575819Y11260539D01*
X-25465505Y11319504D01*
X-25399999Y11373263D01*
X-25334493Y11319504D01*
X-25224179Y11260539D01*
X-25104481Y11224229D01*
X-24979999Y11211969D01*
X-24911749Y11215041D01*
X-24753001Y11373789D01*
X-24753001Y11215041D01*
X-24520868Y11215041D01*
X-29040833Y7318597D01*
X-30710099Y7318597D01*
X-30854184Y7304406D01*
X-30992732Y7262378D01*
X-31120419Y7194128D01*
X-31232337Y7102279D01*
X-31324186Y6990361D01*
X-31392436Y6862674D01*
X-31434464Y6724126D01*
X-31448655Y6580041D01*
X-32629232Y6580041D01*
X-32865270Y6816079D01*
X-33231330Y7060672D01*
X-33638074Y7229151D01*
X-34069871Y7315041D01*
X-34510127Y7315041D01*
X-34941924Y7229151D01*
X-34965594Y7219347D01*
X-37245399Y9499151D01*
X-37245399Y12077041D01*
X-36206999Y12077041D01*
X-36206999Y11373791D01*
X-36048249Y11215041D01*
X-35979999Y11211969D01*
X-35855517Y11224229D01*
X-35735819Y11260539D01*
X-35625505Y11319504D01*
X-35559999Y11373263D01*
X-35494493Y11319504D01*
X-35384179Y11260539D01*
X-35264481Y11224229D01*
X-35139999Y11211969D01*
X-35071749Y11215041D01*
X-34912999Y11373791D01*
X-34912999Y12077041D01*
X-33666999Y12077041D01*
X-33666999Y11373791D01*
X-33508249Y11215041D01*
X-33439999Y11211969D01*
X-33315517Y11224229D01*
X-33195819Y11260539D01*
X-33085505Y11319504D01*
X-33019999Y11373263D01*
X-32954493Y11319504D01*
X-32844179Y11260539D01*
X-32724481Y11224229D01*
X-32599999Y11211969D01*
X-32531749Y11215041D01*
X-32372999Y11373791D01*
X-32372999Y12077041D01*
X-31126999Y12077041D01*
X-31126999Y11373791D01*
X-30968249Y11215041D01*
X-30899999Y11211969D01*
X-30775517Y11224229D01*
X-30655819Y11260539D01*
X-30545505Y11319504D01*
X-30479999Y11373263D01*
X-30414493Y11319504D01*
X-30304179Y11260539D01*
X-30184481Y11224229D01*
X-30059999Y11211969D01*
X-29991749Y11215041D01*
X-29832999Y11373791D01*
X-29832999Y12077041D01*
X-28586999Y12077041D01*
X-28586999Y11373791D01*
X-28428249Y11215041D01*
X-28359999Y11211969D01*
X-28235517Y11224229D01*
X-28115819Y11260539D01*
X-28005505Y11319504D01*
X-27939999Y11373263D01*
X-27874493Y11319504D01*
X-27764179Y11260539D01*
X-27644481Y11224229D01*
X-27519999Y11211969D01*
X-27451749Y11215041D01*
X-27292999Y11373791D01*
X-27292999Y12077041D01*
X-28586999Y12077041D01*
X-29832999Y12077041D01*
X-31126999Y12077041D01*
X-32372999Y12077041D01*
X-33666999Y12077041D01*
X-34912999Y12077041D01*
X-36206999Y12077041D01*
X-37245399Y12077041D01*
X-37245399Y13818831D01*
X-37037939Y14026291D01*
X-36206999Y14026291D01*
X-36206999Y13323041D01*
X-34912999Y13323041D01*
X-34912999Y14026291D01*
X-33666999Y14026291D01*
X-33666999Y13323041D01*
X-32372999Y13323041D01*
X-32372999Y14026291D01*
X-31126999Y14026291D01*
X-31126999Y13323041D01*
X-29832999Y13323041D01*
X-29832999Y14026291D01*
X-28586999Y14026291D01*
X-28586999Y13323041D01*
X-27292999Y13323041D01*
X-27292999Y14026291D01*
X-26046999Y14026291D01*
X-26046999Y13323041D01*
X-24752999Y13323041D01*
X-24752999Y14026291D01*
X-24911749Y14185041D01*
X-24979999Y14188113D01*
X-25104481Y14175853D01*
X-25224179Y14139543D01*
X-25334493Y14080578D01*
X-25399999Y14026819D01*
X-25465505Y14080578D01*
X-25575819Y14139543D01*
X-25695517Y14175853D01*
X-25819999Y14188113D01*
X-25888249Y14185041D01*
X-26046999Y14026291D01*
X-27292999Y14026291D01*
X-27451749Y14185041D01*
X-27519999Y14188113D01*
X-27644481Y14175853D01*
X-27764179Y14139543D01*
X-27874493Y14080578D01*
X-27939999Y14026819D01*
X-28005505Y14080578D01*
X-28115819Y14139543D01*
X-28235517Y14175853D01*
X-28359999Y14188113D01*
X-28428249Y14185041D01*
X-28586999Y14026291D01*
X-29832999Y14026291D01*
X-29991749Y14185041D01*
X-30059999Y14188113D01*
X-30184481Y14175853D01*
X-30304179Y14139543D01*
X-30414493Y14080578D01*
X-30479999Y14026819D01*
X-30545505Y14080578D01*
X-30655819Y14139543D01*
X-30775517Y14175853D01*
X-30899999Y14188113D01*
X-30968249Y14185041D01*
X-31126999Y14026291D01*
X-32372999Y14026291D01*
X-32531749Y14185041D01*
X-32599999Y14188113D01*
X-32724481Y14175853D01*
X-32844179Y14139543D01*
X-32954493Y14080578D01*
X-33019999Y14026819D01*
X-33085505Y14080578D01*
X-33195819Y14139543D01*
X-33315517Y14175853D01*
X-33439999Y14188113D01*
X-33508249Y14185041D01*
X-33666999Y14026291D01*
X-34912999Y14026291D01*
X-35071749Y14185041D01*
X-35139999Y14188113D01*
X-35264481Y14175853D01*
X-35384179Y14139543D01*
X-35494493Y14080578D01*
X-35559999Y14026819D01*
X-35625505Y14080578D01*
X-35735819Y14139543D01*
X-35855517Y14175853D01*
X-35979999Y14188113D01*
X-36048249Y14185041D01*
X-36206999Y14026291D01*
X-37037939Y14026291D01*
X-13274091Y37790138D01*
X-13234603Y37822545D01*
X-13196447Y37869038D01*
X-13105265Y37980143D01*
X-13011282Y38155975D01*
X-13009158Y38159948D01*
X-12949975Y38355046D01*
X-12934999Y38507103D01*
X-12934999Y38507112D01*
X-12929993Y38557940D01*
X-12934999Y38608768D01*
X-12934999Y47059019D01*
X-12849776Y47128959D01*
X-12810536Y47055547D01*
X-12731184Y46958856D01*
X-12634493Y46879504D01*
X-12524179Y46820539D01*
X-12404481Y46784229D01*
X-12279999Y46771969D01*
X-12211749Y46775041D01*
X-12052999Y46933791D01*
X-12052999Y47637041D01*
X-12072999Y47637041D01*
X-12072999Y48883041D01*
X-12052999Y48883041D01*
X-12052999Y49586291D01*
X-12211749Y49745041D01*
X-12279999Y49748113D01*
X-12404481Y49735853D01*
X-12524179Y49699543D01*
X-12634493Y49640578D01*
X-12731184Y49561226D01*
X-12810536Y49464535D01*
X-12849776Y49391123D01*
X-13085160Y49584297D01*
X-13360511Y49731475D01*
X-13659285Y49822107D01*
X-13892135Y49845041D01*
X-14047863Y49845041D01*
X-14280713Y49822107D01*
X-14579487Y49731475D01*
X-14854838Y49584297D01*
X-15096186Y49386228D01*
X-15239999Y49210991D01*
X-15383812Y49386228D01*
X-15625160Y49584297D01*
X-15900511Y49731475D01*
X-16199285Y49822107D01*
X-16432135Y49845041D01*
X-16587863Y49845041D01*
X-16820713Y49822107D01*
X-17119487Y49731475D01*
X-17394838Y49584297D01*
X-17636186Y49386228D01*
X-17779999Y49210991D01*
X-17923812Y49386228D01*
X-18165160Y49584297D01*
X-18440511Y49731475D01*
X-18739285Y49822107D01*
X-18972135Y49845041D01*
X-19127863Y49845041D01*
X-19360713Y49822107D01*
X-19659487Y49731475D01*
X-19934838Y49584297D01*
X-20176186Y49386228D01*
X-20319999Y49210991D01*
X-20463812Y49386228D01*
X-20705160Y49584297D01*
X-20980511Y49731475D01*
X-21279285Y49822107D01*
X-21512135Y49845041D01*
X-21667863Y49845041D01*
X-21900713Y49822107D01*
X-22199487Y49731475D01*
X-22474838Y49584297D01*
X-22716186Y49386228D01*
X-22859999Y49210991D01*
X-23003812Y49386228D01*
X-23245160Y49584297D01*
X-23520511Y49731475D01*
X-23819285Y49822107D01*
X-24052135Y49845041D01*
X-24207863Y49845041D01*
X-24440713Y49822107D01*
X-24739487Y49731475D01*
X-25014838Y49584297D01*
X-25256186Y49386228D01*
X-25399999Y49210991D01*
X-25543812Y49386228D01*
X-25785160Y49584297D01*
X-26060511Y49731475D01*
X-26359285Y49822107D01*
X-26592135Y49845041D01*
X-26747863Y49845041D01*
X-26980713Y49822107D01*
X-27279487Y49731475D01*
X-27554838Y49584297D01*
X-27790222Y49391123D01*
X-27829462Y49464535D01*
X-27908814Y49561226D01*
X-28005505Y49640578D01*
X-28115819Y49699543D01*
X-28235517Y49735853D01*
X-28359999Y49748113D01*
X-28428249Y49745041D01*
X-28586999Y49586291D01*
X-28586999Y48883041D01*
X-28566999Y48883041D01*
X-28566999Y47637041D01*
X-28586999Y47637041D01*
X-28586999Y46933791D01*
X-28428249Y46775041D01*
X-28359999Y46771969D01*
X-28235517Y46784229D01*
X-28115819Y46820539D01*
X-28005505Y46879504D01*
X-27908814Y46958856D01*
X-27829462Y47055547D01*
X-27790222Y47128959D01*
X-27704998Y47059018D01*
X-27704999Y39163712D01*
X-30714999Y36153712D01*
X-30714999Y47059019D01*
X-30629776Y47128959D01*
X-30590536Y47055547D01*
X-30511184Y46958856D01*
X-30414493Y46879504D01*
X-30304179Y46820539D01*
X-30184481Y46784229D01*
X-30059999Y46771969D01*
X-29991749Y46775041D01*
X-29832999Y46933791D01*
X-29832999Y47637041D01*
X-29852999Y47637041D01*
X-29852999Y48883041D01*
X-29832999Y48883041D01*
X-29832999Y49586291D01*
X-29991749Y49745041D01*
X-30059999Y49748113D01*
X-30184481Y49735853D01*
X-30304179Y49699543D01*
X-30414493Y49640578D01*
X-30511184Y49561226D01*
X-30590536Y49464535D01*
X-30629776Y49391123D01*
X-30865160Y49584297D01*
X-31140511Y49731475D01*
X-31439285Y49822107D01*
X-31672135Y49845041D01*
X-31827863Y49845041D01*
X-32060713Y49822107D01*
X-32359487Y49731475D01*
X-32634838Y49584297D01*
X-32876186Y49386228D01*
X-33074255Y49144880D01*
X-33086069Y49122778D01*
X-33240926Y49311108D01*
X-33463796Y49493983D01*
X-33666999Y49430857D01*
X-33666999Y48883041D01*
X-33646999Y48883041D01*
X-33646999Y47637041D01*
X-33666999Y47637041D01*
X-33666999Y47089225D01*
X-33463796Y47026099D01*
X-33240926Y47208974D01*
X-33086069Y47397304D01*
X-33074255Y47375202D01*
X-32876186Y47133854D01*
X-32784999Y47059019D01*
X-32784998Y35988713D01*
X-53603970Y15169740D01*
X-53797993Y15110883D01*
X-53977797Y15014776D01*
X-54135396Y14885438D01*
X-54167807Y14845945D01*
X-54215903Y14797849D01*
X-54255396Y14765438D01*
X-54384734Y14607839D01*
X-54480841Y14428034D01*
X-54540024Y14232936D01*
X-54555000Y14080879D01*
X-54555000Y14080870D01*
X-54560006Y14030042D01*
X-56115000Y14030042D01*
X-56115000Y21170041D01*
X-53658555Y21170041D01*
X-53658555Y19470041D01*
X-53644364Y19325956D01*
X-53602336Y19187408D01*
X-53534086Y19059721D01*
X-53442237Y18947803D01*
X-53330319Y18855954D01*
X-53202632Y18787704D01*
X-53064084Y18745676D01*
X-52919999Y18731485D01*
X-51219999Y18731485D01*
X-51075914Y18745676D01*
X-50937366Y18787704D01*
X-50809679Y18855954D01*
X-50697761Y18947803D01*
X-50605912Y19059721D01*
X-50537662Y19187408D01*
X-50495634Y19325956D01*
X-50481443Y19470041D01*
X-50481443Y21170041D01*
X-50495634Y21314126D01*
X-50537662Y21452674D01*
X-50605912Y21580361D01*
X-50691716Y21684914D01*
X-36134091Y36242538D01*
X-36094603Y36274945D01*
X-36049092Y36330400D01*
X-35965265Y36432543D01*
X-35913895Y36528650D01*
X-35869158Y36612348D01*
X-35809975Y36807446D01*
X-35794999Y36959503D01*
X-35794999Y36959506D01*
X-35789992Y37010341D01*
X-35794999Y37061176D01*
X-35794999Y47059019D01*
X-35703812Y47133854D01*
X-35505743Y47375202D01*
X-35493929Y47397304D01*
X-35339072Y47208974D01*
X-35116202Y47026099D01*
X-34912999Y47089225D01*
X-34912999Y47637041D01*
X-34932999Y47637041D01*
X-34932999Y48883041D01*
X-34912999Y48883041D01*
X-34912999Y49430857D01*
X-35116202Y49493983D01*
X-35339072Y49311108D01*
X-35493929Y49122778D01*
X-35505743Y49144880D01*
X-35703812Y49386228D01*
X-35945160Y49584297D01*
X-36220511Y49731475D01*
X-36519285Y49822107D01*
X-36752135Y49845041D01*
X-36907863Y49845041D01*
X-37140713Y49822107D01*
X-37439487Y49731475D01*
X-37714838Y49584297D01*
X-37956186Y49386228D01*
X-38154255Y49144880D01*
X-38301433Y48869529D01*
X-38392065Y48570755D01*
X-38422668Y48260041D01*
X-38392065Y47949327D01*
X-38301433Y47650553D01*
X-38154255Y47375202D01*
X-37956186Y47133854D01*
X-37864999Y47059019D01*
X-37864998Y37439053D01*
X-52765906Y22538144D01*
X-52805394Y22505737D01*
X-52837801Y22466249D01*
X-52837802Y22466248D01*
X-52934733Y22348138D01*
X-53030839Y22168334D01*
X-53090022Y21973236D01*
X-53098824Y21883868D01*
X-53202632Y21852378D01*
X-53330319Y21784128D01*
X-53442237Y21692279D01*
X-53534086Y21580361D01*
X-53602336Y21452674D01*
X-53644364Y21314126D01*
X-53658555Y21170041D01*
X-56115000Y21170041D01*
X-56115000Y32591290D01*
X-37671289Y51035000D01*
X-11223710Y51035000D01*
X-9924998Y49736287D01*
X-9924998Y49461064D01*
X-10010222Y49391123D01*
X-10049462Y49464535D01*
X-10128814Y49561226D01*
X-10225505Y49640578D01*
X-10335819Y49699543D01*
X-10455517Y49735853D01*
X-10579999Y49748113D01*
X-10648249Y49745041D01*
X-10806999Y49586291D01*
X-10806999Y48883041D01*
X-10786999Y48883041D01*
X-10786999Y47637041D01*
X-10806999Y47637041D01*
X-10806999Y46933791D01*
X-10648249Y46775041D01*
X-10579999Y46771969D01*
X-10455517Y46784229D01*
X-10335819Y46820539D01*
X-10225505Y46879504D01*
X-10128814Y46958856D01*
X-10049462Y47055547D01*
X-10010222Y47128959D01*
X-9774838Y46935785D01*
X-9499487Y46788607D01*
X-9200713Y46697975D01*
X-8967863Y46675041D01*
X-8812135Y46675041D01*
X-8579285Y46697975D01*
X-8280511Y46788607D01*
X-8005160Y46935785D01*
X-7763812Y47133854D01*
X-7565743Y47375202D01*
X-7418565Y47650553D01*
X-7327933Y47949327D01*
X-7297330Y48260041D01*
X-7327933Y48570755D01*
X-7418565Y48869529D01*
X-7565743Y49144880D01*
X-7763812Y49386228D01*
X-7854999Y49461063D01*
X-7854999Y50114172D01*
X-7849993Y50165000D01*
X-7854999Y50215828D01*
X-7854999Y50215837D01*
X-7869975Y50367894D01*
X-7929158Y50562992D01*
X-7973895Y50646690D01*
X-8025265Y50742797D01*
X-8122196Y50860907D01*
X-8154603Y50900395D01*
X-8194091Y50932802D01*
X-10027193Y52765903D01*
X-10059604Y52805396D01*
X-10217203Y52934734D01*
X-10397007Y53030841D01*
X-10592105Y53090024D01*
X-10744162Y53105000D01*
X-10744172Y53105000D01*
X-10795000Y53110006D01*
X-10845828Y53105000D01*
X-38049173Y53105000D01*
X-38100001Y53110006D01*
X-38150829Y53105000D01*
X-38150838Y53105000D01*
X-38302895Y53090024D01*
X-38497993Y53030841D01*
X-38581691Y52986104D01*
X-38677798Y52934734D01*
X-38795908Y52837803D01*
X-38835396Y52805396D01*
X-38867803Y52765908D01*
X-57845903Y33787807D01*
X-57885396Y33755396D01*
X-58014734Y33597797D01*
X-58110841Y33417992D01*
X-58170024Y33222894D01*
X-58185000Y33070837D01*
X-58185000Y33070828D01*
X-58190006Y33020000D01*
X-58855000Y33020000D01*
X-58855000Y53775000D01*
X-834999Y53775000D01*
X-835000Y835000D01*
M02*
