G04 #@! TF.FileFunction,Copper,L1,Top,Signal*
%FSLAX46Y46*%
G04 Gerber Fmt 4.6, Leading zero omitted, Abs format (unit mm)*
G04 Created by KiCad (PCBNEW 4.0.2+dfsg1-stable) date ons 15 feb 2017 12:04:56 CET*
%MOMM*%
G01*
G04 APERTURE LIST*
%ADD10C,0.150000*%
%ADD11C,4.850000*%
%ADD12R,1.000000X1.600000*%
%ADD13R,0.900000X1.700000*%
%ADD14R,1.060000X0.650000*%
%ADD15R,3.700000X1.727200*%
%ADD16O,3.700000X1.727200*%
%ADD17C,13.000000*%
%ADD18C,0.350000*%
%ADD19C,0.400000*%
%ADD20C,0.270000*%
G04 APERTURE END LIST*
D10*
D11*
X2540000Y19050000D03*
D12*
X9120000Y4381500D03*
X6120000Y4381500D03*
X6120000Y14605000D03*
X9120000Y14605000D03*
D13*
X6106500Y7239000D03*
X9006500Y7239000D03*
D14*
X5377000Y11237000D03*
X5377000Y10287000D03*
X5377000Y9337000D03*
X7577000Y9337000D03*
X7577000Y11237000D03*
X7577000Y10287000D03*
D15*
X1905000Y6985000D03*
D16*
X1905000Y9525000D03*
X1905000Y12065000D03*
X1905000Y14605000D03*
D11*
X2540000Y2540000D03*
D17*
X16510000Y10795000D03*
D18*
X9120000Y4381500D02*
X10096500Y4381500D01*
X10096500Y4381500D02*
X16510000Y10795000D01*
X6106500Y7239000D02*
X6262500Y7239000D01*
X6262500Y7239000D02*
X9120000Y4381500D01*
X5377000Y11237000D02*
X6223000Y10922000D01*
X6748780Y7893502D02*
X6183500Y6921500D01*
X6731000Y10414000D02*
X6748780Y7893502D01*
X6223000Y10922000D02*
X6731000Y10414000D01*
D19*
X7577000Y10287000D02*
X8636000Y10414000D01*
X8737600Y11987400D02*
X6120000Y14605000D01*
X8763000Y10795000D02*
X8737600Y11987400D01*
X8636000Y10414000D02*
X8763000Y10795000D01*
X6120000Y14605000D02*
X1905000Y14605000D01*
X2921000Y9334500D02*
X5377000Y9337000D01*
X6096000Y12700000D02*
X3429000Y12700000D01*
X3429000Y12700000D02*
X1905000Y12065000D01*
X7577000Y11237000D02*
X6096000Y12700000D01*
D18*
X7577000Y9337000D02*
X7577000Y8605000D01*
X7577000Y8605000D02*
X9006500Y7239000D01*
D20*
G36*
X16630522Y21024646D02*
X18578899Y20436395D01*
X20375904Y19480912D01*
X21953101Y18194581D01*
X23250410Y16626404D01*
X24218419Y14836109D01*
X24820256Y12891887D01*
X25034804Y10850596D01*
X25034937Y10812214D01*
X24834646Y8769478D01*
X24246395Y6821101D01*
X23290910Y5024093D01*
X22004579Y3446897D01*
X20436404Y2149590D01*
X18646110Y1181581D01*
X16701887Y579744D01*
X14660606Y365196D01*
X14604299Y365000D01*
X4226561Y365000D01*
X4235075Y370403D01*
X4624203Y740964D01*
X4933944Y1180051D01*
X5152500Y1670937D01*
X5271548Y2194925D01*
X5280118Y2808671D01*
X5175748Y3335779D01*
X4970983Y3832576D01*
X4692485Y4251750D01*
X5377000Y4251750D01*
X5377000Y3557566D01*
X5386339Y3510619D01*
X5404656Y3466396D01*
X5431250Y3426596D01*
X5465097Y3392749D01*
X5504897Y3366156D01*
X5549120Y3347838D01*
X5596067Y3338500D01*
X5990250Y3338500D01*
X6051000Y3399250D01*
X6051000Y4312500D01*
X6189000Y4312500D01*
X6189000Y3399250D01*
X6249750Y3338500D01*
X6643933Y3338500D01*
X6690880Y3347838D01*
X6735103Y3366156D01*
X6774903Y3392749D01*
X6808750Y3426596D01*
X6835344Y3466396D01*
X6853661Y3510619D01*
X6863000Y3557566D01*
X6863000Y4251750D01*
X6802250Y4312500D01*
X6189000Y4312500D01*
X6051000Y4312500D01*
X5437750Y4312500D01*
X5377000Y4251750D01*
X4692485Y4251750D01*
X4673622Y4280140D01*
X4294993Y4661422D01*
X3849516Y4961899D01*
X3354161Y5170128D01*
X3182163Y5205434D01*
X5377000Y5205434D01*
X5377000Y4511250D01*
X5437750Y4450500D01*
X6051000Y4450500D01*
X6051000Y5363750D01*
X6189000Y5363750D01*
X6189000Y4450500D01*
X6802250Y4450500D01*
X6863000Y4511250D01*
X6863000Y5205434D01*
X6853661Y5252381D01*
X6835344Y5296604D01*
X6808750Y5336404D01*
X6774903Y5370251D01*
X6735103Y5396844D01*
X6690880Y5415162D01*
X6643933Y5424500D01*
X6249750Y5424500D01*
X6189000Y5363750D01*
X6051000Y5363750D01*
X5990250Y5424500D01*
X5596067Y5424500D01*
X5549120Y5415162D01*
X5504897Y5396844D01*
X5465097Y5370251D01*
X5431250Y5336404D01*
X5404656Y5296604D01*
X5386339Y5252381D01*
X5377000Y5205434D01*
X3182163Y5205434D01*
X2827794Y5278175D01*
X2290465Y5281927D01*
X1762641Y5181239D01*
X1264426Y4979947D01*
X814798Y4685718D01*
X430882Y4309760D01*
X365000Y4213542D01*
X365000Y5878400D01*
X1775250Y5878400D01*
X1836000Y5939150D01*
X1836000Y6916000D01*
X1974000Y6916000D01*
X1974000Y5939150D01*
X2034750Y5878400D01*
X3778933Y5878400D01*
X3825880Y5887738D01*
X3870103Y5906056D01*
X3909903Y5932649D01*
X3943750Y5966496D01*
X3970344Y6006296D01*
X3988661Y6050519D01*
X3998000Y6097466D01*
X3998000Y6855250D01*
X3937250Y6916000D01*
X1974000Y6916000D01*
X1836000Y6916000D01*
X1816000Y6916000D01*
X1816000Y7054000D01*
X1836000Y7054000D01*
X1836000Y8030850D01*
X1974000Y8030850D01*
X1974000Y7054000D01*
X3937250Y7054000D01*
X3998000Y7114750D01*
X3998000Y7872534D01*
X3988661Y7919481D01*
X3970344Y7963704D01*
X3943750Y8003504D01*
X3909903Y8037351D01*
X3870103Y8063944D01*
X3825880Y8082262D01*
X3778933Y8091600D01*
X2034750Y8091600D01*
X1974000Y8030850D01*
X1836000Y8030850D01*
X1775250Y8091600D01*
X365000Y8091600D01*
X365000Y8485041D01*
X443824Y8441707D01*
X663079Y8372155D01*
X891668Y8346515D01*
X908124Y8346400D01*
X2901876Y8346400D01*
X3130801Y8368846D01*
X3351006Y8435330D01*
X3554103Y8543319D01*
X3732358Y8688700D01*
X3841340Y8820436D01*
X4597429Y8821206D01*
X4609832Y8802384D01*
X4677619Y8744610D01*
X4758819Y8708007D01*
X4847000Y8695476D01*
X5907000Y8695476D01*
X5957163Y8699476D01*
X6042244Y8725824D01*
X6116616Y8774832D01*
X6174390Y8842619D01*
X6210993Y8923819D01*
X6223524Y9012000D01*
X6223524Y9662000D01*
X6219524Y9712163D01*
X6193176Y9797244D01*
X6144168Y9871616D01*
X6135606Y9878914D01*
X6140661Y9891119D01*
X6150000Y9938066D01*
X6150000Y10157250D01*
X6089250Y10218000D01*
X5446000Y10218000D01*
X5446000Y10198000D01*
X5308000Y10198000D01*
X5308000Y10218000D01*
X4664750Y10218000D01*
X4604000Y10157250D01*
X4604000Y9938066D01*
X4613339Y9891119D01*
X4618959Y9877550D01*
X4596507Y9851206D01*
X4028761Y9850628D01*
X3994655Y9966511D01*
X3888086Y10170358D01*
X3743954Y10349623D01*
X3567746Y10497479D01*
X3366176Y10608293D01*
X3146921Y10677845D01*
X2918332Y10703485D01*
X2901876Y10703600D01*
X908124Y10703600D01*
X679199Y10681154D01*
X458994Y10614670D01*
X365000Y10564692D01*
X365000Y11025041D01*
X443824Y10981707D01*
X663079Y10912155D01*
X891668Y10886515D01*
X908124Y10886400D01*
X2901876Y10886400D01*
X3130801Y10908846D01*
X3351006Y10975330D01*
X3554103Y11083319D01*
X3732358Y11228700D01*
X3878980Y11405935D01*
X3988384Y11608274D01*
X4056403Y11828010D01*
X4080447Y12056772D01*
X4068778Y12185000D01*
X5884522Y12185000D01*
X6730476Y11349328D01*
X6730476Y11107488D01*
X6569482Y11268482D01*
X6564915Y11272234D01*
X6561052Y11276712D01*
X6527996Y11302559D01*
X6495585Y11329182D01*
X6490376Y11331975D01*
X6485717Y11335618D01*
X6448284Y11354545D01*
X6411305Y11374373D01*
X6405647Y11376103D01*
X6400374Y11378769D01*
X6393979Y11381202D01*
X6223524Y11444669D01*
X6223524Y11562000D01*
X6219524Y11612163D01*
X6193176Y11697244D01*
X6144168Y11771616D01*
X6076381Y11829390D01*
X5995181Y11865993D01*
X5907000Y11878524D01*
X4847000Y11878524D01*
X4796837Y11874524D01*
X4711756Y11848176D01*
X4637384Y11799168D01*
X4579610Y11731381D01*
X4543007Y11650181D01*
X4530476Y11562000D01*
X4530476Y10912000D01*
X4534476Y10861837D01*
X4560824Y10776756D01*
X4609832Y10702384D01*
X4618394Y10695086D01*
X4613339Y10682881D01*
X4604000Y10635934D01*
X4604000Y10416750D01*
X4664750Y10356000D01*
X5308000Y10356000D01*
X5308000Y10376000D01*
X5446000Y10376000D01*
X5446000Y10356000D01*
X6089250Y10356000D01*
X6092643Y10359393D01*
X6242429Y10209606D01*
X6255156Y8405524D01*
X5656500Y8405524D01*
X5606337Y8401524D01*
X5521256Y8375176D01*
X5446884Y8326168D01*
X5389110Y8258381D01*
X5352507Y8177181D01*
X5339976Y8089000D01*
X5339976Y6389000D01*
X5343976Y6338837D01*
X5370324Y6253756D01*
X5419332Y6179384D01*
X5487119Y6121610D01*
X5568319Y6085007D01*
X5656500Y6072476D01*
X6556500Y6072476D01*
X6606663Y6076476D01*
X6691744Y6102824D01*
X6700164Y6108372D01*
X8303476Y4505059D01*
X8303476Y3581500D01*
X8307476Y3531337D01*
X8333824Y3446256D01*
X8382832Y3371884D01*
X8450619Y3314110D01*
X8531819Y3277507D01*
X8620000Y3264976D01*
X9620000Y3264976D01*
X9670163Y3268976D01*
X9755244Y3295324D01*
X9829616Y3344332D01*
X9887390Y3412119D01*
X9923993Y3493319D01*
X9936524Y3581500D01*
X9936524Y3891500D01*
X10096500Y3891500D01*
X10141518Y3895914D01*
X10186636Y3899861D01*
X10189114Y3900581D01*
X10191675Y3900832D01*
X10234998Y3913912D01*
X10278470Y3926542D01*
X10280756Y3927727D01*
X10283224Y3928472D01*
X10323177Y3949715D01*
X10363373Y3970551D01*
X10365389Y3972161D01*
X10367662Y3973369D01*
X10402738Y4001976D01*
X10438111Y4030214D01*
X10441691Y4033745D01*
X10441771Y4033810D01*
X10441832Y4033884D01*
X10442982Y4035018D01*
X12030561Y5622597D01*
X12071691Y5580005D01*
X13169149Y4817251D01*
X14393859Y4282189D01*
X15699173Y3995197D01*
X17035370Y3967208D01*
X18351556Y4199287D01*
X19597598Y4682595D01*
X20726034Y5398722D01*
X21693883Y6320392D01*
X22464280Y7412498D01*
X23007879Y8633443D01*
X23303977Y9936721D01*
X23325292Y11463245D01*
X23065700Y12774283D01*
X22556403Y14009930D01*
X21816800Y15123121D01*
X20875064Y16071455D01*
X19767063Y16818811D01*
X18535001Y17336722D01*
X17225808Y17605461D01*
X15889350Y17614791D01*
X14576533Y17364358D01*
X13337360Y16863700D01*
X12219033Y16131887D01*
X11264147Y15196793D01*
X10509074Y14094037D01*
X9982574Y12865621D01*
X9704702Y11558336D01*
X9686042Y10221976D01*
X9927304Y8907442D01*
X10419299Y7664805D01*
X11143287Y6541396D01*
X11349692Y6327657D01*
X9936524Y4914488D01*
X9936524Y5181500D01*
X9932524Y5231663D01*
X9906176Y5316744D01*
X9857168Y5391116D01*
X9789381Y5448890D01*
X9708181Y5485493D01*
X9620000Y5498024D01*
X8696441Y5498024D01*
X6942515Y7251949D01*
X7172358Y7647165D01*
X7185492Y7675878D01*
X7200506Y7703651D01*
X7205338Y7719264D01*
X7212138Y7734130D01*
X7219446Y7764849D01*
X7228779Y7795008D01*
X7230486Y7811261D01*
X7234269Y7827164D01*
X7235470Y7858718D01*
X7238768Y7890117D01*
X7238768Y7896958D01*
X7236257Y8252889D01*
X7238475Y8250739D01*
X8239976Y7293726D01*
X8239976Y6389000D01*
X8243976Y6338837D01*
X8270324Y6253756D01*
X8319332Y6179384D01*
X8387119Y6121610D01*
X8468319Y6085007D01*
X8556500Y6072476D01*
X9456500Y6072476D01*
X9506663Y6076476D01*
X9591744Y6102824D01*
X9666116Y6151832D01*
X9723890Y6219619D01*
X9760493Y6300819D01*
X9773024Y6389000D01*
X9773024Y8089000D01*
X9769024Y8139163D01*
X9742676Y8224244D01*
X9693668Y8298616D01*
X9625881Y8356390D01*
X9544681Y8392993D01*
X9456500Y8405524D01*
X8556500Y8405524D01*
X8506337Y8401524D01*
X8500939Y8399852D01*
X8179989Y8706545D01*
X8242244Y8725824D01*
X8316616Y8774832D01*
X8374390Y8842619D01*
X8410993Y8923819D01*
X8423524Y9012000D01*
X8423524Y9662000D01*
X8419524Y9712163D01*
X8393176Y9797244D01*
X8383259Y9812294D01*
X8408375Y9868012D01*
X8697322Y9902664D01*
X8732083Y9910331D01*
X8767251Y9916005D01*
X8781079Y9921138D01*
X8795473Y9924313D01*
X8828096Y9938592D01*
X8861479Y9950984D01*
X8874039Y9958701D01*
X8887550Y9964614D01*
X8916779Y9984958D01*
X8947118Y10003597D01*
X8957945Y10013610D01*
X8970046Y10022033D01*
X8994761Y10047660D01*
X9020908Y10071843D01*
X9029584Y10083769D01*
X9039817Y10094380D01*
X9059083Y10124319D01*
X9080035Y10153121D01*
X9086230Y10166506D01*
X9094207Y10178903D01*
X9107295Y10212024D01*
X9122250Y10244337D01*
X9124572Y10251143D01*
X9251572Y10632142D01*
X9259214Y10665685D01*
X9268912Y10698678D01*
X9270353Y10714573D01*
X9273900Y10730142D01*
X9274881Y10764528D01*
X9277986Y10798778D01*
X9277883Y10805968D01*
X9252483Y11998368D01*
X9247480Y12040201D01*
X9243811Y12082135D01*
X9241522Y12090013D01*
X9240547Y12098167D01*
X9227515Y12138227D01*
X9215770Y12178655D01*
X9211994Y12185940D01*
X9209454Y12193747D01*
X9188892Y12230507D01*
X9169515Y12267889D01*
X9164395Y12274303D01*
X9160387Y12281468D01*
X9133077Y12313534D01*
X9106809Y12346440D01*
X9101760Y12351560D01*
X6978070Y14475250D01*
X8377000Y14475250D01*
X8377000Y13781066D01*
X8386339Y13734119D01*
X8404656Y13689896D01*
X8431250Y13650096D01*
X8465097Y13616249D01*
X8504897Y13589656D01*
X8549120Y13571338D01*
X8596067Y13562000D01*
X8990250Y13562000D01*
X9051000Y13622750D01*
X9051000Y14536000D01*
X9189000Y14536000D01*
X9189000Y13622750D01*
X9249750Y13562000D01*
X9643933Y13562000D01*
X9690880Y13571338D01*
X9735103Y13589656D01*
X9774903Y13616249D01*
X9808750Y13650096D01*
X9835344Y13689896D01*
X9853661Y13734119D01*
X9863000Y13781066D01*
X9863000Y14475250D01*
X9802250Y14536000D01*
X9189000Y14536000D01*
X9051000Y14536000D01*
X8437750Y14536000D01*
X8377000Y14475250D01*
X6978070Y14475250D01*
X6936524Y14516796D01*
X6936524Y15405000D01*
X6934616Y15428934D01*
X8377000Y15428934D01*
X8377000Y14734750D01*
X8437750Y14674000D01*
X9051000Y14674000D01*
X9051000Y15587250D01*
X9189000Y15587250D01*
X9189000Y14674000D01*
X9802250Y14674000D01*
X9863000Y14734750D01*
X9863000Y15428934D01*
X9853661Y15475881D01*
X9835344Y15520104D01*
X9808750Y15559904D01*
X9774903Y15593751D01*
X9735103Y15620344D01*
X9690880Y15638662D01*
X9643933Y15648000D01*
X9249750Y15648000D01*
X9189000Y15587250D01*
X9051000Y15587250D01*
X8990250Y15648000D01*
X8596067Y15648000D01*
X8549120Y15638662D01*
X8504897Y15620344D01*
X8465097Y15593751D01*
X8431250Y15559904D01*
X8404656Y15520104D01*
X8386339Y15475881D01*
X8377000Y15428934D01*
X6934616Y15428934D01*
X6932524Y15455163D01*
X6906176Y15540244D01*
X6857168Y15614616D01*
X6789381Y15672390D01*
X6708181Y15708993D01*
X6620000Y15721524D01*
X5620000Y15721524D01*
X5569837Y15717524D01*
X5484756Y15691176D01*
X5410384Y15642168D01*
X5352610Y15574381D01*
X5316007Y15493181D01*
X5303476Y15405000D01*
X5303476Y15120000D01*
X3956236Y15120000D01*
X3888086Y15250358D01*
X3743954Y15429623D01*
X3567746Y15577479D01*
X3366176Y15688293D01*
X3146921Y15757845D01*
X2918332Y15783485D01*
X2901876Y15783600D01*
X908124Y15783600D01*
X679199Y15761154D01*
X458994Y15694670D01*
X365000Y15644692D01*
X365000Y17366649D01*
X382290Y17339820D01*
X755559Y16953289D01*
X1196796Y16646620D01*
X1689196Y16431496D01*
X2214003Y16316110D01*
X2751227Y16304857D01*
X3280406Y16398165D01*
X3781382Y16592481D01*
X4235075Y16880403D01*
X4624203Y17250964D01*
X4933944Y17690051D01*
X5152500Y18180937D01*
X5271548Y18704925D01*
X5280118Y19318671D01*
X5175748Y19845779D01*
X4970983Y20342576D01*
X4673622Y20790140D01*
X4294993Y21171422D01*
X4215560Y21225000D01*
X14587148Y21225000D01*
X16630522Y21024646D01*
X16630522Y21024646D01*
G37*
X16630522Y21024646D02*
X18578899Y20436395D01*
X20375904Y19480912D01*
X21953101Y18194581D01*
X23250410Y16626404D01*
X24218419Y14836109D01*
X24820256Y12891887D01*
X25034804Y10850596D01*
X25034937Y10812214D01*
X24834646Y8769478D01*
X24246395Y6821101D01*
X23290910Y5024093D01*
X22004579Y3446897D01*
X20436404Y2149590D01*
X18646110Y1181581D01*
X16701887Y579744D01*
X14660606Y365196D01*
X14604299Y365000D01*
X4226561Y365000D01*
X4235075Y370403D01*
X4624203Y740964D01*
X4933944Y1180051D01*
X5152500Y1670937D01*
X5271548Y2194925D01*
X5280118Y2808671D01*
X5175748Y3335779D01*
X4970983Y3832576D01*
X4692485Y4251750D01*
X5377000Y4251750D01*
X5377000Y3557566D01*
X5386339Y3510619D01*
X5404656Y3466396D01*
X5431250Y3426596D01*
X5465097Y3392749D01*
X5504897Y3366156D01*
X5549120Y3347838D01*
X5596067Y3338500D01*
X5990250Y3338500D01*
X6051000Y3399250D01*
X6051000Y4312500D01*
X6189000Y4312500D01*
X6189000Y3399250D01*
X6249750Y3338500D01*
X6643933Y3338500D01*
X6690880Y3347838D01*
X6735103Y3366156D01*
X6774903Y3392749D01*
X6808750Y3426596D01*
X6835344Y3466396D01*
X6853661Y3510619D01*
X6863000Y3557566D01*
X6863000Y4251750D01*
X6802250Y4312500D01*
X6189000Y4312500D01*
X6051000Y4312500D01*
X5437750Y4312500D01*
X5377000Y4251750D01*
X4692485Y4251750D01*
X4673622Y4280140D01*
X4294993Y4661422D01*
X3849516Y4961899D01*
X3354161Y5170128D01*
X3182163Y5205434D01*
X5377000Y5205434D01*
X5377000Y4511250D01*
X5437750Y4450500D01*
X6051000Y4450500D01*
X6051000Y5363750D01*
X6189000Y5363750D01*
X6189000Y4450500D01*
X6802250Y4450500D01*
X6863000Y4511250D01*
X6863000Y5205434D01*
X6853661Y5252381D01*
X6835344Y5296604D01*
X6808750Y5336404D01*
X6774903Y5370251D01*
X6735103Y5396844D01*
X6690880Y5415162D01*
X6643933Y5424500D01*
X6249750Y5424500D01*
X6189000Y5363750D01*
X6051000Y5363750D01*
X5990250Y5424500D01*
X5596067Y5424500D01*
X5549120Y5415162D01*
X5504897Y5396844D01*
X5465097Y5370251D01*
X5431250Y5336404D01*
X5404656Y5296604D01*
X5386339Y5252381D01*
X5377000Y5205434D01*
X3182163Y5205434D01*
X2827794Y5278175D01*
X2290465Y5281927D01*
X1762641Y5181239D01*
X1264426Y4979947D01*
X814798Y4685718D01*
X430882Y4309760D01*
X365000Y4213542D01*
X365000Y5878400D01*
X1775250Y5878400D01*
X1836000Y5939150D01*
X1836000Y6916000D01*
X1974000Y6916000D01*
X1974000Y5939150D01*
X2034750Y5878400D01*
X3778933Y5878400D01*
X3825880Y5887738D01*
X3870103Y5906056D01*
X3909903Y5932649D01*
X3943750Y5966496D01*
X3970344Y6006296D01*
X3988661Y6050519D01*
X3998000Y6097466D01*
X3998000Y6855250D01*
X3937250Y6916000D01*
X1974000Y6916000D01*
X1836000Y6916000D01*
X1816000Y6916000D01*
X1816000Y7054000D01*
X1836000Y7054000D01*
X1836000Y8030850D01*
X1974000Y8030850D01*
X1974000Y7054000D01*
X3937250Y7054000D01*
X3998000Y7114750D01*
X3998000Y7872534D01*
X3988661Y7919481D01*
X3970344Y7963704D01*
X3943750Y8003504D01*
X3909903Y8037351D01*
X3870103Y8063944D01*
X3825880Y8082262D01*
X3778933Y8091600D01*
X2034750Y8091600D01*
X1974000Y8030850D01*
X1836000Y8030850D01*
X1775250Y8091600D01*
X365000Y8091600D01*
X365000Y8485041D01*
X443824Y8441707D01*
X663079Y8372155D01*
X891668Y8346515D01*
X908124Y8346400D01*
X2901876Y8346400D01*
X3130801Y8368846D01*
X3351006Y8435330D01*
X3554103Y8543319D01*
X3732358Y8688700D01*
X3841340Y8820436D01*
X4597429Y8821206D01*
X4609832Y8802384D01*
X4677619Y8744610D01*
X4758819Y8708007D01*
X4847000Y8695476D01*
X5907000Y8695476D01*
X5957163Y8699476D01*
X6042244Y8725824D01*
X6116616Y8774832D01*
X6174390Y8842619D01*
X6210993Y8923819D01*
X6223524Y9012000D01*
X6223524Y9662000D01*
X6219524Y9712163D01*
X6193176Y9797244D01*
X6144168Y9871616D01*
X6135606Y9878914D01*
X6140661Y9891119D01*
X6150000Y9938066D01*
X6150000Y10157250D01*
X6089250Y10218000D01*
X5446000Y10218000D01*
X5446000Y10198000D01*
X5308000Y10198000D01*
X5308000Y10218000D01*
X4664750Y10218000D01*
X4604000Y10157250D01*
X4604000Y9938066D01*
X4613339Y9891119D01*
X4618959Y9877550D01*
X4596507Y9851206D01*
X4028761Y9850628D01*
X3994655Y9966511D01*
X3888086Y10170358D01*
X3743954Y10349623D01*
X3567746Y10497479D01*
X3366176Y10608293D01*
X3146921Y10677845D01*
X2918332Y10703485D01*
X2901876Y10703600D01*
X908124Y10703600D01*
X679199Y10681154D01*
X458994Y10614670D01*
X365000Y10564692D01*
X365000Y11025041D01*
X443824Y10981707D01*
X663079Y10912155D01*
X891668Y10886515D01*
X908124Y10886400D01*
X2901876Y10886400D01*
X3130801Y10908846D01*
X3351006Y10975330D01*
X3554103Y11083319D01*
X3732358Y11228700D01*
X3878980Y11405935D01*
X3988384Y11608274D01*
X4056403Y11828010D01*
X4080447Y12056772D01*
X4068778Y12185000D01*
X5884522Y12185000D01*
X6730476Y11349328D01*
X6730476Y11107488D01*
X6569482Y11268482D01*
X6564915Y11272234D01*
X6561052Y11276712D01*
X6527996Y11302559D01*
X6495585Y11329182D01*
X6490376Y11331975D01*
X6485717Y11335618D01*
X6448284Y11354545D01*
X6411305Y11374373D01*
X6405647Y11376103D01*
X6400374Y11378769D01*
X6393979Y11381202D01*
X6223524Y11444669D01*
X6223524Y11562000D01*
X6219524Y11612163D01*
X6193176Y11697244D01*
X6144168Y11771616D01*
X6076381Y11829390D01*
X5995181Y11865993D01*
X5907000Y11878524D01*
X4847000Y11878524D01*
X4796837Y11874524D01*
X4711756Y11848176D01*
X4637384Y11799168D01*
X4579610Y11731381D01*
X4543007Y11650181D01*
X4530476Y11562000D01*
X4530476Y10912000D01*
X4534476Y10861837D01*
X4560824Y10776756D01*
X4609832Y10702384D01*
X4618394Y10695086D01*
X4613339Y10682881D01*
X4604000Y10635934D01*
X4604000Y10416750D01*
X4664750Y10356000D01*
X5308000Y10356000D01*
X5308000Y10376000D01*
X5446000Y10376000D01*
X5446000Y10356000D01*
X6089250Y10356000D01*
X6092643Y10359393D01*
X6242429Y10209606D01*
X6255156Y8405524D01*
X5656500Y8405524D01*
X5606337Y8401524D01*
X5521256Y8375176D01*
X5446884Y8326168D01*
X5389110Y8258381D01*
X5352507Y8177181D01*
X5339976Y8089000D01*
X5339976Y6389000D01*
X5343976Y6338837D01*
X5370324Y6253756D01*
X5419332Y6179384D01*
X5487119Y6121610D01*
X5568319Y6085007D01*
X5656500Y6072476D01*
X6556500Y6072476D01*
X6606663Y6076476D01*
X6691744Y6102824D01*
X6700164Y6108372D01*
X8303476Y4505059D01*
X8303476Y3581500D01*
X8307476Y3531337D01*
X8333824Y3446256D01*
X8382832Y3371884D01*
X8450619Y3314110D01*
X8531819Y3277507D01*
X8620000Y3264976D01*
X9620000Y3264976D01*
X9670163Y3268976D01*
X9755244Y3295324D01*
X9829616Y3344332D01*
X9887390Y3412119D01*
X9923993Y3493319D01*
X9936524Y3581500D01*
X9936524Y3891500D01*
X10096500Y3891500D01*
X10141518Y3895914D01*
X10186636Y3899861D01*
X10189114Y3900581D01*
X10191675Y3900832D01*
X10234998Y3913912D01*
X10278470Y3926542D01*
X10280756Y3927727D01*
X10283224Y3928472D01*
X10323177Y3949715D01*
X10363373Y3970551D01*
X10365389Y3972161D01*
X10367662Y3973369D01*
X10402738Y4001976D01*
X10438111Y4030214D01*
X10441691Y4033745D01*
X10441771Y4033810D01*
X10441832Y4033884D01*
X10442982Y4035018D01*
X12030561Y5622597D01*
X12071691Y5580005D01*
X13169149Y4817251D01*
X14393859Y4282189D01*
X15699173Y3995197D01*
X17035370Y3967208D01*
X18351556Y4199287D01*
X19597598Y4682595D01*
X20726034Y5398722D01*
X21693883Y6320392D01*
X22464280Y7412498D01*
X23007879Y8633443D01*
X23303977Y9936721D01*
X23325292Y11463245D01*
X23065700Y12774283D01*
X22556403Y14009930D01*
X21816800Y15123121D01*
X20875064Y16071455D01*
X19767063Y16818811D01*
X18535001Y17336722D01*
X17225808Y17605461D01*
X15889350Y17614791D01*
X14576533Y17364358D01*
X13337360Y16863700D01*
X12219033Y16131887D01*
X11264147Y15196793D01*
X10509074Y14094037D01*
X9982574Y12865621D01*
X9704702Y11558336D01*
X9686042Y10221976D01*
X9927304Y8907442D01*
X10419299Y7664805D01*
X11143287Y6541396D01*
X11349692Y6327657D01*
X9936524Y4914488D01*
X9936524Y5181500D01*
X9932524Y5231663D01*
X9906176Y5316744D01*
X9857168Y5391116D01*
X9789381Y5448890D01*
X9708181Y5485493D01*
X9620000Y5498024D01*
X8696441Y5498024D01*
X6942515Y7251949D01*
X7172358Y7647165D01*
X7185492Y7675878D01*
X7200506Y7703651D01*
X7205338Y7719264D01*
X7212138Y7734130D01*
X7219446Y7764849D01*
X7228779Y7795008D01*
X7230486Y7811261D01*
X7234269Y7827164D01*
X7235470Y7858718D01*
X7238768Y7890117D01*
X7238768Y7896958D01*
X7236257Y8252889D01*
X7238475Y8250739D01*
X8239976Y7293726D01*
X8239976Y6389000D01*
X8243976Y6338837D01*
X8270324Y6253756D01*
X8319332Y6179384D01*
X8387119Y6121610D01*
X8468319Y6085007D01*
X8556500Y6072476D01*
X9456500Y6072476D01*
X9506663Y6076476D01*
X9591744Y6102824D01*
X9666116Y6151832D01*
X9723890Y6219619D01*
X9760493Y6300819D01*
X9773024Y6389000D01*
X9773024Y8089000D01*
X9769024Y8139163D01*
X9742676Y8224244D01*
X9693668Y8298616D01*
X9625881Y8356390D01*
X9544681Y8392993D01*
X9456500Y8405524D01*
X8556500Y8405524D01*
X8506337Y8401524D01*
X8500939Y8399852D01*
X8179989Y8706545D01*
X8242244Y8725824D01*
X8316616Y8774832D01*
X8374390Y8842619D01*
X8410993Y8923819D01*
X8423524Y9012000D01*
X8423524Y9662000D01*
X8419524Y9712163D01*
X8393176Y9797244D01*
X8383259Y9812294D01*
X8408375Y9868012D01*
X8697322Y9902664D01*
X8732083Y9910331D01*
X8767251Y9916005D01*
X8781079Y9921138D01*
X8795473Y9924313D01*
X8828096Y9938592D01*
X8861479Y9950984D01*
X8874039Y9958701D01*
X8887550Y9964614D01*
X8916779Y9984958D01*
X8947118Y10003597D01*
X8957945Y10013610D01*
X8970046Y10022033D01*
X8994761Y10047660D01*
X9020908Y10071843D01*
X9029584Y10083769D01*
X9039817Y10094380D01*
X9059083Y10124319D01*
X9080035Y10153121D01*
X9086230Y10166506D01*
X9094207Y10178903D01*
X9107295Y10212024D01*
X9122250Y10244337D01*
X9124572Y10251143D01*
X9251572Y10632142D01*
X9259214Y10665685D01*
X9268912Y10698678D01*
X9270353Y10714573D01*
X9273900Y10730142D01*
X9274881Y10764528D01*
X9277986Y10798778D01*
X9277883Y10805968D01*
X9252483Y11998368D01*
X9247480Y12040201D01*
X9243811Y12082135D01*
X9241522Y12090013D01*
X9240547Y12098167D01*
X9227515Y12138227D01*
X9215770Y12178655D01*
X9211994Y12185940D01*
X9209454Y12193747D01*
X9188892Y12230507D01*
X9169515Y12267889D01*
X9164395Y12274303D01*
X9160387Y12281468D01*
X9133077Y12313534D01*
X9106809Y12346440D01*
X9101760Y12351560D01*
X6978070Y14475250D01*
X8377000Y14475250D01*
X8377000Y13781066D01*
X8386339Y13734119D01*
X8404656Y13689896D01*
X8431250Y13650096D01*
X8465097Y13616249D01*
X8504897Y13589656D01*
X8549120Y13571338D01*
X8596067Y13562000D01*
X8990250Y13562000D01*
X9051000Y13622750D01*
X9051000Y14536000D01*
X9189000Y14536000D01*
X9189000Y13622750D01*
X9249750Y13562000D01*
X9643933Y13562000D01*
X9690880Y13571338D01*
X9735103Y13589656D01*
X9774903Y13616249D01*
X9808750Y13650096D01*
X9835344Y13689896D01*
X9853661Y13734119D01*
X9863000Y13781066D01*
X9863000Y14475250D01*
X9802250Y14536000D01*
X9189000Y14536000D01*
X9051000Y14536000D01*
X8437750Y14536000D01*
X8377000Y14475250D01*
X6978070Y14475250D01*
X6936524Y14516796D01*
X6936524Y15405000D01*
X6934616Y15428934D01*
X8377000Y15428934D01*
X8377000Y14734750D01*
X8437750Y14674000D01*
X9051000Y14674000D01*
X9051000Y15587250D01*
X9189000Y15587250D01*
X9189000Y14674000D01*
X9802250Y14674000D01*
X9863000Y14734750D01*
X9863000Y15428934D01*
X9853661Y15475881D01*
X9835344Y15520104D01*
X9808750Y15559904D01*
X9774903Y15593751D01*
X9735103Y15620344D01*
X9690880Y15638662D01*
X9643933Y15648000D01*
X9249750Y15648000D01*
X9189000Y15587250D01*
X9051000Y15587250D01*
X8990250Y15648000D01*
X8596067Y15648000D01*
X8549120Y15638662D01*
X8504897Y15620344D01*
X8465097Y15593751D01*
X8431250Y15559904D01*
X8404656Y15520104D01*
X8386339Y15475881D01*
X8377000Y15428934D01*
X6934616Y15428934D01*
X6932524Y15455163D01*
X6906176Y15540244D01*
X6857168Y15614616D01*
X6789381Y15672390D01*
X6708181Y15708993D01*
X6620000Y15721524D01*
X5620000Y15721524D01*
X5569837Y15717524D01*
X5484756Y15691176D01*
X5410384Y15642168D01*
X5352610Y15574381D01*
X5316007Y15493181D01*
X5303476Y15405000D01*
X5303476Y15120000D01*
X3956236Y15120000D01*
X3888086Y15250358D01*
X3743954Y15429623D01*
X3567746Y15577479D01*
X3366176Y15688293D01*
X3146921Y15757845D01*
X2918332Y15783485D01*
X2901876Y15783600D01*
X908124Y15783600D01*
X679199Y15761154D01*
X458994Y15694670D01*
X365000Y15644692D01*
X365000Y17366649D01*
X382290Y17339820D01*
X755559Y16953289D01*
X1196796Y16646620D01*
X1689196Y16431496D01*
X2214003Y16316110D01*
X2751227Y16304857D01*
X3280406Y16398165D01*
X3781382Y16592481D01*
X4235075Y16880403D01*
X4624203Y17250964D01*
X4933944Y17690051D01*
X5152500Y18180937D01*
X5271548Y18704925D01*
X5280118Y19318671D01*
X5175748Y19845779D01*
X4970983Y20342576D01*
X4673622Y20790140D01*
X4294993Y21171422D01*
X4215560Y21225000D01*
X14587148Y21225000D01*
X16630522Y21024646D01*
M02*
