G04 #@! TF.GenerationSoftware,KiCad,Pcbnew,5.0.2-bee76a0~70~ubuntu18.04.1*
G04 #@! TF.CreationDate,2019-03-21T18:00:55+01:00*
G04 #@! TF.ProjectId,touchsense7,746f7563-6873-4656-9e73-65372e6b6963,0_1*
G04 #@! TF.SameCoordinates,PX19fb9c8PY2c219b8*
G04 #@! TF.FileFunction,Soldermask,Bot*
G04 #@! TF.FilePolarity,Negative*
%FSLAX46Y46*%
G04 Gerber Fmt 4.6, Leading zero omitted, Abs format (unit mm)*
G04 Created by KiCad (PCBNEW 5.0.2-bee76a0~70~ubuntu18.04.1) date 2019-03-21T18:00:55 CET*
%MOMM*%
%LPD*%
G01*
G04 APERTURE LIST*
%ADD10C,0.100000*%
G04 APERTURE END LIST*
D10*
G36*
X15515000Y1210000D02*
X13815000Y1210000D01*
X13815000Y2910000D01*
X15515000Y2910000D01*
X15515000Y1210000D01*
X15515000Y1210000D01*
G37*
G36*
X12291630Y2897701D02*
X12451855Y2849097D01*
X12599520Y2770169D01*
X12728949Y2663949D01*
X12835169Y2534520D01*
X12914097Y2386855D01*
X12962701Y2226630D01*
X12979112Y2060000D01*
X12962701Y1893370D01*
X12914097Y1733145D01*
X12835169Y1585480D01*
X12728949Y1456051D01*
X12599520Y1349831D01*
X12451855Y1270903D01*
X12291630Y1222299D01*
X12166752Y1210000D01*
X12083248Y1210000D01*
X11958370Y1222299D01*
X11798145Y1270903D01*
X11650480Y1349831D01*
X11521051Y1456051D01*
X11414831Y1585480D01*
X11335903Y1733145D01*
X11287299Y1893370D01*
X11270888Y2060000D01*
X11287299Y2226630D01*
X11335903Y2386855D01*
X11414831Y2534520D01*
X11521051Y2663949D01*
X11650480Y2770169D01*
X11798145Y2849097D01*
X11958370Y2897701D01*
X12083248Y2910000D01*
X12166752Y2910000D01*
X12291630Y2897701D01*
X12291630Y2897701D01*
G37*
G36*
X9751630Y2897701D02*
X9911855Y2849097D01*
X10059520Y2770169D01*
X10188949Y2663949D01*
X10295169Y2534520D01*
X10374097Y2386855D01*
X10422701Y2226630D01*
X10439112Y2060000D01*
X10422701Y1893370D01*
X10374097Y1733145D01*
X10295169Y1585480D01*
X10188949Y1456051D01*
X10059520Y1349831D01*
X9911855Y1270903D01*
X9751630Y1222299D01*
X9626752Y1210000D01*
X9543248Y1210000D01*
X9418370Y1222299D01*
X9258145Y1270903D01*
X9110480Y1349831D01*
X8981051Y1456051D01*
X8874831Y1585480D01*
X8795903Y1733145D01*
X8747299Y1893370D01*
X8730888Y2060000D01*
X8747299Y2226630D01*
X8795903Y2386855D01*
X8874831Y2534520D01*
X8981051Y2663949D01*
X9110480Y2770169D01*
X9258145Y2849097D01*
X9418370Y2897701D01*
X9543248Y2910000D01*
X9626752Y2910000D01*
X9751630Y2897701D01*
X9751630Y2897701D01*
G37*
G36*
X7211630Y2897701D02*
X7371855Y2849097D01*
X7519520Y2770169D01*
X7648949Y2663949D01*
X7755169Y2534520D01*
X7834097Y2386855D01*
X7882701Y2226630D01*
X7899112Y2060000D01*
X7882701Y1893370D01*
X7834097Y1733145D01*
X7755169Y1585480D01*
X7648949Y1456051D01*
X7519520Y1349831D01*
X7371855Y1270903D01*
X7211630Y1222299D01*
X7086752Y1210000D01*
X7003248Y1210000D01*
X6878370Y1222299D01*
X6718145Y1270903D01*
X6570480Y1349831D01*
X6441051Y1456051D01*
X6334831Y1585480D01*
X6255903Y1733145D01*
X6207299Y1893370D01*
X6190888Y2060000D01*
X6207299Y2226630D01*
X6255903Y2386855D01*
X6334831Y2534520D01*
X6441051Y2663949D01*
X6570480Y2770169D01*
X6718145Y2849097D01*
X6878370Y2897701D01*
X7003248Y2910000D01*
X7086752Y2910000D01*
X7211630Y2897701D01*
X7211630Y2897701D01*
G37*
G36*
X19432543Y6111362D02*
X19807347Y6036809D01*
X20248668Y5854008D01*
X20645848Y5588621D01*
X20983621Y5250848D01*
X21249008Y4853668D01*
X21431809Y4412347D01*
X21525000Y3943842D01*
X21525000Y3466158D01*
X21431809Y2997653D01*
X21249008Y2556332D01*
X20983621Y2159152D01*
X20645848Y1821379D01*
X20248668Y1555992D01*
X19807347Y1373191D01*
X19432543Y1298638D01*
X19338843Y1280000D01*
X18861157Y1280000D01*
X18767457Y1298638D01*
X18392653Y1373191D01*
X17951332Y1555992D01*
X17554152Y1821379D01*
X17216379Y2159152D01*
X16950992Y2556332D01*
X16768191Y2997653D01*
X16675000Y3466158D01*
X16675000Y3943842D01*
X16768191Y4412347D01*
X16950992Y4853668D01*
X17216379Y5250848D01*
X17554152Y5588621D01*
X17951332Y5854008D01*
X18392653Y6036809D01*
X18767457Y6111362D01*
X18861157Y6130000D01*
X19338843Y6130000D01*
X19432543Y6111362D01*
X19432543Y6111362D01*
G37*
G36*
X2942543Y6111362D02*
X3317347Y6036809D01*
X3758668Y5854008D01*
X4155848Y5588621D01*
X4493621Y5250848D01*
X4759008Y4853668D01*
X4941809Y4412347D01*
X5035000Y3943842D01*
X5035000Y3466158D01*
X4941809Y2997653D01*
X4759008Y2556332D01*
X4493621Y2159152D01*
X4155848Y1821379D01*
X3758668Y1555992D01*
X3317347Y1373191D01*
X2942543Y1298638D01*
X2848843Y1280000D01*
X2371157Y1280000D01*
X2277457Y1298638D01*
X1902653Y1373191D01*
X1461332Y1555992D01*
X1064152Y1821379D01*
X726379Y2159152D01*
X460992Y2556332D01*
X278191Y2997653D01*
X185000Y3466158D01*
X185000Y3943842D01*
X278191Y4412347D01*
X460992Y4853668D01*
X726379Y5250848D01*
X1064152Y5588621D01*
X1461332Y5854008D01*
X1902653Y6036809D01*
X2277457Y6111362D01*
X2371157Y6130000D01*
X2848843Y6130000D01*
X2942543Y6111362D01*
X2942543Y6111362D01*
G37*
G36*
X12332385Y22698473D02*
X12750980Y22615209D01*
X13933905Y22125226D01*
X14994910Y21416285D01*
X14998512Y21413878D01*
X15903878Y20508512D01*
X15903880Y20508509D01*
X16615226Y19443905D01*
X17105209Y18260980D01*
X17355000Y17005194D01*
X17355000Y15724806D01*
X17105209Y14469020D01*
X16615226Y13286095D01*
X15906285Y12225090D01*
X15903878Y12221488D01*
X14998512Y11316122D01*
X14998509Y11316120D01*
X13933905Y10604774D01*
X12750980Y10114791D01*
X12332385Y10031527D01*
X11495196Y9865000D01*
X10214804Y9865000D01*
X9377615Y10031527D01*
X8959020Y10114791D01*
X7776095Y10604774D01*
X6711491Y11316120D01*
X6711488Y11316122D01*
X5806122Y12221488D01*
X5803715Y12225090D01*
X5094774Y13286095D01*
X4604791Y14469020D01*
X4355000Y15724806D01*
X4355000Y17005194D01*
X4604791Y18260980D01*
X5094774Y19443905D01*
X5806120Y20508509D01*
X5806122Y20508512D01*
X6711488Y21413878D01*
X6715090Y21416285D01*
X7776095Y22125226D01*
X8959020Y22615209D01*
X9377615Y22698473D01*
X10214804Y22865000D01*
X11495196Y22865000D01*
X12332385Y22698473D01*
X12332385Y22698473D01*
G37*
M02*
