G04 #@! TF.GenerationSoftware,KiCad,Pcbnew,5.0.2-bee76a0~70~ubuntu18.04.1*
G04 #@! TF.CreationDate,2019-03-21T18:00:55+01:00*
G04 #@! TF.ProjectId,touchsense7,746f7563-6873-4656-9e73-65372e6b6963,0_1*
G04 #@! TF.SameCoordinates,PX19fb9c8PY2c219b8*
G04 #@! TF.FileFunction,Copper,L2,Bot*
G04 #@! TF.FilePolarity,Positive*
%FSLAX46Y46*%
G04 Gerber Fmt 4.6, Leading zero omitted, Abs format (unit mm)*
G04 Created by KiCad (PCBNEW 5.0.2-bee76a0~70~ubuntu18.04.1) date 2019-03-21T18:00:55 CET*
%MOMM*%
%LPD*%
G01*
G04 APERTURE LIST*
G04 #@! TA.AperFunction,ComponentPad*
%ADD10O,1.700000X1.700000*%
G04 #@! TD*
G04 #@! TA.AperFunction,ComponentPad*
%ADD11R,1.700000X1.700000*%
G04 #@! TD*
G04 #@! TA.AperFunction,ComponentPad*
%ADD12C,4.850000*%
G04 #@! TD*
G04 #@! TA.AperFunction,ComponentPad*
%ADD13C,13.000000*%
G04 #@! TD*
G04 #@! TA.AperFunction,Conductor*
%ADD14C,0.200000*%
G04 #@! TD*
G04 APERTURE END LIST*
D10*
G04 #@! TO.P,P1,4*
G04 #@! TO.N,VCC*
X7045000Y2060000D03*
G04 #@! TO.P,P1,3*
G04 #@! TO.N,Net-(P1-Pad3)*
X9585000Y2060000D03*
G04 #@! TO.P,P1,2*
G04 #@! TO.N,Net-(P1-Pad2)*
X12125000Y2060000D03*
D11*
G04 #@! TO.P,P1,1*
G04 #@! TO.N,GND*
X14665000Y2060000D03*
G04 #@! TD*
D12*
G04 #@! TO.P,S1,1*
G04 #@! TO.N,N/C*
X19100000Y3705000D03*
G04 #@! TD*
G04 #@! TO.P,S1,1*
G04 #@! TO.N,N/C*
X2610000Y3705000D03*
G04 #@! TD*
D13*
G04 #@! TO.P,P2,1*
G04 #@! TO.N,Net-(C1-Pad1)*
X10855000Y16365000D03*
G04 #@! TD*
D14*
G04 #@! TO.N,GND*
G36*
X12103738Y25478992D02*
X13334379Y25254237D01*
X14529115Y24883261D01*
X15670622Y24371445D01*
X16742382Y23726193D01*
X17728857Y22956860D01*
X18615757Y22074592D01*
X19390249Y21092155D01*
X20041102Y20023790D01*
X20558890Y18884976D01*
X20936115Y17692201D01*
X21167311Y16462749D01*
X21249886Y15202902D01*
X21250001Y15158953D01*
X21259781Y5467526D01*
X21255483Y5473959D01*
X20868959Y5860483D01*
X20414455Y6164173D01*
X19909438Y6373358D01*
X19373314Y6480000D01*
X18826686Y6480000D01*
X18290562Y6373358D01*
X17785545Y6164173D01*
X17331041Y5860483D01*
X16944517Y5473959D01*
X16640827Y5019455D01*
X16431642Y4514438D01*
X16325000Y3978314D01*
X16325000Y3431686D01*
X16431642Y2895562D01*
X16640827Y2390545D01*
X16944517Y1936041D01*
X17331041Y1549517D01*
X17785545Y1245827D01*
X18290562Y1036642D01*
X18826686Y930000D01*
X19373314Y930000D01*
X19909438Y1036642D01*
X20414455Y1245827D01*
X20868959Y1549517D01*
X21255483Y1936041D01*
X21263333Y1947789D01*
X21264637Y655000D01*
X450243Y655000D01*
X451108Y1941142D01*
X454517Y1936041D01*
X841041Y1549517D01*
X1295545Y1245827D01*
X1800562Y1036642D01*
X2336686Y930000D01*
X2883314Y930000D01*
X3419438Y1036642D01*
X3924455Y1245827D01*
X4378959Y1549517D01*
X4765483Y1936041D01*
X4848309Y2060000D01*
X5839194Y2060000D01*
X5862363Y1824759D01*
X5930981Y1598558D01*
X6042409Y1390090D01*
X6192366Y1207366D01*
X6375090Y1057409D01*
X6583558Y945981D01*
X6809759Y877363D01*
X6986050Y860000D01*
X7103950Y860000D01*
X7280241Y877363D01*
X7506442Y945981D01*
X7714910Y1057409D01*
X7897634Y1207366D01*
X8047591Y1390090D01*
X8159019Y1598558D01*
X8227637Y1824759D01*
X8250806Y2060000D01*
X8379194Y2060000D01*
X8402363Y1824759D01*
X8470981Y1598558D01*
X8582409Y1390090D01*
X8732366Y1207366D01*
X8915090Y1057409D01*
X9123558Y945981D01*
X9349759Y877363D01*
X9526050Y860000D01*
X9643950Y860000D01*
X9820241Y877363D01*
X10046442Y945981D01*
X10254910Y1057409D01*
X10437634Y1207366D01*
X10587591Y1390090D01*
X10699019Y1598558D01*
X10767637Y1824759D01*
X10790806Y2060000D01*
X10919194Y2060000D01*
X10942363Y1824759D01*
X11010981Y1598558D01*
X11122409Y1390090D01*
X11272366Y1207366D01*
X11455090Y1057409D01*
X11663558Y945981D01*
X11889759Y877363D01*
X12066050Y860000D01*
X12183950Y860000D01*
X12360241Y877363D01*
X12586442Y945981D01*
X12794910Y1057409D01*
X12977634Y1207366D01*
X13127591Y1390090D01*
X13239019Y1598558D01*
X13307637Y1824759D01*
X13330806Y2060000D01*
X13307637Y2295241D01*
X13239019Y2521442D01*
X13127591Y2729910D01*
X12977634Y2912634D01*
X12794910Y3062591D01*
X12586442Y3174019D01*
X12360241Y3242637D01*
X12183950Y3260000D01*
X12066050Y3260000D01*
X11889759Y3242637D01*
X11663558Y3174019D01*
X11455090Y3062591D01*
X11272366Y2912634D01*
X11122409Y2729910D01*
X11010981Y2521442D01*
X10942363Y2295241D01*
X10919194Y2060000D01*
X10790806Y2060000D01*
X10767637Y2295241D01*
X10699019Y2521442D01*
X10587591Y2729910D01*
X10437634Y2912634D01*
X10254910Y3062591D01*
X10046442Y3174019D01*
X9820241Y3242637D01*
X9643950Y3260000D01*
X9526050Y3260000D01*
X9349759Y3242637D01*
X9123558Y3174019D01*
X8915090Y3062591D01*
X8732366Y2912634D01*
X8582409Y2729910D01*
X8470981Y2521442D01*
X8402363Y2295241D01*
X8379194Y2060000D01*
X8250806Y2060000D01*
X8227637Y2295241D01*
X8159019Y2521442D01*
X8047591Y2729910D01*
X7897634Y2912634D01*
X7714910Y3062591D01*
X7506442Y3174019D01*
X7280241Y3242637D01*
X7103950Y3260000D01*
X6986050Y3260000D01*
X6809759Y3242637D01*
X6583558Y3174019D01*
X6375090Y3062591D01*
X6192366Y2912634D01*
X6042409Y2729910D01*
X5930981Y2521442D01*
X5862363Y2295241D01*
X5839194Y2060000D01*
X4848309Y2060000D01*
X5069173Y2390545D01*
X5278358Y2895562D01*
X5385000Y3431686D01*
X5385000Y3978314D01*
X5278358Y4514438D01*
X5069173Y5019455D01*
X4765483Y5473959D01*
X4378959Y5860483D01*
X3924455Y6164173D01*
X3419438Y6373358D01*
X2883314Y6480000D01*
X2336686Y6480000D01*
X1800562Y6373358D01*
X1295545Y6164173D01*
X841041Y5860483D01*
X454517Y5473959D01*
X453484Y5472412D01*
X459992Y15147818D01*
X536008Y16408738D01*
X651235Y17039666D01*
X4005000Y17039666D01*
X4005000Y15690334D01*
X4268242Y14366929D01*
X4784609Y13120308D01*
X5534258Y11998380D01*
X6488380Y11044258D01*
X7610308Y10294609D01*
X8856929Y9778242D01*
X10180334Y9515000D01*
X11529666Y9515000D01*
X12853071Y9778242D01*
X14099692Y10294609D01*
X15221620Y11044258D01*
X16175742Y11998380D01*
X16925391Y13120308D01*
X17441758Y14366929D01*
X17705000Y15690334D01*
X17705000Y17039666D01*
X17441758Y18363071D01*
X16925391Y19609692D01*
X16175742Y20731620D01*
X15221620Y21685742D01*
X14099692Y22435391D01*
X12853071Y22951758D01*
X11529666Y23215000D01*
X10180334Y23215000D01*
X8856929Y22951758D01*
X7610308Y22435391D01*
X6488380Y21685742D01*
X5534258Y20731620D01*
X4784609Y19609692D01*
X4268242Y18363071D01*
X4005000Y17039666D01*
X651235Y17039666D01*
X760763Y17639379D01*
X1131739Y18834115D01*
X1643555Y19975622D01*
X2288807Y21047382D01*
X3058140Y22033857D01*
X3940408Y22920757D01*
X4922845Y23695249D01*
X5991210Y24346102D01*
X7130024Y24863890D01*
X8322799Y25241115D01*
X9552251Y25472311D01*
X10812098Y25554886D01*
X10843484Y25554968D01*
X12103738Y25478992D01*
X12103738Y25478992D01*
G37*
X12103738Y25478992D02*
X13334379Y25254237D01*
X14529115Y24883261D01*
X15670622Y24371445D01*
X16742382Y23726193D01*
X17728857Y22956860D01*
X18615757Y22074592D01*
X19390249Y21092155D01*
X20041102Y20023790D01*
X20558890Y18884976D01*
X20936115Y17692201D01*
X21167311Y16462749D01*
X21249886Y15202902D01*
X21250001Y15158953D01*
X21259781Y5467526D01*
X21255483Y5473959D01*
X20868959Y5860483D01*
X20414455Y6164173D01*
X19909438Y6373358D01*
X19373314Y6480000D01*
X18826686Y6480000D01*
X18290562Y6373358D01*
X17785545Y6164173D01*
X17331041Y5860483D01*
X16944517Y5473959D01*
X16640827Y5019455D01*
X16431642Y4514438D01*
X16325000Y3978314D01*
X16325000Y3431686D01*
X16431642Y2895562D01*
X16640827Y2390545D01*
X16944517Y1936041D01*
X17331041Y1549517D01*
X17785545Y1245827D01*
X18290562Y1036642D01*
X18826686Y930000D01*
X19373314Y930000D01*
X19909438Y1036642D01*
X20414455Y1245827D01*
X20868959Y1549517D01*
X21255483Y1936041D01*
X21263333Y1947789D01*
X21264637Y655000D01*
X450243Y655000D01*
X451108Y1941142D01*
X454517Y1936041D01*
X841041Y1549517D01*
X1295545Y1245827D01*
X1800562Y1036642D01*
X2336686Y930000D01*
X2883314Y930000D01*
X3419438Y1036642D01*
X3924455Y1245827D01*
X4378959Y1549517D01*
X4765483Y1936041D01*
X4848309Y2060000D01*
X5839194Y2060000D01*
X5862363Y1824759D01*
X5930981Y1598558D01*
X6042409Y1390090D01*
X6192366Y1207366D01*
X6375090Y1057409D01*
X6583558Y945981D01*
X6809759Y877363D01*
X6986050Y860000D01*
X7103950Y860000D01*
X7280241Y877363D01*
X7506442Y945981D01*
X7714910Y1057409D01*
X7897634Y1207366D01*
X8047591Y1390090D01*
X8159019Y1598558D01*
X8227637Y1824759D01*
X8250806Y2060000D01*
X8379194Y2060000D01*
X8402363Y1824759D01*
X8470981Y1598558D01*
X8582409Y1390090D01*
X8732366Y1207366D01*
X8915090Y1057409D01*
X9123558Y945981D01*
X9349759Y877363D01*
X9526050Y860000D01*
X9643950Y860000D01*
X9820241Y877363D01*
X10046442Y945981D01*
X10254910Y1057409D01*
X10437634Y1207366D01*
X10587591Y1390090D01*
X10699019Y1598558D01*
X10767637Y1824759D01*
X10790806Y2060000D01*
X10919194Y2060000D01*
X10942363Y1824759D01*
X11010981Y1598558D01*
X11122409Y1390090D01*
X11272366Y1207366D01*
X11455090Y1057409D01*
X11663558Y945981D01*
X11889759Y877363D01*
X12066050Y860000D01*
X12183950Y860000D01*
X12360241Y877363D01*
X12586442Y945981D01*
X12794910Y1057409D01*
X12977634Y1207366D01*
X13127591Y1390090D01*
X13239019Y1598558D01*
X13307637Y1824759D01*
X13330806Y2060000D01*
X13307637Y2295241D01*
X13239019Y2521442D01*
X13127591Y2729910D01*
X12977634Y2912634D01*
X12794910Y3062591D01*
X12586442Y3174019D01*
X12360241Y3242637D01*
X12183950Y3260000D01*
X12066050Y3260000D01*
X11889759Y3242637D01*
X11663558Y3174019D01*
X11455090Y3062591D01*
X11272366Y2912634D01*
X11122409Y2729910D01*
X11010981Y2521442D01*
X10942363Y2295241D01*
X10919194Y2060000D01*
X10790806Y2060000D01*
X10767637Y2295241D01*
X10699019Y2521442D01*
X10587591Y2729910D01*
X10437634Y2912634D01*
X10254910Y3062591D01*
X10046442Y3174019D01*
X9820241Y3242637D01*
X9643950Y3260000D01*
X9526050Y3260000D01*
X9349759Y3242637D01*
X9123558Y3174019D01*
X8915090Y3062591D01*
X8732366Y2912634D01*
X8582409Y2729910D01*
X8470981Y2521442D01*
X8402363Y2295241D01*
X8379194Y2060000D01*
X8250806Y2060000D01*
X8227637Y2295241D01*
X8159019Y2521442D01*
X8047591Y2729910D01*
X7897634Y2912634D01*
X7714910Y3062591D01*
X7506442Y3174019D01*
X7280241Y3242637D01*
X7103950Y3260000D01*
X6986050Y3260000D01*
X6809759Y3242637D01*
X6583558Y3174019D01*
X6375090Y3062591D01*
X6192366Y2912634D01*
X6042409Y2729910D01*
X5930981Y2521442D01*
X5862363Y2295241D01*
X5839194Y2060000D01*
X4848309Y2060000D01*
X5069173Y2390545D01*
X5278358Y2895562D01*
X5385000Y3431686D01*
X5385000Y3978314D01*
X5278358Y4514438D01*
X5069173Y5019455D01*
X4765483Y5473959D01*
X4378959Y5860483D01*
X3924455Y6164173D01*
X3419438Y6373358D01*
X2883314Y6480000D01*
X2336686Y6480000D01*
X1800562Y6373358D01*
X1295545Y6164173D01*
X841041Y5860483D01*
X454517Y5473959D01*
X453484Y5472412D01*
X459992Y15147818D01*
X536008Y16408738D01*
X651235Y17039666D01*
X4005000Y17039666D01*
X4005000Y15690334D01*
X4268242Y14366929D01*
X4784609Y13120308D01*
X5534258Y11998380D01*
X6488380Y11044258D01*
X7610308Y10294609D01*
X8856929Y9778242D01*
X10180334Y9515000D01*
X11529666Y9515000D01*
X12853071Y9778242D01*
X14099692Y10294609D01*
X15221620Y11044258D01*
X16175742Y11998380D01*
X16925391Y13120308D01*
X17441758Y14366929D01*
X17705000Y15690334D01*
X17705000Y17039666D01*
X17441758Y18363071D01*
X16925391Y19609692D01*
X16175742Y20731620D01*
X15221620Y21685742D01*
X14099692Y22435391D01*
X12853071Y22951758D01*
X11529666Y23215000D01*
X10180334Y23215000D01*
X8856929Y22951758D01*
X7610308Y22435391D01*
X6488380Y21685742D01*
X5534258Y20731620D01*
X4784609Y19609692D01*
X4268242Y18363071D01*
X4005000Y17039666D01*
X651235Y17039666D01*
X760763Y17639379D01*
X1131739Y18834115D01*
X1643555Y19975622D01*
X2288807Y21047382D01*
X3058140Y22033857D01*
X3940408Y22920757D01*
X4922845Y23695249D01*
X5991210Y24346102D01*
X7130024Y24863890D01*
X8322799Y25241115D01*
X9552251Y25472311D01*
X10812098Y25554886D01*
X10843484Y25554968D01*
X12103738Y25478992D01*
G04 #@! TD*
M02*
