G04 #@! TF.GenerationSoftware,KiCad,Pcbnew,5.0.2-bee76a0~70~ubuntu18.04.1*
G04 #@! TF.CreationDate,2019-04-19T00:02:08+02:00*
G04 #@! TF.ProjectId,Cramps2_nano-soc2,4372616d-7073-4325-9f6e-616e6f2d736f,rev?*
G04 #@! TF.SameCoordinates,PX53920b0PY870b888*
G04 #@! TF.FileFunction,Legend,Top*
G04 #@! TF.FilePolarity,Positive*
%FSLAX46Y46*%
G04 Gerber Fmt 4.6, Leading zero omitted, Abs format (unit mm)*
G04 Created by KiCad (PCBNEW 5.0.2-bee76a0~70~ubuntu18.04.1) date 2019-04-19T00:02:08 CEST*
%MOMM*%
%LPD*%
G01*
G04 APERTURE LIST*
%ADD10C,0.300000*%
%ADD11C,0.120000*%
%ADD12C,0.150000*%
G04 APERTURE END LIST*
D10*
X40891428Y6541429D02*
X41748571Y6541429D01*
X41320000Y5041429D02*
X41320000Y6541429D01*
X42820000Y5112858D02*
X42677142Y5041429D01*
X42391428Y5041429D01*
X42248571Y5112858D01*
X42177142Y5255715D01*
X42177142Y5827143D01*
X42248571Y5970000D01*
X42391428Y6041429D01*
X42677142Y6041429D01*
X42820000Y5970000D01*
X42891428Y5827143D01*
X42891428Y5684286D01*
X42177142Y5541429D01*
X43534285Y5041429D02*
X43534285Y6041429D01*
X43534285Y5755715D02*
X43605714Y5898572D01*
X43677142Y5970000D01*
X43820000Y6041429D01*
X43962857Y6041429D01*
X45105714Y5041429D02*
X45105714Y5827143D01*
X45034285Y5970000D01*
X44891428Y6041429D01*
X44605714Y6041429D01*
X44462857Y5970000D01*
X45105714Y5112858D02*
X44962857Y5041429D01*
X44605714Y5041429D01*
X44462857Y5112858D01*
X44391428Y5255715D01*
X44391428Y5398572D01*
X44462857Y5541429D01*
X44605714Y5612858D01*
X44962857Y5612858D01*
X45105714Y5684286D01*
X45748571Y5112858D02*
X45891428Y5041429D01*
X46177142Y5041429D01*
X46320000Y5112858D01*
X46391428Y5255715D01*
X46391428Y5327143D01*
X46320000Y5470000D01*
X46177142Y5541429D01*
X45962857Y5541429D01*
X45820000Y5612858D01*
X45748571Y5755715D01*
X45748571Y5827143D01*
X45820000Y5970000D01*
X45962857Y6041429D01*
X46177142Y6041429D01*
X46320000Y5970000D01*
X47034285Y5041429D02*
X47034285Y6041429D01*
X47034285Y6541429D02*
X46962857Y6470000D01*
X47034285Y6398572D01*
X47105714Y6470000D01*
X47034285Y6541429D01*
X47034285Y6398572D01*
X48391428Y5112858D02*
X48248571Y5041429D01*
X47962857Y5041429D01*
X47820000Y5112858D01*
X47748571Y5184286D01*
X47677142Y5327143D01*
X47677142Y5755715D01*
X47748571Y5898572D01*
X47820000Y5970000D01*
X47962857Y6041429D01*
X48248571Y6041429D01*
X48391428Y5970000D01*
X51034285Y5184286D02*
X50962857Y5112858D01*
X50748571Y5041429D01*
X50605714Y5041429D01*
X50391428Y5112858D01*
X50248571Y5255715D01*
X50177142Y5398572D01*
X50105714Y5684286D01*
X50105714Y5898572D01*
X50177142Y6184286D01*
X50248571Y6327143D01*
X50391428Y6470000D01*
X50605714Y6541429D01*
X50748571Y6541429D01*
X50962857Y6470000D01*
X51034285Y6398572D01*
X51677142Y5041429D02*
X51677142Y6041429D01*
X51677142Y5755715D02*
X51748571Y5898572D01*
X51820000Y5970000D01*
X51962857Y6041429D01*
X52105714Y6041429D01*
X53248571Y5041429D02*
X53248571Y5827143D01*
X53177142Y5970000D01*
X53034285Y6041429D01*
X52748571Y6041429D01*
X52605714Y5970000D01*
X53248571Y5112858D02*
X53105714Y5041429D01*
X52748571Y5041429D01*
X52605714Y5112858D01*
X52534285Y5255715D01*
X52534285Y5398572D01*
X52605714Y5541429D01*
X52748571Y5612858D01*
X53105714Y5612858D01*
X53248571Y5684286D01*
X53962857Y5041429D02*
X53962857Y6041429D01*
X53962857Y5898572D02*
X54034285Y5970000D01*
X54177142Y6041429D01*
X54391428Y6041429D01*
X54534285Y5970000D01*
X54605714Y5827143D01*
X54605714Y5041429D01*
X54605714Y5827143D02*
X54677142Y5970000D01*
X54820000Y6041429D01*
X55034285Y6041429D01*
X55177142Y5970000D01*
X55248571Y5827143D01*
X55248571Y5041429D01*
X55962857Y6041429D02*
X55962857Y4541429D01*
X55962857Y5970000D02*
X56105714Y6041429D01*
X56391428Y6041429D01*
X56534285Y5970000D01*
X56605714Y5898572D01*
X56677142Y5755715D01*
X56677142Y5327143D01*
X56605714Y5184286D01*
X56534285Y5112858D01*
X56391428Y5041429D01*
X56105714Y5041429D01*
X55962857Y5112858D01*
X57248571Y5112858D02*
X57391428Y5041429D01*
X57677142Y5041429D01*
X57820000Y5112858D01*
X57891428Y5255715D01*
X57891428Y5327143D01*
X57820000Y5470000D01*
X57677142Y5541429D01*
X57462857Y5541429D01*
X57320000Y5612858D01*
X57248571Y5755715D01*
X57248571Y5827143D01*
X57320000Y5970000D01*
X57462857Y6041429D01*
X57677142Y6041429D01*
X57820000Y5970000D01*
X59677142Y5041429D02*
X59677142Y6541429D01*
X59677142Y5970000D02*
X59820000Y6041429D01*
X60105714Y6041429D01*
X60248571Y5970000D01*
X60320000Y5898572D01*
X60391428Y5755715D01*
X60391428Y5327143D01*
X60320000Y5184286D01*
X60248571Y5112858D01*
X60105714Y5041429D01*
X59820000Y5041429D01*
X59677142Y5112858D01*
X61248571Y5041429D02*
X61105714Y5112858D01*
X61034285Y5184286D01*
X60962857Y5327143D01*
X60962857Y5755715D01*
X61034285Y5898572D01*
X61105714Y5970000D01*
X61248571Y6041429D01*
X61462857Y6041429D01*
X61605714Y5970000D01*
X61677142Y5898572D01*
X61748571Y5755715D01*
X61748571Y5327143D01*
X61677142Y5184286D01*
X61605714Y5112858D01*
X61462857Y5041429D01*
X61248571Y5041429D01*
X62391428Y5041429D02*
X62391428Y6541429D01*
X62391428Y5970000D02*
X62534285Y6041429D01*
X62820000Y6041429D01*
X62962857Y5970000D01*
X63034285Y5898572D01*
X63105714Y5755715D01*
X63105714Y5327143D01*
X63034285Y5184286D01*
X62962857Y5112858D01*
X62820000Y5041429D01*
X62534285Y5041429D01*
X62391428Y5112858D01*
X44784285Y2491429D02*
X44784285Y3991429D01*
X44784285Y3277143D02*
X45641428Y3277143D01*
X45641428Y2491429D02*
X45641428Y3991429D01*
X46570000Y2491429D02*
X46427142Y2562858D01*
X46355714Y2634286D01*
X46284285Y2777143D01*
X46284285Y3205715D01*
X46355714Y3348572D01*
X46427142Y3420000D01*
X46570000Y3491429D01*
X46784285Y3491429D01*
X46927142Y3420000D01*
X46998571Y3348572D01*
X47070000Y3205715D01*
X47070000Y2777143D01*
X46998571Y2634286D01*
X46927142Y2562858D01*
X46784285Y2491429D01*
X46570000Y2491429D01*
X47927142Y2491429D02*
X47784285Y2562858D01*
X47712857Y2705715D01*
X47712857Y3991429D01*
X48712857Y2491429D02*
X48570000Y2562858D01*
X48498571Y2634286D01*
X48427142Y2777143D01*
X48427142Y3205715D01*
X48498571Y3348572D01*
X48570000Y3420000D01*
X48712857Y3491429D01*
X48927142Y3491429D01*
X49070000Y3420000D01*
X49141428Y3348572D01*
X49212857Y3205715D01*
X49212857Y2777143D01*
X49141428Y2634286D01*
X49070000Y2562858D01*
X48927142Y2491429D01*
X48712857Y2491429D01*
X49641428Y3491429D02*
X50212857Y3491429D01*
X49855714Y3991429D02*
X49855714Y2705715D01*
X49927142Y2562858D01*
X50070000Y2491429D01*
X50212857Y2491429D01*
X50712857Y2491429D02*
X50712857Y3491429D01*
X50712857Y3205715D02*
X50784285Y3348572D01*
X50855714Y3420000D01*
X50998571Y3491429D01*
X51141428Y3491429D01*
X51855714Y2491429D02*
X51712857Y2562858D01*
X51641428Y2634286D01*
X51570000Y2777143D01*
X51570000Y3205715D01*
X51641428Y3348572D01*
X51712857Y3420000D01*
X51855714Y3491429D01*
X52070000Y3491429D01*
X52212857Y3420000D01*
X52284285Y3348572D01*
X52355714Y3205715D01*
X52355714Y2777143D01*
X52284285Y2634286D01*
X52212857Y2562858D01*
X52070000Y2491429D01*
X51855714Y2491429D01*
X52998571Y3491429D02*
X52998571Y2491429D01*
X52998571Y3348572D02*
X53070000Y3420000D01*
X53212857Y3491429D01*
X53427142Y3491429D01*
X53570000Y3420000D01*
X53641428Y3277143D01*
X53641428Y2491429D01*
X54355714Y2491429D02*
X54355714Y3491429D01*
X54355714Y3991429D02*
X54284285Y3920000D01*
X54355714Y3848572D01*
X54427142Y3920000D01*
X54355714Y3991429D01*
X54355714Y3848572D01*
X55712857Y2562858D02*
X55570000Y2491429D01*
X55284285Y2491429D01*
X55141428Y2562858D01*
X55070000Y2634286D01*
X54998571Y2777143D01*
X54998571Y3205715D01*
X55070000Y3348572D01*
X55141428Y3420000D01*
X55284285Y3491429D01*
X55570000Y3491429D01*
X55712857Y3420000D01*
X57355714Y3491429D02*
X57712857Y2491429D01*
X58070000Y3491429D01*
X58570000Y3848572D02*
X58641428Y3920000D01*
X58784285Y3991429D01*
X59141428Y3991429D01*
X59284285Y3920000D01*
X59355714Y3848572D01*
X59427142Y3705715D01*
X59427142Y3562858D01*
X59355714Y3348572D01*
X58498571Y2491429D01*
X59427142Y2491429D01*
D11*
G04 #@! TO.C,ADC1*
X12530000Y3115000D02*
X12530000Y15935000D01*
X12530000Y15935000D02*
X9870000Y15935000D01*
X9870000Y15935000D02*
X9870000Y3115000D01*
X9870000Y3115000D02*
X12530000Y3115000D01*
X9870000Y4065000D02*
X3870000Y4065000D01*
X3870000Y4065000D02*
X3870000Y4825000D01*
X3870000Y4825000D02*
X9870000Y4825000D01*
X9870000Y4125000D02*
X3870000Y4125000D01*
X9870000Y4245000D02*
X3870000Y4245000D01*
X9870000Y4365000D02*
X3870000Y4365000D01*
X9870000Y4485000D02*
X3870000Y4485000D01*
X9870000Y4605000D02*
X3870000Y4605000D01*
X9870000Y4725000D02*
X3870000Y4725000D01*
X12927071Y4065000D02*
X12530000Y4065000D01*
X12927071Y4825000D02*
X12530000Y4825000D01*
X15400000Y4065000D02*
X15012929Y4065000D01*
X15400000Y4825000D02*
X15012929Y4825000D01*
X12530000Y5715000D02*
X9870000Y5715000D01*
X9870000Y6605000D02*
X3870000Y6605000D01*
X3870000Y6605000D02*
X3870000Y7365000D01*
X3870000Y7365000D02*
X9870000Y7365000D01*
X12927071Y6605000D02*
X12530000Y6605000D01*
X12927071Y7365000D02*
X12530000Y7365000D01*
X15467071Y6605000D02*
X15012929Y6605000D01*
X15467071Y7365000D02*
X15012929Y7365000D01*
X12530000Y8255000D02*
X9870000Y8255000D01*
X9870000Y9145000D02*
X3870000Y9145000D01*
X3870000Y9145000D02*
X3870000Y9905000D01*
X3870000Y9905000D02*
X9870000Y9905000D01*
X12927071Y9145000D02*
X12530000Y9145000D01*
X12927071Y9905000D02*
X12530000Y9905000D01*
X15467071Y9145000D02*
X15012929Y9145000D01*
X15467071Y9905000D02*
X15012929Y9905000D01*
X12530000Y10795000D02*
X9870000Y10795000D01*
X9870000Y11685000D02*
X3870000Y11685000D01*
X3870000Y11685000D02*
X3870000Y12445000D01*
X3870000Y12445000D02*
X9870000Y12445000D01*
X12927071Y11685000D02*
X12530000Y11685000D01*
X12927071Y12445000D02*
X12530000Y12445000D01*
X15467071Y11685000D02*
X15012929Y11685000D01*
X15467071Y12445000D02*
X15012929Y12445000D01*
X12530000Y13335000D02*
X9870000Y13335000D01*
X9870000Y14225000D02*
X3870000Y14225000D01*
X3870000Y14225000D02*
X3870000Y14985000D01*
X3870000Y14985000D02*
X9870000Y14985000D01*
X12927071Y14225000D02*
X12530000Y14225000D01*
X12927071Y14985000D02*
X12530000Y14985000D01*
X15467071Y14225000D02*
X15012929Y14225000D01*
X15467071Y14985000D02*
X15012929Y14985000D01*
X17780000Y4445000D02*
X17780000Y3175000D01*
X17780000Y3175000D02*
X16510000Y3175000D01*
G04 #@! TO.C,R1*
X1810000Y20725000D02*
X1810000Y21055000D01*
X1810000Y21055000D02*
X8350000Y21055000D01*
X8350000Y21055000D02*
X8350000Y20725000D01*
X1810000Y18645000D02*
X1810000Y18315000D01*
X1810000Y18315000D02*
X8350000Y18315000D01*
X8350000Y18315000D02*
X8350000Y18645000D01*
G04 #@! TO.C,R2*
X4477936Y20595000D02*
X5682064Y20595000D01*
X4477936Y18775000D02*
X5682064Y18775000D01*
G04 #@! TO.C,P8*
D12*
X73541904Y60682620D02*
X73541904Y61682620D01*
X73922857Y61682620D01*
X74018095Y61635000D01*
X74065714Y61587381D01*
X74113333Y61492143D01*
X74113333Y61349286D01*
X74065714Y61254048D01*
X74018095Y61206429D01*
X73922857Y61158810D01*
X73541904Y61158810D01*
X74684761Y61254048D02*
X74589523Y61301667D01*
X74541904Y61349286D01*
X74494285Y61444524D01*
X74494285Y61492143D01*
X74541904Y61587381D01*
X74589523Y61635000D01*
X74684761Y61682620D01*
X74875238Y61682620D01*
X74970476Y61635000D01*
X75018095Y61587381D01*
X75065714Y61492143D01*
X75065714Y61444524D01*
X75018095Y61349286D01*
X74970476Y61301667D01*
X74875238Y61254048D01*
X74684761Y61254048D01*
X74589523Y61206429D01*
X74541904Y61158810D01*
X74494285Y61063572D01*
X74494285Y60873096D01*
X74541904Y60777858D01*
X74589523Y60730239D01*
X74684761Y60682620D01*
X74875238Y60682620D01*
X74970476Y60730239D01*
X75018095Y60777858D01*
X75065714Y60873096D01*
X75065714Y61063572D01*
X75018095Y61158810D01*
X74970476Y61206429D01*
X74875238Y61254048D01*
G04 #@! TO.C,P9*
X25281904Y60682620D02*
X25281904Y61682620D01*
X25662857Y61682620D01*
X25758095Y61635000D01*
X25805714Y61587381D01*
X25853333Y61492143D01*
X25853333Y61349286D01*
X25805714Y61254048D01*
X25758095Y61206429D01*
X25662857Y61158810D01*
X25281904Y61158810D01*
X26329523Y60682620D02*
X26520000Y60682620D01*
X26615238Y60730239D01*
X26662857Y60777858D01*
X26758095Y60920715D01*
X26805714Y61111191D01*
X26805714Y61492143D01*
X26758095Y61587381D01*
X26710476Y61635000D01*
X26615238Y61682620D01*
X26424761Y61682620D01*
X26329523Y61635000D01*
X26281904Y61587381D01*
X26234285Y61492143D01*
X26234285Y61254048D01*
X26281904Y61158810D01*
X26329523Y61111191D01*
X26424761Y61063572D01*
X26615238Y61063572D01*
X26710476Y61111191D01*
X26758095Y61158810D01*
X26805714Y61254048D01*
G04 #@! TO.C,ADC1*
X13271714Y1738334D02*
X13747904Y1738334D01*
X13176476Y1452620D02*
X13509809Y2452620D01*
X13843142Y1452620D01*
X14176476Y1452620D02*
X14176476Y2452620D01*
X14414571Y2452620D01*
X14557428Y2405000D01*
X14652666Y2309762D01*
X14700285Y2214524D01*
X14747904Y2024048D01*
X14747904Y1881191D01*
X14700285Y1690715D01*
X14652666Y1595477D01*
X14557428Y1500239D01*
X14414571Y1452620D01*
X14176476Y1452620D01*
X15747904Y1547858D02*
X15700285Y1500239D01*
X15557428Y1452620D01*
X15462190Y1452620D01*
X15319333Y1500239D01*
X15224095Y1595477D01*
X15176476Y1690715D01*
X15128857Y1881191D01*
X15128857Y2024048D01*
X15176476Y2214524D01*
X15224095Y2309762D01*
X15319333Y2405000D01*
X15462190Y2452620D01*
X15557428Y2452620D01*
X15700285Y2405000D01*
X15747904Y2357381D01*
X16700285Y1452620D02*
X16128857Y1452620D01*
X16414571Y1452620D02*
X16414571Y2452620D01*
X16319333Y2309762D01*
X16224095Y2214524D01*
X16128857Y2166905D01*
G04 #@! TO.C,R1*
X4913333Y21602620D02*
X4580000Y22078810D01*
X4341904Y21602620D02*
X4341904Y22602620D01*
X4722857Y22602620D01*
X4818095Y22555000D01*
X4865714Y22507381D01*
X4913333Y22412143D01*
X4913333Y22269286D01*
X4865714Y22174048D01*
X4818095Y22126429D01*
X4722857Y22078810D01*
X4341904Y22078810D01*
X5865714Y21602620D02*
X5294285Y21602620D01*
X5580000Y21602620D02*
X5580000Y22602620D01*
X5484761Y22459762D01*
X5389523Y22364524D01*
X5294285Y22316905D01*
G04 #@! TO.C,R2*
X4913333Y16692620D02*
X4580000Y17168810D01*
X4341904Y16692620D02*
X4341904Y17692620D01*
X4722857Y17692620D01*
X4818095Y17645000D01*
X4865714Y17597381D01*
X4913333Y17502143D01*
X4913333Y17359286D01*
X4865714Y17264048D01*
X4818095Y17216429D01*
X4722857Y17168810D01*
X4341904Y17168810D01*
X5294285Y17597381D02*
X5341904Y17645000D01*
X5437142Y17692620D01*
X5675238Y17692620D01*
X5770476Y17645000D01*
X5818095Y17597381D01*
X5865714Y17502143D01*
X5865714Y17406905D01*
X5818095Y17264048D01*
X5246666Y16692620D01*
X5865714Y16692620D01*
G04 #@! TD*
M02*
