  0
SECTION
  2
HEADER
  9
$ANGBASE
  50
0.0
  9
$ANGDIR
  70
  1
  9
$MEASUREMENT
  70
0
  0
ENDSEC
  0
SECTION
  2
TABLES
  0
TABLE
  2
LTYPE
  70
4
  0
LTYPE
  5
40F
  2
CONTINUOUS
  70
0
  3
Solid line
  72
65
  73
0
  40
0.0
  0
LTYPE
  5
410
  2
DASHDOT
 70
0
  3
Dash Dot ____ _ ____ _
 72
65
 73
4
 40
2.0
 49
1.25
 49
-0.25
 49
0.25
 49
-0.25
  0
LTYPE
  5
411
  2
DASHED
 70
0
  3
Dashed __ __ __ __ __
 72
65
 73
2
 40
0.75
 49
0.5
 49
-0.25
  0
LTYPE
  5
43B
  2
DOTTED
 70
0
  3
Dotted .  .  .  .
 72
65
 73
2
 40
0.2
 49
0.0
 49
-0.2
  0
ENDTAB
  0
TABLE
  2
STYLE
  70
4
  0
STYLE
  2
KICAD
  70
0
  40
0
  41
1
  42
1
  50
0
  71
0
  3
isocp.shx
  0
STYLE
  2
KICADB
  70
0
  40
0
  41
1
  42
1
  50
0
  71
0
  3
isocp.shx
  0
STYLE
  2
KICADI
  70
0
  40
0
  41
1
  42
1
  50
15
  71
0
  3
isocp.shx
  0
STYLE
  2
KICADBI
  70
0
  40
0
  41
1
  42
1
  50
15
  71
0
  3
isocp.shx
  0
ENDTAB
  0
TABLE
  2
LAYER
  70
30
  0
LAYER
  2
BLACK
  70
0
  62
7
  6
CONTINUOUS
  0
LAYER
  2
GRAY1
  70
0
  62
251
  6
CONTINUOUS
  0
LAYER
  2
GRAY2
  70
0
  62
8
  6
CONTINUOUS
  0
LAYER
  2
GRAY3
  70
0
  62
9
  6
CONTINUOUS
  0
LAYER
  2
WHITE
  70
0
  62
7
  6
CONTINUOUS
  0
LAYER
  2
LYELLOW
  70
0
  62
51
  6
CONTINUOUS
  0
LAYER
  2
BLUE1
  70
0
  62
178
  6
CONTINUOUS
  0
LAYER
  2
GREEN1
  70
0
  62
98
  6
CONTINUOUS
  0
LAYER
  2
CYAN1
  70
0
  62
138
  6
CONTINUOUS
  0
LAYER
  2
RED1
  70
0
  62
18
  6
CONTINUOUS
  0
LAYER
  2
MAGENTA1
  70
0
  62
228
  6
CONTINUOUS
  0
LAYER
  2
BROWN1
  70
0
  62
58
  6
CONTINUOUS
  0
LAYER
  2
BLUE2
  70
0
  62
5
  6
CONTINUOUS
  0
LAYER
  2
GREEN2
  70
0
  62
3
  6
CONTINUOUS
  0
LAYER
  2
CYAN2
  70
0
  62
4
  6
CONTINUOUS
  0
LAYER
  2
RED2
  70
0
  62
1
  6
CONTINUOUS
  0
LAYER
  2
MAGENTA2
  70
0
  62
6
  6
CONTINUOUS
  0
LAYER
  2
BROWN2
  70
0
  62
54
  6
CONTINUOUS
  0
LAYER
  2
BLUE3
  70
0
  62
171
  6
CONTINUOUS
  0
LAYER
  2
GREEN3
  70
0
  62
91
  6
CONTINUOUS
  0
LAYER
  2
CYAN3
  70
0
  62
131
  6
CONTINUOUS
  0
LAYER
  2
RED3
  70
0
  62
11
  6
CONTINUOUS
  0
LAYER
  2
MAGENTA3
  70
0
  62
221
  6
CONTINUOUS
  0
LAYER
  2
YELLOW3
  70
0
  62
2
  6
CONTINUOUS
  0
LAYER
  2
BLUE4
  70
0
  62
5
  6
CONTINUOUS
  0
LAYER
  2
GREEN4
  70
0
  62
3
  6
CONTINUOUS
  0
LAYER
  2
CYAN4
  70
0
  62
4
  6
CONTINUOUS
  0
LAYER
  2
RED4
  70
0
  62
1
  6
CONTINUOUS
  0
LAYER
  2
MAGENTA4
  70
0
  62
6
  6
CONTINUOUS
  0
LAYER
  2
YELLOW4
  70
0
  62
2
  6
CONTINUOUS
  0
ENDTAB
  0
ENDSEC
  0
SECTION
  2
ENTITIES
0
LINE
8
BLACK
6
CONTINUOUS
10
116.255
20
-81.85
11
116.261
21
-81.85
0
LINE
8
BLACK
6
CONTINUOUS
10
116.261
20
-81.85
11
116.266
21
-81.8518
0
LINE
8
BLACK
6
CONTINUOUS
10
116.266
20
-81.8518
11
116.271
21
-81.8527
0
LINE
8
BLACK
6
CONTINUOUS
10
116.271
20
-81.8527
11
116.275
21
-81.8554
0
LINE
8
BLACK
6
CONTINUOUS
10
116.275
20
-81.8554
11
116.28
21
-81.8572
0
LINE
8
BLACK
6
CONTINUOUS
10
116.28
20
-81.8572
11
116.285
21
-81.8607
0
LINE
8
BLACK
6
CONTINUOUS
10
116.285
20
-81.8607
11
116.289
21
-81.8633
0
LINE
8
BLACK
6
CONTINUOUS
10
116.289
20
-81.8633
11
116.293
21
-81.8674
0
LINE
8
BLACK
6
CONTINUOUS
10
116.293
20
-81.8674
11
116.297
21
-81.8708
0
LINE
8
BLACK
6
CONTINUOUS
10
116.297
20
-81.8708
11
116.299
21
-81.8755
0
LINE
8
BLACK
6
CONTINUOUS
10
116.299
20
-81.8755
11
116.303
21
-81.8795
0
LINE
8
BLACK
6
CONTINUOUS
10
116.303
20
-81.8795
11
116.305
21
-81.8845
0
LINE
8
BLACK
6
CONTINUOUS
10
116.305
20
-81.8845
11
116.307
21
-81.8892
0
LINE
8
BLACK
6
CONTINUOUS
10
116.307
20
-81.8892
11
116.308
21
-81.8944
0
LINE
8
BLACK
6
CONTINUOUS
10
116.308
20
-81.8944
11
116.31
21
-81.8994
0
LINE
8
BLACK
6
CONTINUOUS
10
116.31
20
-81.8994
11
116.31
21
-81.9047
0
LINE
8
BLACK
6
CONTINUOUS
10
116.31
20
-81.9047
11
116.31
21
-81.9048
0
LINE
8
BLACK
6
CONTINUOUS
10
116.31
20
-81.9048
11
116.31
21
-140.455
0
LINE
8
BLACK
6
CONTINUOUS
10
116.31
20
-140.455
11
116.31
21
-140.455
0
LINE
8
BLACK
6
CONTINUOUS
10
116.31
20
-140.455
11
116.31
21
-140.461
0
LINE
8
BLACK
6
CONTINUOUS
10
116.31
20
-140.461
11
116.308
21
-140.466
0
LINE
8
BLACK
6
CONTINUOUS
10
116.308
20
-140.466
11
116.307
21
-140.471
0
LINE
8
BLACK
6
CONTINUOUS
10
116.307
20
-140.471
11
116.305
21
-140.475
0
LINE
8
BLACK
6
CONTINUOUS
10
116.305
20
-140.475
11
116.303
21
-140.48
0
LINE
8
BLACK
6
CONTINUOUS
10
116.303
20
-140.48
11
116.299
21
-140.485
0
LINE
8
BLACK
6
CONTINUOUS
10
116.299
20
-140.485
11
116.297
21
-140.489
0
LINE
8
BLACK
6
CONTINUOUS
10
116.297
20
-140.489
11
116.293
21
-140.493
0
LINE
8
BLACK
6
CONTINUOUS
10
116.293
20
-140.493
11
116.289
21
-140.497
0
LINE
8
BLACK
6
CONTINUOUS
10
116.289
20
-140.497
11
116.285
21
-140.499
0
LINE
8
BLACK
6
CONTINUOUS
10
116.285
20
-140.499
11
116.28
21
-140.503
0
LINE
8
BLACK
6
CONTINUOUS
10
116.28
20
-140.503
11
116.275
21
-140.505
0
LINE
8
BLACK
6
CONTINUOUS
10
116.275
20
-140.505
11
116.271
21
-140.507
0
LINE
8
BLACK
6
CONTINUOUS
10
116.271
20
-140.507
11
116.266
21
-140.508
0
LINE
8
BLACK
6
CONTINUOUS
10
116.266
20
-140.508
11
116.261
21
-140.51
0
LINE
8
BLACK
6
CONTINUOUS
10
116.261
20
-140.51
11
116.255
21
-140.51
0
LINE
8
BLACK
6
CONTINUOUS
10
116.255
20
-140.51
11
116.255
21
-140.51
0
LINE
8
BLACK
6
CONTINUOUS
10
116.255
20
-140.51
11
111.045
21
-140.51
0
LINE
8
BLACK
6
CONTINUOUS
10
111.045
20
-140.51
11
111.045
21
-140.51
0
LINE
8
BLACK
6
CONTINUOUS
10
111.045
20
-140.51
11
111.039
21
-140.51
0
LINE
8
BLACK
6
CONTINUOUS
10
111.039
20
-140.51
11
111.034
21
-140.508
0
LINE
8
BLACK
6
CONTINUOUS
10
111.034
20
-140.508
11
111.029
21
-140.507
0
LINE
8
BLACK
6
CONTINUOUS
10
111.029
20
-140.507
11
111.025
21
-140.505
0
LINE
8
BLACK
6
CONTINUOUS
10
111.025
20
-140.505
11
111.02
21
-140.503
0
LINE
8
BLACK
6
CONTINUOUS
10
111.02
20
-140.503
11
111.015
21
-140.499
0
LINE
8
BLACK
6
CONTINUOUS
10
111.015
20
-140.499
11
111.011
21
-140.497
0
LINE
8
BLACK
6
CONTINUOUS
10
111.011
20
-140.497
11
111.007
21
-140.493
0
LINE
8
BLACK
6
CONTINUOUS
10
111.007
20
-140.493
11
111.003
21
-140.489
0
LINE
8
BLACK
6
CONTINUOUS
10
111.003
20
-140.489
11
111.001
21
-140.485
0
LINE
8
BLACK
6
CONTINUOUS
10
111.001
20
-140.485
11
110.997
21
-140.48
0
LINE
8
BLACK
6
CONTINUOUS
10
110.997
20
-140.48
11
110.995
21
-140.475
0
LINE
8
BLACK
6
CONTINUOUS
10
110.995
20
-140.475
11
110.993
21
-140.471
0
LINE
8
BLACK
6
CONTINUOUS
10
110.993
20
-140.471
11
110.992
21
-140.466
0
LINE
8
BLACK
6
CONTINUOUS
10
110.992
20
-140.466
11
110.99
21
-140.461
0
LINE
8
BLACK
6
CONTINUOUS
10
110.99
20
-140.461
11
110.99
21
-140.439
0
LINE
8
BLACK
6
CONTINUOUS
10
110.99
20
-140.439
11
110.99
21
-84.5048
0
LINE
8
BLACK
6
CONTINUOUS
10
110.99
20
-84.5048
11
110.99
21
-84.5047
0
LINE
8
BLACK
6
CONTINUOUS
10
110.99
20
-84.5047
11
110.99
21
-84.4994
0
LINE
8
BLACK
6
CONTINUOUS
10
110.99
20
-84.4994
11
110.992
21
-84.4944
0
LINE
8
BLACK
6
CONTINUOUS
10
110.992
20
-84.4944
11
110.993
21
-84.4892
0
LINE
8
BLACK
6
CONTINUOUS
10
110.993
20
-84.4892
11
110.995
21
-84.4845
0
LINE
8
BLACK
6
CONTINUOUS
10
110.995
20
-84.4845
11
110.997
21
-84.4795
0
LINE
8
BLACK
6
CONTINUOUS
10
110.997
20
-84.4795
11
111.001
21
-84.4755
0
LINE
8
BLACK
6
CONTINUOUS
10
111.001
20
-84.4755
11
111.003
21
-84.4708
0
LINE
8
BLACK
6
CONTINUOUS
10
111.003
20
-84.4708
11
111.007
21
-84.4674
0
LINE
8
BLACK
6
CONTINUOUS
10
111.007
20
-84.4674
11
111.011
21
-84.4633
0
LINE
8
BLACK
6
CONTINUOUS
10
111.011
20
-84.4633
11
111.015
21
-84.4607
0
LINE
8
BLACK
6
CONTINUOUS
10
111.015
20
-84.4607
11
111.02
21
-84.4572
0
LINE
8
BLACK
6
CONTINUOUS
10
111.02
20
-84.4572
11
111.025
21
-84.4554
0
LINE
8
BLACK
6
CONTINUOUS
10
111.025
20
-84.4554
11
111.029
21
-84.4527
0
LINE
8
BLACK
6
CONTINUOUS
10
111.029
20
-84.4527
11
111.034
21
-84.4518
0
LINE
8
BLACK
6
CONTINUOUS
10
111.034
20
-84.4518
11
111.039
21
-84.45
0
LINE
8
BLACK
6
CONTINUOUS
10
111.039
20
-84.45
11
111.045
21
-84.45
0
LINE
8
BLACK
6
CONTINUOUS
10
111.045
20
-84.45
11
111.045
21
-84.45
0
LINE
8
BLACK
6
CONTINUOUS
10
111.045
20
-84.45
11
113.59
21
-84.45
0
LINE
8
BLACK
6
CONTINUOUS
10
113.59
20
-84.45
11
113.59
21
-81.9048
0
LINE
8
BLACK
6
CONTINUOUS
10
113.59
20
-81.9048
11
113.59
21
-81.9047
0
LINE
8
BLACK
6
CONTINUOUS
10
113.59
20
-81.9047
11
113.59
21
-81.8994
0
LINE
8
BLACK
6
CONTINUOUS
10
113.59
20
-81.8994
11
113.592
21
-81.8944
0
LINE
8
BLACK
6
CONTINUOUS
10
113.592
20
-81.8944
11
113.593
21
-81.8892
0
LINE
8
BLACK
6
CONTINUOUS
10
113.593
20
-81.8892
11
113.595
21
-81.8845
0
LINE
8
BLACK
6
CONTINUOUS
10
113.595
20
-81.8845
11
113.597
21
-81.8795
0
LINE
8
BLACK
6
CONTINUOUS
10
113.597
20
-81.8795
11
113.601
21
-81.8755
0
LINE
8
BLACK
6
CONTINUOUS
10
113.601
20
-81.8755
11
113.603
21
-81.8708
0
LINE
8
BLACK
6
CONTINUOUS
10
113.603
20
-81.8708
11
113.607
21
-81.8674
0
LINE
8
BLACK
6
CONTINUOUS
10
113.607
20
-81.8674
11
113.611
21
-81.8633
0
LINE
8
BLACK
6
CONTINUOUS
10
113.611
20
-81.8633
11
113.615
21
-81.8607
0
LINE
8
BLACK
6
CONTINUOUS
10
113.615
20
-81.8607
11
113.62
21
-81.8572
0
LINE
8
BLACK
6
CONTINUOUS
10
113.62
20
-81.8572
11
113.625
21
-81.8554
0
LINE
8
BLACK
6
CONTINUOUS
10
113.625
20
-81.8554
11
113.629
21
-81.8527
0
LINE
8
BLACK
6
CONTINUOUS
10
113.629
20
-81.8527
11
113.634
21
-81.8518
0
LINE
8
BLACK
6
CONTINUOUS
10
113.634
20
-81.8518
11
113.639
21
-81.85
0
LINE
8
BLACK
6
CONTINUOUS
10
113.639
20
-81.85
11
113.645
21
-81.85
0
LINE
8
BLACK
6
CONTINUOUS
10
113.645
20
-81.85
11
113.645
21
-81.85
0
LINE
8
BLACK
6
CONTINUOUS
10
113.645
20
-81.85
11
116.255
21
-81.85
0
LINE
8
BLACK
6
CONTINUOUS
10
116.255
20
-81.85
11
116.255
21
-81.85
0
LINE
8
BLACK
6
CONTINUOUS
10
113.71
20
-81.97
11
113.71
21
-84.5152
0
LINE
8
BLACK
6
CONTINUOUS
10
113.71
20
-84.5152
11
113.71
21
-84.5153
0
LINE
8
BLACK
6
CONTINUOUS
10
113.71
20
-84.5153
11
113.71
21
-84.5206
0
LINE
8
BLACK
6
CONTINUOUS
10
113.71
20
-84.5206
11
113.708
21
-84.5256
0
LINE
8
BLACK
6
CONTINUOUS
10
113.708
20
-84.5256
11
113.707
21
-84.5308
0
LINE
8
BLACK
6
CONTINUOUS
10
113.707
20
-84.5308
11
113.705
21
-84.5355
0
LINE
8
BLACK
6
CONTINUOUS
10
113.705
20
-84.5355
11
113.703
21
-84.5405
0
LINE
8
BLACK
6
CONTINUOUS
10
113.703
20
-84.5405
11
113.699
21
-84.5445
0
LINE
8
BLACK
6
CONTINUOUS
10
113.699
20
-84.5445
11
113.697
21
-84.5492
0
LINE
8
BLACK
6
CONTINUOUS
10
113.697
20
-84.5492
11
113.693
21
-84.5526
0
LINE
8
BLACK
6
CONTINUOUS
10
113.693
20
-84.5526
11
113.689
21
-84.5567
0
LINE
8
BLACK
6
CONTINUOUS
10
113.689
20
-84.5567
11
113.685
21
-84.5593
0
LINE
8
BLACK
6
CONTINUOUS
10
113.685
20
-84.5593
11
113.68
21
-84.5628
0
LINE
8
BLACK
6
CONTINUOUS
10
113.68
20
-84.5628
11
113.675
21
-84.5646
0
LINE
8
BLACK
6
CONTINUOUS
10
113.675
20
-84.5646
11
113.671
21
-84.5673
0
LINE
8
BLACK
6
CONTINUOUS
10
113.671
20
-84.5673
11
113.666
21
-84.5682
0
LINE
8
BLACK
6
CONTINUOUS
10
113.666
20
-84.5682
11
113.661
21
-84.57
0
LINE
8
BLACK
6
CONTINUOUS
10
113.661
20
-84.57
11
113.655
21
-84.57
0
LINE
8
BLACK
6
CONTINUOUS
10
113.655
20
-84.57
11
113.655
21
-84.57
0
LINE
8
BLACK
6
CONTINUOUS
10
113.655
20
-84.57
11
111.11
21
-84.57
0
LINE
8
BLACK
6
CONTINUOUS
10
111.11
20
-84.57
11
111.11
21
-140.39
0
LINE
8
BLACK
6
CONTINUOUS
10
111.11
20
-140.39
11
116.19
21
-140.39
0
LINE
8
BLACK
6
CONTINUOUS
10
116.19
20
-140.39
11
116.19
21
-81.97
0
LINE
8
BLACK
6
CONTINUOUS
10
116.19
20
-81.97
11
113.71
21
-81.97
0
LINE
8
BLACK
6
CONTINUOUS
10
164.515
20
-81.85
11
164.521
21
-81.85
0
LINE
8
BLACK
6
CONTINUOUS
10
164.521
20
-81.85
11
164.526
21
-81.8518
0
LINE
8
BLACK
6
CONTINUOUS
10
164.526
20
-81.8518
11
164.531
21
-81.8527
0
LINE
8
BLACK
6
CONTINUOUS
10
164.531
20
-81.8527
11
164.535
21
-81.8554
0
LINE
8
BLACK
6
CONTINUOUS
10
164.535
20
-81.8554
11
164.54
21
-81.8572
0
LINE
8
BLACK
6
CONTINUOUS
10
164.54
20
-81.8572
11
164.545
21
-81.8607
0
LINE
8
BLACK
6
CONTINUOUS
10
164.545
20
-81.8607
11
164.549
21
-81.8633
0
LINE
8
BLACK
6
CONTINUOUS
10
164.549
20
-81.8633
11
164.553
21
-81.8674
0
LINE
8
BLACK
6
CONTINUOUS
10
164.553
20
-81.8674
11
164.557
21
-81.8708
0
LINE
8
BLACK
6
CONTINUOUS
10
164.557
20
-81.8708
11
164.559
21
-81.8755
0
LINE
8
BLACK
6
CONTINUOUS
10
164.559
20
-81.8755
11
164.563
21
-81.8795
0
LINE
8
BLACK
6
CONTINUOUS
10
164.563
20
-81.8795
11
164.565
21
-81.8845
0
LINE
8
BLACK
6
CONTINUOUS
10
164.565
20
-81.8845
11
164.567
21
-81.8892
0
LINE
8
BLACK
6
CONTINUOUS
10
164.567
20
-81.8892
11
164.568
21
-81.8944
0
LINE
8
BLACK
6
CONTINUOUS
10
164.568
20
-81.8944
11
164.57
21
-81.8994
0
LINE
8
BLACK
6
CONTINUOUS
10
164.57
20
-81.8994
11
164.57
21
-81.9047
0
LINE
8
BLACK
6
CONTINUOUS
10
164.57
20
-81.9047
11
164.57
21
-81.9048
0
LINE
8
BLACK
6
CONTINUOUS
10
164.57
20
-81.9048
11
164.57
21
-140.455
0
LINE
8
BLACK
6
CONTINUOUS
10
164.57
20
-140.455
11
164.57
21
-140.455
0
LINE
8
BLACK
6
CONTINUOUS
10
164.57
20
-140.455
11
164.57
21
-140.461
0
LINE
8
BLACK
6
CONTINUOUS
10
164.57
20
-140.461
11
164.568
21
-140.466
0
LINE
8
BLACK
6
CONTINUOUS
10
164.568
20
-140.466
11
164.567
21
-140.471
0
LINE
8
BLACK
6
CONTINUOUS
10
164.567
20
-140.471
11
164.565
21
-140.475
0
LINE
8
BLACK
6
CONTINUOUS
10
164.565
20
-140.475
11
164.563
21
-140.48
0
LINE
8
BLACK
6
CONTINUOUS
10
164.563
20
-140.48
11
164.559
21
-140.485
0
LINE
8
BLACK
6
CONTINUOUS
10
164.559
20
-140.485
11
164.557
21
-140.489
0
LINE
8
BLACK
6
CONTINUOUS
10
164.557
20
-140.489
11
164.553
21
-140.493
0
LINE
8
BLACK
6
CONTINUOUS
10
164.553
20
-140.493
11
164.549
21
-140.497
0
LINE
8
BLACK
6
CONTINUOUS
10
164.549
20
-140.497
11
164.545
21
-140.499
0
LINE
8
BLACK
6
CONTINUOUS
10
164.545
20
-140.499
11
164.54
21
-140.503
0
LINE
8
BLACK
6
CONTINUOUS
10
164.54
20
-140.503
11
164.535
21
-140.505
0
LINE
8
BLACK
6
CONTINUOUS
10
164.535
20
-140.505
11
164.531
21
-140.507
0
LINE
8
BLACK
6
CONTINUOUS
10
164.531
20
-140.507
11
164.526
21
-140.508
0
LINE
8
BLACK
6
CONTINUOUS
10
164.526
20
-140.508
11
164.521
21
-140.51
0
LINE
8
BLACK
6
CONTINUOUS
10
164.521
20
-140.51
11
164.515
21
-140.51
0
LINE
8
BLACK
6
CONTINUOUS
10
164.515
20
-140.51
11
164.515
21
-140.51
0
LINE
8
BLACK
6
CONTINUOUS
10
164.515
20
-140.51
11
159.305
21
-140.51
0
LINE
8
BLACK
6
CONTINUOUS
10
159.305
20
-140.51
11
159.305
21
-140.51
0
LINE
8
BLACK
6
CONTINUOUS
10
159.305
20
-140.51
11
159.299
21
-140.51
0
LINE
8
BLACK
6
CONTINUOUS
10
159.299
20
-140.51
11
159.294
21
-140.508
0
LINE
8
BLACK
6
CONTINUOUS
10
159.294
20
-140.508
11
159.289
21
-140.507
0
LINE
8
BLACK
6
CONTINUOUS
10
159.289
20
-140.507
11
159.285
21
-140.505
0
LINE
8
BLACK
6
CONTINUOUS
10
159.285
20
-140.505
11
159.28
21
-140.503
0
LINE
8
BLACK
6
CONTINUOUS
10
159.28
20
-140.503
11
159.275
21
-140.499
0
LINE
8
BLACK
6
CONTINUOUS
10
159.275
20
-140.499
11
159.271
21
-140.497
0
LINE
8
BLACK
6
CONTINUOUS
10
159.271
20
-140.497
11
159.267
21
-140.493
0
LINE
8
BLACK
6
CONTINUOUS
10
159.267
20
-140.493
11
159.263
21
-140.489
0
LINE
8
BLACK
6
CONTINUOUS
10
159.263
20
-140.489
11
159.261
21
-140.485
0
LINE
8
BLACK
6
CONTINUOUS
10
159.261
20
-140.485
11
159.257
21
-140.48
0
LINE
8
BLACK
6
CONTINUOUS
10
159.257
20
-140.48
11
159.255
21
-140.475
0
LINE
8
BLACK
6
CONTINUOUS
10
159.255
20
-140.475
11
159.253
21
-140.471
0
LINE
8
BLACK
6
CONTINUOUS
10
159.253
20
-140.471
11
159.252
21
-140.466
0
LINE
8
BLACK
6
CONTINUOUS
10
159.252
20
-140.466
11
159.25
21
-140.461
0
LINE
8
BLACK
6
CONTINUOUS
10
159.25
20
-140.461
11
159.25
21
-140.439
0
LINE
8
BLACK
6
CONTINUOUS
10
159.25
20
-140.439
11
159.25
21
-84.5048
0
LINE
8
BLACK
6
CONTINUOUS
10
159.25
20
-84.5048
11
159.25
21
-84.5047
0
LINE
8
BLACK
6
CONTINUOUS
10
159.25
20
-84.5047
11
159.25
21
-84.4994
0
LINE
8
BLACK
6
CONTINUOUS
10
159.25
20
-84.4994
11
159.252
21
-84.4944
0
LINE
8
BLACK
6
CONTINUOUS
10
159.252
20
-84.4944
11
159.253
21
-84.4892
0
LINE
8
BLACK
6
CONTINUOUS
10
159.253
20
-84.4892
11
159.255
21
-84.4845
0
LINE
8
BLACK
6
CONTINUOUS
10
159.255
20
-84.4845
11
159.257
21
-84.4795
0
LINE
8
BLACK
6
CONTINUOUS
10
159.257
20
-84.4795
11
159.261
21
-84.4755
0
LINE
8
BLACK
6
CONTINUOUS
10
159.261
20
-84.4755
11
159.263
21
-84.4708
0
LINE
8
BLACK
6
CONTINUOUS
10
159.263
20
-84.4708
11
159.267
21
-84.4674
0
LINE
8
BLACK
6
CONTINUOUS
10
159.267
20
-84.4674
11
159.271
21
-84.4633
0
LINE
8
BLACK
6
CONTINUOUS
10
159.271
20
-84.4633
11
159.275
21
-84.4607
0
LINE
8
BLACK
6
CONTINUOUS
10
159.275
20
-84.4607
11
159.28
21
-84.4572
0
LINE
8
BLACK
6
CONTINUOUS
10
159.28
20
-84.4572
11
159.285
21
-84.4554
0
LINE
8
BLACK
6
CONTINUOUS
10
159.285
20
-84.4554
11
159.289
21
-84.4527
0
LINE
8
BLACK
6
CONTINUOUS
10
159.289
20
-84.4527
11
159.294
21
-84.4518
0
LINE
8
BLACK
6
CONTINUOUS
10
159.294
20
-84.4518
11
159.299
21
-84.45
0
LINE
8
BLACK
6
CONTINUOUS
10
159.299
20
-84.45
11
159.305
21
-84.45
0
LINE
8
BLACK
6
CONTINUOUS
10
159.305
20
-84.45
11
159.305
21
-84.45
0
LINE
8
BLACK
6
CONTINUOUS
10
159.305
20
-84.45
11
161.85
21
-84.45
0
LINE
8
BLACK
6
CONTINUOUS
10
161.85
20
-84.45
11
161.85
21
-81.9048
0
LINE
8
BLACK
6
CONTINUOUS
10
161.85
20
-81.9048
11
161.85
21
-81.9047
0
LINE
8
BLACK
6
CONTINUOUS
10
161.85
20
-81.9047
11
161.85
21
-81.8994
0
LINE
8
BLACK
6
CONTINUOUS
10
161.85
20
-81.8994
11
161.852
21
-81.8944
0
LINE
8
BLACK
6
CONTINUOUS
10
161.852
20
-81.8944
11
161.853
21
-81.8892
0
LINE
8
BLACK
6
CONTINUOUS
10
161.853
20
-81.8892
11
161.855
21
-81.8845
0
LINE
8
BLACK
6
CONTINUOUS
10
161.855
20
-81.8845
11
161.857
21
-81.8795
0
LINE
8
BLACK
6
CONTINUOUS
10
161.857
20
-81.8795
11
161.861
21
-81.8755
0
LINE
8
BLACK
6
CONTINUOUS
10
161.861
20
-81.8755
11
161.863
21
-81.8708
0
LINE
8
BLACK
6
CONTINUOUS
10
161.863
20
-81.8708
11
161.867
21
-81.8674
0
LINE
8
BLACK
6
CONTINUOUS
10
161.867
20
-81.8674
11
161.871
21
-81.8633
0
LINE
8
BLACK
6
CONTINUOUS
10
161.871
20
-81.8633
11
161.875
21
-81.8607
0
LINE
8
BLACK
6
CONTINUOUS
10
161.875
20
-81.8607
11
161.88
21
-81.8572
0
LINE
8
BLACK
6
CONTINUOUS
10
161.88
20
-81.8572
11
161.885
21
-81.8554
0
LINE
8
BLACK
6
CONTINUOUS
10
161.885
20
-81.8554
11
161.889
21
-81.8527
0
LINE
8
BLACK
6
CONTINUOUS
10
161.889
20
-81.8527
11
161.894
21
-81.8518
0
LINE
8
BLACK
6
CONTINUOUS
10
161.894
20
-81.8518
11
161.899
21
-81.85
0
LINE
8
BLACK
6
CONTINUOUS
10
161.899
20
-81.85
11
161.905
21
-81.85
0
LINE
8
BLACK
6
CONTINUOUS
10
161.905
20
-81.85
11
161.905
21
-81.85
0
LINE
8
BLACK
6
CONTINUOUS
10
161.905
20
-81.85
11
164.515
21
-81.85
0
LINE
8
BLACK
6
CONTINUOUS
10
164.515
20
-81.85
11
164.515
21
-81.85
0
LINE
8
BLACK
6
CONTINUOUS
10
161.97
20
-81.97
11
161.97
21
-84.5152
0
LINE
8
BLACK
6
CONTINUOUS
10
161.97
20
-84.5152
11
161.97
21
-84.5153
0
LINE
8
BLACK
6
CONTINUOUS
10
161.97
20
-84.5153
11
161.97
21
-84.5206
0
LINE
8
BLACK
6
CONTINUOUS
10
161.97
20
-84.5206
11
161.968
21
-84.5256
0
LINE
8
BLACK
6
CONTINUOUS
10
161.968
20
-84.5256
11
161.967
21
-84.5308
0
LINE
8
BLACK
6
CONTINUOUS
10
161.967
20
-84.5308
11
161.965
21
-84.5355
0
LINE
8
BLACK
6
CONTINUOUS
10
161.965
20
-84.5355
11
161.963
21
-84.5405
0
LINE
8
BLACK
6
CONTINUOUS
10
161.963
20
-84.5405
11
161.959
21
-84.5445
0
LINE
8
BLACK
6
CONTINUOUS
10
161.959
20
-84.5445
11
161.957
21
-84.5492
0
LINE
8
BLACK
6
CONTINUOUS
10
161.957
20
-84.5492
11
161.953
21
-84.5526
0
LINE
8
BLACK
6
CONTINUOUS
10
161.953
20
-84.5526
11
161.949
21
-84.5567
0
LINE
8
BLACK
6
CONTINUOUS
10
161.949
20
-84.5567
11
161.945
21
-84.5593
0
LINE
8
BLACK
6
CONTINUOUS
10
161.945
20
-84.5593
11
161.94
21
-84.5628
0
LINE
8
BLACK
6
CONTINUOUS
10
161.94
20
-84.5628
11
161.935
21
-84.5646
0
LINE
8
BLACK
6
CONTINUOUS
10
161.935
20
-84.5646
11
161.931
21
-84.5673
0
LINE
8
BLACK
6
CONTINUOUS
10
161.931
20
-84.5673
11
161.926
21
-84.5682
0
LINE
8
BLACK
6
CONTINUOUS
10
161.926
20
-84.5682
11
161.921
21
-84.57
0
LINE
8
BLACK
6
CONTINUOUS
10
161.921
20
-84.57
11
161.915
21
-84.57
0
LINE
8
BLACK
6
CONTINUOUS
10
161.915
20
-84.57
11
161.915
21
-84.57
0
LINE
8
BLACK
6
CONTINUOUS
10
161.915
20
-84.57
11
159.37
21
-84.57
0
LINE
8
BLACK
6
CONTINUOUS
10
159.37
20
-84.57
11
159.37
21
-140.39
0
LINE
8
BLACK
6
CONTINUOUS
10
159.37
20
-140.39
11
164.45
21
-140.39
0
LINE
8
BLACK
6
CONTINUOUS
10
164.45
20
-140.39
11
164.45
21
-81.97
0
LINE
8
BLACK
6
CONTINUOUS
10
164.45
20
-81.97
11
161.97
21
-81.97
0
LINE
8
BLACK
6
CONTINUOUS
10
95.3153
20
-67.19
11
95.3206
21
-67.19
0
LINE
8
BLACK
6
CONTINUOUS
10
95.3206
20
-67.19
11
95.3256
21
-67.1918
0
LINE
8
BLACK
6
CONTINUOUS
10
95.3256
20
-67.1918
11
95.3308
21
-67.1927
0
LINE
8
BLACK
6
CONTINUOUS
10
95.3308
20
-67.1927
11
95.3355
21
-67.1954
0
LINE
8
BLACK
6
CONTINUOUS
10
95.3355
20
-67.1954
11
95.3405
21
-67.1972
0
LINE
8
BLACK
6
CONTINUOUS
10
95.3405
20
-67.1972
11
95.3445
21
-67.2007
0
LINE
8
BLACK
6
CONTINUOUS
10
95.3445
20
-67.2007
11
95.3492
21
-67.2033
0
LINE
8
BLACK
6
CONTINUOUS
10
95.3492
20
-67.2033
11
95.3526
21
-67.2074
0
LINE
8
BLACK
6
CONTINUOUS
10
95.3526
20
-67.2074
11
95.3567
21
-67.2108
0
LINE
8
BLACK
6
CONTINUOUS
10
95.3567
20
-67.2108
11
95.3593
21
-67.2155
0
LINE
8
BLACK
6
CONTINUOUS
10
95.3593
20
-67.2155
11
95.3628
21
-67.2195
0
LINE
8
BLACK
6
CONTINUOUS
10
95.3628
20
-67.2195
11
95.3646
21
-67.2245
0
LINE
8
BLACK
6
CONTINUOUS
10
95.3646
20
-67.2245
11
95.3673
21
-67.2292
0
LINE
8
BLACK
6
CONTINUOUS
10
95.3673
20
-67.2292
11
95.3682
21
-67.2344
0
LINE
8
BLACK
6
CONTINUOUS
10
95.3682
20
-67.2344
11
95.37
21
-67.2394
0
LINE
8
BLACK
6
CONTINUOUS
10
95.37
20
-67.2394
11
95.37
21
-67.2447
0
LINE
8
BLACK
6
CONTINUOUS
10
95.37
20
-67.2447
11
95.37
21
-67.2448
0
LINE
8
BLACK
6
CONTINUOUS
10
95.37
20
-67.2448
11
95.37
21
-118.175
0
LINE
8
BLACK
6
CONTINUOUS
10
95.37
20
-118.175
11
95.37
21
-118.175
0
LINE
8
BLACK
6
CONTINUOUS
10
95.37
20
-118.175
11
95.37
21
-118.181
0
LINE
8
BLACK
6
CONTINUOUS
10
95.37
20
-118.181
11
95.3682
21
-118.186
0
LINE
8
BLACK
6
CONTINUOUS
10
95.3682
20
-118.186
11
95.3673
21
-118.191
0
LINE
8
BLACK
6
CONTINUOUS
10
95.3673
20
-118.191
11
95.3646
21
-118.195
0
LINE
8
BLACK
6
CONTINUOUS
10
95.3646
20
-118.195
11
95.3628
21
-118.2
0
LINE
8
BLACK
6
CONTINUOUS
10
95.3628
20
-118.2
11
95.3593
21
-118.205
0
LINE
8
BLACK
6
CONTINUOUS
10
95.3593
20
-118.205
11
95.3567
21
-118.209
0
LINE
8
BLACK
6
CONTINUOUS
10
95.3567
20
-118.209
11
95.3526
21
-118.213
0
LINE
8
BLACK
6
CONTINUOUS
10
95.3526
20
-118.213
11
95.3492
21
-118.217
0
LINE
8
BLACK
6
CONTINUOUS
10
95.3492
20
-118.217
11
95.3445
21
-118.219
0
LINE
8
BLACK
6
CONTINUOUS
10
95.3445
20
-118.219
11
95.3405
21
-118.223
0
LINE
8
BLACK
6
CONTINUOUS
10
95.3405
20
-118.223
11
95.3355
21
-118.225
0
LINE
8
BLACK
6
CONTINUOUS
10
95.3355
20
-118.225
11
95.3308
21
-118.227
0
LINE
8
BLACK
6
CONTINUOUS
10
95.3308
20
-118.227
11
95.3256
21
-118.228
0
LINE
8
BLACK
6
CONTINUOUS
10
95.3256
20
-118.228
11
95.3206
21
-118.23
0
LINE
8
BLACK
6
CONTINUOUS
10
95.3206
20
-118.23
11
95.3153
21
-118.23
0
LINE
8
BLACK
6
CONTINUOUS
10
95.3153
20
-118.23
11
95.3152
21
-118.23
0
LINE
8
BLACK
6
CONTINUOUS
10
95.3152
20
-118.23
11
90.1048
21
-118.23
0
LINE
8
BLACK
6
CONTINUOUS
10
90.1048
20
-118.23
11
90.1047
21
-118.23
0
LINE
8
BLACK
6
CONTINUOUS
10
90.1047
20
-118.23
11
90.0994
21
-118.23
0
LINE
8
BLACK
6
CONTINUOUS
10
90.0994
20
-118.23
11
90.0944
21
-118.228
0
LINE
8
BLACK
6
CONTINUOUS
10
90.0944
20
-118.228
11
90.0892
21
-118.227
0
LINE
8
BLACK
6
CONTINUOUS
10
90.0892
20
-118.227
11
90.0845
21
-118.225
0
LINE
8
BLACK
6
CONTINUOUS
10
90.0845
20
-118.225
11
90.0795
21
-118.223
0
LINE
8
BLACK
6
CONTINUOUS
10
90.0795
20
-118.223
11
90.0755
21
-118.219
0
LINE
8
BLACK
6
CONTINUOUS
10
90.0755
20
-118.219
11
90.0708
21
-118.217
0
LINE
8
BLACK
6
CONTINUOUS
10
90.0708
20
-118.217
11
90.0674
21
-118.213
0
LINE
8
BLACK
6
CONTINUOUS
10
90.0674
20
-118.213
11
90.0633
21
-118.209
0
LINE
8
BLACK
6
CONTINUOUS
10
90.0633
20
-118.209
11
90.0607
21
-118.205
0
LINE
8
BLACK
6
CONTINUOUS
10
90.0607
20
-118.205
11
90.0572
21
-118.2
0
LINE
8
BLACK
6
CONTINUOUS
10
90.0572
20
-118.2
11
90.0554
21
-118.195
0
LINE
8
BLACK
6
CONTINUOUS
10
90.0554
20
-118.195
11
90.0527
21
-118.191
0
LINE
8
BLACK
6
CONTINUOUS
10
90.0527
20
-118.191
11
90.0518
21
-118.186
0
LINE
8
BLACK
6
CONTINUOUS
10
90.0518
20
-118.186
11
90.05
21
-118.181
0
LINE
8
BLACK
6
CONTINUOUS
10
90.05
20
-118.181
11
90.05
21
-118.159
0
LINE
8
BLACK
6
CONTINUOUS
10
90.05
20
-118.159
11
90.05
21
-69.8448
0
LINE
8
BLACK
6
CONTINUOUS
10
90.05
20
-69.8448
11
90.05
21
-69.8447
0
LINE
8
BLACK
6
CONTINUOUS
10
90.05
20
-69.8447
11
90.05
21
-69.8394
0
LINE
8
BLACK
6
CONTINUOUS
10
90.05
20
-69.8394
11
90.0518
21
-69.8344
0
LINE
8
BLACK
6
CONTINUOUS
10
90.0518
20
-69.8344
11
90.0527
21
-69.8292
0
LINE
8
BLACK
6
CONTINUOUS
10
90.0527
20
-69.8292
11
90.0554
21
-69.8245
0
LINE
8
BLACK
6
CONTINUOUS
10
90.0554
20
-69.8245
11
90.0572
21
-69.8195
0
LINE
8
BLACK
6
CONTINUOUS
10
90.0572
20
-69.8195
11
90.0607
21
-69.8155
0
LINE
8
BLACK
6
CONTINUOUS
10
90.0607
20
-69.8155
11
90.0633
21
-69.8108
0
LINE
8
BLACK
6
CONTINUOUS
10
90.0633
20
-69.8108
11
90.0674
21
-69.8074
0
LINE
8
BLACK
6
CONTINUOUS
10
90.0674
20
-69.8074
11
90.0708
21
-69.8033
0
LINE
8
BLACK
6
CONTINUOUS
10
90.0708
20
-69.8033
11
90.0755
21
-69.8007
0
LINE
8
BLACK
6
CONTINUOUS
10
90.0755
20
-69.8007
11
90.0795
21
-69.7972
0
LINE
8
BLACK
6
CONTINUOUS
10
90.0795
20
-69.7972
11
90.0845
21
-69.7954
0
LINE
8
BLACK
6
CONTINUOUS
10
90.0845
20
-69.7954
11
90.0892
21
-69.7927
0
LINE
8
BLACK
6
CONTINUOUS
10
90.0892
20
-69.7927
11
90.0944
21
-69.7918
0
LINE
8
BLACK
6
CONTINUOUS
10
90.0944
20
-69.7918
11
90.0994
21
-69.79
0
LINE
8
BLACK
6
CONTINUOUS
10
90.0994
20
-69.79
11
90.1047
21
-69.79
0
LINE
8
BLACK
6
CONTINUOUS
10
90.1047
20
-69.79
11
90.1048
21
-69.79
0
LINE
8
BLACK
6
CONTINUOUS
10
90.1048
20
-69.79
11
92.65
21
-69.79
0
LINE
8
BLACK
6
CONTINUOUS
10
92.65
20
-69.79
11
92.65
21
-67.2448
0
LINE
8
BLACK
6
CONTINUOUS
10
92.65
20
-67.2448
11
92.65
21
-67.2447
0
LINE
8
BLACK
6
CONTINUOUS
10
92.65
20
-67.2447
11
92.65
21
-67.2394
0
LINE
8
BLACK
6
CONTINUOUS
10
92.65
20
-67.2394
11
92.6518
21
-67.2344
0
LINE
8
BLACK
6
CONTINUOUS
10
92.6518
20
-67.2344
11
92.6527
21
-67.2292
0
LINE
8
BLACK
6
CONTINUOUS
10
92.6527
20
-67.2292
11
92.6554
21
-67.2245
0
LINE
8
BLACK
6
CONTINUOUS
10
92.6554
20
-67.2245
11
92.6572
21
-67.2195
0
LINE
8
BLACK
6
CONTINUOUS
10
92.6572
20
-67.2195
11
92.6607
21
-67.2155
0
LINE
8
BLACK
6
CONTINUOUS
10
92.6607
20
-67.2155
11
92.6633
21
-67.2108
0
LINE
8
BLACK
6
CONTINUOUS
10
92.6633
20
-67.2108
11
92.6674
21
-67.2074
0
LINE
8
BLACK
6
CONTINUOUS
10
92.6674
20
-67.2074
11
92.6708
21
-67.2033
0
LINE
8
BLACK
6
CONTINUOUS
10
92.6708
20
-67.2033
11
92.6755
21
-67.2007
0
LINE
8
BLACK
6
CONTINUOUS
10
92.6755
20
-67.2007
11
92.6795
21
-67.1972
0
LINE
8
BLACK
6
CONTINUOUS
10
92.6795
20
-67.1972
11
92.6845
21
-67.1954
0
LINE
8
BLACK
6
CONTINUOUS
10
92.6845
20
-67.1954
11
92.6892
21
-67.1927
0
LINE
8
BLACK
6
CONTINUOUS
10
92.6892
20
-67.1927
11
92.6944
21
-67.1918
0
LINE
8
BLACK
6
CONTINUOUS
10
92.6944
20
-67.1918
11
92.6994
21
-67.19
0
LINE
8
BLACK
6
CONTINUOUS
10
92.6994
20
-67.19
11
92.7047
21
-67.19
0
LINE
8
BLACK
6
CONTINUOUS
10
92.7047
20
-67.19
11
92.7048
21
-67.19
0
LINE
8
BLACK
6
CONTINUOUS
10
92.7048
20
-67.19
11
95.3152
21
-67.19
0
LINE
8
BLACK
6
CONTINUOUS
10
95.3152
20
-67.19
11
95.3153
21
-67.19
0
LINE
8
BLACK
6
CONTINUOUS
10
92.77
20
-67.31
11
92.77
21
-69.8552
0
LINE
8
BLACK
6
CONTINUOUS
10
92.77
20
-69.8552
11
92.77
21
-69.8553
0
LINE
8
BLACK
6
CONTINUOUS
10
92.77
20
-69.8553
11
92.77
21
-69.8606
0
LINE
8
BLACK
6
CONTINUOUS
10
92.77
20
-69.8606
11
92.7682
21
-69.8656
0
LINE
8
BLACK
6
CONTINUOUS
10
92.7682
20
-69.8656
11
92.7673
21
-69.8708
0
LINE
8
BLACK
6
CONTINUOUS
10
92.7673
20
-69.8708
11
92.7646
21
-69.8755
0
LINE
8
BLACK
6
CONTINUOUS
10
92.7646
20
-69.8755
11
92.7628
21
-69.8805
0
LINE
8
BLACK
6
CONTINUOUS
10
92.7628
20
-69.8805
11
92.7593
21
-69.8845
0
LINE
8
BLACK
6
CONTINUOUS
10
92.7593
20
-69.8845
11
92.7567
21
-69.8892
0
LINE
8
BLACK
6
CONTINUOUS
10
92.7567
20
-69.8892
11
92.7526
21
-69.8926
0
LINE
8
BLACK
6
CONTINUOUS
10
92.7526
20
-69.8926
11
92.7492
21
-69.8967
0
LINE
8
BLACK
6
CONTINUOUS
10
92.7492
20
-69.8967
11
92.7445
21
-69.8993
0
LINE
8
BLACK
6
CONTINUOUS
10
92.7445
20
-69.8993
11
92.7405
21
-69.9028
0
LINE
8
BLACK
6
CONTINUOUS
10
92.7405
20
-69.9028
11
92.7355
21
-69.9046
0
LINE
8
BLACK
6
CONTINUOUS
10
92.7355
20
-69.9046
11
92.7308
21
-69.9073
0
LINE
8
BLACK
6
CONTINUOUS
10
92.7308
20
-69.9073
11
92.7256
21
-69.9082
0
LINE
8
BLACK
6
CONTINUOUS
10
92.7256
20
-69.9082
11
92.7206
21
-69.91
0
LINE
8
BLACK
6
CONTINUOUS
10
92.7206
20
-69.91
11
92.7153
21
-69.91
0
LINE
8
BLACK
6
CONTINUOUS
10
92.7153
20
-69.91
11
92.7152
21
-69.91
0
LINE
8
BLACK
6
CONTINUOUS
10
92.7152
20
-69.91
11
90.17
21
-69.91
0
LINE
8
BLACK
6
CONTINUOUS
10
90.17
20
-69.91
11
90.17
21
-118.11
0
LINE
8
BLACK
6
CONTINUOUS
10
90.17
20
-118.11
11
95.25
21
-118.11
0
LINE
8
BLACK
6
CONTINUOUS
10
95.25
20
-118.11
11
95.25
21
-67.31
0
LINE
8
BLACK
6
CONTINUOUS
10
95.25
20
-67.31
11
92.77
21
-67.31
0
LINE
8
BLACK
6
CONTINUOUS
10
160.661
20
-81.8527
11
160.679
21
-81.8633
0
LINE
8
BLACK
6
CONTINUOUS
10
160.679
20
-81.8633
11
160.693
21
-81.8795
0
LINE
8
BLACK
6
CONTINUOUS
10
160.693
20
-81.8795
11
160.7
21
-81.8994
0
LINE
8
BLACK
6
CONTINUOUS
10
160.7
20
-81.8994
11
160.7
21
-81.9206
0
LINE
8
BLACK
6
CONTINUOUS
10
160.7
20
-81.9206
11
160.693
21
-81.9405
0
LINE
8
BLACK
6
CONTINUOUS
10
160.693
20
-81.9405
11
160.679
21
-81.9567
0
LINE
8
BLACK
6
CONTINUOUS
10
160.679
20
-81.9567
11
160.661
21
-81.9673
0
LINE
8
BLACK
6
CONTINUOUS
10
160.661
20
-81.9673
11
160.645
21
-81.97
0
LINE
8
BLACK
6
CONTINUOUS
10
160.645
20
-81.97
11
159.37
21
-81.97
0
LINE
8
BLACK
6
CONTINUOUS
10
159.37
20
-81.97
11
159.37
21
-83.2452
0
LINE
8
BLACK
6
CONTINUOUS
10
159.37
20
-83.2452
11
159.367
21
-83.2608
0
LINE
8
BLACK
6
CONTINUOUS
10
159.367
20
-83.2608
11
159.357
21
-83.2792
0
LINE
8
BLACK
6
CONTINUOUS
10
159.357
20
-83.2792
11
159.34
21
-83.2928
0
LINE
8
BLACK
6
CONTINUOUS
10
159.34
20
-83.2928
11
159.321
21
-83.3
0
LINE
8
BLACK
6
CONTINUOUS
10
159.321
20
-83.3
11
159.299
21
-83.3
0
LINE
8
BLACK
6
CONTINUOUS
10
159.299
20
-83.3
11
159.28
21
-83.2928
0
LINE
8
BLACK
6
CONTINUOUS
10
159.28
20
-83.2928
11
159.263
21
-83.2792
0
LINE
8
BLACK
6
CONTINUOUS
10
159.263
20
-83.2792
11
159.253
21
-83.2608
0
LINE
8
BLACK
6
CONTINUOUS
10
159.253
20
-83.2608
11
159.25
21
-83.2452
0
LINE
8
BLACK
6
CONTINUOUS
10
159.25
20
-83.2452
11
159.25
21
-81.9048
0
LINE
8
BLACK
6
CONTINUOUS
10
159.25
20
-81.9048
11
159.25
21
-81.9047
0
LINE
8
BLACK
6
CONTINUOUS
10
159.25
20
-81.9047
11
159.25
21
-81.8994
0
LINE
8
BLACK
6
CONTINUOUS
10
159.25
20
-81.8994
11
159.252
21
-81.8944
0
LINE
8
BLACK
6
CONTINUOUS
10
159.252
20
-81.8944
11
159.253
21
-81.8892
0
LINE
8
BLACK
6
CONTINUOUS
10
159.253
20
-81.8892
11
159.255
21
-81.8845
0
LINE
8
BLACK
6
CONTINUOUS
10
159.255
20
-81.8845
11
159.257
21
-81.8795
0
LINE
8
BLACK
6
CONTINUOUS
10
159.257
20
-81.8795
11
159.261
21
-81.8755
0
LINE
8
BLACK
6
CONTINUOUS
10
159.261
20
-81.8755
11
159.263
21
-81.8708
0
LINE
8
BLACK
6
CONTINUOUS
10
159.263
20
-81.8708
11
159.267
21
-81.8674
0
LINE
8
BLACK
6
CONTINUOUS
10
159.267
20
-81.8674
11
159.271
21
-81.8633
0
LINE
8
BLACK
6
CONTINUOUS
10
159.271
20
-81.8633
11
159.275
21
-81.8607
0
LINE
8
BLACK
6
CONTINUOUS
10
159.275
20
-81.8607
11
159.28
21
-81.8572
0
LINE
8
BLACK
6
CONTINUOUS
10
159.28
20
-81.8572
11
159.285
21
-81.8554
0
LINE
8
BLACK
6
CONTINUOUS
10
159.285
20
-81.8554
11
159.289
21
-81.8527
0
LINE
8
BLACK
6
CONTINUOUS
10
159.289
20
-81.8527
11
159.294
21
-81.8518
0
LINE
8
BLACK
6
CONTINUOUS
10
159.294
20
-81.8518
11
159.299
21
-81.85
0
LINE
8
BLACK
6
CONTINUOUS
10
159.299
20
-81.85
11
159.305
21
-81.85
0
LINE
8
BLACK
6
CONTINUOUS
10
159.305
20
-81.85
11
159.305
21
-81.85
0
LINE
8
BLACK
6
CONTINUOUS
10
159.305
20
-81.85
11
160.645
21
-81.85
0
LINE
8
BLACK
6
CONTINUOUS
10
160.645
20
-81.85
11
160.661
21
-81.8527
0
LINE
8
BLACK
6
CONTINUOUS
10
112.401
20
-81.8527
11
112.419
21
-81.8633
0
LINE
8
BLACK
6
CONTINUOUS
10
112.419
20
-81.8633
11
112.433
21
-81.8795
0
LINE
8
BLACK
6
CONTINUOUS
10
112.433
20
-81.8795
11
112.44
21
-81.8994
0
LINE
8
BLACK
6
CONTINUOUS
10
112.44
20
-81.8994
11
112.44
21
-81.9206
0
LINE
8
BLACK
6
CONTINUOUS
10
112.44
20
-81.9206
11
112.433
21
-81.9405
0
LINE
8
BLACK
6
CONTINUOUS
10
112.433
20
-81.9405
11
112.419
21
-81.9567
0
LINE
8
BLACK
6
CONTINUOUS
10
112.419
20
-81.9567
11
112.401
21
-81.9673
0
LINE
8
BLACK
6
CONTINUOUS
10
112.401
20
-81.9673
11
112.385
21
-81.97
0
LINE
8
BLACK
6
CONTINUOUS
10
112.385
20
-81.97
11
111.11
21
-81.97
0
LINE
8
BLACK
6
CONTINUOUS
10
111.11
20
-81.97
11
111.11
21
-83.2452
0
LINE
8
BLACK
6
CONTINUOUS
10
111.11
20
-83.2452
11
111.107
21
-83.2608
0
LINE
8
BLACK
6
CONTINUOUS
10
111.107
20
-83.2608
11
111.097
21
-83.2792
0
LINE
8
BLACK
6
CONTINUOUS
10
111.097
20
-83.2792
11
111.08
21
-83.2928
0
LINE
8
BLACK
6
CONTINUOUS
10
111.08
20
-83.2928
11
111.061
21
-83.3
0
LINE
8
BLACK
6
CONTINUOUS
10
111.061
20
-83.3
11
111.039
21
-83.3
0
LINE
8
BLACK
6
CONTINUOUS
10
111.039
20
-83.3
11
111.02
21
-83.2928
0
LINE
8
BLACK
6
CONTINUOUS
10
111.02
20
-83.2928
11
111.003
21
-83.2792
0
LINE
8
BLACK
6
CONTINUOUS
10
111.003
20
-83.2792
11
110.993
21
-83.2608
0
LINE
8
BLACK
6
CONTINUOUS
10
110.993
20
-83.2608
11
110.99
21
-83.2452
0
LINE
8
BLACK
6
CONTINUOUS
10
110.99
20
-83.2452
11
110.99
21
-81.9048
0
LINE
8
BLACK
6
CONTINUOUS
10
110.99
20
-81.9048
11
110.99
21
-81.9047
0
LINE
8
BLACK
6
CONTINUOUS
10
110.99
20
-81.9047
11
110.99
21
-81.8994
0
LINE
8
BLACK
6
CONTINUOUS
10
110.99
20
-81.8994
11
110.992
21
-81.8944
0
LINE
8
BLACK
6
CONTINUOUS
10
110.992
20
-81.8944
11
110.993
21
-81.8892
0
LINE
8
BLACK
6
CONTINUOUS
10
110.993
20
-81.8892
11
110.995
21
-81.8845
0
LINE
8
BLACK
6
CONTINUOUS
10
110.995
20
-81.8845
11
110.997
21
-81.8795
0
LINE
8
BLACK
6
CONTINUOUS
10
110.997
20
-81.8795
11
111.001
21
-81.8755
0
LINE
8
BLACK
6
CONTINUOUS
10
111.001
20
-81.8755
11
111.003
21
-81.8708
0
LINE
8
BLACK
6
CONTINUOUS
10
111.003
20
-81.8708
11
111.007
21
-81.8674
0
LINE
8
BLACK
6
CONTINUOUS
10
111.007
20
-81.8674
11
111.011
21
-81.8633
0
LINE
8
BLACK
6
CONTINUOUS
10
111.011
20
-81.8633
11
111.015
21
-81.8607
0
LINE
8
BLACK
6
CONTINUOUS
10
111.015
20
-81.8607
11
111.02
21
-81.8572
0
LINE
8
BLACK
6
CONTINUOUS
10
111.02
20
-81.8572
11
111.025
21
-81.8554
0
LINE
8
BLACK
6
CONTINUOUS
10
111.025
20
-81.8554
11
111.029
21
-81.8527
0
LINE
8
BLACK
6
CONTINUOUS
10
111.029
20
-81.8527
11
111.034
21
-81.8518
0
LINE
8
BLACK
6
CONTINUOUS
10
111.034
20
-81.8518
11
111.039
21
-81.85
0
LINE
8
BLACK
6
CONTINUOUS
10
111.039
20
-81.85
11
111.045
21
-81.85
0
LINE
8
BLACK
6
CONTINUOUS
10
111.045
20
-81.85
11
111.045
21
-81.85
0
LINE
8
BLACK
6
CONTINUOUS
10
111.045
20
-81.85
11
112.385
21
-81.85
0
LINE
8
BLACK
6
CONTINUOUS
10
112.385
20
-81.85
11
112.401
21
-81.8527
0
LINE
8
BLACK
6
CONTINUOUS
10
91.4608
20
-67.1927
11
91.4792
21
-67.2033
0
LINE
8
BLACK
6
CONTINUOUS
10
91.4792
20
-67.2033
11
91.4928
21
-67.2195
0
LINE
8
BLACK
6
CONTINUOUS
10
91.4928
20
-67.2195
11
91.5
21
-67.2394
0
LINE
8
BLACK
6
CONTINUOUS
10
91.5
20
-67.2394
11
91.5
21
-67.2606
0
LINE
8
BLACK
6
CONTINUOUS
10
91.5
20
-67.2606
11
91.4928
21
-67.2805
0
LINE
8
BLACK
6
CONTINUOUS
10
91.4928
20
-67.2805
11
91.4792
21
-67.2967
0
LINE
8
BLACK
6
CONTINUOUS
10
91.4792
20
-67.2967
11
91.4608
21
-67.3073
0
LINE
8
BLACK
6
CONTINUOUS
10
91.4608
20
-67.3073
11
91.4452
21
-67.31
0
LINE
8
BLACK
6
CONTINUOUS
10
91.4452
20
-67.31
11
90.17
21
-67.31
0
LINE
8
BLACK
6
CONTINUOUS
10
90.17
20
-67.31
11
90.17
21
-68.5852
0
LINE
8
BLACK
6
CONTINUOUS
10
90.17
20
-68.5852
11
90.1673
21
-68.6008
0
LINE
8
BLACK
6
CONTINUOUS
10
90.1673
20
-68.6008
11
90.1567
21
-68.6192
0
LINE
8
BLACK
6
CONTINUOUS
10
90.1567
20
-68.6192
11
90.1405
21
-68.6328
0
LINE
8
BLACK
6
CONTINUOUS
10
90.1405
20
-68.6328
11
90.1206
21
-68.64
0
LINE
8
BLACK
6
CONTINUOUS
10
90.1206
20
-68.64
11
90.0994
21
-68.64
0
LINE
8
BLACK
6
CONTINUOUS
10
90.0994
20
-68.64
11
90.0795
21
-68.6328
0
LINE
8
BLACK
6
CONTINUOUS
10
90.0795
20
-68.6328
11
90.0633
21
-68.6192
0
LINE
8
BLACK
6
CONTINUOUS
10
90.0633
20
-68.6192
11
90.0527
21
-68.6008
0
LINE
8
BLACK
6
CONTINUOUS
10
90.0527
20
-68.6008
11
90.05
21
-68.5852
0
LINE
8
BLACK
6
CONTINUOUS
10
90.05
20
-68.5852
11
90.05
21
-67.2448
0
LINE
8
BLACK
6
CONTINUOUS
10
90.05
20
-67.2448
11
90.05
21
-67.2447
0
LINE
8
BLACK
6
CONTINUOUS
10
90.05
20
-67.2447
11
90.05
21
-67.2394
0
LINE
8
BLACK
6
CONTINUOUS
10
90.05
20
-67.2394
11
90.0518
21
-67.2344
0
LINE
8
BLACK
6
CONTINUOUS
10
90.0518
20
-67.2344
11
90.0527
21
-67.2292
0
LINE
8
BLACK
6
CONTINUOUS
10
90.0527
20
-67.2292
11
90.0554
21
-67.2245
0
LINE
8
BLACK
6
CONTINUOUS
10
90.0554
20
-67.2245
11
90.0572
21
-67.2195
0
LINE
8
BLACK
6
CONTINUOUS
10
90.0572
20
-67.2195
11
90.0607
21
-67.2155
0
LINE
8
BLACK
6
CONTINUOUS
10
90.0607
20
-67.2155
11
90.0633
21
-67.2108
0
LINE
8
BLACK
6
CONTINUOUS
10
90.0633
20
-67.2108
11
90.0674
21
-67.2074
0
LINE
8
BLACK
6
CONTINUOUS
10
90.0674
20
-67.2074
11
90.0708
21
-67.2033
0
LINE
8
BLACK
6
CONTINUOUS
10
90.0708
20
-67.2033
11
90.0755
21
-67.2007
0
LINE
8
BLACK
6
CONTINUOUS
10
90.0755
20
-67.2007
11
90.0795
21
-67.1972
0
LINE
8
BLACK
6
CONTINUOUS
10
90.0795
20
-67.1972
11
90.0845
21
-67.1954
0
LINE
8
BLACK
6
CONTINUOUS
10
90.0845
20
-67.1954
11
90.0892
21
-67.1927
0
LINE
8
BLACK
6
CONTINUOUS
10
90.0892
20
-67.1927
11
90.0944
21
-67.1918
0
LINE
8
BLACK
6
CONTINUOUS
10
90.0944
20
-67.1918
11
90.0994
21
-67.19
0
LINE
8
BLACK
6
CONTINUOUS
10
90.0994
20
-67.19
11
90.1047
21
-67.19
0
LINE
8
BLACK
6
CONTINUOUS
10
90.1047
20
-67.19
11
90.1048
21
-67.19
0
LINE
8
BLACK
6
CONTINUOUS
10
90.1048
20
-67.19
11
91.4452
21
-67.19
0
LINE
8
BLACK
6
CONTINUOUS
10
91.4452
20
-67.19
11
91.4608
21
-67.1927
0
LINE
8
BLACK
6
CONTINUOUS
10
91.8309
20
-66.2871
11
91.8534
21
-66.3002
0
LINE
8
BLACK
6
CONTINUOUS
10
91.8534
20
-66.3002
11
91.8702
21
-66.3201
0
LINE
8
BLACK
6
CONTINUOUS
10
91.8702
20
-66.3201
11
91.8791
21
-66.3446
0
LINE
8
BLACK
6
CONTINUOUS
10
91.8791
20
-66.3446
11
91.8791
21
-66.3706
0
LINE
8
BLACK
6
CONTINUOUS
10
91.8791
20
-66.3706
11
91.8702
21
-66.3951
0
LINE
8
BLACK
6
CONTINUOUS
10
91.8702
20
-66.3951
11
91.8534
21
-66.4151
0
LINE
8
BLACK
6
CONTINUOUS
10
91.8534
20
-66.4151
11
91.8309
21
-66.4281
0
LINE
8
BLACK
6
CONTINUOUS
10
91.8309
20
-66.4281
11
91.8052
21
-66.4326
0
LINE
8
BLACK
6
CONTINUOUS
10
91.8052
20
-66.4326
11
91.0433
21
-66.4326
0
LINE
8
BLACK
6
CONTINUOUS
10
91.0433
20
-66.4326
11
91.0177
21
-66.4281
0
LINE
8
BLACK
6
CONTINUOUS
10
91.0177
20
-66.4281
11
90.9951
21
-66.4151
0
LINE
8
BLACK
6
CONTINUOUS
10
90.9951
20
-66.4151
11
90.9784
21
-66.3951
0
LINE
8
BLACK
6
CONTINUOUS
10
90.9784
20
-66.3951
11
90.9695
21
-66.3706
0
LINE
8
BLACK
6
CONTINUOUS
10
90.9695
20
-66.3706
11
90.9695
21
-66.3446
0
LINE
8
BLACK
6
CONTINUOUS
10
90.9695
20
-66.3446
11
90.9784
21
-66.3201
0
LINE
8
BLACK
6
CONTINUOUS
10
90.9784
20
-66.3201
11
90.9951
21
-66.3002
0
LINE
8
BLACK
6
CONTINUOUS
10
90.9951
20
-66.3002
11
91.0177
21
-66.2871
0
LINE
8
BLACK
6
CONTINUOUS
10
91.0177
20
-66.2871
11
91.0433
21
-66.2826
0
LINE
8
BLACK
6
CONTINUOUS
10
91.0433
20
-66.2826
11
91.8052
21
-66.2826
0
LINE
8
BLACK
6
CONTINUOUS
10
91.8052
20
-66.2826
11
91.8309
21
-66.2871
0
LINE
8
BLACK
6
CONTINUOUS
10
92.4285
20
-65.1881
11
92.4329
21
-65.1879
0
LINE
8
BLACK
6
CONTINUOUS
10
92.4329
20
-65.1879
11
92.4413
21
-65.1904
0
LINE
8
BLACK
6
CONTINUOUS
10
92.4413
20
-65.1904
11
92.4499
21
-65.1919
0
LINE
8
BLACK
6
CONTINUOUS
10
92.4499
20
-65.1919
11
92.4537
21
-65.1941
0
LINE
8
BLACK
6
CONTINUOUS
10
92.4537
20
-65.1941
11
92.4578
21
-65.1953
0
LINE
8
BLACK
6
CONTINUOUS
10
92.4578
20
-65.1953
11
92.5531
21
-65.2429
0
LINE
8
BLACK
6
CONTINUOUS
10
92.5531
20
-65.2429
11
92.5627
21
-65.2501
0
LINE
8
BLACK
6
CONTINUOUS
10
92.5627
20
-65.2501
11
92.5726
21
-65.257
0
LINE
8
BLACK
6
CONTINUOUS
10
92.5726
20
-65.257
11
92.6678
21
-65.3522
0
LINE
8
BLACK
6
CONTINUOUS
10
92.6678
20
-65.3522
11
92.6719
21
-65.3581
0
LINE
8
BLACK
6
CONTINUOUS
10
92.6719
20
-65.3581
11
92.6769
21
-65.3633
0
LINE
8
BLACK
6
CONTINUOUS
10
92.6769
20
-65.3633
11
92.6793
21
-65.3687
0
LINE
8
BLACK
6
CONTINUOUS
10
92.6793
20
-65.3687
11
92.6827
21
-65.3735
0
LINE
8
BLACK
6
CONTINUOUS
10
92.6827
20
-65.3735
11
92.6846
21
-65.3805
0
LINE
8
BLACK
6
CONTINUOUS
10
92.6846
20
-65.3805
11
92.6875
21
-65.387
0
LINE
8
BLACK
6
CONTINUOUS
10
92.6875
20
-65.387
11
92.7351
21
-65.5775
0
LINE
8
BLACK
6
CONTINUOUS
10
92.7351
20
-65.5775
11
92.7358
21
-65.5867
0
LINE
8
BLACK
6
CONTINUOUS
10
92.7358
20
-65.5867
11
92.7374
21
-65.5957
0
LINE
8
BLACK
6
CONTINUOUS
10
92.7374
20
-65.5957
11
92.7374
21
-65.929
0
LINE
8
BLACK
6
CONTINUOUS
10
92.7374
20
-65.929
11
92.7358
21
-65.9381
0
LINE
8
BLACK
6
CONTINUOUS
10
92.7358
20
-65.9381
11
92.7351
21
-65.9472
0
LINE
8
BLACK
6
CONTINUOUS
10
92.7351
20
-65.9472
11
92.6875
21
-66.1377
0
LINE
8
BLACK
6
CONTINUOUS
10
92.6875
20
-66.1377
11
92.6846
21
-66.1443
0
LINE
8
BLACK
6
CONTINUOUS
10
92.6846
20
-66.1443
11
92.6827
21
-66.1512
0
LINE
8
BLACK
6
CONTINUOUS
10
92.6827
20
-66.1512
11
92.6793
21
-66.1561
0
LINE
8
BLACK
6
CONTINUOUS
10
92.6793
20
-66.1561
11
92.6769
21
-66.1615
0
LINE
8
BLACK
6
CONTINUOUS
10
92.6769
20
-66.1615
11
92.6719
21
-66.1667
0
LINE
8
BLACK
6
CONTINUOUS
10
92.6719
20
-66.1667
11
92.6678
21
-66.1726
0
LINE
8
BLACK
6
CONTINUOUS
10
92.6678
20
-66.1726
11
92.5726
21
-66.2678
0
LINE
8
BLACK
6
CONTINUOUS
10
92.5726
20
-66.2678
11
92.5627
21
-66.2747
0
LINE
8
BLACK
6
CONTINUOUS
10
92.5627
20
-66.2747
11
92.5531
21
-66.2818
0
LINE
8
BLACK
6
CONTINUOUS
10
92.5531
20
-66.2818
11
92.4578
21
-66.3295
0
LINE
8
BLACK
6
CONTINUOUS
10
92.4578
20
-66.3295
11
92.4537
21
-66.3307
0
LINE
8
BLACK
6
CONTINUOUS
10
92.4537
20
-66.3307
11
92.4499
21
-66.3329
0
LINE
8
BLACK
6
CONTINUOUS
10
92.4499
20
-66.3329
11
92.4413
21
-66.3344
0
LINE
8
BLACK
6
CONTINUOUS
10
92.4413
20
-66.3344
11
92.4329
21
-66.3369
0
LINE
8
BLACK
6
CONTINUOUS
10
92.4329
20
-66.3369
11
92.4285
21
-66.3366
0
LINE
8
BLACK
6
CONTINUOUS
10
92.4285
20
-66.3366
11
92.4243
21
-66.3374
0
LINE
8
BLACK
6
CONTINUOUS
10
92.4243
20
-66.3374
11
92.2338
21
-66.3374
0
LINE
8
BLACK
6
CONTINUOUS
10
92.2338
20
-66.3374
11
92.2295
21
-66.3366
0
LINE
8
BLACK
6
CONTINUOUS
10
92.2295
20
-66.3366
11
92.2252
21
-66.3369
0
LINE
8
BLACK
6
CONTINUOUS
10
92.2252
20
-66.3369
11
92.2168
21
-66.3344
0
LINE
8
BLACK
6
CONTINUOUS
10
92.2168
20
-66.3344
11
92.2082
21
-66.3329
0
LINE
8
BLACK
6
CONTINUOUS
10
92.2082
20
-66.3329
11
92.2044
21
-66.3307
0
LINE
8
BLACK
6
CONTINUOUS
10
92.2044
20
-66.3307
11
92.2003
21
-66.3295
0
LINE
8
BLACK
6
CONTINUOUS
10
92.2003
20
-66.3295
11
92.105
21
-66.2818
0
LINE
8
BLACK
6
CONTINUOUS
10
92.105
20
-66.2818
11
92.0954
21
-66.2747
0
LINE
8
BLACK
6
CONTINUOUS
10
92.0954
20
-66.2747
11
92.0855
21
-66.2678
0
LINE
8
BLACK
6
CONTINUOUS
10
92.0855
20
-66.2678
11
91.9903
21
-66.1726
0
LINE
8
BLACK
6
CONTINUOUS
10
91.9903
20
-66.1726
11
91.9862
21
-66.1667
0
LINE
8
BLACK
6
CONTINUOUS
10
91.9862
20
-66.1667
11
91.9812
21
-66.1615
0
LINE
8
BLACK
6
CONTINUOUS
10
91.9812
20
-66.1615
11
91.9788
21
-66.1561
0
LINE
8
BLACK
6
CONTINUOUS
10
91.9788
20
-66.1561
11
91.9754
21
-66.1512
0
LINE
8
BLACK
6
CONTINUOUS
10
91.9754
20
-66.1512
11
91.9735
21
-66.1443
0
LINE
8
BLACK
6
CONTINUOUS
10
91.9735
20
-66.1443
11
91.9706
21
-66.1377
0
LINE
8
BLACK
6
CONTINUOUS
10
91.9706
20
-66.1377
11
91.923
21
-65.9472
0
LINE
8
BLACK
6
CONTINUOUS
10
91.923
20
-65.9472
11
91.9223
21
-65.9381
0
LINE
8
BLACK
6
CONTINUOUS
10
91.9223
20
-65.9381
11
91.9207
21
-65.929
0
LINE
8
BLACK
6
CONTINUOUS
10
91.9207
20
-65.929
11
91.9207
21
-65.5957
0
LINE
8
BLACK
6
CONTINUOUS
10
91.9207
20
-65.5957
11
91.9223
21
-65.5867
0
LINE
8
BLACK
6
CONTINUOUS
10
91.9223
20
-65.5867
11
91.923
21
-65.5775
0
LINE
8
BLACK
6
CONTINUOUS
10
91.923
20
-65.5775
11
91.9706
21
-65.387
0
LINE
8
BLACK
6
CONTINUOUS
10
91.9706
20
-65.387
11
91.9735
21
-65.3805
0
LINE
8
BLACK
6
CONTINUOUS
10
91.9735
20
-65.3805
11
91.9754
21
-65.3735
0
LINE
8
BLACK
6
CONTINUOUS
10
91.9754
20
-65.3735
11
91.9788
21
-65.3687
0
LINE
8
BLACK
6
CONTINUOUS
10
91.9788
20
-65.3687
11
91.9812
21
-65.3633
0
LINE
8
BLACK
6
CONTINUOUS
10
91.9812
20
-65.3633
11
91.9862
21
-65.3581
0
LINE
8
BLACK
6
CONTINUOUS
10
91.9862
20
-65.3581
11
91.9903
21
-65.3522
0
LINE
8
BLACK
6
CONTINUOUS
10
91.9903
20
-65.3522
11
92.0855
21
-65.257
0
LINE
8
BLACK
6
CONTINUOUS
10
92.0855
20
-65.257
11
92.0954
21
-65.2501
0
LINE
8
BLACK
6
CONTINUOUS
10
92.0954
20
-65.2501
11
92.105
21
-65.2429
0
LINE
8
BLACK
6
CONTINUOUS
10
92.105
20
-65.2429
11
92.2003
21
-65.1953
0
LINE
8
BLACK
6
CONTINUOUS
10
92.2003
20
-65.1953
11
92.2044
21
-65.1941
0
LINE
8
BLACK
6
CONTINUOUS
10
92.2044
20
-65.1941
11
92.2082
21
-65.1919
0
LINE
8
BLACK
6
CONTINUOUS
10
92.2082
20
-65.1919
11
92.2168
21
-65.1904
0
LINE
8
BLACK
6
CONTINUOUS
10
92.2168
20
-65.1904
11
92.2252
21
-65.1879
0
LINE
8
BLACK
6
CONTINUOUS
10
92.2252
20
-65.1879
11
92.2295
21
-65.1881
0
LINE
8
BLACK
6
CONTINUOUS
10
92.2295
20
-65.1881
11
92.2338
21
-65.1874
0
LINE
8
BLACK
6
CONTINUOUS
10
92.2338
20
-65.1874
11
92.4243
21
-65.1874
0
LINE
8
BLACK
6
CONTINUOUS
10
92.4243
20
-65.1874
11
92.4285
21
-65.1881
0
LINE
8
BLACK
6
CONTINUOUS
10
92.2515
20
-65.3374
11
92.183
21
-65.3716
0
LINE
8
BLACK
6
CONTINUOUS
10
92.183
20
-65.3716
11
92.1111
21
-65.4436
0
LINE
8
BLACK
6
CONTINUOUS
10
92.1111
20
-65.4436
11
92.0707
21
-65.6049
0
LINE
8
BLACK
6
CONTINUOUS
10
92.0707
20
-65.6049
11
92.0707
21
-65.9198
0
LINE
8
BLACK
6
CONTINUOUS
10
92.0707
20
-65.9198
11
92.1111
21
-66.0812
0
LINE
8
BLACK
6
CONTINUOUS
10
92.1111
20
-66.0812
11
92.183
21
-66.1531
0
LINE
8
BLACK
6
CONTINUOUS
10
92.183
20
-66.1531
11
92.2515
21
-66.1874
0
LINE
8
BLACK
6
CONTINUOUS
10
92.2515
20
-66.1874
11
92.4066
21
-66.1874
0
LINE
8
BLACK
6
CONTINUOUS
10
92.4066
20
-66.1874
11
92.4751
21
-66.1531
0
LINE
8
BLACK
6
CONTINUOUS
10
92.4751
20
-66.1531
11
92.547
21
-66.0812
0
LINE
8
BLACK
6
CONTINUOUS
10
92.547
20
-66.0812
11
92.5874
21
-65.9198
0
LINE
8
BLACK
6
CONTINUOUS
10
92.5874
20
-65.9198
11
92.5874
21
-65.6049
0
LINE
8
BLACK
6
CONTINUOUS
10
92.5874
20
-65.6049
11
92.547
21
-65.4436
0
LINE
8
BLACK
6
CONTINUOUS
10
92.547
20
-65.4436
11
92.4751
21
-65.3716
0
LINE
8
BLACK
6
CONTINUOUS
10
92.4751
20
-65.3716
11
92.4066
21
-65.3374
0
LINE
8
BLACK
6
CONTINUOUS
10
92.4066
20
-65.3374
11
92.2515
21
-65.3374
0
LINE
8
BLACK
6
CONTINUOUS
10
94.8171
20
-65.1895
11
94.829
21
-65.1912
0
LINE
8
BLACK
6
CONTINUOUS
10
94.829
20
-65.1912
11
94.9718
21
-65.2388
0
LINE
8
BLACK
6
CONTINUOUS
10
94.9718
20
-65.2388
11
94.9756
21
-65.2409
0
LINE
8
BLACK
6
CONTINUOUS
10
94.9756
20
-65.2409
11
94.9798
21
-65.242
0
LINE
8
BLACK
6
CONTINUOUS
10
94.9798
20
-65.242
11
94.987
21
-65.2471
0
LINE
8
BLACK
6
CONTINUOUS
10
94.987
20
-65.2471
11
94.9947
21
-65.2513
0
LINE
8
BLACK
6
CONTINUOUS
10
94.9947
20
-65.2513
11
94.9976
21
-65.2545
0
LINE
8
BLACK
6
CONTINUOUS
10
94.9976
20
-65.2545
11
95.0011
21
-65.257
0
LINE
8
BLACK
6
CONTINUOUS
10
95.0011
20
-65.257
11
95.0964
21
-65.3522
0
LINE
8
BLACK
6
CONTINUOUS
10
95.0964
20
-65.3522
11
95.1033
21
-65.362
0
LINE
8
BLACK
6
CONTINUOUS
10
95.1033
20
-65.362
11
95.1104
21
-65.3717
0
LINE
8
BLACK
6
CONTINUOUS
10
95.1104
20
-65.3717
11
95.158
21
-65.4669
0
LINE
8
BLACK
6
CONTINUOUS
10
95.158
20
-65.4669
11
95.1604
21
-65.4748
0
LINE
8
BLACK
6
CONTINUOUS
10
95.1604
20
-65.4748
11
95.1637
21
-65.4823
0
LINE
8
BLACK
6
CONTINUOUS
10
95.1637
20
-65.4823
11
95.2113
21
-65.6728
0
LINE
8
BLACK
6
CONTINUOUS
10
95.2113
20
-65.6728
11
95.212
21
-65.6819
0
LINE
8
BLACK
6
CONTINUOUS
10
95.212
20
-65.6819
11
95.2136
21
-65.691
0
LINE
8
BLACK
6
CONTINUOUS
10
95.2136
20
-65.691
11
95.2136
21
-65.8338
0
LINE
8
BLACK
6
CONTINUOUS
10
95.2136
20
-65.8338
11
95.212
21
-65.8428
0
LINE
8
BLACK
6
CONTINUOUS
10
95.212
20
-65.8428
11
95.2113
21
-65.852
0
LINE
8
BLACK
6
CONTINUOUS
10
95.2113
20
-65.852
11
95.1637
21
-66.0425
0
LINE
8
BLACK
6
CONTINUOUS
10
95.1637
20
-66.0425
11
95.1604
21
-66.05
0
LINE
8
BLACK
6
CONTINUOUS
10
95.1604
20
-66.05
11
95.158
21
-66.0578
0
LINE
8
BLACK
6
CONTINUOUS
10
95.158
20
-66.0578
11
95.1104
21
-66.1531
0
LINE
8
BLACK
6
CONTINUOUS
10
95.1104
20
-66.1531
11
95.1033
21
-66.1627
0
LINE
8
BLACK
6
CONTINUOUS
10
95.1033
20
-66.1627
11
95.0964
21
-66.1726
0
LINE
8
BLACK
6
CONTINUOUS
10
95.0964
20
-66.1726
11
95.0011
21
-66.2678
0
LINE
8
BLACK
6
CONTINUOUS
10
95.0011
20
-66.2678
11
94.9976
21
-66.2703
0
LINE
8
BLACK
6
CONTINUOUS
10
94.9976
20
-66.2703
11
94.9947
21
-66.2735
0
LINE
8
BLACK
6
CONTINUOUS
10
94.9947
20
-66.2735
11
94.987
21
-66.2777
0
LINE
8
BLACK
6
CONTINUOUS
10
94.987
20
-66.2777
11
94.9798
21
-66.2827
0
LINE
8
BLACK
6
CONTINUOUS
10
94.9798
20
-66.2827
11
94.9756
21
-66.2839
0
LINE
8
BLACK
6
CONTINUOUS
10
94.9756
20
-66.2839
11
94.9718
21
-66.2859
0
LINE
8
BLACK
6
CONTINUOUS
10
94.9718
20
-66.2859
11
94.829
21
-66.3335
0
LINE
8
BLACK
6
CONTINUOUS
10
94.829
20
-66.3335
11
94.8171
21
-66.3353
0
LINE
8
BLACK
6
CONTINUOUS
10
94.8171
20
-66.3353
11
94.8052
21
-66.3374
0
LINE
8
BLACK
6
CONTINUOUS
10
94.8052
20
-66.3374
11
94.71
21
-66.3374
0
LINE
8
BLACK
6
CONTINUOUS
10
94.71
20
-66.3374
11
94.6982
21
-66.3353
0
LINE
8
BLACK
6
CONTINUOUS
10
94.6982
20
-66.3353
11
94.6863
21
-66.3335
0
LINE
8
BLACK
6
CONTINUOUS
10
94.6863
20
-66.3335
11
94.5434
21
-66.2859
0
LINE
8
BLACK
6
CONTINUOUS
10
94.5434
20
-66.2859
11
94.5396
21
-66.2839
0
LINE
8
BLACK
6
CONTINUOUS
10
94.5396
20
-66.2839
11
94.5354
21
-66.2827
0
LINE
8
BLACK
6
CONTINUOUS
10
94.5354
20
-66.2827
11
94.5282
21
-66.2777
0
LINE
8
BLACK
6
CONTINUOUS
10
94.5282
20
-66.2777
11
94.5205
21
-66.2735
0
LINE
8
BLACK
6
CONTINUOUS
10
94.5205
20
-66.2735
11
94.5176
21
-66.2703
0
LINE
8
BLACK
6
CONTINUOUS
10
94.5176
20
-66.2703
11
94.5141
21
-66.2678
0
LINE
8
BLACK
6
CONTINUOUS
10
94.5141
20
-66.2678
11
94.4665
21
-66.2202
0
LINE
8
BLACK
6
CONTINUOUS
10
94.4665
20
-66.2202
11
94.4646
21
-66.2175
0
LINE
8
BLACK
6
CONTINUOUS
10
94.4646
20
-66.2175
11
94.4621
21
-66.2154
0
LINE
8
BLACK
6
CONTINUOUS
10
94.4621
20
-66.2154
11
94.4572
21
-66.2069
0
LINE
8
BLACK
6
CONTINUOUS
10
94.4572
20
-66.2069
11
94.4515
21
-66.1988
0
LINE
8
BLACK
6
CONTINUOUS
10
94.4515
20
-66.1988
11
94.4507
21
-66.1957
0
LINE
8
BLACK
6
CONTINUOUS
10
94.4507
20
-66.1957
11
94.449
21
-66.1928
0
LINE
8
BLACK
6
CONTINUOUS
10
94.449
20
-66.1928
11
94.4473
21
-66.1831
0
LINE
8
BLACK
6
CONTINUOUS
10
94.4473
20
-66.1831
11
94.4448
21
-66.1737
0
LINE
8
BLACK
6
CONTINUOUS
10
94.4448
20
-66.1737
11
94.4451
21
-66.1704
0
LINE
8
BLACK
6
CONTINUOUS
10
94.4451
20
-66.1704
11
94.4445
21
-66.1671
0
LINE
8
BLACK
6
CONTINUOUS
10
94.4445
20
-66.1671
11
94.4445
21
-65.8338
0
LINE
8
BLACK
6
CONTINUOUS
10
94.4445
20
-65.8338
11
94.4457
21
-65.8273
0
LINE
8
BLACK
6
CONTINUOUS
10
94.4457
20
-65.8273
11
94.4457
21
-65.8208
0
LINE
8
BLACK
6
CONTINUOUS
10
94.4457
20
-65.8208
11
94.4479
21
-65.8146
0
LINE
8
BLACK
6
CONTINUOUS
10
94.4479
20
-65.8146
11
94.449
21
-65.8082
0
LINE
8
BLACK
6
CONTINUOUS
10
94.449
20
-65.8082
11
94.4523
21
-65.8025
0
LINE
8
BLACK
6
CONTINUOUS
10
94.4523
20
-65.8025
11
94.4546
21
-65.7963
0
LINE
8
BLACK
6
CONTINUOUS
10
94.4546
20
-65.7963
11
94.4588
21
-65.7913
0
LINE
8
BLACK
6
CONTINUOUS
10
94.4588
20
-65.7913
11
94.4621
21
-65.7856
0
LINE
8
BLACK
6
CONTINUOUS
10
94.4621
20
-65.7856
11
94.4671
21
-65.7814
0
LINE
8
BLACK
6
CONTINUOUS
10
94.4671
20
-65.7814
11
94.4713
21
-65.7764
0
LINE
8
BLACK
6
CONTINUOUS
10
94.4713
20
-65.7764
11
94.477
21
-65.7731
0
LINE
8
BLACK
6
CONTINUOUS
10
94.477
20
-65.7731
11
94.482
21
-65.7689
0
LINE
8
BLACK
6
CONTINUOUS
10
94.482
20
-65.7689
11
94.4882
21
-65.7666
0
LINE
8
BLACK
6
CONTINUOUS
10
94.4882
20
-65.7666
11
94.4939
21
-65.7633
0
LINE
8
BLACK
6
CONTINUOUS
10
94.4939
20
-65.7633
11
94.5003
21
-65.7622
0
LINE
8
BLACK
6
CONTINUOUS
10
94.5003
20
-65.7622
11
94.5065
21
-65.7599
0
LINE
8
BLACK
6
CONTINUOUS
10
94.5065
20
-65.7599
11
94.5131
21
-65.7599
0
LINE
8
BLACK
6
CONTINUOUS
10
94.5131
20
-65.7599
11
94.5195
21
-65.7588
0
LINE
8
BLACK
6
CONTINUOUS
10
94.5195
20
-65.7588
11
94.71
21
-65.7588
0
LINE
8
BLACK
6
CONTINUOUS
10
94.71
20
-65.7588
11
94.7357
21
-65.7633
0
LINE
8
BLACK
6
CONTINUOUS
10
94.7357
20
-65.7633
11
94.7582
21
-65.7764
0
LINE
8
BLACK
6
CONTINUOUS
10
94.7582
20
-65.7764
11
94.775
21
-65.7963
0
LINE
8
BLACK
6
CONTINUOUS
10
94.775
20
-65.7963
11
94.7839
21
-65.8208
0
LINE
8
BLACK
6
CONTINUOUS
10
94.7839
20
-65.8208
11
94.7839
21
-65.8468
0
LINE
8
BLACK
6
CONTINUOUS
10
94.7839
20
-65.8468
11
94.775
21
-65.8713
0
LINE
8
BLACK
6
CONTINUOUS
10
94.775
20
-65.8713
11
94.7582
21
-65.8913
0
LINE
8
BLACK
6
CONTINUOUS
10
94.7582
20
-65.8913
11
94.7357
21
-65.9043
0
LINE
8
BLACK
6
CONTINUOUS
10
94.7357
20
-65.9043
11
94.71
21
-65.9088
0
LINE
8
BLACK
6
CONTINUOUS
10
94.71
20
-65.9088
11
94.5945
21
-65.9088
0
LINE
8
BLACK
6
CONTINUOUS
10
94.5945
20
-65.9088
11
94.5945
21
-66.1361
0
LINE
8
BLACK
6
CONTINUOUS
10
94.5945
20
-66.1361
11
94.6077
21
-66.1492
0
LINE
8
BLACK
6
CONTINUOUS
10
94.6077
20
-66.1492
11
94.7222
21
-66.1874
0
LINE
8
BLACK
6
CONTINUOUS
10
94.7222
20
-66.1874
11
94.7931
21
-66.1874
0
LINE
8
BLACK
6
CONTINUOUS
10
94.7931
20
-66.1874
11
94.9076
21
-66.1492
0
LINE
8
BLACK
6
CONTINUOUS
10
94.9076
20
-66.1492
11
94.9817
21
-66.0751
0
LINE
8
BLACK
6
CONTINUOUS
10
94.9817
20
-66.0751
11
95.0202
21
-65.9981
0
LINE
8
BLACK
6
CONTINUOUS
10
95.0202
20
-65.9981
11
95.0636
21
-65.8246
0
LINE
8
BLACK
6
CONTINUOUS
10
95.0636
20
-65.8246
11
95.0636
21
-65.7002
0
LINE
8
BLACK
6
CONTINUOUS
10
95.0636
20
-65.7002
11
95.0202
21
-65.5267
0
LINE
8
BLACK
6
CONTINUOUS
10
95.0202
20
-65.5267
11
94.9817
21
-65.4497
0
LINE
8
BLACK
6
CONTINUOUS
10
94.9817
20
-65.4497
11
94.9076
21
-65.3756
0
LINE
8
BLACK
6
CONTINUOUS
10
94.9076
20
-65.3756
11
94.7931
21
-65.3374
0
LINE
8
BLACK
6
CONTINUOUS
10
94.7931
20
-65.3374
11
94.6801
21
-65.3374
0
LINE
8
BLACK
6
CONTINUOUS
10
94.6801
20
-65.3374
11
94.6007
21
-65.3771
0
LINE
8
BLACK
6
CONTINUOUS
10
94.6007
20
-65.3771
11
94.5757
21
-65.3845
0
LINE
8
BLACK
6
CONTINUOUS
10
94.5757
20
-65.3845
11
94.5497
21
-65.3829
0
LINE
8
BLACK
6
CONTINUOUS
10
94.5497
20
-65.3829
11
94.5258
21
-65.3726
0
LINE
8
BLACK
6
CONTINUOUS
10
94.5258
20
-65.3726
11
94.5069
21
-65.3547
0
LINE
8
BLACK
6
CONTINUOUS
10
94.5069
20
-65.3547
11
94.4953
21
-65.3314
0
LINE
8
BLACK
6
CONTINUOUS
10
94.4953
20
-65.3314
11
94.4923
21
-65.3055
0
LINE
8
BLACK
6
CONTINUOUS
10
94.4923
20
-65.3055
11
94.4983
21
-65.2802
0
LINE
8
BLACK
6
CONTINUOUS
10
94.4983
20
-65.2802
11
94.5127
21
-65.2584
0
LINE
8
BLACK
6
CONTINUOUS
10
94.5127
20
-65.2584
11
94.5336
21
-65.2429
0
LINE
8
BLACK
6
CONTINUOUS
10
94.5336
20
-65.2429
11
94.6288
21
-65.1953
0
LINE
8
BLACK
6
CONTINUOUS
10
94.6288
20
-65.1953
11
94.633
21
-65.1941
0
LINE
8
BLACK
6
CONTINUOUS
10
94.633
20
-65.1941
11
94.6367
21
-65.1919
0
LINE
8
BLACK
6
CONTINUOUS
10
94.6367
20
-65.1919
11
94.6454
21
-65.1904
0
LINE
8
BLACK
6
CONTINUOUS
10
94.6454
20
-65.1904
11
94.6538
21
-65.1879
0
LINE
8
BLACK
6
CONTINUOUS
10
94.6538
20
-65.1879
11
94.6581
21
-65.1881
0
LINE
8
BLACK
6
CONTINUOUS
10
94.6581
20
-65.1881
11
94.6624
21
-65.1874
0
LINE
8
BLACK
6
CONTINUOUS
10
94.6624
20
-65.1874
11
94.8052
21
-65.1874
0
LINE
8
BLACK
6
CONTINUOUS
10
94.8052
20
-65.1874
11
94.8171
21
-65.1895
0
LINE
8
BLACK
6
CONTINUOUS
10
90.619
20
-65.1881
11
90.6233
21
-65.1879
0
LINE
8
BLACK
6
CONTINUOUS
10
90.6233
20
-65.1879
11
90.6318
21
-65.1904
0
LINE
8
BLACK
6
CONTINUOUS
10
90.6318
20
-65.1904
11
90.6404
21
-65.1919
0
LINE
8
BLACK
6
CONTINUOUS
10
90.6404
20
-65.1919
11
90.6442
21
-65.1941
0
LINE
8
BLACK
6
CONTINUOUS
10
90.6442
20
-65.1941
11
90.6483
21
-65.1953
0
LINE
8
BLACK
6
CONTINUOUS
10
90.6483
20
-65.1953
11
90.7435
21
-65.2429
0
LINE
8
BLACK
6
CONTINUOUS
10
90.7435
20
-65.2429
11
90.7532
21
-65.2501
0
LINE
8
BLACK
6
CONTINUOUS
10
90.7532
20
-65.2501
11
90.763
21
-65.257
0
LINE
8
BLACK
6
CONTINUOUS
10
90.763
20
-65.257
11
90.8107
21
-65.3046
0
LINE
8
BLACK
6
CONTINUOUS
10
90.8107
20
-65.3046
11
90.8175
21
-65.3144
0
LINE
8
BLACK
6
CONTINUOUS
10
90.8175
20
-65.3144
11
90.8247
21
-65.3241
0
LINE
8
BLACK
6
CONTINUOUS
10
90.8247
20
-65.3241
11
90.8723
21
-65.4193
0
LINE
8
BLACK
6
CONTINUOUS
10
90.8723
20
-65.4193
11
90.8747
21
-65.4272
0
LINE
8
BLACK
6
CONTINUOUS
10
90.8747
20
-65.4272
11
90.878
21
-65.4347
0
LINE
8
BLACK
6
CONTINUOUS
10
90.878
20
-65.4347
11
90.9256
21
-65.6251
0
LINE
8
BLACK
6
CONTINUOUS
10
90.9256
20
-65.6251
11
90.9263
21
-65.6343
0
LINE
8
BLACK
6
CONTINUOUS
10
90.9263
20
-65.6343
11
90.9279
21
-65.6433
0
LINE
8
BLACK
6
CONTINUOUS
10
90.9279
20
-65.6433
11
90.9279
21
-65.8814
0
LINE
8
BLACK
6
CONTINUOUS
10
90.9279
20
-65.8814
11
90.9263
21
-65.8905
0
LINE
8
BLACK
6
CONTINUOUS
10
90.9263
20
-65.8905
11
90.9256
21
-65.8996
0
LINE
8
BLACK
6
CONTINUOUS
10
90.9256
20
-65.8996
11
90.878
21
-66.0901
0
LINE
8
BLACK
6
CONTINUOUS
10
90.878
20
-66.0901
11
90.8747
21
-66.0976
0
LINE
8
BLACK
6
CONTINUOUS
10
90.8747
20
-66.0976
11
90.8723
21
-66.1054
0
LINE
8
BLACK
6
CONTINUOUS
10
90.8723
20
-66.1054
11
90.8247
21
-66.2007
0
LINE
8
BLACK
6
CONTINUOUS
10
90.8247
20
-66.2007
11
90.8175
21
-66.2103
0
LINE
8
BLACK
6
CONTINUOUS
10
90.8175
20
-66.2103
11
90.8107
21
-66.2202
0
LINE
8
BLACK
6
CONTINUOUS
10
90.8107
20
-66.2202
11
90.763
21
-66.2678
0
LINE
8
BLACK
6
CONTINUOUS
10
90.763
20
-66.2678
11
90.7532
21
-66.2747
0
LINE
8
BLACK
6
CONTINUOUS
10
90.7532
20
-66.2747
11
90.7435
21
-66.2818
0
LINE
8
BLACK
6
CONTINUOUS
10
90.7435
20
-66.2818
11
90.6483
21
-66.3295
0
LINE
8
BLACK
6
CONTINUOUS
10
90.6483
20
-66.3295
11
90.6442
21
-66.3307
0
LINE
8
BLACK
6
CONTINUOUS
10
90.6442
20
-66.3307
11
90.6404
21
-66.3329
0
LINE
8
BLACK
6
CONTINUOUS
10
90.6404
20
-66.3329
11
90.6318
21
-66.3344
0
LINE
8
BLACK
6
CONTINUOUS
10
90.6318
20
-66.3344
11
90.6233
21
-66.3369
0
LINE
8
BLACK
6
CONTINUOUS
10
90.6233
20
-66.3369
11
90.619
21
-66.3366
0
LINE
8
BLACK
6
CONTINUOUS
10
90.619
20
-66.3366
11
90.6148
21
-66.3374
0
LINE
8
BLACK
6
CONTINUOUS
10
90.6148
20
-66.3374
11
90.5195
21
-66.3374
0
LINE
8
BLACK
6
CONTINUOUS
10
90.5195
20
-66.3374
11
90.5153
21
-66.3366
0
LINE
8
BLACK
6
CONTINUOUS
10
90.5153
20
-66.3366
11
90.5109
21
-66.3369
0
LINE
8
BLACK
6
CONTINUOUS
10
90.5109
20
-66.3369
11
90.5025
21
-66.3344
0
LINE
8
BLACK
6
CONTINUOUS
10
90.5025
20
-66.3344
11
90.4939
21
-66.3329
0
LINE
8
BLACK
6
CONTINUOUS
10
90.4939
20
-66.3329
11
90.4901
21
-66.3307
0
LINE
8
BLACK
6
CONTINUOUS
10
90.4901
20
-66.3307
11
90.486
21
-66.3295
0
LINE
8
BLACK
6
CONTINUOUS
10
90.486
20
-66.3295
11
90.3907
21
-66.2818
0
LINE
8
BLACK
6
CONTINUOUS
10
90.3907
20
-66.2818
11
90.3811
21
-66.2747
0
LINE
8
BLACK
6
CONTINUOUS
10
90.3811
20
-66.2747
11
90.3713
21
-66.2678
0
LINE
8
BLACK
6
CONTINUOUS
10
90.3713
20
-66.2678
11
90.3236
21
-66.2202
0
LINE
8
BLACK
6
CONTINUOUS
10
90.3236
20
-66.2202
11
90.3167
21
-66.2103
0
LINE
8
BLACK
6
CONTINUOUS
10
90.3167
20
-66.2103
11
90.3096
21
-66.2007
0
LINE
8
BLACK
6
CONTINUOUS
10
90.3096
20
-66.2007
11
90.262
21
-66.1054
0
LINE
8
BLACK
6
CONTINUOUS
10
90.262
20
-66.1054
11
90.2596
21
-66.0976
0
LINE
8
BLACK
6
CONTINUOUS
10
90.2596
20
-66.0976
11
90.2563
21
-66.0901
0
LINE
8
BLACK
6
CONTINUOUS
10
90.2563
20
-66.0901
11
90.2087
21
-65.8996
0
LINE
8
BLACK
6
CONTINUOUS
10
90.2087
20
-65.8996
11
90.208
21
-65.8905
0
LINE
8
BLACK
6
CONTINUOUS
10
90.208
20
-65.8905
11
90.2064
21
-65.8814
0
LINE
8
BLACK
6
CONTINUOUS
10
90.2064
20
-65.8814
11
90.2064
21
-65.6433
0
LINE
8
BLACK
6
CONTINUOUS
10
90.2064
20
-65.6433
11
90.208
21
-65.6343
0
LINE
8
BLACK
6
CONTINUOUS
10
90.208
20
-65.6343
11
90.2087
21
-65.6251
0
LINE
8
BLACK
6
CONTINUOUS
10
90.2087
20
-65.6251
11
90.2563
21
-65.4347
0
LINE
8
BLACK
6
CONTINUOUS
10
90.2563
20
-65.4347
11
90.2596
21
-65.4272
0
LINE
8
BLACK
6
CONTINUOUS
10
90.2596
20
-65.4272
11
90.262
21
-65.4193
0
LINE
8
BLACK
6
CONTINUOUS
10
90.262
20
-65.4193
11
90.3096
21
-65.3241
0
LINE
8
BLACK
6
CONTINUOUS
10
90.3096
20
-65.3241
11
90.3167
21
-65.3144
0
LINE
8
BLACK
6
CONTINUOUS
10
90.3167
20
-65.3144
11
90.3236
21
-65.3046
0
LINE
8
BLACK
6
CONTINUOUS
10
90.3236
20
-65.3046
11
90.3713
21
-65.257
0
LINE
8
BLACK
6
CONTINUOUS
10
90.3713
20
-65.257
11
90.3811
21
-65.2501
0
LINE
8
BLACK
6
CONTINUOUS
10
90.3811
20
-65.2501
11
90.3907
21
-65.2429
0
LINE
8
BLACK
6
CONTINUOUS
10
90.3907
20
-65.2429
11
90.486
21
-65.1953
0
LINE
8
BLACK
6
CONTINUOUS
10
90.486
20
-65.1953
11
90.4901
21
-65.1941
0
LINE
8
BLACK
6
CONTINUOUS
10
90.4901
20
-65.1941
11
90.4939
21
-65.1919
0
LINE
8
BLACK
6
CONTINUOUS
10
90.4939
20
-65.1919
11
90.5025
21
-65.1904
0
LINE
8
BLACK
6
CONTINUOUS
10
90.5025
20
-65.1904
11
90.5109
21
-65.1879
0
LINE
8
BLACK
6
CONTINUOUS
10
90.5109
20
-65.1879
11
90.5153
21
-65.1881
0
LINE
8
BLACK
6
CONTINUOUS
10
90.5153
20
-65.1881
11
90.5195
21
-65.1874
0
LINE
8
BLACK
6
CONTINUOUS
10
90.5195
20
-65.1874
11
90.6148
21
-65.1874
0
LINE
8
BLACK
6
CONTINUOUS
10
90.6148
20
-65.1874
11
90.619
21
-65.1881
0
LINE
8
BLACK
6
CONTINUOUS
10
90.5372
20
-65.3374
11
90.4687
21
-65.3716
0
LINE
8
BLACK
6
CONTINUOUS
10
90.4687
20
-65.3716
11
90.4383
21
-65.402
0
LINE
8
BLACK
6
CONTINUOUS
10
90.4383
20
-65.402
11
90.3998
21
-65.479
0
LINE
8
BLACK
6
CONTINUOUS
10
90.3998
20
-65.479
11
90.3564
21
-65.6526
0
LINE
8
BLACK
6
CONTINUOUS
10
90.3564
20
-65.6526
11
90.3564
21
-65.8722
0
LINE
8
BLACK
6
CONTINUOUS
10
90.3564
20
-65.8722
11
90.3998
21
-66.0457
0
LINE
8
BLACK
6
CONTINUOUS
10
90.3998
20
-66.0457
11
90.4383
21
-66.1227
0
LINE
8
BLACK
6
CONTINUOUS
10
90.4383
20
-66.1227
11
90.4687
21
-66.1531
0
LINE
8
BLACK
6
CONTINUOUS
10
90.4687
20
-66.1531
11
90.5372
21
-66.1874
0
LINE
8
BLACK
6
CONTINUOUS
10
90.5372
20
-66.1874
11
90.5971
21
-66.1874
0
LINE
8
BLACK
6
CONTINUOUS
10
90.5971
20
-66.1874
11
90.6656
21
-66.1531
0
LINE
8
BLACK
6
CONTINUOUS
10
90.6656
20
-66.1531
11
90.696
21
-66.1227
0
LINE
8
BLACK
6
CONTINUOUS
10
90.696
20
-66.1227
11
90.7345
21
-66.0457
0
LINE
8
BLACK
6
CONTINUOUS
10
90.7345
20
-66.0457
11
90.7779
21
-65.8722
0
LINE
8
BLACK
6
CONTINUOUS
10
90.7779
20
-65.8722
11
90.7779
21
-65.6526
0
LINE
8
BLACK
6
CONTINUOUS
10
90.7779
20
-65.6526
11
90.7345
21
-65.479
0
LINE
8
BLACK
6
CONTINUOUS
10
90.7345
20
-65.479
11
90.696
21
-65.402
0
LINE
8
BLACK
6
CONTINUOUS
10
90.696
20
-65.402
11
90.6656
21
-65.3716
0
LINE
8
BLACK
6
CONTINUOUS
10
90.6656
20
-65.3716
11
90.5971
21
-65.3374
0
LINE
8
BLACK
6
CONTINUOUS
10
90.5971
20
-65.3374
11
90.5372
21
-65.3374
0
LINE
8
BLACK
6
CONTINUOUS
10
93.1285
20
-65.1974
11
93.1484
21
-65.2142
0
LINE
8
BLACK
6
CONTINUOUS
10
93.1484
20
-65.2142
11
93.1614
21
-65.2367
0
LINE
8
BLACK
6
CONTINUOUS
10
93.1614
20
-65.2367
11
93.166
21
-65.2624
0
LINE
8
BLACK
6
CONTINUOUS
10
93.166
20
-65.2624
11
93.166
21
-66.2624
0
LINE
8
BLACK
6
CONTINUOUS
10
93.166
20
-66.2624
11
93.1614
21
-66.288
0
LINE
8
BLACK
6
CONTINUOUS
10
93.1614
20
-66.288
11
93.1484
21
-66.3106
0
LINE
8
BLACK
6
CONTINUOUS
10
93.1484
20
-66.3106
11
93.1285
21
-66.3273
0
LINE
8
BLACK
6
CONTINUOUS
10
93.1285
20
-66.3273
11
93.104
21
-66.3362
0
LINE
8
BLACK
6
CONTINUOUS
10
93.104
20
-66.3362
11
93.0779
21
-66.3362
0
LINE
8
BLACK
6
CONTINUOUS
10
93.0779
20
-66.3362
11
93.0535
21
-66.3273
0
LINE
8
BLACK
6
CONTINUOUS
10
93.0535
20
-66.3273
11
93.0335
21
-66.3106
0
LINE
8
BLACK
6
CONTINUOUS
10
93.0335
20
-66.3106
11
93.0205
21
-66.288
0
LINE
8
BLACK
6
CONTINUOUS
10
93.0205
20
-66.288
11
93.016
21
-66.2624
0
LINE
8
BLACK
6
CONTINUOUS
10
93.016
20
-66.2624
11
93.016
21
-65.2624
0
LINE
8
BLACK
6
CONTINUOUS
10
93.016
20
-65.2624
11
93.0205
21
-65.2367
0
LINE
8
BLACK
6
CONTINUOUS
10
93.0205
20
-65.2367
11
93.0335
21
-65.2142
0
LINE
8
BLACK
6
CONTINUOUS
10
93.0335
20
-65.2142
11
93.0535
21
-65.1974
0
LINE
8
BLACK
6
CONTINUOUS
10
93.0535
20
-65.1974
11
93.0779
21
-65.1885
0
LINE
8
BLACK
6
CONTINUOUS
10
93.0779
20
-65.1885
11
93.104
21
-65.1885
0
LINE
8
BLACK
6
CONTINUOUS
10
93.104
20
-65.1885
11
93.1285
21
-65.1974
0
LINE
8
BLACK
6
CONTINUOUS
10
94.0974
20
-65.1885
11
94.104
21
-65.1885
0
LINE
8
BLACK
6
CONTINUOUS
10
94.104
20
-65.1885
11
94.1101
21
-65.1908
0
LINE
8
BLACK
6
CONTINUOUS
10
94.1101
20
-65.1908
11
94.1166
21
-65.1919
0
LINE
8
BLACK
6
CONTINUOUS
10
94.1166
20
-65.1919
11
94.1223
21
-65.1952
0
LINE
8
BLACK
6
CONTINUOUS
10
94.1223
20
-65.1952
11
94.1285
21
-65.1974
0
LINE
8
BLACK
6
CONTINUOUS
10
94.1285
20
-65.1974
11
94.1335
21
-65.2016
0
LINE
8
BLACK
6
CONTINUOUS
10
94.1335
20
-65.2016
11
94.1392
21
-65.2049
0
LINE
8
BLACK
6
CONTINUOUS
10
94.1392
20
-65.2049
11
94.1434
21
-65.21
0
LINE
8
BLACK
6
CONTINUOUS
10
94.1434
20
-65.21
11
94.1484
21
-65.2142
0
LINE
8
BLACK
6
CONTINUOUS
10
94.1484
20
-65.2142
11
94.1517
21
-65.2199
0
LINE
8
BLACK
6
CONTINUOUS
10
94.1517
20
-65.2199
11
94.1559
21
-65.2249
0
LINE
8
BLACK
6
CONTINUOUS
10
94.1559
20
-65.2249
11
94.1581
21
-65.231
0
LINE
8
BLACK
6
CONTINUOUS
10
94.1581
20
-65.231
11
94.1614
21
-65.2367
0
LINE
8
BLACK
6
CONTINUOUS
10
94.1614
20
-65.2367
11
94.1626
21
-65.2432
0
LINE
8
BLACK
6
CONTINUOUS
10
94.1626
20
-65.2432
11
94.1648
21
-65.2494
0
LINE
8
BLACK
6
CONTINUOUS
10
94.1648
20
-65.2494
11
94.1648
21
-65.2559
0
LINE
8
BLACK
6
CONTINUOUS
10
94.1648
20
-65.2559
11
94.166
21
-65.2624
0
LINE
8
BLACK
6
CONTINUOUS
10
94.166
20
-65.2624
11
94.166
21
-66.2624
0
LINE
8
BLACK
6
CONTINUOUS
10
94.166
20
-66.2624
11
94.1614
21
-66.288
0
LINE
8
BLACK
6
CONTINUOUS
10
94.1614
20
-66.288
11
94.1484
21
-66.3106
0
LINE
8
BLACK
6
CONTINUOUS
10
94.1484
20
-66.3106
11
94.1285
21
-66.3273
0
LINE
8
BLACK
6
CONTINUOUS
10
94.1285
20
-66.3273
11
94.104
21
-66.3362
0
LINE
8
BLACK
6
CONTINUOUS
10
94.104
20
-66.3362
11
94.0779
21
-66.3362
0
LINE
8
BLACK
6
CONTINUOUS
10
94.0779
20
-66.3362
11
94.0535
21
-66.3273
0
LINE
8
BLACK
6
CONTINUOUS
10
94.0535
20
-66.3273
11
94.0335
21
-66.3106
0
LINE
8
BLACK
6
CONTINUOUS
10
94.0335
20
-66.3106
11
94.0205
21
-66.288
0
LINE
8
BLACK
6
CONTINUOUS
10
94.0205
20
-66.288
11
94.016
21
-66.2624
0
LINE
8
BLACK
6
CONTINUOUS
10
94.016
20
-66.2624
11
94.016
21
-65.8612
0
LINE
8
BLACK
6
CONTINUOUS
10
94.016
20
-65.8612
11
93.71
21
-65.8612
0
LINE
8
BLACK
6
CONTINUOUS
10
93.71
20
-65.8612
11
93.7057
21
-65.8604
0
LINE
8
BLACK
6
CONTINUOUS
10
93.7057
20
-65.8604
11
93.7014
21
-65.8607
0
LINE
8
BLACK
6
CONTINUOUS
10
93.7014
20
-65.8607
11
93.693
21
-65.8582
0
LINE
8
BLACK
6
CONTINUOUS
10
93.693
20
-65.8582
11
93.6843
21
-65.8567
0
LINE
8
BLACK
6
CONTINUOUS
10
93.6843
20
-65.8567
11
93.6806
21
-65.8545
0
LINE
8
BLACK
6
CONTINUOUS
10
93.6806
20
-65.8545
11
93.6765
21
-65.8533
0
LINE
8
BLACK
6
CONTINUOUS
10
93.6765
20
-65.8533
11
93.5812
21
-65.8057
0
LINE
8
BLACK
6
CONTINUOUS
10
93.5812
20
-65.8057
11
93.5716
21
-65.7985
0
LINE
8
BLACK
6
CONTINUOUS
10
93.5716
20
-65.7985
11
93.5617
21
-65.7916
0
LINE
8
BLACK
6
CONTINUOUS
10
93.5617
20
-65.7916
11
93.5141
21
-65.744
0
LINE
8
BLACK
6
CONTINUOUS
10
93.5141
20
-65.744
11
93.5072
21
-65.7342
0
LINE
8
BLACK
6
CONTINUOUS
10
93.5072
20
-65.7342
11
93.5001
21
-65.7245
0
LINE
8
BLACK
6
CONTINUOUS
10
93.5001
20
-65.7245
11
93.4524
21
-65.6293
0
LINE
8
BLACK
6
CONTINUOUS
10
93.4524
20
-65.6293
11
93.4512
21
-65.6251
0
LINE
8
BLACK
6
CONTINUOUS
10
93.4512
20
-65.6251
11
93.449
21
-65.6214
0
LINE
8
BLACK
6
CONTINUOUS
10
93.449
20
-65.6214
11
93.4475
21
-65.6127
0
LINE
8
BLACK
6
CONTINUOUS
10
93.4475
20
-65.6127
11
93.445
21
-65.6043
0
LINE
8
BLACK
6
CONTINUOUS
10
93.445
20
-65.6043
11
93.4453
21
-65.6
0
LINE
8
BLACK
6
CONTINUOUS
10
93.4453
20
-65.6
11
93.4445
21
-65.5957
0
LINE
8
BLACK
6
CONTINUOUS
10
93.4445
20
-65.5957
11
93.4445
21
-65.4529
0
LINE
8
BLACK
6
CONTINUOUS
10
93.4445
20
-65.4529
11
93.4453
21
-65.4486
0
LINE
8
BLACK
6
CONTINUOUS
10
93.4453
20
-65.4486
11
93.445
21
-65.4443
0
LINE
8
BLACK
6
CONTINUOUS
10
93.445
20
-65.4443
11
93.4475
21
-65.4359
0
LINE
8
BLACK
6
CONTINUOUS
10
93.4475
20
-65.4359
11
93.449
21
-65.4272
0
LINE
8
BLACK
6
CONTINUOUS
10
93.449
20
-65.4272
11
93.4512
21
-65.4235
0
LINE
8
BLACK
6
CONTINUOUS
10
93.4512
20
-65.4235
11
93.4524
21
-65.4193
0
LINE
8
BLACK
6
CONTINUOUS
10
93.4524
20
-65.4193
11
93.5001
21
-65.3241
0
LINE
8
BLACK
6
CONTINUOUS
10
93.5001
20
-65.3241
11
93.5072
21
-65.3144
0
LINE
8
BLACK
6
CONTINUOUS
10
93.5072
20
-65.3144
11
93.5141
21
-65.3046
0
LINE
8
BLACK
6
CONTINUOUS
10
93.5141
20
-65.3046
11
93.5617
21
-65.257
0
LINE
8
BLACK
6
CONTINUOUS
10
93.5617
20
-65.257
11
93.5716
21
-65.2501
0
LINE
8
BLACK
6
CONTINUOUS
10
93.5716
20
-65.2501
11
93.5812
21
-65.2429
0
LINE
8
BLACK
6
CONTINUOUS
10
93.5812
20
-65.2429
11
93.6765
21
-65.1953
0
LINE
8
BLACK
6
CONTINUOUS
10
93.6765
20
-65.1953
11
93.6806
21
-65.1941
0
LINE
8
BLACK
6
CONTINUOUS
10
93.6806
20
-65.1941
11
93.6843
21
-65.1919
0
LINE
8
BLACK
6
CONTINUOUS
10
93.6843
20
-65.1919
11
93.693
21
-65.1904
0
LINE
8
BLACK
6
CONTINUOUS
10
93.693
20
-65.1904
11
93.7014
21
-65.1879
0
LINE
8
BLACK
6
CONTINUOUS
10
93.7014
20
-65.1879
11
93.7057
21
-65.1881
0
LINE
8
BLACK
6
CONTINUOUS
10
93.7057
20
-65.1881
11
93.71
21
-65.1874
0
LINE
8
BLACK
6
CONTINUOUS
10
93.71
20
-65.1874
11
94.091
21
-65.1874
0
LINE
8
BLACK
6
CONTINUOUS
10
94.091
20
-65.1874
11
94.0974
21
-65.1885
0
LINE
8
BLACK
6
CONTINUOUS
10
93.7277
20
-65.3374
11
93.6592
21
-65.3716
0
LINE
8
BLACK
6
CONTINUOUS
10
93.6592
20
-65.3716
11
93.6288
21
-65.402
0
LINE
8
BLACK
6
CONTINUOUS
10
93.6288
20
-65.402
11
93.5945
21
-65.4706
0
LINE
8
BLACK
6
CONTINUOUS
10
93.5945
20
-65.4706
11
93.5945
21
-65.578
0
LINE
8
BLACK
6
CONTINUOUS
10
93.5945
20
-65.578
11
93.6288
21
-65.6465
0
LINE
8
BLACK
6
CONTINUOUS
10
93.6288
20
-65.6465
11
93.6592
21
-65.6769
0
LINE
8
BLACK
6
CONTINUOUS
10
93.6592
20
-65.6769
11
93.7277
21
-65.7112
0
LINE
8
BLACK
6
CONTINUOUS
10
93.7277
20
-65.7112
11
94.016
21
-65.7112
0
LINE
8
BLACK
6
CONTINUOUS
10
94.016
20
-65.7112
11
94.016
21
-65.3374
0
LINE
8
BLACK
6
CONTINUOUS
10
94.016
20
-65.3374
11
93.7277
21
-65.3374
  0
ENDSEC
  0
EOF
