G04 #@! TF.GenerationSoftware,KiCad,Pcbnew,5.0.2-bee76a0~70~ubuntu18.04.1*
G04 #@! TF.CreationDate,2019-04-19T00:02:08+02:00*
G04 #@! TF.ProjectId,Cramps2_nano-soc2,4372616d-7073-4325-9f6e-616e6f2d736f,rev?*
G04 #@! TF.SameCoordinates,PX53920b0PY870b888*
G04 #@! TF.FileFunction,Legend,Bot*
G04 #@! TF.FilePolarity,Positive*
%FSLAX46Y46*%
G04 Gerber Fmt 4.6, Leading zero omitted, Abs format (unit mm)*
G04 Created by KiCad (PCBNEW 5.0.2-bee76a0~70~ubuntu18.04.1) date 2019-04-19T00:02:08 CEST*
%MOMM*%
%LPD*%
G01*
G04 APERTURE LIST*
%ADD10C,0.120000*%
%ADD11C,0.150000*%
G04 APERTURE END LIST*
D10*
G04 #@! TO.C,GPIO_0*
X3810000Y74355000D02*
X2480000Y74355000D01*
X2480000Y74355000D02*
X2480000Y73025000D01*
X5080000Y74355000D02*
X5080000Y71755000D01*
X5080000Y71755000D02*
X2480000Y71755000D01*
X2480000Y71755000D02*
X2480000Y23435000D01*
X7680000Y23435000D02*
X2480000Y23435000D01*
X7680000Y74355000D02*
X7680000Y23435000D01*
X7680000Y74355000D02*
X5080000Y74355000D01*
G04 #@! TO.C,P8*
X73010000Y59695000D02*
X71680000Y59695000D01*
X71680000Y59695000D02*
X71680000Y58365000D01*
X74280000Y59695000D02*
X74280000Y57095000D01*
X74280000Y57095000D02*
X71680000Y57095000D01*
X71680000Y57095000D02*
X71680000Y1155000D01*
X76880000Y1155000D02*
X71680000Y1155000D01*
X76880000Y59695000D02*
X76880000Y1155000D01*
X76880000Y59695000D02*
X74280000Y59695000D01*
G04 #@! TO.C,P9*
X24750000Y59695000D02*
X23420000Y59695000D01*
X23420000Y59695000D02*
X23420000Y58365000D01*
X26020000Y59695000D02*
X26020000Y57095000D01*
X26020000Y57095000D02*
X23420000Y57095000D01*
X23420000Y57095000D02*
X23420000Y1155000D01*
X28620000Y1155000D02*
X23420000Y1155000D01*
X28620000Y59695000D02*
X28620000Y1155000D01*
X28620000Y59695000D02*
X26020000Y59695000D01*
G04 #@! TO.C,GPIO_0*
D11*
X6937142Y76295000D02*
X7032380Y76342620D01*
X7175238Y76342620D01*
X7318095Y76295000D01*
X7413333Y76199762D01*
X7460952Y76104524D01*
X7508571Y75914048D01*
X7508571Y75771191D01*
X7460952Y75580715D01*
X7413333Y75485477D01*
X7318095Y75390239D01*
X7175238Y75342620D01*
X7080000Y75342620D01*
X6937142Y75390239D01*
X6889523Y75437858D01*
X6889523Y75771191D01*
X7080000Y75771191D01*
X6460952Y75342620D02*
X6460952Y76342620D01*
X6080000Y76342620D01*
X5984761Y76295000D01*
X5937142Y76247381D01*
X5889523Y76152143D01*
X5889523Y76009286D01*
X5937142Y75914048D01*
X5984761Y75866429D01*
X6080000Y75818810D01*
X6460952Y75818810D01*
X5460952Y75342620D02*
X5460952Y76342620D01*
X4794285Y76342620D02*
X4603809Y76342620D01*
X4508571Y76295000D01*
X4413333Y76199762D01*
X4365714Y76009286D01*
X4365714Y75675953D01*
X4413333Y75485477D01*
X4508571Y75390239D01*
X4603809Y75342620D01*
X4794285Y75342620D01*
X4889523Y75390239D01*
X4984761Y75485477D01*
X5032380Y75675953D01*
X5032380Y76009286D01*
X4984761Y76199762D01*
X4889523Y76295000D01*
X4794285Y76342620D01*
X4175238Y75247381D02*
X3413333Y75247381D01*
X2984761Y76342620D02*
X2889523Y76342620D01*
X2794285Y76295000D01*
X2746666Y76247381D01*
X2699047Y76152143D01*
X2651428Y75961667D01*
X2651428Y75723572D01*
X2699047Y75533096D01*
X2746666Y75437858D01*
X2794285Y75390239D01*
X2889523Y75342620D01*
X2984761Y75342620D01*
X3080000Y75390239D01*
X3127619Y75437858D01*
X3175238Y75533096D01*
X3222857Y75723572D01*
X3222857Y75961667D01*
X3175238Y76152143D01*
X3127619Y76247381D01*
X3080000Y76295000D01*
X2984761Y76342620D01*
G04 #@! TD*
M02*
