%FSLAX45Y45*%
G04 Gerber Fmt 4.5, Leading zero omitted, Abs format (unit mm)*
G04 Created by KiCad (PCBNEW 4.0.2+dfsg1-stable) date ons 25 jan 2017 10:37:49 CET*
%MOMM*%
G01*
G04 APERTURE LIST*
%ADD10C,0.127000*%
%ADD11C,0.100000*%
%ADD12C,0.200000*%
%ADD13C,0.300000*%
G04 APERTURE END LIST*
D10*
D11*
X2286000Y1778000D02*
X0Y1778000D01*
X2286000Y0D02*
X2286000Y1778000D01*
X0Y0D02*
X2286000Y0D01*
X0Y1778000D02*
X0Y0D01*
D12*
X139700Y1511300D02*
X241300Y1409700D01*
X241300Y1511300D02*
X139700Y1409700D01*
X139700Y1257300D02*
X241300Y1155700D01*
X241300Y1257300D02*
X139700Y1155700D01*
X139700Y1003300D02*
X241300Y901700D01*
X241300Y1003300D02*
X139700Y901700D01*
X139700Y749300D02*
X241300Y647700D01*
X241300Y749300D02*
X139700Y647700D01*
X1130300Y355600D02*
X1231900Y254000D01*
X1231900Y355600D02*
X1130300Y254000D01*
X379000Y254000D02*
G75*
G03X379000Y254000I-125000J0D01*
G01*
D13*
X266429Y-470714D02*
X266429Y-170714D01*
X337857Y-170714D01*
X380714Y-185000D01*
X409286Y-213571D01*
X423571Y-242143D01*
X437857Y-299286D01*
X437857Y-342143D01*
X423571Y-399286D01*
X409286Y-427857D01*
X380714Y-456429D01*
X337857Y-470714D01*
X266429Y-470714D01*
X566429Y-470714D02*
X566429Y-270714D01*
X566429Y-327857D02*
X580714Y-299286D01*
X595000Y-285000D01*
X623571Y-270714D01*
X652143Y-270714D01*
X752143Y-470714D02*
X752143Y-270714D01*
X752143Y-170714D02*
X737857Y-185000D01*
X752143Y-199286D01*
X766428Y-185000D01*
X752143Y-170714D01*
X752143Y-199286D01*
X937857Y-470714D02*
X909286Y-456429D01*
X895000Y-427857D01*
X895000Y-170714D01*
X1095000Y-470714D02*
X1066429Y-456429D01*
X1052143Y-427857D01*
X1052143Y-170714D01*
X1437857Y-470714D02*
X1437857Y-170714D01*
X1537857Y-385000D01*
X1637857Y-170714D01*
X1637857Y-470714D01*
X1909286Y-470714D02*
X1909286Y-313572D01*
X1895000Y-285000D01*
X1866428Y-270714D01*
X1809286Y-270714D01*
X1780714Y-285000D01*
X1909286Y-456429D02*
X1880714Y-470714D01*
X1809286Y-470714D01*
X1780714Y-456429D01*
X1766428Y-427857D01*
X1766428Y-399286D01*
X1780714Y-370714D01*
X1809286Y-356429D01*
X1880714Y-356429D01*
X1909286Y-342143D01*
X2052143Y-270714D02*
X2052143Y-570714D01*
X2052143Y-285000D02*
X2080714Y-270714D01*
X2137857Y-270714D01*
X2166429Y-285000D01*
X2180714Y-299286D01*
X2195000Y-327857D01*
X2195000Y-413571D01*
X2180714Y-442143D01*
X2166429Y-456429D01*
X2137857Y-470714D01*
X2080714Y-470714D01*
X2052143Y-456429D01*
X2323571Y-442143D02*
X2337857Y-456429D01*
X2323571Y-470714D01*
X2309286Y-456429D01*
X2323571Y-442143D01*
X2323571Y-470714D01*
X2323571Y-285000D02*
X2337857Y-299286D01*
X2323571Y-313572D01*
X2309286Y-299286D01*
X2323571Y-285000D01*
X2323571Y-313572D01*
X-106600Y-914200D02*
X-5000Y-1015800D01*
X-5000Y-914200D02*
X-106600Y-1015800D01*
X423571Y-1100714D02*
X252143Y-1100714D01*
X337857Y-1100714D02*
X337857Y-800714D01*
X309286Y-843571D01*
X280714Y-872143D01*
X252143Y-886429D01*
X552143Y-1072143D02*
X566429Y-1086429D01*
X552143Y-1100714D01*
X537857Y-1086429D01*
X552143Y-1072143D01*
X552143Y-1100714D01*
X752143Y-800714D02*
X780714Y-800714D01*
X809286Y-815000D01*
X823571Y-829286D01*
X837857Y-857857D01*
X852143Y-915000D01*
X852143Y-986429D01*
X837857Y-1043571D01*
X823571Y-1072143D01*
X809286Y-1086429D01*
X780714Y-1100714D01*
X752143Y-1100714D01*
X723571Y-1086429D01*
X709286Y-1072143D01*
X695000Y-1043571D01*
X680714Y-986429D01*
X680714Y-915000D01*
X695000Y-857857D01*
X709286Y-829286D01*
X723571Y-815000D01*
X752143Y-800714D01*
X966428Y-829286D02*
X980714Y-815000D01*
X1009286Y-800714D01*
X1080714Y-800714D01*
X1109286Y-815000D01*
X1123571Y-829286D01*
X1137857Y-857857D01*
X1137857Y-886429D01*
X1123571Y-929286D01*
X952143Y-1100714D01*
X1137857Y-1100714D01*
X1266429Y-1100714D02*
X1266429Y-900714D01*
X1266429Y-929286D02*
X1280714Y-915000D01*
X1309286Y-900714D01*
X1352143Y-900714D01*
X1380714Y-915000D01*
X1395000Y-943571D01*
X1395000Y-1100714D01*
X1395000Y-943571D02*
X1409286Y-915000D01*
X1437857Y-900714D01*
X1480714Y-900714D01*
X1509286Y-915000D01*
X1523571Y-943571D01*
X1523571Y-1100714D01*
X1666428Y-1100714D02*
X1666428Y-900714D01*
X1666428Y-929286D02*
X1680714Y-915000D01*
X1709286Y-900714D01*
X1752143Y-900714D01*
X1780714Y-915000D01*
X1795000Y-943571D01*
X1795000Y-1100714D01*
X1795000Y-943571D02*
X1809286Y-915000D01*
X1837857Y-900714D01*
X1880714Y-900714D01*
X1909286Y-915000D01*
X1923571Y-943571D01*
X1923571Y-1100714D01*
X2509286Y-786429D02*
X2252143Y-1172143D01*
X2895000Y-800714D02*
X2923571Y-800714D01*
X2952143Y-815000D01*
X2966428Y-829286D01*
X2980714Y-857857D01*
X2995000Y-915000D01*
X2995000Y-986429D01*
X2980714Y-1043571D01*
X2966428Y-1072143D01*
X2952143Y-1086429D01*
X2923571Y-1100714D01*
X2895000Y-1100714D01*
X2866428Y-1086429D01*
X2852143Y-1072143D01*
X2837857Y-1043571D01*
X2823571Y-986429D01*
X2823571Y-915000D01*
X2837857Y-857857D01*
X2852143Y-829286D01*
X2866428Y-815000D01*
X2895000Y-800714D01*
X3123571Y-1072143D02*
X3137857Y-1086429D01*
X3123571Y-1100714D01*
X3109286Y-1086429D01*
X3123571Y-1072143D01*
X3123571Y-1100714D01*
X3323571Y-800714D02*
X3352143Y-800714D01*
X3380714Y-815000D01*
X3395000Y-829286D01*
X3409285Y-857857D01*
X3423571Y-915000D01*
X3423571Y-986429D01*
X3409285Y-1043571D01*
X3395000Y-1072143D01*
X3380714Y-1086429D01*
X3352143Y-1100714D01*
X3323571Y-1100714D01*
X3295000Y-1086429D01*
X3280714Y-1072143D01*
X3266428Y-1043571D01*
X3252143Y-986429D01*
X3252143Y-915000D01*
X3266428Y-857857D01*
X3280714Y-829286D01*
X3295000Y-815000D01*
X3323571Y-800714D01*
X3680714Y-900714D02*
X3680714Y-1100714D01*
X3609285Y-786429D02*
X3537857Y-1000714D01*
X3723571Y-1000714D01*
X3895000Y-800714D02*
X3923571Y-800714D01*
X3952143Y-815000D01*
X3966428Y-829286D01*
X3980714Y-857857D01*
X3995000Y-915000D01*
X3995000Y-986429D01*
X3980714Y-1043571D01*
X3966428Y-1072143D01*
X3952143Y-1086429D01*
X3923571Y-1100714D01*
X3895000Y-1100714D01*
X3866428Y-1086429D01*
X3852143Y-1072143D01*
X3837857Y-1043571D01*
X3823571Y-986429D01*
X3823571Y-915000D01*
X3837857Y-857857D01*
X3852143Y-829286D01*
X3866428Y-815000D01*
X3895000Y-800714D01*
X4109286Y-800714D02*
X4109286Y-857857D01*
X4223571Y-800714D02*
X4223571Y-857857D01*
X4666428Y-1215000D02*
X4652143Y-1200714D01*
X4623571Y-1157857D01*
X4609286Y-1129286D01*
X4595000Y-1086429D01*
X4580714Y-1015000D01*
X4580714Y-957857D01*
X4595000Y-886429D01*
X4609286Y-843571D01*
X4623571Y-815000D01*
X4652143Y-772143D01*
X4666428Y-757857D01*
X4923571Y-800714D02*
X4780714Y-800714D01*
X4766428Y-943571D01*
X4780714Y-929286D01*
X4809286Y-915000D01*
X4880714Y-915000D01*
X4909286Y-929286D01*
X4923571Y-943571D01*
X4937857Y-972143D01*
X4937857Y-1043571D01*
X4923571Y-1072143D01*
X4909286Y-1086429D01*
X4880714Y-1100714D01*
X4809286Y-1100714D01*
X4780714Y-1086429D01*
X4766428Y-1072143D01*
X5295000Y-1100714D02*
X5295000Y-800714D01*
X5423571Y-1100714D02*
X5423571Y-943571D01*
X5409286Y-915000D01*
X5380714Y-900714D01*
X5337857Y-900714D01*
X5309286Y-915000D01*
X5295000Y-929286D01*
X5609285Y-1100714D02*
X5580714Y-1086429D01*
X5566428Y-1072143D01*
X5552143Y-1043571D01*
X5552143Y-957857D01*
X5566428Y-929286D01*
X5580714Y-915000D01*
X5609285Y-900714D01*
X5652143Y-900714D01*
X5680714Y-915000D01*
X5695000Y-929286D01*
X5709285Y-957857D01*
X5709285Y-1043571D01*
X5695000Y-1072143D01*
X5680714Y-1086429D01*
X5652143Y-1100714D01*
X5609285Y-1100714D01*
X5880714Y-1100714D02*
X5852143Y-1086429D01*
X5837857Y-1057857D01*
X5837857Y-800714D01*
X6109286Y-1086429D02*
X6080714Y-1100714D01*
X6023571Y-1100714D01*
X5995000Y-1086429D01*
X5980714Y-1057857D01*
X5980714Y-943571D01*
X5995000Y-915000D01*
X6023571Y-900714D01*
X6080714Y-900714D01*
X6109286Y-915000D01*
X6123571Y-943571D01*
X6123571Y-972143D01*
X5980714Y-1000714D01*
X6237857Y-1086429D02*
X6266428Y-1100714D01*
X6323571Y-1100714D01*
X6352143Y-1086429D01*
X6366428Y-1057857D01*
X6366428Y-1043571D01*
X6352143Y-1015000D01*
X6323571Y-1000714D01*
X6280714Y-1000714D01*
X6252143Y-986429D01*
X6237857Y-957857D01*
X6237857Y-943571D01*
X6252143Y-915000D01*
X6280714Y-900714D01*
X6323571Y-900714D01*
X6352143Y-915000D01*
X6466428Y-1215000D02*
X6480714Y-1200714D01*
X6509286Y-1157857D01*
X6523571Y-1129286D01*
X6537857Y-1086429D01*
X6552143Y-1015000D01*
X6552143Y-957857D01*
X6537857Y-886429D01*
X6523571Y-843571D01*
X6509286Y-815000D01*
X6480714Y-772143D01*
X6466428Y-757857D01*
X-5000Y-1361000D02*
G75*
G03X-5000Y-1361000I-125000J0D01*
G01*
X252143Y-1225286D02*
X266429Y-1211000D01*
X295000Y-1196714D01*
X366428Y-1196714D01*
X395000Y-1211000D01*
X409286Y-1225286D01*
X423571Y-1253857D01*
X423571Y-1282429D01*
X409286Y-1325286D01*
X237857Y-1496714D01*
X423571Y-1496714D01*
X552143Y-1468143D02*
X566429Y-1482429D01*
X552143Y-1496714D01*
X537857Y-1482429D01*
X552143Y-1468143D01*
X552143Y-1496714D01*
X837857Y-1196714D02*
X695000Y-1196714D01*
X680714Y-1339572D01*
X695000Y-1325286D01*
X723571Y-1311000D01*
X795000Y-1311000D01*
X823571Y-1325286D01*
X837857Y-1339572D01*
X852143Y-1368143D01*
X852143Y-1439571D01*
X837857Y-1468143D01*
X823571Y-1482429D01*
X795000Y-1496714D01*
X723571Y-1496714D01*
X695000Y-1482429D01*
X680714Y-1468143D01*
X1037857Y-1196714D02*
X1066429Y-1196714D01*
X1095000Y-1211000D01*
X1109286Y-1225286D01*
X1123571Y-1253857D01*
X1137857Y-1311000D01*
X1137857Y-1382429D01*
X1123571Y-1439571D01*
X1109286Y-1468143D01*
X1095000Y-1482429D01*
X1066429Y-1496714D01*
X1037857Y-1496714D01*
X1009286Y-1482429D01*
X995000Y-1468143D01*
X980714Y-1439571D01*
X966428Y-1382429D01*
X966428Y-1311000D01*
X980714Y-1253857D01*
X995000Y-1225286D01*
X1009286Y-1211000D01*
X1037857Y-1196714D01*
X1266429Y-1496714D02*
X1266429Y-1296714D01*
X1266429Y-1325286D02*
X1280714Y-1311000D01*
X1309286Y-1296714D01*
X1352143Y-1296714D01*
X1380714Y-1311000D01*
X1395000Y-1339572D01*
X1395000Y-1496714D01*
X1395000Y-1339572D02*
X1409286Y-1311000D01*
X1437857Y-1296714D01*
X1480714Y-1296714D01*
X1509286Y-1311000D01*
X1523571Y-1339572D01*
X1523571Y-1496714D01*
X1666428Y-1496714D02*
X1666428Y-1296714D01*
X1666428Y-1325286D02*
X1680714Y-1311000D01*
X1709286Y-1296714D01*
X1752143Y-1296714D01*
X1780714Y-1311000D01*
X1795000Y-1339572D01*
X1795000Y-1496714D01*
X1795000Y-1339572D02*
X1809286Y-1311000D01*
X1837857Y-1296714D01*
X1880714Y-1296714D01*
X1909286Y-1311000D01*
X1923571Y-1339572D01*
X1923571Y-1496714D01*
X2509286Y-1182429D02*
X2252143Y-1568143D01*
X2895000Y-1196714D02*
X2923571Y-1196714D01*
X2952143Y-1211000D01*
X2966428Y-1225286D01*
X2980714Y-1253857D01*
X2995000Y-1311000D01*
X2995000Y-1382429D01*
X2980714Y-1439571D01*
X2966428Y-1468143D01*
X2952143Y-1482429D01*
X2923571Y-1496714D01*
X2895000Y-1496714D01*
X2866428Y-1482429D01*
X2852143Y-1468143D01*
X2837857Y-1439571D01*
X2823571Y-1382429D01*
X2823571Y-1311000D01*
X2837857Y-1253857D01*
X2852143Y-1225286D01*
X2866428Y-1211000D01*
X2895000Y-1196714D01*
X3123571Y-1468143D02*
X3137857Y-1482429D01*
X3123571Y-1496714D01*
X3109286Y-1482429D01*
X3123571Y-1468143D01*
X3123571Y-1496714D01*
X3323571Y-1196714D02*
X3352143Y-1196714D01*
X3380714Y-1211000D01*
X3395000Y-1225286D01*
X3409285Y-1253857D01*
X3423571Y-1311000D01*
X3423571Y-1382429D01*
X3409285Y-1439571D01*
X3395000Y-1468143D01*
X3380714Y-1482429D01*
X3352143Y-1496714D01*
X3323571Y-1496714D01*
X3295000Y-1482429D01*
X3280714Y-1468143D01*
X3266428Y-1439571D01*
X3252143Y-1382429D01*
X3252143Y-1311000D01*
X3266428Y-1253857D01*
X3280714Y-1225286D01*
X3295000Y-1211000D01*
X3323571Y-1196714D01*
X3566428Y-1496714D02*
X3623571Y-1496714D01*
X3652143Y-1482429D01*
X3666428Y-1468143D01*
X3695000Y-1425286D01*
X3709285Y-1368143D01*
X3709285Y-1253857D01*
X3695000Y-1225286D01*
X3680714Y-1211000D01*
X3652143Y-1196714D01*
X3595000Y-1196714D01*
X3566428Y-1211000D01*
X3552143Y-1225286D01*
X3537857Y-1253857D01*
X3537857Y-1325286D01*
X3552143Y-1353857D01*
X3566428Y-1368143D01*
X3595000Y-1382429D01*
X3652143Y-1382429D01*
X3680714Y-1368143D01*
X3695000Y-1353857D01*
X3709285Y-1325286D01*
X3880714Y-1325286D02*
X3852143Y-1311000D01*
X3837857Y-1296714D01*
X3823571Y-1268143D01*
X3823571Y-1253857D01*
X3837857Y-1225286D01*
X3852143Y-1211000D01*
X3880714Y-1196714D01*
X3937857Y-1196714D01*
X3966428Y-1211000D01*
X3980714Y-1225286D01*
X3995000Y-1253857D01*
X3995000Y-1268143D01*
X3980714Y-1296714D01*
X3966428Y-1311000D01*
X3937857Y-1325286D01*
X3880714Y-1325286D01*
X3852143Y-1339572D01*
X3837857Y-1353857D01*
X3823571Y-1382429D01*
X3823571Y-1439571D01*
X3837857Y-1468143D01*
X3852143Y-1482429D01*
X3880714Y-1496714D01*
X3937857Y-1496714D01*
X3966428Y-1482429D01*
X3980714Y-1468143D01*
X3995000Y-1439571D01*
X3995000Y-1382429D01*
X3980714Y-1353857D01*
X3966428Y-1339572D01*
X3937857Y-1325286D01*
X4109286Y-1196714D02*
X4109286Y-1253857D01*
X4223571Y-1196714D02*
X4223571Y-1253857D01*
X4666428Y-1611000D02*
X4652143Y-1596714D01*
X4623571Y-1553857D01*
X4609286Y-1525286D01*
X4595000Y-1482429D01*
X4580714Y-1411000D01*
X4580714Y-1353857D01*
X4595000Y-1282429D01*
X4609286Y-1239572D01*
X4623571Y-1211000D01*
X4652143Y-1168143D01*
X4666428Y-1153857D01*
X4937857Y-1496714D02*
X4766428Y-1496714D01*
X4852143Y-1496714D02*
X4852143Y-1196714D01*
X4823571Y-1239572D01*
X4795000Y-1268143D01*
X4766428Y-1282429D01*
X5295000Y-1496714D02*
X5295000Y-1196714D01*
X5423571Y-1496714D02*
X5423571Y-1339572D01*
X5409286Y-1311000D01*
X5380714Y-1296714D01*
X5337857Y-1296714D01*
X5309286Y-1311000D01*
X5295000Y-1325286D01*
X5609285Y-1496714D02*
X5580714Y-1482429D01*
X5566428Y-1468143D01*
X5552143Y-1439571D01*
X5552143Y-1353857D01*
X5566428Y-1325286D01*
X5580714Y-1311000D01*
X5609285Y-1296714D01*
X5652143Y-1296714D01*
X5680714Y-1311000D01*
X5695000Y-1325286D01*
X5709285Y-1353857D01*
X5709285Y-1439571D01*
X5695000Y-1468143D01*
X5680714Y-1482429D01*
X5652143Y-1496714D01*
X5609285Y-1496714D01*
X5880714Y-1496714D02*
X5852143Y-1482429D01*
X5837857Y-1453857D01*
X5837857Y-1196714D01*
X6109286Y-1482429D02*
X6080714Y-1496714D01*
X6023571Y-1496714D01*
X5995000Y-1482429D01*
X5980714Y-1453857D01*
X5980714Y-1339572D01*
X5995000Y-1311000D01*
X6023571Y-1296714D01*
X6080714Y-1296714D01*
X6109286Y-1311000D01*
X6123571Y-1339572D01*
X6123571Y-1368143D01*
X5980714Y-1396714D01*
X6223571Y-1611000D02*
X6237857Y-1596714D01*
X6266428Y-1553857D01*
X6280714Y-1525286D01*
X6295000Y-1482429D01*
X6309286Y-1411000D01*
X6309286Y-1353857D01*
X6295000Y-1282429D01*
X6280714Y-1239572D01*
X6266428Y-1211000D01*
X6237857Y-1168143D01*
X6223571Y-1153857D01*
M02*
