G04 #@! TF.GenerationSoftware,KiCad,Pcbnew,5.1.4-e60b266~84~ubuntu18.04.1*
G04 #@! TF.CreationDate,2019-09-22T16:17:36+02:00*
G04 #@! TF.ProjectId,Mezz2,4d657a7a-322e-46b6-9963-61645f706362,2*
G04 #@! TF.SameCoordinates,Original*
G04 #@! TF.FileFunction,Legend,Top*
G04 #@! TF.FilePolarity,Positive*
%FSLAX46Y46*%
G04 Gerber Fmt 4.6, Leading zero omitted, Abs format (unit mm)*
G04 Created by KiCad (PCBNEW 5.1.4-e60b266~84~ubuntu18.04.1) date 2019-09-22 16:17:36*
%MOMM*%
%LPD*%
G04 APERTURE LIST*
%ADD10C,0.150000*%
%ADD11C,0.120000*%
%ADD12C,0.100000*%
G04 APERTURE END LIST*
D10*
X75619523Y-91329333D02*
X75667142Y-91234095D01*
X75667142Y-91043619D01*
X75619523Y-90948380D01*
X75524285Y-90853142D01*
X75429047Y-90805523D01*
X75238571Y-90805523D01*
X75143333Y-90853142D01*
X75048095Y-90948380D01*
X75000476Y-91043619D01*
X75000476Y-91234095D01*
X75048095Y-91329333D01*
X76000476Y-91138857D02*
X75952857Y-90900761D01*
X75810000Y-90662666D01*
X75571904Y-90519809D01*
X75333809Y-90472190D01*
X75095714Y-90519809D01*
X74857619Y-90662666D01*
X74714761Y-90900761D01*
X74667142Y-91138857D01*
X74714761Y-91376952D01*
X74857619Y-91615047D01*
X75095714Y-91757904D01*
X75333809Y-91805523D01*
X75571904Y-91757904D01*
X75810000Y-91615047D01*
X75952857Y-91376952D01*
X76000476Y-91138857D01*
X74857619Y-92234095D02*
X75857619Y-92234095D01*
X75381428Y-92234095D02*
X75381428Y-92805523D01*
X74857619Y-92805523D02*
X75857619Y-92805523D01*
X74857619Y-93424571D02*
X74905238Y-93329333D01*
X74952857Y-93281714D01*
X75048095Y-93234095D01*
X75333809Y-93234095D01*
X75429047Y-93281714D01*
X75476666Y-93329333D01*
X75524285Y-93424571D01*
X75524285Y-93567428D01*
X75476666Y-93662666D01*
X75429047Y-93710285D01*
X75333809Y-93757904D01*
X75048095Y-93757904D01*
X74952857Y-93710285D01*
X74905238Y-93662666D01*
X74857619Y-93567428D01*
X74857619Y-93424571D01*
X74857619Y-94329333D02*
X74905238Y-94234095D01*
X75000476Y-94186476D01*
X75857619Y-94186476D01*
X74857619Y-94853142D02*
X74905238Y-94757904D01*
X74952857Y-94710285D01*
X75048095Y-94662666D01*
X75333809Y-94662666D01*
X75429047Y-94710285D01*
X75476666Y-94757904D01*
X75524285Y-94853142D01*
X75524285Y-94996000D01*
X75476666Y-95091238D01*
X75429047Y-95138857D01*
X75333809Y-95186476D01*
X75048095Y-95186476D01*
X74952857Y-95138857D01*
X74905238Y-95091238D01*
X74857619Y-94996000D01*
X74857619Y-94853142D01*
X75524285Y-95472190D02*
X75524285Y-95853142D01*
X75857619Y-95615047D02*
X75000476Y-95615047D01*
X74905238Y-95662666D01*
X74857619Y-95757904D01*
X74857619Y-95853142D01*
X74857619Y-96186476D02*
X75524285Y-96186476D01*
X75333809Y-96186476D02*
X75429047Y-96234095D01*
X75476666Y-96281714D01*
X75524285Y-96376952D01*
X75524285Y-96472190D01*
X74857619Y-96948380D02*
X74905238Y-96853142D01*
X74952857Y-96805523D01*
X75048095Y-96757904D01*
X75333809Y-96757904D01*
X75429047Y-96805523D01*
X75476666Y-96853142D01*
X75524285Y-96948380D01*
X75524285Y-97091238D01*
X75476666Y-97186476D01*
X75429047Y-97234095D01*
X75333809Y-97281714D01*
X75048095Y-97281714D01*
X74952857Y-97234095D01*
X74905238Y-97186476D01*
X74857619Y-97091238D01*
X74857619Y-96948380D01*
X75524285Y-97710285D02*
X74857619Y-97710285D01*
X75429047Y-97710285D02*
X75476666Y-97757904D01*
X75524285Y-97853142D01*
X75524285Y-97996000D01*
X75476666Y-98091238D01*
X75381428Y-98138857D01*
X74857619Y-98138857D01*
X74857619Y-98615047D02*
X75524285Y-98615047D01*
X75857619Y-98615047D02*
X75810000Y-98567428D01*
X75762380Y-98615047D01*
X75810000Y-98662666D01*
X75857619Y-98615047D01*
X75762380Y-98615047D01*
X74905238Y-99519809D02*
X74857619Y-99424571D01*
X74857619Y-99234095D01*
X74905238Y-99138857D01*
X74952857Y-99091238D01*
X75048095Y-99043619D01*
X75333809Y-99043619D01*
X75429047Y-99091238D01*
X75476666Y-99138857D01*
X75524285Y-99234095D01*
X75524285Y-99424571D01*
X75476666Y-99519809D01*
X74112380Y-93662666D02*
X74160000Y-93710285D01*
X74207619Y-93805523D01*
X74207619Y-94043619D01*
X74160000Y-94138857D01*
X74112380Y-94186476D01*
X74017142Y-94234095D01*
X73921904Y-94234095D01*
X73779047Y-94186476D01*
X73207619Y-93615047D01*
X73207619Y-94234095D01*
X74207619Y-94853142D02*
X74207619Y-94948380D01*
X74160000Y-95043619D01*
X74112380Y-95091238D01*
X74017142Y-95138857D01*
X73826666Y-95186476D01*
X73588571Y-95186476D01*
X73398095Y-95138857D01*
X73302857Y-95091238D01*
X73255238Y-95043619D01*
X73207619Y-94948380D01*
X73207619Y-94853142D01*
X73255238Y-94757904D01*
X73302857Y-94710285D01*
X73398095Y-94662666D01*
X73588571Y-94615047D01*
X73826666Y-94615047D01*
X74017142Y-94662666D01*
X74112380Y-94710285D01*
X74160000Y-94757904D01*
X74207619Y-94853142D01*
X73207619Y-96138857D02*
X73207619Y-95567428D01*
X73207619Y-95853142D02*
X74207619Y-95853142D01*
X74064761Y-95757904D01*
X73969523Y-95662666D01*
X73921904Y-95567428D01*
X73207619Y-96615047D02*
X73207619Y-96805523D01*
X73255238Y-96900761D01*
X73302857Y-96948380D01*
X73445714Y-97043619D01*
X73636190Y-97091238D01*
X74017142Y-97091238D01*
X74112380Y-97043619D01*
X74160000Y-96996000D01*
X74207619Y-96900761D01*
X74207619Y-96710285D01*
X74160000Y-96615047D01*
X74112380Y-96567428D01*
X74017142Y-96519809D01*
X73779047Y-96519809D01*
X73683809Y-96567428D01*
X73636190Y-96615047D01*
X73588571Y-96710285D01*
X73588571Y-96900761D01*
X73636190Y-96996000D01*
X73683809Y-97043619D01*
X73779047Y-97091238D01*
X72510000Y-93496000D02*
X72557619Y-93400761D01*
X72557619Y-93257904D01*
X72510000Y-93115047D01*
X72414761Y-93019809D01*
X72319523Y-92972190D01*
X72129047Y-92924571D01*
X71986190Y-92924571D01*
X71795714Y-92972190D01*
X71700476Y-93019809D01*
X71605238Y-93115047D01*
X71557619Y-93257904D01*
X71557619Y-93353142D01*
X71605238Y-93496000D01*
X71652857Y-93543619D01*
X71986190Y-93543619D01*
X71986190Y-93353142D01*
X71557619Y-93972190D02*
X72557619Y-93972190D01*
X72557619Y-94353142D01*
X72510000Y-94448380D01*
X72462380Y-94496000D01*
X72367142Y-94543619D01*
X72224285Y-94543619D01*
X72129047Y-94496000D01*
X72081428Y-94448380D01*
X72033809Y-94353142D01*
X72033809Y-93972190D01*
X71557619Y-95448380D02*
X71557619Y-94972190D01*
X72557619Y-94972190D01*
X72224285Y-95686476D02*
X71557619Y-95924571D01*
X72224285Y-96162666D01*
X72557619Y-96448380D02*
X72557619Y-97067428D01*
X72176666Y-96734095D01*
X72176666Y-96876952D01*
X72129047Y-96972190D01*
X72081428Y-97019809D01*
X71986190Y-97067428D01*
X71748095Y-97067428D01*
X71652857Y-97019809D01*
X71605238Y-96972190D01*
X71557619Y-96876952D01*
X71557619Y-96591238D01*
X71605238Y-96496000D01*
X71652857Y-96448380D01*
X72191619Y-106124571D02*
X73191619Y-106124571D01*
X72477333Y-106457904D01*
X73191619Y-106791238D01*
X72191619Y-106791238D01*
X73191619Y-107457904D02*
X73191619Y-107648380D01*
X73144000Y-107743619D01*
X73048761Y-107838857D01*
X72858285Y-107886476D01*
X72524952Y-107886476D01*
X72334476Y-107838857D01*
X72239238Y-107743619D01*
X72191619Y-107648380D01*
X72191619Y-107457904D01*
X72239238Y-107362666D01*
X72334476Y-107267428D01*
X72524952Y-107219809D01*
X72858285Y-107219809D01*
X73048761Y-107267428D01*
X73144000Y-107362666D01*
X73191619Y-107457904D01*
X72239238Y-108267428D02*
X72191619Y-108410285D01*
X72191619Y-108648380D01*
X72239238Y-108743619D01*
X72286857Y-108791238D01*
X72382095Y-108838857D01*
X72477333Y-108838857D01*
X72572571Y-108791238D01*
X72620190Y-108743619D01*
X72667809Y-108648380D01*
X72715428Y-108457904D01*
X72763047Y-108362666D01*
X72810666Y-108315047D01*
X72905904Y-108267428D01*
X73001142Y-108267428D01*
X73096380Y-108315047D01*
X73144000Y-108362666D01*
X73191619Y-108457904D01*
X73191619Y-108696000D01*
X73144000Y-108838857D01*
X72191619Y-109267428D02*
X73191619Y-109267428D01*
X74826857Y-108291333D02*
X74779238Y-108243714D01*
X74731619Y-108100857D01*
X74731619Y-108005619D01*
X74779238Y-107862761D01*
X74874476Y-107767523D01*
X74969714Y-107719904D01*
X75160190Y-107672285D01*
X75303047Y-107672285D01*
X75493523Y-107719904D01*
X75588761Y-107767523D01*
X75684000Y-107862761D01*
X75731619Y-108005619D01*
X75731619Y-108100857D01*
X75684000Y-108243714D01*
X75636380Y-108291333D01*
X74779238Y-108672285D02*
X74731619Y-108815142D01*
X74731619Y-109053238D01*
X74779238Y-109148476D01*
X74826857Y-109196095D01*
X74922095Y-109243714D01*
X75017333Y-109243714D01*
X75112571Y-109196095D01*
X75160190Y-109148476D01*
X75207809Y-109053238D01*
X75255428Y-108862761D01*
X75303047Y-108767523D01*
X75350666Y-108719904D01*
X75445904Y-108672285D01*
X75541142Y-108672285D01*
X75636380Y-108719904D01*
X75684000Y-108767523D01*
X75731619Y-108862761D01*
X75731619Y-109100857D01*
X75684000Y-109243714D01*
X77319238Y-106005523D02*
X77271619Y-106148380D01*
X77271619Y-106386476D01*
X77319238Y-106481714D01*
X77366857Y-106529333D01*
X77462095Y-106576952D01*
X77557333Y-106576952D01*
X77652571Y-106529333D01*
X77700190Y-106481714D01*
X77747809Y-106386476D01*
X77795428Y-106196000D01*
X77843047Y-106100761D01*
X77890666Y-106053142D01*
X77985904Y-106005523D01*
X78081142Y-106005523D01*
X78176380Y-106053142D01*
X78224000Y-106100761D01*
X78271619Y-106196000D01*
X78271619Y-106434095D01*
X78224000Y-106576952D01*
X77366857Y-107576952D02*
X77319238Y-107529333D01*
X77271619Y-107386476D01*
X77271619Y-107291238D01*
X77319238Y-107148380D01*
X77414476Y-107053142D01*
X77509714Y-107005523D01*
X77700190Y-106957904D01*
X77843047Y-106957904D01*
X78033523Y-107005523D01*
X78128761Y-107053142D01*
X78224000Y-107148380D01*
X78271619Y-107291238D01*
X78271619Y-107386476D01*
X78224000Y-107529333D01*
X78176380Y-107576952D01*
X77271619Y-108481714D02*
X77271619Y-108005523D01*
X78271619Y-108005523D01*
X77271619Y-108815047D02*
X78271619Y-108815047D01*
X77271619Y-109386476D02*
X77843047Y-108957904D01*
X78271619Y-109386476D02*
X77700190Y-108815047D01*
X79811619Y-106124571D02*
X80811619Y-106124571D01*
X80097333Y-106457904D01*
X80811619Y-106791238D01*
X79811619Y-106791238D01*
X79811619Y-107267428D02*
X80811619Y-107267428D01*
X79859238Y-107696000D02*
X79811619Y-107838857D01*
X79811619Y-108076952D01*
X79859238Y-108172190D01*
X79906857Y-108219809D01*
X80002095Y-108267428D01*
X80097333Y-108267428D01*
X80192571Y-108219809D01*
X80240190Y-108172190D01*
X80287809Y-108076952D01*
X80335428Y-107886476D01*
X80383047Y-107791238D01*
X80430666Y-107743619D01*
X80525904Y-107696000D01*
X80621142Y-107696000D01*
X80716380Y-107743619D01*
X80764000Y-107791238D01*
X80811619Y-107886476D01*
X80811619Y-108124571D01*
X80764000Y-108267428D01*
X80811619Y-108886476D02*
X80811619Y-109076952D01*
X80764000Y-109172190D01*
X80668761Y-109267428D01*
X80478285Y-109315047D01*
X80144952Y-109315047D01*
X79954476Y-109267428D01*
X79859238Y-109172190D01*
X79811619Y-109076952D01*
X79811619Y-108886476D01*
X79859238Y-108791238D01*
X79954476Y-108696000D01*
X80144952Y-108648380D01*
X80478285Y-108648380D01*
X80668761Y-108696000D01*
X80764000Y-108791238D01*
X80811619Y-108886476D01*
X82605619Y-105632476D02*
X83605619Y-105632476D01*
X82891333Y-105965809D01*
X83605619Y-106299142D01*
X82605619Y-106299142D01*
X82700857Y-107346761D02*
X82653238Y-107299142D01*
X82605619Y-107156285D01*
X82605619Y-107061047D01*
X82653238Y-106918190D01*
X82748476Y-106822952D01*
X82843714Y-106775333D01*
X83034190Y-106727714D01*
X83177047Y-106727714D01*
X83367523Y-106775333D01*
X83462761Y-106822952D01*
X83558000Y-106918190D01*
X83605619Y-107061047D01*
X83605619Y-107156285D01*
X83558000Y-107299142D01*
X83510380Y-107346761D01*
X82605619Y-107775333D02*
X83605619Y-107775333D01*
X82605619Y-108346761D02*
X83177047Y-107918190D01*
X83605619Y-108346761D02*
X83034190Y-107775333D01*
X83605619Y-108965809D02*
X83605619Y-109061047D01*
X83558000Y-109156285D01*
X83510380Y-109203904D01*
X83415142Y-109251523D01*
X83224666Y-109299142D01*
X82986571Y-109299142D01*
X82796095Y-109251523D01*
X82700857Y-109203904D01*
X82653238Y-109156285D01*
X82605619Y-109061047D01*
X82605619Y-108965809D01*
X82653238Y-108870571D01*
X82700857Y-108822952D01*
X82796095Y-108775333D01*
X82986571Y-108727714D01*
X83224666Y-108727714D01*
X83415142Y-108775333D01*
X83510380Y-108822952D01*
X83558000Y-108870571D01*
X83605619Y-108965809D01*
X85145619Y-105632476D02*
X86145619Y-105632476D01*
X85431333Y-105965809D01*
X86145619Y-106299142D01*
X85145619Y-106299142D01*
X85240857Y-107346761D02*
X85193238Y-107299142D01*
X85145619Y-107156285D01*
X85145619Y-107061047D01*
X85193238Y-106918190D01*
X85288476Y-106822952D01*
X85383714Y-106775333D01*
X85574190Y-106727714D01*
X85717047Y-106727714D01*
X85907523Y-106775333D01*
X86002761Y-106822952D01*
X86098000Y-106918190D01*
X86145619Y-107061047D01*
X86145619Y-107156285D01*
X86098000Y-107299142D01*
X86050380Y-107346761D01*
X85145619Y-107775333D02*
X86145619Y-107775333D01*
X85145619Y-108346761D02*
X85717047Y-107918190D01*
X86145619Y-108346761D02*
X85574190Y-107775333D01*
X85145619Y-109299142D02*
X85145619Y-108727714D01*
X85145619Y-109013428D02*
X86145619Y-109013428D01*
X86002761Y-108918190D01*
X85907523Y-108822952D01*
X85859904Y-108727714D01*
X87431619Y-106735714D02*
X88431619Y-106735714D01*
X88431619Y-106973809D01*
X88384000Y-107116666D01*
X88288761Y-107211904D01*
X88193523Y-107259523D01*
X88003047Y-107307142D01*
X87860190Y-107307142D01*
X87669714Y-107259523D01*
X87574476Y-107211904D01*
X87479238Y-107116666D01*
X87431619Y-106973809D01*
X87431619Y-106735714D01*
X88098285Y-108164285D02*
X87431619Y-108164285D01*
X88479238Y-107926190D02*
X87764952Y-107688095D01*
X87764952Y-108307142D01*
X88336380Y-108640476D02*
X88384000Y-108688095D01*
X88431619Y-108783333D01*
X88431619Y-109021428D01*
X88384000Y-109116666D01*
X88336380Y-109164285D01*
X88241142Y-109211904D01*
X88145904Y-109211904D01*
X88003047Y-109164285D01*
X87431619Y-108592857D01*
X87431619Y-109211904D01*
X89971619Y-106735714D02*
X90971619Y-106735714D01*
X90971619Y-106973809D01*
X90924000Y-107116666D01*
X90828761Y-107211904D01*
X90733523Y-107259523D01*
X90543047Y-107307142D01*
X90400190Y-107307142D01*
X90209714Y-107259523D01*
X90114476Y-107211904D01*
X90019238Y-107116666D01*
X89971619Y-106973809D01*
X89971619Y-106735714D01*
X90638285Y-108164285D02*
X89971619Y-108164285D01*
X91019238Y-107926190D02*
X90304952Y-107688095D01*
X90304952Y-108307142D01*
X89971619Y-109211904D02*
X89971619Y-108640476D01*
X89971619Y-108926190D02*
X90971619Y-108926190D01*
X90828761Y-108830952D01*
X90733523Y-108735714D01*
X90685904Y-108640476D01*
X92511619Y-106735714D02*
X93511619Y-106735714D01*
X93511619Y-106973809D01*
X93464000Y-107116666D01*
X93368761Y-107211904D01*
X93273523Y-107259523D01*
X93083047Y-107307142D01*
X92940190Y-107307142D01*
X92749714Y-107259523D01*
X92654476Y-107211904D01*
X92559238Y-107116666D01*
X92511619Y-106973809D01*
X92511619Y-106735714D01*
X93178285Y-108164285D02*
X92511619Y-108164285D01*
X93559238Y-107926190D02*
X92844952Y-107688095D01*
X92844952Y-108307142D01*
X93511619Y-108878571D02*
X93511619Y-108973809D01*
X93464000Y-109069047D01*
X93416380Y-109116666D01*
X93321142Y-109164285D01*
X93130666Y-109211904D01*
X92892571Y-109211904D01*
X92702095Y-109164285D01*
X92606857Y-109116666D01*
X92559238Y-109069047D01*
X92511619Y-108973809D01*
X92511619Y-108878571D01*
X92559238Y-108783333D01*
X92606857Y-108735714D01*
X92702095Y-108688095D01*
X92892571Y-108640476D01*
X93130666Y-108640476D01*
X93321142Y-108688095D01*
X93416380Y-108735714D01*
X93464000Y-108783333D01*
X93511619Y-108878571D01*
X95305619Y-106735714D02*
X96305619Y-106735714D01*
X96305619Y-106973809D01*
X96258000Y-107116666D01*
X96162761Y-107211904D01*
X96067523Y-107259523D01*
X95877047Y-107307142D01*
X95734190Y-107307142D01*
X95543714Y-107259523D01*
X95448476Y-107211904D01*
X95353238Y-107116666D01*
X95305619Y-106973809D01*
X95305619Y-106735714D01*
X96305619Y-107640476D02*
X96305619Y-108259523D01*
X95924666Y-107926190D01*
X95924666Y-108069047D01*
X95877047Y-108164285D01*
X95829428Y-108211904D01*
X95734190Y-108259523D01*
X95496095Y-108259523D01*
X95400857Y-108211904D01*
X95353238Y-108164285D01*
X95305619Y-108069047D01*
X95305619Y-107783333D01*
X95353238Y-107688095D01*
X95400857Y-107640476D01*
X95305619Y-108735714D02*
X95305619Y-108926190D01*
X95353238Y-109021428D01*
X95400857Y-109069047D01*
X95543714Y-109164285D01*
X95734190Y-109211904D01*
X96115142Y-109211904D01*
X96210380Y-109164285D01*
X96258000Y-109116666D01*
X96305619Y-109021428D01*
X96305619Y-108830952D01*
X96258000Y-108735714D01*
X96210380Y-108688095D01*
X96115142Y-108640476D01*
X95877047Y-108640476D01*
X95781809Y-108688095D01*
X95734190Y-108735714D01*
X95686571Y-108830952D01*
X95686571Y-109021428D01*
X95734190Y-109116666D01*
X95781809Y-109164285D01*
X95877047Y-109211904D01*
X97591619Y-106735714D02*
X98591619Y-106735714D01*
X98591619Y-106973809D01*
X98544000Y-107116666D01*
X98448761Y-107211904D01*
X98353523Y-107259523D01*
X98163047Y-107307142D01*
X98020190Y-107307142D01*
X97829714Y-107259523D01*
X97734476Y-107211904D01*
X97639238Y-107116666D01*
X97591619Y-106973809D01*
X97591619Y-106735714D01*
X98591619Y-107640476D02*
X98591619Y-108259523D01*
X98210666Y-107926190D01*
X98210666Y-108069047D01*
X98163047Y-108164285D01*
X98115428Y-108211904D01*
X98020190Y-108259523D01*
X97782095Y-108259523D01*
X97686857Y-108211904D01*
X97639238Y-108164285D01*
X97591619Y-108069047D01*
X97591619Y-107783333D01*
X97639238Y-107688095D01*
X97686857Y-107640476D01*
X98163047Y-108830952D02*
X98210666Y-108735714D01*
X98258285Y-108688095D01*
X98353523Y-108640476D01*
X98401142Y-108640476D01*
X98496380Y-108688095D01*
X98544000Y-108735714D01*
X98591619Y-108830952D01*
X98591619Y-109021428D01*
X98544000Y-109116666D01*
X98496380Y-109164285D01*
X98401142Y-109211904D01*
X98353523Y-109211904D01*
X98258285Y-109164285D01*
X98210666Y-109116666D01*
X98163047Y-109021428D01*
X98163047Y-108830952D01*
X98115428Y-108735714D01*
X98067809Y-108688095D01*
X97972571Y-108640476D01*
X97782095Y-108640476D01*
X97686857Y-108688095D01*
X97639238Y-108735714D01*
X97591619Y-108830952D01*
X97591619Y-109021428D01*
X97639238Y-109116666D01*
X97686857Y-109164285D01*
X97782095Y-109211904D01*
X97972571Y-109211904D01*
X98067809Y-109164285D01*
X98115428Y-109116666D01*
X98163047Y-109021428D01*
X100385619Y-106735714D02*
X101385619Y-106735714D01*
X101385619Y-106973809D01*
X101338000Y-107116666D01*
X101242761Y-107211904D01*
X101147523Y-107259523D01*
X100957047Y-107307142D01*
X100814190Y-107307142D01*
X100623714Y-107259523D01*
X100528476Y-107211904D01*
X100433238Y-107116666D01*
X100385619Y-106973809D01*
X100385619Y-106735714D01*
X101385619Y-107640476D02*
X101385619Y-108259523D01*
X101004666Y-107926190D01*
X101004666Y-108069047D01*
X100957047Y-108164285D01*
X100909428Y-108211904D01*
X100814190Y-108259523D01*
X100576095Y-108259523D01*
X100480857Y-108211904D01*
X100433238Y-108164285D01*
X100385619Y-108069047D01*
X100385619Y-107783333D01*
X100433238Y-107688095D01*
X100480857Y-107640476D01*
X101385619Y-108592857D02*
X101385619Y-109259523D01*
X100385619Y-108830952D01*
X102671619Y-106735714D02*
X103671619Y-106735714D01*
X103671619Y-106973809D01*
X103624000Y-107116666D01*
X103528761Y-107211904D01*
X103433523Y-107259523D01*
X103243047Y-107307142D01*
X103100190Y-107307142D01*
X102909714Y-107259523D01*
X102814476Y-107211904D01*
X102719238Y-107116666D01*
X102671619Y-106973809D01*
X102671619Y-106735714D01*
X103671619Y-107640476D02*
X103671619Y-108259523D01*
X103290666Y-107926190D01*
X103290666Y-108069047D01*
X103243047Y-108164285D01*
X103195428Y-108211904D01*
X103100190Y-108259523D01*
X102862095Y-108259523D01*
X102766857Y-108211904D01*
X102719238Y-108164285D01*
X102671619Y-108069047D01*
X102671619Y-107783333D01*
X102719238Y-107688095D01*
X102766857Y-107640476D01*
X103671619Y-109116666D02*
X103671619Y-108926190D01*
X103624000Y-108830952D01*
X103576380Y-108783333D01*
X103433523Y-108688095D01*
X103243047Y-108640476D01*
X102862095Y-108640476D01*
X102766857Y-108688095D01*
X102719238Y-108735714D01*
X102671619Y-108830952D01*
X102671619Y-109021428D01*
X102719238Y-109116666D01*
X102766857Y-109164285D01*
X102862095Y-109211904D01*
X103100190Y-109211904D01*
X103195428Y-109164285D01*
X103243047Y-109116666D01*
X103290666Y-109021428D01*
X103290666Y-108830952D01*
X103243047Y-108735714D01*
X103195428Y-108688095D01*
X103100190Y-108640476D01*
X105211619Y-106735714D02*
X106211619Y-106735714D01*
X106211619Y-106973809D01*
X106164000Y-107116666D01*
X106068761Y-107211904D01*
X105973523Y-107259523D01*
X105783047Y-107307142D01*
X105640190Y-107307142D01*
X105449714Y-107259523D01*
X105354476Y-107211904D01*
X105259238Y-107116666D01*
X105211619Y-106973809D01*
X105211619Y-106735714D01*
X106211619Y-107640476D02*
X106211619Y-108259523D01*
X105830666Y-107926190D01*
X105830666Y-108069047D01*
X105783047Y-108164285D01*
X105735428Y-108211904D01*
X105640190Y-108259523D01*
X105402095Y-108259523D01*
X105306857Y-108211904D01*
X105259238Y-108164285D01*
X105211619Y-108069047D01*
X105211619Y-107783333D01*
X105259238Y-107688095D01*
X105306857Y-107640476D01*
X106211619Y-109164285D02*
X106211619Y-108688095D01*
X105735428Y-108640476D01*
X105783047Y-108688095D01*
X105830666Y-108783333D01*
X105830666Y-109021428D01*
X105783047Y-109116666D01*
X105735428Y-109164285D01*
X105640190Y-109211904D01*
X105402095Y-109211904D01*
X105306857Y-109164285D01*
X105259238Y-109116666D01*
X105211619Y-109021428D01*
X105211619Y-108783333D01*
X105259238Y-108688095D01*
X105306857Y-108640476D01*
X107751619Y-106735714D02*
X108751619Y-106735714D01*
X108751619Y-106973809D01*
X108704000Y-107116666D01*
X108608761Y-107211904D01*
X108513523Y-107259523D01*
X108323047Y-107307142D01*
X108180190Y-107307142D01*
X107989714Y-107259523D01*
X107894476Y-107211904D01*
X107799238Y-107116666D01*
X107751619Y-106973809D01*
X107751619Y-106735714D01*
X108751619Y-107640476D02*
X108751619Y-108259523D01*
X108370666Y-107926190D01*
X108370666Y-108069047D01*
X108323047Y-108164285D01*
X108275428Y-108211904D01*
X108180190Y-108259523D01*
X107942095Y-108259523D01*
X107846857Y-108211904D01*
X107799238Y-108164285D01*
X107751619Y-108069047D01*
X107751619Y-107783333D01*
X107799238Y-107688095D01*
X107846857Y-107640476D01*
X108418285Y-109116666D02*
X107751619Y-109116666D01*
X108799238Y-108878571D02*
X108084952Y-108640476D01*
X108084952Y-109259523D01*
X110291619Y-106735714D02*
X111291619Y-106735714D01*
X111291619Y-106973809D01*
X111244000Y-107116666D01*
X111148761Y-107211904D01*
X111053523Y-107259523D01*
X110863047Y-107307142D01*
X110720190Y-107307142D01*
X110529714Y-107259523D01*
X110434476Y-107211904D01*
X110339238Y-107116666D01*
X110291619Y-106973809D01*
X110291619Y-106735714D01*
X111291619Y-107640476D02*
X111291619Y-108259523D01*
X110910666Y-107926190D01*
X110910666Y-108069047D01*
X110863047Y-108164285D01*
X110815428Y-108211904D01*
X110720190Y-108259523D01*
X110482095Y-108259523D01*
X110386857Y-108211904D01*
X110339238Y-108164285D01*
X110291619Y-108069047D01*
X110291619Y-107783333D01*
X110339238Y-107688095D01*
X110386857Y-107640476D01*
X111291619Y-108592857D02*
X111291619Y-109211904D01*
X110910666Y-108878571D01*
X110910666Y-109021428D01*
X110863047Y-109116666D01*
X110815428Y-109164285D01*
X110720190Y-109211904D01*
X110482095Y-109211904D01*
X110386857Y-109164285D01*
X110339238Y-109116666D01*
X110291619Y-109021428D01*
X110291619Y-108735714D01*
X110339238Y-108640476D01*
X110386857Y-108592857D01*
X113831619Y-105727714D02*
X113022095Y-105727714D01*
X112926857Y-105775333D01*
X112879238Y-105822952D01*
X112831619Y-105918190D01*
X112831619Y-106108666D01*
X112879238Y-106203904D01*
X112926857Y-106251523D01*
X113022095Y-106299142D01*
X113831619Y-106299142D01*
X112879238Y-106727714D02*
X112831619Y-106870571D01*
X112831619Y-107108666D01*
X112879238Y-107203904D01*
X112926857Y-107251523D01*
X113022095Y-107299142D01*
X113117333Y-107299142D01*
X113212571Y-107251523D01*
X113260190Y-107203904D01*
X113307809Y-107108666D01*
X113355428Y-106918190D01*
X113403047Y-106822952D01*
X113450666Y-106775333D01*
X113545904Y-106727714D01*
X113641142Y-106727714D01*
X113736380Y-106775333D01*
X113784000Y-106822952D01*
X113831619Y-106918190D01*
X113831619Y-107156285D01*
X113784000Y-107299142D01*
X113355428Y-108061047D02*
X113307809Y-108203904D01*
X113260190Y-108251523D01*
X113164952Y-108299142D01*
X113022095Y-108299142D01*
X112926857Y-108251523D01*
X112879238Y-108203904D01*
X112831619Y-108108666D01*
X112831619Y-107727714D01*
X113831619Y-107727714D01*
X113831619Y-108061047D01*
X113784000Y-108156285D01*
X113736380Y-108203904D01*
X113641142Y-108251523D01*
X113545904Y-108251523D01*
X113450666Y-108203904D01*
X113403047Y-108156285D01*
X113355428Y-108061047D01*
X113355428Y-107727714D01*
X113498285Y-108727714D02*
X112498285Y-108727714D01*
X113450666Y-108727714D02*
X113498285Y-108822952D01*
X113498285Y-109013428D01*
X113450666Y-109108666D01*
X113403047Y-109156285D01*
X113307809Y-109203904D01*
X113022095Y-109203904D01*
X112926857Y-109156285D01*
X112879238Y-109108666D01*
X112831619Y-109013428D01*
X112831619Y-108822952D01*
X112879238Y-108727714D01*
X116625619Y-105727714D02*
X115816095Y-105727714D01*
X115720857Y-105775333D01*
X115673238Y-105822952D01*
X115625619Y-105918190D01*
X115625619Y-106108666D01*
X115673238Y-106203904D01*
X115720857Y-106251523D01*
X115816095Y-106299142D01*
X116625619Y-106299142D01*
X115673238Y-106727714D02*
X115625619Y-106870571D01*
X115625619Y-107108666D01*
X115673238Y-107203904D01*
X115720857Y-107251523D01*
X115816095Y-107299142D01*
X115911333Y-107299142D01*
X116006571Y-107251523D01*
X116054190Y-107203904D01*
X116101809Y-107108666D01*
X116149428Y-106918190D01*
X116197047Y-106822952D01*
X116244666Y-106775333D01*
X116339904Y-106727714D01*
X116435142Y-106727714D01*
X116530380Y-106775333D01*
X116578000Y-106822952D01*
X116625619Y-106918190D01*
X116625619Y-107156285D01*
X116578000Y-107299142D01*
X116149428Y-108061047D02*
X116101809Y-108203904D01*
X116054190Y-108251523D01*
X115958952Y-108299142D01*
X115816095Y-108299142D01*
X115720857Y-108251523D01*
X115673238Y-108203904D01*
X115625619Y-108108666D01*
X115625619Y-107727714D01*
X116625619Y-107727714D01*
X116625619Y-108061047D01*
X116578000Y-108156285D01*
X116530380Y-108203904D01*
X116435142Y-108251523D01*
X116339904Y-108251523D01*
X116244666Y-108203904D01*
X116197047Y-108156285D01*
X116149428Y-108061047D01*
X116149428Y-107727714D01*
X116292285Y-108727714D02*
X115625619Y-108727714D01*
X116197047Y-108727714D02*
X116244666Y-108775333D01*
X116292285Y-108870571D01*
X116292285Y-109013428D01*
X116244666Y-109108666D01*
X116149428Y-109156285D01*
X115625619Y-109156285D01*
X118165619Y-106735714D02*
X119165619Y-106735714D01*
X119165619Y-106973809D01*
X119118000Y-107116666D01*
X119022761Y-107211904D01*
X118927523Y-107259523D01*
X118737047Y-107307142D01*
X118594190Y-107307142D01*
X118403714Y-107259523D01*
X118308476Y-107211904D01*
X118213238Y-107116666D01*
X118165619Y-106973809D01*
X118165619Y-106735714D01*
X119165619Y-107640476D02*
X119165619Y-108259523D01*
X118784666Y-107926190D01*
X118784666Y-108069047D01*
X118737047Y-108164285D01*
X118689428Y-108211904D01*
X118594190Y-108259523D01*
X118356095Y-108259523D01*
X118260857Y-108211904D01*
X118213238Y-108164285D01*
X118165619Y-108069047D01*
X118165619Y-107783333D01*
X118213238Y-107688095D01*
X118260857Y-107640476D01*
X119070380Y-108640476D02*
X119118000Y-108688095D01*
X119165619Y-108783333D01*
X119165619Y-109021428D01*
X119118000Y-109116666D01*
X119070380Y-109164285D01*
X118975142Y-109211904D01*
X118879904Y-109211904D01*
X118737047Y-109164285D01*
X118165619Y-108592857D01*
X118165619Y-109211904D01*
X120451619Y-107307142D02*
X120451619Y-106830952D01*
X121451619Y-106830952D01*
X120975428Y-107640476D02*
X120975428Y-107973809D01*
X120451619Y-108116666D02*
X120451619Y-107640476D01*
X121451619Y-107640476D01*
X121451619Y-108116666D01*
X120451619Y-108545238D02*
X121451619Y-108545238D01*
X121451619Y-108783333D01*
X121404000Y-108926190D01*
X121308761Y-109021428D01*
X121213523Y-109069047D01*
X121023047Y-109116666D01*
X120880190Y-109116666D01*
X120689714Y-109069047D01*
X120594476Y-109021428D01*
X120499238Y-108926190D01*
X120451619Y-108783333D01*
X120451619Y-108545238D01*
X123944000Y-107188095D02*
X123991619Y-107092857D01*
X123991619Y-106950000D01*
X123944000Y-106807142D01*
X123848761Y-106711904D01*
X123753523Y-106664285D01*
X123563047Y-106616666D01*
X123420190Y-106616666D01*
X123229714Y-106664285D01*
X123134476Y-106711904D01*
X123039238Y-106807142D01*
X122991619Y-106950000D01*
X122991619Y-107045238D01*
X123039238Y-107188095D01*
X123086857Y-107235714D01*
X123420190Y-107235714D01*
X123420190Y-107045238D01*
X122991619Y-107664285D02*
X123991619Y-107664285D01*
X122991619Y-108235714D01*
X123991619Y-108235714D01*
X122991619Y-108711904D02*
X123991619Y-108711904D01*
X123991619Y-108950000D01*
X123944000Y-109092857D01*
X123848761Y-109188095D01*
X123753523Y-109235714D01*
X123563047Y-109283333D01*
X123420190Y-109283333D01*
X123229714Y-109235714D01*
X123134476Y-109188095D01*
X123039238Y-109092857D01*
X122991619Y-108950000D01*
X122991619Y-108711904D01*
X126484000Y-107188095D02*
X126531619Y-107092857D01*
X126531619Y-106950000D01*
X126484000Y-106807142D01*
X126388761Y-106711904D01*
X126293523Y-106664285D01*
X126103047Y-106616666D01*
X125960190Y-106616666D01*
X125769714Y-106664285D01*
X125674476Y-106711904D01*
X125579238Y-106807142D01*
X125531619Y-106950000D01*
X125531619Y-107045238D01*
X125579238Y-107188095D01*
X125626857Y-107235714D01*
X125960190Y-107235714D01*
X125960190Y-107045238D01*
X125531619Y-107664285D02*
X126531619Y-107664285D01*
X125531619Y-108235714D01*
X126531619Y-108235714D01*
X125531619Y-108711904D02*
X126531619Y-108711904D01*
X126531619Y-108950000D01*
X126484000Y-109092857D01*
X126388761Y-109188095D01*
X126293523Y-109235714D01*
X126103047Y-109283333D01*
X125960190Y-109283333D01*
X125769714Y-109235714D01*
X125674476Y-109188095D01*
X125579238Y-109092857D01*
X125531619Y-108950000D01*
X125531619Y-108711904D01*
X126785619Y-80708666D02*
X125785619Y-81042000D01*
X126785619Y-81375333D01*
X125880857Y-82280095D02*
X125833238Y-82232476D01*
X125785619Y-82089619D01*
X125785619Y-81994380D01*
X125833238Y-81851523D01*
X125928476Y-81756285D01*
X126023714Y-81708666D01*
X126214190Y-81661047D01*
X126357047Y-81661047D01*
X126547523Y-81708666D01*
X126642761Y-81756285D01*
X126738000Y-81851523D01*
X126785619Y-81994380D01*
X126785619Y-82089619D01*
X126738000Y-82232476D01*
X126690380Y-82280095D01*
X125880857Y-83280095D02*
X125833238Y-83232476D01*
X125785619Y-83089619D01*
X125785619Y-82994380D01*
X125833238Y-82851523D01*
X125928476Y-82756285D01*
X126023714Y-82708666D01*
X126214190Y-82661047D01*
X126357047Y-82661047D01*
X126547523Y-82708666D01*
X126642761Y-82756285D01*
X126738000Y-82851523D01*
X126785619Y-82994380D01*
X126785619Y-83089619D01*
X126738000Y-83232476D01*
X126690380Y-83280095D01*
X123944000Y-81280095D02*
X123991619Y-81184857D01*
X123991619Y-81042000D01*
X123944000Y-80899142D01*
X123848761Y-80803904D01*
X123753523Y-80756285D01*
X123563047Y-80708666D01*
X123420190Y-80708666D01*
X123229714Y-80756285D01*
X123134476Y-80803904D01*
X123039238Y-80899142D01*
X122991619Y-81042000D01*
X122991619Y-81137238D01*
X123039238Y-81280095D01*
X123086857Y-81327714D01*
X123420190Y-81327714D01*
X123420190Y-81137238D01*
X122991619Y-81756285D02*
X123991619Y-81756285D01*
X122991619Y-82327714D01*
X123991619Y-82327714D01*
X122991619Y-82803904D02*
X123991619Y-82803904D01*
X123991619Y-83042000D01*
X123944000Y-83184857D01*
X123848761Y-83280095D01*
X123753523Y-83327714D01*
X123563047Y-83375333D01*
X123420190Y-83375333D01*
X123229714Y-83327714D01*
X123134476Y-83280095D01*
X123039238Y-83184857D01*
X122991619Y-83042000D01*
X122991619Y-82803904D01*
X120705619Y-80827714D02*
X121705619Y-80827714D01*
X121705619Y-81065809D01*
X121658000Y-81208666D01*
X121562761Y-81303904D01*
X121467523Y-81351523D01*
X121277047Y-81399142D01*
X121134190Y-81399142D01*
X120943714Y-81351523D01*
X120848476Y-81303904D01*
X120753238Y-81208666D01*
X120705619Y-81065809D01*
X120705619Y-80827714D01*
X121705619Y-81732476D02*
X121705619Y-82351523D01*
X121324666Y-82018190D01*
X121324666Y-82161047D01*
X121277047Y-82256285D01*
X121229428Y-82303904D01*
X121134190Y-82351523D01*
X120896095Y-82351523D01*
X120800857Y-82303904D01*
X120753238Y-82256285D01*
X120705619Y-82161047D01*
X120705619Y-81875333D01*
X120753238Y-81780095D01*
X120800857Y-81732476D01*
X120705619Y-83303904D02*
X120705619Y-82732476D01*
X120705619Y-83018190D02*
X121705619Y-83018190D01*
X121562761Y-82922952D01*
X121467523Y-82827714D01*
X121419904Y-82732476D01*
X117911619Y-80827714D02*
X118911619Y-80827714D01*
X118911619Y-81065809D01*
X118864000Y-81208666D01*
X118768761Y-81303904D01*
X118673523Y-81351523D01*
X118483047Y-81399142D01*
X118340190Y-81399142D01*
X118149714Y-81351523D01*
X118054476Y-81303904D01*
X117959238Y-81208666D01*
X117911619Y-81065809D01*
X117911619Y-80827714D01*
X118911619Y-81732476D02*
X118911619Y-82351523D01*
X118530666Y-82018190D01*
X118530666Y-82161047D01*
X118483047Y-82256285D01*
X118435428Y-82303904D01*
X118340190Y-82351523D01*
X118102095Y-82351523D01*
X118006857Y-82303904D01*
X117959238Y-82256285D01*
X117911619Y-82161047D01*
X117911619Y-81875333D01*
X117959238Y-81780095D01*
X118006857Y-81732476D01*
X118911619Y-82970571D02*
X118911619Y-83065809D01*
X118864000Y-83161047D01*
X118816380Y-83208666D01*
X118721142Y-83256285D01*
X118530666Y-83303904D01*
X118292571Y-83303904D01*
X118102095Y-83256285D01*
X118006857Y-83208666D01*
X117959238Y-83161047D01*
X117911619Y-83065809D01*
X117911619Y-82970571D01*
X117959238Y-82875333D01*
X118006857Y-82827714D01*
X118102095Y-82780095D01*
X118292571Y-82732476D01*
X118530666Y-82732476D01*
X118721142Y-82780095D01*
X118816380Y-82827714D01*
X118864000Y-82875333D01*
X118911619Y-82970571D01*
X115625619Y-80827714D02*
X116625619Y-80827714D01*
X116625619Y-81065809D01*
X116578000Y-81208666D01*
X116482761Y-81303904D01*
X116387523Y-81351523D01*
X116197047Y-81399142D01*
X116054190Y-81399142D01*
X115863714Y-81351523D01*
X115768476Y-81303904D01*
X115673238Y-81208666D01*
X115625619Y-81065809D01*
X115625619Y-80827714D01*
X116530380Y-81780095D02*
X116578000Y-81827714D01*
X116625619Y-81922952D01*
X116625619Y-82161047D01*
X116578000Y-82256285D01*
X116530380Y-82303904D01*
X116435142Y-82351523D01*
X116339904Y-82351523D01*
X116197047Y-82303904D01*
X115625619Y-81732476D01*
X115625619Y-82351523D01*
X115625619Y-82827714D02*
X115625619Y-83018190D01*
X115673238Y-83113428D01*
X115720857Y-83161047D01*
X115863714Y-83256285D01*
X116054190Y-83303904D01*
X116435142Y-83303904D01*
X116530380Y-83256285D01*
X116578000Y-83208666D01*
X116625619Y-83113428D01*
X116625619Y-82922952D01*
X116578000Y-82827714D01*
X116530380Y-82780095D01*
X116435142Y-82732476D01*
X116197047Y-82732476D01*
X116101809Y-82780095D01*
X116054190Y-82827714D01*
X116006571Y-82922952D01*
X116006571Y-83113428D01*
X116054190Y-83208666D01*
X116101809Y-83256285D01*
X116197047Y-83303904D01*
X112831619Y-80827714D02*
X113831619Y-80827714D01*
X113831619Y-81065809D01*
X113784000Y-81208666D01*
X113688761Y-81303904D01*
X113593523Y-81351523D01*
X113403047Y-81399142D01*
X113260190Y-81399142D01*
X113069714Y-81351523D01*
X112974476Y-81303904D01*
X112879238Y-81208666D01*
X112831619Y-81065809D01*
X112831619Y-80827714D01*
X113736380Y-81780095D02*
X113784000Y-81827714D01*
X113831619Y-81922952D01*
X113831619Y-82161047D01*
X113784000Y-82256285D01*
X113736380Y-82303904D01*
X113641142Y-82351523D01*
X113545904Y-82351523D01*
X113403047Y-82303904D01*
X112831619Y-81732476D01*
X112831619Y-82351523D01*
X113403047Y-82922952D02*
X113450666Y-82827714D01*
X113498285Y-82780095D01*
X113593523Y-82732476D01*
X113641142Y-82732476D01*
X113736380Y-82780095D01*
X113784000Y-82827714D01*
X113831619Y-82922952D01*
X113831619Y-83113428D01*
X113784000Y-83208666D01*
X113736380Y-83256285D01*
X113641142Y-83303904D01*
X113593523Y-83303904D01*
X113498285Y-83256285D01*
X113450666Y-83208666D01*
X113403047Y-83113428D01*
X113403047Y-82922952D01*
X113355428Y-82827714D01*
X113307809Y-82780095D01*
X113212571Y-82732476D01*
X113022095Y-82732476D01*
X112926857Y-82780095D01*
X112879238Y-82827714D01*
X112831619Y-82922952D01*
X112831619Y-83113428D01*
X112879238Y-83208666D01*
X112926857Y-83256285D01*
X113022095Y-83303904D01*
X113212571Y-83303904D01*
X113307809Y-83256285D01*
X113355428Y-83208666D01*
X113403047Y-83113428D01*
X110545619Y-80827714D02*
X111545619Y-80827714D01*
X111545619Y-81065809D01*
X111498000Y-81208666D01*
X111402761Y-81303904D01*
X111307523Y-81351523D01*
X111117047Y-81399142D01*
X110974190Y-81399142D01*
X110783714Y-81351523D01*
X110688476Y-81303904D01*
X110593238Y-81208666D01*
X110545619Y-81065809D01*
X110545619Y-80827714D01*
X111450380Y-81780095D02*
X111498000Y-81827714D01*
X111545619Y-81922952D01*
X111545619Y-82161047D01*
X111498000Y-82256285D01*
X111450380Y-82303904D01*
X111355142Y-82351523D01*
X111259904Y-82351523D01*
X111117047Y-82303904D01*
X110545619Y-81732476D01*
X110545619Y-82351523D01*
X111545619Y-82684857D02*
X111545619Y-83351523D01*
X110545619Y-82922952D01*
X107751619Y-80827714D02*
X108751619Y-80827714D01*
X108751619Y-81065809D01*
X108704000Y-81208666D01*
X108608761Y-81303904D01*
X108513523Y-81351523D01*
X108323047Y-81399142D01*
X108180190Y-81399142D01*
X107989714Y-81351523D01*
X107894476Y-81303904D01*
X107799238Y-81208666D01*
X107751619Y-81065809D01*
X107751619Y-80827714D01*
X108656380Y-81780095D02*
X108704000Y-81827714D01*
X108751619Y-81922952D01*
X108751619Y-82161047D01*
X108704000Y-82256285D01*
X108656380Y-82303904D01*
X108561142Y-82351523D01*
X108465904Y-82351523D01*
X108323047Y-82303904D01*
X107751619Y-81732476D01*
X107751619Y-82351523D01*
X108751619Y-83208666D02*
X108751619Y-83018190D01*
X108704000Y-82922952D01*
X108656380Y-82875333D01*
X108513523Y-82780095D01*
X108323047Y-82732476D01*
X107942095Y-82732476D01*
X107846857Y-82780095D01*
X107799238Y-82827714D01*
X107751619Y-82922952D01*
X107751619Y-83113428D01*
X107799238Y-83208666D01*
X107846857Y-83256285D01*
X107942095Y-83303904D01*
X108180190Y-83303904D01*
X108275428Y-83256285D01*
X108323047Y-83208666D01*
X108370666Y-83113428D01*
X108370666Y-82922952D01*
X108323047Y-82827714D01*
X108275428Y-82780095D01*
X108180190Y-82732476D01*
X105211619Y-80843619D02*
X106211619Y-80843619D01*
X106116380Y-81272190D02*
X106164000Y-81319809D01*
X106211619Y-81415047D01*
X106211619Y-81653142D01*
X106164000Y-81748380D01*
X106116380Y-81796000D01*
X106021142Y-81843619D01*
X105925904Y-81843619D01*
X105783047Y-81796000D01*
X105211619Y-81224571D01*
X105211619Y-81843619D01*
X105306857Y-82843619D02*
X105259238Y-82796000D01*
X105211619Y-82653142D01*
X105211619Y-82557904D01*
X105259238Y-82415047D01*
X105354476Y-82319809D01*
X105449714Y-82272190D01*
X105640190Y-82224571D01*
X105783047Y-82224571D01*
X105973523Y-82272190D01*
X106068761Y-82319809D01*
X106164000Y-82415047D01*
X106211619Y-82557904D01*
X106211619Y-82653142D01*
X106164000Y-82796000D01*
X106116380Y-82843619D01*
X106211619Y-83176952D02*
X106211619Y-83796000D01*
X105830666Y-83462666D01*
X105830666Y-83605523D01*
X105783047Y-83700761D01*
X105735428Y-83748380D01*
X105640190Y-83796000D01*
X105402095Y-83796000D01*
X105306857Y-83748380D01*
X105259238Y-83700761D01*
X105211619Y-83605523D01*
X105211619Y-83319809D01*
X105259238Y-83224571D01*
X105306857Y-83176952D01*
X102719238Y-80883333D02*
X102671619Y-81026190D01*
X102671619Y-81264285D01*
X102719238Y-81359523D01*
X102766857Y-81407142D01*
X102862095Y-81454761D01*
X102957333Y-81454761D01*
X103052571Y-81407142D01*
X103100190Y-81359523D01*
X103147809Y-81264285D01*
X103195428Y-81073809D01*
X103243047Y-80978571D01*
X103290666Y-80930952D01*
X103385904Y-80883333D01*
X103481142Y-80883333D01*
X103576380Y-80930952D01*
X103624000Y-80978571D01*
X103671619Y-81073809D01*
X103671619Y-81311904D01*
X103624000Y-81454761D01*
X102671619Y-81883333D02*
X103671619Y-81883333D01*
X103671619Y-82121428D01*
X103624000Y-82264285D01*
X103528761Y-82359523D01*
X103433523Y-82407142D01*
X103243047Y-82454761D01*
X103100190Y-82454761D01*
X102909714Y-82407142D01*
X102814476Y-82359523D01*
X102719238Y-82264285D01*
X102671619Y-82121428D01*
X102671619Y-81883333D01*
X102671619Y-83359523D02*
X102671619Y-82883333D01*
X103671619Y-82883333D01*
X103671619Y-83597619D02*
X103671619Y-84216666D01*
X103290666Y-83883333D01*
X103290666Y-84026190D01*
X103243047Y-84121428D01*
X103195428Y-84169047D01*
X103100190Y-84216666D01*
X102862095Y-84216666D01*
X102766857Y-84169047D01*
X102719238Y-84121428D01*
X102671619Y-84026190D01*
X102671619Y-83740476D01*
X102719238Y-83645238D01*
X102766857Y-83597619D01*
X100131619Y-80843619D02*
X101131619Y-80843619D01*
X101036380Y-81272190D02*
X101084000Y-81319809D01*
X101131619Y-81415047D01*
X101131619Y-81653142D01*
X101084000Y-81748380D01*
X101036380Y-81796000D01*
X100941142Y-81843619D01*
X100845904Y-81843619D01*
X100703047Y-81796000D01*
X100131619Y-81224571D01*
X100131619Y-81843619D01*
X100226857Y-82843619D02*
X100179238Y-82796000D01*
X100131619Y-82653142D01*
X100131619Y-82557904D01*
X100179238Y-82415047D01*
X100274476Y-82319809D01*
X100369714Y-82272190D01*
X100560190Y-82224571D01*
X100703047Y-82224571D01*
X100893523Y-82272190D01*
X100988761Y-82319809D01*
X101084000Y-82415047D01*
X101131619Y-82557904D01*
X101131619Y-82653142D01*
X101084000Y-82796000D01*
X101036380Y-82843619D01*
X101036380Y-83224571D02*
X101084000Y-83272190D01*
X101131619Y-83367428D01*
X101131619Y-83605523D01*
X101084000Y-83700761D01*
X101036380Y-83748380D01*
X100941142Y-83796000D01*
X100845904Y-83796000D01*
X100703047Y-83748380D01*
X100131619Y-83176952D01*
X100131619Y-83796000D01*
X97893238Y-80883333D02*
X97845619Y-81026190D01*
X97845619Y-81264285D01*
X97893238Y-81359523D01*
X97940857Y-81407142D01*
X98036095Y-81454761D01*
X98131333Y-81454761D01*
X98226571Y-81407142D01*
X98274190Y-81359523D01*
X98321809Y-81264285D01*
X98369428Y-81073809D01*
X98417047Y-80978571D01*
X98464666Y-80930952D01*
X98559904Y-80883333D01*
X98655142Y-80883333D01*
X98750380Y-80930952D01*
X98798000Y-80978571D01*
X98845619Y-81073809D01*
X98845619Y-81311904D01*
X98798000Y-81454761D01*
X97845619Y-81883333D02*
X98845619Y-81883333D01*
X98845619Y-82121428D01*
X98798000Y-82264285D01*
X98702761Y-82359523D01*
X98607523Y-82407142D01*
X98417047Y-82454761D01*
X98274190Y-82454761D01*
X98083714Y-82407142D01*
X97988476Y-82359523D01*
X97893238Y-82264285D01*
X97845619Y-82121428D01*
X97845619Y-81883333D01*
X97845619Y-83359523D02*
X97845619Y-82883333D01*
X98845619Y-82883333D01*
X98750380Y-83645238D02*
X98798000Y-83692857D01*
X98845619Y-83788095D01*
X98845619Y-84026190D01*
X98798000Y-84121428D01*
X98750380Y-84169047D01*
X98655142Y-84216666D01*
X98559904Y-84216666D01*
X98417047Y-84169047D01*
X97845619Y-83597619D01*
X97845619Y-84216666D01*
X95305619Y-80827714D02*
X96305619Y-80827714D01*
X96305619Y-81065809D01*
X96258000Y-81208666D01*
X96162761Y-81303904D01*
X96067523Y-81351523D01*
X95877047Y-81399142D01*
X95734190Y-81399142D01*
X95543714Y-81351523D01*
X95448476Y-81303904D01*
X95353238Y-81208666D01*
X95305619Y-81065809D01*
X95305619Y-80827714D01*
X96210380Y-81780095D02*
X96258000Y-81827714D01*
X96305619Y-81922952D01*
X96305619Y-82161047D01*
X96258000Y-82256285D01*
X96210380Y-82303904D01*
X96115142Y-82351523D01*
X96019904Y-82351523D01*
X95877047Y-82303904D01*
X95305619Y-81732476D01*
X95305619Y-82351523D01*
X96305619Y-83256285D02*
X96305619Y-82780095D01*
X95829428Y-82732476D01*
X95877047Y-82780095D01*
X95924666Y-82875333D01*
X95924666Y-83113428D01*
X95877047Y-83208666D01*
X95829428Y-83256285D01*
X95734190Y-83303904D01*
X95496095Y-83303904D01*
X95400857Y-83256285D01*
X95353238Y-83208666D01*
X95305619Y-83113428D01*
X95305619Y-82875333D01*
X95353238Y-82780095D01*
X95400857Y-82732476D01*
X92511619Y-80827714D02*
X93511619Y-80827714D01*
X93511619Y-81065809D01*
X93464000Y-81208666D01*
X93368761Y-81303904D01*
X93273523Y-81351523D01*
X93083047Y-81399142D01*
X92940190Y-81399142D01*
X92749714Y-81351523D01*
X92654476Y-81303904D01*
X92559238Y-81208666D01*
X92511619Y-81065809D01*
X92511619Y-80827714D01*
X93416380Y-81780095D02*
X93464000Y-81827714D01*
X93511619Y-81922952D01*
X93511619Y-82161047D01*
X93464000Y-82256285D01*
X93416380Y-82303904D01*
X93321142Y-82351523D01*
X93225904Y-82351523D01*
X93083047Y-82303904D01*
X92511619Y-81732476D01*
X92511619Y-82351523D01*
X93178285Y-83208666D02*
X92511619Y-83208666D01*
X93559238Y-82970571D02*
X92844952Y-82732476D01*
X92844952Y-83351523D01*
X90225619Y-80827714D02*
X91225619Y-80827714D01*
X91225619Y-81065809D01*
X91178000Y-81208666D01*
X91082761Y-81303904D01*
X90987523Y-81351523D01*
X90797047Y-81399142D01*
X90654190Y-81399142D01*
X90463714Y-81351523D01*
X90368476Y-81303904D01*
X90273238Y-81208666D01*
X90225619Y-81065809D01*
X90225619Y-80827714D01*
X91130380Y-81780095D02*
X91178000Y-81827714D01*
X91225619Y-81922952D01*
X91225619Y-82161047D01*
X91178000Y-82256285D01*
X91130380Y-82303904D01*
X91035142Y-82351523D01*
X90939904Y-82351523D01*
X90797047Y-82303904D01*
X90225619Y-81732476D01*
X90225619Y-82351523D01*
X91225619Y-82684857D02*
X91225619Y-83303904D01*
X90844666Y-82970571D01*
X90844666Y-83113428D01*
X90797047Y-83208666D01*
X90749428Y-83256285D01*
X90654190Y-83303904D01*
X90416095Y-83303904D01*
X90320857Y-83256285D01*
X90273238Y-83208666D01*
X90225619Y-83113428D01*
X90225619Y-82827714D01*
X90273238Y-82732476D01*
X90320857Y-82684857D01*
X87685619Y-80827714D02*
X88685619Y-80827714D01*
X88685619Y-81065809D01*
X88638000Y-81208666D01*
X88542761Y-81303904D01*
X88447523Y-81351523D01*
X88257047Y-81399142D01*
X88114190Y-81399142D01*
X87923714Y-81351523D01*
X87828476Y-81303904D01*
X87733238Y-81208666D01*
X87685619Y-81065809D01*
X87685619Y-80827714D01*
X88590380Y-81780095D02*
X88638000Y-81827714D01*
X88685619Y-81922952D01*
X88685619Y-82161047D01*
X88638000Y-82256285D01*
X88590380Y-82303904D01*
X88495142Y-82351523D01*
X88399904Y-82351523D01*
X88257047Y-82303904D01*
X87685619Y-81732476D01*
X87685619Y-82351523D01*
X88590380Y-82732476D02*
X88638000Y-82780095D01*
X88685619Y-82875333D01*
X88685619Y-83113428D01*
X88638000Y-83208666D01*
X88590380Y-83256285D01*
X88495142Y-83303904D01*
X88399904Y-83303904D01*
X88257047Y-83256285D01*
X87685619Y-82684857D01*
X87685619Y-83303904D01*
X85145619Y-80827714D02*
X86145619Y-80827714D01*
X86145619Y-81065809D01*
X86098000Y-81208666D01*
X86002761Y-81303904D01*
X85907523Y-81351523D01*
X85717047Y-81399142D01*
X85574190Y-81399142D01*
X85383714Y-81351523D01*
X85288476Y-81303904D01*
X85193238Y-81208666D01*
X85145619Y-81065809D01*
X85145619Y-80827714D01*
X86050380Y-81780095D02*
X86098000Y-81827714D01*
X86145619Y-81922952D01*
X86145619Y-82161047D01*
X86098000Y-82256285D01*
X86050380Y-82303904D01*
X85955142Y-82351523D01*
X85859904Y-82351523D01*
X85717047Y-82303904D01*
X85145619Y-81732476D01*
X85145619Y-82351523D01*
X85145619Y-83303904D02*
X85145619Y-82732476D01*
X85145619Y-83018190D02*
X86145619Y-83018190D01*
X86002761Y-82922952D01*
X85907523Y-82827714D01*
X85859904Y-82732476D01*
X82351619Y-80827714D02*
X83351619Y-80827714D01*
X83351619Y-81065809D01*
X83304000Y-81208666D01*
X83208761Y-81303904D01*
X83113523Y-81351523D01*
X82923047Y-81399142D01*
X82780190Y-81399142D01*
X82589714Y-81351523D01*
X82494476Y-81303904D01*
X82399238Y-81208666D01*
X82351619Y-81065809D01*
X82351619Y-80827714D01*
X83256380Y-81780095D02*
X83304000Y-81827714D01*
X83351619Y-81922952D01*
X83351619Y-82161047D01*
X83304000Y-82256285D01*
X83256380Y-82303904D01*
X83161142Y-82351523D01*
X83065904Y-82351523D01*
X82923047Y-82303904D01*
X82351619Y-81732476D01*
X82351619Y-82351523D01*
X83351619Y-82970571D02*
X83351619Y-83065809D01*
X83304000Y-83161047D01*
X83256380Y-83208666D01*
X83161142Y-83256285D01*
X82970666Y-83303904D01*
X82732571Y-83303904D01*
X82542095Y-83256285D01*
X82446857Y-83208666D01*
X82399238Y-83161047D01*
X82351619Y-83065809D01*
X82351619Y-82970571D01*
X82399238Y-82875333D01*
X82446857Y-82827714D01*
X82542095Y-82780095D01*
X82732571Y-82732476D01*
X82970666Y-82732476D01*
X83161142Y-82780095D01*
X83256380Y-82827714D01*
X83304000Y-82875333D01*
X83351619Y-82970571D01*
X80065619Y-80700714D02*
X81065619Y-80700714D01*
X81065619Y-80938809D01*
X81018000Y-81081666D01*
X80922761Y-81176904D01*
X80827523Y-81224523D01*
X80637047Y-81272142D01*
X80494190Y-81272142D01*
X80303714Y-81224523D01*
X80208476Y-81176904D01*
X80113238Y-81081666D01*
X80065619Y-80938809D01*
X80065619Y-80700714D01*
X80065619Y-82224523D02*
X80065619Y-81653095D01*
X80065619Y-81938809D02*
X81065619Y-81938809D01*
X80922761Y-81843571D01*
X80827523Y-81748333D01*
X80779904Y-81653095D01*
X80065619Y-82700714D02*
X80065619Y-82891190D01*
X80113238Y-82986428D01*
X80160857Y-83034047D01*
X80303714Y-83129285D01*
X80494190Y-83176904D01*
X80875142Y-83176904D01*
X80970380Y-83129285D01*
X81018000Y-83081666D01*
X81065619Y-82986428D01*
X81065619Y-82795952D01*
X81018000Y-82700714D01*
X80970380Y-82653095D01*
X80875142Y-82605476D01*
X80637047Y-82605476D01*
X80541809Y-82653095D01*
X80494190Y-82700714D01*
X80446571Y-82795952D01*
X80446571Y-82986428D01*
X80494190Y-83081666D01*
X80541809Y-83129285D01*
X80637047Y-83176904D01*
X77525619Y-80700714D02*
X78525619Y-80700714D01*
X78525619Y-80938809D01*
X78478000Y-81081666D01*
X78382761Y-81176904D01*
X78287523Y-81224523D01*
X78097047Y-81272142D01*
X77954190Y-81272142D01*
X77763714Y-81224523D01*
X77668476Y-81176904D01*
X77573238Y-81081666D01*
X77525619Y-80938809D01*
X77525619Y-80700714D01*
X77525619Y-82224523D02*
X77525619Y-81653095D01*
X77525619Y-81938809D02*
X78525619Y-81938809D01*
X78382761Y-81843571D01*
X78287523Y-81748333D01*
X78239904Y-81653095D01*
X78097047Y-82795952D02*
X78144666Y-82700714D01*
X78192285Y-82653095D01*
X78287523Y-82605476D01*
X78335142Y-82605476D01*
X78430380Y-82653095D01*
X78478000Y-82700714D01*
X78525619Y-82795952D01*
X78525619Y-82986428D01*
X78478000Y-83081666D01*
X78430380Y-83129285D01*
X78335142Y-83176904D01*
X78287523Y-83176904D01*
X78192285Y-83129285D01*
X78144666Y-83081666D01*
X78097047Y-82986428D01*
X78097047Y-82795952D01*
X78049428Y-82700714D01*
X78001809Y-82653095D01*
X77906571Y-82605476D01*
X77716095Y-82605476D01*
X77620857Y-82653095D01*
X77573238Y-82700714D01*
X77525619Y-82795952D01*
X77525619Y-82986428D01*
X77573238Y-83081666D01*
X77620857Y-83129285D01*
X77716095Y-83176904D01*
X77906571Y-83176904D01*
X78001809Y-83129285D01*
X78049428Y-83081666D01*
X78097047Y-82986428D01*
X74985619Y-80700714D02*
X75985619Y-80700714D01*
X75985619Y-80938809D01*
X75938000Y-81081666D01*
X75842761Y-81176904D01*
X75747523Y-81224523D01*
X75557047Y-81272142D01*
X75414190Y-81272142D01*
X75223714Y-81224523D01*
X75128476Y-81176904D01*
X75033238Y-81081666D01*
X74985619Y-80938809D01*
X74985619Y-80700714D01*
X74985619Y-82224523D02*
X74985619Y-81653095D01*
X74985619Y-81938809D02*
X75985619Y-81938809D01*
X75842761Y-81843571D01*
X75747523Y-81748333D01*
X75699904Y-81653095D01*
X75985619Y-82557857D02*
X75985619Y-83224523D01*
X74985619Y-82795952D01*
X72445619Y-80700714D02*
X73445619Y-80700714D01*
X73445619Y-80938809D01*
X73398000Y-81081666D01*
X73302761Y-81176904D01*
X73207523Y-81224523D01*
X73017047Y-81272142D01*
X72874190Y-81272142D01*
X72683714Y-81224523D01*
X72588476Y-81176904D01*
X72493238Y-81081666D01*
X72445619Y-80938809D01*
X72445619Y-80700714D01*
X72445619Y-82224523D02*
X72445619Y-81653095D01*
X72445619Y-81938809D02*
X73445619Y-81938809D01*
X73302761Y-81843571D01*
X73207523Y-81748333D01*
X73159904Y-81653095D01*
X73445619Y-83081666D02*
X73445619Y-82891190D01*
X73398000Y-82795952D01*
X73350380Y-82748333D01*
X73207523Y-82653095D01*
X73017047Y-82605476D01*
X72636095Y-82605476D01*
X72540857Y-82653095D01*
X72493238Y-82700714D01*
X72445619Y-82795952D01*
X72445619Y-82986428D01*
X72493238Y-83081666D01*
X72540857Y-83129285D01*
X72636095Y-83176904D01*
X72874190Y-83176904D01*
X72969428Y-83129285D01*
X73017047Y-83081666D01*
X73064666Y-82986428D01*
X73064666Y-82795952D01*
X73017047Y-82700714D01*
X72969428Y-82653095D01*
X72874190Y-82605476D01*
D11*
X71470000Y-79940000D02*
X71470000Y-78610000D01*
X72800000Y-79940000D02*
X71470000Y-79940000D01*
X74070000Y-79940000D02*
X74070000Y-77280000D01*
X74070000Y-77280000D02*
X127470000Y-77280000D01*
X74070000Y-79940000D02*
X127470000Y-79940000D01*
X127470000Y-79940000D02*
X127470000Y-77280000D01*
X127470000Y-112960000D02*
X127470000Y-110300000D01*
X74070000Y-112960000D02*
X127470000Y-112960000D01*
X74070000Y-110300000D02*
X127470000Y-110300000D01*
X74070000Y-112960000D02*
X74070000Y-110300000D01*
X72800000Y-112960000D02*
X71470000Y-112960000D01*
X71470000Y-112960000D02*
X71470000Y-111630000D01*
D12*
X72000000Y-110830000D02*
X72000000Y-112430000D01*
X73600000Y-112430000D01*
X73600000Y-110830000D01*
X72000000Y-110830000D01*
D10*
X70905619Y-78406666D02*
X70191333Y-78406666D01*
X70048476Y-78359047D01*
X69953238Y-78263809D01*
X69905619Y-78120952D01*
X69905619Y-78025714D01*
X70810380Y-78835238D02*
X70858000Y-78882857D01*
X70905619Y-78978095D01*
X70905619Y-79216190D01*
X70858000Y-79311428D01*
X70810380Y-79359047D01*
X70715142Y-79406666D01*
X70619904Y-79406666D01*
X70477047Y-79359047D01*
X69905619Y-78787619D01*
X69905619Y-79406666D01*
X70905619Y-111426666D02*
X70191333Y-111426666D01*
X70048476Y-111379047D01*
X69953238Y-111283809D01*
X69905619Y-111140952D01*
X69905619Y-111045714D01*
X69905619Y-112426666D02*
X69905619Y-111855238D01*
X69905619Y-112140952D02*
X70905619Y-112140952D01*
X70762761Y-112045714D01*
X70667523Y-111950476D01*
X70619904Y-111855238D01*
M02*
