M48
; DRILL file {KiCad 5.1.4-e60b266~84~ubuntu18.04.1} date 2019-09-22T16:19:25 CEST
; FORMAT={3:3/ absolute / metric / suppress leading zeros}
; #@! TF.CreationDate,2019-09-22T16:19:25+02:00
; #@! TF.GenerationSoftware,Kicad,Pcbnew,5.1.4-e60b266~84~ubuntu18.04.1
FMAT,2
METRIC,TZ
T1C1.000
T2C0.800
T3C1.200
%
G90
G05
T1
X72800Y-111630
X75340Y-111630
X77880Y-111630
X80420Y-111630
X82960Y-111630
X85500Y-111630
X88040Y-111630
X90580Y-111630
X93120Y-111630
X95660Y-111630
X98200Y-111630
X100740Y-111630
X103280Y-111630
X105820Y-111630
X108360Y-111630
X110900Y-111630
X113440Y-111630
X115980Y-111630
X118520Y-111630
X121060Y-111630
X123600Y-111630
X126140Y-111630
X72800Y-78610
X75340Y-78610
X77880Y-78610
X80420Y-78610
X82960Y-78610
X85500Y-78610
X88040Y-78610
X90580Y-78610
X93120Y-78610
X95660Y-78610
X98200Y-78610
X100740Y-78610
X103280Y-78610
X105820Y-78610
X108360Y-78610
X110900Y-78610
X113440Y-78610
X115980Y-78610
X118520Y-78610
X121060Y-78610
X123600Y-78610
X126140Y-78610
T2
X84042Y-94653
T3
X112242Y-94653
T0
M30
