G04 #@! TF.GenerationSoftware,KiCad,Pcbnew,5.1.4-e60b266~84~ubuntu18.04.1*
G04 #@! TF.CreationDate,2019-09-22T16:17:36+02:00*
G04 #@! TF.ProjectId,Mezz2,4d657a7a-322e-46b6-9963-61645f706362,2*
G04 #@! TF.SameCoordinates,Original*
G04 #@! TF.FileFunction,Copper,L1,Top*
G04 #@! TF.FilePolarity,Positive*
%FSLAX46Y46*%
G04 Gerber Fmt 4.6, Leading zero omitted, Abs format (unit mm)*
G04 Created by KiCad (PCBNEW 5.1.4-e60b266~84~ubuntu18.04.1) date 2019-09-22 16:17:36*
%MOMM*%
%LPD*%
G04 APERTURE LIST*
%ADD10O,1.700000X1.700000*%
%ADD11R,1.700000X1.700000*%
G04 APERTURE END LIST*
D10*
X126140000Y-78610000D03*
X123600000Y-78610000D03*
X121060000Y-78610000D03*
X118520000Y-78610000D03*
X115980000Y-78610000D03*
X113440000Y-78610000D03*
X110900000Y-78610000D03*
X108360000Y-78610000D03*
X105820000Y-78610000D03*
X103280000Y-78610000D03*
X100740000Y-78610000D03*
X98200000Y-78610000D03*
X95660000Y-78610000D03*
X93120000Y-78610000D03*
X90580000Y-78610000D03*
X88040000Y-78610000D03*
X85500000Y-78610000D03*
X82960000Y-78610000D03*
X80420000Y-78610000D03*
X77880000Y-78610000D03*
X75340000Y-78610000D03*
D11*
X72800000Y-78610000D03*
X72800000Y-111630000D03*
D10*
X75340000Y-111630000D03*
X77880000Y-111630000D03*
X80420000Y-111630000D03*
X82960000Y-111630000D03*
X85500000Y-111630000D03*
X88040000Y-111630000D03*
X90580000Y-111630000D03*
X93120000Y-111630000D03*
X95660000Y-111630000D03*
X98200000Y-111630000D03*
X100740000Y-111630000D03*
X103280000Y-111630000D03*
X105820000Y-111630000D03*
X108360000Y-111630000D03*
X110900000Y-111630000D03*
X113440000Y-111630000D03*
X115980000Y-111630000D03*
X118520000Y-111630000D03*
X121060000Y-111630000D03*
X123600000Y-111630000D03*
X126140000Y-111630000D03*
M02*
