  0
SECTION
  2
HEADER
  9
$ANGBASE
  50
0.0
  9
$ANGDIR
  70
  1
  9
$MEASUREMENT
  70
0
  0
ENDSEC
  0
SECTION
  2
TABLES
  0
TABLE
  2
LTYPE
  70
4
  0
LTYPE
  5
40F
  2
CONTINUOUS
  70
0
  3
Solid line
  72
65
  73
0
  40
0.0
  0
LTYPE
  5
410
  2
DASHDOT
 70
0
  3
Dash Dot ____ _ ____ _
 72
65
 73
4
 40
2.0
 49
1.25
 49
-0.25
 49
0.25
 49
-0.25
  0
LTYPE
  5
411
  2
DASHED
 70
0
  3
Dashed __ __ __ __ __
 72
65
 73
2
 40
0.75
 49
0.5
 49
-0.25
  0
LTYPE
  5
43B
  2
DOTTED
 70
0
  3
Dotted .  .  .  .
 72
65
 73
2
 40
0.2
 49
0.0
 49
-0.2
  0
ENDTAB
  0
TABLE
  2
STYLE
  70
4
  0
STYLE
  2
KICAD
  70
0
  40
0
  41
1
  42
1
  50
0
  71
0
  3
isocp.shx
  0
STYLE
  2
KICADB
  70
0
  40
0
  41
1
  42
1
  50
0
  71
0
  3
isocp.shx
  0
STYLE
  2
KICADI
  70
0
  40
0
  41
1
  42
1
  50
15
  71
0
  3
isocp.shx
  0
STYLE
  2
KICADBI
  70
0
  40
0
  41
1
  42
1
  50
15
  71
0
  3
isocp.shx
  0
ENDTAB
  0
TABLE
  2
LAYER
  70
30
  0
LAYER
  2
BLACK
  70
0
  62
7
  6
CONTINUOUS
  0
LAYER
  2
GRAY1
  70
0
  62
251
  6
CONTINUOUS
  0
LAYER
  2
GRAY2
  70
0
  62
8
  6
CONTINUOUS
  0
LAYER
  2
GRAY3
  70
0
  62
9
  6
CONTINUOUS
  0
LAYER
  2
WHITE
  70
0
  62
7
  6
CONTINUOUS
  0
LAYER
  2
LYELLOW
  70
0
  62
51
  6
CONTINUOUS
  0
LAYER
  2
BLUE1
  70
0
  62
178
  6
CONTINUOUS
  0
LAYER
  2
GREEN1
  70
0
  62
98
  6
CONTINUOUS
  0
LAYER
  2
CYAN1
  70
0
  62
138
  6
CONTINUOUS
  0
LAYER
  2
RED1
  70
0
  62
18
  6
CONTINUOUS
  0
LAYER
  2
MAGENTA1
  70
0
  62
228
  6
CONTINUOUS
  0
LAYER
  2
BROWN1
  70
0
  62
58
  6
CONTINUOUS
  0
LAYER
  2
BLUE2
  70
0
  62
5
  6
CONTINUOUS
  0
LAYER
  2
GREEN2
  70
0
  62
3
  6
CONTINUOUS
  0
LAYER
  2
CYAN2
  70
0
  62
4
  6
CONTINUOUS
  0
LAYER
  2
RED2
  70
0
  62
1
  6
CONTINUOUS
  0
LAYER
  2
MAGENTA2
  70
0
  62
6
  6
CONTINUOUS
  0
LAYER
  2
BROWN2
  70
0
  62
54
  6
CONTINUOUS
  0
LAYER
  2
BLUE3
  70
0
  62
171
  6
CONTINUOUS
  0
LAYER
  2
GREEN3
  70
0
  62
91
  6
CONTINUOUS
  0
LAYER
  2
CYAN3
  70
0
  62
131
  6
CONTINUOUS
  0
LAYER
  2
RED3
  70
0
  62
11
  6
CONTINUOUS
  0
LAYER
  2
MAGENTA3
  70
0
  62
221
  6
CONTINUOUS
  0
LAYER
  2
YELLOW3
  70
0
  62
2
  6
CONTINUOUS
  0
LAYER
  2
BLUE4
  70
0
  62
5
  6
CONTINUOUS
  0
LAYER
  2
GREEN4
  70
0
  62
3
  6
CONTINUOUS
  0
LAYER
  2
CYAN4
  70
0
  62
4
  6
CONTINUOUS
  0
LAYER
  2
RED4
  70
0
  62
1
  6
CONTINUOUS
  0
LAYER
  2
MAGENTA4
  70
0
  62
6
  6
CONTINUOUS
  0
LAYER
  2
YELLOW4
  70
0
  62
2
  6
CONTINUOUS
  0
ENDTAB
  0
ENDSEC
  0
SECTION
  2
ENTITIES
0
LINE
8
BLACK
6
CONTINUOUS
10
129.282
20
-123.384
11
129.293
21
-123.387
0
LINE
8
BLACK
6
CONTINUOUS
10
129.293
20
-123.387
11
129.303
21
-123.393
0
LINE
8
BLACK
6
CONTINUOUS
10
129.303
20
-123.393
11
129.313
21
-123.4
0
LINE
8
BLACK
6
CONTINUOUS
10
129.313
20
-123.4
11
129.32
21
-123.409
0
LINE
8
BLACK
6
CONTINUOUS
10
129.32
20
-123.409
11
129.326
21
-123.42
0
LINE
8
BLACK
6
CONTINUOUS
10
129.326
20
-123.42
11
129.329
21
-123.431
0
LINE
8
BLACK
6
CONTINUOUS
10
129.329
20
-123.431
11
129.33
21
-123.44
0
LINE
8
BLACK
6
CONTINUOUS
10
129.33
20
-123.44
11
129.33
21
-123.78
0
LINE
8
BLACK
6
CONTINUOUS
10
129.33
20
-123.78
11
130.157
21
-123.78
0
LINE
8
BLACK
6
CONTINUOUS
10
130.157
20
-123.78
11
130.16
21
-123.78
0
LINE
8
BLACK
6
CONTINUOUS
10
130.16
20
-123.78
11
130.163
21
-123.78
0
LINE
8
BLACK
6
CONTINUOUS
10
130.163
20
-123.78
11
130.99
21
-123.78
0
LINE
8
BLACK
6
CONTINUOUS
10
130.99
20
-123.78
11
130.99
21
-123.507
0
LINE
8
BLACK
6
CONTINUOUS
10
130.99
20
-123.507
11
130.991
21
-123.498
0
LINE
8
BLACK
6
CONTINUOUS
10
130.991
20
-123.498
11
130.994
21
-123.487
0
LINE
8
BLACK
6
CONTINUOUS
10
130.994
20
-123.487
11
131
21
-123.477
0
LINE
8
BLACK
6
CONTINUOUS
10
131
20
-123.477
11
131.007
21
-123.467
0
LINE
8
BLACK
6
CONTINUOUS
10
131.007
20
-123.467
11
131.017
21
-123.46
0
LINE
8
BLACK
6
CONTINUOUS
10
131.017
20
-123.46
11
131.027
21
-123.454
0
LINE
8
BLACK
6
CONTINUOUS
10
131.027
20
-123.454
11
131.038
21
-123.451
0
LINE
8
BLACK
6
CONTINUOUS
10
131.038
20
-123.451
11
131.05
21
-123.45
0
LINE
8
BLACK
6
CONTINUOUS
10
131.05
20
-123.45
11
131.062
21
-123.451
0
LINE
8
BLACK
6
CONTINUOUS
10
131.062
20
-123.451
11
131.073
21
-123.454
0
LINE
8
BLACK
6
CONTINUOUS
10
131.073
20
-123.454
11
131.083
21
-123.46
0
LINE
8
BLACK
6
CONTINUOUS
10
131.083
20
-123.46
11
131.093
21
-123.467
0
LINE
8
BLACK
6
CONTINUOUS
10
131.093
20
-123.467
11
131.1
21
-123.477
0
LINE
8
BLACK
6
CONTINUOUS
10
131.1
20
-123.477
11
131.106
21
-123.487
0
LINE
8
BLACK
6
CONTINUOUS
10
131.106
20
-123.487
11
131.109
21
-123.498
0
LINE
8
BLACK
6
CONTINUOUS
10
131.109
20
-123.498
11
131.11
21
-123.507
0
LINE
8
BLACK
6
CONTINUOUS
10
131.11
20
-123.507
11
131.11
21
-123.78
0
LINE
8
BLACK
6
CONTINUOUS
10
131.11
20
-123.78
11
131.75
21
-123.78
0
LINE
8
BLACK
6
CONTINUOUS
10
131.75
20
-123.78
11
131.75
21
-123.507
0
LINE
8
BLACK
6
CONTINUOUS
10
131.75
20
-123.507
11
131.751
21
-123.498
0
LINE
8
BLACK
6
CONTINUOUS
10
131.751
20
-123.498
11
131.754
21
-123.487
0
LINE
8
BLACK
6
CONTINUOUS
10
131.754
20
-123.487
11
131.76
21
-123.477
0
LINE
8
BLACK
6
CONTINUOUS
10
131.76
20
-123.477
11
131.767
21
-123.467
0
LINE
8
BLACK
6
CONTINUOUS
10
131.767
20
-123.467
11
131.777
21
-123.46
0
LINE
8
BLACK
6
CONTINUOUS
10
131.777
20
-123.46
11
131.787
21
-123.454
0
LINE
8
BLACK
6
CONTINUOUS
10
131.787
20
-123.454
11
131.798
21
-123.451
0
LINE
8
BLACK
6
CONTINUOUS
10
131.798
20
-123.451
11
131.81
21
-123.45
0
LINE
8
BLACK
6
CONTINUOUS
10
131.81
20
-123.45
11
131.822
21
-123.451
0
LINE
8
BLACK
6
CONTINUOUS
10
131.822
20
-123.451
11
131.833
21
-123.454
0
LINE
8
BLACK
6
CONTINUOUS
10
131.833
20
-123.454
11
131.843
21
-123.46
0
LINE
8
BLACK
6
CONTINUOUS
10
131.843
20
-123.46
11
131.853
21
-123.467
0
LINE
8
BLACK
6
CONTINUOUS
10
131.853
20
-123.467
11
131.86
21
-123.477
0
LINE
8
BLACK
6
CONTINUOUS
10
131.86
20
-123.477
11
131.866
21
-123.487
0
LINE
8
BLACK
6
CONTINUOUS
10
131.866
20
-123.487
11
131.869
21
-123.498
0
LINE
8
BLACK
6
CONTINUOUS
10
131.869
20
-123.498
11
131.87
21
-123.507
0
LINE
8
BLACK
6
CONTINUOUS
10
131.87
20
-123.507
11
131.87
21
-123.78
0
LINE
8
BLACK
6
CONTINUOUS
10
131.87
20
-123.78
11
132.757
21
-123.78
0
LINE
8
BLACK
6
CONTINUOUS
10
132.757
20
-123.78
11
132.76
21
-123.78
0
LINE
8
BLACK
6
CONTINUOUS
10
132.76
20
-123.78
11
132.763
21
-123.78
0
LINE
8
BLACK
6
CONTINUOUS
10
132.763
20
-123.78
11
132.772
21
-123.781
0
LINE
8
BLACK
6
CONTINUOUS
10
132.772
20
-123.781
11
132.783
21
-123.784
0
LINE
8
BLACK
6
CONTINUOUS
10
132.783
20
-123.784
11
132.793
21
-123.79
0
LINE
8
BLACK
6
CONTINUOUS
10
132.793
20
-123.79
11
132.803
21
-123.797
0
LINE
8
BLACK
6
CONTINUOUS
10
132.803
20
-123.797
11
132.81
21
-123.807
0
LINE
8
BLACK
6
CONTINUOUS
10
132.81
20
-123.807
11
132.816
21
-123.817
0
LINE
8
BLACK
6
CONTINUOUS
10
132.816
20
-123.817
11
132.819
21
-123.828
0
LINE
8
BLACK
6
CONTINUOUS
10
132.819
20
-123.828
11
132.82
21
-123.84
0
LINE
8
BLACK
6
CONTINUOUS
10
132.82
20
-123.84
11
132.82
21
-123.843
0
LINE
8
BLACK
6
CONTINUOUS
10
132.82
20
-123.843
11
132.82
21
-126.497
0
LINE
8
BLACK
6
CONTINUOUS
10
132.82
20
-126.497
11
132.82
21
-126.5
0
LINE
8
BLACK
6
CONTINUOUS
10
132.82
20
-126.5
11
132.819
21
-126.512
0
LINE
8
BLACK
6
CONTINUOUS
10
132.819
20
-126.512
11
132.816
21
-126.523
0
LINE
8
BLACK
6
CONTINUOUS
10
132.816
20
-126.523
11
132.81
21
-126.533
0
LINE
8
BLACK
6
CONTINUOUS
10
132.81
20
-126.533
11
132.803
21
-126.543
0
LINE
8
BLACK
6
CONTINUOUS
10
132.803
20
-126.543
11
132.793
21
-126.55
0
LINE
8
BLACK
6
CONTINUOUS
10
132.793
20
-126.55
11
132.783
21
-126.556
0
LINE
8
BLACK
6
CONTINUOUS
10
132.783
20
-126.556
11
132.772
21
-126.559
0
LINE
8
BLACK
6
CONTINUOUS
10
132.772
20
-126.559
11
132.763
21
-126.56
0
LINE
8
BLACK
6
CONTINUOUS
10
132.763
20
-126.56
11
132.763
21
-126.56
0
LINE
8
BLACK
6
CONTINUOUS
10
132.763
20
-126.56
11
132.76
21
-126.56
0
LINE
8
BLACK
6
CONTINUOUS
10
132.76
20
-126.56
11
132.757
21
-126.56
0
LINE
8
BLACK
6
CONTINUOUS
10
132.757
20
-126.56
11
131.87
21
-126.56
0
LINE
8
BLACK
6
CONTINUOUS
10
131.87
20
-126.56
11
131.87
21
-132.497
0
LINE
8
BLACK
6
CONTINUOUS
10
131.87
20
-132.497
11
131.87
21
-132.5
0
LINE
8
BLACK
6
CONTINUOUS
10
131.87
20
-132.5
11
131.87
21
-132.503
0
LINE
8
BLACK
6
CONTINUOUS
10
131.87
20
-132.503
11
131.87
21
-132.503
0
LINE
8
BLACK
6
CONTINUOUS
10
131.87
20
-132.503
11
131.869
21
-132.512
0
LINE
8
BLACK
6
CONTINUOUS
10
131.869
20
-132.512
11
131.866
21
-132.523
0
LINE
8
BLACK
6
CONTINUOUS
10
131.866
20
-132.523
11
131.86
21
-132.533
0
LINE
8
BLACK
6
CONTINUOUS
10
131.86
20
-132.533
11
131.853
21
-132.543
0
LINE
8
BLACK
6
CONTINUOUS
10
131.853
20
-132.543
11
131.843
21
-132.55
0
LINE
8
BLACK
6
CONTINUOUS
10
131.843
20
-132.55
11
131.833
21
-132.556
0
LINE
8
BLACK
6
CONTINUOUS
10
131.833
20
-132.556
11
131.822
21
-132.559
0
LINE
8
BLACK
6
CONTINUOUS
10
131.822
20
-132.559
11
131.81
21
-132.56
0
LINE
8
BLACK
6
CONTINUOUS
10
131.81
20
-132.56
11
131.807
21
-132.56
0
LINE
8
BLACK
6
CONTINUOUS
10
131.807
20
-132.56
11
131.753
21
-132.56
0
LINE
8
BLACK
6
CONTINUOUS
10
131.753
20
-132.56
11
131.75
21
-132.56
0
LINE
8
BLACK
6
CONTINUOUS
10
131.75
20
-132.56
11
131.747
21
-132.56
0
LINE
8
BLACK
6
CONTINUOUS
10
131.747
20
-132.56
11
131.633
21
-132.56
0
LINE
8
BLACK
6
CONTINUOUS
10
131.633
20
-132.56
11
131.63
21
-132.56
0
LINE
8
BLACK
6
CONTINUOUS
10
131.63
20
-132.56
11
131.627
21
-132.56
0
LINE
8
BLACK
6
CONTINUOUS
10
131.627
20
-132.56
11
131.513
21
-132.56
0
LINE
8
BLACK
6
CONTINUOUS
10
131.513
20
-132.56
11
131.51
21
-132.56
0
LINE
8
BLACK
6
CONTINUOUS
10
131.51
20
-132.56
11
131.507
21
-132.56
0
LINE
8
BLACK
6
CONTINUOUS
10
131.507
20
-132.56
11
131.393
21
-132.56
0
LINE
8
BLACK
6
CONTINUOUS
10
131.393
20
-132.56
11
131.39
21
-132.56
0
LINE
8
BLACK
6
CONTINUOUS
10
131.39
20
-132.56
11
131.387
21
-132.56
0
LINE
8
BLACK
6
CONTINUOUS
10
131.387
20
-132.56
11
131.273
21
-132.56
0
LINE
8
BLACK
6
CONTINUOUS
10
131.273
20
-132.56
11
131.27
21
-132.56
0
LINE
8
BLACK
6
CONTINUOUS
10
131.27
20
-132.56
11
131.267
21
-132.56
0
LINE
8
BLACK
6
CONTINUOUS
10
131.267
20
-132.56
11
131.153
21
-132.56
0
LINE
8
BLACK
6
CONTINUOUS
10
131.153
20
-132.56
11
131.15
21
-132.56
0
LINE
8
BLACK
6
CONTINUOUS
10
131.15
20
-132.56
11
131.147
21
-132.56
0
LINE
8
BLACK
6
CONTINUOUS
10
131.147
20
-132.56
11
131.053
21
-132.56
0
LINE
8
BLACK
6
CONTINUOUS
10
131.053
20
-132.56
11
131.05
21
-132.56
0
LINE
8
BLACK
6
CONTINUOUS
10
131.05
20
-132.56
11
131.038
21
-132.559
0
LINE
8
BLACK
6
CONTINUOUS
10
131.038
20
-132.559
11
131.027
21
-132.556
0
LINE
8
BLACK
6
CONTINUOUS
10
131.027
20
-132.556
11
131.017
21
-132.55
0
LINE
8
BLACK
6
CONTINUOUS
10
131.017
20
-132.55
11
131.007
21
-132.543
0
LINE
8
BLACK
6
CONTINUOUS
10
131.007
20
-132.543
11
131
21
-132.533
0
LINE
8
BLACK
6
CONTINUOUS
10
131
20
-132.533
11
130.994
21
-132.523
0
LINE
8
BLACK
6
CONTINUOUS
10
130.994
20
-132.523
11
130.991
21
-132.512
0
LINE
8
BLACK
6
CONTINUOUS
10
130.991
20
-132.512
11
130.99
21
-132.5
0
LINE
8
BLACK
6
CONTINUOUS
10
130.99
20
-132.5
11
130.99
21
-132.497
0
LINE
8
BLACK
6
CONTINUOUS
10
130.99
20
-132.497
11
130.99
21
-126.56
0
LINE
8
BLACK
6
CONTINUOUS
10
130.99
20
-126.56
11
130.163
21
-126.56
0
LINE
8
BLACK
6
CONTINUOUS
10
130.163
20
-126.56
11
130.16
21
-126.56
0
LINE
8
BLACK
6
CONTINUOUS
10
130.16
20
-126.56
11
130.157
21
-126.56
0
LINE
8
BLACK
6
CONTINUOUS
10
130.157
20
-126.56
11
129.33
21
-126.56
0
LINE
8
BLACK
6
CONTINUOUS
10
129.33
20
-126.56
11
129.33
21
-132.497
0
LINE
8
BLACK
6
CONTINUOUS
10
129.33
20
-132.497
11
129.33
21
-132.5
0
LINE
8
BLACK
6
CONTINUOUS
10
129.33
20
-132.5
11
129.33
21
-132.503
0
LINE
8
BLACK
6
CONTINUOUS
10
129.33
20
-132.503
11
129.33
21
-132.503
0
LINE
8
BLACK
6
CONTINUOUS
10
129.33
20
-132.503
11
129.329
21
-132.512
0
LINE
8
BLACK
6
CONTINUOUS
10
129.329
20
-132.512
11
129.326
21
-132.523
0
LINE
8
BLACK
6
CONTINUOUS
10
129.326
20
-132.523
11
129.32
21
-132.533
0
LINE
8
BLACK
6
CONTINUOUS
10
129.32
20
-132.533
11
129.313
21
-132.543
0
LINE
8
BLACK
6
CONTINUOUS
10
129.313
20
-132.543
11
129.303
21
-132.55
0
LINE
8
BLACK
6
CONTINUOUS
10
129.303
20
-132.55
11
129.293
21
-132.556
0
LINE
8
BLACK
6
CONTINUOUS
10
129.293
20
-132.556
11
129.282
21
-132.559
0
LINE
8
BLACK
6
CONTINUOUS
10
129.282
20
-132.559
11
129.27
21
-132.56
0
LINE
8
BLACK
6
CONTINUOUS
10
129.27
20
-132.56
11
129.267
21
-132.56
0
LINE
8
BLACK
6
CONTINUOUS
10
129.267
20
-132.56
11
128.513
21
-132.56
0
LINE
8
BLACK
6
CONTINUOUS
10
128.513
20
-132.56
11
128.51
21
-132.56
0
LINE
8
BLACK
6
CONTINUOUS
10
128.51
20
-132.56
11
128.498
21
-132.559
0
LINE
8
BLACK
6
CONTINUOUS
10
128.498
20
-132.559
11
128.487
21
-132.556
0
LINE
8
BLACK
6
CONTINUOUS
10
128.487
20
-132.556
11
128.477
21
-132.55
0
LINE
8
BLACK
6
CONTINUOUS
10
128.477
20
-132.55
11
128.467
21
-132.543
0
LINE
8
BLACK
6
CONTINUOUS
10
128.467
20
-132.543
11
128.46
21
-132.533
0
LINE
8
BLACK
6
CONTINUOUS
10
128.46
20
-132.533
11
128.454
21
-132.523
0
LINE
8
BLACK
6
CONTINUOUS
10
128.454
20
-132.523
11
128.451
21
-132.512
0
LINE
8
BLACK
6
CONTINUOUS
10
128.451
20
-132.512
11
128.45
21
-132.5
0
LINE
8
BLACK
6
CONTINUOUS
10
128.45
20
-132.5
11
128.45
21
-132.497
0
LINE
8
BLACK
6
CONTINUOUS
10
128.45
20
-132.497
11
128.45
21
-126.56
0
LINE
8
BLACK
6
CONTINUOUS
10
128.45
20
-126.56
11
127.623
21
-126.56
0
LINE
8
BLACK
6
CONTINUOUS
10
127.623
20
-126.56
11
127.62
21
-126.56
0
LINE
8
BLACK
6
CONTINUOUS
10
127.62
20
-126.56
11
127.617
21
-126.56
0
LINE
8
BLACK
6
CONTINUOUS
10
127.617
20
-126.56
11
126.79
21
-126.56
0
LINE
8
BLACK
6
CONTINUOUS
10
126.79
20
-126.56
11
126.79
21
-132.497
0
LINE
8
BLACK
6
CONTINUOUS
10
126.79
20
-132.497
11
126.79
21
-132.5
0
LINE
8
BLACK
6
CONTINUOUS
10
126.79
20
-132.5
11
126.79
21
-132.503
0
LINE
8
BLACK
6
CONTINUOUS
10
126.79
20
-132.503
11
126.79
21
-132.503
0
LINE
8
BLACK
6
CONTINUOUS
10
126.79
20
-132.503
11
126.789
21
-132.512
0
LINE
8
BLACK
6
CONTINUOUS
10
126.789
20
-132.512
11
126.786
21
-132.523
0
LINE
8
BLACK
6
CONTINUOUS
10
126.786
20
-132.523
11
126.78
21
-132.533
0
LINE
8
BLACK
6
CONTINUOUS
10
126.78
20
-132.533
11
126.773
21
-132.543
0
LINE
8
BLACK
6
CONTINUOUS
10
126.773
20
-132.543
11
126.763
21
-132.55
0
LINE
8
BLACK
6
CONTINUOUS
10
126.763
20
-132.55
11
126.753
21
-132.556
0
LINE
8
BLACK
6
CONTINUOUS
10
126.753
20
-132.556
11
126.742
21
-132.559
0
LINE
8
BLACK
6
CONTINUOUS
10
126.742
20
-132.559
11
126.73
21
-132.56
0
LINE
8
BLACK
6
CONTINUOUS
10
126.73
20
-132.56
11
126.727
21
-132.56
0
LINE
8
BLACK
6
CONTINUOUS
10
126.727
20
-132.56
11
125.973
21
-132.56
0
LINE
8
BLACK
6
CONTINUOUS
10
125.973
20
-132.56
11
125.97
21
-132.56
0
LINE
8
BLACK
6
CONTINUOUS
10
125.97
20
-132.56
11
125.958
21
-132.559
0
LINE
8
BLACK
6
CONTINUOUS
10
125.958
20
-132.559
11
125.947
21
-132.556
0
LINE
8
BLACK
6
CONTINUOUS
10
125.947
20
-132.556
11
125.937
21
-132.55
0
LINE
8
BLACK
6
CONTINUOUS
10
125.937
20
-132.55
11
125.927
21
-132.543
0
LINE
8
BLACK
6
CONTINUOUS
10
125.927
20
-132.543
11
125.92
21
-132.533
0
LINE
8
BLACK
6
CONTINUOUS
10
125.92
20
-132.533
11
125.914
21
-132.523
0
LINE
8
BLACK
6
CONTINUOUS
10
125.914
20
-132.523
11
125.911
21
-132.512
0
LINE
8
BLACK
6
CONTINUOUS
10
125.911
20
-132.512
11
125.91
21
-132.5
0
LINE
8
BLACK
6
CONTINUOUS
10
125.91
20
-132.5
11
125.91
21
-132.497
0
LINE
8
BLACK
6
CONTINUOUS
10
125.91
20
-132.497
11
125.91
21
-126.56
0
LINE
8
BLACK
6
CONTINUOUS
10
125.91
20
-126.56
11
125.083
21
-126.56
0
LINE
8
BLACK
6
CONTINUOUS
10
125.083
20
-126.56
11
125.08
21
-126.56
0
LINE
8
BLACK
6
CONTINUOUS
10
125.08
20
-126.56
11
125.077
21
-126.56
0
LINE
8
BLACK
6
CONTINUOUS
10
125.077
20
-126.56
11
124.25
21
-126.56
0
LINE
8
BLACK
6
CONTINUOUS
10
124.25
20
-126.56
11
124.25
21
-132.497
0
LINE
8
BLACK
6
CONTINUOUS
10
124.25
20
-132.497
11
124.25
21
-132.5
0
LINE
8
BLACK
6
CONTINUOUS
10
124.25
20
-132.5
11
124.25
21
-132.503
0
LINE
8
BLACK
6
CONTINUOUS
10
124.25
20
-132.503
11
124.25
21
-132.503
0
LINE
8
BLACK
6
CONTINUOUS
10
124.25
20
-132.503
11
124.249
21
-132.512
0
LINE
8
BLACK
6
CONTINUOUS
10
124.249
20
-132.512
11
124.246
21
-132.523
0
LINE
8
BLACK
6
CONTINUOUS
10
124.246
20
-132.523
11
124.24
21
-132.533
0
LINE
8
BLACK
6
CONTINUOUS
10
124.24
20
-132.533
11
124.233
21
-132.543
0
LINE
8
BLACK
6
CONTINUOUS
10
124.233
20
-132.543
11
124.223
21
-132.55
0
LINE
8
BLACK
6
CONTINUOUS
10
124.223
20
-132.55
11
124.213
21
-132.556
0
LINE
8
BLACK
6
CONTINUOUS
10
124.213
20
-132.556
11
124.202
21
-132.559
0
LINE
8
BLACK
6
CONTINUOUS
10
124.202
20
-132.559
11
124.19
21
-132.56
0
LINE
8
BLACK
6
CONTINUOUS
10
124.19
20
-132.56
11
124.187
21
-132.56
0
LINE
8
BLACK
6
CONTINUOUS
10
124.187
20
-132.56
11
123.433
21
-132.56
0
LINE
8
BLACK
6
CONTINUOUS
10
123.433
20
-132.56
11
123.43
21
-132.56
0
LINE
8
BLACK
6
CONTINUOUS
10
123.43
20
-132.56
11
123.418
21
-132.559
0
LINE
8
BLACK
6
CONTINUOUS
10
123.418
20
-132.559
11
123.407
21
-132.556
0
LINE
8
BLACK
6
CONTINUOUS
10
123.407
20
-132.556
11
123.397
21
-132.55
0
LINE
8
BLACK
6
CONTINUOUS
10
123.397
20
-132.55
11
123.387
21
-132.543
0
LINE
8
BLACK
6
CONTINUOUS
10
123.387
20
-132.543
11
123.38
21
-132.533
0
LINE
8
BLACK
6
CONTINUOUS
10
123.38
20
-132.533
11
123.374
21
-132.523
0
LINE
8
BLACK
6
CONTINUOUS
10
123.374
20
-132.523
11
123.371
21
-132.512
0
LINE
8
BLACK
6
CONTINUOUS
10
123.371
20
-132.512
11
123.37
21
-132.5
0
LINE
8
BLACK
6
CONTINUOUS
10
123.37
20
-132.5
11
123.37
21
-132.497
0
LINE
8
BLACK
6
CONTINUOUS
10
123.37
20
-132.497
11
123.37
21
-126.56
0
LINE
8
BLACK
6
CONTINUOUS
10
123.37
20
-126.56
11
122.483
21
-126.56
0
LINE
8
BLACK
6
CONTINUOUS
10
122.483
20
-126.56
11
122.48
21
-126.56
0
LINE
8
BLACK
6
CONTINUOUS
10
122.48
20
-126.56
11
122.477
21
-126.56
0
LINE
8
BLACK
6
CONTINUOUS
10
122.477
20
-126.56
11
122.477
21
-126.56
0
LINE
8
BLACK
6
CONTINUOUS
10
122.477
20
-126.56
11
122.468
21
-126.559
0
LINE
8
BLACK
6
CONTINUOUS
10
122.468
20
-126.559
11
122.457
21
-126.556
0
LINE
8
BLACK
6
CONTINUOUS
10
122.457
20
-126.556
11
122.447
21
-126.55
0
LINE
8
BLACK
6
CONTINUOUS
10
122.447
20
-126.55
11
122.437
21
-126.543
0
LINE
8
BLACK
6
CONTINUOUS
10
122.437
20
-126.543
11
122.43
21
-126.533
0
LINE
8
BLACK
6
CONTINUOUS
10
122.43
20
-126.533
11
122.424
21
-126.523
0
LINE
8
BLACK
6
CONTINUOUS
10
122.424
20
-126.523
11
122.421
21
-126.512
0
LINE
8
BLACK
6
CONTINUOUS
10
122.421
20
-126.512
11
122.42
21
-126.5
0
LINE
8
BLACK
6
CONTINUOUS
10
122.42
20
-126.5
11
122.42
21
-126.497
0
LINE
8
BLACK
6
CONTINUOUS
10
122.42
20
-126.497
11
122.42
21
-123.843
0
LINE
8
BLACK
6
CONTINUOUS
10
122.42
20
-123.843
11
122.42
21
-123.84
0
LINE
8
BLACK
6
CONTINUOUS
10
122.42
20
-123.84
11
122.421
21
-123.828
0
LINE
8
BLACK
6
CONTINUOUS
10
122.421
20
-123.828
11
122.424
21
-123.817
0
LINE
8
BLACK
6
CONTINUOUS
10
122.424
20
-123.817
11
122.43
21
-123.807
0
LINE
8
BLACK
6
CONTINUOUS
10
122.43
20
-123.807
11
122.437
21
-123.797
0
LINE
8
BLACK
6
CONTINUOUS
10
122.437
20
-123.797
11
122.447
21
-123.79
0
LINE
8
BLACK
6
CONTINUOUS
10
122.447
20
-123.79
11
122.457
21
-123.784
0
LINE
8
BLACK
6
CONTINUOUS
10
122.457
20
-123.784
11
122.468
21
-123.781
0
LINE
8
BLACK
6
CONTINUOUS
10
122.468
20
-123.781
11
122.477
21
-123.78
0
LINE
8
BLACK
6
CONTINUOUS
10
122.477
20
-123.78
11
122.48
21
-123.78
0
LINE
8
BLACK
6
CONTINUOUS
10
122.48
20
-123.78
11
122.483
21
-123.78
0
LINE
8
BLACK
6
CONTINUOUS
10
122.483
20
-123.78
11
123.37
21
-123.78
0
LINE
8
BLACK
6
CONTINUOUS
10
123.37
20
-123.78
11
123.37
21
-123.44
0
LINE
8
BLACK
6
CONTINUOUS
10
123.37
20
-123.44
11
123.371
21
-123.431
0
LINE
8
BLACK
6
CONTINUOUS
10
123.371
20
-123.431
11
123.374
21
-123.42
0
LINE
8
BLACK
6
CONTINUOUS
10
123.374
20
-123.42
11
123.38
21
-123.409
0
LINE
8
BLACK
6
CONTINUOUS
10
123.38
20
-123.409
11
123.387
21
-123.4
0
LINE
8
BLACK
6
CONTINUOUS
10
123.387
20
-123.4
11
123.397
21
-123.393
0
LINE
8
BLACK
6
CONTINUOUS
10
123.397
20
-123.393
11
123.407
21
-123.387
0
LINE
8
BLACK
6
CONTINUOUS
10
123.407
20
-123.387
11
123.418
21
-123.384
0
LINE
8
BLACK
6
CONTINUOUS
10
123.418
20
-123.384
11
123.43
21
-123.383
0
LINE
8
BLACK
6
CONTINUOUS
10
123.43
20
-123.383
11
123.442
21
-123.384
0
LINE
8
BLACK
6
CONTINUOUS
10
123.442
20
-123.384
11
123.453
21
-123.387
0
LINE
8
BLACK
6
CONTINUOUS
10
123.453
20
-123.387
11
123.463
21
-123.393
0
LINE
8
BLACK
6
CONTINUOUS
10
123.463
20
-123.393
11
123.473
21
-123.4
0
LINE
8
BLACK
6
CONTINUOUS
10
123.473
20
-123.4
11
123.48
21
-123.409
0
LINE
8
BLACK
6
CONTINUOUS
10
123.48
20
-123.409
11
123.486
21
-123.42
0
LINE
8
BLACK
6
CONTINUOUS
10
123.486
20
-123.42
11
123.489
21
-123.431
0
LINE
8
BLACK
6
CONTINUOUS
10
123.489
20
-123.431
11
123.49
21
-123.44
0
LINE
8
BLACK
6
CONTINUOUS
10
123.49
20
-123.44
11
123.49
21
-123.78
0
LINE
8
BLACK
6
CONTINUOUS
10
123.49
20
-123.78
11
124.13
21
-123.78
0
LINE
8
BLACK
6
CONTINUOUS
10
124.13
20
-123.78
11
124.13
21
-123.44
0
LINE
8
BLACK
6
CONTINUOUS
10
124.13
20
-123.44
11
124.131
21
-123.431
0
LINE
8
BLACK
6
CONTINUOUS
10
124.131
20
-123.431
11
124.134
21
-123.42
0
LINE
8
BLACK
6
CONTINUOUS
10
124.134
20
-123.42
11
124.14
21
-123.409
0
LINE
8
BLACK
6
CONTINUOUS
10
124.14
20
-123.409
11
124.147
21
-123.4
0
LINE
8
BLACK
6
CONTINUOUS
10
124.147
20
-123.4
11
124.157
21
-123.393
0
LINE
8
BLACK
6
CONTINUOUS
10
124.157
20
-123.393
11
124.167
21
-123.387
0
LINE
8
BLACK
6
CONTINUOUS
10
124.167
20
-123.387
11
124.178
21
-123.384
0
LINE
8
BLACK
6
CONTINUOUS
10
124.178
20
-123.384
11
124.19
21
-123.383
0
LINE
8
BLACK
6
CONTINUOUS
10
124.19
20
-123.383
11
124.202
21
-123.384
0
LINE
8
BLACK
6
CONTINUOUS
10
124.202
20
-123.384
11
124.213
21
-123.387
0
LINE
8
BLACK
6
CONTINUOUS
10
124.213
20
-123.387
11
124.223
21
-123.393
0
LINE
8
BLACK
6
CONTINUOUS
10
124.223
20
-123.393
11
124.233
21
-123.4
0
LINE
8
BLACK
6
CONTINUOUS
10
124.233
20
-123.4
11
124.24
21
-123.409
0
LINE
8
BLACK
6
CONTINUOUS
10
124.24
20
-123.409
11
124.246
21
-123.42
0
LINE
8
BLACK
6
CONTINUOUS
10
124.246
20
-123.42
11
124.249
21
-123.431
0
LINE
8
BLACK
6
CONTINUOUS
10
124.249
20
-123.431
11
124.25
21
-123.44
0
LINE
8
BLACK
6
CONTINUOUS
10
124.25
20
-123.44
11
124.25
21
-123.78
0
LINE
8
BLACK
6
CONTINUOUS
10
124.25
20
-123.78
11
125.077
21
-123.78
0
LINE
8
BLACK
6
CONTINUOUS
10
125.077
20
-123.78
11
125.08
21
-123.78
0
LINE
8
BLACK
6
CONTINUOUS
10
125.08
20
-123.78
11
125.083
21
-123.78
0
LINE
8
BLACK
6
CONTINUOUS
10
125.083
20
-123.78
11
125.91
21
-123.78
0
LINE
8
BLACK
6
CONTINUOUS
10
125.91
20
-123.78
11
125.91
21
-123.44
0
LINE
8
BLACK
6
CONTINUOUS
10
125.91
20
-123.44
11
125.911
21
-123.431
0
LINE
8
BLACK
6
CONTINUOUS
10
125.911
20
-123.431
11
125.914
21
-123.42
0
LINE
8
BLACK
6
CONTINUOUS
10
125.914
20
-123.42
11
125.92
21
-123.409
0
LINE
8
BLACK
6
CONTINUOUS
10
125.92
20
-123.409
11
125.927
21
-123.4
0
LINE
8
BLACK
6
CONTINUOUS
10
125.927
20
-123.4
11
125.937
21
-123.393
0
LINE
8
BLACK
6
CONTINUOUS
10
125.937
20
-123.393
11
125.947
21
-123.387
0
LINE
8
BLACK
6
CONTINUOUS
10
125.947
20
-123.387
11
125.958
21
-123.384
0
LINE
8
BLACK
6
CONTINUOUS
10
125.958
20
-123.384
11
125.97
21
-123.383
0
LINE
8
BLACK
6
CONTINUOUS
10
125.97
20
-123.383
11
125.982
21
-123.384
0
LINE
8
BLACK
6
CONTINUOUS
10
125.982
20
-123.384
11
125.993
21
-123.387
0
LINE
8
BLACK
6
CONTINUOUS
10
125.993
20
-123.387
11
126.003
21
-123.393
0
LINE
8
BLACK
6
CONTINUOUS
10
126.003
20
-123.393
11
126.013
21
-123.4
0
LINE
8
BLACK
6
CONTINUOUS
10
126.013
20
-123.4
11
126.02
21
-123.409
0
LINE
8
BLACK
6
CONTINUOUS
10
126.02
20
-123.409
11
126.026
21
-123.42
0
LINE
8
BLACK
6
CONTINUOUS
10
126.026
20
-123.42
11
126.029
21
-123.431
0
LINE
8
BLACK
6
CONTINUOUS
10
126.029
20
-123.431
11
126.03
21
-123.44
0
LINE
8
BLACK
6
CONTINUOUS
10
126.03
20
-123.44
11
126.03
21
-123.78
0
LINE
8
BLACK
6
CONTINUOUS
10
126.03
20
-123.78
11
126.67
21
-123.78
0
LINE
8
BLACK
6
CONTINUOUS
10
126.67
20
-123.78
11
126.67
21
-123.44
0
LINE
8
BLACK
6
CONTINUOUS
10
126.67
20
-123.44
11
126.671
21
-123.431
0
LINE
8
BLACK
6
CONTINUOUS
10
126.671
20
-123.431
11
126.674
21
-123.42
0
LINE
8
BLACK
6
CONTINUOUS
10
126.674
20
-123.42
11
126.68
21
-123.409
0
LINE
8
BLACK
6
CONTINUOUS
10
126.68
20
-123.409
11
126.687
21
-123.4
0
LINE
8
BLACK
6
CONTINUOUS
10
126.687
20
-123.4
11
126.697
21
-123.393
0
LINE
8
BLACK
6
CONTINUOUS
10
126.697
20
-123.393
11
126.707
21
-123.387
0
LINE
8
BLACK
6
CONTINUOUS
10
126.707
20
-123.387
11
126.718
21
-123.384
0
LINE
8
BLACK
6
CONTINUOUS
10
126.718
20
-123.384
11
126.73
21
-123.383
0
LINE
8
BLACK
6
CONTINUOUS
10
126.73
20
-123.383
11
126.742
21
-123.384
0
LINE
8
BLACK
6
CONTINUOUS
10
126.742
20
-123.384
11
126.753
21
-123.387
0
LINE
8
BLACK
6
CONTINUOUS
10
126.753
20
-123.387
11
126.763
21
-123.393
0
LINE
8
BLACK
6
CONTINUOUS
10
126.763
20
-123.393
11
126.773
21
-123.4
0
LINE
8
BLACK
6
CONTINUOUS
10
126.773
20
-123.4
11
126.78
21
-123.409
0
LINE
8
BLACK
6
CONTINUOUS
10
126.78
20
-123.409
11
126.786
21
-123.42
0
LINE
8
BLACK
6
CONTINUOUS
10
126.786
20
-123.42
11
126.789
21
-123.431
0
LINE
8
BLACK
6
CONTINUOUS
10
126.789
20
-123.431
11
126.79
21
-123.44
0
LINE
8
BLACK
6
CONTINUOUS
10
126.79
20
-123.44
11
126.79
21
-123.78
0
LINE
8
BLACK
6
CONTINUOUS
10
126.79
20
-123.78
11
127.617
21
-123.78
0
LINE
8
BLACK
6
CONTINUOUS
10
127.617
20
-123.78
11
127.62
21
-123.78
0
LINE
8
BLACK
6
CONTINUOUS
10
127.62
20
-123.78
11
127.623
21
-123.78
0
LINE
8
BLACK
6
CONTINUOUS
10
127.623
20
-123.78
11
128.45
21
-123.78
0
LINE
8
BLACK
6
CONTINUOUS
10
128.45
20
-123.78
11
128.45
21
-123.44
0
LINE
8
BLACK
6
CONTINUOUS
10
128.45
20
-123.44
11
128.451
21
-123.431
0
LINE
8
BLACK
6
CONTINUOUS
10
128.451
20
-123.431
11
128.454
21
-123.42
0
LINE
8
BLACK
6
CONTINUOUS
10
128.454
20
-123.42
11
128.46
21
-123.409
0
LINE
8
BLACK
6
CONTINUOUS
10
128.46
20
-123.409
11
128.467
21
-123.4
0
LINE
8
BLACK
6
CONTINUOUS
10
128.467
20
-123.4
11
128.477
21
-123.393
0
LINE
8
BLACK
6
CONTINUOUS
10
128.477
20
-123.393
11
128.487
21
-123.387
0
LINE
8
BLACK
6
CONTINUOUS
10
128.487
20
-123.387
11
128.498
21
-123.384
0
LINE
8
BLACK
6
CONTINUOUS
10
128.498
20
-123.384
11
128.51
21
-123.383
0
LINE
8
BLACK
6
CONTINUOUS
10
128.51
20
-123.383
11
128.522
21
-123.384
0
LINE
8
BLACK
6
CONTINUOUS
10
128.522
20
-123.384
11
128.533
21
-123.387
0
LINE
8
BLACK
6
CONTINUOUS
10
128.533
20
-123.387
11
128.543
21
-123.393
0
LINE
8
BLACK
6
CONTINUOUS
10
128.543
20
-123.393
11
128.553
21
-123.4
0
LINE
8
BLACK
6
CONTINUOUS
10
128.553
20
-123.4
11
128.56
21
-123.409
0
LINE
8
BLACK
6
CONTINUOUS
10
128.56
20
-123.409
11
128.566
21
-123.42
0
LINE
8
BLACK
6
CONTINUOUS
10
128.566
20
-123.42
11
128.569
21
-123.431
0
LINE
8
BLACK
6
CONTINUOUS
10
128.569
20
-123.431
11
128.57
21
-123.44
0
LINE
8
BLACK
6
CONTINUOUS
10
128.57
20
-123.44
11
128.57
21
-123.78
0
LINE
8
BLACK
6
CONTINUOUS
10
128.57
20
-123.78
11
129.21
21
-123.78
0
LINE
8
BLACK
6
CONTINUOUS
10
129.21
20
-123.78
11
129.21
21
-123.44
0
LINE
8
BLACK
6
CONTINUOUS
10
129.21
20
-123.44
11
129.211
21
-123.431
0
LINE
8
BLACK
6
CONTINUOUS
10
129.211
20
-123.431
11
129.214
21
-123.42
0
LINE
8
BLACK
6
CONTINUOUS
10
129.214
20
-123.42
11
129.22
21
-123.409
0
LINE
8
BLACK
6
CONTINUOUS
10
129.22
20
-123.409
11
129.227
21
-123.4
0
LINE
8
BLACK
6
CONTINUOUS
10
129.227
20
-123.4
11
129.237
21
-123.393
0
LINE
8
BLACK
6
CONTINUOUS
10
129.237
20
-123.393
11
129.247
21
-123.387
0
LINE
8
BLACK
6
CONTINUOUS
10
129.247
20
-123.387
11
129.258
21
-123.384
0
LINE
8
BLACK
6
CONTINUOUS
10
129.258
20
-123.384
11
129.27
21
-123.383
0
LINE
8
BLACK
6
CONTINUOUS
10
129.27
20
-123.383
11
129.282
21
-123.384
0
LINE
8
BLACK
6
CONTINUOUS
10
131.21
20
-132.44
11
131.21
21
-132.44
0
LINE
8
BLACK
6
CONTINUOUS
10
131.21
20
-132.44
11
131.21
21
-126.56
0
LINE
8
BLACK
6
CONTINUOUS
10
131.21
20
-126.56
11
131.21
21
-132.44
0
LINE
8
BLACK
6
CONTINUOUS
10
131.33
20
-132.44
11
131.33
21
-132.44
0
LINE
8
BLACK
6
CONTINUOUS
10
131.33
20
-132.44
11
131.33
21
-126.56
0
LINE
8
BLACK
6
CONTINUOUS
10
131.33
20
-126.56
11
131.33
21
-132.44
0
LINE
8
BLACK
6
CONTINUOUS
10
131.45
20
-132.44
11
131.45
21
-132.44
0
LINE
8
BLACK
6
CONTINUOUS
10
131.45
20
-132.44
11
131.45
21
-126.56
0
LINE
8
BLACK
6
CONTINUOUS
10
131.45
20
-126.56
11
131.45
21
-132.44
0
LINE
8
BLACK
6
CONTINUOUS
10
131.57
20
-132.44
11
131.57
21
-132.44
0
LINE
8
BLACK
6
CONTINUOUS
10
131.57
20
-132.44
11
131.57
21
-126.56
0
LINE
8
BLACK
6
CONTINUOUS
10
131.57
20
-126.56
11
131.57
21
-132.44
0
LINE
8
BLACK
6
CONTINUOUS
10
131.69
20
-132.44
11
131.69
21
-132.44
0
LINE
8
BLACK
6
CONTINUOUS
10
131.69
20
-132.44
11
131.69
21
-126.56
0
LINE
8
BLACK
6
CONTINUOUS
10
131.69
20
-126.56
11
131.69
21
-132.44
0
LINE
8
BLACK
6
CONTINUOUS
10
128.57
20
-126.56
11
128.57
21
-132.44
0
LINE
8
BLACK
6
CONTINUOUS
10
128.57
20
-132.44
11
129.21
21
-132.44
0
LINE
8
BLACK
6
CONTINUOUS
10
129.21
20
-132.44
11
129.21
21
-126.56
0
LINE
8
BLACK
6
CONTINUOUS
10
129.21
20
-126.56
11
128.57
21
-126.56
0
LINE
8
BLACK
6
CONTINUOUS
10
126.03
20
-126.56
11
126.03
21
-132.44
0
LINE
8
BLACK
6
CONTINUOUS
10
126.03
20
-132.44
11
126.67
21
-132.44
0
LINE
8
BLACK
6
CONTINUOUS
10
126.67
20
-132.44
11
126.67
21
-126.56
0
LINE
8
BLACK
6
CONTINUOUS
10
126.67
20
-126.56
11
126.03
21
-126.56
0
LINE
8
BLACK
6
CONTINUOUS
10
123.49
20
-126.56
11
123.49
21
-132.44
0
LINE
8
BLACK
6
CONTINUOUS
10
123.49
20
-132.44
11
124.13
21
-132.44
0
LINE
8
BLACK
6
CONTINUOUS
10
124.13
20
-132.44
11
124.13
21
-126.56
0
LINE
8
BLACK
6
CONTINUOUS
10
124.13
20
-126.56
11
123.49
21
-126.56
0
LINE
8
BLACK
6
CONTINUOUS
10
124.193
20
-123.9
11
124.19
21
-123.9
0
LINE
8
BLACK
6
CONTINUOUS
10
124.19
20
-123.9
11
124.187
21
-123.9
0
LINE
8
BLACK
6
CONTINUOUS
10
124.187
20
-123.9
11
123.433
21
-123.9
0
LINE
8
BLACK
6
CONTINUOUS
10
123.433
20
-123.9
11
123.43
21
-123.9
0
LINE
8
BLACK
6
CONTINUOUS
10
123.43
20
-123.9
11
123.427
21
-123.9
0
LINE
8
BLACK
6
CONTINUOUS
10
123.427
20
-123.9
11
122.54
21
-123.9
0
LINE
8
BLACK
6
CONTINUOUS
10
122.54
20
-123.9
11
122.54
21
-126.44
0
LINE
8
BLACK
6
CONTINUOUS
10
122.54
20
-126.44
11
123.427
21
-126.44
0
LINE
8
BLACK
6
CONTINUOUS
10
123.427
20
-126.44
11
123.43
21
-126.44
0
LINE
8
BLACK
6
CONTINUOUS
10
123.43
20
-126.44
11
123.433
21
-126.44
0
LINE
8
BLACK
6
CONTINUOUS
10
123.433
20
-126.44
11
124.187
21
-126.44
0
LINE
8
BLACK
6
CONTINUOUS
10
124.187
20
-126.44
11
124.19
21
-126.44
0
LINE
8
BLACK
6
CONTINUOUS
10
124.19
20
-126.44
11
124.193
21
-126.44
0
LINE
8
BLACK
6
CONTINUOUS
10
124.193
20
-126.44
11
125.02
21
-126.44
0
LINE
8
BLACK
6
CONTINUOUS
10
125.02
20
-126.44
11
125.02
21
-123.9
0
LINE
8
BLACK
6
CONTINUOUS
10
125.02
20
-123.9
11
124.193
21
-123.9
0
LINE
8
BLACK
6
CONTINUOUS
10
126.733
20
-123.9
11
126.73
21
-123.9
0
LINE
8
BLACK
6
CONTINUOUS
10
126.73
20
-123.9
11
126.727
21
-123.9
0
LINE
8
BLACK
6
CONTINUOUS
10
126.727
20
-123.9
11
125.973
21
-123.9
0
LINE
8
BLACK
6
CONTINUOUS
10
125.973
20
-123.9
11
125.97
21
-123.9
0
LINE
8
BLACK
6
CONTINUOUS
10
125.97
20
-123.9
11
125.967
21
-123.9
0
LINE
8
BLACK
6
CONTINUOUS
10
125.967
20
-123.9
11
125.14
21
-123.9
0
LINE
8
BLACK
6
CONTINUOUS
10
125.14
20
-123.9
11
125.14
21
-126.44
0
LINE
8
BLACK
6
CONTINUOUS
10
125.14
20
-126.44
11
125.967
21
-126.44
0
LINE
8
BLACK
6
CONTINUOUS
10
125.967
20
-126.44
11
125.97
21
-126.44
0
LINE
8
BLACK
6
CONTINUOUS
10
125.97
20
-126.44
11
125.973
21
-126.44
0
LINE
8
BLACK
6
CONTINUOUS
10
125.973
20
-126.44
11
126.727
21
-126.44
0
LINE
8
BLACK
6
CONTINUOUS
10
126.727
20
-126.44
11
126.73
21
-126.44
0
LINE
8
BLACK
6
CONTINUOUS
10
126.73
20
-126.44
11
126.733
21
-126.44
0
LINE
8
BLACK
6
CONTINUOUS
10
126.733
20
-126.44
11
127.56
21
-126.44
0
LINE
8
BLACK
6
CONTINUOUS
10
127.56
20
-126.44
11
127.56
21
-123.9
0
LINE
8
BLACK
6
CONTINUOUS
10
127.56
20
-123.9
11
126.733
21
-123.9
0
LINE
8
BLACK
6
CONTINUOUS
10
129.273
20
-123.9
11
129.27
21
-123.9
0
LINE
8
BLACK
6
CONTINUOUS
10
129.27
20
-123.9
11
129.267
21
-123.9
0
LINE
8
BLACK
6
CONTINUOUS
10
129.267
20
-123.9
11
128.513
21
-123.9
0
LINE
8
BLACK
6
CONTINUOUS
10
128.513
20
-123.9
11
128.51
21
-123.9
0
LINE
8
BLACK
6
CONTINUOUS
10
128.51
20
-123.9
11
128.507
21
-123.9
0
LINE
8
BLACK
6
CONTINUOUS
10
128.507
20
-123.9
11
127.68
21
-123.9
0
LINE
8
BLACK
6
CONTINUOUS
10
127.68
20
-123.9
11
127.68
21
-126.44
0
LINE
8
BLACK
6
CONTINUOUS
10
127.68
20
-126.44
11
128.507
21
-126.44
0
LINE
8
BLACK
6
CONTINUOUS
10
128.507
20
-126.44
11
128.51
21
-126.44
0
LINE
8
BLACK
6
CONTINUOUS
10
128.51
20
-126.44
11
128.513
21
-126.44
0
LINE
8
BLACK
6
CONTINUOUS
10
128.513
20
-126.44
11
129.267
21
-126.44
0
LINE
8
BLACK
6
CONTINUOUS
10
129.267
20
-126.44
11
129.27
21
-126.44
0
LINE
8
BLACK
6
CONTINUOUS
10
129.27
20
-126.44
11
129.273
21
-126.44
0
LINE
8
BLACK
6
CONTINUOUS
10
129.273
20
-126.44
11
130.1
21
-126.44
0
LINE
8
BLACK
6
CONTINUOUS
10
130.1
20
-126.44
11
130.1
21
-123.9
0
LINE
8
BLACK
6
CONTINUOUS
10
130.1
20
-123.9
11
129.273
21
-123.9
0
LINE
8
BLACK
6
CONTINUOUS
10
131.813
20
-123.9
11
131.81
21
-123.9
0
LINE
8
BLACK
6
CONTINUOUS
10
131.81
20
-123.9
11
131.807
21
-123.9
0
LINE
8
BLACK
6
CONTINUOUS
10
131.807
20
-123.9
11
131.053
21
-123.9
0
LINE
8
BLACK
6
CONTINUOUS
10
131.053
20
-123.9
11
131.05
21
-123.9
0
LINE
8
BLACK
6
CONTINUOUS
10
131.05
20
-123.9
11
131.047
21
-123.9
0
LINE
8
BLACK
6
CONTINUOUS
10
131.047
20
-123.9
11
130.22
21
-123.9
0
LINE
8
BLACK
6
CONTINUOUS
10
130.22
20
-123.9
11
130.22
21
-126.44
0
LINE
8
BLACK
6
CONTINUOUS
10
130.22
20
-126.44
11
131.047
21
-126.44
0
LINE
8
BLACK
6
CONTINUOUS
10
131.047
20
-126.44
11
131.05
21
-126.44
0
LINE
8
BLACK
6
CONTINUOUS
10
131.05
20
-126.44
11
131.053
21
-126.44
0
LINE
8
BLACK
6
CONTINUOUS
10
131.053
20
-126.44
11
131.147
21
-126.44
0
LINE
8
BLACK
6
CONTINUOUS
10
131.147
20
-126.44
11
131.15
21
-126.44
0
LINE
8
BLACK
6
CONTINUOUS
10
131.15
20
-126.44
11
131.153
21
-126.44
0
LINE
8
BLACK
6
CONTINUOUS
10
131.153
20
-126.44
11
131.267
21
-126.44
0
LINE
8
BLACK
6
CONTINUOUS
10
131.267
20
-126.44
11
131.27
21
-126.44
0
LINE
8
BLACK
6
CONTINUOUS
10
131.27
20
-126.44
11
131.273
21
-126.44
0
LINE
8
BLACK
6
CONTINUOUS
10
131.273
20
-126.44
11
131.387
21
-126.44
0
LINE
8
BLACK
6
CONTINUOUS
10
131.387
20
-126.44
11
131.39
21
-126.44
0
LINE
8
BLACK
6
CONTINUOUS
10
131.39
20
-126.44
11
131.393
21
-126.44
0
LINE
8
BLACK
6
CONTINUOUS
10
131.393
20
-126.44
11
131.507
21
-126.44
0
LINE
8
BLACK
6
CONTINUOUS
10
131.507
20
-126.44
11
131.51
21
-126.44
0
LINE
8
BLACK
6
CONTINUOUS
10
131.51
20
-126.44
11
131.513
21
-126.44
0
LINE
8
BLACK
6
CONTINUOUS
10
131.513
20
-126.44
11
131.627
21
-126.44
0
LINE
8
BLACK
6
CONTINUOUS
10
131.627
20
-126.44
11
131.63
21
-126.44
0
LINE
8
BLACK
6
CONTINUOUS
10
131.63
20
-126.44
11
131.633
21
-126.44
0
LINE
8
BLACK
6
CONTINUOUS
10
131.633
20
-126.44
11
131.747
21
-126.44
0
LINE
8
BLACK
6
CONTINUOUS
10
131.747
20
-126.44
11
131.75
21
-126.44
0
LINE
8
BLACK
6
CONTINUOUS
10
131.75
20
-126.44
11
131.753
21
-126.44
0
LINE
8
BLACK
6
CONTINUOUS
10
131.753
20
-126.44
11
131.807
21
-126.44
0
LINE
8
BLACK
6
CONTINUOUS
10
131.807
20
-126.44
11
131.81
21
-126.44
0
LINE
8
BLACK
6
CONTINUOUS
10
131.81
20
-126.44
11
131.813
21
-126.44
0
LINE
8
BLACK
6
CONTINUOUS
10
131.813
20
-126.44
11
132.7
21
-126.44
0
LINE
8
BLACK
6
CONTINUOUS
10
132.7
20
-126.44
11
132.7
21
-123.9
0
LINE
8
BLACK
6
CONTINUOUS
10
132.7
20
-123.9
11
131.813
21
-123.9
0
LINE
8
BLACK
6
CONTINUOUS
10
121.077
20
-123.467
11
121.079
21
-123.467
0
LINE
8
BLACK
6
CONTINUOUS
10
121.079
20
-123.467
11
121.081
21
-123.467
0
LINE
8
BLACK
6
CONTINUOUS
10
121.081
20
-123.467
11
121.086
21
-123.468
0
LINE
8
BLACK
6
CONTINUOUS
10
121.086
20
-123.468
11
121.091
21
-123.468
0
LINE
8
BLACK
6
CONTINUOUS
10
121.091
20
-123.468
11
121.093
21
-123.469
0
LINE
8
BLACK
6
CONTINUOUS
10
121.093
20
-123.469
11
121.096
21
-123.469
0
LINE
8
BLACK
6
CONTINUOUS
10
121.096
20
-123.469
11
121.1
21
-123.471
0
LINE
8
BLACK
6
CONTINUOUS
10
121.1
20
-123.471
11
121.105
21
-123.473
0
LINE
8
BLACK
6
CONTINUOUS
10
121.105
20
-123.473
11
121.107
21
-123.474
0
LINE
8
BLACK
6
CONTINUOUS
10
121.107
20
-123.474
11
121.109
21
-123.475
0
LINE
8
BLACK
6
CONTINUOUS
10
121.109
20
-123.475
11
121.204
21
-123.522
0
LINE
8
BLACK
6
CONTINUOUS
10
121.204
20
-123.522
11
121.205
21
-123.523
0
LINE
8
BLACK
6
CONTINUOUS
10
121.205
20
-123.523
11
121.209
21
-123.525
0
LINE
8
BLACK
6
CONTINUOUS
10
121.209
20
-123.525
11
121.213
21
-123.527
0
LINE
8
BLACK
6
CONTINUOUS
10
121.213
20
-123.527
11
121.215
21
-123.529
0
LINE
8
BLACK
6
CONTINUOUS
10
121.215
20
-123.529
11
121.218
21
-123.531
0
LINE
8
BLACK
6
CONTINUOUS
10
121.218
20
-123.531
11
121.221
21
-123.534
0
LINE
8
BLACK
6
CONTINUOUS
10
121.221
20
-123.534
11
121.224
21
-123.536
0
LINE
8
BLACK
6
CONTINUOUS
10
121.224
20
-123.536
11
121.272
21
-123.584
0
LINE
8
BLACK
6
CONTINUOUS
10
121.272
20
-123.584
11
121.272
21
-123.585
0
LINE
8
BLACK
6
CONTINUOUS
10
121.272
20
-123.585
11
121.275
21
-123.588
0
LINE
8
BLACK
6
CONTINUOUS
10
121.275
20
-123.588
11
121.278
21
-123.591
0
LINE
8
BLACK
6
CONTINUOUS
10
121.278
20
-123.591
11
121.28
21
-123.594
0
LINE
8
BLACK
6
CONTINUOUS
10
121.28
20
-123.594
11
121.281
21
-123.596
0
LINE
8
BLACK
6
CONTINUOUS
10
121.281
20
-123.596
11
121.283
21
-123.6
0
LINE
8
BLACK
6
CONTINUOUS
10
121.283
20
-123.6
11
121.286
21
-123.603
0
LINE
8
BLACK
6
CONTINUOUS
10
121.286
20
-123.603
11
121.333
21
-123.699
0
LINE
8
BLACK
6
CONTINUOUS
10
121.333
20
-123.699
11
121.334
21
-123.7
0
LINE
8
BLACK
6
CONTINUOUS
10
121.334
20
-123.7
11
121.334
21
-123.702
0
LINE
8
BLACK
6
CONTINUOUS
10
121.334
20
-123.702
11
121.336
21
-123.704
0
LINE
8
BLACK
6
CONTINUOUS
10
121.336
20
-123.704
11
121.337
21
-123.708
0
LINE
8
BLACK
6
CONTINUOUS
10
121.337
20
-123.708
11
121.339
21
-123.713
0
LINE
8
BLACK
6
CONTINUOUS
10
121.339
20
-123.713
11
121.339
21
-123.715
0
LINE
8
BLACK
6
CONTINUOUS
10
121.339
20
-123.715
11
121.34
21
-123.718
0
LINE
8
BLACK
6
CONTINUOUS
10
121.34
20
-123.718
11
121.34
21
-123.723
0
LINE
8
BLACK
6
CONTINUOUS
10
121.34
20
-123.723
11
121.341
21
-123.728
0
LINE
8
BLACK
6
CONTINUOUS
10
121.341
20
-123.728
11
121.341
21
-123.73
0
LINE
8
BLACK
6
CONTINUOUS
10
121.341
20
-123.73
11
121.341
21
-123.732
0
LINE
8
BLACK
6
CONTINUOUS
10
121.341
20
-123.732
11
121.341
21
-124.038
0
LINE
8
BLACK
6
CONTINUOUS
10
121.341
20
-124.038
11
121.742
21
-124.038
0
LINE
8
BLACK
6
CONTINUOUS
10
121.742
20
-124.038
11
121.743
21
-124.038
0
LINE
8
BLACK
6
CONTINUOUS
10
121.743
20
-124.038
11
121.758
21
-124.04
0
LINE
8
BLACK
6
CONTINUOUS
10
121.758
20
-124.04
11
121.772
21
-124.044
0
LINE
8
BLACK
6
CONTINUOUS
10
121.772
20
-124.044
11
121.785
21
-124.051
0
LINE
8
BLACK
6
CONTINUOUS
10
121.785
20
-124.051
11
121.796
21
-124.061
0
LINE
8
BLACK
6
CONTINUOUS
10
121.796
20
-124.061
11
121.805
21
-124.072
0
LINE
8
BLACK
6
CONTINUOUS
10
121.805
20
-124.072
11
121.812
21
-124.085
0
LINE
8
BLACK
6
CONTINUOUS
10
121.812
20
-124.085
11
121.816
21
-124.099
0
LINE
8
BLACK
6
CONTINUOUS
10
121.816
20
-124.099
11
121.817
21
-124.114
0
LINE
8
BLACK
6
CONTINUOUS
10
121.817
20
-124.114
11
121.816
21
-124.128
0
LINE
8
BLACK
6
CONTINUOUS
10
121.816
20
-124.128
11
121.812
21
-124.142
0
LINE
8
BLACK
6
CONTINUOUS
10
121.812
20
-124.142
11
121.805
21
-124.155
0
LINE
8
BLACK
6
CONTINUOUS
10
121.805
20
-124.155
11
121.795
21
-124.166
0
LINE
8
BLACK
6
CONTINUOUS
10
121.795
20
-124.166
11
121.784
21
-124.176
0
LINE
8
BLACK
6
CONTINUOUS
10
121.784
20
-124.176
11
121.771
21
-124.182
0
LINE
8
BLACK
6
CONTINUOUS
10
121.771
20
-124.182
11
121.757
21
-124.187
0
LINE
8
BLACK
6
CONTINUOUS
10
121.757
20
-124.187
11
121.742
21
-124.188
0
LINE
8
BLACK
6
CONTINUOUS
10
121.742
20
-124.188
11
120.742
21
-124.188
0
LINE
8
BLACK
6
CONTINUOUS
10
120.742
20
-124.188
11
120.742
21
-124.188
0
LINE
8
BLACK
6
CONTINUOUS
10
120.742
20
-124.188
11
120.742
21
-124.188
0
LINE
8
BLACK
6
CONTINUOUS
10
120.742
20
-124.188
11
120.742
21
-124.188
0
LINE
8
BLACK
6
CONTINUOUS
10
120.742
20
-124.188
11
120.741
21
-124.188
0
LINE
8
BLACK
6
CONTINUOUS
10
120.741
20
-124.188
11
120.734
21
-124.187
0
LINE
8
BLACK
6
CONTINUOUS
10
120.734
20
-124.187
11
120.727
21
-124.187
0
LINE
8
BLACK
6
CONTINUOUS
10
120.727
20
-124.187
11
120.727
21
-124.186
0
LINE
8
BLACK
6
CONTINUOUS
10
120.727
20
-124.186
11
120.727
21
-124.186
0
LINE
8
BLACK
6
CONTINUOUS
10
120.727
20
-124.186
11
120.72
21
-124.184
0
LINE
8
BLACK
6
CONTINUOUS
10
120.72
20
-124.184
11
120.713
21
-124.182
0
LINE
8
BLACK
6
CONTINUOUS
10
120.713
20
-124.182
11
120.713
21
-124.182
0
LINE
8
BLACK
6
CONTINUOUS
10
120.713
20
-124.182
11
120.713
21
-124.182
0
LINE
8
BLACK
6
CONTINUOUS
10
120.713
20
-124.182
11
120.707
21
-124.179
0
LINE
8
BLACK
6
CONTINUOUS
10
120.707
20
-124.179
11
120.7
21
-124.175
0
LINE
8
BLACK
6
CONTINUOUS
10
120.7
20
-124.175
11
120.7
21
-124.175
0
LINE
8
BLACK
6
CONTINUOUS
10
120.7
20
-124.175
11
120.7
21
-124.175
0
LINE
8
BLACK
6
CONTINUOUS
10
120.7
20
-124.175
11
120.695
21
-124.17
0
LINE
8
BLACK
6
CONTINUOUS
10
120.695
20
-124.17
11
120.689
21
-124.166
0
LINE
8
BLACK
6
CONTINUOUS
10
120.689
20
-124.166
11
120.689
21
-124.166
0
LINE
8
BLACK
6
CONTINUOUS
10
120.689
20
-124.166
11
120.689
21
-124.166
0
LINE
8
BLACK
6
CONTINUOUS
10
120.689
20
-124.166
11
120.684
21
-124.16
0
LINE
8
BLACK
6
CONTINUOUS
10
120.684
20
-124.16
11
120.68
21
-124.155
0
LINE
8
BLACK
6
CONTINUOUS
10
120.68
20
-124.155
11
120.68
21
-124.154
0
LINE
8
BLACK
6
CONTINUOUS
10
120.68
20
-124.154
11
120.68
21
-124.154
0
LINE
8
BLACK
6
CONTINUOUS
10
120.68
20
-124.154
11
120.676
21
-124.148
0
LINE
8
BLACK
6
CONTINUOUS
10
120.676
20
-124.148
11
120.673
21
-124.142
0
LINE
8
BLACK
6
CONTINUOUS
10
120.673
20
-124.142
11
120.673
21
-124.141
0
LINE
8
BLACK
6
CONTINUOUS
10
120.673
20
-124.141
11
120.673
21
-124.141
0
LINE
8
BLACK
6
CONTINUOUS
10
120.673
20
-124.141
11
120.671
21
-124.134
0
LINE
8
BLACK
6
CONTINUOUS
10
120.671
20
-124.134
11
120.669
21
-124.128
0
LINE
8
BLACK
6
CONTINUOUS
10
120.669
20
-124.128
11
120.669
21
-124.127
0
LINE
8
BLACK
6
CONTINUOUS
10
120.669
20
-124.127
11
120.669
21
-124.127
0
LINE
8
BLACK
6
CONTINUOUS
10
120.669
20
-124.127
11
120.668
21
-124.12
0
LINE
8
BLACK
6
CONTINUOUS
10
120.668
20
-124.12
11
120.667
21
-124.113
0
LINE
8
BLACK
6
CONTINUOUS
10
120.667
20
-124.113
11
120.667
21
-123.732
0
LINE
8
BLACK
6
CONTINUOUS
10
120.667
20
-123.732
11
120.667
21
-123.731
0
LINE
8
BLACK
6
CONTINUOUS
10
120.667
20
-123.731
11
120.668
21
-123.729
0
LINE
8
BLACK
6
CONTINUOUS
10
120.668
20
-123.729
11
120.668
21
-123.727
0
LINE
8
BLACK
6
CONTINUOUS
10
120.668
20
-123.727
11
120.668
21
-123.722
0
LINE
8
BLACK
6
CONTINUOUS
10
120.668
20
-123.722
11
120.669
21
-123.717
0
LINE
8
BLACK
6
CONTINUOUS
10
120.669
20
-123.717
11
120.67
21
-123.714
0
LINE
8
BLACK
6
CONTINUOUS
10
120.67
20
-123.714
11
120.67
21
-123.712
0
LINE
8
BLACK
6
CONTINUOUS
10
120.67
20
-123.712
11
120.672
21
-123.707
0
LINE
8
BLACK
6
CONTINUOUS
10
120.672
20
-123.707
11
120.673
21
-123.703
0
LINE
8
BLACK
6
CONTINUOUS
10
120.673
20
-123.703
11
120.675
21
-123.701
0
LINE
8
BLACK
6
CONTINUOUS
10
120.675
20
-123.701
11
120.675
21
-123.699
0
LINE
8
BLACK
6
CONTINUOUS
10
120.675
20
-123.699
11
120.723
21
-123.603
0
LINE
8
BLACK
6
CONTINUOUS
10
120.723
20
-123.603
11
120.723
21
-123.602
0
LINE
8
BLACK
6
CONTINUOUS
10
120.723
20
-123.602
11
120.726
21
-123.599
0
LINE
8
BLACK
6
CONTINUOUS
10
120.726
20
-123.599
11
120.728
21
-123.595
0
LINE
8
BLACK
6
CONTINUOUS
10
120.728
20
-123.595
11
120.73
21
-123.593
0
LINE
8
BLACK
6
CONTINUOUS
10
120.73
20
-123.593
11
120.731
21
-123.59
0
LINE
8
BLACK
6
CONTINUOUS
10
120.731
20
-123.59
11
120.734
21
-123.587
0
LINE
8
BLACK
6
CONTINUOUS
10
120.734
20
-123.587
11
120.737
21
-123.584
0
LINE
8
BLACK
6
CONTINUOUS
10
120.737
20
-123.584
11
120.785
21
-123.536
0
LINE
8
BLACK
6
CONTINUOUS
10
120.785
20
-123.536
11
120.785
21
-123.536
0
LINE
8
BLACK
6
CONTINUOUS
10
120.785
20
-123.536
11
120.789
21
-123.533
0
LINE
8
BLACK
6
CONTINUOUS
10
120.789
20
-123.533
11
120.792
21
-123.53
0
LINE
8
BLACK
6
CONTINUOUS
10
120.792
20
-123.53
11
120.794
21
-123.528
0
LINE
8
BLACK
6
CONTINUOUS
10
120.794
20
-123.528
11
120.797
21
-123.526
0
LINE
8
BLACK
6
CONTINUOUS
10
120.797
20
-123.526
11
120.801
21
-123.524
0
LINE
8
BLACK
6
CONTINUOUS
10
120.801
20
-123.524
11
120.804
21
-123.522
0
LINE
8
BLACK
6
CONTINUOUS
10
120.804
20
-123.522
11
120.899
21
-123.475
0
LINE
8
BLACK
6
CONTINUOUS
10
120.899
20
-123.475
11
120.9
21
-123.474
0
LINE
8
BLACK
6
CONTINUOUS
10
120.9
20
-123.474
11
120.902
21
-123.473
0
LINE
8
BLACK
6
CONTINUOUS
10
120.902
20
-123.473
11
120.904
21
-123.472
0
LINE
8
BLACK
6
CONTINUOUS
10
120.904
20
-123.472
11
120.909
21
-123.471
0
LINE
8
BLACK
6
CONTINUOUS
10
120.909
20
-123.471
11
120.914
21
-123.469
0
LINE
8
BLACK
6
CONTINUOUS
10
120.914
20
-123.469
11
120.916
21
-123.469
0
LINE
8
BLACK
6
CONTINUOUS
10
120.916
20
-123.469
11
120.918
21
-123.468
0
LINE
8
BLACK
6
CONTINUOUS
10
120.918
20
-123.468
11
120.923
21
-123.468
0
LINE
8
BLACK
6
CONTINUOUS
10
120.923
20
-123.468
11
120.928
21
-123.467
0
LINE
8
BLACK
6
CONTINUOUS
10
120.928
20
-123.467
11
120.931
21
-123.467
0
LINE
8
BLACK
6
CONTINUOUS
10
120.931
20
-123.467
11
120.933
21
-123.467
0
LINE
8
BLACK
6
CONTINUOUS
10
120.933
20
-123.467
11
121.076
21
-123.467
0
LINE
8
BLACK
6
CONTINUOUS
10
121.076
20
-123.467
11
121.077
21
-123.467
0
LINE
8
BLACK
6
CONTINUOUS
10
120.951
20
-123.617
11
120.882
21
-123.651
0
LINE
8
BLACK
6
CONTINUOUS
10
120.882
20
-123.651
11
120.852
21
-123.681
0
LINE
8
BLACK
6
CONTINUOUS
10
120.852
20
-123.681
11
120.817
21
-123.75
0
LINE
8
BLACK
6
CONTINUOUS
10
120.817
20
-123.75
11
120.817
21
-124.038
0
LINE
8
BLACK
6
CONTINUOUS
10
120.817
20
-124.038
11
121.191
21
-124.038
0
LINE
8
BLACK
6
CONTINUOUS
10
121.191
20
-124.038
11
121.191
21
-123.75
0
LINE
8
BLACK
6
CONTINUOUS
10
121.191
20
-123.75
11
121.157
21
-123.681
0
LINE
8
BLACK
6
CONTINUOUS
10
121.157
20
-123.681
11
121.127
21
-123.651
0
LINE
8
BLACK
6
CONTINUOUS
10
121.127
20
-123.651
11
121.058
21
-123.617
0
LINE
8
BLACK
6
CONTINUOUS
10
121.058
20
-123.617
11
120.951
21
-123.617
0
LINE
8
BLACK
6
CONTINUOUS
10
121.757
20
-122.516
11
121.771
21
-122.52
0
LINE
8
BLACK
6
CONTINUOUS
10
121.771
20
-122.52
11
121.784
21
-122.527
0
LINE
8
BLACK
6
CONTINUOUS
10
121.784
20
-122.527
11
121.796
21
-122.536
0
LINE
8
BLACK
6
CONTINUOUS
10
121.796
20
-122.536
11
121.805
21
-122.548
0
LINE
8
BLACK
6
CONTINUOUS
10
121.805
20
-122.548
11
121.812
21
-122.561
0
LINE
8
BLACK
6
CONTINUOUS
10
121.812
20
-122.561
11
121.816
21
-122.575
0
LINE
8
BLACK
6
CONTINUOUS
10
121.816
20
-122.575
11
121.817
21
-122.589
0
LINE
8
BLACK
6
CONTINUOUS
10
121.817
20
-122.589
11
121.817
21
-123.161
0
LINE
8
BLACK
6
CONTINUOUS
10
121.817
20
-123.161
11
121.817
21
-123.162
0
LINE
8
BLACK
6
CONTINUOUS
10
121.817
20
-123.162
11
121.816
21
-123.176
0
LINE
8
BLACK
6
CONTINUOUS
10
121.816
20
-123.176
11
121.811
21
-123.19
0
LINE
8
BLACK
6
CONTINUOUS
10
121.811
20
-123.19
11
121.804
21
-123.203
0
LINE
8
BLACK
6
CONTINUOUS
10
121.804
20
-123.203
11
121.795
21
-123.214
0
LINE
8
BLACK
6
CONTINUOUS
10
121.795
20
-123.214
11
121.783
21
-123.223
0
LINE
8
BLACK
6
CONTINUOUS
10
121.783
20
-123.223
11
121.77
21
-123.23
0
LINE
8
BLACK
6
CONTINUOUS
10
121.77
20
-123.23
11
121.756
21
-123.234
0
LINE
8
BLACK
6
CONTINUOUS
10
121.756
20
-123.234
11
121.742
21
-123.236
0
LINE
8
BLACK
6
CONTINUOUS
10
121.742
20
-123.236
11
121.727
21
-123.234
0
LINE
8
BLACK
6
CONTINUOUS
10
121.727
20
-123.234
11
121.713
21
-123.23
0
LINE
8
BLACK
6
CONTINUOUS
10
121.713
20
-123.23
11
121.7
21
-123.223
0
LINE
8
BLACK
6
CONTINUOUS
10
121.7
20
-123.223
11
121.689
21
-123.214
0
LINE
8
BLACK
6
CONTINUOUS
10
121.689
20
-123.214
11
121.68
21
-123.202
0
LINE
8
BLACK
6
CONTINUOUS
10
121.68
20
-123.202
11
121.673
21
-123.189
0
LINE
8
BLACK
6
CONTINUOUS
10
121.673
20
-123.189
11
121.669
21
-123.175
0
LINE
8
BLACK
6
CONTINUOUS
10
121.669
20
-123.175
11
121.667
21
-123.161
0
LINE
8
BLACK
6
CONTINUOUS
10
121.667
20
-123.161
11
121.667
21
-122.95
0
LINE
8
BLACK
6
CONTINUOUS
10
121.667
20
-122.95
11
120.971
21
-122.95
0
LINE
8
BLACK
6
CONTINUOUS
10
120.971
20
-122.95
11
121.034
21
-123.012
0
LINE
8
BLACK
6
CONTINUOUS
10
121.034
20
-123.012
11
121.034
21
-123.013
0
LINE
8
BLACK
6
CONTINUOUS
10
121.034
20
-123.013
11
121.037
21
-123.016
0
LINE
8
BLACK
6
CONTINUOUS
10
121.037
20
-123.016
11
121.04
21
-123.02
0
LINE
8
BLACK
6
CONTINUOUS
10
121.04
20
-123.02
11
121.041
21
-123.022
0
LINE
8
BLACK
6
CONTINUOUS
10
121.041
20
-123.022
11
121.043
21
-123.025
0
LINE
8
BLACK
6
CONTINUOUS
10
121.043
20
-123.025
11
121.045
21
-123.028
0
LINE
8
BLACK
6
CONTINUOUS
10
121.045
20
-123.028
11
121.048
21
-123.032
0
LINE
8
BLACK
6
CONTINUOUS
10
121.048
20
-123.032
11
121.095
21
-123.127
0
LINE
8
BLACK
6
CONTINUOUS
10
121.095
20
-123.127
11
121.096
21
-123.128
0
LINE
8
BLACK
6
CONTINUOUS
10
121.096
20
-123.128
11
121.101
21
-123.142
0
LINE
8
BLACK
6
CONTINUOUS
10
121.101
20
-123.142
11
121.103
21
-123.156
0
LINE
8
BLACK
6
CONTINUOUS
10
121.103
20
-123.156
11
121.102
21
-123.171
0
LINE
8
BLACK
6
CONTINUOUS
10
121.102
20
-123.171
11
121.099
21
-123.185
0
LINE
8
BLACK
6
CONTINUOUS
10
121.099
20
-123.185
11
121.093
21
-123.198
0
LINE
8
BLACK
6
CONTINUOUS
10
121.093
20
-123.198
11
121.084
21
-123.21
0
LINE
8
BLACK
6
CONTINUOUS
10
121.084
20
-123.21
11
121.074
21
-123.22
0
LINE
8
BLACK
6
CONTINUOUS
10
121.074
20
-123.22
11
121.061
21
-123.228
0
LINE
8
BLACK
6
CONTINUOUS
10
121.061
20
-123.228
11
121.047
21
-123.233
0
LINE
8
BLACK
6
CONTINUOUS
10
121.047
20
-123.233
11
121.033
21
-123.236
0
LINE
8
BLACK
6
CONTINUOUS
10
121.033
20
-123.236
11
121.018
21
-123.235
0
LINE
8
BLACK
6
CONTINUOUS
10
121.018
20
-123.235
11
121.004
21
-123.232
0
LINE
8
BLACK
6
CONTINUOUS
10
121.004
20
-123.232
11
120.991
21
-123.226
0
LINE
8
BLACK
6
CONTINUOUS
10
120.991
20
-123.226
11
120.979
21
-123.217
0
LINE
8
BLACK
6
CONTINUOUS
10
120.979
20
-123.217
11
120.969
21
-123.207
0
LINE
8
BLACK
6
CONTINUOUS
10
120.969
20
-123.207
11
120.961
21
-123.194
0
LINE
8
BLACK
6
CONTINUOUS
10
120.961
20
-123.194
11
120.919
21
-123.11
0
LINE
8
BLACK
6
CONTINUOUS
10
120.919
20
-123.11
11
120.837
21
-123.029
0
LINE
8
BLACK
6
CONTINUOUS
10
120.837
20
-123.029
11
120.701
21
-122.937
0
LINE
8
BLACK
6
CONTINUOUS
10
120.701
20
-122.937
11
120.7
21
-122.937
0
LINE
8
BLACK
6
CONTINUOUS
10
120.7
20
-122.937
11
120.7
21
-122.937
0
LINE
8
BLACK
6
CONTINUOUS
10
120.7
20
-122.937
11
120.7
21
-122.937
0
LINE
8
BLACK
6
CONTINUOUS
10
120.7
20
-122.937
11
120.7
21
-122.937
0
LINE
8
BLACK
6
CONTINUOUS
10
120.7
20
-122.937
11
120.694
21
-122.932
0
LINE
8
BLACK
6
CONTINUOUS
10
120.694
20
-122.932
11
120.689
21
-122.927
0
LINE
8
BLACK
6
CONTINUOUS
10
120.689
20
-122.927
11
120.689
21
-122.927
0
LINE
8
BLACK
6
CONTINUOUS
10
120.689
20
-122.927
11
120.689
21
-122.927
0
LINE
8
BLACK
6
CONTINUOUS
10
120.689
20
-122.927
11
120.684
21
-122.922
0
LINE
8
BLACK
6
CONTINUOUS
10
120.684
20
-122.922
11
120.68
21
-122.916
0
LINE
8
BLACK
6
CONTINUOUS
10
120.68
20
-122.916
11
120.68
21
-122.916
0
LINE
8
BLACK
6
CONTINUOUS
10
120.68
20
-122.916
11
120.68
21
-122.916
0
LINE
8
BLACK
6
CONTINUOUS
10
120.68
20
-122.916
11
120.676
21
-122.909
0
LINE
8
BLACK
6
CONTINUOUS
10
120.676
20
-122.909
11
120.673
21
-122.903
0
LINE
8
BLACK
6
CONTINUOUS
10
120.673
20
-122.903
11
120.673
21
-122.903
0
LINE
8
BLACK
6
CONTINUOUS
10
120.673
20
-122.903
11
120.673
21
-122.903
0
LINE
8
BLACK
6
CONTINUOUS
10
120.673
20
-122.903
11
120.671
21
-122.896
0
LINE
8
BLACK
6
CONTINUOUS
10
120.671
20
-122.896
11
120.669
21
-122.889
0
LINE
8
BLACK
6
CONTINUOUS
10
120.669
20
-122.889
11
120.669
21
-122.889
0
LINE
8
BLACK
6
CONTINUOUS
10
120.669
20
-122.889
11
120.669
21
-122.889
0
LINE
8
BLACK
6
CONTINUOUS
10
120.669
20
-122.889
11
120.668
21
-122.882
0
LINE
8
BLACK
6
CONTINUOUS
10
120.668
20
-122.882
11
120.667
21
-122.874
0
LINE
8
BLACK
6
CONTINUOUS
10
120.667
20
-122.874
11
120.667
21
-122.874
0
LINE
8
BLACK
6
CONTINUOUS
10
120.667
20
-122.874
11
120.667
21
-122.874
0
LINE
8
BLACK
6
CONTINUOUS
10
120.667
20
-122.874
11
120.668
21
-122.867
0
LINE
8
BLACK
6
CONTINUOUS
10
120.668
20
-122.867
11
120.669
21
-122.86
0
LINE
8
BLACK
6
CONTINUOUS
10
120.669
20
-122.86
11
120.669
21
-122.86
0
LINE
8
BLACK
6
CONTINUOUS
10
120.669
20
-122.86
11
120.669
21
-122.86
0
LINE
8
BLACK
6
CONTINUOUS
10
120.669
20
-122.86
11
120.671
21
-122.853
0
LINE
8
BLACK
6
CONTINUOUS
10
120.671
20
-122.853
11
120.673
21
-122.846
0
LINE
8
BLACK
6
CONTINUOUS
10
120.673
20
-122.846
11
120.673
21
-122.846
0
LINE
8
BLACK
6
CONTINUOUS
10
120.673
20
-122.846
11
120.673
21
-122.846
0
LINE
8
BLACK
6
CONTINUOUS
10
120.673
20
-122.846
11
120.677
21
-122.839
0
LINE
8
BLACK
6
CONTINUOUS
10
120.677
20
-122.839
11
120.68
21
-122.833
0
LINE
8
BLACK
6
CONTINUOUS
10
120.68
20
-122.833
11
120.68
21
-122.833
0
LINE
8
BLACK
6
CONTINUOUS
10
120.68
20
-122.833
11
120.68
21
-122.833
0
LINE
8
BLACK
6
CONTINUOUS
10
120.68
20
-122.833
11
120.685
21
-122.827
0
LINE
8
BLACK
6
CONTINUOUS
10
120.685
20
-122.827
11
120.69
21
-122.822
0
LINE
8
BLACK
6
CONTINUOUS
10
120.69
20
-122.822
11
120.69
21
-122.822
0
LINE
8
BLACK
6
CONTINUOUS
10
120.69
20
-122.822
11
120.69
21
-122.822
0
LINE
8
BLACK
6
CONTINUOUS
10
120.69
20
-122.822
11
120.695
21
-122.817
0
LINE
8
BLACK
6
CONTINUOUS
10
120.695
20
-122.817
11
120.701
21
-122.813
0
LINE
8
BLACK
6
CONTINUOUS
10
120.701
20
-122.813
11
120.701
21
-122.813
0
LINE
8
BLACK
6
CONTINUOUS
10
120.701
20
-122.813
11
120.701
21
-122.812
0
LINE
8
BLACK
6
CONTINUOUS
10
120.701
20
-122.812
11
120.708
21
-122.809
0
LINE
8
BLACK
6
CONTINUOUS
10
120.708
20
-122.809
11
120.714
21
-122.806
0
LINE
8
BLACK
6
CONTINUOUS
10
120.714
20
-122.806
11
120.714
21
-122.806
0
LINE
8
BLACK
6
CONTINUOUS
10
120.714
20
-122.806
11
120.714
21
-122.806
0
LINE
8
BLACK
6
CONTINUOUS
10
120.714
20
-122.806
11
120.721
21
-122.804
0
LINE
8
BLACK
6
CONTINUOUS
10
120.721
20
-122.804
11
120.728
21
-122.801
0
LINE
8
BLACK
6
CONTINUOUS
10
120.728
20
-122.801
11
120.728
21
-122.801
0
LINE
8
BLACK
6
CONTINUOUS
10
120.728
20
-122.801
11
120.728
21
-122.801
0
LINE
8
BLACK
6
CONTINUOUS
10
120.728
20
-122.801
11
120.735
21
-122.801
0
LINE
8
BLACK
6
CONTINUOUS
10
120.735
20
-122.801
11
120.742
21
-122.8
0
LINE
8
BLACK
6
CONTINUOUS
10
120.742
20
-122.8
11
121.667
21
-122.8
0
LINE
8
BLACK
6
CONTINUOUS
10
121.667
20
-122.8
11
121.667
21
-122.589
0
LINE
8
BLACK
6
CONTINUOUS
10
121.667
20
-122.589
11
121.667
21
-122.588
0
LINE
8
BLACK
6
CONTINUOUS
10
121.667
20
-122.588
11
121.669
21
-122.574
0
LINE
8
BLACK
6
CONTINUOUS
10
121.669
20
-122.574
11
121.673
21
-122.56
0
LINE
8
BLACK
6
CONTINUOUS
10
121.673
20
-122.56
11
121.68
21
-122.547
0
LINE
8
BLACK
6
CONTINUOUS
10
121.68
20
-122.547
11
121.69
21
-122.536
0
LINE
8
BLACK
6
CONTINUOUS
10
121.69
20
-122.536
11
121.701
21
-122.527
0
LINE
8
BLACK
6
CONTINUOUS
10
121.701
20
-122.527
11
121.714
21
-122.52
0
LINE
8
BLACK
6
CONTINUOUS
10
121.714
20
-122.52
11
121.728
21
-122.516
0
LINE
8
BLACK
6
CONTINUOUS
10
121.728
20
-122.516
11
121.743
21
-122.514
0
LINE
8
BLACK
6
CONTINUOUS
10
121.743
20
-122.514
11
121.757
21
-122.516
0
LINE
8
BLACK
6
CONTINUOUS
10
132.703
20
-121.07
11
132.703
21
-121.07
0
LINE
8
BLACK
6
CONTINUOUS
10
132.703
20
-121.07
11
132.712
21
-121.071
0
LINE
8
BLACK
6
CONTINUOUS
10
132.712
20
-121.071
11
132.723
21
-121.074
0
LINE
8
BLACK
6
CONTINUOUS
10
132.723
20
-121.074
11
132.733
21
-121.08
0
LINE
8
BLACK
6
CONTINUOUS
10
132.733
20
-121.08
11
132.743
21
-121.087
0
LINE
8
BLACK
6
CONTINUOUS
10
132.743
20
-121.087
11
132.75
21
-121.097
0
LINE
8
BLACK
6
CONTINUOUS
10
132.75
20
-121.097
11
132.756
21
-121.107
0
LINE
8
BLACK
6
CONTINUOUS
10
132.756
20
-121.107
11
132.759
21
-121.118
0
LINE
8
BLACK
6
CONTINUOUS
10
132.759
20
-121.118
11
132.76
21
-121.13
0
LINE
8
BLACK
6
CONTINUOUS
10
132.76
20
-121.13
11
132.76
21
-121.133
0
LINE
8
BLACK
6
CONTINUOUS
10
132.76
20
-121.133
11
132.76
21
-122.403
0
LINE
8
BLACK
6
CONTINUOUS
10
132.76
20
-122.403
11
132.759
21
-122.412
0
LINE
8
BLACK
6
CONTINUOUS
10
132.759
20
-122.412
11
132.756
21
-122.423
0
LINE
8
BLACK
6
CONTINUOUS
10
132.756
20
-122.423
11
132.75
21
-122.433
0
LINE
8
BLACK
6
CONTINUOUS
10
132.75
20
-122.433
11
132.743
21
-122.443
0
LINE
8
BLACK
6
CONTINUOUS
10
132.743
20
-122.443
11
132.733
21
-122.45
0
LINE
8
BLACK
6
CONTINUOUS
10
132.733
20
-122.45
11
132.723
21
-122.456
0
LINE
8
BLACK
6
CONTINUOUS
10
132.723
20
-122.456
11
132.712
21
-122.459
0
LINE
8
BLACK
6
CONTINUOUS
10
132.712
20
-122.459
11
132.7
21
-122.46
0
LINE
8
BLACK
6
CONTINUOUS
10
132.7
20
-122.46
11
132.688
21
-122.459
0
LINE
8
BLACK
6
CONTINUOUS
10
132.688
20
-122.459
11
132.677
21
-122.456
0
LINE
8
BLACK
6
CONTINUOUS
10
132.677
20
-122.456
11
132.667
21
-122.45
0
LINE
8
BLACK
6
CONTINUOUS
10
132.667
20
-122.45
11
132.657
21
-122.443
0
LINE
8
BLACK
6
CONTINUOUS
10
132.657
20
-122.443
11
132.65
21
-122.433
0
LINE
8
BLACK
6
CONTINUOUS
10
132.65
20
-122.433
11
132.644
21
-122.423
0
LINE
8
BLACK
6
CONTINUOUS
10
132.644
20
-122.423
11
132.641
21
-122.412
0
LINE
8
BLACK
6
CONTINUOUS
10
132.641
20
-122.412
11
132.64
21
-122.403
0
LINE
8
BLACK
6
CONTINUOUS
10
132.64
20
-122.403
11
132.64
21
-121.19
0
LINE
8
BLACK
6
CONTINUOUS
10
132.64
20
-121.19
11
131.427
21
-121.19
0
LINE
8
BLACK
6
CONTINUOUS
10
131.427
20
-121.19
11
131.418
21
-121.189
0
LINE
8
BLACK
6
CONTINUOUS
10
131.418
20
-121.189
11
131.407
21
-121.186
0
LINE
8
BLACK
6
CONTINUOUS
10
131.407
20
-121.186
11
131.397
21
-121.18
0
LINE
8
BLACK
6
CONTINUOUS
10
131.397
20
-121.18
11
131.387
21
-121.173
0
LINE
8
BLACK
6
CONTINUOUS
10
131.387
20
-121.173
11
131.38
21
-121.163
0
LINE
8
BLACK
6
CONTINUOUS
10
131.38
20
-121.163
11
131.374
21
-121.153
0
LINE
8
BLACK
6
CONTINUOUS
10
131.374
20
-121.153
11
131.371
21
-121.142
0
LINE
8
BLACK
6
CONTINUOUS
10
131.371
20
-121.142
11
131.37
21
-121.13
0
LINE
8
BLACK
6
CONTINUOUS
10
131.37
20
-121.13
11
131.371
21
-121.118
0
LINE
8
BLACK
6
CONTINUOUS
10
131.371
20
-121.118
11
131.374
21
-121.107
0
LINE
8
BLACK
6
CONTINUOUS
10
131.374
20
-121.107
11
131.38
21
-121.097
0
LINE
8
BLACK
6
CONTINUOUS
10
131.38
20
-121.097
11
131.387
21
-121.087
0
LINE
8
BLACK
6
CONTINUOUS
10
131.387
20
-121.087
11
131.397
21
-121.08
0
LINE
8
BLACK
6
CONTINUOUS
10
131.397
20
-121.08
11
131.407
21
-121.074
0
LINE
8
BLACK
6
CONTINUOUS
10
131.407
20
-121.074
11
131.418
21
-121.071
0
LINE
8
BLACK
6
CONTINUOUS
10
131.418
20
-121.071
11
131.427
21
-121.07
0
LINE
8
BLACK
6
CONTINUOUS
10
131.427
20
-121.07
11
132.697
21
-121.07
0
LINE
8
BLACK
6
CONTINUOUS
10
132.697
20
-121.07
11
132.7
21
-121.07
0
LINE
8
BLACK
6
CONTINUOUS
10
132.7
20
-121.07
11
132.703
21
-121.07
0
LINE
8
BLACK
6
CONTINUOUS
10
134.671
20
-121.076
11
134.675
21
-121.076
0
LINE
8
BLACK
6
CONTINUOUS
10
134.675
20
-121.076
11
134.68
21
-121.077
0
LINE
8
BLACK
6
CONTINUOUS
10
134.68
20
-121.077
11
134.683
21
-121.077
0
LINE
8
BLACK
6
CONTINUOUS
10
134.683
20
-121.077
11
134.686
21
-121.078
0
LINE
8
BLACK
6
CONTINUOUS
10
134.686
20
-121.078
11
134.69
21
-121.079
0
LINE
8
BLACK
6
CONTINUOUS
10
134.69
20
-121.079
11
134.694
21
-121.08
0
LINE
8
BLACK
6
CONTINUOUS
10
134.694
20
-121.08
11
134.837
21
-121.127
0
LINE
8
BLACK
6
CONTINUOUS
10
134.837
20
-121.127
11
134.838
21
-121.128
0
LINE
8
BLACK
6
CONTINUOUS
10
134.838
20
-121.128
11
134.84
21
-121.129
0
LINE
8
BLACK
6
CONTINUOUS
10
134.84
20
-121.129
11
134.842
21
-121.129
0
LINE
8
BLACK
6
CONTINUOUS
10
134.842
20
-121.129
11
134.846
21
-121.132
0
LINE
8
BLACK
6
CONTINUOUS
10
134.846
20
-121.132
11
134.851
21
-121.134
0
LINE
8
BLACK
6
CONTINUOUS
10
134.851
20
-121.134
11
134.853
21
-121.135
0
LINE
8
BLACK
6
CONTINUOUS
10
134.853
20
-121.135
11
134.855
21
-121.136
0
LINE
8
BLACK
6
CONTINUOUS
10
134.855
20
-121.136
11
134.859
21
-121.139
0
LINE
8
BLACK
6
CONTINUOUS
10
134.859
20
-121.139
11
134.863
21
-121.142
0
LINE
8
BLACK
6
CONTINUOUS
10
134.863
20
-121.142
11
134.864
21
-121.144
0
LINE
8
BLACK
6
CONTINUOUS
10
134.864
20
-121.144
11
134.866
21
-121.145
0
LINE
8
BLACK
6
CONTINUOUS
10
134.866
20
-121.145
11
134.961
21
-121.241
0
LINE
8
BLACK
6
CONTINUOUS
10
134.961
20
-121.241
11
134.962
21
-121.241
0
LINE
8
BLACK
6
CONTINUOUS
10
134.962
20
-121.241
11
134.963
21
-121.243
0
LINE
8
BLACK
6
CONTINUOUS
10
134.963
20
-121.243
11
134.965
21
-121.245
0
LINE
8
BLACK
6
CONTINUOUS
10
134.965
20
-121.245
11
134.968
21
-121.249
0
LINE
8
BLACK
6
CONTINUOUS
10
134.968
20
-121.249
11
134.971
21
-121.253
0
LINE
8
BLACK
6
CONTINUOUS
10
134.971
20
-121.253
11
134.972
21
-121.255
0
LINE
8
BLACK
6
CONTINUOUS
10
134.972
20
-121.255
11
134.973
21
-121.257
0
LINE
8
BLACK
6
CONTINUOUS
10
134.973
20
-121.257
11
134.975
21
-121.261
0
LINE
8
BLACK
6
CONTINUOUS
10
134.975
20
-121.261
11
134.978
21
-121.266
0
LINE
8
BLACK
6
CONTINUOUS
10
134.978
20
-121.266
11
134.978
21
-121.268
0
LINE
8
BLACK
6
CONTINUOUS
10
134.978
20
-121.268
11
134.979
21
-121.27
0
LINE
8
BLACK
6
CONTINUOUS
10
134.979
20
-121.27
11
135.027
21
-121.413
0
LINE
8
BLACK
6
CONTINUOUS
10
135.027
20
-121.413
11
135.027
21
-121.414
0
LINE
8
BLACK
6
CONTINUOUS
10
135.027
20
-121.414
11
135.028
21
-121.418
0
LINE
8
BLACK
6
CONTINUOUS
10
135.028
20
-121.418
11
135.029
21
-121.422
0
LINE
8
BLACK
6
CONTINUOUS
10
135.029
20
-121.422
11
135.03
21
-121.425
0
LINE
8
BLACK
6
CONTINUOUS
10
135.03
20
-121.425
11
135.03
21
-121.428
0
LINE
8
BLACK
6
CONTINUOUS
10
135.03
20
-121.428
11
135.03
21
-121.432
0
LINE
8
BLACK
6
CONTINUOUS
10
135.03
20
-121.432
11
135.031
21
-121.437
0
LINE
8
BLACK
6
CONTINUOUS
10
135.031
20
-121.437
11
135.031
21
-121.532
0
LINE
8
BLACK
6
CONTINUOUS
10
135.031
20
-121.532
11
135.031
21
-121.533
0
LINE
8
BLACK
6
CONTINUOUS
10
135.031
20
-121.533
11
135.029
21
-121.547
0
LINE
8
BLACK
6
CONTINUOUS
10
135.029
20
-121.547
11
135.025
21
-121.561
0
LINE
8
BLACK
6
CONTINUOUS
10
135.025
20
-121.561
11
135.018
21
-121.574
0
LINE
8
BLACK
6
CONTINUOUS
10
135.018
20
-121.574
11
135.008
21
-121.585
0
LINE
8
BLACK
6
CONTINUOUS
10
135.008
20
-121.585
11
134.997
21
-121.595
0
LINE
8
BLACK
6
CONTINUOUS
10
134.997
20
-121.595
11
134.984
21
-121.601
0
LINE
8
BLACK
6
CONTINUOUS
10
134.984
20
-121.601
11
134.97
21
-121.606
0
LINE
8
BLACK
6
CONTINUOUS
10
134.97
20
-121.606
11
134.955
21
-121.607
0
LINE
8
BLACK
6
CONTINUOUS
10
134.955
20
-121.607
11
134.941
21
-121.605
0
LINE
8
BLACK
6
CONTINUOUS
10
134.941
20
-121.605
11
134.927
21
-121.601
0
LINE
8
BLACK
6
CONTINUOUS
10
134.927
20
-121.601
11
134.914
21
-121.594
0
LINE
8
BLACK
6
CONTINUOUS
10
134.914
20
-121.594
11
134.903
21
-121.585
0
LINE
8
BLACK
6
CONTINUOUS
10
134.903
20
-121.585
11
134.893
21
-121.573
0
LINE
8
BLACK
6
CONTINUOUS
10
134.893
20
-121.573
11
134.886
21
-121.56
0
LINE
8
BLACK
6
CONTINUOUS
10
134.886
20
-121.56
11
134.882
21
-121.546
0
LINE
8
BLACK
6
CONTINUOUS
10
134.882
20
-121.546
11
134.881
21
-121.532
0
LINE
8
BLACK
6
CONTINUOUS
10
134.881
20
-121.532
11
134.881
21
-121.449
0
LINE
8
BLACK
6
CONTINUOUS
10
134.881
20
-121.449
11
134.843
21
-121.334
0
LINE
8
BLACK
6
CONTINUOUS
10
134.843
20
-121.334
11
134.772
21
-121.264
0
LINE
8
BLACK
6
CONTINUOUS
10
134.772
20
-121.264
11
134.658
21
-121.226
0
LINE
8
BLACK
6
CONTINUOUS
10
134.658
20
-121.226
11
133.956
21
-121.226
0
LINE
8
BLACK
6
CONTINUOUS
10
133.956
20
-121.226
11
133.955
21
-121.226
0
LINE
8
BLACK
6
CONTINUOUS
10
133.955
20
-121.226
11
133.94
21
-121.224
0
LINE
8
BLACK
6
CONTINUOUS
10
133.94
20
-121.224
11
133.926
21
-121.22
0
LINE
8
BLACK
6
CONTINUOUS
10
133.926
20
-121.22
11
133.913
21
-121.213
0
LINE
8
BLACK
6
CONTINUOUS
10
133.913
20
-121.213
11
133.902
21
-121.203
0
LINE
8
BLACK
6
CONTINUOUS
10
133.902
20
-121.203
11
133.893
21
-121.192
0
LINE
8
BLACK
6
CONTINUOUS
10
133.893
20
-121.192
11
133.886
21
-121.179
0
LINE
8
BLACK
6
CONTINUOUS
10
133.886
20
-121.179
11
133.882
21
-121.165
0
LINE
8
BLACK
6
CONTINUOUS
10
133.882
20
-121.165
11
133.881
21
-121.15
0
LINE
8
BLACK
6
CONTINUOUS
10
133.881
20
-121.15
11
133.882
21
-121.136
0
LINE
8
BLACK
6
CONTINUOUS
10
133.882
20
-121.136
11
133.887
21
-121.122
0
LINE
8
BLACK
6
CONTINUOUS
10
133.887
20
-121.122
11
133.894
21
-121.109
0
LINE
8
BLACK
6
CONTINUOUS
10
133.894
20
-121.109
11
133.903
21
-121.098
0
LINE
8
BLACK
6
CONTINUOUS
10
133.903
20
-121.098
11
133.914
21
-121.088
0
LINE
8
BLACK
6
CONTINUOUS
10
133.914
20
-121.088
11
133.927
21
-121.082
0
LINE
8
BLACK
6
CONTINUOUS
10
133.927
20
-121.082
11
133.941
21
-121.077
0
LINE
8
BLACK
6
CONTINUOUS
10
133.941
20
-121.077
11
133.956
21
-121.076
0
LINE
8
BLACK
6
CONTINUOUS
10
133.956
20
-121.076
11
134.67
21
-121.076
0
LINE
8
BLACK
6
CONTINUOUS
10
134.67
20
-121.076
11
134.671
21
-121.076
0
LINE
8
BLACK
6
CONTINUOUS
10
134.971
20
-120.077
11
134.985
21
-120.082
0
LINE
8
BLACK
6
CONTINUOUS
10
134.985
20
-120.082
11
134.998
21
-120.089
0
LINE
8
BLACK
6
CONTINUOUS
10
134.998
20
-120.089
11
135.009
21
-120.098
0
LINE
8
BLACK
6
CONTINUOUS
10
135.009
20
-120.098
11
135.018
21
-120.109
0
LINE
8
BLACK
6
CONTINUOUS
10
135.018
20
-120.109
11
135.025
21
-120.122
0
LINE
8
BLACK
6
CONTINUOUS
10
135.025
20
-120.122
11
135.029
21
-120.136
0
LINE
8
BLACK
6
CONTINUOUS
10
135.029
20
-120.136
11
135.031
21
-120.151
0
LINE
8
BLACK
6
CONTINUOUS
10
135.031
20
-120.151
11
135.031
21
-120.722
0
LINE
8
BLACK
6
CONTINUOUS
10
135.031
20
-120.722
11
135.031
21
-120.723
0
LINE
8
BLACK
6
CONTINUOUS
10
135.031
20
-120.723
11
135.029
21
-120.738
0
LINE
8
BLACK
6
CONTINUOUS
10
135.029
20
-120.738
11
135.025
21
-120.752
0
LINE
8
BLACK
6
CONTINUOUS
10
135.025
20
-120.752
11
135.018
21
-120.765
0
LINE
8
BLACK
6
CONTINUOUS
10
135.018
20
-120.765
11
135.008
21
-120.776
0
LINE
8
BLACK
6
CONTINUOUS
10
135.008
20
-120.776
11
134.997
21
-120.785
0
LINE
8
BLACK
6
CONTINUOUS
10
134.997
20
-120.785
11
134.984
21
-120.792
0
LINE
8
BLACK
6
CONTINUOUS
10
134.984
20
-120.792
11
134.97
21
-120.796
0
LINE
8
BLACK
6
CONTINUOUS
10
134.97
20
-120.796
11
134.955
21
-120.797
0
LINE
8
BLACK
6
CONTINUOUS
10
134.955
20
-120.797
11
134.941
21
-120.796
0
LINE
8
BLACK
6
CONTINUOUS
10
134.941
20
-120.796
11
134.927
21
-120.791
0
LINE
8
BLACK
6
CONTINUOUS
10
134.927
20
-120.791
11
134.914
21
-120.785
0
LINE
8
BLACK
6
CONTINUOUS
10
134.914
20
-120.785
11
134.903
21
-120.775
0
LINE
8
BLACK
6
CONTINUOUS
10
134.903
20
-120.775
11
134.893
21
-120.764
0
LINE
8
BLACK
6
CONTINUOUS
10
134.893
20
-120.764
11
134.886
21
-120.751
0
LINE
8
BLACK
6
CONTINUOUS
10
134.886
20
-120.751
11
134.882
21
-120.737
0
LINE
8
BLACK
6
CONTINUOUS
10
134.882
20
-120.737
11
134.881
21
-120.722
0
LINE
8
BLACK
6
CONTINUOUS
10
134.881
20
-120.722
11
134.881
21
-120.512
0
LINE
8
BLACK
6
CONTINUOUS
10
134.881
20
-120.512
11
134.184
21
-120.512
0
LINE
8
BLACK
6
CONTINUOUS
10
134.184
20
-120.512
11
134.247
21
-120.574
0
LINE
8
BLACK
6
CONTINUOUS
10
134.247
20
-120.574
11
134.248
21
-120.575
0
LINE
8
BLACK
6
CONTINUOUS
10
134.248
20
-120.575
11
134.25
21
-120.578
0
LINE
8
BLACK
6
CONTINUOUS
10
134.25
20
-120.578
11
134.253
21
-120.581
0
LINE
8
BLACK
6
CONTINUOUS
10
134.253
20
-120.581
11
134.255
21
-120.584
0
LINE
8
BLACK
6
CONTINUOUS
10
134.255
20
-120.584
11
134.257
21
-120.586
0
LINE
8
BLACK
6
CONTINUOUS
10
134.257
20
-120.586
11
134.259
21
-120.59
0
LINE
8
BLACK
6
CONTINUOUS
10
134.259
20
-120.59
11
134.261
21
-120.594
0
LINE
8
BLACK
6
CONTINUOUS
10
134.261
20
-120.594
11
134.309
21
-120.689
0
LINE
8
BLACK
6
CONTINUOUS
10
134.309
20
-120.689
11
134.309
21
-120.69
0
LINE
8
BLACK
6
CONTINUOUS
10
134.309
20
-120.69
11
134.314
21
-120.703
0
LINE
8
BLACK
6
CONTINUOUS
10
134.314
20
-120.703
11
134.316
21
-120.718
0
LINE
8
BLACK
6
CONTINUOUS
10
134.316
20
-120.718
11
134.316
21
-120.733
0
LINE
8
BLACK
6
CONTINUOUS
10
134.316
20
-120.733
11
134.312
21
-120.747
0
LINE
8
BLACK
6
CONTINUOUS
10
134.312
20
-120.747
11
134.306
21
-120.76
0
LINE
8
BLACK
6
CONTINUOUS
10
134.306
20
-120.76
11
134.298
21
-120.772
0
LINE
8
BLACK
6
CONTINUOUS
10
134.298
20
-120.772
11
134.287
21
-120.782
0
LINE
8
BLACK
6
CONTINUOUS
10
134.287
20
-120.782
11
134.275
21
-120.79
0
LINE
8
BLACK
6
CONTINUOUS
10
134.275
20
-120.79
11
134.261
21
-120.795
0
LINE
8
BLACK
6
CONTINUOUS
10
134.261
20
-120.795
11
134.246
21
-120.797
0
LINE
8
BLACK
6
CONTINUOUS
10
134.246
20
-120.797
11
134.232
21
-120.797
0
LINE
8
BLACK
6
CONTINUOUS
10
134.232
20
-120.797
11
134.218
21
-120.793
0
LINE
8
BLACK
6
CONTINUOUS
10
134.218
20
-120.793
11
134.204
21
-120.787
0
LINE
8
BLACK
6
CONTINUOUS
10
134.204
20
-120.787
11
134.192
21
-120.779
0
LINE
8
BLACK
6
CONTINUOUS
10
134.192
20
-120.779
11
134.182
21
-120.768
0
LINE
8
BLACK
6
CONTINUOUS
10
134.182
20
-120.768
11
134.174
21
-120.756
0
LINE
8
BLACK
6
CONTINUOUS
10
134.174
20
-120.756
11
134.132
21
-120.672
0
LINE
8
BLACK
6
CONTINUOUS
10
134.132
20
-120.672
11
134.051
21
-120.59
0
LINE
8
BLACK
6
CONTINUOUS
10
134.051
20
-120.59
11
133.914
21
-120.499
0
LINE
8
BLACK
6
CONTINUOUS
10
133.914
20
-120.499
11
133.913
21
-120.499
0
LINE
8
BLACK
6
CONTINUOUS
10
133.913
20
-120.499
11
133.913
21
-120.499
0
LINE
8
BLACK
6
CONTINUOUS
10
133.913
20
-120.499
11
133.913
21
-120.499
0
LINE
8
BLACK
6
CONTINUOUS
10
133.913
20
-120.499
11
133.913
21
-120.498
0
LINE
8
BLACK
6
CONTINUOUS
10
133.913
20
-120.498
11
133.908
21
-120.494
0
LINE
8
BLACK
6
CONTINUOUS
10
133.908
20
-120.494
11
133.902
21
-120.489
0
LINE
8
BLACK
6
CONTINUOUS
10
133.902
20
-120.489
11
133.902
21
-120.489
0
LINE
8
BLACK
6
CONTINUOUS
10
133.902
20
-120.489
11
133.902
21
-120.489
0
LINE
8
BLACK
6
CONTINUOUS
10
133.902
20
-120.489
11
133.898
21
-120.483
0
LINE
8
BLACK
6
CONTINUOUS
10
133.898
20
-120.483
11
133.893
21
-120.478
0
LINE
8
BLACK
6
CONTINUOUS
10
133.893
20
-120.478
11
133.893
21
-120.478
0
LINE
8
BLACK
6
CONTINUOUS
10
133.893
20
-120.478
11
133.893
21
-120.478
0
LINE
8
BLACK
6
CONTINUOUS
10
133.893
20
-120.478
11
133.889
21
-120.471
0
LINE
8
BLACK
6
CONTINUOUS
10
133.889
20
-120.471
11
133.886
21
-120.465
0
LINE
8
BLACK
6
CONTINUOUS
10
133.886
20
-120.465
11
133.886
21
-120.465
0
LINE
8
BLACK
6
CONTINUOUS
10
133.886
20
-120.465
11
133.886
21
-120.465
0
LINE
8
BLACK
6
CONTINUOUS
10
133.886
20
-120.465
11
133.884
21
-120.458
0
LINE
8
BLACK
6
CONTINUOUS
10
133.884
20
-120.458
11
133.882
21
-120.451
0
LINE
8
BLACK
6
CONTINUOUS
10
133.882
20
-120.451
11
133.882
21
-120.451
0
LINE
8
BLACK
6
CONTINUOUS
10
133.882
20
-120.451
11
133.882
21
-120.451
0
LINE
8
BLACK
6
CONTINUOUS
10
133.882
20
-120.451
11
133.881
21
-120.444
0
LINE
8
BLACK
6
CONTINUOUS
10
133.881
20
-120.444
11
133.881
21
-120.436
0
LINE
8
BLACK
6
CONTINUOUS
10
133.881
20
-120.436
11
133.881
21
-120.436
0
LINE
8
BLACK
6
CONTINUOUS
10
133.881
20
-120.436
11
133.881
21
-120.436
0
LINE
8
BLACK
6
CONTINUOUS
10
133.881
20
-120.436
11
133.882
21
-120.429
0
LINE
8
BLACK
6
CONTINUOUS
10
133.882
20
-120.429
11
133.882
21
-120.422
0
LINE
8
BLACK
6
CONTINUOUS
10
133.882
20
-120.422
11
133.882
21
-120.421
0
LINE
8
BLACK
6
CONTINUOUS
10
133.882
20
-120.421
11
133.882
21
-120.421
0
LINE
8
BLACK
6
CONTINUOUS
10
133.882
20
-120.421
11
133.885
21
-120.414
0
LINE
8
BLACK
6
CONTINUOUS
10
133.885
20
-120.414
11
133.887
21
-120.408
0
LINE
8
BLACK
6
CONTINUOUS
10
133.887
20
-120.408
11
133.887
21
-120.408
0
LINE
8
BLACK
6
CONTINUOUS
10
133.887
20
-120.408
11
133.887
21
-120.407
0
LINE
8
BLACK
6
CONTINUOUS
10
133.887
20
-120.407
11
133.89
21
-120.401
0
LINE
8
BLACK
6
CONTINUOUS
10
133.89
20
-120.401
11
133.894
21
-120.395
0
LINE
8
BLACK
6
CONTINUOUS
10
133.894
20
-120.395
11
133.894
21
-120.395
0
LINE
8
BLACK
6
CONTINUOUS
10
133.894
20
-120.395
11
133.894
21
-120.395
0
LINE
8
BLACK
6
CONTINUOUS
10
133.894
20
-120.395
11
133.898
21
-120.389
0
LINE
8
BLACK
6
CONTINUOUS
10
133.898
20
-120.389
11
133.903
21
-120.383
0
LINE
8
BLACK
6
CONTINUOUS
10
133.903
20
-120.383
11
133.903
21
-120.383
0
LINE
8
BLACK
6
CONTINUOUS
10
133.903
20
-120.383
11
133.903
21
-120.383
0
LINE
8
BLACK
6
CONTINUOUS
10
133.903
20
-120.383
11
133.909
21
-120.379
0
LINE
8
BLACK
6
CONTINUOUS
10
133.909
20
-120.379
11
133.914
21
-120.374
0
LINE
8
BLACK
6
CONTINUOUS
10
133.914
20
-120.374
11
133.914
21
-120.374
0
LINE
8
BLACK
6
CONTINUOUS
10
133.914
20
-120.374
11
133.914
21
-120.374
0
LINE
8
BLACK
6
CONTINUOUS
10
133.914
20
-120.374
11
133.921
21
-120.371
0
LINE
8
BLACK
6
CONTINUOUS
10
133.921
20
-120.371
11
133.927
21
-120.367
0
LINE
8
BLACK
6
CONTINUOUS
10
133.927
20
-120.367
11
133.927
21
-120.367
0
LINE
8
BLACK
6
CONTINUOUS
10
133.927
20
-120.367
11
133.927
21
-120.367
0
LINE
8
BLACK
6
CONTINUOUS
10
133.927
20
-120.367
11
133.934
21
-120.365
0
LINE
8
BLACK
6
CONTINUOUS
10
133.934
20
-120.365
11
133.941
21
-120.363
0
LINE
8
BLACK
6
CONTINUOUS
10
133.941
20
-120.363
11
133.941
21
-120.363
0
LINE
8
BLACK
6
CONTINUOUS
10
133.941
20
-120.363
11
133.941
21
-120.363
0
LINE
8
BLACK
6
CONTINUOUS
10
133.941
20
-120.363
11
133.949
21
-120.362
0
LINE
8
BLACK
6
CONTINUOUS
10
133.949
20
-120.362
11
133.956
21
-120.362
0
LINE
8
BLACK
6
CONTINUOUS
10
133.956
20
-120.362
11
134.881
21
-120.362
0
LINE
8
BLACK
6
CONTINUOUS
10
134.881
20
-120.362
11
134.881
21
-120.151
0
LINE
8
BLACK
6
CONTINUOUS
10
134.881
20
-120.151
11
134.881
21
-120.15
0
LINE
8
BLACK
6
CONTINUOUS
10
134.881
20
-120.15
11
134.882
21
-120.135
0
LINE
8
BLACK
6
CONTINUOUS
10
134.882
20
-120.135
11
134.887
21
-120.121
0
LINE
8
BLACK
6
CONTINUOUS
10
134.887
20
-120.121
11
134.894
21
-120.109
0
LINE
8
BLACK
6
CONTINUOUS
10
134.894
20
-120.109
11
134.903
21
-120.097
0
LINE
8
BLACK
6
CONTINUOUS
10
134.903
20
-120.097
11
134.915
21
-120.088
0
LINE
8
BLACK
6
CONTINUOUS
10
134.915
20
-120.088
11
134.928
21
-120.081
0
LINE
8
BLACK
6
CONTINUOUS
10
134.928
20
-120.081
11
134.942
21
-120.077
0
LINE
8
BLACK
6
CONTINUOUS
10
134.942
20
-120.077
11
134.956
21
-120.076
0
LINE
8
BLACK
6
CONTINUOUS
10
134.956
20
-120.076
11
134.971
21
-120.077
0
LINE
8
BLACK
6
CONTINUOUS
10
134.941
20
-115.581
11
134.941
21
-115.581
0
LINE
8
BLACK
6
CONTINUOUS
10
134.941
20
-115.581
11
134.95
21
-115.582
0
LINE
8
BLACK
6
CONTINUOUS
10
134.95
20
-115.582
11
134.961
21
-115.585
0
LINE
8
BLACK
6
CONTINUOUS
10
134.961
20
-115.585
11
134.971
21
-115.591
0
LINE
8
BLACK
6
CONTINUOUS
10
134.971
20
-115.591
11
134.981
21
-115.598
0
LINE
8
BLACK
6
CONTINUOUS
10
134.981
20
-115.598
11
134.988
21
-115.608
0
LINE
8
BLACK
6
CONTINUOUS
10
134.988
20
-115.608
11
134.994
21
-115.618
0
LINE
8
BLACK
6
CONTINUOUS
10
134.994
20
-115.618
11
134.997
21
-115.629
0
LINE
8
BLACK
6
CONTINUOUS
10
134.997
20
-115.629
11
134.998
21
-115.641
0
LINE
8
BLACK
6
CONTINUOUS
10
134.998
20
-115.641
11
134.998
21
-115.644
0
LINE
8
BLACK
6
CONTINUOUS
10
134.998
20
-115.644
11
134.998
21
-117.698
0
LINE
8
BLACK
6
CONTINUOUS
10
134.998
20
-117.698
11
134.998
21
-117.701
0
LINE
8
BLACK
6
CONTINUOUS
10
134.998
20
-117.701
11
134.998
21
-117.704
0
LINE
8
BLACK
6
CONTINUOUS
10
134.998
20
-117.704
11
134.997
21
-117.713
0
LINE
8
BLACK
6
CONTINUOUS
10
134.997
20
-117.713
11
134.994
21
-117.724
0
LINE
8
BLACK
6
CONTINUOUS
10
134.994
20
-117.724
11
134.988
21
-117.735
0
LINE
8
BLACK
6
CONTINUOUS
10
134.988
20
-117.735
11
134.981
21
-117.744
0
LINE
8
BLACK
6
CONTINUOUS
10
134.981
20
-117.744
11
134.971
21
-117.751
0
LINE
8
BLACK
6
CONTINUOUS
10
134.971
20
-117.751
11
134.961
21
-117.757
0
LINE
8
BLACK
6
CONTINUOUS
10
134.961
20
-117.757
11
134.95
21
-117.76
0
LINE
8
BLACK
6
CONTINUOUS
10
134.95
20
-117.76
11
134.938
21
-117.761
0
LINE
8
BLACK
6
CONTINUOUS
10
134.938
20
-117.761
11
134.935
21
-117.761
0
LINE
8
BLACK
6
CONTINUOUS
10
134.935
20
-117.761
11
132.938
21
-117.761
0
LINE
8
BLACK
6
CONTINUOUS
10
132.938
20
-117.761
11
132.938
21
-119.758
0
LINE
8
BLACK
6
CONTINUOUS
10
132.938
20
-119.758
11
132.938
21
-119.761
0
LINE
8
BLACK
6
CONTINUOUS
10
132.938
20
-119.761
11
132.938
21
-119.764
0
LINE
8
BLACK
6
CONTINUOUS
10
132.938
20
-119.764
11
132.937
21
-119.773
0
LINE
8
BLACK
6
CONTINUOUS
10
132.937
20
-119.773
11
132.934
21
-119.784
0
LINE
8
BLACK
6
CONTINUOUS
10
132.934
20
-119.784
11
132.928
21
-119.795
0
LINE
8
BLACK
6
CONTINUOUS
10
132.928
20
-119.795
11
132.921
21
-119.804
0
LINE
8
BLACK
6
CONTINUOUS
10
132.921
20
-119.804
11
132.911
21
-119.811
0
LINE
8
BLACK
6
CONTINUOUS
10
132.911
20
-119.811
11
132.901
21
-119.817
0
LINE
8
BLACK
6
CONTINUOUS
10
132.901
20
-119.817
11
132.89
21
-119.82
0
LINE
8
BLACK
6
CONTINUOUS
10
132.89
20
-119.82
11
132.878
21
-119.821
0
LINE
8
BLACK
6
CONTINUOUS
10
132.878
20
-119.821
11
132.875
21
-119.821
0
LINE
8
BLACK
6
CONTINUOUS
10
132.875
20
-119.821
11
120.821
21
-119.821
0
LINE
8
BLACK
6
CONTINUOUS
10
120.821
20
-119.821
11
120.818
21
-119.821
0
LINE
8
BLACK
6
CONTINUOUS
10
120.818
20
-119.821
11
120.815
21
-119.821
0
LINE
8
BLACK
6
CONTINUOUS
10
120.815
20
-119.821
11
120.815
21
-119.821
0
LINE
8
BLACK
6
CONTINUOUS
10
120.815
20
-119.821
11
120.806
21
-119.82
0
LINE
8
BLACK
6
CONTINUOUS
10
120.806
20
-119.82
11
120.795
21
-119.817
0
LINE
8
BLACK
6
CONTINUOUS
10
120.795
20
-119.817
11
120.784
21
-119.811
0
LINE
8
BLACK
6
CONTINUOUS
10
120.784
20
-119.811
11
120.775
21
-119.804
0
LINE
8
BLACK
6
CONTINUOUS
10
120.775
20
-119.804
11
120.768
21
-119.795
0
LINE
8
BLACK
6
CONTINUOUS
10
120.768
20
-119.795
11
120.762
21
-119.784
0
LINE
8
BLACK
6
CONTINUOUS
10
120.762
20
-119.784
11
120.759
21
-119.773
0
LINE
8
BLACK
6
CONTINUOUS
10
120.759
20
-119.773
11
120.758
21
-119.761
0
LINE
8
BLACK
6
CONTINUOUS
10
120.758
20
-119.761
11
120.758
21
-119.758
0
LINE
8
BLACK
6
CONTINUOUS
10
120.758
20
-119.758
11
120.758
21
-115.644
0
LINE
8
BLACK
6
CONTINUOUS
10
120.758
20
-115.644
11
120.758
21
-115.641
0
LINE
8
BLACK
6
CONTINUOUS
10
120.758
20
-115.641
11
120.759
21
-115.629
0
LINE
8
BLACK
6
CONTINUOUS
10
120.759
20
-115.629
11
120.762
21
-115.618
0
LINE
8
BLACK
6
CONTINUOUS
10
120.762
20
-115.618
11
120.768
21
-115.608
0
LINE
8
BLACK
6
CONTINUOUS
10
120.768
20
-115.608
11
120.775
21
-115.598
0
LINE
8
BLACK
6
CONTINUOUS
10
120.775
20
-115.598
11
120.784
21
-115.591
0
LINE
8
BLACK
6
CONTINUOUS
10
120.784
20
-115.591
11
120.795
21
-115.585
0
LINE
8
BLACK
6
CONTINUOUS
10
120.795
20
-115.585
11
120.806
21
-115.582
0
LINE
8
BLACK
6
CONTINUOUS
10
120.806
20
-115.582
11
120.815
21
-115.581
0
LINE
8
BLACK
6
CONTINUOUS
10
120.815
20
-115.581
11
120.818
21
-115.581
0
LINE
8
BLACK
6
CONTINUOUS
10
120.818
20
-115.581
11
120.821
21
-115.581
0
LINE
8
BLACK
6
CONTINUOUS
10
120.821
20
-115.581
11
134.935
21
-115.581
0
LINE
8
BLACK
6
CONTINUOUS
10
134.935
20
-115.581
11
134.938
21
-115.581
0
LINE
8
BLACK
6
CONTINUOUS
10
134.938
20
-115.581
11
134.941
21
-115.581
0
LINE
8
BLACK
6
CONTINUOUS
10
120.878
20
-115.701
11
120.878
21
-119.701
0
LINE
8
BLACK
6
CONTINUOUS
10
120.878
20
-119.701
11
132.818
21
-119.701
0
LINE
8
BLACK
6
CONTINUOUS
10
132.818
20
-119.701
11
132.818
21
-117.704
0
LINE
8
BLACK
6
CONTINUOUS
10
132.818
20
-117.704
11
132.818
21
-117.701
0
LINE
8
BLACK
6
CONTINUOUS
10
132.818
20
-117.701
11
132.819
21
-117.689
0
LINE
8
BLACK
6
CONTINUOUS
10
132.819
20
-117.689
11
132.822
21
-117.678
0
LINE
8
BLACK
6
CONTINUOUS
10
132.822
20
-117.678
11
132.828
21
-117.668
0
LINE
8
BLACK
6
CONTINUOUS
10
132.828
20
-117.668
11
132.835
21
-117.658
0
LINE
8
BLACK
6
CONTINUOUS
10
132.835
20
-117.658
11
132.844
21
-117.651
0
LINE
8
BLACK
6
CONTINUOUS
10
132.844
20
-117.651
11
132.855
21
-117.645
0
LINE
8
BLACK
6
CONTINUOUS
10
132.855
20
-117.645
11
132.866
21
-117.642
0
LINE
8
BLACK
6
CONTINUOUS
10
132.866
20
-117.642
11
132.875
21
-117.641
0
LINE
8
BLACK
6
CONTINUOUS
10
132.875
20
-117.641
11
132.878
21
-117.641
0
LINE
8
BLACK
6
CONTINUOUS
10
132.878
20
-117.641
11
132.881
21
-117.641
0
LINE
8
BLACK
6
CONTINUOUS
10
132.881
20
-117.641
11
134.878
21
-117.641
0
LINE
8
BLACK
6
CONTINUOUS
10
134.878
20
-117.641
11
134.878
21
-115.701
0
LINE
8
BLACK
6
CONTINUOUS
10
134.878
20
-115.701
11
120.878
21
-115.701
0
LINE
8
BLACK
6
CONTINUOUS
10
134.95
20
-118.642
11
134.961
21
-118.645
0
LINE
8
BLACK
6
CONTINUOUS
10
134.961
20
-118.645
11
134.971
21
-118.651
0
LINE
8
BLACK
6
CONTINUOUS
10
134.971
20
-118.651
11
134.981
21
-118.658
0
LINE
8
BLACK
6
CONTINUOUS
10
134.981
20
-118.658
11
134.988
21
-118.668
0
LINE
8
BLACK
6
CONTINUOUS
10
134.988
20
-118.668
11
134.994
21
-118.678
0
LINE
8
BLACK
6
CONTINUOUS
10
134.994
20
-118.678
11
134.997
21
-118.689
0
LINE
8
BLACK
6
CONTINUOUS
10
134.997
20
-118.689
11
134.998
21
-118.698
0
LINE
8
BLACK
6
CONTINUOUS
10
134.998
20
-118.698
11
134.998
21
-119.758
0
LINE
8
BLACK
6
CONTINUOUS
10
134.998
20
-119.758
11
134.998
21
-119.761
0
LINE
8
BLACK
6
CONTINUOUS
10
134.998
20
-119.761
11
134.998
21
-119.764
0
LINE
8
BLACK
6
CONTINUOUS
10
134.998
20
-119.764
11
134.997
21
-119.773
0
LINE
8
BLACK
6
CONTINUOUS
10
134.997
20
-119.773
11
134.994
21
-119.784
0
LINE
8
BLACK
6
CONTINUOUS
10
134.994
20
-119.784
11
134.988
21
-119.795
0
LINE
8
BLACK
6
CONTINUOUS
10
134.988
20
-119.795
11
134.981
21
-119.804
0
LINE
8
BLACK
6
CONTINUOUS
10
134.981
20
-119.804
11
134.971
21
-119.811
0
LINE
8
BLACK
6
CONTINUOUS
10
134.971
20
-119.811
11
134.961
21
-119.817
0
LINE
8
BLACK
6
CONTINUOUS
10
134.961
20
-119.817
11
134.95
21
-119.82
0
LINE
8
BLACK
6
CONTINUOUS
10
134.95
20
-119.82
11
134.938
21
-119.821
0
LINE
8
BLACK
6
CONTINUOUS
10
134.938
20
-119.821
11
134.935
21
-119.821
0
LINE
8
BLACK
6
CONTINUOUS
10
134.935
20
-119.821
11
133.875
21
-119.821
0
LINE
8
BLACK
6
CONTINUOUS
10
133.875
20
-119.821
11
133.866
21
-119.82
0
LINE
8
BLACK
6
CONTINUOUS
10
133.866
20
-119.82
11
133.855
21
-119.817
0
LINE
8
BLACK
6
CONTINUOUS
10
133.855
20
-119.817
11
133.844
21
-119.811
0
LINE
8
BLACK
6
CONTINUOUS
10
133.844
20
-119.811
11
133.835
21
-119.804
0
LINE
8
BLACK
6
CONTINUOUS
10
133.835
20
-119.804
11
133.828
21
-119.795
0
LINE
8
BLACK
6
CONTINUOUS
10
133.828
20
-119.795
11
133.822
21
-119.784
0
LINE
8
BLACK
6
CONTINUOUS
10
133.822
20
-119.784
11
133.819
21
-119.773
0
LINE
8
BLACK
6
CONTINUOUS
10
133.819
20
-119.773
11
133.818
21
-119.761
0
LINE
8
BLACK
6
CONTINUOUS
10
133.818
20
-119.761
11
133.819
21
-119.749
0
LINE
8
BLACK
6
CONTINUOUS
10
133.819
20
-119.749
11
133.822
21
-119.738
0
LINE
8
BLACK
6
CONTINUOUS
10
133.822
20
-119.738
11
133.828
21
-119.728
0
LINE
8
BLACK
6
CONTINUOUS
10
133.828
20
-119.728
11
133.835
21
-119.718
0
LINE
8
BLACK
6
CONTINUOUS
10
133.835
20
-119.718
11
133.844
21
-119.711
0
LINE
8
BLACK
6
CONTINUOUS
10
133.844
20
-119.711
11
133.855
21
-119.705
0
LINE
8
BLACK
6
CONTINUOUS
10
133.855
20
-119.705
11
133.866
21
-119.702
0
LINE
8
BLACK
6
CONTINUOUS
10
133.866
20
-119.702
11
133.875
21
-119.701
0
LINE
8
BLACK
6
CONTINUOUS
10
133.875
20
-119.701
11
134.878
21
-119.701
0
LINE
8
BLACK
6
CONTINUOUS
10
134.878
20
-119.701
11
134.878
21
-118.698
0
LINE
8
BLACK
6
CONTINUOUS
10
134.878
20
-118.698
11
134.879
21
-118.689
0
LINE
8
BLACK
6
CONTINUOUS
10
134.879
20
-118.689
11
134.882
21
-118.678
0
LINE
8
BLACK
6
CONTINUOUS
10
134.882
20
-118.678
11
134.888
21
-118.668
0
LINE
8
BLACK
6
CONTINUOUS
10
134.888
20
-118.668
11
134.895
21
-118.658
0
LINE
8
BLACK
6
CONTINUOUS
10
134.895
20
-118.658
11
134.904
21
-118.651
0
LINE
8
BLACK
6
CONTINUOUS
10
134.904
20
-118.651
11
134.915
21
-118.645
0
LINE
8
BLACK
6
CONTINUOUS
10
134.915
20
-118.645
11
134.926
21
-118.642
0
LINE
8
BLACK
6
CONTINUOUS
10
134.926
20
-118.642
11
134.938
21
-118.641
0
LINE
8
BLACK
6
CONTINUOUS
10
134.938
20
-118.641
11
134.95
21
-118.642
  0
ENDSEC
  0
EOF
