G04 #@! TF.FileFunction,Copper,L1,Top,Signal*
%FSLAX46Y46*%
G04 Gerber Fmt 4.6, Leading zero omitted, Abs format (unit mm)*
G04 Created by KiCad (PCBNEW 4.0.2+dfsg1-stable) date ons 25 jan 2017 10:37:56 CET*
%MOMM*%
G01*
G04 APERTURE LIST*
%ADD10C,0.100000*%
%ADD11R,1.000000X1.600000*%
%ADD12R,0.900000X1.700000*%
%ADD13R,1.060000X0.650000*%
%ADD14R,3.000000X2.000000*%
%ADD15R,3.700000X1.727200*%
%ADD16O,3.700000X1.727200*%
%ADD17C,4.850000*%
%ADD18C,0.250000*%
%ADD19C,0.200000*%
G04 APERTURE END LIST*
D10*
D11*
X8358000Y5715000D03*
X5358000Y5715000D03*
X4977000Y14605000D03*
X7977000Y14605000D03*
D12*
X6043000Y3175000D03*
X8943000Y3175000D03*
D13*
X5377000Y10602000D03*
X5377000Y9652000D03*
X5377000Y8702000D03*
X7577000Y8702000D03*
X7577000Y10602000D03*
X7577000Y9652000D03*
D14*
X11811000Y3048000D03*
D15*
X1905000Y6985000D03*
D16*
X1905000Y9525000D03*
X1905000Y12065000D03*
X1905000Y14605000D03*
D17*
X2540000Y2540000D03*
D18*
X6043000Y3175000D02*
X6043000Y3527000D01*
X6043000Y3527000D02*
X8358000Y5715000D01*
X5377000Y10602000D02*
X6238200Y10602000D01*
X6718300Y7893502D02*
X8358000Y5715000D01*
X6718300Y10121900D02*
X6718300Y7893502D01*
X6238200Y10602000D02*
X6718300Y10121900D01*
X5377000Y9652000D02*
X6014298Y9652000D01*
X6248400Y7113400D02*
X5358000Y5715000D01*
X6248400Y9417898D02*
X6248400Y7113400D01*
X6014298Y9652000D02*
X6248400Y9417898D01*
X1905000Y6985000D02*
X3175000Y5715000D01*
X3175000Y5715000D02*
X5358000Y5715000D01*
X5250000Y9779000D02*
X5377000Y9652000D01*
X7577000Y9652000D02*
X8509000Y9652000D01*
X8737600Y11987400D02*
X4977000Y14605000D01*
X8737600Y9880600D02*
X8737600Y11987400D01*
X8509000Y9652000D02*
X8737600Y9880600D01*
X4977000Y14605000D02*
X1905000Y14605000D01*
X1905000Y9525000D02*
X2728000Y8702000D01*
X2728000Y8702000D02*
X5377000Y8702000D01*
X6114000Y12065000D02*
X1905000Y12065000D01*
X7577000Y10602000D02*
X6114000Y12065000D01*
X8943000Y3175000D02*
X9017000Y3175000D01*
X9017000Y3175000D02*
X9271000Y4360333D01*
X9271000Y4360333D02*
X9271000Y7008000D01*
X9271000Y7008000D02*
X7577000Y8702000D01*
D19*
G36*
X21490000Y1243000D02*
X5688000Y1243000D01*
X5688000Y3202000D01*
X6123000Y3202000D01*
X6123000Y2120900D01*
X6130879Y2081994D01*
X6153273Y2049219D01*
X6186654Y2027739D01*
X6223000Y2020900D01*
X8484225Y2020900D01*
X8493000Y2019123D01*
X9393000Y2019123D01*
X9402444Y2020900D01*
X10287000Y2020900D01*
X10325906Y2028779D01*
X10358681Y2051173D01*
X10380161Y2084554D01*
X10387000Y2120900D01*
X10387000Y16410000D01*
X21490000Y16410000D01*
X21490000Y1243000D01*
X21490000Y1243000D01*
G37*
X21490000Y1243000D02*
X5688000Y1243000D01*
X5688000Y3202000D01*
X6123000Y3202000D01*
X6123000Y2120900D01*
X6130879Y2081994D01*
X6153273Y2049219D01*
X6186654Y2027739D01*
X6223000Y2020900D01*
X8484225Y2020900D01*
X8493000Y2019123D01*
X9393000Y2019123D01*
X9402444Y2020900D01*
X10287000Y2020900D01*
X10325906Y2028779D01*
X10358681Y2051173D01*
X10380161Y2084554D01*
X10387000Y2120900D01*
X10387000Y16410000D01*
X21490000Y16410000D01*
X21490000Y1243000D01*
D10*
G36*
X22610000Y250000D02*
X4002648Y250000D01*
X4053286Y270923D01*
X4806432Y1022756D01*
X5214534Y2005575D01*
X5215463Y3069756D01*
X4809077Y4053286D01*
X4057244Y4806432D01*
X3074425Y5214534D01*
X2010244Y5215463D01*
X1026714Y4809077D01*
X273568Y4057244D01*
X250000Y4000486D01*
X250000Y5471500D01*
X4500000Y5471500D01*
X4500000Y4843790D01*
X4554502Y4712210D01*
X4655209Y4611502D01*
X4786789Y4557000D01*
X5114500Y4557000D01*
X5204000Y4646500D01*
X5204000Y5561000D01*
X5512000Y5561000D01*
X5512000Y4646500D01*
X5601500Y4557000D01*
X5929211Y4557000D01*
X6060791Y4611502D01*
X6161498Y4712210D01*
X6216000Y4843790D01*
X6216000Y5471500D01*
X6126500Y5561000D01*
X5512000Y5561000D01*
X5204000Y5561000D01*
X4589500Y5561000D01*
X4500000Y5471500D01*
X250000Y5471500D01*
X250000Y5573703D01*
X762713Y5581010D01*
X782107Y5585226D01*
X798334Y5596656D01*
X808835Y5613498D01*
X812000Y5631005D01*
X812000Y5763400D01*
X1661500Y5763400D01*
X1751000Y5852900D01*
X1751000Y6831000D01*
X2059000Y6831000D01*
X2059000Y5852900D01*
X2148500Y5763400D01*
X3826211Y5763400D01*
X3957791Y5817902D01*
X4058498Y5918610D01*
X4113000Y6050190D01*
X4113000Y6586210D01*
X4500000Y6586210D01*
X4500000Y5958500D01*
X4589500Y5869000D01*
X5204000Y5869000D01*
X5204000Y6783500D01*
X5512000Y6783500D01*
X5512000Y5869000D01*
X6126500Y5869000D01*
X6216000Y5958500D01*
X6216000Y6586210D01*
X6161498Y6717790D01*
X6060791Y6818498D01*
X5929211Y6873000D01*
X5601500Y6873000D01*
X5512000Y6783500D01*
X5204000Y6783500D01*
X5114500Y6873000D01*
X4786789Y6873000D01*
X4655209Y6818498D01*
X4554502Y6717790D01*
X4500000Y6586210D01*
X4113000Y6586210D01*
X4113000Y6741500D01*
X4023500Y6831000D01*
X2059000Y6831000D01*
X1751000Y6831000D01*
X1731000Y6831000D01*
X1731000Y7139000D01*
X1751000Y7139000D01*
X1751000Y8117100D01*
X2059000Y8117100D01*
X2059000Y7139000D01*
X4023500Y7139000D01*
X4113000Y7228500D01*
X4113000Y7919810D01*
X4058498Y8051390D01*
X3957791Y8152098D01*
X3826211Y8206600D01*
X2148500Y8206600D01*
X2059000Y8117100D01*
X1751000Y8117100D01*
X1661500Y8206600D01*
X812000Y8206600D01*
X812000Y8424421D01*
X877459Y8411400D01*
X2500901Y8411400D01*
X2584494Y8355545D01*
X2728000Y8327000D01*
X4601511Y8327000D01*
X4609535Y8284356D01*
X4664288Y8199268D01*
X4747831Y8142185D01*
X4847000Y8122103D01*
X5907000Y8122103D01*
X5999644Y8139535D01*
X6084732Y8194288D01*
X6141815Y8277831D01*
X6161897Y8377000D01*
X6161897Y9027000D01*
X6154199Y9067911D01*
X6210498Y9124210D01*
X6265000Y9255790D01*
X6265000Y9408500D01*
X6175500Y9498000D01*
X5531000Y9498000D01*
X5531000Y9478000D01*
X5223000Y9478000D01*
X5223000Y9498000D01*
X4578500Y9498000D01*
X4489000Y9408500D01*
X4489000Y9255790D01*
X4543502Y9124210D01*
X4590712Y9077000D01*
X3946777Y9077000D01*
X3961373Y9098844D01*
X4046141Y9525000D01*
X3961373Y9951156D01*
X3719975Y10312434D01*
X3358697Y10553832D01*
X2932541Y10638600D01*
X877459Y10638600D01*
X812000Y10625579D01*
X812000Y10964421D01*
X877459Y10951400D01*
X2932541Y10951400D01*
X3358697Y11036168D01*
X3719975Y11277566D01*
X3961373Y11638844D01*
X3971549Y11690000D01*
X5958670Y11690000D01*
X6792103Y10856567D01*
X6792103Y10578427D01*
X6503365Y10867165D01*
X6381707Y10948455D01*
X6238200Y10977000D01*
X6152489Y10977000D01*
X6144465Y11019644D01*
X6089712Y11104732D01*
X6006169Y11161815D01*
X5907000Y11181897D01*
X4847000Y11181897D01*
X4754356Y11164465D01*
X4669268Y11109712D01*
X4612185Y11026169D01*
X4592103Y10927000D01*
X4592103Y10277000D01*
X4599801Y10236089D01*
X4543502Y10179790D01*
X4489000Y10048210D01*
X4489000Y9895500D01*
X4578500Y9806000D01*
X5223000Y9806000D01*
X5223000Y9826000D01*
X5531000Y9826000D01*
X5531000Y9806000D01*
X6175500Y9806000D01*
X6265000Y9895500D01*
X6265000Y10044870D01*
X6343300Y9966570D01*
X6343300Y7893502D01*
X6352535Y7847074D01*
X6355192Y7799813D01*
X6366680Y7775961D01*
X6371845Y7749996D01*
X6398144Y7710637D01*
X6418685Y7667990D01*
X6727660Y7257487D01*
X6008540Y7249869D01*
X5989130Y7245724D01*
X5972862Y7234354D01*
X5962300Y7217550D01*
X5959107Y7197961D01*
X5963786Y7178673D01*
X5975602Y7162726D01*
X5992690Y7152631D01*
X6009498Y7149874D01*
X6803546Y7156664D01*
X7603103Y6094374D01*
X7603103Y5517504D01*
X6293660Y4279897D01*
X5593000Y4279897D01*
X5500356Y4262465D01*
X5415268Y4207712D01*
X5358185Y4124169D01*
X5338103Y4025000D01*
X5338103Y3987000D01*
X5334000Y3987000D01*
X5314547Y3983061D01*
X5298160Y3971864D01*
X5287419Y3955173D01*
X5284011Y3935959D01*
X5347511Y887959D01*
X5351854Y868592D01*
X5363391Y852441D01*
X5380301Y842051D01*
X5397500Y839000D01*
X21844000Y839000D01*
X21863453Y842939D01*
X21879840Y854136D01*
X21890581Y870827D01*
X21894000Y889000D01*
X21894000Y16764000D01*
X21890061Y16783453D01*
X21878864Y16799840D01*
X21862173Y16810581D01*
X21844000Y16814000D01*
X10033000Y16814000D01*
X10013547Y16810061D01*
X9997160Y16798864D01*
X9986419Y16782173D01*
X9983000Y16764000D01*
X9983000Y2336000D01*
X9647897Y2336000D01*
X9647897Y4025000D01*
X9630465Y4117644D01*
X9609492Y4150236D01*
X9637676Y4281760D01*
X9638261Y4321425D01*
X9646000Y4360333D01*
X9646000Y7008000D01*
X9617455Y7151506D01*
X9536165Y7273165D01*
X8361897Y8447433D01*
X8361897Y9027000D01*
X8344465Y9119644D01*
X8307327Y9177357D01*
X8341815Y9227831D01*
X8351772Y9277000D01*
X8509000Y9277000D01*
X8652507Y9305545D01*
X8774165Y9386835D01*
X9002765Y9615435D01*
X9084055Y9737093D01*
X9112600Y9880600D01*
X9112600Y11987400D01*
X9106085Y12020156D01*
X9106720Y12053548D01*
X9091949Y12091221D01*
X9084055Y12130906D01*
X9065501Y12158674D01*
X9053309Y12189769D01*
X9025244Y12218923D01*
X9002765Y12252565D01*
X8974998Y12271118D01*
X8951834Y12295181D01*
X5983238Y14361500D01*
X7119000Y14361500D01*
X7119000Y13733790D01*
X7173502Y13602210D01*
X7274209Y13501502D01*
X7405789Y13447000D01*
X7733500Y13447000D01*
X7823000Y13536500D01*
X7823000Y14451000D01*
X8131000Y14451000D01*
X8131000Y13536500D01*
X8220500Y13447000D01*
X8548211Y13447000D01*
X8679791Y13501502D01*
X8780498Y13602210D01*
X8835000Y13733790D01*
X8835000Y14361500D01*
X8745500Y14451000D01*
X8131000Y14451000D01*
X7823000Y14451000D01*
X7208500Y14451000D01*
X7119000Y14361500D01*
X5983238Y14361500D01*
X5731897Y14536448D01*
X5731897Y15405000D01*
X5718499Y15476210D01*
X7119000Y15476210D01*
X7119000Y14848500D01*
X7208500Y14759000D01*
X7823000Y14759000D01*
X7823000Y15673500D01*
X8131000Y15673500D01*
X8131000Y14759000D01*
X8745500Y14759000D01*
X8835000Y14848500D01*
X8835000Y15476210D01*
X8780498Y15607790D01*
X8679791Y15708498D01*
X8548211Y15763000D01*
X8220500Y15763000D01*
X8131000Y15673500D01*
X7823000Y15673500D01*
X7733500Y15763000D01*
X7405789Y15763000D01*
X7274209Y15708498D01*
X7173502Y15607790D01*
X7119000Y15476210D01*
X5718499Y15476210D01*
X5714465Y15497644D01*
X5659712Y15582732D01*
X5576169Y15639815D01*
X5477000Y15659897D01*
X4477000Y15659897D01*
X4384356Y15642465D01*
X4299268Y15587712D01*
X4242185Y15504169D01*
X4222103Y15405000D01*
X4222103Y14980000D01*
X3971549Y14980000D01*
X3961373Y15031156D01*
X3719975Y15392434D01*
X3358697Y15633832D01*
X2932541Y15718600D01*
X877459Y15718600D01*
X812000Y15705579D01*
X812000Y17530000D01*
X22610000Y17530000D01*
X22610000Y250000D01*
X22610000Y250000D01*
G37*
X22610000Y250000D02*
X4002648Y250000D01*
X4053286Y270923D01*
X4806432Y1022756D01*
X5214534Y2005575D01*
X5215463Y3069756D01*
X4809077Y4053286D01*
X4057244Y4806432D01*
X3074425Y5214534D01*
X2010244Y5215463D01*
X1026714Y4809077D01*
X273568Y4057244D01*
X250000Y4000486D01*
X250000Y5471500D01*
X4500000Y5471500D01*
X4500000Y4843790D01*
X4554502Y4712210D01*
X4655209Y4611502D01*
X4786789Y4557000D01*
X5114500Y4557000D01*
X5204000Y4646500D01*
X5204000Y5561000D01*
X5512000Y5561000D01*
X5512000Y4646500D01*
X5601500Y4557000D01*
X5929211Y4557000D01*
X6060791Y4611502D01*
X6161498Y4712210D01*
X6216000Y4843790D01*
X6216000Y5471500D01*
X6126500Y5561000D01*
X5512000Y5561000D01*
X5204000Y5561000D01*
X4589500Y5561000D01*
X4500000Y5471500D01*
X250000Y5471500D01*
X250000Y5573703D01*
X762713Y5581010D01*
X782107Y5585226D01*
X798334Y5596656D01*
X808835Y5613498D01*
X812000Y5631005D01*
X812000Y5763400D01*
X1661500Y5763400D01*
X1751000Y5852900D01*
X1751000Y6831000D01*
X2059000Y6831000D01*
X2059000Y5852900D01*
X2148500Y5763400D01*
X3826211Y5763400D01*
X3957791Y5817902D01*
X4058498Y5918610D01*
X4113000Y6050190D01*
X4113000Y6586210D01*
X4500000Y6586210D01*
X4500000Y5958500D01*
X4589500Y5869000D01*
X5204000Y5869000D01*
X5204000Y6783500D01*
X5512000Y6783500D01*
X5512000Y5869000D01*
X6126500Y5869000D01*
X6216000Y5958500D01*
X6216000Y6586210D01*
X6161498Y6717790D01*
X6060791Y6818498D01*
X5929211Y6873000D01*
X5601500Y6873000D01*
X5512000Y6783500D01*
X5204000Y6783500D01*
X5114500Y6873000D01*
X4786789Y6873000D01*
X4655209Y6818498D01*
X4554502Y6717790D01*
X4500000Y6586210D01*
X4113000Y6586210D01*
X4113000Y6741500D01*
X4023500Y6831000D01*
X2059000Y6831000D01*
X1751000Y6831000D01*
X1731000Y6831000D01*
X1731000Y7139000D01*
X1751000Y7139000D01*
X1751000Y8117100D01*
X2059000Y8117100D01*
X2059000Y7139000D01*
X4023500Y7139000D01*
X4113000Y7228500D01*
X4113000Y7919810D01*
X4058498Y8051390D01*
X3957791Y8152098D01*
X3826211Y8206600D01*
X2148500Y8206600D01*
X2059000Y8117100D01*
X1751000Y8117100D01*
X1661500Y8206600D01*
X812000Y8206600D01*
X812000Y8424421D01*
X877459Y8411400D01*
X2500901Y8411400D01*
X2584494Y8355545D01*
X2728000Y8327000D01*
X4601511Y8327000D01*
X4609535Y8284356D01*
X4664288Y8199268D01*
X4747831Y8142185D01*
X4847000Y8122103D01*
X5907000Y8122103D01*
X5999644Y8139535D01*
X6084732Y8194288D01*
X6141815Y8277831D01*
X6161897Y8377000D01*
X6161897Y9027000D01*
X6154199Y9067911D01*
X6210498Y9124210D01*
X6265000Y9255790D01*
X6265000Y9408500D01*
X6175500Y9498000D01*
X5531000Y9498000D01*
X5531000Y9478000D01*
X5223000Y9478000D01*
X5223000Y9498000D01*
X4578500Y9498000D01*
X4489000Y9408500D01*
X4489000Y9255790D01*
X4543502Y9124210D01*
X4590712Y9077000D01*
X3946777Y9077000D01*
X3961373Y9098844D01*
X4046141Y9525000D01*
X3961373Y9951156D01*
X3719975Y10312434D01*
X3358697Y10553832D01*
X2932541Y10638600D01*
X877459Y10638600D01*
X812000Y10625579D01*
X812000Y10964421D01*
X877459Y10951400D01*
X2932541Y10951400D01*
X3358697Y11036168D01*
X3719975Y11277566D01*
X3961373Y11638844D01*
X3971549Y11690000D01*
X5958670Y11690000D01*
X6792103Y10856567D01*
X6792103Y10578427D01*
X6503365Y10867165D01*
X6381707Y10948455D01*
X6238200Y10977000D01*
X6152489Y10977000D01*
X6144465Y11019644D01*
X6089712Y11104732D01*
X6006169Y11161815D01*
X5907000Y11181897D01*
X4847000Y11181897D01*
X4754356Y11164465D01*
X4669268Y11109712D01*
X4612185Y11026169D01*
X4592103Y10927000D01*
X4592103Y10277000D01*
X4599801Y10236089D01*
X4543502Y10179790D01*
X4489000Y10048210D01*
X4489000Y9895500D01*
X4578500Y9806000D01*
X5223000Y9806000D01*
X5223000Y9826000D01*
X5531000Y9826000D01*
X5531000Y9806000D01*
X6175500Y9806000D01*
X6265000Y9895500D01*
X6265000Y10044870D01*
X6343300Y9966570D01*
X6343300Y7893502D01*
X6352535Y7847074D01*
X6355192Y7799813D01*
X6366680Y7775961D01*
X6371845Y7749996D01*
X6398144Y7710637D01*
X6418685Y7667990D01*
X6727660Y7257487D01*
X6008540Y7249869D01*
X5989130Y7245724D01*
X5972862Y7234354D01*
X5962300Y7217550D01*
X5959107Y7197961D01*
X5963786Y7178673D01*
X5975602Y7162726D01*
X5992690Y7152631D01*
X6009498Y7149874D01*
X6803546Y7156664D01*
X7603103Y6094374D01*
X7603103Y5517504D01*
X6293660Y4279897D01*
X5593000Y4279897D01*
X5500356Y4262465D01*
X5415268Y4207712D01*
X5358185Y4124169D01*
X5338103Y4025000D01*
X5338103Y3987000D01*
X5334000Y3987000D01*
X5314547Y3983061D01*
X5298160Y3971864D01*
X5287419Y3955173D01*
X5284011Y3935959D01*
X5347511Y887959D01*
X5351854Y868592D01*
X5363391Y852441D01*
X5380301Y842051D01*
X5397500Y839000D01*
X21844000Y839000D01*
X21863453Y842939D01*
X21879840Y854136D01*
X21890581Y870827D01*
X21894000Y889000D01*
X21894000Y16764000D01*
X21890061Y16783453D01*
X21878864Y16799840D01*
X21862173Y16810581D01*
X21844000Y16814000D01*
X10033000Y16814000D01*
X10013547Y16810061D01*
X9997160Y16798864D01*
X9986419Y16782173D01*
X9983000Y16764000D01*
X9983000Y2336000D01*
X9647897Y2336000D01*
X9647897Y4025000D01*
X9630465Y4117644D01*
X9609492Y4150236D01*
X9637676Y4281760D01*
X9638261Y4321425D01*
X9646000Y4360333D01*
X9646000Y7008000D01*
X9617455Y7151506D01*
X9536165Y7273165D01*
X8361897Y8447433D01*
X8361897Y9027000D01*
X8344465Y9119644D01*
X8307327Y9177357D01*
X8341815Y9227831D01*
X8351772Y9277000D01*
X8509000Y9277000D01*
X8652507Y9305545D01*
X8774165Y9386835D01*
X9002765Y9615435D01*
X9084055Y9737093D01*
X9112600Y9880600D01*
X9112600Y11987400D01*
X9106085Y12020156D01*
X9106720Y12053548D01*
X9091949Y12091221D01*
X9084055Y12130906D01*
X9065501Y12158674D01*
X9053309Y12189769D01*
X9025244Y12218923D01*
X9002765Y12252565D01*
X8974998Y12271118D01*
X8951834Y12295181D01*
X5983238Y14361500D01*
X7119000Y14361500D01*
X7119000Y13733790D01*
X7173502Y13602210D01*
X7274209Y13501502D01*
X7405789Y13447000D01*
X7733500Y13447000D01*
X7823000Y13536500D01*
X7823000Y14451000D01*
X8131000Y14451000D01*
X8131000Y13536500D01*
X8220500Y13447000D01*
X8548211Y13447000D01*
X8679791Y13501502D01*
X8780498Y13602210D01*
X8835000Y13733790D01*
X8835000Y14361500D01*
X8745500Y14451000D01*
X8131000Y14451000D01*
X7823000Y14451000D01*
X7208500Y14451000D01*
X7119000Y14361500D01*
X5983238Y14361500D01*
X5731897Y14536448D01*
X5731897Y15405000D01*
X5718499Y15476210D01*
X7119000Y15476210D01*
X7119000Y14848500D01*
X7208500Y14759000D01*
X7823000Y14759000D01*
X7823000Y15673500D01*
X8131000Y15673500D01*
X8131000Y14759000D01*
X8745500Y14759000D01*
X8835000Y14848500D01*
X8835000Y15476210D01*
X8780498Y15607790D01*
X8679791Y15708498D01*
X8548211Y15763000D01*
X8220500Y15763000D01*
X8131000Y15673500D01*
X7823000Y15673500D01*
X7733500Y15763000D01*
X7405789Y15763000D01*
X7274209Y15708498D01*
X7173502Y15607790D01*
X7119000Y15476210D01*
X5718499Y15476210D01*
X5714465Y15497644D01*
X5659712Y15582732D01*
X5576169Y15639815D01*
X5477000Y15659897D01*
X4477000Y15659897D01*
X4384356Y15642465D01*
X4299268Y15587712D01*
X4242185Y15504169D01*
X4222103Y15405000D01*
X4222103Y14980000D01*
X3971549Y14980000D01*
X3961373Y15031156D01*
X3719975Y15392434D01*
X3358697Y15633832D01*
X2932541Y15718600D01*
X877459Y15718600D01*
X812000Y15705579D01*
X812000Y17530000D01*
X22610000Y17530000D01*
X22610000Y250000D01*
M02*
