G04 #@! TF.FileFunction,Copper,L2,Bot,Signal*
%FSLAX46Y46*%
G04 Gerber Fmt 4.6, Leading zero omitted, Abs format (unit mm)*
G04 Created by KiCad (PCBNEW 4.0.2+dfsg1-stable) date ons 25 jan 2017 10:37:56 CET*
%MOMM*%
G01*
G04 APERTURE LIST*
%ADD10C,0.100000*%
%ADD11R,3.000000X2.000000*%
%ADD12R,3.700000X1.727200*%
%ADD13O,3.700000X1.727200*%
%ADD14C,4.850000*%
%ADD15C,0.200000*%
G04 APERTURE END LIST*
D10*
D11*
X11811000Y3048000D03*
D12*
X1905000Y6985000D03*
D13*
X1905000Y9525000D03*
X1905000Y12065000D03*
X1905000Y14605000D03*
D14*
X2540000Y2540000D03*
D10*
G36*
X22660000Y200000D02*
X3881639Y200000D01*
X4053286Y270923D01*
X4806432Y1022756D01*
X5214534Y2005575D01*
X5215463Y3069756D01*
X4809077Y4053286D01*
X4057244Y4806432D01*
X3074425Y5214534D01*
X2010244Y5215463D01*
X1026714Y4809077D01*
X273568Y4057244D01*
X200000Y3880073D01*
X200000Y5963400D01*
X1711500Y5963400D01*
X1751000Y6002900D01*
X1751000Y6831000D01*
X2059000Y6831000D01*
X2059000Y6002900D01*
X2098500Y5963400D01*
X3786428Y5963400D01*
X3844500Y5987454D01*
X3888946Y6031900D01*
X3913000Y6089972D01*
X3913000Y6791500D01*
X3873500Y6831000D01*
X2059000Y6831000D01*
X1751000Y6831000D01*
X1731000Y6831000D01*
X1731000Y7139000D01*
X1751000Y7139000D01*
X1751000Y7967100D01*
X2059000Y7967100D01*
X2059000Y7139000D01*
X3873500Y7139000D01*
X3913000Y7178500D01*
X3913000Y7880028D01*
X3888946Y7938100D01*
X3844500Y7982546D01*
X3786428Y8006600D01*
X2098500Y8006600D01*
X2059000Y7967100D01*
X1751000Y7967100D01*
X1711500Y8006600D01*
X200000Y8006600D01*
X200000Y8664083D01*
X451303Y8496168D01*
X877459Y8411400D01*
X2932541Y8411400D01*
X3358697Y8496168D01*
X3719975Y8737566D01*
X3961373Y9098844D01*
X4046141Y9525000D01*
X3961373Y9951156D01*
X3719975Y10312434D01*
X3358697Y10553832D01*
X2932541Y10638600D01*
X877459Y10638600D01*
X451303Y10553832D01*
X200000Y10385917D01*
X200000Y11204083D01*
X451303Y11036168D01*
X877459Y10951400D01*
X2932541Y10951400D01*
X3358697Y11036168D01*
X3719975Y11277566D01*
X3961373Y11638844D01*
X4046141Y12065000D01*
X3961373Y12491156D01*
X3719975Y12852434D01*
X3358697Y13093832D01*
X2932541Y13178600D01*
X877459Y13178600D01*
X451303Y13093832D01*
X200000Y12925917D01*
X200000Y13744083D01*
X451303Y13576168D01*
X877459Y13491400D01*
X2932541Y13491400D01*
X3358697Y13576168D01*
X3719975Y13817566D01*
X3961373Y14178844D01*
X4046141Y14605000D01*
X3961373Y15031156D01*
X3719975Y15392434D01*
X3358697Y15633832D01*
X2932541Y15718600D01*
X877459Y15718600D01*
X451303Y15633832D01*
X200000Y15465917D01*
X200000Y16510000D01*
X9094000Y16510000D01*
X9094000Y1270000D01*
X9097939Y1250547D01*
X9109136Y1234160D01*
X9125827Y1223419D01*
X9144000Y1220000D01*
X21590000Y1220000D01*
X21609453Y1223939D01*
X21625840Y1235136D01*
X21636581Y1251827D01*
X21640000Y1270000D01*
X21640000Y16510000D01*
X21636061Y16529453D01*
X21624864Y16545840D01*
X21608173Y16556581D01*
X21590000Y16560000D01*
X9144000Y16560000D01*
X9124547Y16556061D01*
X9108160Y16544864D01*
X9097419Y16528173D01*
X9094000Y16510000D01*
X200000Y16510000D01*
X200000Y17580000D01*
X22660000Y17580000D01*
X22660000Y200000D01*
X22660000Y200000D01*
G37*
X22660000Y200000D02*
X3881639Y200000D01*
X4053286Y270923D01*
X4806432Y1022756D01*
X5214534Y2005575D01*
X5215463Y3069756D01*
X4809077Y4053286D01*
X4057244Y4806432D01*
X3074425Y5214534D01*
X2010244Y5215463D01*
X1026714Y4809077D01*
X273568Y4057244D01*
X200000Y3880073D01*
X200000Y5963400D01*
X1711500Y5963400D01*
X1751000Y6002900D01*
X1751000Y6831000D01*
X2059000Y6831000D01*
X2059000Y6002900D01*
X2098500Y5963400D01*
X3786428Y5963400D01*
X3844500Y5987454D01*
X3888946Y6031900D01*
X3913000Y6089972D01*
X3913000Y6791500D01*
X3873500Y6831000D01*
X2059000Y6831000D01*
X1751000Y6831000D01*
X1731000Y6831000D01*
X1731000Y7139000D01*
X1751000Y7139000D01*
X1751000Y7967100D01*
X2059000Y7967100D01*
X2059000Y7139000D01*
X3873500Y7139000D01*
X3913000Y7178500D01*
X3913000Y7880028D01*
X3888946Y7938100D01*
X3844500Y7982546D01*
X3786428Y8006600D01*
X2098500Y8006600D01*
X2059000Y7967100D01*
X1751000Y7967100D01*
X1711500Y8006600D01*
X200000Y8006600D01*
X200000Y8664083D01*
X451303Y8496168D01*
X877459Y8411400D01*
X2932541Y8411400D01*
X3358697Y8496168D01*
X3719975Y8737566D01*
X3961373Y9098844D01*
X4046141Y9525000D01*
X3961373Y9951156D01*
X3719975Y10312434D01*
X3358697Y10553832D01*
X2932541Y10638600D01*
X877459Y10638600D01*
X451303Y10553832D01*
X200000Y10385917D01*
X200000Y11204083D01*
X451303Y11036168D01*
X877459Y10951400D01*
X2932541Y10951400D01*
X3358697Y11036168D01*
X3719975Y11277566D01*
X3961373Y11638844D01*
X4046141Y12065000D01*
X3961373Y12491156D01*
X3719975Y12852434D01*
X3358697Y13093832D01*
X2932541Y13178600D01*
X877459Y13178600D01*
X451303Y13093832D01*
X200000Y12925917D01*
X200000Y13744083D01*
X451303Y13576168D01*
X877459Y13491400D01*
X2932541Y13491400D01*
X3358697Y13576168D01*
X3719975Y13817566D01*
X3961373Y14178844D01*
X4046141Y14605000D01*
X3961373Y15031156D01*
X3719975Y15392434D01*
X3358697Y15633832D01*
X2932541Y15718600D01*
X877459Y15718600D01*
X451303Y15633832D01*
X200000Y15465917D01*
X200000Y16510000D01*
X9094000Y16510000D01*
X9094000Y1270000D01*
X9097939Y1250547D01*
X9109136Y1234160D01*
X9125827Y1223419D01*
X9144000Y1220000D01*
X21590000Y1220000D01*
X21609453Y1223939D01*
X21625840Y1235136D01*
X21636581Y1251827D01*
X21640000Y1270000D01*
X21640000Y16510000D01*
X21636061Y16529453D01*
X21624864Y16545840D01*
X21608173Y16556581D01*
X21590000Y16560000D01*
X9144000Y16560000D01*
X9124547Y16556061D01*
X9108160Y16544864D01*
X9097419Y16528173D01*
X9094000Y16510000D01*
X200000Y16510000D01*
X200000Y17580000D01*
X22660000Y17580000D01*
X22660000Y200000D01*
D15*
G36*
X21363000Y1497000D02*
X9371000Y1497000D01*
X9371000Y2892000D01*
X10103000Y2892000D01*
X10103000Y2006626D01*
X10134666Y1930178D01*
X10193177Y1871666D01*
X10269626Y1840000D01*
X11655000Y1840000D01*
X11707000Y1892000D01*
X11707000Y2944000D01*
X11915000Y2944000D01*
X11915000Y1892000D01*
X11967000Y1840000D01*
X13352374Y1840000D01*
X13428823Y1871666D01*
X13487334Y1930178D01*
X13519000Y2006626D01*
X13519000Y2892000D01*
X13467000Y2944000D01*
X11915000Y2944000D01*
X11707000Y2944000D01*
X10155000Y2944000D01*
X10103000Y2892000D01*
X9371000Y2892000D01*
X9371000Y4089374D01*
X10103000Y4089374D01*
X10103000Y3204000D01*
X10155000Y3152000D01*
X11707000Y3152000D01*
X11707000Y4204000D01*
X11915000Y4204000D01*
X11915000Y3152000D01*
X13467000Y3152000D01*
X13519000Y3204000D01*
X13519000Y4089374D01*
X13487334Y4165822D01*
X13428823Y4224334D01*
X13352374Y4256000D01*
X11967000Y4256000D01*
X11915000Y4204000D01*
X11707000Y4204000D01*
X11655000Y4256000D01*
X10269626Y4256000D01*
X10193177Y4224334D01*
X10134666Y4165822D01*
X10103000Y4089374D01*
X9371000Y4089374D01*
X9371000Y16283000D01*
X21363000Y16283000D01*
X21363000Y1497000D01*
X21363000Y1497000D01*
G37*
X21363000Y1497000D02*
X9371000Y1497000D01*
X9371000Y2892000D01*
X10103000Y2892000D01*
X10103000Y2006626D01*
X10134666Y1930178D01*
X10193177Y1871666D01*
X10269626Y1840000D01*
X11655000Y1840000D01*
X11707000Y1892000D01*
X11707000Y2944000D01*
X11915000Y2944000D01*
X11915000Y1892000D01*
X11967000Y1840000D01*
X13352374Y1840000D01*
X13428823Y1871666D01*
X13487334Y1930178D01*
X13519000Y2006626D01*
X13519000Y2892000D01*
X13467000Y2944000D01*
X11915000Y2944000D01*
X11707000Y2944000D01*
X10155000Y2944000D01*
X10103000Y2892000D01*
X9371000Y2892000D01*
X9371000Y4089374D01*
X10103000Y4089374D01*
X10103000Y3204000D01*
X10155000Y3152000D01*
X11707000Y3152000D01*
X11707000Y4204000D01*
X11915000Y4204000D01*
X11915000Y3152000D01*
X13467000Y3152000D01*
X13519000Y3204000D01*
X13519000Y4089374D01*
X13487334Y4165822D01*
X13428823Y4224334D01*
X13352374Y4256000D01*
X11967000Y4256000D01*
X11915000Y4204000D01*
X11707000Y4204000D01*
X11655000Y4256000D01*
X10269626Y4256000D01*
X10193177Y4224334D01*
X10134666Y4165822D01*
X10103000Y4089374D01*
X9371000Y4089374D01*
X9371000Y16283000D01*
X21363000Y16283000D01*
X21363000Y1497000D01*
M02*
