G04 #@! TF.FileFunction,Copper,L1,Top,Signal*
%FSLAX46Y46*%
G04 Gerber Fmt 4.6, Leading zero omitted, Abs format (unit mm)*
G04 Created by KiCad (PCBNEW 4.0.2+dfsg1-stable) date ons 15 feb 2017 20:38:44 CET*
%MOMM*%
G01*
G04 APERTURE LIST*
%ADD10C,0.100000*%
%ADD11C,4.850000*%
%ADD12R,1.600000X1.000000*%
%ADD13R,1.700000X0.900000*%
%ADD14R,0.650000X1.060000*%
%ADD15R,1.727200X3.700000*%
%ADD16O,1.727200X3.700000*%
%ADD17C,13.000000*%
%ADD18C,0.350000*%
%ADD19C,0.400000*%
%ADD20C,0.270000*%
G04 APERTURE END LIST*
D10*
D11*
X2540000Y2540000D03*
D12*
X17208500Y9120000D03*
X17208500Y6120000D03*
X6985000Y6120000D03*
X6985000Y9120000D03*
D13*
X14351000Y6106500D03*
X14351000Y9006500D03*
D14*
X10353000Y5377000D03*
X11303000Y5377000D03*
X12253000Y5377000D03*
X12253000Y7577000D03*
X10353000Y7577000D03*
X11303000Y7577000D03*
D15*
X14605000Y1905000D03*
D16*
X12065000Y1905000D03*
X9525000Y1905000D03*
X6985000Y1905000D03*
D11*
X19050000Y2540000D03*
D17*
X10795000Y16510000D03*
D18*
X17208500Y9120000D02*
X17208500Y10096500D01*
X17208500Y10096500D02*
X10795000Y16510000D01*
X14351000Y6106500D02*
X14351000Y6262500D01*
X14351000Y6262500D02*
X17208500Y9120000D01*
X10353000Y5377000D02*
X10668000Y6223000D01*
X13696498Y6748780D02*
X14668500Y6183500D01*
X11176000Y6731000D02*
X13696498Y6748780D01*
X10668000Y6223000D02*
X11176000Y6731000D01*
D19*
X11303000Y7577000D02*
X11176000Y8636000D01*
X9602600Y8737600D02*
X6985000Y6120000D01*
X11176000Y8636000D02*
X10795000Y8763000D01*
X6985000Y6120000D02*
X6985000Y1905000D01*
X10795000Y8763000D02*
X9602600Y8737600D01*
X12255500Y2921000D02*
X12253000Y5377000D01*
X8890000Y6096000D02*
X8890000Y3429000D01*
X8890000Y3429000D02*
X9525000Y1905000D01*
X10353000Y7577000D02*
X8890000Y6096000D01*
D18*
X12253000Y7577000D02*
X12985000Y7577000D01*
X12985000Y7577000D02*
X14351000Y9006500D01*
D20*
G36*
X12820522Y24834646D02*
X14768899Y24246395D01*
X16565904Y23290912D01*
X18143101Y22004581D01*
X19440410Y20436404D01*
X20408419Y18646109D01*
X21010256Y16701887D01*
X21224804Y14660596D01*
X21225000Y14604300D01*
X21225000Y4217861D01*
X21183622Y4280140D01*
X20804993Y4661422D01*
X20359516Y4961899D01*
X19864161Y5170128D01*
X19337794Y5278175D01*
X18800465Y5281927D01*
X18272641Y5181239D01*
X17774426Y4979947D01*
X17324798Y4685718D01*
X16940882Y4309760D01*
X16637302Y3866392D01*
X16425620Y3372502D01*
X16313901Y2846903D01*
X16306398Y2309613D01*
X16403399Y1781099D01*
X16601207Y1281491D01*
X16892290Y829820D01*
X17265559Y443289D01*
X17378202Y365000D01*
X15711600Y365000D01*
X15711600Y1775250D01*
X15650850Y1836000D01*
X14674000Y1836000D01*
X14674000Y1816000D01*
X14536000Y1816000D01*
X14536000Y1836000D01*
X13559150Y1836000D01*
X13498400Y1775250D01*
X13498400Y365000D01*
X13104959Y365000D01*
X13148293Y443824D01*
X13217845Y663079D01*
X13243485Y891668D01*
X13243600Y908124D01*
X13243600Y2901876D01*
X13221154Y3130801D01*
X13154670Y3351006D01*
X13046681Y3554103D01*
X12901300Y3732358D01*
X12845001Y3778933D01*
X13498400Y3778933D01*
X13498400Y2034750D01*
X13559150Y1974000D01*
X14536000Y1974000D01*
X14536000Y3937250D01*
X14674000Y3937250D01*
X14674000Y1974000D01*
X15650850Y1974000D01*
X15711600Y2034750D01*
X15711600Y3778933D01*
X15702262Y3825880D01*
X15683944Y3870103D01*
X15657351Y3909903D01*
X15623504Y3943750D01*
X15583704Y3970344D01*
X15539481Y3988661D01*
X15492534Y3998000D01*
X14734750Y3998000D01*
X14674000Y3937250D01*
X14536000Y3937250D01*
X14475250Y3998000D01*
X13717466Y3998000D01*
X13670519Y3988661D01*
X13626296Y3970344D01*
X13586496Y3943750D01*
X13552649Y3909903D01*
X13526056Y3870103D01*
X13507738Y3825880D01*
X13498400Y3778933D01*
X12845001Y3778933D01*
X12769564Y3841340D01*
X12768794Y4597429D01*
X12787616Y4609832D01*
X12845390Y4677619D01*
X12881993Y4758819D01*
X12894524Y4847000D01*
X12894524Y5907000D01*
X12890524Y5957163D01*
X12864176Y6042244D01*
X12815168Y6116616D01*
X12747381Y6174390D01*
X12666181Y6210993D01*
X12578000Y6223524D01*
X11928000Y6223524D01*
X11877837Y6219524D01*
X11792756Y6193176D01*
X11718384Y6144168D01*
X11711086Y6135606D01*
X11698881Y6140661D01*
X11651934Y6150000D01*
X11432750Y6150000D01*
X11372000Y6089250D01*
X11372000Y5446000D01*
X11392000Y5446000D01*
X11392000Y5308000D01*
X11372000Y5308000D01*
X11372000Y4664750D01*
X11432750Y4604000D01*
X11651934Y4604000D01*
X11698881Y4613339D01*
X11712450Y4618959D01*
X11738794Y4596507D01*
X11739372Y4028761D01*
X11623489Y3994655D01*
X11419642Y3888086D01*
X11240377Y3743954D01*
X11092521Y3567746D01*
X10981707Y3366176D01*
X10912155Y3146921D01*
X10886515Y2918332D01*
X10886400Y2901876D01*
X10886400Y908124D01*
X10908846Y679199D01*
X10975330Y458994D01*
X11025308Y365000D01*
X10564959Y365000D01*
X10608293Y443824D01*
X10677845Y663079D01*
X10703485Y891668D01*
X10703600Y908124D01*
X10703600Y2901876D01*
X10681154Y3130801D01*
X10614670Y3351006D01*
X10506681Y3554103D01*
X10361300Y3732358D01*
X10184065Y3878980D01*
X9981726Y3988384D01*
X9761990Y4056403D01*
X9533228Y4080447D01*
X9405000Y4068778D01*
X9405000Y5884522D01*
X10240672Y6730476D01*
X10482512Y6730476D01*
X10321518Y6569482D01*
X10317766Y6564915D01*
X10313288Y6561052D01*
X10287441Y6527996D01*
X10260818Y6495585D01*
X10258025Y6490376D01*
X10254382Y6485717D01*
X10235455Y6448284D01*
X10215627Y6411305D01*
X10213897Y6405647D01*
X10211231Y6400374D01*
X10208798Y6393979D01*
X10145331Y6223524D01*
X10028000Y6223524D01*
X9977837Y6219524D01*
X9892756Y6193176D01*
X9818384Y6144168D01*
X9760610Y6076381D01*
X9724007Y5995181D01*
X9711476Y5907000D01*
X9711476Y4847000D01*
X9715476Y4796837D01*
X9741824Y4711756D01*
X9790832Y4637384D01*
X9858619Y4579610D01*
X9939819Y4543007D01*
X10028000Y4530476D01*
X10678000Y4530476D01*
X10728163Y4534476D01*
X10813244Y4560824D01*
X10887616Y4609832D01*
X10894914Y4618394D01*
X10907119Y4613339D01*
X10954066Y4604000D01*
X11173250Y4604000D01*
X11234000Y4664750D01*
X11234000Y5308000D01*
X11214000Y5308000D01*
X11214000Y5446000D01*
X11234000Y5446000D01*
X11234000Y6089250D01*
X11230607Y6092643D01*
X11380394Y6242429D01*
X13184476Y6255156D01*
X13184476Y5656500D01*
X13188476Y5606337D01*
X13214824Y5521256D01*
X13263832Y5446884D01*
X13331619Y5389110D01*
X13412819Y5352507D01*
X13501000Y5339976D01*
X15201000Y5339976D01*
X15251163Y5343976D01*
X15336244Y5370324D01*
X15410616Y5419332D01*
X15468390Y5487119D01*
X15504993Y5568319D01*
X15517524Y5656500D01*
X15517524Y5990250D01*
X16165500Y5990250D01*
X16165500Y5596067D01*
X16174838Y5549120D01*
X16193156Y5504897D01*
X16219749Y5465097D01*
X16253596Y5431250D01*
X16293396Y5404656D01*
X16337619Y5386339D01*
X16384566Y5377000D01*
X17078750Y5377000D01*
X17139500Y5437750D01*
X17139500Y6051000D01*
X17277500Y6051000D01*
X17277500Y5437750D01*
X17338250Y5377000D01*
X18032434Y5377000D01*
X18079381Y5386339D01*
X18123604Y5404656D01*
X18163404Y5431250D01*
X18197251Y5465097D01*
X18223844Y5504897D01*
X18242162Y5549120D01*
X18251500Y5596067D01*
X18251500Y5990250D01*
X18190750Y6051000D01*
X17277500Y6051000D01*
X17139500Y6051000D01*
X16226250Y6051000D01*
X16165500Y5990250D01*
X15517524Y5990250D01*
X15517524Y6556500D01*
X15513524Y6606663D01*
X15501983Y6643933D01*
X16165500Y6643933D01*
X16165500Y6249750D01*
X16226250Y6189000D01*
X17139500Y6189000D01*
X17139500Y6802250D01*
X17277500Y6802250D01*
X17277500Y6189000D01*
X18190750Y6189000D01*
X18251500Y6249750D01*
X18251500Y6643933D01*
X18242162Y6690880D01*
X18223844Y6735103D01*
X18197251Y6774903D01*
X18163404Y6808750D01*
X18123604Y6835344D01*
X18079381Y6853661D01*
X18032434Y6863000D01*
X17338250Y6863000D01*
X17277500Y6802250D01*
X17139500Y6802250D01*
X17078750Y6863000D01*
X16384566Y6863000D01*
X16337619Y6853661D01*
X16293396Y6835344D01*
X16253596Y6808750D01*
X16219749Y6774903D01*
X16193156Y6735103D01*
X16174838Y6690880D01*
X16165500Y6643933D01*
X15501983Y6643933D01*
X15487176Y6691744D01*
X15481628Y6700164D01*
X17084941Y8303476D01*
X18008500Y8303476D01*
X18058663Y8307476D01*
X18143744Y8333824D01*
X18218116Y8382832D01*
X18275890Y8450619D01*
X18312493Y8531819D01*
X18325024Y8620000D01*
X18325024Y9620000D01*
X18321024Y9670163D01*
X18294676Y9755244D01*
X18245668Y9829616D01*
X18177881Y9887390D01*
X18096681Y9923993D01*
X18008500Y9936524D01*
X17698500Y9936524D01*
X17698500Y10096500D01*
X17694090Y10141477D01*
X17690139Y10186636D01*
X17689419Y10189114D01*
X17689168Y10191675D01*
X17676084Y10235012D01*
X17663458Y10278469D01*
X17662274Y10280753D01*
X17661528Y10283224D01*
X17640264Y10323215D01*
X17619449Y10363372D01*
X17617841Y10365386D01*
X17616631Y10367662D01*
X17588006Y10402760D01*
X17559786Y10438111D01*
X17556252Y10441695D01*
X17556190Y10441771D01*
X17556120Y10441829D01*
X17554983Y10442982D01*
X15970529Y12027436D01*
X15978883Y12035392D01*
X16749280Y13127498D01*
X17292879Y14348443D01*
X17588977Y15651721D01*
X17610292Y17178245D01*
X17350700Y18489283D01*
X16841403Y19724930D01*
X16101800Y20838121D01*
X15160064Y21786455D01*
X14052063Y22533811D01*
X12820001Y23051722D01*
X11510808Y23320461D01*
X10174350Y23329791D01*
X8861533Y23079358D01*
X7622360Y22578700D01*
X6504033Y21846887D01*
X5549147Y20911793D01*
X4794074Y19809037D01*
X4267574Y18580621D01*
X3989702Y17273336D01*
X3971042Y15936976D01*
X4212304Y14622442D01*
X4704299Y13379805D01*
X5428287Y12256396D01*
X6356691Y11295005D01*
X7454149Y10532251D01*
X8678859Y9997189D01*
X9984173Y9710197D01*
X11320370Y9682208D01*
X12636556Y9914287D01*
X13882598Y10397595D01*
X15011034Y11113722D01*
X15260628Y11351407D01*
X16675511Y9936524D01*
X16408500Y9936524D01*
X16358337Y9932524D01*
X16273256Y9906176D01*
X16198884Y9857168D01*
X16141110Y9789381D01*
X16104507Y9708181D01*
X16091976Y9620000D01*
X16091976Y8696441D01*
X14338051Y6942515D01*
X13942835Y7172358D01*
X13914122Y7185492D01*
X13886349Y7200506D01*
X13870736Y7205338D01*
X13855870Y7212138D01*
X13825151Y7219446D01*
X13794992Y7228779D01*
X13778739Y7230486D01*
X13762836Y7234269D01*
X13731282Y7235470D01*
X13699883Y7238768D01*
X13693042Y7238768D01*
X13337111Y7236257D01*
X13339261Y7238475D01*
X14296274Y8239976D01*
X15201000Y8239976D01*
X15251163Y8243976D01*
X15336244Y8270324D01*
X15410616Y8319332D01*
X15468390Y8387119D01*
X15504993Y8468319D01*
X15517524Y8556500D01*
X15517524Y9456500D01*
X15513524Y9506663D01*
X15487176Y9591744D01*
X15438168Y9666116D01*
X15370381Y9723890D01*
X15289181Y9760493D01*
X15201000Y9773024D01*
X13501000Y9773024D01*
X13450837Y9769024D01*
X13365756Y9742676D01*
X13291384Y9693668D01*
X13233610Y9625881D01*
X13197007Y9544681D01*
X13184476Y9456500D01*
X13184476Y8556500D01*
X13188476Y8506337D01*
X13190148Y8500939D01*
X12883455Y8179989D01*
X12864176Y8242244D01*
X12815168Y8316616D01*
X12747381Y8374390D01*
X12666181Y8410993D01*
X12578000Y8423524D01*
X11928000Y8423524D01*
X11877837Y8419524D01*
X11792756Y8393176D01*
X11777706Y8383259D01*
X11721988Y8408375D01*
X11687336Y8697322D01*
X11679665Y8732100D01*
X11673994Y8767251D01*
X11668863Y8781074D01*
X11665687Y8795473D01*
X11651406Y8828101D01*
X11639016Y8861479D01*
X11631300Y8874039D01*
X11625386Y8887550D01*
X11605037Y8916787D01*
X11586402Y8947118D01*
X11576392Y8957941D01*
X11567967Y8970046D01*
X11542336Y8994764D01*
X11518157Y9020908D01*
X11506232Y9029583D01*
X11495620Y9039817D01*
X11465675Y9059086D01*
X11436878Y9080035D01*
X11423495Y9086229D01*
X11411097Y9094207D01*
X11377983Y9107293D01*
X11345663Y9122251D01*
X11338857Y9124572D01*
X10957857Y9251572D01*
X10924318Y9259214D01*
X10891322Y9268912D01*
X10875426Y9270353D01*
X10859858Y9273900D01*
X10825472Y9274881D01*
X10791222Y9277986D01*
X10784032Y9277883D01*
X9591632Y9252483D01*
X9549799Y9247480D01*
X9507865Y9243811D01*
X9499987Y9241522D01*
X9491833Y9240547D01*
X9451773Y9227515D01*
X9411345Y9215770D01*
X9404060Y9211994D01*
X9396253Y9209454D01*
X9359493Y9188892D01*
X9322111Y9169515D01*
X9315697Y9164395D01*
X9308532Y9160387D01*
X9276466Y9133077D01*
X9243560Y9106809D01*
X9238440Y9101760D01*
X7073204Y6936524D01*
X6185000Y6936524D01*
X6134837Y6932524D01*
X6049756Y6906176D01*
X5975384Y6857168D01*
X5917610Y6789381D01*
X5881007Y6708181D01*
X5868476Y6620000D01*
X5868476Y5620000D01*
X5872476Y5569837D01*
X5898824Y5484756D01*
X5947832Y5410384D01*
X6015619Y5352610D01*
X6096819Y5316007D01*
X6185000Y5303476D01*
X6470000Y5303476D01*
X6470000Y3956236D01*
X6339642Y3888086D01*
X6160377Y3743954D01*
X6012521Y3567746D01*
X5901707Y3366176D01*
X5832155Y3146921D01*
X5806515Y2918332D01*
X5806400Y2901876D01*
X5806400Y908124D01*
X5828846Y679199D01*
X5895330Y458994D01*
X5945308Y365000D01*
X4226561Y365000D01*
X4235075Y370403D01*
X4624203Y740964D01*
X4933944Y1180051D01*
X5152500Y1670937D01*
X5271548Y2194925D01*
X5280118Y2808671D01*
X5175748Y3335779D01*
X4970983Y3832576D01*
X4673622Y4280140D01*
X4294993Y4661422D01*
X3849516Y4961899D01*
X3354161Y5170128D01*
X2827794Y5278175D01*
X2290465Y5281927D01*
X1762641Y5181239D01*
X1264426Y4979947D01*
X814798Y4685718D01*
X430882Y4309760D01*
X365000Y4213542D01*
X365000Y8990250D01*
X5942000Y8990250D01*
X5942000Y8596067D01*
X5951338Y8549120D01*
X5969656Y8504897D01*
X5996249Y8465097D01*
X6030096Y8431250D01*
X6069896Y8404656D01*
X6114119Y8386339D01*
X6161066Y8377000D01*
X6855250Y8377000D01*
X6916000Y8437750D01*
X6916000Y9051000D01*
X7054000Y9051000D01*
X7054000Y8437750D01*
X7114750Y8377000D01*
X7808934Y8377000D01*
X7855881Y8386339D01*
X7900104Y8404656D01*
X7939904Y8431250D01*
X7973751Y8465097D01*
X8000344Y8504897D01*
X8018662Y8549120D01*
X8028000Y8596067D01*
X8028000Y8990250D01*
X7967250Y9051000D01*
X7054000Y9051000D01*
X6916000Y9051000D01*
X6002750Y9051000D01*
X5942000Y8990250D01*
X365000Y8990250D01*
X365000Y9643933D01*
X5942000Y9643933D01*
X5942000Y9249750D01*
X6002750Y9189000D01*
X6916000Y9189000D01*
X6916000Y9802250D01*
X7054000Y9802250D01*
X7054000Y9189000D01*
X7967250Y9189000D01*
X8028000Y9249750D01*
X8028000Y9643933D01*
X8018662Y9690880D01*
X8000344Y9735103D01*
X7973751Y9774903D01*
X7939904Y9808750D01*
X7900104Y9835344D01*
X7855881Y9853661D01*
X7808934Y9863000D01*
X7114750Y9863000D01*
X7054000Y9802250D01*
X6916000Y9802250D01*
X6855250Y9863000D01*
X6161066Y9863000D01*
X6114119Y9853661D01*
X6069896Y9835344D01*
X6030096Y9808750D01*
X5996249Y9774903D01*
X5969656Y9735103D01*
X5951338Y9690880D01*
X5942000Y9643933D01*
X365000Y9643933D01*
X365000Y14587148D01*
X565354Y16630522D01*
X1153605Y18578899D01*
X2109088Y20375904D01*
X3395419Y21953101D01*
X4963596Y23250410D01*
X6753891Y24218419D01*
X8698113Y24820256D01*
X10739404Y25034804D01*
X10777786Y25034937D01*
X12820522Y24834646D01*
X12820522Y24834646D01*
G37*
X12820522Y24834646D02*
X14768899Y24246395D01*
X16565904Y23290912D01*
X18143101Y22004581D01*
X19440410Y20436404D01*
X20408419Y18646109D01*
X21010256Y16701887D01*
X21224804Y14660596D01*
X21225000Y14604300D01*
X21225000Y4217861D01*
X21183622Y4280140D01*
X20804993Y4661422D01*
X20359516Y4961899D01*
X19864161Y5170128D01*
X19337794Y5278175D01*
X18800465Y5281927D01*
X18272641Y5181239D01*
X17774426Y4979947D01*
X17324798Y4685718D01*
X16940882Y4309760D01*
X16637302Y3866392D01*
X16425620Y3372502D01*
X16313901Y2846903D01*
X16306398Y2309613D01*
X16403399Y1781099D01*
X16601207Y1281491D01*
X16892290Y829820D01*
X17265559Y443289D01*
X17378202Y365000D01*
X15711600Y365000D01*
X15711600Y1775250D01*
X15650850Y1836000D01*
X14674000Y1836000D01*
X14674000Y1816000D01*
X14536000Y1816000D01*
X14536000Y1836000D01*
X13559150Y1836000D01*
X13498400Y1775250D01*
X13498400Y365000D01*
X13104959Y365000D01*
X13148293Y443824D01*
X13217845Y663079D01*
X13243485Y891668D01*
X13243600Y908124D01*
X13243600Y2901876D01*
X13221154Y3130801D01*
X13154670Y3351006D01*
X13046681Y3554103D01*
X12901300Y3732358D01*
X12845001Y3778933D01*
X13498400Y3778933D01*
X13498400Y2034750D01*
X13559150Y1974000D01*
X14536000Y1974000D01*
X14536000Y3937250D01*
X14674000Y3937250D01*
X14674000Y1974000D01*
X15650850Y1974000D01*
X15711600Y2034750D01*
X15711600Y3778933D01*
X15702262Y3825880D01*
X15683944Y3870103D01*
X15657351Y3909903D01*
X15623504Y3943750D01*
X15583704Y3970344D01*
X15539481Y3988661D01*
X15492534Y3998000D01*
X14734750Y3998000D01*
X14674000Y3937250D01*
X14536000Y3937250D01*
X14475250Y3998000D01*
X13717466Y3998000D01*
X13670519Y3988661D01*
X13626296Y3970344D01*
X13586496Y3943750D01*
X13552649Y3909903D01*
X13526056Y3870103D01*
X13507738Y3825880D01*
X13498400Y3778933D01*
X12845001Y3778933D01*
X12769564Y3841340D01*
X12768794Y4597429D01*
X12787616Y4609832D01*
X12845390Y4677619D01*
X12881993Y4758819D01*
X12894524Y4847000D01*
X12894524Y5907000D01*
X12890524Y5957163D01*
X12864176Y6042244D01*
X12815168Y6116616D01*
X12747381Y6174390D01*
X12666181Y6210993D01*
X12578000Y6223524D01*
X11928000Y6223524D01*
X11877837Y6219524D01*
X11792756Y6193176D01*
X11718384Y6144168D01*
X11711086Y6135606D01*
X11698881Y6140661D01*
X11651934Y6150000D01*
X11432750Y6150000D01*
X11372000Y6089250D01*
X11372000Y5446000D01*
X11392000Y5446000D01*
X11392000Y5308000D01*
X11372000Y5308000D01*
X11372000Y4664750D01*
X11432750Y4604000D01*
X11651934Y4604000D01*
X11698881Y4613339D01*
X11712450Y4618959D01*
X11738794Y4596507D01*
X11739372Y4028761D01*
X11623489Y3994655D01*
X11419642Y3888086D01*
X11240377Y3743954D01*
X11092521Y3567746D01*
X10981707Y3366176D01*
X10912155Y3146921D01*
X10886515Y2918332D01*
X10886400Y2901876D01*
X10886400Y908124D01*
X10908846Y679199D01*
X10975330Y458994D01*
X11025308Y365000D01*
X10564959Y365000D01*
X10608293Y443824D01*
X10677845Y663079D01*
X10703485Y891668D01*
X10703600Y908124D01*
X10703600Y2901876D01*
X10681154Y3130801D01*
X10614670Y3351006D01*
X10506681Y3554103D01*
X10361300Y3732358D01*
X10184065Y3878980D01*
X9981726Y3988384D01*
X9761990Y4056403D01*
X9533228Y4080447D01*
X9405000Y4068778D01*
X9405000Y5884522D01*
X10240672Y6730476D01*
X10482512Y6730476D01*
X10321518Y6569482D01*
X10317766Y6564915D01*
X10313288Y6561052D01*
X10287441Y6527996D01*
X10260818Y6495585D01*
X10258025Y6490376D01*
X10254382Y6485717D01*
X10235455Y6448284D01*
X10215627Y6411305D01*
X10213897Y6405647D01*
X10211231Y6400374D01*
X10208798Y6393979D01*
X10145331Y6223524D01*
X10028000Y6223524D01*
X9977837Y6219524D01*
X9892756Y6193176D01*
X9818384Y6144168D01*
X9760610Y6076381D01*
X9724007Y5995181D01*
X9711476Y5907000D01*
X9711476Y4847000D01*
X9715476Y4796837D01*
X9741824Y4711756D01*
X9790832Y4637384D01*
X9858619Y4579610D01*
X9939819Y4543007D01*
X10028000Y4530476D01*
X10678000Y4530476D01*
X10728163Y4534476D01*
X10813244Y4560824D01*
X10887616Y4609832D01*
X10894914Y4618394D01*
X10907119Y4613339D01*
X10954066Y4604000D01*
X11173250Y4604000D01*
X11234000Y4664750D01*
X11234000Y5308000D01*
X11214000Y5308000D01*
X11214000Y5446000D01*
X11234000Y5446000D01*
X11234000Y6089250D01*
X11230607Y6092643D01*
X11380394Y6242429D01*
X13184476Y6255156D01*
X13184476Y5656500D01*
X13188476Y5606337D01*
X13214824Y5521256D01*
X13263832Y5446884D01*
X13331619Y5389110D01*
X13412819Y5352507D01*
X13501000Y5339976D01*
X15201000Y5339976D01*
X15251163Y5343976D01*
X15336244Y5370324D01*
X15410616Y5419332D01*
X15468390Y5487119D01*
X15504993Y5568319D01*
X15517524Y5656500D01*
X15517524Y5990250D01*
X16165500Y5990250D01*
X16165500Y5596067D01*
X16174838Y5549120D01*
X16193156Y5504897D01*
X16219749Y5465097D01*
X16253596Y5431250D01*
X16293396Y5404656D01*
X16337619Y5386339D01*
X16384566Y5377000D01*
X17078750Y5377000D01*
X17139500Y5437750D01*
X17139500Y6051000D01*
X17277500Y6051000D01*
X17277500Y5437750D01*
X17338250Y5377000D01*
X18032434Y5377000D01*
X18079381Y5386339D01*
X18123604Y5404656D01*
X18163404Y5431250D01*
X18197251Y5465097D01*
X18223844Y5504897D01*
X18242162Y5549120D01*
X18251500Y5596067D01*
X18251500Y5990250D01*
X18190750Y6051000D01*
X17277500Y6051000D01*
X17139500Y6051000D01*
X16226250Y6051000D01*
X16165500Y5990250D01*
X15517524Y5990250D01*
X15517524Y6556500D01*
X15513524Y6606663D01*
X15501983Y6643933D01*
X16165500Y6643933D01*
X16165500Y6249750D01*
X16226250Y6189000D01*
X17139500Y6189000D01*
X17139500Y6802250D01*
X17277500Y6802250D01*
X17277500Y6189000D01*
X18190750Y6189000D01*
X18251500Y6249750D01*
X18251500Y6643933D01*
X18242162Y6690880D01*
X18223844Y6735103D01*
X18197251Y6774903D01*
X18163404Y6808750D01*
X18123604Y6835344D01*
X18079381Y6853661D01*
X18032434Y6863000D01*
X17338250Y6863000D01*
X17277500Y6802250D01*
X17139500Y6802250D01*
X17078750Y6863000D01*
X16384566Y6863000D01*
X16337619Y6853661D01*
X16293396Y6835344D01*
X16253596Y6808750D01*
X16219749Y6774903D01*
X16193156Y6735103D01*
X16174838Y6690880D01*
X16165500Y6643933D01*
X15501983Y6643933D01*
X15487176Y6691744D01*
X15481628Y6700164D01*
X17084941Y8303476D01*
X18008500Y8303476D01*
X18058663Y8307476D01*
X18143744Y8333824D01*
X18218116Y8382832D01*
X18275890Y8450619D01*
X18312493Y8531819D01*
X18325024Y8620000D01*
X18325024Y9620000D01*
X18321024Y9670163D01*
X18294676Y9755244D01*
X18245668Y9829616D01*
X18177881Y9887390D01*
X18096681Y9923993D01*
X18008500Y9936524D01*
X17698500Y9936524D01*
X17698500Y10096500D01*
X17694090Y10141477D01*
X17690139Y10186636D01*
X17689419Y10189114D01*
X17689168Y10191675D01*
X17676084Y10235012D01*
X17663458Y10278469D01*
X17662274Y10280753D01*
X17661528Y10283224D01*
X17640264Y10323215D01*
X17619449Y10363372D01*
X17617841Y10365386D01*
X17616631Y10367662D01*
X17588006Y10402760D01*
X17559786Y10438111D01*
X17556252Y10441695D01*
X17556190Y10441771D01*
X17556120Y10441829D01*
X17554983Y10442982D01*
X15970529Y12027436D01*
X15978883Y12035392D01*
X16749280Y13127498D01*
X17292879Y14348443D01*
X17588977Y15651721D01*
X17610292Y17178245D01*
X17350700Y18489283D01*
X16841403Y19724930D01*
X16101800Y20838121D01*
X15160064Y21786455D01*
X14052063Y22533811D01*
X12820001Y23051722D01*
X11510808Y23320461D01*
X10174350Y23329791D01*
X8861533Y23079358D01*
X7622360Y22578700D01*
X6504033Y21846887D01*
X5549147Y20911793D01*
X4794074Y19809037D01*
X4267574Y18580621D01*
X3989702Y17273336D01*
X3971042Y15936976D01*
X4212304Y14622442D01*
X4704299Y13379805D01*
X5428287Y12256396D01*
X6356691Y11295005D01*
X7454149Y10532251D01*
X8678859Y9997189D01*
X9984173Y9710197D01*
X11320370Y9682208D01*
X12636556Y9914287D01*
X13882598Y10397595D01*
X15011034Y11113722D01*
X15260628Y11351407D01*
X16675511Y9936524D01*
X16408500Y9936524D01*
X16358337Y9932524D01*
X16273256Y9906176D01*
X16198884Y9857168D01*
X16141110Y9789381D01*
X16104507Y9708181D01*
X16091976Y9620000D01*
X16091976Y8696441D01*
X14338051Y6942515D01*
X13942835Y7172358D01*
X13914122Y7185492D01*
X13886349Y7200506D01*
X13870736Y7205338D01*
X13855870Y7212138D01*
X13825151Y7219446D01*
X13794992Y7228779D01*
X13778739Y7230486D01*
X13762836Y7234269D01*
X13731282Y7235470D01*
X13699883Y7238768D01*
X13693042Y7238768D01*
X13337111Y7236257D01*
X13339261Y7238475D01*
X14296274Y8239976D01*
X15201000Y8239976D01*
X15251163Y8243976D01*
X15336244Y8270324D01*
X15410616Y8319332D01*
X15468390Y8387119D01*
X15504993Y8468319D01*
X15517524Y8556500D01*
X15517524Y9456500D01*
X15513524Y9506663D01*
X15487176Y9591744D01*
X15438168Y9666116D01*
X15370381Y9723890D01*
X15289181Y9760493D01*
X15201000Y9773024D01*
X13501000Y9773024D01*
X13450837Y9769024D01*
X13365756Y9742676D01*
X13291384Y9693668D01*
X13233610Y9625881D01*
X13197007Y9544681D01*
X13184476Y9456500D01*
X13184476Y8556500D01*
X13188476Y8506337D01*
X13190148Y8500939D01*
X12883455Y8179989D01*
X12864176Y8242244D01*
X12815168Y8316616D01*
X12747381Y8374390D01*
X12666181Y8410993D01*
X12578000Y8423524D01*
X11928000Y8423524D01*
X11877837Y8419524D01*
X11792756Y8393176D01*
X11777706Y8383259D01*
X11721988Y8408375D01*
X11687336Y8697322D01*
X11679665Y8732100D01*
X11673994Y8767251D01*
X11668863Y8781074D01*
X11665687Y8795473D01*
X11651406Y8828101D01*
X11639016Y8861479D01*
X11631300Y8874039D01*
X11625386Y8887550D01*
X11605037Y8916787D01*
X11586402Y8947118D01*
X11576392Y8957941D01*
X11567967Y8970046D01*
X11542336Y8994764D01*
X11518157Y9020908D01*
X11506232Y9029583D01*
X11495620Y9039817D01*
X11465675Y9059086D01*
X11436878Y9080035D01*
X11423495Y9086229D01*
X11411097Y9094207D01*
X11377983Y9107293D01*
X11345663Y9122251D01*
X11338857Y9124572D01*
X10957857Y9251572D01*
X10924318Y9259214D01*
X10891322Y9268912D01*
X10875426Y9270353D01*
X10859858Y9273900D01*
X10825472Y9274881D01*
X10791222Y9277986D01*
X10784032Y9277883D01*
X9591632Y9252483D01*
X9549799Y9247480D01*
X9507865Y9243811D01*
X9499987Y9241522D01*
X9491833Y9240547D01*
X9451773Y9227515D01*
X9411345Y9215770D01*
X9404060Y9211994D01*
X9396253Y9209454D01*
X9359493Y9188892D01*
X9322111Y9169515D01*
X9315697Y9164395D01*
X9308532Y9160387D01*
X9276466Y9133077D01*
X9243560Y9106809D01*
X9238440Y9101760D01*
X7073204Y6936524D01*
X6185000Y6936524D01*
X6134837Y6932524D01*
X6049756Y6906176D01*
X5975384Y6857168D01*
X5917610Y6789381D01*
X5881007Y6708181D01*
X5868476Y6620000D01*
X5868476Y5620000D01*
X5872476Y5569837D01*
X5898824Y5484756D01*
X5947832Y5410384D01*
X6015619Y5352610D01*
X6096819Y5316007D01*
X6185000Y5303476D01*
X6470000Y5303476D01*
X6470000Y3956236D01*
X6339642Y3888086D01*
X6160377Y3743954D01*
X6012521Y3567746D01*
X5901707Y3366176D01*
X5832155Y3146921D01*
X5806515Y2918332D01*
X5806400Y2901876D01*
X5806400Y908124D01*
X5828846Y679199D01*
X5895330Y458994D01*
X5945308Y365000D01*
X4226561Y365000D01*
X4235075Y370403D01*
X4624203Y740964D01*
X4933944Y1180051D01*
X5152500Y1670937D01*
X5271548Y2194925D01*
X5280118Y2808671D01*
X5175748Y3335779D01*
X4970983Y3832576D01*
X4673622Y4280140D01*
X4294993Y4661422D01*
X3849516Y4961899D01*
X3354161Y5170128D01*
X2827794Y5278175D01*
X2290465Y5281927D01*
X1762641Y5181239D01*
X1264426Y4979947D01*
X814798Y4685718D01*
X430882Y4309760D01*
X365000Y4213542D01*
X365000Y8990250D01*
X5942000Y8990250D01*
X5942000Y8596067D01*
X5951338Y8549120D01*
X5969656Y8504897D01*
X5996249Y8465097D01*
X6030096Y8431250D01*
X6069896Y8404656D01*
X6114119Y8386339D01*
X6161066Y8377000D01*
X6855250Y8377000D01*
X6916000Y8437750D01*
X6916000Y9051000D01*
X7054000Y9051000D01*
X7054000Y8437750D01*
X7114750Y8377000D01*
X7808934Y8377000D01*
X7855881Y8386339D01*
X7900104Y8404656D01*
X7939904Y8431250D01*
X7973751Y8465097D01*
X8000344Y8504897D01*
X8018662Y8549120D01*
X8028000Y8596067D01*
X8028000Y8990250D01*
X7967250Y9051000D01*
X7054000Y9051000D01*
X6916000Y9051000D01*
X6002750Y9051000D01*
X5942000Y8990250D01*
X365000Y8990250D01*
X365000Y9643933D01*
X5942000Y9643933D01*
X5942000Y9249750D01*
X6002750Y9189000D01*
X6916000Y9189000D01*
X6916000Y9802250D01*
X7054000Y9802250D01*
X7054000Y9189000D01*
X7967250Y9189000D01*
X8028000Y9249750D01*
X8028000Y9643933D01*
X8018662Y9690880D01*
X8000344Y9735103D01*
X7973751Y9774903D01*
X7939904Y9808750D01*
X7900104Y9835344D01*
X7855881Y9853661D01*
X7808934Y9863000D01*
X7114750Y9863000D01*
X7054000Y9802250D01*
X6916000Y9802250D01*
X6855250Y9863000D01*
X6161066Y9863000D01*
X6114119Y9853661D01*
X6069896Y9835344D01*
X6030096Y9808750D01*
X5996249Y9774903D01*
X5969656Y9735103D01*
X5951338Y9690880D01*
X5942000Y9643933D01*
X365000Y9643933D01*
X365000Y14587148D01*
X565354Y16630522D01*
X1153605Y18578899D01*
X2109088Y20375904D01*
X3395419Y21953101D01*
X4963596Y23250410D01*
X6753891Y24218419D01*
X8698113Y24820256D01*
X10739404Y25034804D01*
X10777786Y25034937D01*
X12820522Y24834646D01*
M02*
