<?xml version="1.0" standalone="no"?>
<!DOCTYPE svg PUBLIC "-//W3C//DTD SVG 1.1//EN"
"http://www.w3.org/Graphics/SVG/1.1/DTD/svg11.dtd">
<svg width="1783" height="1378" viewBox="0 0 1783 1378" version="1.1"
xmlns="http://www.w3.org/2000/svg"
xmlns:xlink="http://www.w3.org/1999/xlink">
<g fill-rule="evenodd"><path d="M 725,1065 L 725,106 L 725,103 L 727,100 L 730,99 L 733,98 L 1676,98 L 1680,99 L 1682,100 L 1684,103 L 1684,106 L 1684,1269 L 1684,1272 L 1682,1275 L 1680,1277 L 1676,1277 L 731,1277 L 728,1276 L 726,1274 L 725,1271 L 725,1269 L 725,1065M 807,1163 L 798,1163 L 798,1228 L 799,1231 L 802,1233 L 805,1235 L 909,1235 L 909,1226 L 807,1226 L 807,1163M 807,1131 L 807,1069 L 909,1069 L 909,1060 L 805,1060 L 802,1062 L 799,1064 L 798,1067 L 798,1131 L 807,1131M 941,1226 L 941,1235 L 1044,1235 L 1048,1233 L 1050,1231 L 1051,1228 L 1051,1163 L 1043,1163 L 1043,1226 L 941,1226M 1043,1131 L 1051,1131 L 1051,1067 L 1050,1064 L 1048,1062 L 1044,1060 L 941,1060 L 941,1069 L 1043,1069 L 1043,1131 z " style="fill-opacity:1.000000;fill:rgb(103,198,105);stroke:rgb(0,0,0);stroke-width:2"/></g>
<g fill-rule="evenodd"><path d="M 67,706 L 54,704 L 41,700 L 29,693 L 18,684 L 10,674 L 4,661 L 0,648 L 0,634 L 2,621 L 6,608 L 14,596 L 23,586 L 34,578 L 47,573 L 61,570 L 223,570 L 236,571 L 250,575 L 262,582 L 272,591 L 280,602 L 286,614 L 290,627 L 291,641 L 289,655 L 284,668 L 276,679 L 267,689 L 256,697 L 243,703 L 230,705 L 67,706 z " style="fill-opacity:1.000000;fill:rgb(115,81,255);stroke:rgb(0,0,0);stroke-width:2"/></g>
<g fill-rule="evenodd"><path d="M 67,506 L 54,504 L 41,500 L 29,494 L 18,485 L 10,474 L 4,461 L 0,448 L 0,434 L 2,421 L 6,408 L 14,396 L 23,386 L 34,378 L 47,373 L 61,370 L 223,370 L 236,371 L 250,375 L 262,382 L 272,391 L 280,402 L 286,414 L 290,427 L 291,441 L 289,455 L 284,468 L 276,479 L 267,489 L 256,497 L 243,503 L 230,505 L 67,506 z " style="fill-opacity:1.000000;fill:rgb(74,236,41);stroke:rgb(0,0,0);stroke-width:2"/></g>
<g fill-rule="evenodd"><path d="M 67,306 L 54,304 L 41,300 L 29,294 L 18,285 L 10,274 L 4,261 L 0,248 L 0,234 L 2,221 L 6,208 L 14,196 L 23,186 L 34,178 L 47,173 L 61,170 L 223,170 L 236,171 L 250,175 L 262,182 L 272,191 L 280,202 L 286,214 L 290,228 L 291,241 L 289,255 L 284,268 L 276,279 L 267,289 L 256,297 L 243,303 L 230,305 L 67,306 z " style="fill-opacity:1.000000;fill:rgb(205,186,171);stroke:rgb(0,0,0);stroke-width:2"/></g>
<g fill-rule="evenodd"><path d="M 215,1377 L 175,1377 L 136,1369 L 100,1353 L 67,1329 L 41,1300 L 21,1265 L 8,1227 L 4,1187 L 8,1148 L 21,1110 L 41,1075 L 67,1046 L 100,1022 L 136,1006 L 175,998 L 215,998 L 254,1006 L 290,1022 L 323,1046 L 349,1075 L 369,1110 L 382,1148 L 386,1187 L 382,1227 L 369,1265 L 349,1300 L 323,1329 L 291,1353 L 254,1369 L 215,1377 z " style="fill-opacity:1.000000;fill:rgb(242,251,227);stroke:rgb(0,0,0);stroke-width:2"/></g>
<g fill-rule="evenodd"><path d="M 0,906 L 0,770 L 129,770 L 129,762 L 128,761 L 11,761 L 9,760 L 7,759 L 7,757 L 7,705 L 8,703 L 9,702 L 10,702 L 12,702 L 32,715 L 65,721 L 226,721 L 258,715 L 285,697 L 303,670 L 310,638 L 303,606 L 285,579 L 258,560 L 226,554 L 65,554 L 32,560 L 13,573 L 12,574 L 9,574 L 8,572 L 7,570 L 7,506 L 7,504 L 8,503 L 9,502 L 11,502 L 12,502 L 32,515 L 65,521 L 226,521 L 258,515 L 285,497 L 303,470 L 310,438 L 303,406 L 285,379 L 258,361 L 226,354 L 65,354 L 32,360 L 13,373 L 12,374 L 9,374 L 8,372 L 7,370 L 7,305 L 8,303 L 9,302 L 10,302 L 12,302 L 13,302 L 32,315 L 65,322 L 226,322 L 258,315 L 285,297 L 303,270 L 310,238 L 303,206 L 285,179 L 258,161 L 226,154 L 65,154 L 32,161 L 13,173 L 11,174 L 9,173 L 7,172 L 7,170 L 7,4 L 7,2 L 9,0 L 11,0 L 1779,0 L 1780,0 L 1782,2 L 1783,4 L 1783,1372 L 1782,1374 L 1781,1375 L 1779,1376 L 300,1375 L 298,1374 L 297,1372 L 297,1371 L 298,1369 L 299,1368 L 312,1363 L 370,1305 L 402,1229 L 402,1146 L 370,1071 L 312,1012 L 236,981 L 154,981 L 78,1012 L 20,1070 L 15,1083 L 14,1085 L 12,1086 L 10,1086 L 8,1085 L 7,1083 L 7,1082 L 7,918 L 8,916 L 9,914 L 11,914 L 128,914 L 129,913 L 129,906 L 0,906M 715,1287 L 1694,1287 L 1694,88 L 715,88 L 715,1287 L 715,1287M 291,854 L 291,906 L 161,906 L 161,913 L 162,914 L 292,914 L 296,913 L 298,910 L 299,907 L 299,854 L 298,854 L 291,854M 291,822 L 298,822 L 299,821 L 299,768 L 298,765 L 296,762 L 292,761 L 162,761 L 161,762 L 161,770 L 291,770 L 291,822 z " style="fill-opacity:1.000000;fill:rgb(70,124,194);stroke:rgb(0,0,0);stroke-width:2"/></g>
</svg>
