<?xml version="1.0" standalone="no"?>
<!DOCTYPE svg PUBLIC "-//W3C//DTD SVG 1.1//EN"
"http://www.w3.org/Graphics/SVG/1.1/DTD/svg11.dtd">
<svg width="1910" height="1510" viewBox="0 0 1910 1510" version="1.1"
xmlns="http://www.w3.org/2000/svg"
xmlns:xlink="http://www.w3.org/1999/xlink">
<g fill-rule="evenodd"><path d="M 1854,0 L 1865,1 L 1875,4 L 1885,9 L 1893,16 L 1900,24 L 1905,34 L 1908,44 L 1909,55 L 1909,1454 L 1908,1465 L 1905,1475 L 1900,1485 L 1893,1493 L 1885,1500 L 1875,1505 L 1865,1508 L 1854,1510 L 55,1510 L 44,1508 L 34,1505 L 24,1500 L 16,1493 L 9,1485 L 4,1475 L 1,1465 L 0,1454 L 0,55 L 1,44 L 4,34 L 9,24 L 16,16 L 24,9 L 34,4 L 44,1 L 55,0 L 1854,0 z " style="fill-opacity:1.000000;fill:rgb(103,198,105);stroke:rgb(0,0,0);stroke-width:2"/></g>
</svg>
