<?xml version="1.0" standalone="no"?>
<!DOCTYPE svg PUBLIC "-//W3C//DTD SVG 1.1//EN"
"http://www.w3.org/Graphics/SVG/1.1/DTD/svg11.dtd">
<svg width="1815" height="1415" viewBox="0 0 1815 1415" version="1.1"
xmlns="http://www.w3.org/2000/svg"
xmlns:xlink="http://www.w3.org/1999/xlink">
<g fill-rule="evenodd"><path d="M 406,1206 L 406,1207 L 406,1208 L 402,1247 L 402,1249 L 389,1287 L 389,1288 L 389,1288 L 369,1323 L 368,1324 L 368,1324 L 341,1354 L 340,1355 L 307,1378 L 306,1379 L 270,1395 L 269,1396 L 268,1396 L 229,1404 L 227,1404 L 187,1404 L 187,1404 L 186,1404 L 147,1396 L 146,1396 L 145,1395 L 109,1379 L 107,1378 L 75,1355 L 74,1354 L 47,1324 L 47,1324 L 46,1323 L 26,1288 L 26,1288 L 26,1287 L 13,1249 L 13,1247 L 9,1208 L 9,1206 L 13,1166 L 13,1165 L 26,1127 L 26,1126 L 26,1125 L 46,1091 L 47,1090 L 47,1089 L 74,1060 L 75,1059 L 107,1035 L 109,1034 L 145,1018 L 146,1018 L 147,1018 L 186,1009 L 187,1009 L 187,1009 L 227,1009 L 229,1009 L 268,1018 L 269,1018 L 270,1018 L 306,1034 L 307,1035 L 307,1035 L 340,1059 L 341,1060 L 368,1089 L 368,1090 L 369,1091 L 389,1125 L 389,1126 L 389,1127 L 402,1165 L 402,1165 L 402,1166 L 406,1206 L 406,1206 z " style="fill-opacity:1.000000;fill:rgb(103,198,105);stroke:rgb(0,0,0);stroke-width:2"/></g>
<g fill-rule="evenodd"><path d="M 518,620 L 518,621 L 518,622 L 518,779 L 518,780 L 518,781 L 518,782 L 518,783 L 517,784 L 506,809 L 505,810 L 505,811 L 503,812 L 502,813 L 501,814 L 499,815 L 497,815 L 496,816 L 495,816 L 451,816 L 447,816 L 444,818 L 442,821 L 442,825 L 442,949 L 442,953 L 444,955 L 447,957 L 451,958 L 466,958 L 468,958 L 469,959 L 471,959 L 472,960 L 473,961 L 474,962 L 475,963 L 476,964 L 476,965 L 477,967 L 477,968 L 477,969 L 481,1014 L 481,1015 L 481,1016 L 480,1019 L 480,1020 L 479,1022 L 478,1023 L 476,1024 L 475,1025 L 473,1026 L 472,1026 L 465,1027 L 462,1029 L 460,1032 L 459,1036 L 459,1168 L 460,1171 L 460,1173 L 460,1329 L 1719,1329 L 1719,95 L 805,95 L 805,1219 L 805,1220 L 804,1222 L 804,1223 L 803,1224 L 802,1226 L 801,1227 L 800,1227 L 799,1228 L 798,1229 L 795,1229 L 794,1230 L 793,1230 L 556,1230 L 555,1229 L 553,1229 L 552,1229 L 550,1228 L 549,1227 L 548,1226 L 547,1225 L 546,1224 L 545,1222 L 545,1221 L 544,1219 L 544,1218 L 544,1178 L 544,1176 L 545,1175 L 545,1173 L 546,1172 L 546,1172 L 547,1167 L 547,1036 L 546,1032 L 544,1029 L 542,1028 L 537,1027 L 527,1027 L 526,1026 L 525,1026 L 523,1026 L 522,1025 L 521,1024 L 520,1023 L 519,1022 L 518,1021 L 517,1020 L 517,1019 L 517,1017 L 516,1016 L 513,971 L 513,970 L 513,968 L 514,966 L 514,965 L 515,963 L 516,962 L 518,960 L 519,960 L 520,959 L 522,959 L 523,958 L 525,958 L 527,958 L 531,957 L 534,956 L 536,953 L 537,949 L 537,843 L 537,842 L 537,841 L 538,839 L 538,838 L 539,837 L 540,836 L 541,835 L 542,834 L 543,833 L 545,832 L 546,832 L 548,832 L 558,832 L 560,832 L 561,832 L 562,832 L 564,834 L 565,834 L 566,835 L 567,837 L 568,839 L 569,840 L 569,841 L 569,842 L 569,843 L 569,996 L 569,996 L 570,997 L 570,997 L 570,998 L 570,999 L 570,999 L 570,1001 L 570,1002 L 570,1002 L 571,1004 L 571,1005 L 572,1005 L 572,1005 L 572,1006 L 573,1007 L 573,1008 L 574,1008 L 575,1009 L 575,1009 L 575,1010 L 576,1010 L 576,1011 L 577,1011 L 577,1012 L 577,1012 L 683,1091 L 684,1092 L 685,1093 L 686,1094 L 686,1095 L 687,1096 L 687,1098 L 688,1099 L 688,1100 L 688,1168 L 688,1172 L 690,1174 L 693,1176 L 697,1177 L 766,1177 L 770,1176 L 772,1174 L 774,1172 L 775,1168 L 775,1036 L 774,1032 L 772,1029 L 770,1028 L 765,1027 L 697,1027 L 693,1027 L 690,1029 L 687,1035 L 686,1036 L 684,1037 L 683,1038 L 682,1038 L 680,1039 L 679,1039 L 677,1039 L 676,1039 L 674,1039 L 673,1038 L 672,1038 L 670,1037 L 610,992 L 609,991 L 608,990 L 607,988 L 606,987 L 606,986 L 605,985 L 605,984 L 605,982 L 605,843 L 605,842 L 605,841 L 606,839 L 605,837 L 605,836 L 605,835 L 605,767 L 605,766 L 605,765 L 606,763 L 606,762 L 607,761 L 608,760 L 609,759 L 610,758 L 611,757 L 613,756 L 614,756 L 616,756 L 644,756 L 648,755 L 651,753 L 653,750 L 654,746 L 654,697 L 653,693 L 651,691 L 651,690 L 650,689 L 650,687 L 649,685 L 649,684 L 650,683 L 650,681 L 650,680 L 651,679 L 653,676 L 653,673 L 654,672 L 655,671 L 655,669 L 656,668 L 657,668 L 658,667 L 660,666 L 661,665 L 663,665 L 663,665 L 664,665 L 676,665 L 676,665 L 677,665 L 678,665 L 680,664 L 682,664 L 684,663 L 686,662 L 688,661 L 690,659 L 690,659 L 707,642 L 707,642 L 708,642 L 708,641 L 709,639 L 710,637 L 711,636 L 712,634 L 712,631 L 713,629 L 713,628 L 713,464 L 713,464 L 713,463 L 713,462 L 713,462 L 712,461 L 712,461 L 712,460 L 712,459 L 712,458 L 712,457 L 711,457 L 711,456 L 710,455 L 710,454 L 710,454 L 709,453 L 709,452 L 708,452 L 707,451 L 707,450 L 706,450 L 706,449 L 705,449 L 704,448 L 704,448 L 451,272 L 450,271 L 449,270 L 448,268 L 448,267 L 447,266 L 447,264 L 447,263 L 447,195 L 446,191 L 444,189 L 442,187 L 437,186 L 361,186 L 357,187 L 354,189 L 352,191 L 352,195 L 352,228 L 351,229 L 351,230 L 351,232 L 350,234 L 349,235 L 348,236 L 346,237 L 345,238 L 344,239 L 343,239 L 341,239 L 340,240 L 320,240 L 319,239 L 318,239 L 316,239 L 314,238 L 313,237 L 312,237 L 311,235 L 310,234 L 309,233 L 309,232 L 308,230 L 308,228 L 292,204 L 267,187 L 260,186 L 251,184 L 249,183 L 239,182 L 237,181 L 78,181 L 76,182 L 73,182 L 73,182 L 71,182 L 70,182 L 69,182 L 67,181 L 65,181 L 64,180 L 63,179 L 62,177 L 61,176 L 60,175 L 60,174 L 60,172 L 60,171 L 60,27 L 60,26 L 60,24 L 60,23 L 61,21 L 62,20 L 63,19 L 64,18 L 65,17 L 67,16 L 68,16 L 70,15 L 71,15 L 1787,15 L 1788,15 L 1790,16 L 1791,16 L 1792,17 L 1793,17 L 1795,19 L 1796,20 L 1797,21 L 1798,23 L 1798,25 L 1799,26 L 1799,27 L 1799,1387 L 1799,1388 L 1798,1389 L 1798,1391 L 1797,1392 L 1797,1393 L 1796,1394 L 1794,1396 L 1793,1397 L 1792,1397 L 1791,1398 L 1789,1398 L 1788,1399 L 1787,1399 L 322,1399 L 320,1399 L 319,1398 L 318,1398 L 316,1397 L 315,1396 L 314,1395 L 313,1393 L 312,1391 L 311,1390 L 311,1389 L 311,1388 L 311,1386 L 311,1385 L 311,1384 L 312,1382 L 313,1380 L 313,1379 L 314,1378 L 315,1378 L 317,1377 L 318,1376 L 320,1375 L 376,1319 L 406,1246 L 406,1167 L 376,1094 L 320,1038 L 247,1008 L 168,1008 L 95,1038 L 39,1094 L 38,1096 L 37,1098 L 36,1099 L 36,1100 L 35,1101 L 34,1102 L 32,1103 L 30,1103 L 29,1103 L 28,1104 L 26,1104 L 25,1103 L 24,1103 L 23,1103 L 21,1102 L 20,1101 L 19,1100 L 18,1099 L 17,1098 L 16,1096 L 16,1095 L 15,1093 L 15,1092 L 15,968 L 15,967 L 16,966 L 16,964 L 17,962 L 18,961 L 19,960 L 21,958 L 22,958 L 23,957 L 24,957 L 25,956 L 27,956 L 60,956 L 60,952 L 60,951 L 60,950 L 61,949 L 62,947 L 63,945 L 64,944 L 65,943 L 67,942 L 68,942 L 69,941 L 71,941 L 133,941 L 133,941 L 133,933 L 12,933 L 10,933 L 9,932 L 7,931 L 6,930 L 5,929 L 5,928 L 4,926 L 4,925 L 4,789 L 4,787 L 5,786 L 5,785 L 6,783 L 7,782 L 9,782 L 10,781 L 12,781 L 133,781 L 133,773 L 133,773 L 71,773 L 70,773 L 69,772 L 67,772 L 65,771 L 64,770 L 63,769 L 62,767 L 61,766 L 60,765 L 60,764 L 60,762 L 60,761 L 60,744 L 60,742 L 60,741 L 60,739 L 61,738 L 62,737 L 63,735 L 64,734 L 65,733 L 67,733 L 69,732 L 70,732 L 73,732 L 75,732 L 78,733 L 80,733 L 204,733 L 205,733 L 207,733 L 209,734 L 210,734 L 211,735 L 211,736 L 214,737 L 215,738 L 217,739 L 220,739 L 221,739 L 222,739 L 223,740 L 223,740 L 223,740 L 370,740 L 371,740 L 372,740 L 374,741 L 375,741 L 376,742 L 377,743 L 378,744 L 379,745 L 380,746 L 380,747 L 381,750 L 383,753 L 386,755 L 390,756 L 471,756 L 475,755 L 478,753 L 480,750 L 481,746 L 481,697 L 480,693 L 480,692 L 480,690 L 481,688 L 482,686 L 483,686 L 483,685 L 486,682 L 489,676 L 489,671 L 489,671 L 480,671 L 480,673 L 480,674 L 480,676 L 479,677 L 478,678 L 477,679 L 475,680 L 474,680 L 472,680 L 389,680 L 387,680 L 386,680 L 385,679 L 383,678 L 382,677 L 382,676 L 381,674 L 381,673 L 381,671 L 373,671 L 373,671 L 373,676 L 375,682 L 377,684 L 378,685 L 379,686 L 380,688 L 380,689 L 380,691 L 381,692 L 380,694 L 380,695 L 380,697 L 379,698 L 378,699 L 377,701 L 376,702 L 375,703 L 373,703 L 371,704 L 370,704 L 369,704 L 317,704 L 316,704 L 314,703 L 313,703 L 312,702 L 310,701 L 309,700 L 308,699 L 308,697 L 307,696 L 306,695 L 306,693 L 306,692 L 306,690 L 307,689 L 307,688 L 308,686 L 314,657 L 308,628 L 292,604 L 267,587 L 260,586 L 251,583 L 249,583 L 239,582 L 237,581 L 78,581 L 76,582 L 74,582 L 73,582 L 72,582 L 71,582 L 71,582 L 69,582 L 69,582 L 68,582 L 66,581 L 65,580 L 64,579 L 63,578 L 62,577 L 61,576 L 61,575 L 60,573 L 60,572 L 60,570 L 60,544 L 60,543 L 60,541 L 61,539 L 61,538 L 62,537 L 63,535 L 65,534 L 66,533 L 67,533 L 68,532 L 70,532 L 70,532 L 73,532 L 75,533 L 78,533 L 80,533 L 237,533 L 239,533 L 242,532 L 243,532 L 257,529 L 258,529 L 261,528 L 267,527 L 292,511 L 308,486 L 308,484 L 309,483 L 309,481 L 310,480 L 311,479 L 312,478 L 313,477 L 315,476 L 316,476 L 318,475 L 319,475 L 477,475 L 478,475 L 479,475 L 480,475 L 481,476 L 483,477 L 484,478 L 485,478 L 551,544 L 551,545 L 552,546 L 552,547 L 553,548 L 553,550 L 554,551 L 554,552 L 554,574 L 554,576 L 553,577 L 553,579 L 552,580 L 551,581 L 551,582 L 550,583 L 548,584 L 546,585 L 545,585 L 544,586 L 543,586 L 541,586 L 540,586 L 538,585 L 537,585 L 535,584 L 534,583 L 512,561 L 511,560 L 509,559 L 507,557 L 506,556 L 505,556 L 504,556 L 500,555 L 498,555 L 497,555 L 497,555 L 492,555 L 491,554 L 489,554 L 487,554 L 486,553 L 484,552 L 483,551 L 482,549 L 481,548 L 481,547 L 480,546 L 480,544 L 478,541 L 475,539 L 471,538 L 390,538 L 386,539 L 383,541 L 382,544 L 381,548 L 381,597 L 381,601 L 381,603 L 381,604 L 380,606 L 379,608 L 379,609 L 378,609 L 375,612 L 373,618 L 373,623 L 373,623 L 381,623 L 381,621 L 381,620 L 382,618 L 382,617 L 383,616 L 385,615 L 386,614 L 387,614 L 389,614 L 472,614 L 474,614 L 475,614 L 477,615 L 478,616 L 479,617 L 480,618 L 480,620 L 480,621 L 480,623 L 489,623 L 489,623 L 489,615 L 489,614 L 489,612 L 490,611 L 491,610 L 492,608 L 493,607 L 494,606 L 495,606 L 496,605 L 498,605 L 499,604 L 501,604 L 502,604 L 504,605 L 505,605 L 506,606 L 508,607 L 509,608 L 515,614 L 516,615 L 516,616 L 517,618 L 518,619 L 518,620M 181,933 L 181,941 L 181,941 L 306,941 L 312,939 L 317,934 L 319,928 L 319,881 L 319,881 L 311,881 L 311,925 L 311,926 L 310,928 L 310,929 L 309,930 L 307,931 L 306,932 L 305,933 L 303,933 L 181,933M 181,773 L 181,773 L 181,781 L 303,781 L 305,781 L 306,782 L 307,782 L 309,783 L 310,785 L 310,786 L 311,787 L 311,789 L 311,833 L 319,833 L 319,833 L 319,786 L 317,780 L 312,775 L 306,773 L 181,773M 677,810 L 672,815 L 669,821 L 669,834 L 669,836 L 669,837 L 669,838 L 669,839 L 669,840 L 669,841 L 669,842 L 669,863 L 670,863 L 678,863 L 678,824 L 678,822 L 679,821 L 679,820 L 680,818 L 681,817 L 683,817 L 684,816 L 686,816 L 701,816 L 701,808 L 701,808 L 683,808 L 677,810M 677,964 L 683,966 L 701,966 L 701,966 L 701,958 L 686,958 L 684,958 L 683,957 L 681,956 L 680,955 L 679,954 L 679,953 L 678,951 L 678,950 L 678,911 L 670,911 L 669,911 L 669,953 L 672,959 L 677,964M 749,966 L 749,966 L 768,966 L 774,964 L 778,959 L 781,953 L 781,911 L 781,911 L 772,911 L 772,950 L 772,951 L 772,953 L 771,954 L 770,955 L 769,956 L 768,957 L 766,958 L 765,958 L 749,958 L 749,966M 781,863 L 781,821 L 778,815 L 774,810 L 768,808 L 749,808 L 749,808 L 749,816 L 765,816 L 766,816 L 768,817 L 769,817 L 770,818 L 771,820 L 772,821 L 772,822 L 772,824 L 772,863 L 781,863 L 781,863M 678,337 L 684,334 L 688,329 L 691,323 L 691,281 L 691,281 L 682,281 L 682,320 L 682,322 L 682,323 L 681,325 L 680,326 L 679,327 L 678,327 L 676,328 L 675,328 L 659,328 L 659,336 L 659,337 L 678,337M 678,178 L 659,178 L 659,178 L 659,186 L 675,186 L 676,187 L 678,187 L 679,188 L 680,189 L 681,190 L 682,191 L 682,193 L 682,194 L 682,233 L 691,233 L 691,233 L 691,191 L 688,185 L 684,180 L 678,178M 580,191 L 580,233 L 580,233 L 588,233 L 588,194 L 588,193 L 589,191 L 589,190 L 590,189 L 592,188 L 593,187 L 594,187 L 596,186 L 611,186 L 611,178 L 611,178 L 593,178 L 587,180 L 582,185 L 580,191M 588,281 L 580,281 L 580,281 L 580,323 L 582,329 L 587,334 L 593,337 L 611,337 L 611,336 L 611,328 L 596,328 L 594,328 L 593,327 L 592,327 L 590,326 L 589,325 L 589,323 L 588,322 L 588,320 L 588,281 z " style="fill-opacity:1.000000;fill:rgb(115,81,255);stroke:rgb(0,0,0);stroke-width:2"/></g>
<g fill-rule="evenodd"><path d="M 223,740 L 222,739 L 221,739 L 220,739 L 217,739 L 215,738 L 214,737 L 211,736 L 211,735 L 210,734 L 208,733 L 80,733 L 79,733 L 75,732 L 73,732 L 71,732 L 65,731 L 64,731 L 51,727 L 49,726 L 37,720 L 36,719 L 25,710 L 24,709 L 16,698 L 15,696 L 9,684 L 8,683 L 5,669 L 5,668 L 4,654 L 4,652 L 6,639 L 7,637 L 11,624 L 12,623 L 19,611 L 20,610 L 30,600 L 31,599 L 42,591 L 44,590 L 56,585 L 58,584 L 70,582 L 71,582 L 71,582 L 72,582 L 73,582 L 74,582 L 76,582 L 235,581 L 236,581 L 239,582 L 249,583 L 251,583 L 260,586 L 264,587 L 266,588 L 278,594 L 279,595 L 289,604 L 291,605 L 299,616 L 300,618 L 306,630 L 306,631 L 310,645 L 310,646 L 311,660 L 311,662 L 309,675 L 308,677 L 303,690 L 303,691 L 295,703 L 294,704 L 294,704 L 369,704 L 381,704 L 381,696 L 381,695 L 382,693 L 382,692 L 383,691 L 385,690 L 386,689 L 387,689 L 389,688 L 472,688 L 474,689 L 475,689 L 477,690 L 478,691 L 479,692 L 480,693 L 480,695 L 480,696 L 480,747 L 480,748 L 480,750 L 480,750 L 479,751 L 478,752 L 478,753 L 477,753 L 476,754 L 475,755 L 474,755 L 473,755 L 472,755 L 389,755 L 388,755 L 387,755 L 386,755 L 385,754 L 384,753 L 383,753 L 383,752 L 382,750 L 382,750 L 381,749 L 381,747 L 381,740 L 223,740 z " style="fill-opacity:1.000000;fill:rgb(74,236,41);stroke:rgb(0,0,0);stroke-width:2"/></g>
<g fill-rule="evenodd"><path d="M 460,1034 L 460,1033 L 460,1032 L 461,1031 L 462,1030 L 462,1029 L 463,1029 L 464,1028 L 465,1028 L 465,1027 L 467,1027 L 468,1027 L 482,1027 L 477,958 L 450,958 L 449,958 L 447,957 L 447,957 L 446,957 L 445,956 L 444,955 L 444,955 L 443,953 L 442,953 L 442,952 L 442,951 L 442,950 L 442,824 L 442,823 L 442,822 L 442,821 L 443,820 L 444,819 L 444,818 L 445,818 L 446,817 L 447,817 L 448,816 L 449,816 L 450,816 L 502,816 L 506,809 L 506,809 L 515,790 L 518,782 L 518,617 L 491,590 L 480,590 L 480,598 L 480,599 L 480,601 L 479,602 L 478,603 L 477,604 L 475,605 L 474,606 L 472,606 L 389,606 L 387,606 L 386,605 L 385,604 L 383,603 L 382,602 L 382,601 L 381,599 L 381,598 L 381,547 L 381,546 L 381,544 L 382,544 L 382,543 L 383,542 L 383,541 L 384,541 L 386,540 L 386,539 L 387,539 L 388,539 L 389,539 L 472,539 L 473,539 L 475,539 L 475,539 L 476,540 L 477,541 L 478,541 L 478,542 L 479,543 L 480,544 L 480,545 L 480,547 L 480,555 L 492,555 L 497,555 L 498,555 L 500,555 L 504,556 L 505,556 L 506,556 L 507,557 L 509,559 L 511,560 L 549,598 L 550,599 L 552,602 L 552,603 L 553,604 L 553,606 L 554,607 L 554,608 L 554,785 L 554,786 L 554,787 L 554,788 L 553,789 L 553,792 L 552,793 L 536,827 L 536,950 L 536,951 L 536,952 L 536,953 L 535,954 L 534,955 L 534,955 L 533,956 L 532,957 L 531,957 L 530,957 L 529,958 L 528,958 L 512,958 L 517,1027 L 538,1027 L 539,1027 L 541,1027 L 541,1028 L 542,1028 L 544,1029 L 544,1029 L 545,1030 L 546,1032 L 546,1032 L 546,1033 L 546,1034 L 546,1035 L 546,1169 L 546,1169 L 546,1171 L 546,1172 L 545,1173 L 544,1174 L 543,1175 L 541,1176 L 540,1176 L 540,1232 L 809,1232 L 809,115 L 809,114 L 810,111 L 810,110 L 811,108 L 811,107 L 812,106 L 813,105 L 815,103 L 816,102 L 818,101 L 820,100 L 821,100 L 823,100 L 824,99 L 825,99 L 1699,99 L 1700,100 L 1703,100 L 1704,101 L 1705,101 L 1707,102 L 1708,102 L 1709,103 L 1711,105 L 1712,106 L 1712,107 L 1713,108 L 1713,110 L 1714,111 L 1714,114 L 1714,115 L 1714,1309 L 1714,1310 L 1714,1310 L 1714,1314 L 1713,1315 L 1713,1316 L 1712,1317 L 1711,1318 L 1711,1319 L 1709,1321 L 1708,1322 L 1707,1322 L 1705,1323 L 1704,1324 L 1702,1324 L 1700,1324 L 1699,1325 L 480,1325 L 479,1325 L 478,1324 L 477,1324 L 476,1324 L 473,1323 L 471,1322 L 470,1321 L 468,1319 L 467,1318 L 467,1317 L 466,1316 L 465,1314 L 465,1313 L 465,1310 L 464,1309 L 464,1176 L 463,1175 L 462,1174 L 461,1173 L 460,1172 L 460,1170 L 460,1170 L 460,1169 L 460,1035 L 460,1034 z " style="fill-opacity:1.000000;fill:rgb(205,186,171);stroke:rgb(0,0,0);stroke-width:2"/></g>
<g fill-rule="evenodd"><path d="M 610,992 L 610,992 L 660,1030 L 688,1050 L 688,1035 L 688,1033 L 688,1033 L 690,1029 L 690,1029 L 691,1029 L 692,1028 L 693,1028 L 694,1027 L 695,1027 L 696,1027 L 767,1027 L 767,1027 L 769,1027 L 770,1028 L 770,1028 L 772,1029 L 772,1029 L 773,1030 L 774,1032 L 774,1032 L 774,1033 L 774,1034 L 775,1035 L 775,1169 L 774,1169 L 774,1171 L 774,1172 L 774,1172 L 773,1174 L 772,1174 L 772,1175 L 770,1176 L 770,1176 L 769,1176 L 768,1176 L 767,1177 L 696,1177 L 695,1176 L 693,1176 L 693,1176 L 692,1176 L 691,1175 L 690,1174 L 690,1174 L 689,1172 L 689,1172 L 688,1171 L 688,1170 L 688,1169 L 688,1095 L 683,1091 L 683,1091 L 666,1078 L 577,1012 L 577,1011 L 576,1011 L 576,1010 L 575,1010 L 575,1009 L 575,1009 L 574,1008 L 573,1008 L 573,1007 L 572,1006 L 572,1005 L 571,1005 L 571,1004 L 570,1002 L 570,1002 L 570,1001 L 570,999 L 570,999 L 570,998 L 570,997 L 570,997 L 569,996 L 569,755 L 562,755 L 561,755 L 559,755 L 558,754 L 556,753 L 556,752 L 555,750 L 555,750 L 554,749 L 554,747 L 554,696 L 554,695 L 555,693 L 556,692 L 556,691 L 558,690 L 559,689 L 561,689 L 562,688 L 645,688 L 647,689 L 648,689 L 650,690 L 651,691 L 652,691 L 653,693 L 653,693 L 653,694 L 653,695 L 653,696 L 653,747 L 653,748 L 653,750 L 653,750 L 652,751 L 651,752 L 651,753 L 650,753 L 649,754 L 648,755 L 647,755 L 647,755 L 645,755 L 605,755 L 605,767 L 605,835 L 605,843 L 605,982 L 605,988 L 610,992 z " style="fill-opacity:1.000000;fill:rgb(242,251,227);stroke:rgb(0,0,0);stroke-width:2"/></g>
<g fill-rule="evenodd"><path d="M 696,443 L 704,448 L 705,449 L 706,449 L 706,450 L 707,450 L 707,451 L 708,452 L 709,452 L 709,453 L 710,454 L 710,454 L 710,455 L 711,456 L 711,457 L 712,457 L 712,458 L 712,459 L 712,460 L 712,461 L 712,461 L 713,462 L 713,462 L 713,463 L 713,464 L 713,629 L 712,631 L 712,634 L 711,636 L 710,637 L 709,639 L 708,641 L 708,642 L 707,642 L 690,659 L 688,661 L 686,662 L 684,663 L 682,664 L 680,664 L 678,665 L 677,665 L 676,665 L 653,665 L 653,673 L 653,674 L 653,674 L 653,676 L 652,676 L 652,678 L 651,678 L 650,679 L 648,680 L 647,680 L 645,680 L 562,680 L 561,680 L 559,680 L 558,679 L 556,678 L 556,677 L 555,676 L 554,674 L 554,673 L 554,621 L 554,620 L 555,618 L 556,617 L 556,616 L 558,615 L 559,614 L 561,614 L 562,614 L 645,614 L 647,614 L 648,614 L 650,615 L 651,616 L 652,617 L 653,618 L 653,620 L 653,621 L 653,629 L 670,629 L 677,622 L 677,472 L 446,312 L 446,320 L 446,322 L 446,323 L 445,325 L 444,326 L 443,327 L 442,327 L 440,328 L 439,328 L 360,328 L 358,328 L 357,327 L 355,327 L 354,326 L 353,325 L 353,323 L 352,322 L 352,320 L 352,275 L 309,275 L 309,275 L 308,277 L 303,290 L 303,291 L 295,303 L 294,304 L 285,314 L 284,315 L 273,323 L 271,324 L 258,329 L 257,330 L 243,333 L 242,333 L 80,333 L 79,333 L 65,332 L 64,331 L 51,327 L 49,327 L 37,320 L 36,319 L 25,310 L 24,309 L 16,298 L 15,297 L 9,284 L 8,283 L 5,270 L 5,268 L 4,254 L 4,253 L 6,239 L 7,237 L 11,225 L 12,223 L 19,211 L 20,210 L 30,200 L 31,199 L 42,191 L 44,191 L 56,185 L 58,185 L 70,182 L 71,182 L 73,182 L 73,182 L 76,182 L 235,181 L 236,181 L 239,182 L 249,183 L 251,184 L 260,186 L 264,187 L 266,188 L 278,195 L 279,195 L 289,204 L 291,206 L 299,216 L 300,218 L 306,230 L 306,231 L 306,232 L 308,240 L 320,240 L 340,240 L 352,240 L 352,194 L 352,194 L 352,192 L 353,191 L 353,191 L 354,189 L 354,189 L 355,188 L 356,187 L 357,187 L 358,187 L 359,187 L 360,186 L 439,186 L 439,186 L 441,187 L 442,187 L 442,187 L 444,188 L 444,189 L 445,189 L 446,191 L 446,191 L 446,192 L 446,193 L 446,194 L 446,269 L 696,443 z " style="fill-opacity:1.000000;fill:rgb(70,124,194);stroke:rgb(0,0,0);stroke-width:2"/></g>
<g fill-rule="evenodd"><path d="M 261,528 L 258,529 L 257,529 L 243,532 L 242,532 L 239,533 L 80,533 L 79,533 L 75,533 L 73,532 L 71,532 L 65,532 L 64,531 L 51,527 L 49,526 L 37,520 L 36,519 L 25,510 L 24,509 L 16,498 L 15,497 L 9,484 L 8,483 L 5,469 L 5,468 L 4,454 L 4,452 L 6,439 L 7,437 L 11,424 L 12,423 L 19,411 L 20,410 L 30,400 L 31,399 L 42,391 L 44,390 L 56,385 L 58,385 L 71,382 L 73,382 L 235,381 L 236,381 L 249,383 L 251,383 L 264,387 L 266,388 L 278,394 L 279,395 L 289,404 L 291,405 L 299,416 L 300,418 L 306,430 L 306,431 L 306,432 L 308,439 L 489,439 L 490,440 L 494,440 L 495,441 L 497,442 L 500,444 L 501,445 L 595,539 L 645,539 L 647,539 L 648,539 L 650,540 L 651,541 L 652,542 L 653,544 L 653,545 L 653,547 L 653,598 L 653,599 L 653,601 L 652,602 L 651,603 L 650,604 L 648,605 L 647,606 L 645,606 L 562,606 L 561,606 L 559,605 L 558,604 L 556,603 L 556,602 L 555,601 L 554,599 L 554,598 L 554,548 L 481,475 L 309,475 L 309,475 L 308,477 L 303,490 L 303,491 L 295,503 L 294,504 L 285,514 L 284,515 L 273,523 L 271,524 L 261,528 z " style="fill-opacity:1.000000;fill:rgb(84,248,27);stroke:rgb(0,0,0);stroke-width:2"/></g>
</svg>
