<?xml version="1.0" standalone="no"?>
<!DOCTYPE svg PUBLIC "-//W3C//DTD SVG 1.1//EN"
"http://www.w3.org/Graphics/SVG/1.1/DTD/svg11.dtd">
<svg width="1815" height="1415" viewBox="0 0 1815 1415" version="1.1"
xmlns="http://www.w3.org/2000/svg"
xmlns:xlink="http://www.w3.org/1999/xlink">
<g fill-rule="evenodd"><path d="M 732,1289 L 732,1289 L 732,1085 L 732,125 L 732,124 L 732,121 L 733,119 L 734,116 L 734,115 L 736,114 L 739,113 L 741,113 L 744,112 L 745,112 L 1689,112 L 1690,112 L 1693,113 L 1695,113 L 1698,114 L 1699,115 L 1700,116 L 1701,119 L 1701,121 L 1701,124 L 1702,125 L 1702,1289 L 1702,1290 L 1701,1292 L 1701,1294 L 1700,1297 L 1699,1299 L 1699,1300 L 1695,1301 L 1693,1301 L 1690,1302 L 1689,1302 L 743,1302 L 741,1301 L 738,1301 L 736,1300 L 734,1299 L 734,1298 L 733,1295 L 732,1292 L 732,1291 L 732,1289 z " style="fill-opacity:0.300000;fill:rgb(103,198,105);"/></g>
<g fill-rule="evenodd"><path d="M 0,608 L 7,607 L 10,607 L 12,607 L 16,606 L 21,604 L 23,604 L 27,601 L 29,600 L 29,600 L 30,599 L 31,599 L 42,591 L 44,590 L 48,588 L 56,585 L 58,585 L 71,582 L 73,582 L 78,581 L 235,581 L 236,581 L 237,581 L 249,583 L 251,583 L 264,587 L 266,587 L 267,588 L 278,594 L 279,595 L 290,604 L 291,604 L 291,605 L 299,616 L 300,617 L 307,629 L 307,629 L 308,631 L 311,645 L 311,646 L 312,657 L 312,660 L 312,662 L 309,675 L 309,677 L 307,685 L 304,690 L 303,692 L 296,703 L 295,704 L 291,710 L 285,714 L 284,715 L 273,723 L 271,724 L 267,726 L 258,729 L 257,729 L 243,732 L 242,732 L 237,733 L 80,733 L 79,733 L 78,733 L 65,731 L 64,731 L 51,727 L 49,727 L 48,726 L 37,720 L 36,719 L 29,714 L 26,712 L 24,711 L 23,711 L 22,710 L 17,709 L 15,708 L 6,707 L 5,707 L 4,707 L 0,706 L 0,608 z " style="fill-opacity:0.300000;fill:rgb(115,81,255);"/></g>
<g fill-rule="evenodd"><path d="M 0,408 L 7,407 L 10,407 L 12,407 L 16,406 L 21,405 L 23,404 L 27,401 L 29,400 L 29,400 L 30,399 L 31,399 L 42,391 L 44,390 L 48,388 L 56,385 L 58,385 L 71,382 L 73,382 L 78,381 L 235,381 L 236,381 L 237,381 L 249,383 L 251,384 L 264,387 L 266,387 L 267,388 L 278,394 L 279,395 L 290,404 L 291,404 L 291,405 L 299,416 L 300,417 L 307,429 L 307,429 L 308,431 L 311,445 L 311,446 L 312,457 L 312,460 L 312,462 L 309,475 L 309,477 L 307,485 L 304,490 L 303,492 L 296,503 L 295,505 L 291,510 L 285,514 L 284,515 L 273,523 L 271,524 L 267,526 L 258,529 L 257,529 L 243,532 L 242,532 L 237,533 L 80,533 L 79,533 L 78,533 L 65,531 L 64,531 L 51,527 L 49,527 L 48,526 L 37,520 L 36,519 L 29,514 L 26,512 L 25,512 L 24,511 L 22,510 L 21,510 L 19,509 L 13,508 L 11,507 L 5,507 L 0,506 L 0,408 z " style="fill-opacity:0.300000;fill:rgb(74,236,41);"/></g>
<g fill-rule="evenodd"><path d="M 0,208 L 2,208 L 12,207 L 16,206 L 17,206 L 20,205 L 26,202 L 28,201 L 29,200 L 30,200 L 31,199 L 42,191 L 44,190 L 48,188 L 56,185 L 58,185 L 71,182 L 73,182 L 78,182 L 235,181 L 236,181 L 237,181 L 249,183 L 251,184 L 264,187 L 266,188 L 267,188 L 278,195 L 279,195 L 290,204 L 291,205 L 291,205 L 299,216 L 300,218 L 307,229 L 307,230 L 308,231 L 311,245 L 311,247 L 312,257 L 312,260 L 312,262 L 309,276 L 309,277 L 307,286 L 304,290 L 303,292 L 296,303 L 295,305 L 291,310 L 285,315 L 284,316 L 273,323 L 271,324 L 267,326 L 258,329 L 257,329 L 243,332 L 242,332 L 237,333 L 80,333 L 79,333 L 78,333 L 65,331 L 64,331 L 51,327 L 49,327 L 48,327 L 37,320 L 36,319 L 30,315 L 29,314 L 27,313 L 24,311 L 24,311 L 22,311 L 22,311 L 17,309 L 15,308 L 6,307 L 5,307 L 4,307 L 0,306 L 0,208 z " style="fill-opacity:0.300000;fill:rgb(205,186,171);"/></g>
<g fill-rule="evenodd"><path d="M 0,1128 L 9,1125 L 12,1124 L 14,1123 L 19,1121 L 22,1119 L 24,1118 L 29,1115 L 31,1113 L 34,1109 L 35,1108 L 35,1106 L 41,1095 L 45,1090 L 46,1088 L 74,1060 L 75,1058 L 96,1040 L 107,1034 L 108,1034 L 145,1018 L 147,1017 L 168,1010 L 186,1009 L 187,1009 L 227,1009 L 229,1009 L 247,1010 L 268,1017 L 270,1018 L 306,1034 L 308,1034 L 319,1040 L 340,1058 L 341,1060 L 368,1089 L 370,1090 L 374,1096 L 389,1125 L 389,1127 L 403,1164 L 404,1166 L 404,1168 L 406,1206 L 406,1208 L 404,1246 L 404,1247 L 403,1249 L 389,1287 L 389,1288 L 374,1318 L 370,1324 L 369,1325 L 341,1354 L 340,1355 L 318,1373 L 308,1379 L 308,1379 L 307,1380 L 306,1380 L 305,1381 L 301,1383 L 300,1385 L 296,1390 L 295,1392 L 290,1402 L 289,1405 L 286,1415 L 0,1415 L 0,1128 z " style="fill-opacity:0.300000;fill:rgb(242,251,227);"/></g>
<g fill-rule="evenodd"><path d="M 0,940 L 0,706 L 4,707 L 5,707 L 6,707 L 15,708 L 17,709 L 22,710 L 23,711 L 24,711 L 26,712 L 29,714 L 36,719 L 37,720 L 48,726 L 49,727 L 51,727 L 64,731 L 65,731 L 78,733 L 79,733 L 80,733 L 237,733 L 242,732 L 243,732 L 257,729 L 258,729 L 267,726 L 271,724 L 273,723 L 284,715 L 285,714 L 291,710 L 295,704 L 296,703 L 303,692 L 304,690 L 307,685 L 309,677 L 309,675 L 312,662 L 312,660 L 312,657 L 311,646 L 311,645 L 308,631 L 307,629 L 307,629 L 300,617 L 299,616 L 291,605 L 291,604 L 290,604 L 279,595 L 278,594 L 267,588 L 266,587 L 264,587 L 251,583 L 249,583 L 237,581 L 236,581 L 235,581 L 78,581 L 73,582 L 71,582 L 58,585 L 56,585 L 48,588 L 44,590 L 42,591 L 31,599 L 30,599 L 29,600 L 29,600 L 27,601 L 23,604 L 21,604 L 16,606 L 12,607 L 10,607 L 7,607 L 0,608 L 0,506 L 5,507 L 11,507 L 13,508 L 19,509 L 21,510 L 22,510 L 24,511 L 25,512 L 26,512 L 29,514 L 36,519 L 37,520 L 48,526 L 49,527 L 51,527 L 64,531 L 65,531 L 78,533 L 79,533 L 80,533 L 237,533 L 242,532 L 243,532 L 257,529 L 258,529 L 267,526 L 271,524 L 273,523 L 284,515 L 285,514 L 291,510 L 295,505 L 296,503 L 303,492 L 304,490 L 307,485 L 309,477 L 309,475 L 312,462 L 312,460 L 312,457 L 311,446 L 311,445 L 308,431 L 307,429 L 307,429 L 300,417 L 299,416 L 291,405 L 291,404 L 290,404 L 279,395 L 278,394 L 267,388 L 266,387 L 264,387 L 251,384 L 249,383 L 237,381 L 236,381 L 235,381 L 78,381 L 73,382 L 71,382 L 58,385 L 56,385 L 48,388 L 44,390 L 42,391 L 31,399 L 30,399 L 29,400 L 29,400 L 27,401 L 23,404 L 21,405 L 16,406 L 12,407 L 10,407 L 7,407 L 0,408 L 0,306 L 4,307 L 5,307 L 6,307 L 15,308 L 17,309 L 22,311 L 22,311 L 24,311 L 24,311 L 27,313 L 29,314 L 30,315 L 36,319 L 37,320 L 48,327 L 49,327 L 51,327 L 64,331 L 65,331 L 78,333 L 79,333 L 80,333 L 237,333 L 242,332 L 243,332 L 257,329 L 258,329 L 267,326 L 271,324 L 273,323 L 284,316 L 285,315 L 291,310 L 295,305 L 296,303 L 303,292 L 304,290 L 307,286 L 309,277 L 309,276 L 312,262 L 312,260 L 312,257 L 311,247 L 311,245 L 308,231 L 307,230 L 307,229 L 300,218 L 299,216 L 291,205 L 291,205 L 290,204 L 279,195 L 278,195 L 267,188 L 266,188 L 264,187 L 251,184 L 249,183 L 237,181 L 236,181 L 235,181 L 78,182 L 73,182 L 71,182 L 58,185 L 56,185 L 48,188 L 44,190 L 42,191 L 31,199 L 30,200 L 29,200 L 28,201 L 26,202 L 20,205 L 17,206 L 16,206 L 12,207 L 2,208 L 0,208 L 0,0 L 1814,0 L 1814,1415 L 286,1415 L 289,1405 L 290,1402 L 295,1392 L 296,1390 L 300,1385 L 301,1383 L 305,1381 L 306,1380 L 307,1380 L 308,1379 L 308,1379 L 318,1373 L 340,1355 L 341,1354 L 369,1325 L 370,1324 L 374,1318 L 389,1288 L 389,1287 L 403,1249 L 404,1247 L 404,1246 L 406,1208 L 406,1206 L 404,1168 L 404,1166 L 403,1164 L 389,1127 L 389,1125 L 374,1096 L 370,1090 L 368,1089 L 341,1060 L 340,1058 L 319,1040 L 308,1034 L 306,1034 L 270,1018 L 268,1017 L 247,1010 L 229,1009 L 227,1009 L 187,1009 L 186,1009 L 168,1010 L 147,1017 L 145,1018 L 108,1034 L 107,1034 L 96,1040 L 75,1058 L 74,1060 L 46,1088 L 45,1090 L 41,1095 L 35,1106 L 35,1108 L 34,1109 L 31,1113 L 29,1115 L 24,1118 L 22,1119 L 19,1121 L 14,1123 L 12,1124 L 9,1125 L 0,1128 L 0,940M 734,116 L 733,119 L 732,121 L 732,124 L 732,125 L 732,1085 L 732,1289 L 732,1289 L 732,1291 L 732,1292 L 733,1295 L 734,1298 L 734,1299 L 736,1300 L 738,1301 L 741,1301 L 743,1302 L 1689,1302 L 1690,1302 L 1693,1301 L 1695,1301 L 1699,1300 L 1699,1299 L 1700,1297 L 1701,1294 L 1701,1292 L 1702,1290 L 1702,1289 L 1702,125 L 1701,124 L 1701,121 L 1701,119 L 1700,116 L 1699,115 L 1698,114 L 1695,113 L 1693,113 L 1690,112 L 1689,112 L 745,112 L 744,112 L 741,113 L 739,113 L 736,114 L 734,115 L 734,116 z " style="fill-opacity:0.300000;fill:rgb(70,124,194);"/></g>
<g fill-rule="evenodd"><path d="M 732,1289 L 732,1289 L 732,1085 L 732,125 L 732,124 L 732,121 L 733,119 L 734,116 L 734,115 L 736,114 L 739,113 L 741,113 L 744,112 L 745,112 L 1689,112 L 1690,112 L 1693,113 L 1695,113 L 1698,114 L 1699,115 L 1700,116 L 1701,119 L 1701,121 L 1701,124 L 1702,125 L 1702,1289 L 1702,1290 L 1701,1292 L 1701,1294 L 1700,1297 L 1699,1299 L 1699,1300 L 1695,1301 L 1693,1301 L 1690,1302 L 1689,1302 L 743,1302 L 741,1301 L 738,1301 L 736,1300 L 734,1299 L 734,1298 L 733,1295 L 732,1292 L 732,1291 L 732,1289 z " style="fill-opacity:0.600000;fill:rgb(103,198,105);stroke:rgb(0,0,0);stroke-width:2"/></g>
<g fill-rule="evenodd"><path d="M 76,733 L 65,731 L 64,731 L 55,728 L 51,727 L 49,726 L 37,720 L 36,719 L 25,710 L 24,709 L 16,698 L 15,696 L 9,684 L 8,683 L 5,669 L 5,668 L 4,654 L 4,652 L 6,639 L 7,637 L 11,624 L 12,623 L 19,611 L 20,610 L 30,600 L 31,599 L 42,591 L 44,590 L 54,586 L 56,585 L 58,585 L 71,582 L 73,582 L 76,582 L 235,581 L 236,581 L 239,582 L 249,583 L 251,583 L 260,586 L 264,587 L 266,588 L 278,594 L 279,595 L 289,604 L 291,605 L 299,616 L 300,618 L 306,630 L 306,631 L 310,645 L 310,646 L 311,660 L 311,662 L 309,675 L 308,677 L 303,690 L 303,691 L 295,703 L 294,704 L 285,714 L 284,715 L 273,723 L 271,724 L 261,728 L 258,729 L 257,729 L 243,732 L 242,732 L 239,733 L 80,733 L 79,733 L 76,733 z " style="fill-opacity:0.600000;fill:rgb(115,81,255);stroke:rgb(0,0,0);stroke-width:2"/></g>
<g fill-rule="evenodd"><path d="M 76,533 L 65,531 L 64,531 L 55,528 L 51,527 L 49,526 L 37,520 L 36,519 L 25,510 L 24,509 L 16,498 L 15,497 L 9,484 L 8,483 L 5,469 L 5,468 L 4,454 L 4,452 L 6,439 L 7,437 L 11,424 L 12,423 L 19,411 L 20,410 L 30,400 L 31,399 L 42,391 L 44,390 L 54,386 L 56,385 L 58,385 L 71,382 L 73,382 L 76,382 L 235,381 L 236,381 L 239,382 L 249,383 L 251,384 L 260,386 L 264,387 L 266,388 L 278,394 L 279,395 L 289,404 L 291,405 L 299,416 L 300,418 L 306,430 L 306,432 L 310,445 L 310,446 L 311,460 L 311,462 L 309,475 L 308,477 L 303,490 L 303,491 L 295,503 L 294,504 L 285,514 L 284,515 L 273,523 L 271,524 L 261,528 L 258,529 L 257,529 L 243,532 L 242,532 L 239,533 L 80,533 L 79,533 L 76,533 z " style="fill-opacity:0.600000;fill:rgb(74,236,41);stroke:rgb(0,0,0);stroke-width:2"/></g>
<g fill-rule="evenodd"><path d="M 76,333 L 65,331 L 64,331 L 55,329 L 51,327 L 49,327 L 37,320 L 36,319 L 25,310 L 24,309 L 16,298 L 15,297 L 9,284 L 8,283 L 5,270 L 5,268 L 4,254 L 4,253 L 6,239 L 7,237 L 11,225 L 12,223 L 19,211 L 20,210 L 30,200 L 31,199 L 42,191 L 44,191 L 54,186 L 56,185 L 58,185 L 71,182 L 73,182 L 76,182 L 235,181 L 236,181 L 239,182 L 249,183 L 251,184 L 260,186 L 264,187 L 266,188 L 278,195 L 279,195 L 289,204 L 291,206 L 299,216 L 300,218 L 306,230 L 306,232 L 310,245 L 310,247 L 311,260 L 311,262 L 309,275 L 308,277 L 303,290 L 303,291 L 295,303 L 294,304 L 285,314 L 284,315 L 273,323 L 271,324 L 261,328 L 258,329 L 257,329 L 243,332 L 242,332 L 239,333 L 80,333 L 79,333 L 76,333 z " style="fill-opacity:0.600000;fill:rgb(205,186,171);stroke:rgb(0,0,0);stroke-width:2"/></g>
<g fill-rule="evenodd"><path d="M 406,1206 L 406,1207 L 406,1208 L 402,1247 L 402,1249 L 389,1287 L 389,1288 L 389,1288 L 369,1323 L 368,1324 L 368,1324 L 341,1354 L 340,1355 L 307,1378 L 306,1379 L 270,1395 L 269,1396 L 268,1396 L 229,1404 L 227,1404 L 187,1404 L 187,1404 L 186,1404 L 147,1396 L 146,1396 L 145,1395 L 109,1379 L 107,1378 L 75,1355 L 74,1354 L 47,1324 L 47,1324 L 46,1323 L 26,1288 L 26,1288 L 26,1287 L 13,1249 L 13,1247 L 9,1208 L 9,1206 L 13,1166 L 13,1165 L 26,1127 L 26,1126 L 26,1125 L 46,1091 L 47,1090 L 47,1089 L 74,1060 L 75,1059 L 107,1035 L 109,1034 L 145,1018 L 146,1018 L 147,1018 L 186,1009 L 187,1009 L 187,1009 L 227,1009 L 229,1009 L 268,1018 L 269,1018 L 270,1018 L 306,1034 L 307,1035 L 307,1035 L 340,1059 L 341,1060 L 368,1089 L 368,1090 L 369,1091 L 389,1125 L 389,1126 L 389,1127 L 402,1165 L 402,1165 L 402,1166 L 406,1206 L 406,1206 z " style="fill-opacity:0.600000;fill:rgb(242,251,227);stroke:rgb(0,0,0);stroke-width:2"/></g>
<g fill-rule="evenodd"><path d="M 55,728 L 64,731 L 65,731 L 76,733 L 78,733 L 80,733 L 237,733 L 239,733 L 242,732 L 243,732 L 257,729 L 258,729 L 261,728 L 267,727 L 292,710 L 308,686 L 314,657 L 308,628 L 292,604 L 267,587 L 260,586 L 251,583 L 249,583 L 239,582 L 237,581 L 78,581 L 76,582 L 73,582 L 71,582 L 58,585 L 56,585 L 54,586 L 48,587 L 30,599 L 28,600 L 27,600 L 26,601 L 24,601 L 23,601 L 21,601 L 19,600 L 18,600 L 17,599 L 15,598 L 14,596 L 13,595 L 12,594 L 12,592 L 11,590 L 11,589 L 11,525 L 12,523 L 12,522 L 12,520 L 13,519 L 14,518 L 15,517 L 16,516 L 17,515 L 19,514 L 20,514 L 22,513 L 23,513 L 25,513 L 26,514 L 28,514 L 29,515 L 48,527 L 55,528 L 64,531 L 65,531 L 76,533 L 78,533 L 80,533 L 237,533 L 239,533 L 242,532 L 243,532 L 257,529 L 258,529 L 261,528 L 267,527 L 292,511 L 308,486 L 314,457 L 308,428 L 292,404 L 267,387 L 260,386 L 251,384 L 249,383 L 239,382 L 237,381 L 78,381 L 76,382 L 73,382 L 71,382 L 58,385 L 56,385 L 54,386 L 48,387 L 30,399 L 28,400 L 27,401 L 26,401 L 24,401 L 23,401 L 21,401 L 19,401 L 18,400 L 17,399 L 15,398 L 14,397 L 13,395 L 12,394 L 12,392 L 11,391 L 11,389 L 11,324 L 12,323 L 12,321 L 13,320 L 13,318 L 14,317 L 15,316 L 17,315 L 18,314 L 19,314 L 21,313 L 22,313 L 24,313 L 26,313 L 27,314 L 28,314 L 30,315 L 48,327 L 55,329 L 64,331 L 65,331 L 76,333 L 78,333 L 80,333 L 237,333 L 239,333 L 242,332 L 243,332 L 257,329 L 258,329 L 261,328 L 267,327 L 292,311 L 308,286 L 314,257 L 308,228 L 292,204 L 267,187 L 260,186 L 251,184 L 249,183 L 239,182 L 237,181 L 78,181 L 76,182 L 73,182 L 71,182 L 58,185 L 56,185 L 54,186 L 48,187 L 30,199 L 29,200 L 28,200 L 25,201 L 24,201 L 22,201 L 21,201 L 19,200 L 17,200 L 16,199 L 15,198 L 13,196 L 13,195 L 12,194 L 12,193 L 12,191 L 11,189 L 11,23 L 12,22 L 12,20 L 12,19 L 13,18 L 13,17 L 15,15 L 16,14 L 17,13 L 19,12 L 21,12 L 22,11 L 23,11 L 1791,11 L 1792,11 L 1794,12 L 1795,12 L 1796,13 L 1797,13 L 1799,15 L 1800,16 L 1801,17 L 1802,19 L 1802,21 L 1803,22 L 1803,23 L 1803,1391 L 1803,1392 L 1802,1393 L 1802,1395 L 1801,1396 L 1801,1397 L 1800,1398 L 1798,1400 L 1797,1401 L 1796,1401 L 1795,1402 L 1793,1402 L 1792,1403 L 1791,1403 L 312,1403 L 311,1403 L 310,1402 L 308,1402 L 306,1401 L 305,1400 L 304,1399 L 303,1397 L 302,1395 L 302,1394 L 301,1393 L 301,1392 L 301,1390 L 301,1389 L 302,1388 L 302,1386 L 303,1384 L 304,1383 L 305,1382 L 306,1382 L 307,1381 L 308,1380 L 320,1375 L 376,1319 L 406,1246 L 406,1167 L 376,1094 L 320,1038 L 247,1008 L 168,1008 L 95,1038 L 39,1094 L 34,1106 L 33,1107 L 33,1108 L 32,1109 L 31,1110 L 30,1111 L 28,1112 L 26,1113 L 25,1113 L 24,1113 L 22,1113 L 21,1113 L 20,1113 L 19,1112 L 17,1111 L 16,1110 L 15,1109 L 14,1108 L 13,1107 L 12,1106 L 12,1104 L 12,1103 L 11,1101 L 11,937 L 11,936 L 12,935 L 12,933 L 12,933 L 12,933 L 10,933 L 9,932 L 7,931 L 6,930 L 5,929 L 5,928 L 4,926 L 4,925 L 4,789 L 4,787 L 5,786 L 5,785 L 6,783 L 7,782 L 9,782 L 10,781 L 12,781 L 12,781 L 12,781 L 12,780 L 12,778 L 11,777 L 11,725 L 11,724 L 12,722 L 12,720 L 13,719 L 14,718 L 14,717 L 15,716 L 17,715 L 18,714 L 19,714 L 21,713 L 22,713 L 23,713 L 25,713 L 27,714 L 28,714 L 29,715 L 48,727 L 55,728M 734,116 L 733,119 L 732,121 L 732,124 L 732,125 L 732,1085 L 732,1289 L 732,1289 L 732,1291 L 732,1292 L 733,1295 L 734,1298 L 734,1299 L 736,1300 L 738,1301 L 741,1301 L 743,1302 L 1689,1302 L 1690,1302 L 1693,1301 L 1695,1301 L 1699,1300 L 1699,1299 L 1700,1297 L 1701,1294 L 1701,1292 L 1702,1290 L 1702,1289 L 1702,125 L 1701,124 L 1701,121 L 1701,119 L 1700,116 L 1699,115 L 1698,114 L 1695,113 L 1693,113 L 1690,112 L 1689,112 L 745,112 L 744,112 L 741,113 L 739,113 L 736,114 L 734,115 L 734,116 z " style="fill-opacity:0.600000;fill:rgb(70,124,194);stroke:rgb(0,0,0);stroke-width:2"/></g>
<g fill-rule="evenodd"><path d="M 737,1085 L 737,125 L 738,122 L 739,120 L 742,118 L 745,117 L 1689,117 L 1692,118 L 1694,120 L 1696,122 L 1697,125 L 1697,1289 L 1696,1291 L 1695,1294 L 1692,1296 L 1689,1297 L 743,1297 L 741,1295 L 738,1293 L 737,1290 L 737,1289 L 737,1085M 819,1183 L 810,1183 L 810,1247 L 812,1250 L 814,1253 L 817,1254 L 921,1254 L 921,1245 L 819,1245 L 819,1183M 819,1151 L 819,1088 L 921,1088 L 921,1080 L 817,1080 L 814,1081 L 812,1083 L 810,1086 L 810,1151 L 819,1151M 953,1245 L 953,1254 L 1057,1254 L 1060,1253 L 1062,1250 L 1064,1247 L 1064,1183 L 1055,1183 L 1055,1245 L 953,1245M 1055,1151 L 1064,1151 L 1064,1086 L 1062,1083 L 1060,1081 L 1057,1080 L 953,1080 L 953,1088 L 1055,1088 L 1055,1151 z " style="fill-opacity:1.000000;fill:rgb(103,198,105);stroke:rgb(0,0,0);stroke-width:2"/></g>
<g fill-rule="evenodd"><path d="M 80,725 L 66,724 L 53,719 L 41,713 L 31,704 L 22,693 L 16,681 L 13,667 L 12,654 L 14,640 L 19,627 L 26,615 L 36,605 L 47,598 L 59,592 L 73,589 L 235,589 L 249,590 L 262,595 L 274,601 L 284,610 L 293,621 L 299,633 L 302,647 L 303,660 L 301,674 L 296,687 L 289,699 L 279,709 L 268,716 L 255,722 L 242,725 L 80,725 z " style="fill-opacity:1.000000;fill:rgb(115,81,255);stroke:rgb(0,0,0);stroke-width:2"/></g>
<g fill-rule="evenodd"><path d="M 80,525 L 66,524 L 53,520 L 41,513 L 31,504 L 22,493 L 16,481 L 13,467 L 12,454 L 14,440 L 19,427 L 26,416 L 36,406 L 47,398 L 59,392 L 73,390 L 235,389 L 249,391 L 262,395 L 274,401 L 284,410 L 293,421 L 299,434 L 302,447 L 303,461 L 301,474 L 296,487 L 289,499 L 279,509 L 268,517 L 255,522 L 242,525 L 80,525 z " style="fill-opacity:1.000000;fill:rgb(74,236,41);stroke:rgb(0,0,0);stroke-width:2"/></g>
<g fill-rule="evenodd"><path d="M 80,325 L 66,324 L 53,320 L 41,313 L 31,304 L 22,293 L 16,281 L 13,268 L 12,254 L 14,240 L 19,227 L 26,216 L 36,206 L 47,198 L 59,192 L 73,190 L 235,189 L 249,191 L 262,195 L 274,201 L 284,210 L 293,221 L 299,234 L 302,247 L 303,261 L 301,274 L 296,287 L 289,299 L 279,309 L 268,317 L 255,322 L 242,325 L 80,325 z " style="fill-opacity:1.000000;fill:rgb(205,186,171);stroke:rgb(0,0,0);stroke-width:2"/></g>
<g fill-rule="evenodd"><path d="M 398,1207 L 394,1246 L 382,1284 L 362,1319 L 335,1349 L 303,1372 L 266,1388 L 227,1397 L 187,1397 L 148,1388 L 112,1372 L 80,1349 L 53,1319 L 33,1284 L 21,1246 L 17,1207 L 21,1167 L 33,1129 L 53,1095 L 80,1065 L 112,1041 L 148,1025 L 187,1017 L 227,1017 L 266,1025 L 303,1041 L 335,1065 L 362,1095 L 382,1129 L 394,1167 L 398,1207 z " style="fill-opacity:1.000000;fill:rgb(242,251,227);stroke:rgb(0,0,0);stroke-width:2"/></g>
<g fill-rule="evenodd"><path d="M 141,925 L 12,925 L 12,789 L 141,789 L 141,781 L 141,780 L 23,780 L 21,780 L 20,778 L 19,777 L 19,725 L 20,723 L 21,722 L 22,721 L 25,721 L 45,734 L 77,741 L 238,741 L 270,734 L 297,716 L 316,689 L 322,657 L 316,625 L 297,598 L 270,580 L 238,573 L 77,573 L 45,580 L 25,593 L 24,593 L 22,593 L 20,591 L 19,589 L 19,525 L 20,523 L 20,522 L 22,521 L 23,521 L 25,521 L 45,534 L 77,541 L 238,541 L 270,534 L 297,516 L 316,489 L 322,457 L 316,425 L 297,398 L 270,380 L 238,373 L 77,373 L 45,380 L 25,393 L 24,393 L 22,393 L 20,392 L 19,389 L 19,324 L 20,323 L 21,322 L 22,321 L 24,321 L 25,322 L 45,335 L 77,341 L 238,341 L 270,335 L 297,316 L 316,289 L 322,257 L 316,225 L 297,198 L 270,180 L 238,174 L 77,174 L 45,180 L 25,193 L 23,193 L 21,193 L 20,191 L 19,189 L 19,23 L 20,22 L 21,20 L 23,19 L 1791,19 L 1792,19 L 1794,21 L 1795,23 L 1795,1391 L 1794,1393 L 1793,1394 L 1791,1395 L 312,1395 L 310,1394 L 309,1392 L 309,1390 L 310,1388 L 311,1387 L 324,1382 L 382,1324 L 414,1248 L 414,1166 L 383,1090 L 325,1032 L 249,1000 L 166,1000 L 91,1032 L 32,1090 L 27,1103 L 26,1104 L 24,1105 L 22,1105 L 20,1104 L 20,1103 L 19,1101 L 19,937 L 20,935 L 22,934 L 23,933 L 141,933 L 141,933 L 141,925M 727,1307 L 1707,1307 L 1707,107 L 727,107 L 727,1306 L 727,1307M 303,873 L 303,925 L 173,925 L 173,933 L 174,933 L 305,933 L 308,932 L 310,930 L 311,927 L 311,874 L 311,873 L 303,873M 303,841 L 311,841 L 311,840 L 311,787 L 310,784 L 308,782 L 305,780 L 174,780 L 173,781 L 173,789 L 303,789 L 303,841 z " style="fill-opacity:1.000000;fill:rgb(70,124,194);stroke:rgb(0,0,0);stroke-width:2"/></g>
</svg>
