  0
SECTION
  2
HEADER
  9
$ANGBASE
  50
0.0
  9
$ANGDIR
  70
  1
  9
$MEASUREMENT
  70
0
  0
ENDSEC
  0
SECTION
  2
TABLES
  0
TABLE
  2
LTYPE
  70
4
  0
LTYPE
  5
40F
  2
CONTINUOUS
  70
0
  3
Solid line
  72
65
  73
0
  40
0.0
  0
LTYPE
  5
410
  2
DASHDOT
 70
0
  3
Dash Dot ____ _ ____ _
 72
65
 73
4
 40
2.0
 49
1.25
 49
-0.25
 49
0.25
 49
-0.25
  0
LTYPE
  5
411
  2
DASHED
 70
0
  3
Dashed __ __ __ __ __
 72
65
 73
2
 40
0.75
 49
0.5
 49
-0.25
  0
LTYPE
  5
43B
  2
DOTTED
 70
0
  3
Dotted .  .  .  .
 72
65
 73
2
 40
0.2
 49
0.0
 49
-0.2
  0
ENDTAB
  0
TABLE
  2
STYLE
  70
4
  0
STYLE
  2
KICAD
  70
0
  40
0
  41
1
  42
1
  50
0
  71
0
  3
isocp.shx
  0
STYLE
  2
KICADB
  70
0
  40
0
  41
1
  42
1
  50
0
  71
0
  3
isocp.shx
  0
STYLE
  2
KICADI
  70
0
  40
0
  41
1
  42
1
  50
15
  71
0
  3
isocp.shx
  0
STYLE
  2
KICADBI
  70
0
  40
0
  41
1
  42
1
  50
15
  71
0
  3
isocp.shx
  0
ENDTAB
  0
TABLE
  2
LAYER
  70
30
  0
LAYER
  2
BLACK
  70
0
  62
7
  6
CONTINUOUS
  0
LAYER
  2
GRAY1
  70
0
  62
251
  6
CONTINUOUS
  0
LAYER
  2
GRAY2
  70
0
  62
8
  6
CONTINUOUS
  0
LAYER
  2
GRAY3
  70
0
  62
9
  6
CONTINUOUS
  0
LAYER
  2
WHITE
  70
0
  62
7
  6
CONTINUOUS
  0
LAYER
  2
LYELLOW
  70
0
  62
51
  6
CONTINUOUS
  0
LAYER
  2
BLUE1
  70
0
  62
178
  6
CONTINUOUS
  0
LAYER
  2
GREEN1
  70
0
  62
98
  6
CONTINUOUS
  0
LAYER
  2
CYAN1
  70
0
  62
138
  6
CONTINUOUS
  0
LAYER
  2
RED1
  70
0
  62
18
  6
CONTINUOUS
  0
LAYER
  2
MAGENTA1
  70
0
  62
228
  6
CONTINUOUS
  0
LAYER
  2
BROWN1
  70
0
  62
58
  6
CONTINUOUS
  0
LAYER
  2
BLUE2
  70
0
  62
5
  6
CONTINUOUS
  0
LAYER
  2
GREEN2
  70
0
  62
3
  6
CONTINUOUS
  0
LAYER
  2
CYAN2
  70
0
  62
4
  6
CONTINUOUS
  0
LAYER
  2
RED2
  70
0
  62
1
  6
CONTINUOUS
  0
LAYER
  2
MAGENTA2
  70
0
  62
6
  6
CONTINUOUS
  0
LAYER
  2
BROWN2
  70
0
  62
54
  6
CONTINUOUS
  0
LAYER
  2
BLUE3
  70
0
  62
171
  6
CONTINUOUS
  0
LAYER
  2
GREEN3
  70
0
  62
91
  6
CONTINUOUS
  0
LAYER
  2
CYAN3
  70
0
  62
131
  6
CONTINUOUS
  0
LAYER
  2
RED3
  70
0
  62
11
  6
CONTINUOUS
  0
LAYER
  2
MAGENTA3
  70
0
  62
221
  6
CONTINUOUS
  0
LAYER
  2
YELLOW3
  70
0
  62
2
  6
CONTINUOUS
  0
LAYER
  2
BLUE4
  70
0
  62
5
  6
CONTINUOUS
  0
LAYER
  2
GREEN4
  70
0
  62
3
  6
CONTINUOUS
  0
LAYER
  2
CYAN4
  70
0
  62
4
  6
CONTINUOUS
  0
LAYER
  2
RED4
  70
0
  62
1
  6
CONTINUOUS
  0
LAYER
  2
MAGENTA4
  70
0
  62
6
  6
CONTINUOUS
  0
LAYER
  2
YELLOW4
  70
0
  62
2
  6
CONTINUOUS
  0
ENDTAB
  0
ENDSEC
  0
SECTION
  2
ENTITIES
0
LINE
8
BLACK
6
CONTINUOUS
10
116.253
20
-81.85
11
116.253
21
-81.85
0
LINE
8
BLACK
6
CONTINUOUS
10
116.253
20
-81.85
11
116.262
21
-81.8509
0
LINE
8
BLACK
6
CONTINUOUS
10
116.262
20
-81.8509
11
116.273
21
-81.8543
0
LINE
8
BLACK
6
CONTINUOUS
10
116.273
20
-81.8543
11
116.283
21
-81.8599
0
LINE
8
BLACK
6
CONTINUOUS
10
116.283
20
-81.8599
11
116.293
21
-81.8674
0
LINE
8
BLACK
6
CONTINUOUS
10
116.293
20
-81.8674
11
116.3
21
-81.8765
0
LINE
8
BLACK
6
CONTINUOUS
10
116.3
20
-81.8765
11
116.306
21
-81.8869
0
LINE
8
BLACK
6
CONTINUOUS
10
116.306
20
-81.8869
11
116.309
21
-81.8982
0
LINE
8
BLACK
6
CONTINUOUS
10
116.309
20
-81.8982
11
116.31
21
-81.91
0
LINE
8
BLACK
6
CONTINUOUS
10
116.31
20
-81.91
11
116.31
21
-81.9129
0
LINE
8
BLACK
6
CONTINUOUS
10
116.31
20
-81.9129
11
116.31
21
-140.447
0
LINE
8
BLACK
6
CONTINUOUS
10
116.31
20
-140.447
11
116.31
21
-140.45
0
LINE
8
BLACK
6
CONTINUOUS
10
116.31
20
-140.45
11
116.31
21
-140.453
0
LINE
8
BLACK
6
CONTINUOUS
10
116.31
20
-140.453
11
116.309
21
-140.462
0
LINE
8
BLACK
6
CONTINUOUS
10
116.309
20
-140.462
11
116.306
21
-140.473
0
LINE
8
BLACK
6
CONTINUOUS
10
116.306
20
-140.473
11
116.3
21
-140.483
0
LINE
8
BLACK
6
CONTINUOUS
10
116.3
20
-140.483
11
116.293
21
-140.493
0
LINE
8
BLACK
6
CONTINUOUS
10
116.293
20
-140.493
11
116.283
21
-140.5
0
LINE
8
BLACK
6
CONTINUOUS
10
116.283
20
-140.5
11
116.273
21
-140.506
0
LINE
8
BLACK
6
CONTINUOUS
10
116.273
20
-140.506
11
116.262
21
-140.509
0
LINE
8
BLACK
6
CONTINUOUS
10
116.262
20
-140.509
11
116.25
21
-140.51
0
LINE
8
BLACK
6
CONTINUOUS
10
116.25
20
-140.51
11
116.247
21
-140.51
0
LINE
8
BLACK
6
CONTINUOUS
10
116.247
20
-140.51
11
111.053
21
-140.51
0
LINE
8
BLACK
6
CONTINUOUS
10
111.053
20
-140.51
11
111.05
21
-140.51
0
LINE
8
BLACK
6
CONTINUOUS
10
111.05
20
-140.51
11
111.047
21
-140.51
0
LINE
8
BLACK
6
CONTINUOUS
10
111.047
20
-140.51
11
111.047
21
-140.51
0
LINE
8
BLACK
6
CONTINUOUS
10
111.047
20
-140.51
11
111.038
21
-140.509
0
LINE
8
BLACK
6
CONTINUOUS
10
111.038
20
-140.509
11
111.027
21
-140.506
0
LINE
8
BLACK
6
CONTINUOUS
10
111.027
20
-140.506
11
111.017
21
-140.5
0
LINE
8
BLACK
6
CONTINUOUS
10
111.017
20
-140.5
11
111.007
21
-140.493
0
LINE
8
BLACK
6
CONTINUOUS
10
111.007
20
-140.493
11
111
21
-140.483
0
LINE
8
BLACK
6
CONTINUOUS
10
111
20
-140.483
11
110.994
21
-140.473
0
LINE
8
BLACK
6
CONTINUOUS
10
110.994
20
-140.473
11
110.991
21
-140.462
0
LINE
8
BLACK
6
CONTINUOUS
10
110.991
20
-140.462
11
110.99
21
-140.45
0
LINE
8
BLACK
6
CONTINUOUS
10
110.99
20
-140.45
11
110.99
21
-140.447
0
LINE
8
BLACK
6
CONTINUOUS
10
110.99
20
-140.447
11
110.99
21
-84.5129
0
LINE
8
BLACK
6
CONTINUOUS
10
110.99
20
-84.5129
11
110.99
21
-84.51
0
LINE
8
BLACK
6
CONTINUOUS
10
110.99
20
-84.51
11
110.991
21
-84.4982
0
LINE
8
BLACK
6
CONTINUOUS
10
110.991
20
-84.4982
11
110.994
21
-84.4869
0
LINE
8
BLACK
6
CONTINUOUS
10
110.994
20
-84.4869
11
111
21
-84.4765
0
LINE
8
BLACK
6
CONTINUOUS
10
111
20
-84.4765
11
111.007
21
-84.4674
0
LINE
8
BLACK
6
CONTINUOUS
10
111.007
20
-84.4674
11
111.017
21
-84.4599
0
LINE
8
BLACK
6
CONTINUOUS
10
111.017
20
-84.4599
11
111.027
21
-84.4543
0
LINE
8
BLACK
6
CONTINUOUS
10
111.027
20
-84.4543
11
111.038
21
-84.4509
0
LINE
8
BLACK
6
CONTINUOUS
10
111.038
20
-84.4509
11
111.047
21
-84.45
0
LINE
8
BLACK
6
CONTINUOUS
10
111.047
20
-84.45
11
111.05
21
-84.4497
0
LINE
8
BLACK
6
CONTINUOUS
10
111.05
20
-84.4497
11
111.053
21
-84.45
0
LINE
8
BLACK
6
CONTINUOUS
10
111.053
20
-84.45
11
113.59
21
-84.45
0
LINE
8
BLACK
6
CONTINUOUS
10
113.59
20
-84.45
11
113.59
21
-81.9129
0
LINE
8
BLACK
6
CONTINUOUS
10
113.59
20
-81.9129
11
113.59
21
-81.91
0
LINE
8
BLACK
6
CONTINUOUS
10
113.59
20
-81.91
11
113.591
21
-81.8982
0
LINE
8
BLACK
6
CONTINUOUS
10
113.591
20
-81.8982
11
113.594
21
-81.8869
0
LINE
8
BLACK
6
CONTINUOUS
10
113.594
20
-81.8869
11
113.6
21
-81.8765
0
LINE
8
BLACK
6
CONTINUOUS
10
113.6
20
-81.8765
11
113.607
21
-81.8674
0
LINE
8
BLACK
6
CONTINUOUS
10
113.607
20
-81.8674
11
113.617
21
-81.8599
0
LINE
8
BLACK
6
CONTINUOUS
10
113.617
20
-81.8599
11
113.627
21
-81.8543
0
LINE
8
BLACK
6
CONTINUOUS
10
113.627
20
-81.8543
11
113.638
21
-81.8509
0
LINE
8
BLACK
6
CONTINUOUS
10
113.638
20
-81.8509
11
113.647
21
-81.85
0
LINE
8
BLACK
6
CONTINUOUS
10
113.647
20
-81.85
11
113.65
21
-81.8497
0
LINE
8
BLACK
6
CONTINUOUS
10
113.65
20
-81.8497
11
113.653
21
-81.85
0
LINE
8
BLACK
6
CONTINUOUS
10
113.653
20
-81.85
11
116.247
21
-81.85
0
LINE
8
BLACK
6
CONTINUOUS
10
116.247
20
-81.85
11
116.25
21
-81.8497
0
LINE
8
BLACK
6
CONTINUOUS
10
116.25
20
-81.8497
11
116.253
21
-81.85
0
LINE
8
BLACK
6
CONTINUOUS
10
113.71
20
-81.97
11
113.71
21
-84.5071
0
LINE
8
BLACK
6
CONTINUOUS
10
113.71
20
-84.5071
11
113.71
21
-84.51
0
LINE
8
BLACK
6
CONTINUOUS
10
113.71
20
-84.51
11
113.71
21
-84.5129
0
LINE
8
BLACK
6
CONTINUOUS
10
113.71
20
-84.5129
11
113.709
21
-84.5218
0
LINE
8
BLACK
6
CONTINUOUS
10
113.709
20
-84.5218
11
113.706
21
-84.5331
0
LINE
8
BLACK
6
CONTINUOUS
10
113.706
20
-84.5331
11
113.7
21
-84.5435
0
LINE
8
BLACK
6
CONTINUOUS
10
113.7
20
-84.5435
11
113.693
21
-84.5526
0
LINE
8
BLACK
6
CONTINUOUS
10
113.693
20
-84.5526
11
113.683
21
-84.5601
0
LINE
8
BLACK
6
CONTINUOUS
10
113.683
20
-84.5601
11
113.673
21
-84.5657
0
LINE
8
BLACK
6
CONTINUOUS
10
113.673
20
-84.5657
11
113.662
21
-84.5691
0
LINE
8
BLACK
6
CONTINUOUS
10
113.662
20
-84.5691
11
113.65
21
-84.5703
0
LINE
8
BLACK
6
CONTINUOUS
10
113.65
20
-84.5703
11
113.647
21
-84.57
0
LINE
8
BLACK
6
CONTINUOUS
10
113.647
20
-84.57
11
111.11
21
-84.57
0
LINE
8
BLACK
6
CONTINUOUS
10
111.11
20
-84.57
11
111.11
21
-140.39
0
LINE
8
BLACK
6
CONTINUOUS
10
111.11
20
-140.39
11
116.19
21
-140.39
0
LINE
8
BLACK
6
CONTINUOUS
10
116.19
20
-140.39
11
116.19
21
-81.97
0
LINE
8
BLACK
6
CONTINUOUS
10
116.19
20
-81.97
11
113.71
21
-81.97
0
LINE
8
BLACK
6
CONTINUOUS
10
164.513
20
-81.85
11
164.513
21
-81.85
0
LINE
8
BLACK
6
CONTINUOUS
10
164.513
20
-81.85
11
164.522
21
-81.8509
0
LINE
8
BLACK
6
CONTINUOUS
10
164.522
20
-81.8509
11
164.533
21
-81.8543
0
LINE
8
BLACK
6
CONTINUOUS
10
164.533
20
-81.8543
11
164.543
21
-81.8599
0
LINE
8
BLACK
6
CONTINUOUS
10
164.543
20
-81.8599
11
164.553
21
-81.8674
0
LINE
8
BLACK
6
CONTINUOUS
10
164.553
20
-81.8674
11
164.56
21
-81.8765
0
LINE
8
BLACK
6
CONTINUOUS
10
164.56
20
-81.8765
11
164.566
21
-81.8869
0
LINE
8
BLACK
6
CONTINUOUS
10
164.566
20
-81.8869
11
164.569
21
-81.8982
0
LINE
8
BLACK
6
CONTINUOUS
10
164.569
20
-81.8982
11
164.57
21
-81.91
0
LINE
8
BLACK
6
CONTINUOUS
10
164.57
20
-81.91
11
164.57
21
-81.9129
0
LINE
8
BLACK
6
CONTINUOUS
10
164.57
20
-81.9129
11
164.57
21
-140.447
0
LINE
8
BLACK
6
CONTINUOUS
10
164.57
20
-140.447
11
164.57
21
-140.45
0
LINE
8
BLACK
6
CONTINUOUS
10
164.57
20
-140.45
11
164.57
21
-140.453
0
LINE
8
BLACK
6
CONTINUOUS
10
164.57
20
-140.453
11
164.569
21
-140.462
0
LINE
8
BLACK
6
CONTINUOUS
10
164.569
20
-140.462
11
164.566
21
-140.473
0
LINE
8
BLACK
6
CONTINUOUS
10
164.566
20
-140.473
11
164.56
21
-140.483
0
LINE
8
BLACK
6
CONTINUOUS
10
164.56
20
-140.483
11
164.553
21
-140.493
0
LINE
8
BLACK
6
CONTINUOUS
10
164.553
20
-140.493
11
164.543
21
-140.5
0
LINE
8
BLACK
6
CONTINUOUS
10
164.543
20
-140.5
11
164.533
21
-140.506
0
LINE
8
BLACK
6
CONTINUOUS
10
164.533
20
-140.506
11
164.522
21
-140.509
0
LINE
8
BLACK
6
CONTINUOUS
10
164.522
20
-140.509
11
164.51
21
-140.51
0
LINE
8
BLACK
6
CONTINUOUS
10
164.51
20
-140.51
11
164.507
21
-140.51
0
LINE
8
BLACK
6
CONTINUOUS
10
164.507
20
-140.51
11
159.313
21
-140.51
0
LINE
8
BLACK
6
CONTINUOUS
10
159.313
20
-140.51
11
159.31
21
-140.51
0
LINE
8
BLACK
6
CONTINUOUS
10
159.31
20
-140.51
11
159.307
21
-140.51
0
LINE
8
BLACK
6
CONTINUOUS
10
159.307
20
-140.51
11
159.307
21
-140.51
0
LINE
8
BLACK
6
CONTINUOUS
10
159.307
20
-140.51
11
159.298
21
-140.509
0
LINE
8
BLACK
6
CONTINUOUS
10
159.298
20
-140.509
11
159.287
21
-140.506
0
LINE
8
BLACK
6
CONTINUOUS
10
159.287
20
-140.506
11
159.277
21
-140.5
0
LINE
8
BLACK
6
CONTINUOUS
10
159.277
20
-140.5
11
159.267
21
-140.493
0
LINE
8
BLACK
6
CONTINUOUS
10
159.267
20
-140.493
11
159.26
21
-140.483
0
LINE
8
BLACK
6
CONTINUOUS
10
159.26
20
-140.483
11
159.254
21
-140.473
0
LINE
8
BLACK
6
CONTINUOUS
10
159.254
20
-140.473
11
159.251
21
-140.462
0
LINE
8
BLACK
6
CONTINUOUS
10
159.251
20
-140.462
11
159.25
21
-140.45
0
LINE
8
BLACK
6
CONTINUOUS
10
159.25
20
-140.45
11
159.25
21
-140.447
0
LINE
8
BLACK
6
CONTINUOUS
10
159.25
20
-140.447
11
159.25
21
-84.5129
0
LINE
8
BLACK
6
CONTINUOUS
10
159.25
20
-84.5129
11
159.25
21
-84.51
0
LINE
8
BLACK
6
CONTINUOUS
10
159.25
20
-84.51
11
159.251
21
-84.4982
0
LINE
8
BLACK
6
CONTINUOUS
10
159.251
20
-84.4982
11
159.254
21
-84.4869
0
LINE
8
BLACK
6
CONTINUOUS
10
159.254
20
-84.4869
11
159.26
21
-84.4765
0
LINE
8
BLACK
6
CONTINUOUS
10
159.26
20
-84.4765
11
159.267
21
-84.4674
0
LINE
8
BLACK
6
CONTINUOUS
10
159.267
20
-84.4674
11
159.277
21
-84.4599
0
LINE
8
BLACK
6
CONTINUOUS
10
159.277
20
-84.4599
11
159.287
21
-84.4543
0
LINE
8
BLACK
6
CONTINUOUS
10
159.287
20
-84.4543
11
159.298
21
-84.4509
0
LINE
8
BLACK
6
CONTINUOUS
10
159.298
20
-84.4509
11
159.307
21
-84.45
0
LINE
8
BLACK
6
CONTINUOUS
10
159.307
20
-84.45
11
159.31
21
-84.4497
0
LINE
8
BLACK
6
CONTINUOUS
10
159.31
20
-84.4497
11
159.313
21
-84.45
0
LINE
8
BLACK
6
CONTINUOUS
10
159.313
20
-84.45
11
161.85
21
-84.45
0
LINE
8
BLACK
6
CONTINUOUS
10
161.85
20
-84.45
11
161.85
21
-81.9129
0
LINE
8
BLACK
6
CONTINUOUS
10
161.85
20
-81.9129
11
161.85
21
-81.91
0
LINE
8
BLACK
6
CONTINUOUS
10
161.85
20
-81.91
11
161.851
21
-81.8982
0
LINE
8
BLACK
6
CONTINUOUS
10
161.851
20
-81.8982
11
161.854
21
-81.8869
0
LINE
8
BLACK
6
CONTINUOUS
10
161.854
20
-81.8869
11
161.86
21
-81.8765
0
LINE
8
BLACK
6
CONTINUOUS
10
161.86
20
-81.8765
11
161.867
21
-81.8674
0
LINE
8
BLACK
6
CONTINUOUS
10
161.867
20
-81.8674
11
161.877
21
-81.8599
0
LINE
8
BLACK
6
CONTINUOUS
10
161.877
20
-81.8599
11
161.887
21
-81.8543
0
LINE
8
BLACK
6
CONTINUOUS
10
161.887
20
-81.8543
11
161.898
21
-81.8509
0
LINE
8
BLACK
6
CONTINUOUS
10
161.898
20
-81.8509
11
161.907
21
-81.85
0
LINE
8
BLACK
6
CONTINUOUS
10
161.907
20
-81.85
11
161.91
21
-81.8497
0
LINE
8
BLACK
6
CONTINUOUS
10
161.91
20
-81.8497
11
161.913
21
-81.85
0
LINE
8
BLACK
6
CONTINUOUS
10
161.913
20
-81.85
11
164.507
21
-81.85
0
LINE
8
BLACK
6
CONTINUOUS
10
164.507
20
-81.85
11
164.51
21
-81.8497
0
LINE
8
BLACK
6
CONTINUOUS
10
164.51
20
-81.8497
11
164.513
21
-81.85
0
LINE
8
BLACK
6
CONTINUOUS
10
161.97
20
-81.97
11
161.97
21
-84.5071
0
LINE
8
BLACK
6
CONTINUOUS
10
161.97
20
-84.5071
11
161.97
21
-84.51
0
LINE
8
BLACK
6
CONTINUOUS
10
161.97
20
-84.51
11
161.97
21
-84.5129
0
LINE
8
BLACK
6
CONTINUOUS
10
161.97
20
-84.5129
11
161.969
21
-84.5218
0
LINE
8
BLACK
6
CONTINUOUS
10
161.969
20
-84.5218
11
161.966
21
-84.5331
0
LINE
8
BLACK
6
CONTINUOUS
10
161.966
20
-84.5331
11
161.96
21
-84.5435
0
LINE
8
BLACK
6
CONTINUOUS
10
161.96
20
-84.5435
11
161.953
21
-84.5526
0
LINE
8
BLACK
6
CONTINUOUS
10
161.953
20
-84.5526
11
161.943
21
-84.5601
0
LINE
8
BLACK
6
CONTINUOUS
10
161.943
20
-84.5601
11
161.933
21
-84.5657
0
LINE
8
BLACK
6
CONTINUOUS
10
161.933
20
-84.5657
11
161.922
21
-84.5691
0
LINE
8
BLACK
6
CONTINUOUS
10
161.922
20
-84.5691
11
161.91
21
-84.5703
0
LINE
8
BLACK
6
CONTINUOUS
10
161.91
20
-84.5703
11
161.907
21
-84.57
0
LINE
8
BLACK
6
CONTINUOUS
10
161.907
20
-84.57
11
159.37
21
-84.57
0
LINE
8
BLACK
6
CONTINUOUS
10
159.37
20
-84.57
11
159.37
21
-140.39
0
LINE
8
BLACK
6
CONTINUOUS
10
159.37
20
-140.39
11
164.45
21
-140.39
0
LINE
8
BLACK
6
CONTINUOUS
10
164.45
20
-140.39
11
164.45
21
-81.97
0
LINE
8
BLACK
6
CONTINUOUS
10
164.45
20
-81.97
11
161.97
21
-81.97
0
LINE
8
BLACK
6
CONTINUOUS
10
95.3129
20
-67.19
11
95.3129
21
-67.19
0
LINE
8
BLACK
6
CONTINUOUS
10
95.3129
20
-67.19
11
95.3218
21
-67.1909
0
LINE
8
BLACK
6
CONTINUOUS
10
95.3218
20
-67.1909
11
95.3331
21
-67.1943
0
LINE
8
BLACK
6
CONTINUOUS
10
95.3331
20
-67.1943
11
95.3435
21
-67.1999
0
LINE
8
BLACK
6
CONTINUOUS
10
95.3435
20
-67.1999
11
95.3526
21
-67.2074
0
LINE
8
BLACK
6
CONTINUOUS
10
95.3526
20
-67.2074
11
95.3601
21
-67.2165
0
LINE
8
BLACK
6
CONTINUOUS
10
95.3601
20
-67.2165
11
95.3657
21
-67.2269
0
LINE
8
BLACK
6
CONTINUOUS
10
95.3657
20
-67.2269
11
95.3691
21
-67.2382
0
LINE
8
BLACK
6
CONTINUOUS
10
95.3691
20
-67.2382
11
95.3703
21
-67.25
0
LINE
8
BLACK
6
CONTINUOUS
10
95.3703
20
-67.25
11
95.37
21
-67.2529
0
LINE
8
BLACK
6
CONTINUOUS
10
95.37
20
-67.2529
11
95.37
21
-118.167
0
LINE
8
BLACK
6
CONTINUOUS
10
95.37
20
-118.167
11
95.3703
21
-118.17
0
LINE
8
BLACK
6
CONTINUOUS
10
95.3703
20
-118.17
11
95.37
21
-118.173
0
LINE
8
BLACK
6
CONTINUOUS
10
95.37
20
-118.173
11
95.3691
21
-118.182
0
LINE
8
BLACK
6
CONTINUOUS
10
95.3691
20
-118.182
11
95.3657
21
-118.193
0
LINE
8
BLACK
6
CONTINUOUS
10
95.3657
20
-118.193
11
95.3601
21
-118.203
0
LINE
8
BLACK
6
CONTINUOUS
10
95.3601
20
-118.203
11
95.3526
21
-118.213
0
LINE
8
BLACK
6
CONTINUOUS
10
95.3526
20
-118.213
11
95.3435
21
-118.22
0
LINE
8
BLACK
6
CONTINUOUS
10
95.3435
20
-118.22
11
95.3331
21
-118.226
0
LINE
8
BLACK
6
CONTINUOUS
10
95.3331
20
-118.226
11
95.3218
21
-118.229
0
LINE
8
BLACK
6
CONTINUOUS
10
95.3218
20
-118.229
11
95.31
21
-118.23
0
LINE
8
BLACK
6
CONTINUOUS
10
95.31
20
-118.23
11
95.3071
21
-118.23
0
LINE
8
BLACK
6
CONTINUOUS
10
95.3071
20
-118.23
11
90.1129
21
-118.23
0
LINE
8
BLACK
6
CONTINUOUS
10
90.1129
20
-118.23
11
90.11
21
-118.23
0
LINE
8
BLACK
6
CONTINUOUS
10
90.11
20
-118.23
11
90.1071
21
-118.23
0
LINE
8
BLACK
6
CONTINUOUS
10
90.1071
20
-118.23
11
90.1071
21
-118.23
0
LINE
8
BLACK
6
CONTINUOUS
10
90.1071
20
-118.23
11
90.0982
21
-118.229
0
LINE
8
BLACK
6
CONTINUOUS
10
90.0982
20
-118.229
11
90.0869
21
-118.226
0
LINE
8
BLACK
6
CONTINUOUS
10
90.0869
20
-118.226
11
90.0765
21
-118.22
0
LINE
8
BLACK
6
CONTINUOUS
10
90.0765
20
-118.22
11
90.0674
21
-118.213
0
LINE
8
BLACK
6
CONTINUOUS
10
90.0674
20
-118.213
11
90.0599
21
-118.203
0
LINE
8
BLACK
6
CONTINUOUS
10
90.0599
20
-118.203
11
90.0543
21
-118.193
0
LINE
8
BLACK
6
CONTINUOUS
10
90.0543
20
-118.193
11
90.0509
21
-118.182
0
LINE
8
BLACK
6
CONTINUOUS
10
90.0509
20
-118.182
11
90.0497
21
-118.17
0
LINE
8
BLACK
6
CONTINUOUS
10
90.0497
20
-118.17
11
90.05
21
-118.167
0
LINE
8
BLACK
6
CONTINUOUS
10
90.05
20
-118.167
11
90.05
21
-69.8529
0
LINE
8
BLACK
6
CONTINUOUS
10
90.05
20
-69.8529
11
90.0497
21
-69.85
0
LINE
8
BLACK
6
CONTINUOUS
10
90.0497
20
-69.85
11
90.0509
21
-69.8382
0
LINE
8
BLACK
6
CONTINUOUS
10
90.0509
20
-69.8382
11
90.0543
21
-69.8269
0
LINE
8
BLACK
6
CONTINUOUS
10
90.0543
20
-69.8269
11
90.0599
21
-69.8165
0
LINE
8
BLACK
6
CONTINUOUS
10
90.0599
20
-69.8165
11
90.0674
21
-69.8074
0
LINE
8
BLACK
6
CONTINUOUS
10
90.0674
20
-69.8074
11
90.0765
21
-69.7999
0
LINE
8
BLACK
6
CONTINUOUS
10
90.0765
20
-69.7999
11
90.0869
21
-69.7943
0
LINE
8
BLACK
6
CONTINUOUS
10
90.0869
20
-69.7943
11
90.0982
21
-69.7909
0
LINE
8
BLACK
6
CONTINUOUS
10
90.0982
20
-69.7909
11
90.1071
21
-69.79
0
LINE
8
BLACK
6
CONTINUOUS
10
90.1071
20
-69.79
11
90.11
21
-69.7897
0
LINE
8
BLACK
6
CONTINUOUS
10
90.11
20
-69.7897
11
90.1129
21
-69.79
0
LINE
8
BLACK
6
CONTINUOUS
10
90.1129
20
-69.79
11
92.65
21
-69.79
0
LINE
8
BLACK
6
CONTINUOUS
10
92.65
20
-69.79
11
92.65
21
-67.2529
0
LINE
8
BLACK
6
CONTINUOUS
10
92.65
20
-67.2529
11
92.6497
21
-67.25
0
LINE
8
BLACK
6
CONTINUOUS
10
92.6497
20
-67.25
11
92.6509
21
-67.2382
0
LINE
8
BLACK
6
CONTINUOUS
10
92.6509
20
-67.2382
11
92.6543
21
-67.2269
0
LINE
8
BLACK
6
CONTINUOUS
10
92.6543
20
-67.2269
11
92.6599
21
-67.2165
0
LINE
8
BLACK
6
CONTINUOUS
10
92.6599
20
-67.2165
11
92.6674
21
-67.2074
0
LINE
8
BLACK
6
CONTINUOUS
10
92.6674
20
-67.2074
11
92.6765
21
-67.1999
0
LINE
8
BLACK
6
CONTINUOUS
10
92.6765
20
-67.1999
11
92.6869
21
-67.1943
0
LINE
8
BLACK
6
CONTINUOUS
10
92.6869
20
-67.1943
11
92.6982
21
-67.1909
0
LINE
8
BLACK
6
CONTINUOUS
10
92.6982
20
-67.1909
11
92.7071
21
-67.19
0
LINE
8
BLACK
6
CONTINUOUS
10
92.7071
20
-67.19
11
92.71
21
-67.1897
0
LINE
8
BLACK
6
CONTINUOUS
10
92.71
20
-67.1897
11
92.7129
21
-67.19
0
LINE
8
BLACK
6
CONTINUOUS
10
92.7129
20
-67.19
11
95.3071
21
-67.19
0
LINE
8
BLACK
6
CONTINUOUS
10
95.3071
20
-67.19
11
95.31
21
-67.1897
0
LINE
8
BLACK
6
CONTINUOUS
10
95.31
20
-67.1897
11
95.3129
21
-67.19
0
LINE
8
BLACK
6
CONTINUOUS
10
92.77
20
-67.31
11
92.77
21
-69.8471
0
LINE
8
BLACK
6
CONTINUOUS
10
92.77
20
-69.8471
11
92.7703
21
-69.85
0
LINE
8
BLACK
6
CONTINUOUS
10
92.7703
20
-69.85
11
92.77
21
-69.8529
0
LINE
8
BLACK
6
CONTINUOUS
10
92.77
20
-69.8529
11
92.7691
21
-69.8618
0
LINE
8
BLACK
6
CONTINUOUS
10
92.7691
20
-69.8618
11
92.7657
21
-69.8731
0
LINE
8
BLACK
6
CONTINUOUS
10
92.7657
20
-69.8731
11
92.7601
21
-69.8835
0
LINE
8
BLACK
6
CONTINUOUS
10
92.7601
20
-69.8835
11
92.7526
21
-69.8926
0
LINE
8
BLACK
6
CONTINUOUS
10
92.7526
20
-69.8926
11
92.7435
21
-69.9001
0
LINE
8
BLACK
6
CONTINUOUS
10
92.7435
20
-69.9001
11
92.7331
21
-69.9057
0
LINE
8
BLACK
6
CONTINUOUS
10
92.7331
20
-69.9057
11
92.7218
21
-69.9091
0
LINE
8
BLACK
6
CONTINUOUS
10
92.7218
20
-69.9091
11
92.71
21
-69.9103
0
LINE
8
BLACK
6
CONTINUOUS
10
92.71
20
-69.9103
11
92.7071
21
-69.91
0
LINE
8
BLACK
6
CONTINUOUS
10
92.7071
20
-69.91
11
90.17
21
-69.91
0
LINE
8
BLACK
6
CONTINUOUS
10
90.17
20
-69.91
11
90.17
21
-118.11
0
LINE
8
BLACK
6
CONTINUOUS
10
90.17
20
-118.11
11
95.25
21
-118.11
0
LINE
8
BLACK
6
CONTINUOUS
10
95.25
20
-118.11
11
95.25
21
-67.31
0
LINE
8
BLACK
6
CONTINUOUS
10
95.25
20
-67.31
11
92.77
21
-67.31
0
LINE
8
BLACK
6
CONTINUOUS
10
159.313
20
-81.85
11
160.643
21
-81.85
0
LINE
8
BLACK
6
CONTINUOUS
10
160.643
20
-81.85
11
160.652
21
-81.8509
0
LINE
8
BLACK
6
CONTINUOUS
10
160.652
20
-81.8509
11
160.663
21
-81.8543
0
LINE
8
BLACK
6
CONTINUOUS
10
160.663
20
-81.8543
11
160.673
21
-81.8599
0
LINE
8
BLACK
6
CONTINUOUS
10
160.673
20
-81.8599
11
160.683
21
-81.8674
0
LINE
8
BLACK
6
CONTINUOUS
10
160.683
20
-81.8674
11
160.69
21
-81.8765
0
LINE
8
BLACK
6
CONTINUOUS
10
160.69
20
-81.8765
11
160.696
21
-81.8869
0
LINE
8
BLACK
6
CONTINUOUS
10
160.696
20
-81.8869
11
160.699
21
-81.8982
0
LINE
8
BLACK
6
CONTINUOUS
10
160.699
20
-81.8982
11
160.7
21
-81.91
0
LINE
8
BLACK
6
CONTINUOUS
10
160.7
20
-81.91
11
160.699
21
-81.9218
0
LINE
8
BLACK
6
CONTINUOUS
10
160.699
20
-81.9218
11
160.696
21
-81.9331
0
LINE
8
BLACK
6
CONTINUOUS
10
160.696
20
-81.9331
11
160.69
21
-81.9435
0
LINE
8
BLACK
6
CONTINUOUS
10
160.69
20
-81.9435
11
160.683
21
-81.9526
0
LINE
8
BLACK
6
CONTINUOUS
10
160.683
20
-81.9526
11
160.673
21
-81.9601
0
LINE
8
BLACK
6
CONTINUOUS
10
160.673
20
-81.9601
11
160.663
21
-81.9657
0
LINE
8
BLACK
6
CONTINUOUS
10
160.663
20
-81.9657
11
160.652
21
-81.9691
0
LINE
8
BLACK
6
CONTINUOUS
10
160.652
20
-81.9691
11
160.643
21
-81.97
0
LINE
8
BLACK
6
CONTINUOUS
10
160.643
20
-81.97
11
159.37
21
-81.97
0
LINE
8
BLACK
6
CONTINUOUS
10
159.37
20
-81.97
11
159.37
21
-83.2429
0
LINE
8
BLACK
6
CONTINUOUS
10
159.37
20
-83.2429
11
159.369
21
-83.2518
0
LINE
8
BLACK
6
CONTINUOUS
10
159.369
20
-83.2518
11
159.366
21
-83.2631
0
LINE
8
BLACK
6
CONTINUOUS
10
159.366
20
-83.2631
11
159.36
21
-83.2735
0
LINE
8
BLACK
6
CONTINUOUS
10
159.36
20
-83.2735
11
159.353
21
-83.2826
0
LINE
8
BLACK
6
CONTINUOUS
10
159.353
20
-83.2826
11
159.343
21
-83.2901
0
LINE
8
BLACK
6
CONTINUOUS
10
159.343
20
-83.2901
11
159.333
21
-83.2957
0
LINE
8
BLACK
6
CONTINUOUS
10
159.333
20
-83.2957
11
159.322
21
-83.2991
0
LINE
8
BLACK
6
CONTINUOUS
10
159.322
20
-83.2991
11
159.31
21
-83.3003
0
LINE
8
BLACK
6
CONTINUOUS
10
159.31
20
-83.3003
11
159.298
21
-83.2991
0
LINE
8
BLACK
6
CONTINUOUS
10
159.298
20
-83.2991
11
159.287
21
-83.2957
0
LINE
8
BLACK
6
CONTINUOUS
10
159.287
20
-83.2957
11
159.277
21
-83.2901
0
LINE
8
BLACK
6
CONTINUOUS
10
159.277
20
-83.2901
11
159.267
21
-83.2826
0
LINE
8
BLACK
6
CONTINUOUS
10
159.267
20
-83.2826
11
159.26
21
-83.2735
0
LINE
8
BLACK
6
CONTINUOUS
10
159.26
20
-83.2735
11
159.254
21
-83.2631
0
LINE
8
BLACK
6
CONTINUOUS
10
159.254
20
-83.2631
11
159.251
21
-83.2518
0
LINE
8
BLACK
6
CONTINUOUS
10
159.251
20
-83.2518
11
159.25
21
-83.2429
0
LINE
8
BLACK
6
CONTINUOUS
10
159.25
20
-83.2429
11
159.25
21
-81.9129
0
LINE
8
BLACK
6
CONTINUOUS
10
159.25
20
-81.9129
11
159.25
21
-81.91
0
LINE
8
BLACK
6
CONTINUOUS
10
159.25
20
-81.91
11
159.251
21
-81.8982
0
LINE
8
BLACK
6
CONTINUOUS
10
159.251
20
-81.8982
11
159.254
21
-81.8869
0
LINE
8
BLACK
6
CONTINUOUS
10
159.254
20
-81.8869
11
159.26
21
-81.8765
0
LINE
8
BLACK
6
CONTINUOUS
10
159.26
20
-81.8765
11
159.267
21
-81.8674
0
LINE
8
BLACK
6
CONTINUOUS
10
159.267
20
-81.8674
11
159.277
21
-81.8599
0
LINE
8
BLACK
6
CONTINUOUS
10
159.277
20
-81.8599
11
159.287
21
-81.8543
0
LINE
8
BLACK
6
CONTINUOUS
10
159.287
20
-81.8543
11
159.298
21
-81.8509
0
LINE
8
BLACK
6
CONTINUOUS
10
159.298
20
-81.8509
11
159.307
21
-81.85
0
LINE
8
BLACK
6
CONTINUOUS
10
159.307
20
-81.85
11
159.31
21
-81.8497
0
LINE
8
BLACK
6
CONTINUOUS
10
159.31
20
-81.8497
11
159.313
21
-81.85
0
LINE
8
BLACK
6
CONTINUOUS
10
111.053
20
-81.85
11
112.383
21
-81.85
0
LINE
8
BLACK
6
CONTINUOUS
10
112.383
20
-81.85
11
112.392
21
-81.8509
0
LINE
8
BLACK
6
CONTINUOUS
10
112.392
20
-81.8509
11
112.403
21
-81.8543
0
LINE
8
BLACK
6
CONTINUOUS
10
112.403
20
-81.8543
11
112.413
21
-81.8599
0
LINE
8
BLACK
6
CONTINUOUS
10
112.413
20
-81.8599
11
112.423
21
-81.8674
0
LINE
8
BLACK
6
CONTINUOUS
10
112.423
20
-81.8674
11
112.43
21
-81.8765
0
LINE
8
BLACK
6
CONTINUOUS
10
112.43
20
-81.8765
11
112.436
21
-81.8869
0
LINE
8
BLACK
6
CONTINUOUS
10
112.436
20
-81.8869
11
112.439
21
-81.8982
0
LINE
8
BLACK
6
CONTINUOUS
10
112.439
20
-81.8982
11
112.44
21
-81.91
0
LINE
8
BLACK
6
CONTINUOUS
10
112.44
20
-81.91
11
112.439
21
-81.9218
0
LINE
8
BLACK
6
CONTINUOUS
10
112.439
20
-81.9218
11
112.436
21
-81.9331
0
LINE
8
BLACK
6
CONTINUOUS
10
112.436
20
-81.9331
11
112.43
21
-81.9435
0
LINE
8
BLACK
6
CONTINUOUS
10
112.43
20
-81.9435
11
112.423
21
-81.9526
0
LINE
8
BLACK
6
CONTINUOUS
10
112.423
20
-81.9526
11
112.413
21
-81.9601
0
LINE
8
BLACK
6
CONTINUOUS
10
112.413
20
-81.9601
11
112.403
21
-81.9657
0
LINE
8
BLACK
6
CONTINUOUS
10
112.403
20
-81.9657
11
112.392
21
-81.9691
0
LINE
8
BLACK
6
CONTINUOUS
10
112.392
20
-81.9691
11
112.383
21
-81.97
0
LINE
8
BLACK
6
CONTINUOUS
10
112.383
20
-81.97
11
111.11
21
-81.97
0
LINE
8
BLACK
6
CONTINUOUS
10
111.11
20
-81.97
11
111.11
21
-83.2429
0
LINE
8
BLACK
6
CONTINUOUS
10
111.11
20
-83.2429
11
111.109
21
-83.2518
0
LINE
8
BLACK
6
CONTINUOUS
10
111.109
20
-83.2518
11
111.106
21
-83.2631
0
LINE
8
BLACK
6
CONTINUOUS
10
111.106
20
-83.2631
11
111.1
21
-83.2735
0
LINE
8
BLACK
6
CONTINUOUS
10
111.1
20
-83.2735
11
111.093
21
-83.2826
0
LINE
8
BLACK
6
CONTINUOUS
10
111.093
20
-83.2826
11
111.083
21
-83.2901
0
LINE
8
BLACK
6
CONTINUOUS
10
111.083
20
-83.2901
11
111.073
21
-83.2957
0
LINE
8
BLACK
6
CONTINUOUS
10
111.073
20
-83.2957
11
111.062
21
-83.2991
0
LINE
8
BLACK
6
CONTINUOUS
10
111.062
20
-83.2991
11
111.05
21
-83.3003
0
LINE
8
BLACK
6
CONTINUOUS
10
111.05
20
-83.3003
11
111.038
21
-83.2991
0
LINE
8
BLACK
6
CONTINUOUS
10
111.038
20
-83.2991
11
111.027
21
-83.2957
0
LINE
8
BLACK
6
CONTINUOUS
10
111.027
20
-83.2957
11
111.017
21
-83.2901
0
LINE
8
BLACK
6
CONTINUOUS
10
111.017
20
-83.2901
11
111.007
21
-83.2826
0
LINE
8
BLACK
6
CONTINUOUS
10
111.007
20
-83.2826
11
111
21
-83.2735
0
LINE
8
BLACK
6
CONTINUOUS
10
111
20
-83.2735
11
110.994
21
-83.2631
0
LINE
8
BLACK
6
CONTINUOUS
10
110.994
20
-83.2631
11
110.991
21
-83.2518
0
LINE
8
BLACK
6
CONTINUOUS
10
110.991
20
-83.2518
11
110.99
21
-83.2429
0
LINE
8
BLACK
6
CONTINUOUS
10
110.99
20
-83.2429
11
110.99
21
-81.9129
0
LINE
8
BLACK
6
CONTINUOUS
10
110.99
20
-81.9129
11
110.99
21
-81.91
0
LINE
8
BLACK
6
CONTINUOUS
10
110.99
20
-81.91
11
110.991
21
-81.8982
0
LINE
8
BLACK
6
CONTINUOUS
10
110.991
20
-81.8982
11
110.994
21
-81.8869
0
LINE
8
BLACK
6
CONTINUOUS
10
110.994
20
-81.8869
11
111
21
-81.8765
0
LINE
8
BLACK
6
CONTINUOUS
10
111
20
-81.8765
11
111.007
21
-81.8674
0
LINE
8
BLACK
6
CONTINUOUS
10
111.007
20
-81.8674
11
111.017
21
-81.8599
0
LINE
8
BLACK
6
CONTINUOUS
10
111.017
20
-81.8599
11
111.027
21
-81.8543
0
LINE
8
BLACK
6
CONTINUOUS
10
111.027
20
-81.8543
11
111.038
21
-81.8509
0
LINE
8
BLACK
6
CONTINUOUS
10
111.038
20
-81.8509
11
111.047
21
-81.85
0
LINE
8
BLACK
6
CONTINUOUS
10
111.047
20
-81.85
11
111.05
21
-81.8497
0
LINE
8
BLACK
6
CONTINUOUS
10
111.05
20
-81.8497
11
111.053
21
-81.85
0
LINE
8
BLACK
6
CONTINUOUS
10
90.1129
20
-67.19
11
91.4429
21
-67.19
0
LINE
8
BLACK
6
CONTINUOUS
10
91.4429
20
-67.19
11
91.4518
21
-67.1909
0
LINE
8
BLACK
6
CONTINUOUS
10
91.4518
20
-67.1909
11
91.4631
21
-67.1943
0
LINE
8
BLACK
6
CONTINUOUS
10
91.4631
20
-67.1943
11
91.4735
21
-67.1999
0
LINE
8
BLACK
6
CONTINUOUS
10
91.4735
20
-67.1999
11
91.4826
21
-67.2074
0
LINE
8
BLACK
6
CONTINUOUS
10
91.4826
20
-67.2074
11
91.4901
21
-67.2165
0
LINE
8
BLACK
6
CONTINUOUS
10
91.4901
20
-67.2165
11
91.4957
21
-67.2269
0
LINE
8
BLACK
6
CONTINUOUS
10
91.4957
20
-67.2269
11
91.4991
21
-67.2382
0
LINE
8
BLACK
6
CONTINUOUS
10
91.4991
20
-67.2382
11
91.5003
21
-67.25
0
LINE
8
BLACK
6
CONTINUOUS
10
91.5003
20
-67.25
11
91.4991
21
-67.2618
0
LINE
8
BLACK
6
CONTINUOUS
10
91.4991
20
-67.2618
11
91.4957
21
-67.2731
0
LINE
8
BLACK
6
CONTINUOUS
10
91.4957
20
-67.2731
11
91.4901
21
-67.2835
0
LINE
8
BLACK
6
CONTINUOUS
10
91.4901
20
-67.2835
11
91.4826
21
-67.2926
0
LINE
8
BLACK
6
CONTINUOUS
10
91.4826
20
-67.2926
11
91.4735
21
-67.3001
0
LINE
8
BLACK
6
CONTINUOUS
10
91.4735
20
-67.3001
11
91.4631
21
-67.3057
0
LINE
8
BLACK
6
CONTINUOUS
10
91.4631
20
-67.3057
11
91.4518
21
-67.3091
0
LINE
8
BLACK
6
CONTINUOUS
10
91.4518
20
-67.3091
11
91.4429
21
-67.31
0
LINE
8
BLACK
6
CONTINUOUS
10
91.4429
20
-67.31
11
90.17
21
-67.31
0
LINE
8
BLACK
6
CONTINUOUS
10
90.17
20
-67.31
11
90.17
21
-68.5829
0
LINE
8
BLACK
6
CONTINUOUS
10
90.17
20
-68.5829
11
90.1691
21
-68.5918
0
LINE
8
BLACK
6
CONTINUOUS
10
90.1691
20
-68.5918
11
90.1657
21
-68.6031
0
LINE
8
BLACK
6
CONTINUOUS
10
90.1657
20
-68.6031
11
90.1601
21
-68.6135
0
LINE
8
BLACK
6
CONTINUOUS
10
90.1601
20
-68.6135
11
90.1526
21
-68.6226
0
LINE
8
BLACK
6
CONTINUOUS
10
90.1526
20
-68.6226
11
90.1435
21
-68.6301
0
LINE
8
BLACK
6
CONTINUOUS
10
90.1435
20
-68.6301
11
90.1331
21
-68.6357
0
LINE
8
BLACK
6
CONTINUOUS
10
90.1331
20
-68.6357
11
90.1218
21
-68.6391
0
LINE
8
BLACK
6
CONTINUOUS
10
90.1218
20
-68.6391
11
90.11
21
-68.6403
0
LINE
8
BLACK
6
CONTINUOUS
10
90.11
20
-68.6403
11
90.0982
21
-68.6391
0
LINE
8
BLACK
6
CONTINUOUS
10
90.0982
20
-68.6391
11
90.0869
21
-68.6357
0
LINE
8
BLACK
6
CONTINUOUS
10
90.0869
20
-68.6357
11
90.0765
21
-68.6301
0
LINE
8
BLACK
6
CONTINUOUS
10
90.0765
20
-68.6301
11
90.0674
21
-68.6226
0
LINE
8
BLACK
6
CONTINUOUS
10
90.0674
20
-68.6226
11
90.0599
21
-68.6135
0
LINE
8
BLACK
6
CONTINUOUS
10
90.0599
20
-68.6135
11
90.0543
21
-68.6031
0
LINE
8
BLACK
6
CONTINUOUS
10
90.0543
20
-68.6031
11
90.0509
21
-68.5918
0
LINE
8
BLACK
6
CONTINUOUS
10
90.0509
20
-68.5918
11
90.05
21
-68.5829
0
LINE
8
BLACK
6
CONTINUOUS
10
90.05
20
-68.5829
11
90.05
21
-67.2529
0
LINE
8
BLACK
6
CONTINUOUS
10
90.05
20
-67.2529
11
90.0497
21
-67.25
0
LINE
8
BLACK
6
CONTINUOUS
10
90.0497
20
-67.25
11
90.0509
21
-67.2382
0
LINE
8
BLACK
6
CONTINUOUS
10
90.0509
20
-67.2382
11
90.0543
21
-67.2269
0
LINE
8
BLACK
6
CONTINUOUS
10
90.0543
20
-67.2269
11
90.0599
21
-67.2165
0
LINE
8
BLACK
6
CONTINUOUS
10
90.0599
20
-67.2165
11
90.0674
21
-67.2074
0
LINE
8
BLACK
6
CONTINUOUS
10
90.0674
20
-67.2074
11
90.0765
21
-67.1999
0
LINE
8
BLACK
6
CONTINUOUS
10
90.0765
20
-67.1999
11
90.0869
21
-67.1943
0
LINE
8
BLACK
6
CONTINUOUS
10
90.0869
20
-67.1943
11
90.0982
21
-67.1909
0
LINE
8
BLACK
6
CONTINUOUS
10
90.0982
20
-67.1909
11
90.1071
21
-67.19
0
LINE
8
BLACK
6
CONTINUOUS
10
90.1071
20
-67.19
11
90.11
21
-67.1897
0
LINE
8
BLACK
6
CONTINUOUS
10
90.11
20
-67.1897
11
90.1129
21
-67.19
0
LINE
8
BLACK
6
CONTINUOUS
10
91.8063
20
-66.2826
11
91.8208
21
-66.2843
0
LINE
8
BLACK
6
CONTINUOUS
10
91.8208
20
-66.2843
11
91.8348
21
-66.2887
0
LINE
8
BLACK
6
CONTINUOUS
10
91.8348
20
-66.2887
11
91.8476
21
-66.2957
0
LINE
8
BLACK
6
CONTINUOUS
10
91.8476
20
-66.2957
11
91.8588
21
-66.3051
0
LINE
8
BLACK
6
CONTINUOUS
10
91.8588
20
-66.3051
11
91.868
21
-66.3166
0
LINE
8
BLACK
6
CONTINUOUS
10
91.868
20
-66.3166
11
91.8748
21
-66.3295
0
LINE
8
BLACK
6
CONTINUOUS
10
91.8748
20
-66.3295
11
91.8789
21
-66.3436
0
LINE
8
BLACK
6
CONTINUOUS
10
91.8789
20
-66.3436
11
91.8802
21
-66.3581
0
LINE
8
BLACK
6
CONTINUOUS
10
91.8802
20
-66.3581
11
91.8787
21
-66.3727
0
LINE
8
BLACK
6
CONTINUOUS
10
91.8787
20
-66.3727
11
91.8744
21
-66.3867
0
LINE
8
BLACK
6
CONTINUOUS
10
91.8744
20
-66.3867
11
91.8674
21
-66.3996
0
LINE
8
BLACK
6
CONTINUOUS
10
91.8674
20
-66.3996
11
91.8581
21
-66.4108
0
LINE
8
BLACK
6
CONTINUOUS
10
91.8581
20
-66.4108
11
91.8467
21
-66.4201
0
LINE
8
BLACK
6
CONTINUOUS
10
91.8467
20
-66.4201
11
91.8338
21
-66.427
0
LINE
8
BLACK
6
CONTINUOUS
10
91.8338
20
-66.427
11
91.8198
21
-66.4312
0
LINE
8
BLACK
6
CONTINUOUS
10
91.8198
20
-66.4312
11
91.8052
21
-66.4326
0
LINE
8
BLACK
6
CONTINUOUS
10
91.8052
20
-66.4326
11
91.0433
21
-66.4326
0
LINE
8
BLACK
6
CONTINUOUS
10
91.0433
20
-66.4326
11
91.0423
21
-66.4326
0
LINE
8
BLACK
6
CONTINUOUS
10
91.0423
20
-66.4326
11
91.0277
21
-66.431
0
LINE
8
BLACK
6
CONTINUOUS
10
91.0277
20
-66.431
11
91.0138
21
-66.4266
0
LINE
8
BLACK
6
CONTINUOUS
10
91.0138
20
-66.4266
11
91.001
21
-66.4195
0
LINE
8
BLACK
6
CONTINUOUS
10
91.001
20
-66.4195
11
90.9897
21
-66.4101
0
LINE
8
BLACK
6
CONTINUOUS
10
90.9897
20
-66.4101
11
90.9806
21
-66.3987
0
LINE
8
BLACK
6
CONTINUOUS
10
90.9806
20
-66.3987
11
90.9738
21
-66.3857
0
LINE
8
BLACK
6
CONTINUOUS
10
90.9738
20
-66.3857
11
90.9697
21
-66.3717
0
LINE
8
BLACK
6
CONTINUOUS
10
90.9697
20
-66.3717
11
90.9683
21
-66.3571
0
LINE
8
BLACK
6
CONTINUOUS
10
90.9683
20
-66.3571
11
90.9699
21
-66.3425
0
LINE
8
BLACK
6
CONTINUOUS
10
90.9699
20
-66.3425
11
90.9742
21
-66.3286
0
LINE
8
BLACK
6
CONTINUOUS
10
90.9742
20
-66.3286
11
90.9812
21
-66.3157
0
LINE
8
BLACK
6
CONTINUOUS
10
90.9812
20
-66.3157
11
90.9905
21
-66.3044
0
LINE
8
BLACK
6
CONTINUOUS
10
90.9905
20
-66.3044
11
91.0018
21
-66.2951
0
LINE
8
BLACK
6
CONTINUOUS
10
91.0018
20
-66.2951
11
91.0148
21
-66.2883
0
LINE
8
BLACK
6
CONTINUOUS
10
91.0148
20
-66.2883
11
91.0288
21
-66.284
0
LINE
8
BLACK
6
CONTINUOUS
10
91.0288
20
-66.284
11
91.0433
21
-66.2826
0
LINE
8
BLACK
6
CONTINUOUS
10
91.0433
20
-66.2826
11
91.8052
21
-66.2826
0
LINE
8
BLACK
6
CONTINUOUS
10
91.8052
20
-66.2826
11
91.8063
21
-66.2826
0
LINE
8
BLACK
6
CONTINUOUS
10
92.4253
20
-65.1874
11
92.4275
21
-65.1876
0
LINE
8
BLACK
6
CONTINUOUS
10
92.4275
20
-65.1876
11
92.4297
21
-65.1876
0
LINE
8
BLACK
6
CONTINUOUS
10
92.4297
20
-65.1876
11
92.4348
21
-65.1884
0
LINE
8
BLACK
6
CONTINUOUS
10
92.4348
20
-65.1884
11
92.4399
21
-65.189
0
LINE
8
BLACK
6
CONTINUOUS
10
92.4399
20
-65.189
11
92.442
21
-65.1897
0
LINE
8
BLACK
6
CONTINUOUS
10
92.442
20
-65.1897
11
92.4442
21
-65.1901
0
LINE
8
BLACK
6
CONTINUOUS
10
92.4442
20
-65.1901
11
92.449
21
-65.1919
0
LINE
8
BLACK
6
CONTINUOUS
10
92.449
20
-65.1919
11
92.4538
21
-65.1934
0
LINE
8
BLACK
6
CONTINUOUS
10
92.4538
20
-65.1934
11
92.4558
21
-65.1945
0
LINE
8
BLACK
6
CONTINUOUS
10
92.4558
20
-65.1945
11
92.4578
21
-65.1953
0
LINE
8
BLACK
6
CONTINUOUS
10
92.4578
20
-65.1953
11
92.5531
21
-65.2429
0
LINE
8
BLACK
6
CONTINUOUS
10
92.5531
20
-65.2429
11
92.554
21
-65.2434
0
LINE
8
BLACK
6
CONTINUOUS
10
92.554
20
-65.2434
11
92.5575
21
-65.2457
0
LINE
8
BLACK
6
CONTINUOUS
10
92.5575
20
-65.2457
11
92.5612
21
-65.2477
0
LINE
8
BLACK
6
CONTINUOUS
10
92.5612
20
-65.2477
11
92.5637
21
-65.2497
0
LINE
8
BLACK
6
CONTINUOUS
10
92.5637
20
-65.2497
11
92.5663
21
-65.2514
0
LINE
8
BLACK
6
CONTINUOUS
10
92.5663
20
-65.2514
11
92.5693
21
-65.2543
0
LINE
8
BLACK
6
CONTINUOUS
10
92.5693
20
-65.2543
11
92.5726
21
-65.257
0
LINE
8
BLACK
6
CONTINUOUS
10
92.5726
20
-65.257
11
92.6678
21
-65.3522
0
LINE
8
BLACK
6
CONTINUOUS
10
92.6678
20
-65.3522
11
92.6685
21
-65.3529
0
LINE
8
BLACK
6
CONTINUOUS
10
92.6685
20
-65.3529
11
92.6717
21
-65.3569
0
LINE
8
BLACK
6
CONTINUOUS
10
92.6717
20
-65.3569
11
92.6751
21
-65.3607
0
LINE
8
BLACK
6
CONTINUOUS
10
92.6751
20
-65.3607
11
92.6763
21
-65.3626
0
LINE
8
BLACK
6
CONTINUOUS
10
92.6763
20
-65.3626
11
92.6777
21
-65.3644
0
LINE
8
BLACK
6
CONTINUOUS
10
92.6777
20
-65.3644
11
92.68
21
-65.3689
0
LINE
8
BLACK
6
CONTINUOUS
10
92.68
20
-65.3689
11
92.6826
21
-65.3733
0
LINE
8
BLACK
6
CONTINUOUS
10
92.6826
20
-65.3733
11
92.6834
21
-65.3754
0
LINE
8
BLACK
6
CONTINUOUS
10
92.6834
20
-65.3754
11
92.6844
21
-65.3774
0
LINE
8
BLACK
6
CONTINUOUS
10
92.6844
20
-65.3774
11
92.6858
21
-65.3823
0
LINE
8
BLACK
6
CONTINUOUS
10
92.6858
20
-65.3823
11
92.6875
21
-65.387
0
LINE
8
BLACK
6
CONTINUOUS
10
92.6875
20
-65.387
11
92.7351
21
-65.5775
0
LINE
8
BLACK
6
CONTINUOUS
10
92.7351
20
-65.5775
11
92.7354
21
-65.5785
0
LINE
8
BLACK
6
CONTINUOUS
10
92.7354
20
-65.5785
11
92.7356
21
-65.5799
0
LINE
8
BLACK
6
CONTINUOUS
10
92.7356
20
-65.5799
11
92.736
21
-65.5811
0
LINE
8
BLACK
6
CONTINUOUS
10
92.736
20
-65.5811
11
92.7365
21
-65.5871
0
LINE
8
BLACK
6
CONTINUOUS
10
92.7365
20
-65.5871
11
92.7373
21
-65.593
0
LINE
8
BLACK
6
CONTINUOUS
10
92.7373
20
-65.593
11
92.7372
21
-65.5944
0
LINE
8
BLACK
6
CONTINUOUS
10
92.7372
20
-65.5944
11
92.7374
21
-65.5957
0
LINE
8
BLACK
6
CONTINUOUS
10
92.7374
20
-65.5957
11
92.7374
21
-65.929
0
LINE
8
BLACK
6
CONTINUOUS
10
92.7374
20
-65.929
11
92.7374
21
-65.9301
0
LINE
8
BLACK
6
CONTINUOUS
10
92.7374
20
-65.9301
11
92.7372
21
-65.9314
0
LINE
8
BLACK
6
CONTINUOUS
10
92.7372
20
-65.9314
11
92.7373
21
-65.9328
0
LINE
8
BLACK
6
CONTINUOUS
10
92.7373
20
-65.9328
11
92.7364
21
-65.9387
0
LINE
8
BLACK
6
CONTINUOUS
10
92.7364
20
-65.9387
11
92.7357
21
-65.9446
0
LINE
8
BLACK
6
CONTINUOUS
10
92.7357
20
-65.9446
11
92.7353
21
-65.9459
0
LINE
8
BLACK
6
CONTINUOUS
10
92.7353
20
-65.9459
11
92.7351
21
-65.9472
0
LINE
8
BLACK
6
CONTINUOUS
10
92.7351
20
-65.9472
11
92.6875
21
-66.1377
0
LINE
8
BLACK
6
CONTINUOUS
10
92.6875
20
-66.1377
11
92.6873
21
-66.1387
0
LINE
8
BLACK
6
CONTINUOUS
10
92.6873
20
-66.1387
11
92.6855
21
-66.1435
0
LINE
8
BLACK
6
CONTINUOUS
10
92.6855
20
-66.1435
11
92.684
21
-66.1483
0
LINE
8
BLACK
6
CONTINUOUS
10
92.684
20
-66.1483
11
92.6829
21
-66.1503
0
LINE
8
BLACK
6
CONTINUOUS
10
92.6829
20
-66.1503
11
92.6821
21
-66.1524
0
LINE
8
BLACK
6
CONTINUOUS
10
92.6821
20
-66.1524
11
92.6795
21
-66.1568
0
LINE
8
BLACK
6
CONTINUOUS
10
92.6795
20
-66.1568
11
92.6771
21
-66.1612
0
LINE
8
BLACK
6
CONTINUOUS
10
92.6771
20
-66.1612
11
92.6757
21
-66.163
0
LINE
8
BLACK
6
CONTINUOUS
10
92.6757
20
-66.163
11
92.6745
21
-66.1649
0
LINE
8
BLACK
6
CONTINUOUS
10
92.6745
20
-66.1649
11
92.671
21
-66.1686
0
LINE
8
BLACK
6
CONTINUOUS
10
92.671
20
-66.1686
11
92.6678
21
-66.1726
0
LINE
8
BLACK
6
CONTINUOUS
10
92.6678
20
-66.1726
11
92.5726
21
-66.2678
0
LINE
8
BLACK
6
CONTINUOUS
10
92.5726
20
-66.2678
11
92.5718
21
-66.2685
0
LINE
8
BLACK
6
CONTINUOUS
10
92.5718
20
-66.2685
11
92.5685
21
-66.2712
0
LINE
8
BLACK
6
CONTINUOUS
10
92.5685
20
-66.2712
11
92.5655
21
-66.2741
0
LINE
8
BLACK
6
CONTINUOUS
10
92.5655
20
-66.2741
11
92.5628
21
-66.2757
0
LINE
8
BLACK
6
CONTINUOUS
10
92.5628
20
-66.2757
11
92.5604
21
-66.2777
0
LINE
8
BLACK
6
CONTINUOUS
10
92.5604
20
-66.2777
11
92.5566
21
-66.2796
0
LINE
8
BLACK
6
CONTINUOUS
10
92.5566
20
-66.2796
11
92.5531
21
-66.2818
0
LINE
8
BLACK
6
CONTINUOUS
10
92.5531
20
-66.2818
11
92.4578
21
-66.3295
0
LINE
8
BLACK
6
CONTINUOUS
10
92.4578
20
-66.3295
11
92.4569
21
-66.3299
0
LINE
8
BLACK
6
CONTINUOUS
10
92.4569
20
-66.3299
11
92.4548
21
-66.3307
0
LINE
8
BLACK
6
CONTINUOUS
10
92.4548
20
-66.3307
11
92.4529
21
-66.3317
0
LINE
8
BLACK
6
CONTINUOUS
10
92.4529
20
-66.3317
11
92.4479
21
-66.3332
0
LINE
8
BLACK
6
CONTINUOUS
10
92.4479
20
-66.3332
11
92.4431
21
-66.335
0
LINE
8
BLACK
6
CONTINUOUS
10
92.4431
20
-66.335
11
92.441
21
-66.3353
0
LINE
8
BLACK
6
CONTINUOUS
10
92.441
20
-66.3353
11
92.4389
21
-66.336
0
LINE
8
BLACK
6
CONTINUOUS
10
92.4389
20
-66.336
11
92.4337
21
-66.3365
0
LINE
8
BLACK
6
CONTINUOUS
10
92.4337
20
-66.3365
11
92.4287
21
-66.3373
0
LINE
8
BLACK
6
CONTINUOUS
10
92.4287
20
-66.3373
11
92.4265
21
-66.3372
0
LINE
8
BLACK
6
CONTINUOUS
10
92.4265
20
-66.3372
11
92.4243
21
-66.3374
0
LINE
8
BLACK
6
CONTINUOUS
10
92.4243
20
-66.3374
11
92.2338
21
-66.3374
0
LINE
8
BLACK
6
CONTINUOUS
10
92.2338
20
-66.3374
11
92.2328
21
-66.3374
0
LINE
8
BLACK
6
CONTINUOUS
10
92.2328
20
-66.3374
11
92.2306
21
-66.3371
0
LINE
8
BLACK
6
CONTINUOUS
10
92.2306
20
-66.3371
11
92.2284
21
-66.3372
0
LINE
8
BLACK
6
CONTINUOUS
10
92.2284
20
-66.3372
11
92.2233
21
-66.3363
0
LINE
8
BLACK
6
CONTINUOUS
10
92.2233
20
-66.3363
11
92.2182
21
-66.3357
0
LINE
8
BLACK
6
CONTINUOUS
10
92.2182
20
-66.3357
11
92.2161
21
-66.3351
0
LINE
8
BLACK
6
CONTINUOUS
10
92.2161
20
-66.3351
11
92.2139
21
-66.3347
0
LINE
8
BLACK
6
CONTINUOUS
10
92.2139
20
-66.3347
11
92.2091
21
-66.3329
0
LINE
8
BLACK
6
CONTINUOUS
10
92.2091
20
-66.3329
11
92.2043
21
-66.3313
0
LINE
8
BLACK
6
CONTINUOUS
10
92.2043
20
-66.3313
11
92.2023
21
-66.3303
0
LINE
8
BLACK
6
CONTINUOUS
10
92.2023
20
-66.3303
11
92.2003
21
-66.3295
0
LINE
8
BLACK
6
CONTINUOUS
10
92.2003
20
-66.3295
11
92.105
21
-66.2818
0
LINE
8
BLACK
6
CONTINUOUS
10
92.105
20
-66.2818
11
92.1041
21
-66.2814
0
LINE
8
BLACK
6
CONTINUOUS
10
92.1041
20
-66.2814
11
92.1006
21
-66.2791
0
LINE
8
BLACK
6
CONTINUOUS
10
92.1006
20
-66.2791
11
92.0968
21
-66.2771
0
LINE
8
BLACK
6
CONTINUOUS
10
92.0968
20
-66.2771
11
92.0944
21
-66.2751
0
LINE
8
BLACK
6
CONTINUOUS
10
92.0944
20
-66.2751
11
92.0918
21
-66.2734
0
LINE
8
BLACK
6
CONTINUOUS
10
92.0918
20
-66.2734
11
92.0888
21
-66.2705
0
LINE
8
BLACK
6
CONTINUOUS
10
92.0888
20
-66.2705
11
92.0855
21
-66.2678
0
LINE
8
BLACK
6
CONTINUOUS
10
92.0855
20
-66.2678
11
91.9903
21
-66.1726
0
LINE
8
BLACK
6
CONTINUOUS
10
91.9903
20
-66.1726
11
91.9896
21
-66.1718
0
LINE
8
BLACK
6
CONTINUOUS
10
91.9896
20
-66.1718
11
91.9864
21
-66.1678
0
LINE
8
BLACK
6
CONTINUOUS
10
91.9864
20
-66.1678
11
91.983
21
-66.1641
0
LINE
8
BLACK
6
CONTINUOUS
10
91.983
20
-66.1641
11
91.9818
21
-66.1621
0
LINE
8
BLACK
6
CONTINUOUS
10
91.9818
20
-66.1621
11
91.9804
21
-66.1604
0
LINE
8
BLACK
6
CONTINUOUS
10
91.9804
20
-66.1604
11
91.9781
21
-66.1559
0
LINE
8
BLACK
6
CONTINUOUS
10
91.9781
20
-66.1559
11
91.9755
21
-66.1515
0
LINE
8
BLACK
6
CONTINUOUS
10
91.9755
20
-66.1515
11
91.9747
21
-66.1494
0
LINE
8
BLACK
6
CONTINUOUS
10
91.9747
20
-66.1494
11
91.9737
21
-66.1474
0
LINE
8
BLACK
6
CONTINUOUS
10
91.9737
20
-66.1474
11
91.9723
21
-66.1425
0
LINE
8
BLACK
6
CONTINUOUS
10
91.9723
20
-66.1425
11
91.9706
21
-66.1377
0
LINE
8
BLACK
6
CONTINUOUS
10
91.9706
20
-66.1377
11
91.923
21
-65.9472
0
LINE
8
BLACK
6
CONTINUOUS
10
91.923
20
-65.9472
11
91.9227
21
-65.9462
0
LINE
8
BLACK
6
CONTINUOUS
10
91.9227
20
-65.9462
11
91.9225
21
-65.9449
0
LINE
8
BLACK
6
CONTINUOUS
10
91.9225
20
-65.9449
11
91.9221
21
-65.9436
0
LINE
8
BLACK
6
CONTINUOUS
10
91.9221
20
-65.9436
11
91.9216
21
-65.9376
0
LINE
8
BLACK
6
CONTINUOUS
10
91.9216
20
-65.9376
11
91.9208
21
-65.9317
0
LINE
8
BLACK
6
CONTINUOUS
10
91.9208
20
-65.9317
11
91.9208
21
-65.9304
0
LINE
8
BLACK
6
CONTINUOUS
10
91.9208
20
-65.9304
11
91.9207
21
-65.929
0
LINE
8
BLACK
6
CONTINUOUS
10
91.9207
20
-65.929
11
91.9207
21
-65.5957
0
LINE
8
BLACK
6
CONTINUOUS
10
91.9207
20
-65.5957
11
91.9207
21
-65.5947
0
LINE
8
BLACK
6
CONTINUOUS
10
91.9207
20
-65.5947
11
91.9209
21
-65.5933
0
LINE
8
BLACK
6
CONTINUOUS
10
91.9209
20
-65.5933
11
91.9208
21
-65.592
0
LINE
8
BLACK
6
CONTINUOUS
10
91.9208
20
-65.592
11
91.9217
21
-65.5861
0
LINE
8
BLACK
6
CONTINUOUS
10
91.9217
20
-65.5861
11
91.9224
21
-65.5801
0
LINE
8
BLACK
6
CONTINUOUS
10
91.9224
20
-65.5801
11
91.9228
21
-65.5788
0
LINE
8
BLACK
6
CONTINUOUS
10
91.9228
20
-65.5788
11
91.923
21
-65.5775
0
LINE
8
BLACK
6
CONTINUOUS
10
91.923
20
-65.5775
11
91.9706
21
-65.387
0
LINE
8
BLACK
6
CONTINUOUS
10
91.9706
20
-65.387
11
91.9708
21
-65.386
0
LINE
8
BLACK
6
CONTINUOUS
10
91.9708
20
-65.386
11
91.9726
21
-65.3813
0
LINE
8
BLACK
6
CONTINUOUS
10
91.9726
20
-65.3813
11
91.9741
21
-65.3764
0
LINE
8
BLACK
6
CONTINUOUS
10
91.9741
20
-65.3764
11
91.9752
21
-65.3744
0
LINE
8
BLACK
6
CONTINUOUS
10
91.9752
20
-65.3744
11
91.9759
21
-65.3723
0
LINE
8
BLACK
6
CONTINUOUS
10
91.9759
20
-65.3723
11
91.9786
21
-65.368
0
LINE
8
BLACK
6
CONTINUOUS
10
91.9786
20
-65.368
11
91.981
21
-65.3635
0
LINE
8
BLACK
6
CONTINUOUS
10
91.981
20
-65.3635
11
91.9824
21
-65.3618
0
LINE
8
BLACK
6
CONTINUOUS
10
91.9824
20
-65.3618
11
91.9836
21
-65.3599
0
LINE
8
BLACK
6
CONTINUOUS
10
91.9836
20
-65.3599
11
91.9871
21
-65.3561
0
LINE
8
BLACK
6
CONTINUOUS
10
91.9871
20
-65.3561
11
91.9903
21
-65.3522
0
LINE
8
BLACK
6
CONTINUOUS
10
91.9903
20
-65.3522
11
92.0855
21
-65.257
0
LINE
8
BLACK
6
CONTINUOUS
10
92.0855
20
-65.257
11
92.0863
21
-65.2562
0
LINE
8
BLACK
6
CONTINUOUS
10
92.0863
20
-65.2562
11
92.0896
21
-65.2536
0
LINE
8
BLACK
6
CONTINUOUS
10
92.0896
20
-65.2536
11
92.0926
21
-65.2507
0
LINE
8
BLACK
6
CONTINUOUS
10
92.0926
20
-65.2507
11
92.0953
21
-65.249
0
LINE
8
BLACK
6
CONTINUOUS
10
92.0953
20
-65.249
11
92.0977
21
-65.2471
0
LINE
8
BLACK
6
CONTINUOUS
10
92.0977
20
-65.2471
11
92.1015
21
-65.2452
0
LINE
8
BLACK
6
CONTINUOUS
10
92.1015
20
-65.2452
11
92.105
21
-65.2429
0
LINE
8
BLACK
6
CONTINUOUS
10
92.105
20
-65.2429
11
92.2003
21
-65.1953
0
LINE
8
BLACK
6
CONTINUOUS
10
92.2003
20
-65.1953
11
92.2012
21
-65.1948
0
LINE
8
BLACK
6
CONTINUOUS
10
92.2012
20
-65.1948
11
92.2033
21
-65.1941
0
LINE
8
BLACK
6
CONTINUOUS
10
92.2033
20
-65.1941
11
92.2052
21
-65.193
0
LINE
8
BLACK
6
CONTINUOUS
10
92.2052
20
-65.193
11
92.2101
21
-65.1916
0
LINE
8
BLACK
6
CONTINUOUS
10
92.2101
20
-65.1916
11
92.2149
21
-65.1898
0
LINE
8
BLACK
6
CONTINUOUS
10
92.2149
20
-65.1898
11
92.2171
21
-65.1894
0
LINE
8
BLACK
6
CONTINUOUS
10
92.2171
20
-65.1894
11
92.2192
21
-65.1888
0
LINE
8
BLACK
6
CONTINUOUS
10
92.2192
20
-65.1888
11
92.2243
21
-65.1883
0
LINE
8
BLACK
6
CONTINUOUS
10
92.2243
20
-65.1883
11
92.2294
21
-65.1875
0
LINE
8
BLACK
6
CONTINUOUS
10
92.2294
20
-65.1875
11
92.2316
21
-65.1876
0
LINE
8
BLACK
6
CONTINUOUS
10
92.2316
20
-65.1876
11
92.2338
21
-65.1874
0
LINE
8
BLACK
6
CONTINUOUS
10
92.2338
20
-65.1874
11
92.4243
21
-65.1874
0
LINE
8
BLACK
6
CONTINUOUS
10
92.4243
20
-65.1874
11
92.4253
21
-65.1874
0
LINE
8
BLACK
6
CONTINUOUS
10
92.2515
20
-65.3374
11
92.183
21
-65.3716
0
LINE
8
BLACK
6
CONTINUOUS
10
92.183
20
-65.3716
11
92.1111
21
-65.4436
0
LINE
8
BLACK
6
CONTINUOUS
10
92.1111
20
-65.4436
11
92.0707
21
-65.6049
0
LINE
8
BLACK
6
CONTINUOUS
10
92.0707
20
-65.6049
11
92.0707
21
-65.9198
0
LINE
8
BLACK
6
CONTINUOUS
10
92.0707
20
-65.9198
11
92.1111
21
-66.0812
0
LINE
8
BLACK
6
CONTINUOUS
10
92.1111
20
-66.0812
11
92.183
21
-66.1531
0
LINE
8
BLACK
6
CONTINUOUS
10
92.183
20
-66.1531
11
92.2515
21
-66.1874
0
LINE
8
BLACK
6
CONTINUOUS
10
92.2515
20
-66.1874
11
92.4066
21
-66.1874
0
LINE
8
BLACK
6
CONTINUOUS
10
92.4066
20
-66.1874
11
92.4751
21
-66.1531
0
LINE
8
BLACK
6
CONTINUOUS
10
92.4751
20
-66.1531
11
92.547
21
-66.0812
0
LINE
8
BLACK
6
CONTINUOUS
10
92.547
20
-66.0812
11
92.5874
21
-65.9198
0
LINE
8
BLACK
6
CONTINUOUS
10
92.5874
20
-65.9198
11
92.5874
21
-65.6049
0
LINE
8
BLACK
6
CONTINUOUS
10
92.5874
20
-65.6049
11
92.547
21
-65.4436
0
LINE
8
BLACK
6
CONTINUOUS
10
92.547
20
-65.4436
11
92.4751
21
-65.3716
0
LINE
8
BLACK
6
CONTINUOUS
10
92.4751
20
-65.3716
11
92.4066
21
-65.3374
0
LINE
8
BLACK
6
CONTINUOUS
10
92.4066
20
-65.3374
11
92.2515
21
-65.3374
0
LINE
8
BLACK
6
CONTINUOUS
10
90.6158
20
-65.1874
11
90.618
21
-65.1876
0
LINE
8
BLACK
6
CONTINUOUS
10
90.618
20
-65.1876
11
90.6202
21
-65.1876
0
LINE
8
BLACK
6
CONTINUOUS
10
90.6202
20
-65.1876
11
90.6253
21
-65.1884
0
LINE
8
BLACK
6
CONTINUOUS
10
90.6253
20
-65.1884
11
90.6304
21
-65.189
0
LINE
8
BLACK
6
CONTINUOUS
10
90.6304
20
-65.189
11
90.6325
21
-65.1897
0
LINE
8
BLACK
6
CONTINUOUS
10
90.6325
20
-65.1897
11
90.6346
21
-65.1901
0
LINE
8
BLACK
6
CONTINUOUS
10
90.6346
20
-65.1901
11
90.6394
21
-65.1919
0
LINE
8
BLACK
6
CONTINUOUS
10
90.6394
20
-65.1919
11
90.6443
21
-65.1934
0
LINE
8
BLACK
6
CONTINUOUS
10
90.6443
20
-65.1934
11
90.6462
21
-65.1945
0
LINE
8
BLACK
6
CONTINUOUS
10
90.6462
20
-65.1945
11
90.6483
21
-65.1953
0
LINE
8
BLACK
6
CONTINUOUS
10
90.6483
20
-65.1953
11
90.7435
21
-65.2429
0
LINE
8
BLACK
6
CONTINUOUS
10
90.7435
20
-65.2429
11
90.7445
21
-65.2434
0
LINE
8
BLACK
6
CONTINUOUS
10
90.7445
20
-65.2434
11
90.748
21
-65.2457
0
LINE
8
BLACK
6
CONTINUOUS
10
90.748
20
-65.2457
11
90.7517
21
-65.2477
0
LINE
8
BLACK
6
CONTINUOUS
10
90.7517
20
-65.2477
11
90.7541
21
-65.2497
0
LINE
8
BLACK
6
CONTINUOUS
10
90.7541
20
-65.2497
11
90.7568
21
-65.2514
0
LINE
8
BLACK
6
CONTINUOUS
10
90.7568
20
-65.2514
11
90.7598
21
-65.2543
0
LINE
8
BLACK
6
CONTINUOUS
10
90.7598
20
-65.2543
11
90.763
21
-65.257
0
LINE
8
BLACK
6
CONTINUOUS
10
90.763
20
-65.257
11
90.8107
21
-65.3046
0
LINE
8
BLACK
6
CONTINUOUS
10
90.8107
20
-65.3046
11
90.8114
21
-65.3053
0
LINE
8
BLACK
6
CONTINUOUS
10
90.8114
20
-65.3053
11
90.814
21
-65.3086
0
LINE
8
BLACK
6
CONTINUOUS
10
90.814
20
-65.3086
11
90.8169
21
-65.3117
0
LINE
8
BLACK
6
CONTINUOUS
10
90.8169
20
-65.3117
11
90.8186
21
-65.3143
0
LINE
8
BLACK
6
CONTINUOUS
10
90.8186
20
-65.3143
11
90.8205
21
-65.3168
0
LINE
8
BLACK
6
CONTINUOUS
10
90.8205
20
-65.3168
11
90.8225
21
-65.3205
0
LINE
8
BLACK
6
CONTINUOUS
10
90.8225
20
-65.3205
11
90.8247
21
-65.3241
0
LINE
8
BLACK
6
CONTINUOUS
10
90.8247
20
-65.3241
11
90.8723
21
-65.4193
0
LINE
8
BLACK
6
CONTINUOUS
10
90.8723
20
-65.4193
11
90.8728
21
-65.4203
0
LINE
8
BLACK
6
CONTINUOUS
10
90.8728
20
-65.4203
11
90.8729
21
-65.4206
0
LINE
8
BLACK
6
CONTINUOUS
10
90.8729
20
-65.4206
11
90.8731
21
-65.4209
0
LINE
8
BLACK
6
CONTINUOUS
10
90.8731
20
-65.4209
11
90.8754
21
-65.4275
0
LINE
8
BLACK
6
CONTINUOUS
10
90.8754
20
-65.4275
11
90.8778
21
-65.434
0
LINE
8
BLACK
6
CONTINUOUS
10
90.8778
20
-65.434
11
90.8779
21
-65.4343
0
LINE
8
BLACK
6
CONTINUOUS
10
90.8779
20
-65.4343
11
90.878
21
-65.4347
0
LINE
8
BLACK
6
CONTINUOUS
10
90.878
20
-65.4347
11
90.9256
21
-65.6251
0
LINE
8
BLACK
6
CONTINUOUS
10
90.9256
20
-65.6251
11
90.9259
21
-65.6262
0
LINE
8
BLACK
6
CONTINUOUS
10
90.9259
20
-65.6262
11
90.926
21
-65.6275
0
LINE
8
BLACK
6
CONTINUOUS
10
90.926
20
-65.6275
11
90.9264
21
-65.6288
0
LINE
8
BLACK
6
CONTINUOUS
10
90.9264
20
-65.6288
11
90.927
21
-65.6347
0
LINE
8
BLACK
6
CONTINUOUS
10
90.927
20
-65.6347
11
90.9278
21
-65.6407
0
LINE
8
BLACK
6
CONTINUOUS
10
90.9278
20
-65.6407
11
90.9277
21
-65.642
0
LINE
8
BLACK
6
CONTINUOUS
10
90.9277
20
-65.642
11
90.9279
21
-65.6433
0
LINE
8
BLACK
6
CONTINUOUS
10
90.9279
20
-65.6433
11
90.9279
21
-65.8814
0
LINE
8
BLACK
6
CONTINUOUS
10
90.9279
20
-65.8814
11
90.9278
21
-65.8825
0
LINE
8
BLACK
6
CONTINUOUS
10
90.9278
20
-65.8825
11
90.9277
21
-65.8838
0
LINE
8
BLACK
6
CONTINUOUS
10
90.9277
20
-65.8838
11
90.9278
21
-65.8851
0
LINE
8
BLACK
6
CONTINUOUS
10
90.9278
20
-65.8851
11
90.9269
21
-65.8911
0
LINE
8
BLACK
6
CONTINUOUS
10
90.9269
20
-65.8911
11
90.9262
21
-65.897
0
LINE
8
BLACK
6
CONTINUOUS
10
90.9262
20
-65.897
11
90.9258
21
-65.8983
0
LINE
8
BLACK
6
CONTINUOUS
10
90.9258
20
-65.8983
11
90.9256
21
-65.8996
0
LINE
8
BLACK
6
CONTINUOUS
10
90.9256
20
-65.8996
11
90.878
21
-66.0901
0
LINE
8
BLACK
6
CONTINUOUS
10
90.878
20
-66.0901
11
90.8777
21
-66.0911
0
LINE
8
BLACK
6
CONTINUOUS
10
90.8777
20
-66.0911
11
90.8776
21
-66.0914
0
LINE
8
BLACK
6
CONTINUOUS
10
90.8776
20
-66.0914
11
90.8776
21
-66.0918
0
LINE
8
BLACK
6
CONTINUOUS
10
90.8776
20
-66.0918
11
90.8751
21
-66.0983
0
LINE
8
BLACK
6
CONTINUOUS
10
90.8751
20
-66.0983
11
90.8726
21
-66.1048
0
LINE
8
BLACK
6
CONTINUOUS
10
90.8726
20
-66.1048
11
90.8724
21
-66.1051
0
LINE
8
BLACK
6
CONTINUOUS
10
90.8724
20
-66.1051
11
90.8723
21
-66.1054
0
LINE
8
BLACK
6
CONTINUOUS
10
90.8723
20
-66.1054
11
90.8247
21
-66.2007
0
LINE
8
BLACK
6
CONTINUOUS
10
90.8247
20
-66.2007
11
90.8242
21
-66.2016
0
LINE
8
BLACK
6
CONTINUOUS
10
90.8242
20
-66.2016
11
90.8219
21
-66.2052
0
LINE
8
BLACK
6
CONTINUOUS
10
90.8219
20
-66.2052
11
90.8199
21
-66.2089
0
LINE
8
BLACK
6
CONTINUOUS
10
90.8199
20
-66.2089
11
90.818
21
-66.2113
0
LINE
8
BLACK
6
CONTINUOUS
10
90.818
20
-66.2113
11
90.8163
21
-66.2139
0
LINE
8
BLACK
6
CONTINUOUS
10
90.8163
20
-66.2139
11
90.8133
21
-66.2169
0
LINE
8
BLACK
6
CONTINUOUS
10
90.8133
20
-66.2169
11
90.8107
21
-66.2202
0
LINE
8
BLACK
6
CONTINUOUS
10
90.8107
20
-66.2202
11
90.763
21
-66.2678
0
LINE
8
BLACK
6
CONTINUOUS
10
90.763
20
-66.2678
11
90.7623
21
-66.2685
0
LINE
8
BLACK
6
CONTINUOUS
10
90.7623
20
-66.2685
11
90.759
21
-66.2712
0
LINE
8
BLACK
6
CONTINUOUS
10
90.759
20
-66.2712
11
90.7559
21
-66.2741
0
LINE
8
BLACK
6
CONTINUOUS
10
90.7559
20
-66.2741
11
90.7533
21
-66.2757
0
LINE
8
BLACK
6
CONTINUOUS
10
90.7533
20
-66.2757
11
90.7508
21
-66.2777
0
LINE
8
BLACK
6
CONTINUOUS
10
90.7508
20
-66.2777
11
90.7471
21
-66.2796
0
LINE
8
BLACK
6
CONTINUOUS
10
90.7471
20
-66.2796
11
90.7435
21
-66.2818
0
LINE
8
BLACK
6
CONTINUOUS
10
90.7435
20
-66.2818
11
90.6483
21
-66.3295
0
LINE
8
BLACK
6
CONTINUOUS
10
90.6483
20
-66.3295
11
90.6474
21
-66.3299
0
LINE
8
BLACK
6
CONTINUOUS
10
90.6474
20
-66.3299
11
90.6453
21
-66.3307
0
LINE
8
BLACK
6
CONTINUOUS
10
90.6453
20
-66.3307
11
90.6433
21
-66.3317
0
LINE
8
BLACK
6
CONTINUOUS
10
90.6433
20
-66.3317
11
90.6384
21
-66.3332
0
LINE
8
BLACK
6
CONTINUOUS
10
90.6384
20
-66.3332
11
90.6336
21
-66.335
0
LINE
8
BLACK
6
CONTINUOUS
10
90.6336
20
-66.335
11
90.6314
21
-66.3353
0
LINE
8
BLACK
6
CONTINUOUS
10
90.6314
20
-66.3353
11
90.6293
21
-66.336
0
LINE
8
BLACK
6
CONTINUOUS
10
90.6293
20
-66.336
11
90.6242
21
-66.3365
0
LINE
8
BLACK
6
CONTINUOUS
10
90.6242
20
-66.3365
11
90.6192
21
-66.3373
0
LINE
8
BLACK
6
CONTINUOUS
10
90.6192
20
-66.3373
11
90.617
21
-66.3372
0
LINE
8
BLACK
6
CONTINUOUS
10
90.617
20
-66.3372
11
90.6148
21
-66.3374
0
LINE
8
BLACK
6
CONTINUOUS
10
90.6148
20
-66.3374
11
90.5195
21
-66.3374
0
LINE
8
BLACK
6
CONTINUOUS
10
90.5195
20
-66.3374
11
90.5185
21
-66.3374
0
LINE
8
BLACK
6
CONTINUOUS
10
90.5185
20
-66.3374
11
90.5163
21
-66.3371
0
LINE
8
BLACK
6
CONTINUOUS
10
90.5163
20
-66.3371
11
90.5141
21
-66.3372
0
LINE
8
BLACK
6
CONTINUOUS
10
90.5141
20
-66.3372
11
90.509
21
-66.3363
0
LINE
8
BLACK
6
CONTINUOUS
10
90.509
20
-66.3363
11
90.5039
21
-66.3357
0
LINE
8
BLACK
6
CONTINUOUS
10
90.5039
20
-66.3357
11
90.5018
21
-66.3351
0
LINE
8
BLACK
6
CONTINUOUS
10
90.5018
20
-66.3351
11
90.4997
21
-66.3347
0
LINE
8
BLACK
6
CONTINUOUS
10
90.4997
20
-66.3347
11
90.4949
21
-66.3329
0
LINE
8
BLACK
6
CONTINUOUS
10
90.4949
20
-66.3329
11
90.49
21
-66.3313
0
LINE
8
BLACK
6
CONTINUOUS
10
90.49
20
-66.3313
11
90.488
21
-66.3303
0
LINE
8
BLACK
6
CONTINUOUS
10
90.488
20
-66.3303
11
90.486
21
-66.3295
0
LINE
8
BLACK
6
CONTINUOUS
10
90.486
20
-66.3295
11
90.3907
21
-66.2818
0
LINE
8
BLACK
6
CONTINUOUS
10
90.3907
20
-66.2818
11
90.3898
21
-66.2814
0
LINE
8
BLACK
6
CONTINUOUS
10
90.3898
20
-66.2814
11
90.3863
21
-66.2791
0
LINE
8
BLACK
6
CONTINUOUS
10
90.3863
20
-66.2791
11
90.3826
21
-66.2771
0
LINE
8
BLACK
6
CONTINUOUS
10
90.3826
20
-66.2771
11
90.3802
21
-66.2751
0
LINE
8
BLACK
6
CONTINUOUS
10
90.3802
20
-66.2751
11
90.3775
21
-66.2734
0
LINE
8
BLACK
6
CONTINUOUS
10
90.3775
20
-66.2734
11
90.3745
21
-66.2705
0
LINE
8
BLACK
6
CONTINUOUS
10
90.3745
20
-66.2705
11
90.3713
21
-66.2678
0
LINE
8
BLACK
6
CONTINUOUS
10
90.3713
20
-66.2678
11
90.3236
21
-66.2202
0
LINE
8
BLACK
6
CONTINUOUS
10
90.3236
20
-66.2202
11
90.3229
21
-66.2194
0
LINE
8
BLACK
6
CONTINUOUS
10
90.3229
20
-66.2194
11
90.3203
21
-66.2161
0
LINE
8
BLACK
6
CONTINUOUS
10
90.3203
20
-66.2161
11
90.3174
21
-66.2131
0
LINE
8
BLACK
6
CONTINUOUS
10
90.3174
20
-66.2131
11
90.3157
21
-66.2104
0
LINE
8
BLACK
6
CONTINUOUS
10
90.3157
20
-66.2104
11
90.3138
21
-66.208
0
LINE
8
BLACK
6
CONTINUOUS
10
90.3138
20
-66.208
11
90.3118
21
-66.2043
0
LINE
8
BLACK
6
CONTINUOUS
10
90.3118
20
-66.2043
11
90.3096
21
-66.2007
0
LINE
8
BLACK
6
CONTINUOUS
10
90.3096
20
-66.2007
11
90.262
21
-66.1054
0
LINE
8
BLACK
6
CONTINUOUS
10
90.262
20
-66.1054
11
90.2615
21
-66.1045
0
LINE
8
BLACK
6
CONTINUOUS
10
90.2615
20
-66.1045
11
90.2614
21
-66.1042
0
LINE
8
BLACK
6
CONTINUOUS
10
90.2614
20
-66.1042
11
90.2612
21
-66.1039
0
LINE
8
BLACK
6
CONTINUOUS
10
90.2612
20
-66.1039
11
90.2588
21
-66.0973
0
LINE
8
BLACK
6
CONTINUOUS
10
90.2588
20
-66.0973
11
90.2565
21
-66.0908
0
LINE
8
BLACK
6
CONTINUOUS
10
90.2565
20
-66.0908
11
90.2564
21
-66.0904
0
LINE
8
BLACK
6
CONTINUOUS
10
90.2564
20
-66.0904
11
90.2563
21
-66.0901
0
LINE
8
BLACK
6
CONTINUOUS
10
90.2563
20
-66.0901
11
90.2087
21
-65.8996
0
LINE
8
BLACK
6
CONTINUOUS
10
90.2087
20
-65.8996
11
90.2084
21
-65.8986
0
LINE
8
BLACK
6
CONTINUOUS
10
90.2084
20
-65.8986
11
90.2082
21
-65.8973
0
LINE
8
BLACK
6
CONTINUOUS
10
90.2082
20
-65.8973
11
90.2079
21
-65.896
0
LINE
8
BLACK
6
CONTINUOUS
10
90.2079
20
-65.896
11
90.2073
21
-65.89
0
LINE
8
BLACK
6
CONTINUOUS
10
90.2073
20
-65.89
11
90.2065
21
-65.8841
0
LINE
8
BLACK
6
CONTINUOUS
10
90.2065
20
-65.8841
11
90.2066
21
-65.8828
0
LINE
8
BLACK
6
CONTINUOUS
10
90.2066
20
-65.8828
11
90.2064
21
-65.8814
0
LINE
8
BLACK
6
CONTINUOUS
10
90.2064
20
-65.8814
11
90.2064
21
-65.6433
0
LINE
8
BLACK
6
CONTINUOUS
10
90.2064
20
-65.6433
11
90.2064
21
-65.6423
0
LINE
8
BLACK
6
CONTINUOUS
10
90.2064
20
-65.6423
11
90.2066
21
-65.641
0
LINE
8
BLACK
6
CONTINUOUS
10
90.2066
20
-65.641
11
90.2065
21
-65.6396
0
LINE
8
BLACK
6
CONTINUOUS
10
90.2065
20
-65.6396
11
90.2074
21
-65.6337
0
LINE
8
BLACK
6
CONTINUOUS
10
90.2074
20
-65.6337
11
90.2081
21
-65.6277
0
LINE
8
BLACK
6
CONTINUOUS
10
90.2081
20
-65.6277
11
90.2085
21
-65.6265
0
LINE
8
BLACK
6
CONTINUOUS
10
90.2085
20
-65.6265
11
90.2087
21
-65.6251
0
LINE
8
BLACK
6
CONTINUOUS
10
90.2087
20
-65.6251
11
90.2563
21
-65.4347
0
LINE
8
BLACK
6
CONTINUOUS
10
90.2563
20
-65.4347
11
90.2565
21
-65.4337
0
LINE
8
BLACK
6
CONTINUOUS
10
90.2565
20
-65.4337
11
90.2567
21
-65.4333
0
LINE
8
BLACK
6
CONTINUOUS
10
90.2567
20
-65.4333
11
90.2567
21
-65.433
0
LINE
8
BLACK
6
CONTINUOUS
10
90.2567
20
-65.433
11
90.2592
21
-65.4265
0
LINE
8
BLACK
6
CONTINUOUS
10
90.2592
20
-65.4265
11
90.2617
21
-65.4199
0
LINE
8
BLACK
6
CONTINUOUS
10
90.2617
20
-65.4199
11
90.2618
21
-65.4196
0
LINE
8
BLACK
6
CONTINUOUS
10
90.2618
20
-65.4196
11
90.262
21
-65.4193
0
LINE
8
BLACK
6
CONTINUOUS
10
90.262
20
-65.4193
11
90.3096
21
-65.3241
0
LINE
8
BLACK
6
CONTINUOUS
10
90.3096
20
-65.3241
11
90.3101
21
-65.3231
0
LINE
8
BLACK
6
CONTINUOUS
10
90.3101
20
-65.3231
11
90.3124
21
-65.3196
0
LINE
8
BLACK
6
CONTINUOUS
10
90.3124
20
-65.3196
11
90.3143
21
-65.3159
0
LINE
8
BLACK
6
CONTINUOUS
10
90.3143
20
-65.3159
11
90.3163
21
-65.3135
0
LINE
8
BLACK
6
CONTINUOUS
10
90.3163
20
-65.3135
11
90.318
21
-65.3109
0
LINE
8
BLACK
6
CONTINUOUS
10
90.318
20
-65.3109
11
90.321
21
-65.3078
0
LINE
8
BLACK
6
CONTINUOUS
10
90.321
20
-65.3078
11
90.3236
21
-65.3046
0
LINE
8
BLACK
6
CONTINUOUS
10
90.3236
20
-65.3046
11
90.3713
21
-65.257
0
LINE
8
BLACK
6
CONTINUOUS
10
90.3713
20
-65.257
11
90.372
21
-65.2562
0
LINE
8
BLACK
6
CONTINUOUS
10
90.372
20
-65.2562
11
90.3753
21
-65.2536
0
LINE
8
BLACK
6
CONTINUOUS
10
90.3753
20
-65.2536
11
90.3784
21
-65.2507
0
LINE
8
BLACK
6
CONTINUOUS
10
90.3784
20
-65.2507
11
90.381
21
-65.249
0
LINE
8
BLACK
6
CONTINUOUS
10
90.381
20
-65.249
11
90.3834
21
-65.2471
0
LINE
8
BLACK
6
CONTINUOUS
10
90.3834
20
-65.2471
11
90.3872
21
-65.2452
0
LINE
8
BLACK
6
CONTINUOUS
10
90.3872
20
-65.2452
11
90.3907
21
-65.2429
0
LINE
8
BLACK
6
CONTINUOUS
10
90.3907
20
-65.2429
11
90.486
21
-65.1953
0
LINE
8
BLACK
6
CONTINUOUS
10
90.486
20
-65.1953
11
90.4869
21
-65.1948
0
LINE
8
BLACK
6
CONTINUOUS
10
90.4869
20
-65.1948
11
90.489
21
-65.1941
0
LINE
8
BLACK
6
CONTINUOUS
10
90.489
20
-65.1941
11
90.4909
21
-65.193
0
LINE
8
BLACK
6
CONTINUOUS
10
90.4909
20
-65.193
11
90.4959
21
-65.1916
0
LINE
8
BLACK
6
CONTINUOUS
10
90.4959
20
-65.1916
11
90.5007
21
-65.1898
0
LINE
8
BLACK
6
CONTINUOUS
10
90.5007
20
-65.1898
11
90.5028
21
-65.1894
0
LINE
8
BLACK
6
CONTINUOUS
10
90.5028
20
-65.1894
11
90.505
21
-65.1888
0
LINE
8
BLACK
6
CONTINUOUS
10
90.505
20
-65.1888
11
90.5101
21
-65.1883
0
LINE
8
BLACK
6
CONTINUOUS
10
90.5101
20
-65.1883
11
90.5151
21
-65.1875
0
LINE
8
BLACK
6
CONTINUOUS
10
90.5151
20
-65.1875
11
90.5173
21
-65.1876
0
LINE
8
BLACK
6
CONTINUOUS
10
90.5173
20
-65.1876
11
90.5195
21
-65.1874
0
LINE
8
BLACK
6
CONTINUOUS
10
90.5195
20
-65.1874
11
90.6148
21
-65.1874
0
LINE
8
BLACK
6
CONTINUOUS
10
90.6148
20
-65.1874
11
90.6158
21
-65.1874
0
LINE
8
BLACK
6
CONTINUOUS
10
90.5372
20
-65.3374
11
90.4687
21
-65.3716
0
LINE
8
BLACK
6
CONTINUOUS
10
90.4687
20
-65.3716
11
90.4383
21
-65.402
0
LINE
8
BLACK
6
CONTINUOUS
10
90.4383
20
-65.402
11
90.3998
21
-65.479
0
LINE
8
BLACK
6
CONTINUOUS
10
90.3998
20
-65.479
11
90.3564
21
-65.6526
0
LINE
8
BLACK
6
CONTINUOUS
10
90.3564
20
-65.6526
11
90.3564
21
-65.8722
0
LINE
8
BLACK
6
CONTINUOUS
10
90.3564
20
-65.8722
11
90.3998
21
-66.0457
0
LINE
8
BLACK
6
CONTINUOUS
10
90.3998
20
-66.0457
11
90.4383
21
-66.1227
0
LINE
8
BLACK
6
CONTINUOUS
10
90.4383
20
-66.1227
11
90.4687
21
-66.1531
0
LINE
8
BLACK
6
CONTINUOUS
10
90.4687
20
-66.1531
11
90.5372
21
-66.1874
0
LINE
8
BLACK
6
CONTINUOUS
10
90.5372
20
-66.1874
11
90.5971
21
-66.1874
0
LINE
8
BLACK
6
CONTINUOUS
10
90.5971
20
-66.1874
11
90.6656
21
-66.1531
0
LINE
8
BLACK
6
CONTINUOUS
10
90.6656
20
-66.1531
11
90.696
21
-66.1227
0
LINE
8
BLACK
6
CONTINUOUS
10
90.696
20
-66.1227
11
90.7345
21
-66.0457
0
LINE
8
BLACK
6
CONTINUOUS
10
90.7345
20
-66.0457
11
90.7779
21
-65.8722
0
LINE
8
BLACK
6
CONTINUOUS
10
90.7779
20
-65.8722
11
90.7779
21
-65.6526
0
LINE
8
BLACK
6
CONTINUOUS
10
90.7779
20
-65.6526
11
90.7345
21
-65.479
0
LINE
8
BLACK
6
CONTINUOUS
10
90.7345
20
-65.479
11
90.696
21
-65.402
0
LINE
8
BLACK
6
CONTINUOUS
10
90.696
20
-65.402
11
90.6656
21
-65.3716
0
LINE
8
BLACK
6
CONTINUOUS
10
90.6656
20
-65.3716
11
90.5971
21
-65.3374
0
LINE
8
BLACK
6
CONTINUOUS
10
90.5971
20
-65.3374
11
90.5372
21
-65.3374
0
LINE
8
BLACK
6
CONTINUOUS
10
94.8063
20
-65.1874
11
94.8105
21
-65.1879
0
LINE
8
BLACK
6
CONTINUOUS
10
94.8105
20
-65.1879
11
94.8147
21
-65.188
0
LINE
8
BLACK
6
CONTINUOUS
10
94.8147
20
-65.188
11
94.8177
21
-65.1887
0
LINE
8
BLACK
6
CONTINUOUS
10
94.8177
20
-65.1887
11
94.8208
21
-65.189
0
LINE
8
BLACK
6
CONTINUOUS
10
94.8208
20
-65.189
11
94.8248
21
-65.1903
0
LINE
8
BLACK
6
CONTINUOUS
10
94.8248
20
-65.1903
11
94.829
21
-65.1912
0
LINE
8
BLACK
6
CONTINUOUS
10
94.829
20
-65.1912
11
94.9718
21
-65.2388
0
LINE
8
BLACK
6
CONTINUOUS
10
94.9718
20
-65.2388
11
94.9728
21
-65.2392
0
LINE
8
BLACK
6
CONTINUOUS
10
94.9728
20
-65.2392
11
94.9748
21
-65.2401
0
LINE
8
BLACK
6
CONTINUOUS
10
94.9748
20
-65.2401
11
94.9769
21
-65.2408
0
LINE
8
BLACK
6
CONTINUOUS
10
94.9769
20
-65.2408
11
94.9814
21
-65.2432
0
LINE
8
BLACK
6
CONTINUOUS
10
94.9814
20
-65.2432
11
94.9861
21
-65.2453
0
LINE
8
BLACK
6
CONTINUOUS
10
94.9861
20
-65.2453
11
94.9879
21
-65.2466
0
LINE
8
BLACK
6
CONTINUOUS
10
94.9879
20
-65.2466
11
94.9898
21
-65.2477
0
LINE
8
BLACK
6
CONTINUOUS
10
94.9898
20
-65.2477
11
94.9938
21
-65.2509
0
LINE
8
BLACK
6
CONTINUOUS
10
94.9938
20
-65.2509
11
94.9979
21
-65.2539
0
LINE
8
BLACK
6
CONTINUOUS
10
94.9979
20
-65.2539
11
94.9994
21
-65.2556
0
LINE
8
BLACK
6
CONTINUOUS
10
94.9994
20
-65.2556
11
95.0011
21
-65.257
0
LINE
8
BLACK
6
CONTINUOUS
10
95.0011
20
-65.257
11
95.0964
21
-65.3522
0
LINE
8
BLACK
6
CONTINUOUS
10
95.0964
20
-65.3522
11
95.0971
21
-65.3529
0
LINE
8
BLACK
6
CONTINUOUS
10
95.0971
20
-65.3529
11
95.0997
21
-65.3562
0
LINE
8
BLACK
6
CONTINUOUS
10
95.0997
20
-65.3562
11
95.1026
21
-65.3593
0
LINE
8
BLACK
6
CONTINUOUS
10
95.1026
20
-65.3593
11
95.1043
21
-65.362
0
LINE
8
BLACK
6
CONTINUOUS
10
95.1043
20
-65.362
11
95.1062
21
-65.3644
0
LINE
8
BLACK
6
CONTINUOUS
10
95.1062
20
-65.3644
11
95.1082
21
-65.3681
0
LINE
8
BLACK
6
CONTINUOUS
10
95.1082
20
-65.3681
11
95.1104
21
-65.3717
0
LINE
8
BLACK
6
CONTINUOUS
10
95.1104
20
-65.3717
11
95.158
21
-65.4669
0
LINE
8
BLACK
6
CONTINUOUS
10
95.158
20
-65.4669
11
95.1585
21
-65.4679
0
LINE
8
BLACK
6
CONTINUOUS
10
95.1585
20
-65.4679
11
95.1586
21
-65.4682
0
LINE
8
BLACK
6
CONTINUOUS
10
95.1586
20
-65.4682
11
95.1588
21
-65.4685
0
LINE
8
BLACK
6
CONTINUOUS
10
95.1588
20
-65.4685
11
95.1611
21
-65.4751
0
LINE
8
BLACK
6
CONTINUOUS
10
95.1611
20
-65.4751
11
95.1635
21
-65.4816
0
LINE
8
BLACK
6
CONTINUOUS
10
95.1635
20
-65.4816
11
95.1636
21
-65.482
0
LINE
8
BLACK
6
CONTINUOUS
10
95.1636
20
-65.482
11
95.1637
21
-65.4823
0
LINE
8
BLACK
6
CONTINUOUS
10
95.1637
20
-65.4823
11
95.2113
21
-65.6728
0
LINE
8
BLACK
6
CONTINUOUS
10
95.2113
20
-65.6728
11
95.2116
21
-65.6738
0
LINE
8
BLACK
6
CONTINUOUS
10
95.2116
20
-65.6738
11
95.2118
21
-65.6751
0
LINE
8
BLACK
6
CONTINUOUS
10
95.2118
20
-65.6751
11
95.2121
21
-65.6764
0
LINE
8
BLACK
6
CONTINUOUS
10
95.2121
20
-65.6764
11
95.2127
21
-65.6824
0
LINE
8
BLACK
6
CONTINUOUS
10
95.2127
20
-65.6824
11
95.2135
21
-65.6883
0
LINE
8
BLACK
6
CONTINUOUS
10
95.2135
20
-65.6883
11
95.2134
21
-65.6896
0
LINE
8
BLACK
6
CONTINUOUS
10
95.2134
20
-65.6896
11
95.2136
21
-65.691
0
LINE
8
BLACK
6
CONTINUOUS
10
95.2136
20
-65.691
11
95.2136
21
-65.8338
0
LINE
8
BLACK
6
CONTINUOUS
10
95.2136
20
-65.8338
11
95.2136
21
-65.8349
0
LINE
8
BLACK
6
CONTINUOUS
10
95.2136
20
-65.8349
11
95.2134
21
-65.8362
0
LINE
8
BLACK
6
CONTINUOUS
10
95.2134
20
-65.8362
11
95.2135
21
-65.8375
0
LINE
8
BLACK
6
CONTINUOUS
10
95.2135
20
-65.8375
11
95.2126
21
-65.8435
0
LINE
8
BLACK
6
CONTINUOUS
10
95.2126
20
-65.8435
11
95.2119
21
-65.8494
0
LINE
8
BLACK
6
CONTINUOUS
10
95.2119
20
-65.8494
11
95.2115
21
-65.8507
0
LINE
8
BLACK
6
CONTINUOUS
10
95.2115
20
-65.8507
11
95.2113
21
-65.852
0
LINE
8
BLACK
6
CONTINUOUS
10
95.2113
20
-65.852
11
95.1637
21
-66.0425
0
LINE
8
BLACK
6
CONTINUOUS
10
95.1637
20
-66.0425
11
95.1635
21
-66.0435
0
LINE
8
BLACK
6
CONTINUOUS
10
95.1635
20
-66.0435
11
95.1633
21
-66.0438
0
LINE
8
BLACK
6
CONTINUOUS
10
95.1633
20
-66.0438
11
95.1633
21
-66.0442
0
LINE
8
BLACK
6
CONTINUOUS
10
95.1633
20
-66.0442
11
95.1608
21
-66.0507
0
LINE
8
BLACK
6
CONTINUOUS
10
95.1608
20
-66.0507
11
95.1583
21
-66.0572
0
LINE
8
BLACK
6
CONTINUOUS
10
95.1583
20
-66.0572
11
95.1582
21
-66.0575
0
LINE
8
BLACK
6
CONTINUOUS
10
95.1582
20
-66.0575
11
95.158
21
-66.0578
0
LINE
8
BLACK
6
CONTINUOUS
10
95.158
20
-66.0578
11
95.1104
21
-66.1531
0
LINE
8
BLACK
6
CONTINUOUS
10
95.1104
20
-66.1531
11
95.1099
21
-66.154
0
LINE
8
BLACK
6
CONTINUOUS
10
95.1099
20
-66.154
11
95.1076
21
-66.1575
0
LINE
8
BLACK
6
CONTINUOUS
10
95.1076
20
-66.1575
11
95.1057
21
-66.1612
0
LINE
8
BLACK
6
CONTINUOUS
10
95.1057
20
-66.1612
11
95.1037
21
-66.1637
0
LINE
8
BLACK
6
CONTINUOUS
10
95.1037
20
-66.1637
11
95.102
21
-66.1663
0
LINE
8
BLACK
6
CONTINUOUS
10
95.102
20
-66.1663
11
95.099
21
-66.1693
0
LINE
8
BLACK
6
CONTINUOUS
10
95.099
20
-66.1693
11
95.0964
21
-66.1726
0
LINE
8
BLACK
6
CONTINUOUS
10
95.0964
20
-66.1726
11
95.0011
21
-66.2678
0
LINE
8
BLACK
6
CONTINUOUS
10
95.0011
20
-66.2678
11
95.0004
21
-66.2685
0
LINE
8
BLACK
6
CONTINUOUS
10
95.0004
20
-66.2685
11
94.9987
21
-66.2699
0
LINE
8
BLACK
6
CONTINUOUS
10
94.9987
20
-66.2699
11
94.9971
21
-66.2715
0
LINE
8
BLACK
6
CONTINUOUS
10
94.9971
20
-66.2715
11
94.993
21
-66.2745
0
LINE
8
BLACK
6
CONTINUOUS
10
94.993
20
-66.2745
11
94.9889
21
-66.2777
0
LINE
8
BLACK
6
CONTINUOUS
10
94.9889
20
-66.2777
11
94.987
21
-66.2787
0
LINE
8
BLACK
6
CONTINUOUS
10
94.987
20
-66.2787
11
94.9852
21
-66.28
0
LINE
8
BLACK
6
CONTINUOUS
10
94.9852
20
-66.28
11
94.9805
21
-66.282
0
LINE
8
BLACK
6
CONTINUOUS
10
94.9805
20
-66.282
11
94.9759
21
-66.2844
0
LINE
8
BLACK
6
CONTINUOUS
10
94.9759
20
-66.2844
11
94.9738
21
-66.285
0
LINE
8
BLACK
6
CONTINUOUS
10
94.9738
20
-66.285
11
94.9718
21
-66.2859
0
LINE
8
BLACK
6
CONTINUOUS
10
94.9718
20
-66.2859
11
94.829
21
-66.3335
0
LINE
8
BLACK
6
CONTINUOUS
10
94.829
20
-66.3335
11
94.828
21
-66.3339
0
LINE
8
BLACK
6
CONTINUOUS
10
94.828
20
-66.3339
11
94.8238
21
-66.3347
0
LINE
8
BLACK
6
CONTINUOUS
10
94.8238
20
-66.3347
11
94.8198
21
-66.336
0
LINE
8
BLACK
6
CONTINUOUS
10
94.8198
20
-66.336
11
94.8167
21
-66.3363
0
LINE
8
BLACK
6
CONTINUOUS
10
94.8167
20
-66.3363
11
94.8136
21
-66.3369
0
LINE
8
BLACK
6
CONTINUOUS
10
94.8136
20
-66.3369
11
94.8094
21
-66.337
0
LINE
8
BLACK
6
CONTINUOUS
10
94.8094
20
-66.337
11
94.8052
21
-66.3374
0
LINE
8
BLACK
6
CONTINUOUS
10
94.8052
20
-66.3374
11
94.71
21
-66.3374
0
LINE
8
BLACK
6
CONTINUOUS
10
94.71
20
-66.3374
11
94.709
21
-66.3374
0
LINE
8
BLACK
6
CONTINUOUS
10
94.709
20
-66.3374
11
94.7048
21
-66.3369
0
LINE
8
BLACK
6
CONTINUOUS
10
94.7048
20
-66.3369
11
94.7006
21
-66.3368
0
LINE
8
BLACK
6
CONTINUOUS
10
94.7006
20
-66.3368
11
94.6975
21
-66.3361
0
LINE
8
BLACK
6
CONTINUOUS
10
94.6975
20
-66.3361
11
94.6944
21
-66.3357
0
LINE
8
BLACK
6
CONTINUOUS
10
94.6944
20
-66.3357
11
94.6904
21
-66.3345
0
LINE
8
BLACK
6
CONTINUOUS
10
94.6904
20
-66.3345
11
94.6863
21
-66.3335
0
LINE
8
BLACK
6
CONTINUOUS
10
94.6863
20
-66.3335
11
94.5434
21
-66.2859
0
LINE
8
BLACK
6
CONTINUOUS
10
94.5434
20
-66.2859
11
94.5424
21
-66.2856
0
LINE
8
BLACK
6
CONTINUOUS
10
94.5424
20
-66.2856
11
94.5404
21
-66.2846
0
LINE
8
BLACK
6
CONTINUOUS
10
94.5404
20
-66.2846
11
94.5383
21
-66.284
0
LINE
8
BLACK
6
CONTINUOUS
10
94.5383
20
-66.284
11
94.5338
21
-66.2816
0
LINE
8
BLACK
6
CONTINUOUS
10
94.5338
20
-66.2816
11
94.5292
21
-66.2794
0
LINE
8
BLACK
6
CONTINUOUS
10
94.5292
20
-66.2794
11
94.5274
21
-66.2781
0
LINE
8
BLACK
6
CONTINUOUS
10
94.5274
20
-66.2781
11
94.5254
21
-66.2771
0
LINE
8
BLACK
6
CONTINUOUS
10
94.5254
20
-66.2771
11
94.5215
21
-66.2738
0
LINE
8
BLACK
6
CONTINUOUS
10
94.5215
20
-66.2738
11
94.5173
21
-66.2708
0
LINE
8
BLACK
6
CONTINUOUS
10
94.5173
20
-66.2708
11
94.5158
21
-66.2692
0
LINE
8
BLACK
6
CONTINUOUS
10
94.5158
20
-66.2692
11
94.5141
21
-66.2678
0
LINE
8
BLACK
6
CONTINUOUS
10
94.5141
20
-66.2678
11
94.4665
21
-66.2202
0
LINE
8
BLACK
6
CONTINUOUS
10
94.4665
20
-66.2202
11
94.4663
21
-66.22
0
LINE
8
BLACK
6
CONTINUOUS
10
94.4663
20
-66.22
11
94.4663
21
-66.22
0
LINE
8
BLACK
6
CONTINUOUS
10
94.4663
20
-66.22
11
94.4663
21
-66.22
0
LINE
8
BLACK
6
CONTINUOUS
10
94.4663
20
-66.22
11
94.4658
21
-66.2194
0
LINE
8
BLACK
6
CONTINUOUS
10
94.4658
20
-66.2194
11
94.4614
21
-66.214
0
LINE
8
BLACK
6
CONTINUOUS
10
94.4614
20
-66.214
11
94.4571
21
-66.2086
0
LINE
8
BLACK
6
CONTINUOUS
10
94.4571
20
-66.2086
11
94.4569
21
-66.2083
0
LINE
8
BLACK
6
CONTINUOUS
10
94.4569
20
-66.2083
11
94.4566
21
-66.208
0
LINE
8
BLACK
6
CONTINUOUS
10
94.4566
20
-66.208
11
94.4534
21
-66.2018
0
LINE
8
BLACK
6
CONTINUOUS
10
94.4534
20
-66.2018
11
94.4502
21
-66.1957
0
LINE
8
BLACK
6
CONTINUOUS
10
94.4502
20
-66.1957
11
94.4501
21
-66.1953
0
LINE
8
BLACK
6
CONTINUOUS
10
94.4501
20
-66.1953
11
94.4499
21
-66.195
0
LINE
8
BLACK
6
CONTINUOUS
10
94.4499
20
-66.195
11
94.4479
21
-66.1883
0
LINE
8
BLACK
6
CONTINUOUS
10
94.4479
20
-66.1883
11
94.446
21
-66.1817
0
LINE
8
BLACK
6
CONTINUOUS
10
94.446
20
-66.1817
11
94.4459
21
-66.1813
0
LINE
8
BLACK
6
CONTINUOUS
10
94.4459
20
-66.1813
11
94.4458
21
-66.1809
0
LINE
8
BLACK
6
CONTINUOUS
10
94.4458
20
-66.1809
11
94.4452
21
-66.174
0
LINE
8
BLACK
6
CONTINUOUS
10
94.4452
20
-66.174
11
94.4445
21
-66.1671
0
LINE
8
BLACK
6
CONTINUOUS
10
94.4445
20
-66.1671
11
94.4445
21
-65.8338
0
LINE
8
BLACK
6
CONTINUOUS
10
94.4445
20
-65.8338
11
94.4445
21
-65.8333
0
LINE
8
BLACK
6
CONTINUOUS
10
94.4445
20
-65.8333
11
94.4445
21
-65.8333
0
LINE
8
BLACK
6
CONTINUOUS
10
94.4445
20
-65.8333
11
94.4445
21
-65.8333
0
LINE
8
BLACK
6
CONTINUOUS
10
94.4445
20
-65.8333
11
94.4445
21
-65.8328
0
LINE
8
BLACK
6
CONTINUOUS
10
94.4445
20
-65.8328
11
94.4453
21
-65.8257
0
LINE
8
BLACK
6
CONTINUOUS
10
94.4453
20
-65.8257
11
94.4461
21
-65.8187
0
LINE
8
BLACK
6
CONTINUOUS
10
94.4461
20
-65.8187
11
94.4461
21
-65.8185
0
LINE
8
BLACK
6
CONTINUOUS
10
94.4461
20
-65.8185
11
94.4462
21
-65.8182
0
LINE
8
BLACK
6
CONTINUOUS
10
94.4462
20
-65.8182
11
94.4483
21
-65.8115
0
LINE
8
BLACK
6
CONTINUOUS
10
94.4483
20
-65.8115
11
94.4504
21
-65.8047
0
LINE
8
BLACK
6
CONTINUOUS
10
94.4504
20
-65.8047
11
94.4505
21
-65.8045
0
LINE
8
BLACK
6
CONTINUOUS
10
94.4505
20
-65.8045
11
94.4506
21
-65.8043
0
LINE
8
BLACK
6
CONTINUOUS
10
94.4506
20
-65.8043
11
94.454
21
-65.7981
0
LINE
8
BLACK
6
CONTINUOUS
10
94.454
20
-65.7981
11
94.4573
21
-65.7919
0
LINE
8
BLACK
6
CONTINUOUS
10
94.4573
20
-65.7919
11
94.4575
21
-65.7917
0
LINE
8
BLACK
6
CONTINUOUS
10
94.4575
20
-65.7917
11
94.4576
21
-65.7914
0
LINE
8
BLACK
6
CONTINUOUS
10
94.4576
20
-65.7914
11
94.4622
21
-65.786
0
LINE
8
BLACK
6
CONTINUOUS
10
94.4622
20
-65.786
11
94.4667
21
-65.7806
0
LINE
8
BLACK
6
CONTINUOUS
10
94.4667
20
-65.7806
11
94.4669
21
-65.7804
0
LINE
8
BLACK
6
CONTINUOUS
10
94.4669
20
-65.7804
11
94.467
21
-65.7802
0
LINE
8
BLACK
6
CONTINUOUS
10
94.467
20
-65.7802
11
94.4725
21
-65.7758
0
LINE
8
BLACK
6
CONTINUOUS
10
94.4725
20
-65.7758
11
94.478
21
-65.7713
0
LINE
8
BLACK
6
CONTINUOUS
10
94.478
20
-65.7713
11
94.4783
21
-65.7712
0
LINE
8
BLACK
6
CONTINUOUS
10
94.4783
20
-65.7712
11
94.4785
21
-65.7711
0
LINE
8
BLACK
6
CONTINUOUS
10
94.4785
20
-65.7711
11
94.4847
21
-65.7678
0
LINE
8
BLACK
6
CONTINUOUS
10
94.4847
20
-65.7678
11
94.4909
21
-65.7645
0
LINE
8
BLACK
6
CONTINUOUS
10
94.4909
20
-65.7645
11
94.4912
21
-65.7644
0
LINE
8
BLACK
6
CONTINUOUS
10
94.4912
20
-65.7644
11
94.4914
21
-65.7643
0
LINE
8
BLACK
6
CONTINUOUS
10
94.4914
20
-65.7643
11
94.4982
21
-65.7623
0
LINE
8
BLACK
6
CONTINUOUS
10
94.4982
20
-65.7623
11
94.505
21
-65.7602
0
LINE
8
BLACK
6
CONTINUOUS
10
94.505
20
-65.7602
11
94.5052
21
-65.7602
0
LINE
8
BLACK
6
CONTINUOUS
10
94.5052
20
-65.7602
11
94.5055
21
-65.7601
0
LINE
8
BLACK
6
CONTINUOUS
10
94.5055
20
-65.7601
11
94.5125
21
-65.7595
0
LINE
8
BLACK
6
CONTINUOUS
10
94.5125
20
-65.7595
11
94.5195
21
-65.7588
0
LINE
8
BLACK
6
CONTINUOUS
10
94.5195
20
-65.7588
11
94.71
21
-65.7588
0
LINE
8
BLACK
6
CONTINUOUS
10
94.71
20
-65.7588
11
94.711
21
-65.7588
0
LINE
8
BLACK
6
CONTINUOUS
10
94.711
20
-65.7588
11
94.7256
21
-65.7604
0
LINE
8
BLACK
6
CONTINUOUS
10
94.7256
20
-65.7604
11
94.7395
21
-65.7649
0
LINE
8
BLACK
6
CONTINUOUS
10
94.7395
20
-65.7649
11
94.7524
21
-65.7719
0
LINE
8
BLACK
6
CONTINUOUS
10
94.7524
20
-65.7719
11
94.7636
21
-65.7813
0
LINE
8
BLACK
6
CONTINUOUS
10
94.7636
20
-65.7813
11
94.7728
21
-65.7927
0
LINE
8
BLACK
6
CONTINUOUS
10
94.7728
20
-65.7927
11
94.7795
21
-65.8057
0
LINE
8
BLACK
6
CONTINUOUS
10
94.7795
20
-65.8057
11
94.7837
21
-65.8198
0
LINE
8
BLACK
6
CONTINUOUS
10
94.7837
20
-65.8198
11
94.785
21
-65.8343
0
LINE
8
BLACK
6
CONTINUOUS
10
94.785
20
-65.8343
11
94.7835
21
-65.8489
0
LINE
8
BLACK
6
CONTINUOUS
10
94.7835
20
-65.8489
11
94.7791
21
-65.8629
0
LINE
8
BLACK
6
CONTINUOUS
10
94.7791
20
-65.8629
11
94.7722
21
-65.8757
0
LINE
8
BLACK
6
CONTINUOUS
10
94.7722
20
-65.8757
11
94.7628
21
-65.887
0
LINE
8
BLACK
6
CONTINUOUS
10
94.7628
20
-65.887
11
94.7515
21
-65.8963
0
LINE
8
BLACK
6
CONTINUOUS
10
94.7515
20
-65.8963
11
94.7386
21
-65.9031
0
LINE
8
BLACK
6
CONTINUOUS
10
94.7386
20
-65.9031
11
94.7246
21
-65.9074
0
LINE
8
BLACK
6
CONTINUOUS
10
94.7246
20
-65.9074
11
94.71
21
-65.9088
0
LINE
8
BLACK
6
CONTINUOUS
10
94.71
20
-65.9088
11
94.5945
21
-65.9088
0
LINE
8
BLACK
6
CONTINUOUS
10
94.5945
20
-65.9088
11
94.5945
21
-66.1361
0
LINE
8
BLACK
6
CONTINUOUS
10
94.5945
20
-66.1361
11
94.6077
21
-66.1492
0
LINE
8
BLACK
6
CONTINUOUS
10
94.6077
20
-66.1492
11
94.7222
21
-66.1874
0
LINE
8
BLACK
6
CONTINUOUS
10
94.7222
20
-66.1874
11
94.7931
21
-66.1874
0
LINE
8
BLACK
6
CONTINUOUS
10
94.7931
20
-66.1874
11
94.9076
21
-66.1492
0
LINE
8
BLACK
6
CONTINUOUS
10
94.9076
20
-66.1492
11
94.9817
21
-66.0751
0
LINE
8
BLACK
6
CONTINUOUS
10
94.9817
20
-66.0751
11
95.0202
21
-65.9981
0
LINE
8
BLACK
6
CONTINUOUS
10
95.0202
20
-65.9981
11
95.0636
21
-65.8246
0
LINE
8
BLACK
6
CONTINUOUS
10
95.0636
20
-65.8246
11
95.0636
21
-65.7002
0
LINE
8
BLACK
6
CONTINUOUS
10
95.0636
20
-65.7002
11
95.0202
21
-65.5267
0
LINE
8
BLACK
6
CONTINUOUS
10
95.0202
20
-65.5267
11
94.9817
21
-65.4497
0
LINE
8
BLACK
6
CONTINUOUS
10
94.9817
20
-65.4497
11
94.9076
21
-65.3756
0
LINE
8
BLACK
6
CONTINUOUS
10
94.9076
20
-65.3756
11
94.7931
21
-65.3374
0
LINE
8
BLACK
6
CONTINUOUS
10
94.7931
20
-65.3374
11
94.6801
21
-65.3374
0
LINE
8
BLACK
6
CONTINUOUS
10
94.6801
20
-65.3374
11
94.6007
21
-65.3771
0
LINE
8
BLACK
6
CONTINUOUS
10
94.6007
20
-65.3771
11
94.5997
21
-65.3775
0
LINE
8
BLACK
6
CONTINUOUS
10
94.5997
20
-65.3775
11
94.586
21
-65.3826
0
LINE
8
BLACK
6
CONTINUOUS
10
94.586
20
-65.3826
11
94.5715
21
-65.3849
0
LINE
8
BLACK
6
CONTINUOUS
10
94.5715
20
-65.3849
11
94.5569
21
-65.3843
0
LINE
8
BLACK
6
CONTINUOUS
10
94.5569
20
-65.3843
11
94.5427
21
-65.3809
0
LINE
8
BLACK
6
CONTINUOUS
10
94.5427
20
-65.3809
11
94.5294
21
-65.3748
0
LINE
8
BLACK
6
CONTINUOUS
10
94.5294
20
-65.3748
11
94.5175
21
-65.3662
0
LINE
8
BLACK
6
CONTINUOUS
10
94.5175
20
-65.3662
11
94.5075
21
-65.3555
0
LINE
8
BLACK
6
CONTINUOUS
10
94.5075
20
-65.3555
11
94.4998
21
-65.3431
0
LINE
8
BLACK
6
CONTINUOUS
10
94.4998
20
-65.3431
11
94.4947
21
-65.3294
0
LINE
8
BLACK
6
CONTINUOUS
10
94.4947
20
-65.3294
11
94.4923
21
-65.3149
0
LINE
8
BLACK
6
CONTINUOUS
10
94.4923
20
-65.3149
11
94.4928
21
-65.3003
0
LINE
8
BLACK
6
CONTINUOUS
10
94.4928
20
-65.3003
11
94.4961
21
-65.286
0
LINE
8
BLACK
6
CONTINUOUS
10
94.4961
20
-65.286
11
94.5021
21
-65.2727
0
LINE
8
BLACK
6
CONTINUOUS
10
94.5021
20
-65.2727
11
94.5106
21
-65.2608
0
LINE
8
BLACK
6
CONTINUOUS
10
94.5106
20
-65.2608
11
94.5212
21
-65.2507
0
LINE
8
BLACK
6
CONTINUOUS
10
94.5212
20
-65.2507
11
94.5336
21
-65.2429
0
LINE
8
BLACK
6
CONTINUOUS
10
94.5336
20
-65.2429
11
94.6288
21
-65.1953
0
LINE
8
BLACK
6
CONTINUOUS
10
94.6288
20
-65.1953
11
94.6298
21
-65.1948
0
LINE
8
BLACK
6
CONTINUOUS
10
94.6298
20
-65.1948
11
94.6319
21
-65.1941
0
LINE
8
BLACK
6
CONTINUOUS
10
94.6319
20
-65.1941
11
94.6338
21
-65.193
0
LINE
8
BLACK
6
CONTINUOUS
10
94.6338
20
-65.193
11
94.6387
21
-65.1916
0
LINE
8
BLACK
6
CONTINUOUS
10
94.6387
20
-65.1916
11
94.6435
21
-65.1898
0
LINE
8
BLACK
6
CONTINUOUS
10
94.6435
20
-65.1898
11
94.6457
21
-65.1894
0
LINE
8
BLACK
6
CONTINUOUS
10
94.6457
20
-65.1894
11
94.6478
21
-65.1888
0
LINE
8
BLACK
6
CONTINUOUS
10
94.6478
20
-65.1888
11
94.6529
21
-65.1883
0
LINE
8
BLACK
6
CONTINUOUS
10
94.6529
20
-65.1883
11
94.658
21
-65.1875
0
LINE
8
BLACK
6
CONTINUOUS
10
94.658
20
-65.1875
11
94.6602
21
-65.1876
0
LINE
8
BLACK
6
CONTINUOUS
10
94.6602
20
-65.1876
11
94.6624
21
-65.1874
0
LINE
8
BLACK
6
CONTINUOUS
10
94.6624
20
-65.1874
11
94.8052
21
-65.1874
0
LINE
8
BLACK
6
CONTINUOUS
10
94.8052
20
-65.1874
11
94.8063
21
-65.1874
0
LINE
8
BLACK
6
CONTINUOUS
10
94.0915
20
-65.1874
11
94.0915
21
-65.1874
0
LINE
8
BLACK
6
CONTINUOUS
10
94.0915
20
-65.1874
11
94.0915
21
-65.1874
0
LINE
8
BLACK
6
CONTINUOUS
10
94.0915
20
-65.1874
11
94.092
21
-65.1874
0
LINE
8
BLACK
6
CONTINUOUS
10
94.092
20
-65.1874
11
94.099
21
-65.1882
0
LINE
8
BLACK
6
CONTINUOUS
10
94.099
20
-65.1882
11
94.106
21
-65.1889
0
LINE
8
BLACK
6
CONTINUOUS
10
94.106
20
-65.1889
11
94.1063
21
-65.189
0
LINE
8
BLACK
6
CONTINUOUS
10
94.1063
20
-65.189
11
94.1065
21
-65.189
0
LINE
8
BLACK
6
CONTINUOUS
10
94.1065
20
-65.189
11
94.1132
21
-65.1911
0
LINE
8
BLACK
6
CONTINUOUS
10
94.1132
20
-65.1911
11
94.12
21
-65.1932
0
LINE
8
BLACK
6
CONTINUOUS
10
94.12
20
-65.1932
11
94.1202
21
-65.1934
0
LINE
8
BLACK
6
CONTINUOUS
10
94.1202
20
-65.1934
11
94.1205
21
-65.1934
0
LINE
8
BLACK
6
CONTINUOUS
10
94.1205
20
-65.1934
11
94.1267
21
-65.1969
0
LINE
8
BLACK
6
CONTINUOUS
10
94.1267
20
-65.1969
11
94.1329
21
-65.2002
0
LINE
8
BLACK
6
CONTINUOUS
10
94.1329
20
-65.2002
11
94.1331
21
-65.2004
0
LINE
8
BLACK
6
CONTINUOUS
10
94.1331
20
-65.2004
11
94.1333
21
-65.2005
0
LINE
8
BLACK
6
CONTINUOUS
10
94.1333
20
-65.2005
11
94.1387
21
-65.205
0
LINE
8
BLACK
6
CONTINUOUS
10
94.1387
20
-65.205
11
94.1442
21
-65.2095
0
LINE
8
BLACK
6
CONTINUOUS
10
94.1442
20
-65.2095
11
94.1443
21
-65.2097
0
LINE
8
BLACK
6
CONTINUOUS
10
94.1443
20
-65.2097
11
94.1445
21
-65.2099
0
LINE
8
BLACK
6
CONTINUOUS
10
94.1445
20
-65.2099
11
94.1489
21
-65.2154
0
LINE
8
BLACK
6
CONTINUOUS
10
94.1489
20
-65.2154
11
94.1534
21
-65.2209
0
LINE
8
BLACK
6
CONTINUOUS
10
94.1534
20
-65.2209
11
94.1535
21
-65.2211
0
LINE
8
BLACK
6
CONTINUOUS
10
94.1535
20
-65.2211
11
94.1537
21
-65.2213
0
LINE
8
BLACK
6
CONTINUOUS
10
94.1537
20
-65.2213
11
94.157
21
-65.2276
0
LINE
8
BLACK
6
CONTINUOUS
10
94.157
20
-65.2276
11
94.1603
21
-65.2338
0
LINE
8
BLACK
6
CONTINUOUS
10
94.1603
20
-65.2338
11
94.1604
21
-65.2341
0
LINE
8
BLACK
6
CONTINUOUS
10
94.1604
20
-65.2341
11
94.1605
21
-65.2343
0
LINE
8
BLACK
6
CONTINUOUS
10
94.1605
20
-65.2343
11
94.1625
21
-65.2411
0
LINE
8
BLACK
6
CONTINUOUS
10
94.1625
20
-65.2411
11
94.1645
21
-65.2478
0
LINE
8
BLACK
6
CONTINUOUS
10
94.1645
20
-65.2478
11
94.1645
21
-65.2481
0
LINE
8
BLACK
6
CONTINUOUS
10
94.1645
20
-65.2481
11
94.1646
21
-65.2483
0
LINE
8
BLACK
6
CONTINUOUS
10
94.1646
20
-65.2483
11
94.1653
21
-65.2553
0
LINE
8
BLACK
6
CONTINUOUS
10
94.1653
20
-65.2553
11
94.166
21
-65.2624
0
LINE
8
BLACK
6
CONTINUOUS
10
94.166
20
-65.2624
11
94.166
21
-66.2624
0
LINE
8
BLACK
6
CONTINUOUS
10
94.166
20
-66.2624
11
94.1659
21
-66.2634
0
LINE
8
BLACK
6
CONTINUOUS
10
94.1659
20
-66.2634
11
94.1643
21
-66.278
0
LINE
8
BLACK
6
CONTINUOUS
10
94.1643
20
-66.278
11
94.1599
21
-66.2919
0
LINE
8
BLACK
6
CONTINUOUS
10
94.1599
20
-66.2919
11
94.1528
21
-66.3048
0
LINE
8
BLACK
6
CONTINUOUS
10
94.1528
20
-66.3048
11
94.1434
21
-66.316
0
LINE
8
BLACK
6
CONTINUOUS
10
94.1434
20
-66.316
11
94.132
21
-66.3251
0
LINE
8
BLACK
6
CONTINUOUS
10
94.132
20
-66.3251
11
94.119
21
-66.3319
0
LINE
8
BLACK
6
CONTINUOUS
10
94.119
20
-66.3319
11
94.105
21
-66.3361
0
LINE
8
BLACK
6
CONTINUOUS
10
94.105
20
-66.3361
11
94.0904
21
-66.3374
0
LINE
8
BLACK
6
CONTINUOUS
10
94.0904
20
-66.3374
11
94.0759
21
-66.3358
0
LINE
8
BLACK
6
CONTINUOUS
10
94.0759
20
-66.3358
11
94.0619
21
-66.3315
0
LINE
8
BLACK
6
CONTINUOUS
10
94.0619
20
-66.3315
11
94.049
21
-66.3246
0
LINE
8
BLACK
6
CONTINUOUS
10
94.049
20
-66.3246
11
94.0377
21
-66.3152
0
LINE
8
BLACK
6
CONTINUOUS
10
94.0377
20
-66.3152
11
94.0285
21
-66.3039
0
LINE
8
BLACK
6
CONTINUOUS
10
94.0285
20
-66.3039
11
94.0216
21
-66.291
0
LINE
8
BLACK
6
CONTINUOUS
10
94.0216
20
-66.291
11
94.0174
21
-66.2769
0
LINE
8
BLACK
6
CONTINUOUS
10
94.0174
20
-66.2769
11
94.016
21
-66.2624
0
LINE
8
BLACK
6
CONTINUOUS
10
94.016
20
-66.2624
11
94.016
21
-65.8612
0
LINE
8
BLACK
6
CONTINUOUS
10
94.016
20
-65.8612
11
93.71
21
-65.8612
0
LINE
8
BLACK
6
CONTINUOUS
10
93.71
20
-65.8612
11
93.709
21
-65.8612
0
LINE
8
BLACK
6
CONTINUOUS
10
93.709
20
-65.8612
11
93.7068
21
-65.8609
0
LINE
8
BLACK
6
CONTINUOUS
10
93.7068
20
-65.8609
11
93.7046
21
-65.861
0
LINE
8
BLACK
6
CONTINUOUS
10
93.7046
20
-65.861
11
93.6995
21
-65.8601
0
LINE
8
BLACK
6
CONTINUOUS
10
93.6995
20
-65.8601
11
93.6944
21
-65.8596
0
LINE
8
BLACK
6
CONTINUOUS
10
93.6944
20
-65.8596
11
93.6923
21
-65.8589
0
LINE
8
BLACK
6
CONTINUOUS
10
93.6923
20
-65.8589
11
93.6901
21
-65.8585
0
LINE
8
BLACK
6
CONTINUOUS
10
93.6901
20
-65.8585
11
93.6853
21
-65.8567
0
LINE
8
BLACK
6
CONTINUOUS
10
93.6853
20
-65.8567
11
93.6805
21
-65.8551
0
LINE
8
BLACK
6
CONTINUOUS
10
93.6805
20
-65.8551
11
93.6785
21
-65.8541
0
LINE
8
BLACK
6
CONTINUOUS
10
93.6785
20
-65.8541
11
93.6765
21
-65.8533
0
LINE
8
BLACK
6
CONTINUOUS
10
93.6765
20
-65.8533
11
93.5812
21
-65.8057
0
LINE
8
BLACK
6
CONTINUOUS
10
93.5812
20
-65.8057
11
93.5803
21
-65.8052
0
LINE
8
BLACK
6
CONTINUOUS
10
93.5803
20
-65.8052
11
93.5767
21
-65.8029
0
LINE
8
BLACK
6
CONTINUOUS
10
93.5767
20
-65.8029
11
93.573
21
-65.8009
0
LINE
8
BLACK
6
CONTINUOUS
10
93.573
20
-65.8009
11
93.5706
21
-65.7989
0
LINE
8
BLACK
6
CONTINUOUS
10
93.5706
20
-65.7989
11
93.568
21
-65.7972
0
LINE
8
BLACK
6
CONTINUOUS
10
93.568
20
-65.7972
11
93.565
21
-65.7943
0
LINE
8
BLACK
6
CONTINUOUS
10
93.565
20
-65.7943
11
93.5617
21
-65.7916
0
LINE
8
BLACK
6
CONTINUOUS
10
93.5617
20
-65.7916
11
93.5141
21
-65.744
0
LINE
8
BLACK
6
CONTINUOUS
10
93.5141
20
-65.744
11
93.5134
21
-65.7432
0
LINE
8
BLACK
6
CONTINUOUS
10
93.5134
20
-65.7432
11
93.5107
21
-65.7399
0
LINE
8
BLACK
6
CONTINUOUS
10
93.5107
20
-65.7399
11
93.5079
21
-65.7369
0
LINE
8
BLACK
6
CONTINUOUS
10
93.5079
20
-65.7369
11
93.5062
21
-65.7342
0
LINE
8
BLACK
6
CONTINUOUS
10
93.5062
20
-65.7342
11
93.5042
21
-65.7318
0
LINE
8
BLACK
6
CONTINUOUS
10
93.5042
20
-65.7318
11
93.5023
21
-65.7281
0
LINE
8
BLACK
6
CONTINUOUS
10
93.5023
20
-65.7281
11
93.5001
21
-65.7245
0
LINE
8
BLACK
6
CONTINUOUS
10
93.5001
20
-65.7245
11
93.4524
21
-65.6293
0
LINE
8
BLACK
6
CONTINUOUS
10
93.4524
20
-65.6293
11
93.452
21
-65.6283
0
LINE
8
BLACK
6
CONTINUOUS
10
93.452
20
-65.6283
11
93.4512
21
-65.6262
0
LINE
8
BLACK
6
CONTINUOUS
10
93.4512
20
-65.6262
11
93.4502
21
-65.6243
0
LINE
8
BLACK
6
CONTINUOUS
10
93.4502
20
-65.6243
11
93.4487
21
-65.6194
0
LINE
8
BLACK
6
CONTINUOUS
10
93.4487
20
-65.6194
11
93.4469
21
-65.6146
0
LINE
8
BLACK
6
CONTINUOUS
10
93.4469
20
-65.6146
11
93.4466
21
-65.6124
0
LINE
8
BLACK
6
CONTINUOUS
10
93.4466
20
-65.6124
11
93.446
21
-65.6103
0
LINE
8
BLACK
6
CONTINUOUS
10
93.446
20
-65.6103
11
93.4454
21
-65.6052
0
LINE
8
BLACK
6
CONTINUOUS
10
93.4454
20
-65.6052
11
93.4447
21
-65.6001
0
LINE
8
BLACK
6
CONTINUOUS
10
93.4447
20
-65.6001
11
93.4447
21
-65.5979
0
LINE
8
BLACK
6
CONTINUOUS
10
93.4447
20
-65.5979
11
93.4445
21
-65.5957
0
LINE
8
BLACK
6
CONTINUOUS
10
93.4445
20
-65.5957
11
93.4445
21
-65.4529
0
LINE
8
BLACK
6
CONTINUOUS
10
93.4445
20
-65.4529
11
93.4445
21
-65.4518
0
LINE
8
BLACK
6
CONTINUOUS
10
93.4445
20
-65.4518
11
93.4448
21
-65.4496
0
LINE
8
BLACK
6
CONTINUOUS
10
93.4448
20
-65.4496
11
93.4447
21
-65.4474
0
LINE
8
BLACK
6
CONTINUOUS
10
93.4447
20
-65.4474
11
93.4456
21
-65.4424
0
LINE
8
BLACK
6
CONTINUOUS
10
93.4456
20
-65.4424
11
93.4462
21
-65.4373
0
LINE
8
BLACK
6
CONTINUOUS
10
93.4462
20
-65.4373
11
93.4468
21
-65.4352
0
LINE
8
BLACK
6
CONTINUOUS
10
93.4468
20
-65.4352
11
93.4472
21
-65.433
0
LINE
8
BLACK
6
CONTINUOUS
10
93.4472
20
-65.433
11
93.449
21
-65.4282
0
LINE
8
BLACK
6
CONTINUOUS
10
93.449
20
-65.4282
11
93.4506
21
-65.4233
0
LINE
8
BLACK
6
CONTINUOUS
10
93.4506
20
-65.4233
11
93.4517
21
-65.4214
0
LINE
8
BLACK
6
CONTINUOUS
10
93.4517
20
-65.4214
11
93.4524
21
-65.4193
0
LINE
8
BLACK
6
CONTINUOUS
10
93.4524
20
-65.4193
11
93.5001
21
-65.3241
0
LINE
8
BLACK
6
CONTINUOUS
10
93.5001
20
-65.3241
11
93.5005
21
-65.3231
0
LINE
8
BLACK
6
CONTINUOUS
10
93.5005
20
-65.3231
11
93.5028
21
-65.3196
0
LINE
8
BLACK
6
CONTINUOUS
10
93.5028
20
-65.3196
11
93.5048
21
-65.3159
0
LINE
8
BLACK
6
CONTINUOUS
10
93.5048
20
-65.3159
11
93.5068
21
-65.3135
0
LINE
8
BLACK
6
CONTINUOUS
10
93.5068
20
-65.3135
11
93.5085
21
-65.3109
0
LINE
8
BLACK
6
CONTINUOUS
10
93.5085
20
-65.3109
11
93.5114
21
-65.3078
0
LINE
8
BLACK
6
CONTINUOUS
10
93.5114
20
-65.3078
11
93.5141
21
-65.3046
0
LINE
8
BLACK
6
CONTINUOUS
10
93.5141
20
-65.3046
11
93.5617
21
-65.257
0
LINE
8
BLACK
6
CONTINUOUS
10
93.5617
20
-65.257
11
93.5625
21
-65.2562
0
LINE
8
BLACK
6
CONTINUOUS
10
93.5625
20
-65.2562
11
93.5658
21
-65.2536
0
LINE
8
BLACK
6
CONTINUOUS
10
93.5658
20
-65.2536
11
93.5688
21
-65.2507
0
LINE
8
BLACK
6
CONTINUOUS
10
93.5688
20
-65.2507
11
93.5715
21
-65.249
0
LINE
8
BLACK
6
CONTINUOUS
10
93.5715
20
-65.249
11
93.5739
21
-65.2471
0
LINE
8
BLACK
6
CONTINUOUS
10
93.5739
20
-65.2471
11
93.5776
21
-65.2452
0
LINE
8
BLACK
6
CONTINUOUS
10
93.5776
20
-65.2452
11
93.5812
21
-65.2429
0
LINE
8
BLACK
6
CONTINUOUS
10
93.5812
20
-65.2429
11
93.6765
21
-65.1953
0
LINE
8
BLACK
6
CONTINUOUS
10
93.6765
20
-65.1953
11
93.6774
21
-65.1948
0
LINE
8
BLACK
6
CONTINUOUS
10
93.6774
20
-65.1948
11
93.6795
21
-65.1941
0
LINE
8
BLACK
6
CONTINUOUS
10
93.6795
20
-65.1941
11
93.6814
21
-65.193
0
LINE
8
BLACK
6
CONTINUOUS
10
93.6814
20
-65.193
11
93.6863
21
-65.1916
0
LINE
8
BLACK
6
CONTINUOUS
10
93.6863
20
-65.1916
11
93.6911
21
-65.1898
0
LINE
8
BLACK
6
CONTINUOUS
10
93.6911
20
-65.1898
11
93.6933
21
-65.1894
0
LINE
8
BLACK
6
CONTINUOUS
10
93.6933
20
-65.1894
11
93.6954
21
-65.1888
0
LINE
8
BLACK
6
CONTINUOUS
10
93.6954
20
-65.1888
11
93.7005
21
-65.1883
0
LINE
8
BLACK
6
CONTINUOUS
10
93.7005
20
-65.1883
11
93.7056
21
-65.1875
0
LINE
8
BLACK
6
CONTINUOUS
10
93.7056
20
-65.1875
11
93.7078
21
-65.1876
0
LINE
8
BLACK
6
CONTINUOUS
10
93.7078
20
-65.1876
11
93.71
21
-65.1874
0
LINE
8
BLACK
6
CONTINUOUS
10
93.71
20
-65.1874
11
94.091
21
-65.1874
0
LINE
8
BLACK
6
CONTINUOUS
10
94.091
20
-65.1874
11
94.0915
21
-65.1874
0
LINE
8
BLACK
6
CONTINUOUS
10
93.7277
20
-65.3374
11
93.6592
21
-65.3716
0
LINE
8
BLACK
6
CONTINUOUS
10
93.6592
20
-65.3716
11
93.6288
21
-65.402
0
LINE
8
BLACK
6
CONTINUOUS
10
93.6288
20
-65.402
11
93.5945
21
-65.4706
0
LINE
8
BLACK
6
CONTINUOUS
10
93.5945
20
-65.4706
11
93.5945
21
-65.578
0
LINE
8
BLACK
6
CONTINUOUS
10
93.5945
20
-65.578
11
93.6288
21
-65.6465
0
LINE
8
BLACK
6
CONTINUOUS
10
93.6288
20
-65.6465
11
93.6592
21
-65.6769
0
LINE
8
BLACK
6
CONTINUOUS
10
93.6592
20
-65.6769
11
93.7277
21
-65.7112
0
LINE
8
BLACK
6
CONTINUOUS
10
93.7277
20
-65.7112
11
94.016
21
-65.7112
0
LINE
8
BLACK
6
CONTINUOUS
10
94.016
20
-65.7112
11
94.016
21
-65.3374
0
LINE
8
BLACK
6
CONTINUOUS
10
94.016
20
-65.3374
11
93.7277
21
-65.3374
0
LINE
8
BLACK
6
CONTINUOUS
10
93.106
20
-65.1889
11
93.12
21
-65.1932
0
LINE
8
BLACK
6
CONTINUOUS
10
93.12
20
-65.1932
11
93.1329
21
-65.2002
0
LINE
8
BLACK
6
CONTINUOUS
10
93.1329
20
-65.2002
11
93.1442
21
-65.2095
0
LINE
8
BLACK
6
CONTINUOUS
10
93.1442
20
-65.2095
11
93.1534
21
-65.2209
0
LINE
8
BLACK
6
CONTINUOUS
10
93.1534
20
-65.2209
11
93.1603
21
-65.2338
0
LINE
8
BLACK
6
CONTINUOUS
10
93.1603
20
-65.2338
11
93.1645
21
-65.2478
0
LINE
8
BLACK
6
CONTINUOUS
10
93.1645
20
-65.2478
11
93.166
21
-65.2624
0
LINE
8
BLACK
6
CONTINUOUS
10
93.166
20
-65.2624
11
93.166
21
-66.2624
0
LINE
8
BLACK
6
CONTINUOUS
10
93.166
20
-66.2624
11
93.1659
21
-66.2634
0
LINE
8
BLACK
6
CONTINUOUS
10
93.1659
20
-66.2634
11
93.1643
21
-66.278
0
LINE
8
BLACK
6
CONTINUOUS
10
93.1643
20
-66.278
11
93.1599
21
-66.2919
0
LINE
8
BLACK
6
CONTINUOUS
10
93.1599
20
-66.2919
11
93.1528
21
-66.3048
0
LINE
8
BLACK
6
CONTINUOUS
10
93.1528
20
-66.3048
11
93.1434
21
-66.316
0
LINE
8
BLACK
6
CONTINUOUS
10
93.1434
20
-66.316
11
93.132
21
-66.3251
0
LINE
8
BLACK
6
CONTINUOUS
10
93.132
20
-66.3251
11
93.119
21
-66.3319
0
LINE
8
BLACK
6
CONTINUOUS
10
93.119
20
-66.3319
11
93.105
21
-66.3361
0
LINE
8
BLACK
6
CONTINUOUS
10
93.105
20
-66.3361
11
93.0904
21
-66.3374
0
LINE
8
BLACK
6
CONTINUOUS
10
93.0904
20
-66.3374
11
93.0759
21
-66.3358
0
LINE
8
BLACK
6
CONTINUOUS
10
93.0759
20
-66.3358
11
93.0619
21
-66.3315
0
LINE
8
BLACK
6
CONTINUOUS
10
93.0619
20
-66.3315
11
93.049
21
-66.3246
0
LINE
8
BLACK
6
CONTINUOUS
10
93.049
20
-66.3246
11
93.0377
21
-66.3152
0
LINE
8
BLACK
6
CONTINUOUS
10
93.0377
20
-66.3152
11
93.0285
21
-66.3039
0
LINE
8
BLACK
6
CONTINUOUS
10
93.0285
20
-66.3039
11
93.0216
21
-66.291
0
LINE
8
BLACK
6
CONTINUOUS
10
93.0216
20
-66.291
11
93.0174
21
-66.2769
0
LINE
8
BLACK
6
CONTINUOUS
10
93.0174
20
-66.2769
11
93.016
21
-66.2624
0
LINE
8
BLACK
6
CONTINUOUS
10
93.016
20
-66.2624
11
93.016
21
-65.2624
0
LINE
8
BLACK
6
CONTINUOUS
10
93.016
20
-65.2624
11
93.016
21
-65.2613
0
LINE
8
BLACK
6
CONTINUOUS
10
93.016
20
-65.2613
11
93.0176
21
-65.2468
0
LINE
8
BLACK
6
CONTINUOUS
10
93.0176
20
-65.2468
11
93.022
21
-65.2328
0
LINE
8
BLACK
6
CONTINUOUS
10
93.022
20
-65.2328
11
93.0291
21
-65.22
0
LINE
8
BLACK
6
CONTINUOUS
10
93.0291
20
-65.22
11
93.0385
21
-65.2088
0
LINE
8
BLACK
6
CONTINUOUS
10
93.0385
20
-65.2088
11
93.0499
21
-65.1996
0
LINE
8
BLACK
6
CONTINUOUS
10
93.0499
20
-65.1996
11
93.0629
21
-65.1928
0
LINE
8
BLACK
6
CONTINUOUS
10
93.0629
20
-65.1928
11
93.0769
21
-65.1887
0
LINE
8
BLACK
6
CONTINUOUS
10
93.0769
20
-65.1887
11
93.0915
21
-65.1874
0
LINE
8
BLACK
6
CONTINUOUS
10
93.0915
20
-65.1874
11
93.106
21
-65.1889
  0
ENDSEC
  0
EOF
