<?xml version="1.0" encoding="UTF-8"?>
<svg xmlns="http://www.w3.org/2000/svg" xmlns:xlink="http://www.w3.org/1999/xlink" width="595.275591pt" height="841.889764pt" viewBox="0 0 595.275591 841.889764" version="1.2">
<g id="surface21039">
<path style="fill-rule:evenodd;comp-op:src;clip-to-self:true;fill:rgb(0%,0%,0%);fill-opacity:1;stroke-width:1.000039;stroke-linecap:round;stroke-linejoin:round;stroke:rgb(0%,0%,0%);stroke-opacity:1;comp-op:src;clip-to-self:true;stroke-miterlimit:10;" d="M 2992.004875 438.004557 L 2992.004875 425.992839 L 2972.994458 425.992839 L 2972.994458 438.004557 Z M 2992.004875 438.004557 " transform="matrix(0,-0.24,0.24,0,0,841.889764)"/>
<path style="fill-rule:evenodd;comp-op:src;clip-to-self:true;fill:rgb(0%,0%,0%);fill-opacity:1;stroke-width:1.000039;stroke-linecap:round;stroke-linejoin:round;stroke:rgb(0%,0%,0%);stroke-opacity:1;comp-op:src;clip-to-self:true;stroke-miterlimit:10;" d="M 2992.004875 474.007161 L 2992.004875 461.995443 L 2972.994458 461.995443 L 2972.994458 474.007161 Z M 2992.004875 474.007161 " transform="matrix(0,-0.24,0.24,0,0,841.889764)"/>
<path style="fill-rule:evenodd;comp-op:src;clip-to-self:true;fill:rgb(0%,0%,0%);fill-opacity:1;stroke-width:1.000039;stroke-linecap:round;stroke-linejoin:round;stroke:rgb(0%,0%,0%);stroke-opacity:1;comp-op:src;clip-to-self:true;stroke-miterlimit:10;" d="M 3112.00813 474.007161 L 3112.00813 461.995443 L 3094.006828 461.995443 L 3094.006828 474.007161 Z M 3112.00813 474.007161 " transform="matrix(0,-0.24,0.24,0,0,841.889764)"/>
<path style="fill-rule:evenodd;comp-op:src;clip-to-self:true;fill:rgb(0%,0%,0%);fill-opacity:1;stroke-width:1.000039;stroke-linecap:round;stroke-linejoin:round;stroke:rgb(0%,0%,0%);stroke-opacity:1;comp-op:src;clip-to-self:true;stroke-miterlimit:10;" d="M 3112.00813 438.004557 L 3112.00813 425.992839 L 3094.006828 425.992839 L 3094.006828 438.004557 Z M 3112.00813 438.004557 " transform="matrix(0,-0.24,0.24,0,0,841.889764)"/>
<path style="fill-rule:evenodd;comp-op:src;clip-to-self:true;fill:rgb(0%,0%,0%);fill-opacity:1;stroke-width:1.000039;stroke-linecap:round;stroke-linejoin:round;stroke:rgb(0%,0%,0%);stroke-opacity:1;comp-op:src;clip-to-self:true;stroke-miterlimit:10;" d="M 3026.005526 472.998047 L 3026.005526 463.004557 L 3006.002271 463.004557 L 3006.002271 472.998047 Z M 3026.005526 472.998047 " transform="matrix(0,-0.24,0.24,0,0,841.889764)"/>
<path style="fill-rule:evenodd;comp-op:src;clip-to-self:true;fill:rgb(0%,0%,0%);fill-opacity:1;stroke-width:1.000039;stroke-linecap:round;stroke-linejoin:round;stroke:rgb(0%,0%,0%);stroke-opacity:1;comp-op:src;clip-to-self:true;stroke-miterlimit:10;" d="M 3026.005526 438.997396 L 3026.005526 427.994792 L 3006.002271 427.994792 L 3006.002271 438.997396 Z M 3026.005526 438.997396 " transform="matrix(0,-0.24,0.24,0,0,841.889764)"/>
<path style="fill-rule:evenodd;comp-op:src;clip-to-self:true;fill:rgb(0%,0%,0%);fill-opacity:1;stroke-width:1.000039;stroke-linecap:round;stroke-linejoin:round;stroke:rgb(0%,0%,0%);stroke-opacity:1;comp-op:src;clip-to-self:true;stroke-miterlimit:10;" d="M 3067.004875 483.007813 L 3067.004875 470.003255 L 3058.997063 470.003255 L 3058.997063 483.007813 Z M 3067.004875 483.007813 " transform="matrix(0,-0.24,0.24,0,0,841.889764)"/>
<path style="fill-rule:evenodd;comp-op:src;clip-to-self:true;fill:rgb(0%,0%,0%);fill-opacity:1;stroke-width:1.000039;stroke-linecap:round;stroke-linejoin:round;stroke:rgb(0%,0%,0%);stroke-opacity:1;comp-op:src;clip-to-self:true;stroke-miterlimit:10;" d="M 3056.002271 483.007813 L 3056.002271 470.003255 L 3047.994458 470.003255 L 3047.994458 483.007813 Z M 3056.002271 483.007813 " transform="matrix(0,-0.24,0.24,0,0,841.889764)"/>
<path style="fill-rule:evenodd;comp-op:src;clip-to-self:true;fill:rgb(0%,0%,0%);fill-opacity:1;stroke-width:1.000039;stroke-linecap:round;stroke-linejoin:round;stroke:rgb(0%,0%,0%);stroke-opacity:1;comp-op:src;clip-to-self:true;stroke-miterlimit:10;" d="M 3044.999667 483.007813 L 3044.999667 470.003255 L 3037.00813 470.003255 L 3037.00813 483.007813 Z M 3044.999667 483.007813 " transform="matrix(0,-0.24,0.24,0,0,841.889764)"/>
<path style="fill-rule:evenodd;comp-op:src;clip-to-self:true;fill:rgb(0%,0%,0%);fill-opacity:1;stroke-width:1.000039;stroke-linecap:round;stroke-linejoin:round;stroke:rgb(0%,0%,0%);stroke-opacity:1;comp-op:src;clip-to-self:true;stroke-miterlimit:10;" d="M 3044.999667 456.998698 L 3044.999667 443.994141 L 3037.00813 443.994141 L 3037.00813 456.998698 Z M 3044.999667 456.998698 " transform="matrix(0,-0.24,0.24,0,0,841.889764)"/>
<path style="fill-rule:evenodd;comp-op:src;clip-to-self:true;fill:rgb(0%,0%,0%);fill-opacity:1;stroke-width:1.000039;stroke-linecap:round;stroke-linejoin:round;stroke:rgb(0%,0%,0%);stroke-opacity:1;comp-op:src;clip-to-self:true;stroke-miterlimit:10;" d="M 3067.004875 456.998698 L 3067.004875 443.994141 L 3058.997063 443.994141 L 3058.997063 456.998698 Z M 3067.004875 456.998698 " transform="matrix(0,-0.24,0.24,0,0,841.889764)"/>
<path style="fill-rule:evenodd;comp-op:src;clip-to-self:true;fill:rgb(0%,0%,0%);fill-opacity:1;stroke-width:1.000039;stroke-linecap:round;stroke-linejoin:round;stroke:rgb(0%,0%,0%);stroke-opacity:1;comp-op:src;clip-to-self:true;stroke-miterlimit:10;" d="M 3056.002271 456.998698 L 3056.002271 443.994141 L 3047.994458 443.994141 L 3047.994458 456.998698 Z M 3056.002271 456.998698 " transform="matrix(0,-0.24,0.24,0,0,841.889764)"/>
</g>
</svg>
