<?xml version="1.0" standalone="no"?>
<!DOCTYPE svg PUBLIC "-//W3C//DTD SVG 1.1//EN"
"http://www.w3.org/Graphics/SVG/1.1/DTD/svg11.dtd">
<svg width="44.6872" height="18.0397" viewBox="0 0 930.984 375.827" version="1.1"
xmlns="http://www.w3.org/2000/svg"
xmlns:xlink="http://www.w3.org/1999/xlink">
<g fill-rule="evenodd"><path d="M 805,4.54747e-13 L 930.984,4.54747e-13 L 930.984,78.7402 L 805,78.7402 L 805,4.54747e-13 z " style="fill-opacity:1.000000;fill:rgb(103,198,105);stroke:rgb(0,0,0);stroke-width:2"/></g>
<g fill-rule="evenodd"><path d="M 930.984,236.22 L 930.984,314.961 L 805,314.961 L 805,236.22 L 930.984,236.22 z " style="fill-opacity:1.000000;fill:rgb(115,81,255);stroke:rgb(0,0,0);stroke-width:2"/></g>
<g fill-rule="evenodd"><path d="M 4.54747e-13,236.22 L 125.984,236.22 L 125.984,314.961 L 4.54747e-13,314.961 L 4.54747e-13,236.22 z " style="fill-opacity:1.000000;fill:rgb(74,236,41);stroke:rgb(0,0,0);stroke-width:2"/></g>
<g fill-rule="evenodd"><path d="M 4.54747e-13,4.54747e-13 L 125.984,4.54747e-13 L 125.984,78.7402 L 4.54747e-13,78.7402 L 4.54747e-13,4.54747e-13 z " style="fill-opacity:1.000000;fill:rgb(205,186,171);stroke:rgb(0,0,0);stroke-width:2"/></g>
<g fill-rule="evenodd"><path d="M 576.063,312.087 L 576.063,241.22 L 709.921,241.22 L 709.921,312.087 L 576.063,312.087 z " style="fill-opacity:1.000000;fill:rgb(242,251,227);stroke:rgb(0,0,0);stroke-width:2"/></g>
<g fill-rule="evenodd"><path d="M 576.063,83.7402 L 576.063,12.874 L 709.921,12.874 L 709.921,83.7402 L 576.063,83.7402 z " style="fill-opacity:1.000000;fill:rgb(70,124,194);stroke:rgb(0,0,0);stroke-width:2"/></g>
<g fill-rule="evenodd"><path d="M 353.78,375.827 L 302.598,375.827 L 302.598,292.362 L 353.78,292.362 L 353.78,375.827 z " style="fill-opacity:1.000000;fill:rgb(84,248,27);stroke:rgb(0,0,0);stroke-width:2"/></g>
<g fill-rule="evenodd"><path d="M 428.583,375.827 L 377.402,375.827 L 377.402,292.362 L 428.583,292.362 L 428.583,375.827 z " style="fill-opacity:1.000000;fill:rgb(232,231,141);stroke:rgb(0,0,0);stroke-width:2"/></g>
<g fill-rule="evenodd"><path d="M 503.386,375.827 L 452.205,375.827 L 452.205,292.362 L 503.386,292.362 L 503.386,375.827 z " style="fill-opacity:1.000000;fill:rgb(118,90,46);stroke:rgb(0,0,0);stroke-width:2"/></g>
<g fill-rule="evenodd"><path d="M 452.205,202.598 L 452.205,119.134 L 503.386,119.134 L 503.386,202.598 L 452.205,202.598 z " style="fill-opacity:1.000000;fill:rgb(99,51,159);stroke:rgb(0,0,0);stroke-width:2"/></g>
<g fill-rule="evenodd"><path d="M 302.598,202.598 L 302.598,119.134 L 353.78,119.134 L 353.78,202.598 L 302.598,202.598 z " style="fill-opacity:1.000000;fill:rgb(201,154,102);stroke:rgb(0,0,0);stroke-width:2"/></g>
<g fill-rule="evenodd"><path d="M 377.402,202.598 L 377.402,119.134 L 428.583,119.134 L 428.583,202.598 L 377.402,202.598 z " style="fill-opacity:1.000000;fill:rgb(50,13,183);stroke:rgb(0,0,0);stroke-width:2"/></g>
</svg>
