<?xml version="1.0" standalone="no"?>
<!DOCTYPE svg PUBLIC "-//W3C//DTD SVG 1.1//EN"
"http://www.w3.org/Graphics/SVG/1.1/DTD/svg11.dtd">
<svg width="45.0652" height="18.4176" viewBox="0 0 938.858 383.701" version="1.1"
xmlns="http://www.w3.org/2000/svg"
xmlns:xlink="http://www.w3.org/1999/xlink">
<g fill-rule="evenodd"><path d="M 759.992,4.98606e-05 L 938.858,0 L 938.858,161.416 L 934.921,161.416 L 808.935,161.416 L 765.406,161.416 L 761.528,87.6753 L 761.396,82.6753 L 761.396,16.8093 L 760.525,3.93532 L 759.992,4.98606e-05 z " style="fill-opacity:0.300000;fill:rgb(103,198,105);"/></g>
<g fill-rule="evenodd"><path d="M 759.394,383.701 L 761.353,318.897 L 761.396,316.023 L 761.396,245.157 L 761.265,240.157 L 757.387,166.416 L 765.406,161.416 L 808.935,161.416 L 934.921,161.416 L 938.858,161.416 L 938.858,383.701 L 759.394,383.701 z " style="fill-opacity:0.300000;fill:rgb(115,81,255);"/></g>
<g fill-rule="evenodd"><path d="M 4.23898e-05,161.416 L 3.93513,161.416 L 129.921,161.416 L 200.675,161.416 L 209.292,183.976 L 215.028,206.535 L 221.428,240.157 L 223.931,251.416 L 219.654,273.857 L 218.228,296.297 L 218.228,318.897 L 215.606,349.33 L 207.74,379.763 L 206.383,383.701 L 4.54747e-13,383.701 L 4.23898e-05,161.416 z " style="fill-opacity:0.300000;fill:rgb(74,236,41);"/></g>
<g fill-rule="evenodd"><path d="M 261.063,5.09529e-05 L 258.409,3.93532 L 246.227,23.6203 L 236.24,43.3053 L 228.447,62.9903 L 222.847,82.6753 L 213.609,123.069 L 208.183,142.243 L 200.675,161.416 L 129.921,161.416 L 3.93513,161.416 L -0.000138638,161.416 L 4.54747e-13,0 L 261.063,5.09529e-05 z " style="fill-opacity:0.300000;fill:rgb(205,186,171);"/></g>
<g fill-rule="evenodd"><path d="M 759.394,383.701 L 575.064,383.701 L 571.611,379.763 L 559.382,363.828 L 550.648,347.893 L 545.407,331.958 L 543.66,316.023 L 543.66,296.297 L 542.794,285.077 L 540.196,273.857 L 529.802,251.416 L 533.398,245.157 L 553.922,206.535 L 564.966,189.507 L 579.999,172.479 L 586.062,166.416 L 713.857,166.416 L 757.387,166.416 L 761.265,240.157 L 761.396,245.157 L 761.396,316.023 L 761.353,318.897 L 759.394,383.701 z " style="fill-opacity:0.300000;fill:rgb(242,251,227);"/></g>
<g fill-rule="evenodd"><path d="M 458.215,4.42934e-07 L 759.992,-9.95454e-06 L 760.525,3.93532 L 761.396,16.8093 L 761.396,82.6753 L 761.528,87.6753 L 765.406,161.416 L 757.387,166.416 L 713.857,166.416 L 586.062,166.416 L 579.999,160.353 L 563.748,141.711 L 552.279,123.069 L 535.042,87.6753 L 523.572,69.0333 L 507.321,50.3913 L 473.739,16.8093 L 458.215,4.42934e-07 z " style="fill-opacity:0.300000;fill:rgb(70,124,194);"/></g>
<g fill-rule="evenodd"><path d="M 206.383,383.701 L 207.74,379.763 L 215.606,349.33 L 218.228,318.897 L 218.228,296.297 L 219.654,273.857 L 223.931,251.416 L 306.535,251.416 L 357.715,251.416 L 369.526,251.416 L 369.526,296.297 L 369.526,379.763 L 369.526,383.701 L 206.383,383.701 z " style="fill-opacity:0.300000;fill:rgb(84,248,27);"/></g>
<g fill-rule="evenodd"><path d="M 369.526,383.701 L 369.526,379.763 L 369.526,296.297 L 369.526,251.416 L 381.337,251.416 L 432.519,251.416 L 444.33,251.416 L 444.33,296.297 L 444.33,379.763 L 444.33,383.701 L 369.526,383.701 z " style="fill-opacity:0.300000;fill:rgb(232,231,141);"/></g>
<g fill-rule="evenodd"><path d="M 444.33,383.701 L 444.33,379.763 L 444.33,296.297 L 444.33,251.416 L 456.141,251.416 L 507.321,251.416 L 529.802,251.416 L 540.196,273.857 L 542.794,285.077 L 543.66,296.297 L 543.66,316.023 L 545.407,331.958 L 550.648,347.893 L 559.382,363.828 L 571.611,379.763 L 575.064,383.701 L 444.33,383.701 z " style="fill-opacity:0.300000;fill:rgb(118,90,46);"/></g>
<g fill-rule="evenodd"><path d="M 444.33,-2.50441e-06 L 458.215,4.42934e-07 L 473.739,16.8093 L 507.321,50.3913 L 523.572,69.0333 L 535.042,87.6753 L 552.279,123.069 L 563.748,141.711 L 579.999,160.353 L 586.062,166.416 L 579.999,172.479 L 564.966,189.507 L 553.922,206.535 L 533.398,245.157 L 529.802,251.416 L 507.321,251.416 L 456.141,251.416 L 444.33,251.416 L 444.33,206.535 L 444.33,123.069 L 444.33,-2.50441e-06 z " style="fill-opacity:0.300000;fill:rgb(99,51,159);"/></g>
<g fill-rule="evenodd"><path d="M 261.063,-8.22051e-06 L 369.526,8.47099e-07 L 369.526,123.069 L 369.526,206.535 L 369.526,251.416 L 357.715,251.416 L 306.535,251.416 L 223.931,251.416 L 221.428,240.157 L 215.028,206.535 L 209.292,183.976 L 200.675,161.416 L 208.183,142.243 L 213.609,123.069 L 222.847,82.6753 L 228.447,62.9903 L 236.24,43.3053 L 246.227,23.6203 L 258.409,3.93532 L 261.063,-8.22051e-06 z " style="fill-opacity:0.300000;fill:rgb(201,154,102);"/></g>
<g fill-rule="evenodd"><path d="M 369.526,8.47099e-07 L 444.33,-2.50441e-06 L 444.33,123.069 L 444.33,206.535 L 444.33,251.416 L 432.519,251.416 L 381.337,251.416 L 369.526,251.416 L 369.526,206.535 L 369.526,123.069 L 369.526,8.47099e-07 z " style="fill-opacity:0.300000;fill:rgb(50,13,183);"/></g>
<g fill-rule="evenodd"><path d="M 808.937,0.00100787 L 934.921,0.00100787 L 935.689,0.076637 L 936.428,0.300618 L 937.108,0.664343 L 937.704,1.15384 L 938.194,1.75028 L 938.558,2.43077 L 938.782,3.16913 L 938.857,3.93701 L 938.857,82.6772 L 938.782,83.445 L 938.558,84.1834 L 938.194,84.8639 L 937.704,85.4603 L 937.108,85.9498 L 936.428,86.3136 L 935.689,86.5375 L 934.921,86.6132 L 808.937,86.6132 L 808.169,86.5375 L 807.431,86.3136 L 806.75,85.9498 L 806.154,85.4603 L 805.664,84.8639 L 805.301,84.1834 L 805.077,83.445 L 805.001,82.6772 L 805.001,3.93701 L 805.077,3.16913 L 805.301,2.43077 L 805.664,1.75028 L 806.154,1.15384 L 806.75,0.664343 L 807.431,0.300618 L 808.169,0.076637 L 808.937,0.00100787 z " style="fill-opacity:0.600000;fill:rgb(103,198,105);stroke:rgb(0,0,0);stroke-width:2"/></g>
<g fill-rule="evenodd"><path d="M 938.857,240.157 L 938.857,318.898 L 938.782,319.666 L 938.558,320.404 L 938.194,321.084 L 937.704,321.681 L 937.108,322.17 L 936.428,322.534 L 935.689,322.758 L 934.921,322.834 L 808.937,322.834 L 808.169,322.758 L 807.431,322.534 L 806.75,322.17 L 806.154,321.681 L 805.664,321.084 L 805.301,320.404 L 805.077,319.666 L 805.001,318.898 L 805.001,240.157 L 805.077,239.39 L 805.301,238.651 L 805.664,237.971 L 806.154,237.374 L 806.75,236.885 L 807.431,236.521 L 808.169,236.297 L 808.937,236.221 L 934.921,236.221 L 935.689,236.297 L 936.428,236.521 L 937.108,236.885 L 937.704,237.374 L 938.194,237.971 L 938.558,238.651 L 938.782,239.39 L 938.857,240.157 z " style="fill-opacity:0.600000;fill:rgb(115,81,255);stroke:rgb(0,0,0);stroke-width:2"/></g>
<g fill-rule="evenodd"><path d="M 3.93701,236.221 L 129.921,236.221 L 130.689,236.297 L 131.428,236.521 L 132.108,236.885 L 132.704,237.374 L 133.194,237.971 L 133.558,238.651 L 133.782,239.39 L 133.857,240.157 L 133.857,318.898 L 133.782,319.666 L 133.558,320.404 L 133.194,321.084 L 132.704,321.681 L 132.108,322.17 L 131.428,322.534 L 130.689,322.758 L 129.921,322.834 L 3.93701,322.834 L 3.16913,322.758 L 2.43077,322.534 L 1.75028,322.17 L 1.15384,321.681 L 0.664343,321.084 L 0.300618,320.404 L 0.076637,319.666 L 0.00100787,318.898 L 0.00100787,240.157 L 0.076637,239.39 L 0.300618,238.651 L 0.664343,237.971 L 1.15384,237.374 L 1.75028,236.885 L 2.43077,236.521 L 3.16913,236.297 L 3.93701,236.221 z " style="fill-opacity:0.600000;fill:rgb(74,236,41);stroke:rgb(0,0,0);stroke-width:2"/></g>
<g fill-rule="evenodd"><path d="M 3.93701,0.00100787 L 129.921,0.00100787 L 130.689,0.076637 L 131.428,0.300618 L 132.108,0.664343 L 132.704,1.15384 L 133.194,1.75028 L 133.558,2.43077 L 133.782,3.16913 L 133.857,3.93701 L 133.857,82.6772 L 133.782,83.445 L 133.558,84.1834 L 133.194,84.8639 L 132.704,85.4603 L 132.108,85.9498 L 131.428,86.3136 L 130.689,86.5375 L 129.921,86.6132 L 3.93701,86.6132 L 3.16913,86.5375 L 2.43077,86.3136 L 1.75028,85.9498 L 1.15384,85.4603 L 0.664343,84.8639 L 0.300618,84.1834 L 0.076637,83.445 L 0.00100787,82.6772 L 0.00100787,3.93701 L 0.076637,3.16913 L 0.300618,2.43077 L 0.664343,1.75028 L 1.15384,1.15384 L 1.75028,0.664343 L 2.43077,0.300618 L 3.16913,0.076637 L 3.93701,0.00100787 z " style="fill-opacity:0.600000;fill:rgb(205,186,171);stroke:rgb(0,0,0);stroke-width:2"/></g>
<g fill-rule="evenodd"><path d="M 576.064,316.024 L 576.064,245.157 L 576.14,244.39 L 576.364,243.651 L 576.727,242.971 L 577.217,242.374 L 577.813,241.885 L 578.494,241.521 L 579.232,241.297 L 580,241.221 L 713.858,241.221 L 714.626,241.297 L 715.365,241.521 L 716.045,241.885 L 716.641,242.374 L 717.131,242.971 L 717.495,243.651 L 717.719,244.39 L 717.794,245.157 L 717.794,316.024 L 717.719,316.791 L 717.495,317.53 L 717.131,318.21 L 716.641,318.807 L 716.045,319.296 L 715.365,319.66 L 714.626,319.884 L 713.858,319.96 L 580,319.96 L 579.232,319.884 L 578.494,319.66 L 577.813,319.296 L 577.217,318.807 L 576.727,318.21 L 576.364,317.53 L 576.14,316.791 L 576.064,316.024 z " style="fill-opacity:0.600000;fill:rgb(242,251,227);stroke:rgb(0,0,0);stroke-width:2"/></g>
<g fill-rule="evenodd"><path d="M 576.064,87.6772 L 576.064,16.811 L 576.14,16.0431 L 576.364,15.3048 L 576.727,14.6243 L 577.217,14.0279 L 577.813,13.5384 L 578.494,13.1746 L 579.232,12.9507 L 580,12.875 L 713.858,12.875 L 714.626,12.9507 L 715.365,13.1746 L 716.045,13.5384 L 716.641,14.0279 L 717.131,14.6243 L 717.495,15.3048 L 717.719,16.0431 L 717.794,16.811 L 717.794,87.6772 L 717.719,88.445 L 717.495,89.1834 L 717.131,89.8639 L 716.641,90.4603 L 716.045,90.9498 L 715.365,91.3136 L 714.626,91.5375 L 713.858,91.6132 L 580,91.6132 L 579.232,91.5375 L 578.494,91.3136 L 577.813,90.9498 L 577.217,90.4603 L 576.727,89.8639 L 576.364,89.1834 L 576.14,88.445 L 576.064,87.6772 z " style="fill-opacity:0.600000;fill:rgb(70,124,194);stroke:rgb(0,0,0);stroke-width:2"/></g>
<g fill-rule="evenodd"><path d="M 357.717,383.7 L 306.535,383.7 L 305.768,383.624 L 305.029,383.4 L 304.349,383.036 L 303.752,382.547 L 303.263,381.951 L 302.899,381.27 L 302.675,380.532 L 302.599,379.764 L 302.599,296.299 L 302.675,295.531 L 302.899,294.793 L 303.263,294.112 L 303.752,293.516 L 304.349,293.027 L 305.029,292.663 L 305.768,292.439 L 306.535,292.363 L 357.717,292.363 L 358.484,292.439 L 359.223,292.663 L 359.903,293.027 L 360.5,293.516 L 360.989,294.112 L 361.353,294.793 L 361.577,295.531 L 361.653,296.299 L 361.653,379.764 L 361.577,380.532 L 361.353,381.27 L 360.989,381.951 L 360.5,382.547 L 359.903,383.036 L 359.223,383.4 L 358.484,383.624 L 357.717,383.7 z " style="fill-opacity:0.600000;fill:rgb(84,248,27);stroke:rgb(0,0,0);stroke-width:2"/></g>
<g fill-rule="evenodd"><path d="M 432.52,383.7 L 381.339,383.7 L 380.571,383.624 L 379.832,383.4 L 379.152,383.036 L 378.555,382.547 L 378.066,381.951 L 377.702,381.27 L 377.478,380.532 L 377.403,379.764 L 377.403,296.299 L 377.478,295.531 L 377.702,294.793 L 378.066,294.112 L 378.555,293.516 L 379.152,293.027 L 379.832,292.663 L 380.571,292.439 L 381.339,292.363 L 432.52,292.363 L 433.288,292.439 L 434.026,292.663 L 434.706,293.027 L 435.303,293.516 L 435.792,294.112 L 436.156,294.793 L 436.38,295.531 L 436.456,296.299 L 436.456,379.764 L 436.38,380.532 L 436.156,381.27 L 435.792,381.951 L 435.303,382.547 L 434.706,383.036 L 434.026,383.4 L 433.288,383.624 L 432.52,383.7 z " style="fill-opacity:0.600000;fill:rgb(232,231,141);stroke:rgb(0,0,0);stroke-width:2"/></g>
<g fill-rule="evenodd"><path d="M 507.323,383.7 L 456.142,383.7 L 455.374,383.624 L 454.635,383.4 L 453.955,383.036 L 453.359,382.547 L 452.869,381.951 L 452.505,381.27 L 452.281,380.532 L 452.206,379.764 L 452.206,296.299 L 452.281,295.531 L 452.505,294.793 L 452.869,294.112 L 453.359,293.516 L 453.955,293.027 L 454.635,292.663 L 455.374,292.439 L 456.142,292.363 L 507.323,292.363 L 508.091,292.439 L 508.829,292.663 L 509.51,293.027 L 510.106,293.516 L 510.595,294.112 L 510.959,294.793 L 511.183,295.531 L 511.259,296.299 L 511.259,379.764 L 511.183,380.532 L 510.959,381.27 L 510.595,381.951 L 510.106,382.547 L 509.51,383.036 L 508.829,383.4 L 508.091,383.624 L 507.323,383.7 z " style="fill-opacity:0.600000;fill:rgb(118,90,46);stroke:rgb(0,0,0);stroke-width:2"/></g>
<g fill-rule="evenodd"><path d="M 452.206,206.535 L 452.206,123.071 L 452.281,122.303 L 452.505,121.565 L 452.869,120.884 L 453.359,120.288 L 453.955,119.798 L 454.635,119.434 L 455.374,119.21 L 456.142,119.135 L 507.323,119.135 L 508.091,119.21 L 508.829,119.434 L 509.51,119.798 L 510.106,120.288 L 510.595,120.884 L 510.959,121.565 L 511.183,122.303 L 511.259,123.071 L 511.259,206.535 L 511.183,207.303 L 510.959,208.042 L 510.595,208.722 L 510.106,209.319 L 509.51,209.808 L 508.829,210.172 L 508.091,210.396 L 507.323,210.471 L 456.142,210.471 L 455.374,210.396 L 454.635,210.172 L 453.955,209.808 L 453.359,209.319 L 452.869,208.722 L 452.505,208.042 L 452.281,207.303 L 452.206,206.535 z " style="fill-opacity:0.600000;fill:rgb(99,51,159);stroke:rgb(0,0,0);stroke-width:2"/></g>
<g fill-rule="evenodd"><path d="M 302.599,206.535 L 302.599,123.071 L 302.675,122.303 L 302.899,121.565 L 303.263,120.884 L 303.752,120.288 L 304.349,119.798 L 305.029,119.434 L 305.768,119.21 L 306.535,119.135 L 357.717,119.135 L 358.484,119.21 L 359.223,119.434 L 359.903,119.798 L 360.5,120.288 L 360.989,120.884 L 361.353,121.565 L 361.577,122.303 L 361.653,123.071 L 361.653,206.535 L 361.577,207.303 L 361.353,208.042 L 360.989,208.722 L 360.5,209.319 L 359.903,209.808 L 359.223,210.172 L 358.484,210.396 L 357.717,210.471 L 306.535,210.471 L 305.768,210.396 L 305.029,210.172 L 304.349,209.808 L 303.752,209.319 L 303.263,208.722 L 302.899,208.042 L 302.675,207.303 L 302.599,206.535 z " style="fill-opacity:0.600000;fill:rgb(201,154,102);stroke:rgb(0,0,0);stroke-width:2"/></g>
<g fill-rule="evenodd"><path d="M 377.403,206.535 L 377.403,123.071 L 377.478,122.303 L 377.702,121.565 L 378.066,120.884 L 378.555,120.288 L 379.152,119.798 L 379.832,119.434 L 380.571,119.21 L 381.339,119.135 L 432.52,119.135 L 433.288,119.21 L 434.026,119.434 L 434.706,119.798 L 435.303,120.288 L 435.792,120.884 L 436.156,121.565 L 436.38,122.303 L 436.456,123.071 L 436.456,206.535 L 436.38,207.303 L 436.156,208.042 L 435.792,208.722 L 435.303,209.319 L 434.706,209.808 L 434.026,210.172 L 433.288,210.396 L 432.52,210.471 L 381.339,210.471 L 380.571,210.396 L 379.832,210.172 L 379.152,209.808 L 378.555,209.319 L 378.066,208.722 L 377.702,208.042 L 377.478,207.303 L 377.403,206.535 z " style="fill-opacity:0.600000;fill:rgb(50,13,183);stroke:rgb(0,0,0);stroke-width:2"/></g>
<g fill-rule="evenodd"><path d="M 808.937,82.6772 L 808.937,3.93701 L 934.921,3.93701 L 934.921,82.6772 L 808.937,82.6772 z " style="fill-opacity:1.000000;fill:rgb(103,198,105);stroke:rgb(0,0,0);stroke-width:2"/></g>
<g fill-rule="evenodd"><path d="M 808.937,318.898 L 808.937,240.157 L 934.921,240.157 L 934.921,318.898 L 808.937,318.898 z " style="fill-opacity:1.000000;fill:rgb(115,81,255);stroke:rgb(0,0,0);stroke-width:2"/></g>
<g fill-rule="evenodd"><path d="M 3.93701,318.898 L 3.93701,240.157 L 129.921,240.157 L 129.921,318.898 L 3.93701,318.898 z " style="fill-opacity:1.000000;fill:rgb(74,236,41);stroke:rgb(0,0,0);stroke-width:2"/></g>
<g fill-rule="evenodd"><path d="M 3.93701,82.6772 L 3.93701,3.93701 L 129.921,3.93701 L 129.921,82.6772 L 3.93701,82.6772 z " style="fill-opacity:1.000000;fill:rgb(205,186,171);stroke:rgb(0,0,0);stroke-width:2"/></g>
<g fill-rule="evenodd"><path d="M 580,316.024 L 580,245.157 L 713.858,245.157 L 713.858,316.024 L 580,316.024 z " style="fill-opacity:1.000000;fill:rgb(242,251,227);stroke:rgb(0,0,0);stroke-width:2"/></g>
<g fill-rule="evenodd"><path d="M 580,87.6772 L 580,16.811 L 713.858,16.811 L 713.858,87.6772 L 580,87.6772 z " style="fill-opacity:1.000000;fill:rgb(70,124,194);stroke:rgb(0,0,0);stroke-width:2"/></g>
<g fill-rule="evenodd"><path d="M 306.535,379.764 L 306.535,296.299 L 357.717,296.299 L 357.717,379.764 L 306.535,379.764 z " style="fill-opacity:1.000000;fill:rgb(84,248,27);stroke:rgb(0,0,0);stroke-width:2"/></g>
<g fill-rule="evenodd"><path d="M 381.339,379.764 L 381.339,296.299 L 432.52,296.299 L 432.52,379.764 L 381.339,379.764 z " style="fill-opacity:1.000000;fill:rgb(232,231,141);stroke:rgb(0,0,0);stroke-width:2"/></g>
<g fill-rule="evenodd"><path d="M 456.142,379.764 L 456.142,296.299 L 507.323,296.299 L 507.323,379.764 L 456.142,379.764 z " style="fill-opacity:1.000000;fill:rgb(118,90,46);stroke:rgb(0,0,0);stroke-width:2"/></g>
<g fill-rule="evenodd"><path d="M 456.142,206.535 L 456.142,123.071 L 507.323,123.071 L 507.323,206.535 L 456.142,206.535 z " style="fill-opacity:1.000000;fill:rgb(99,51,159);stroke:rgb(0,0,0);stroke-width:2"/></g>
<g fill-rule="evenodd"><path d="M 306.535,206.535 L 306.535,123.071 L 357.717,123.071 L 357.717,206.535 L 306.535,206.535 z " style="fill-opacity:1.000000;fill:rgb(201,154,102);stroke:rgb(0,0,0);stroke-width:2"/></g>
<g fill-rule="evenodd"><path d="M 381.339,206.535 L 381.339,123.071 L 432.52,123.071 L 432.52,206.535 L 381.339,206.535 z " style="fill-opacity:1.000000;fill:rgb(50,13,183);stroke:rgb(0,0,0);stroke-width:2"/></g>
</svg>
