<?xml version="1.0" standalone="no"?>
 <!DOCTYPE svg PUBLIC "-//W3C//DTD SVG 1.1//EN" 
 "http://www.w3.org/Graphics/SVG/1.1/DTD/svg11.dtd"> 
<svg xmlns="http://www.w3.org/2000/svg" version="1.1" 
    width="29.7002cm" height="21.0007cm" viewBox="0 0 116930 82680 ">
<title>SVG Picture created as touchsense6-B.Mask.svg date 2019/02/28 20:33:32 </title>
  <desc>Picture generated by PCBNEW </desc>
<g style="fill:#000000; fill-opacity:1;stroke:#000000; stroke-opacity:1;
stroke-linecap:round; stroke-linejoin:round; "
 transform="translate(0 0) scale(1 1)">
</g>
<g style="fill:#000000; fill-opacity:0.0; 
stroke:#000000; stroke-width:-0.000393701; stroke-opacity:1; 
stroke-linecap:round; stroke-linejoin:round;">
</g>
<g style="fill:#000000; fill-opacity:1.0; 
stroke:#000000; stroke-width:0; stroke-opacity:1; 
stroke-linecap:round; stroke-linejoin:round;">
<polyline style="fill-rule:evenodd;"
points="103413,16521
103363,16526
103315,16540
103299,16546
103240,16577
103188,16620
103145,16671
103114,16730
103114,16730
103094,16795
103090,16844
103090,17655
103094,17704
103106,17741
103114,17769
103145,17828
103188,17879
103240,17922
103299,17953
103315,17959
103363,17973
103430,17979
103430,17979
103452,17977
103496,17973
103544,17959
103560,17953
103619,17922
103671,17879
103714,17828
103745,17769
103750,17752
103765,17704
103770,17655
103769,16844
103765,16795
103745,16730
103745,16730
103714,16671
103671,16620
103619,16577
103560,16546
103544,16540
103496,16526
103430,16520
103429,16520
103413,16521
" /> 
<polyline style="fill-rule:evenodd;"
points="102413,16521
102363,16526
102315,16540
102299,16546
102240,16577
102188,16620
102145,16671
102114,16730
102114,16730
102094,16795
102090,16844
102090,17655
102094,17704
102106,17741
102114,17769
102145,17828
102188,17879
102240,17922
102299,17953
102315,17959
102363,17973
102430,17979
102430,17979
102452,17977
102496,17973
102544,17959
102560,17953
102619,17922
102671,17879
102714,17828
102745,17769
102750,17752
102765,17704
102770,17655
102769,16844
102765,16795
102745,16730
102745,16730
102714,16671
102671,16620
102619,16577
102560,16546
102544,16540
102496,16526
102430,16520
102429,16520
102413,16521
" /> 
<polyline style="fill-rule:evenodd;"
points="101413,16521
101363,16526
101315,16540
101299,16546
101240,16577
101188,16620
101145,16671
101114,16730
101114,16730
101094,16795
101090,16844
101090,17655
101094,17704
101106,17741
101114,17769
101145,17828
101188,17879
101240,17922
101299,17953
101315,17959
101363,17973
101430,17979
101430,17979
101452,17977
101496,17973
101544,17959
101560,17953
101619,17922
101671,17879
101714,17828
101745,17769
101750,17752
101765,17704
101770,17655
101769,16844
101765,16795
101745,16730
101745,16730
101714,16671
101671,16620
101619,16577
101560,16546
101544,16540
101496,16526
101430,16520
101429,16520
101413,16521
" /> 
<polyline style="fill-rule:evenodd;"
points="100090,17978
100770,17978
100770,16521
100090,16521
100090,17978
" /> 
<polyline style="fill-rule:evenodd;"
points="98549,16052
98401,16081
98227,16153
98071,16258
97938,16391
97833,16547
97761,16721
97725,16905
97725,17094
97761,17278
97833,17452
97938,17608
98071,17741
98227,17846
98401,17918
98549,17947
98585,17954
98774,17954
98810,17947
98958,17918
99132,17846
99288,17741
99421,17608
99526,17452
99598,17278
99634,17094
99634,16905
99598,16721
99526,16547
99421,16391
99288,16258
99132,16153
98958,16081
98810,16052
98774,16045
98585,16045
98549,16052
" /> 
<polyline style="fill-rule:evenodd;"
points="105049,16052
104901,16081
104727,16153
104571,16258
104438,16391
104333,16547
104261,16721
104225,16905
104225,17094
104261,17278
104333,17452
104438,17608
104571,17741
104727,17846
104901,17918
105049,17947
105085,17954
105274,17954
105310,17947
105458,17918
105632,17846
105788,17741
105921,17608
106026,17452
106098,17278
106134,17094
106134,16905
106098,16721
106026,16547
105921,16391
105788,16258
105632,16153
105458,16081
105310,16052
105274,16045
105085,16045
105049,16052
" /> 
<polyline style="fill-rule:evenodd;"
points="101348,9006
101183,9039
100717,9232
100300,9511
100298,9512
99942,9868
99942,9868
99662,10287
99469,10753
99370,11247
99370,11752
99469,12246
99662,12712
99941,13129
99942,13131
100298,13487
100298,13487
100717,13767
101183,13960
101348,13993
101677,14059
102182,14059
102511,13993
102676,13960
103142,13767
103561,13487
103561,13487
103917,13131
103918,13129
104197,12712
104390,12246
104489,11752
104489,11247
104390,10753
104197,10287
103917,9868
103917,9868
103561,9512
103559,9511
103142,9232
102676,9039
102511,9006
102182,8940
101677,8940
101348,9006
" /> 
</g> 
</svg>
