<?xml version="1.0" standalone="no"?>
 <!DOCTYPE svg PUBLIC "-//W3C//DTD SVG 1.1//EN" 
 "http://www.w3.org/Graphics/SVG/1.1/DTD/svg11.dtd"> 
<svg xmlns="http://www.w3.org/2000/svg" version="1.1" 
    width="29.7002cm" height="21.0007cm" viewBox="0 0 116930 82680 ">
<title>SVG Picture created as touchsense6-F.SilkS.svg date 2019/02/28 20:33:32 </title>
  <desc>Picture generated by PCBNEW </desc>
<g style="fill:#000000; fill-opacity:1;stroke:#000000; stroke-opacity:1;
stroke-linecap:round; stroke-linejoin:round; "
 transform="translate(0 0) scale(1 1)">
</g>
<g style="fill:#000000; fill-opacity:0.0; 
stroke:#000000; stroke-width:-0.000393701; stroke-opacity:1; 
stroke-linecap:round; stroke-linejoin:round;">
</g>
<g style="fill:#000000; fill-opacity:0.0; 
stroke:#000000; stroke-width:59.0551; stroke-opacity:1; 
stroke-linecap:round; stroke-linejoin:round;">
<path d="M105180 16606
L105180 17393
" />
<path d="M105573 17000
L104786 17000
" />
<circle cx="105180" cy="17000" r="1003.94" /> 
<path d="M99001 15393
L99001 14606
" />
<path d="M99808 14606
L99808 15393
" />
<path d="M103833 14606
L103833 15393
" />
<path d="M103026 15393
L103026 14606
" />
<path d="M100106 14631
L100106 15418
" />
<path d="M100953 15418
L100953 14631
" />
<circle cx="102399" cy="15607.5" r="39.3701" /> 
<path d="M102300 15351
L102300 15548
" />
<path d="M101159 15351
L102300 15351
" />
<path d="M101159 15548
L101159 15351
" />
<path d="M102300 15548
L101159 15548
" />
<path d="M98680 16606
L98680 17393
" />
<path d="M99073 17000
L98286 17000
" />
<circle cx="98680" cy="17000" r="1003.94" /> 
<path d="M99819 16538
L100430 16538
" />
<path d="M99819 17050
L99819 16538
" />
<circle cx="101930" cy="11500" r="2637.8" /> 
</g>
<g style="fill:#000000; fill-opacity:0.0; 
stroke:#000000; stroke-width:39.3701; stroke-opacity:1; 
stroke-linecap:round; stroke-linejoin:round;">
<circle cx="105180" cy="17000" r="935.039" /> 
<circle cx="98680" cy="17000" r="935.039" /> 
<polyline fill="none;"
points="100750,16541
100109,16541
100109,17958
100750,17958
100750,16541
" /> 
<path d="M101750 16861
L101750 17638
" />
<path d="M101109 16861
L101109 17638
" />
<path d="M101110 17638.3 A320.315 320.315 0.0 0 0 101750 17638.3 " />
<path d="M101750 16861.7 A320.315 320.315 0.0 0 0 101110 16861.7 " />
<path d="M102750 16861
L102750 17638
" />
<path d="M102109 16861
L102109 17638
" />
<path d="M102110 17638.3 A320.315 320.315 0.0 0 0 102750 17638.3 " />
<path d="M102750 16861.7 A320.315 320.315 0.0 0 0 102110 16861.7 " />
<path d="M103750 16861
L103750 17638
" />
<path d="M103109 16861
L103109 17638
" />
<path d="M103110 17638.3 A320.315 320.315 0.0 0 0 103750 17638.3 " />
<path d="M103750 16861.7 A320.315 320.315 0.0 0 0 103110 16861.7 " />
<circle cx="101930" cy="11500" r="2539.37" /> 
</g>
<g style="fill:#000000; fill-opacity:0.0; 
stroke:#000000; stroke-width:59.0551; stroke-opacity:1; 
stroke-linecap:round; stroke-linejoin:round;">
<path d="M104320 17949
L104301 17893
L104301 17799
L104320 17762
L104339 17743
L104376 17724
L104414 17724
L104451 17743
L104470 17762
L104489 17799
L104508 17874
L104526 17912
L104545 17931
L104583 17949
L104620 17949
L104658 17931
L104676 17912
L104695 17874
L104695 17781
L104676 17724
" />
<path d="M104301 17350
L104301 17575
" />
<path d="M104301 17462
L104695 17462
L104639 17500
L104601 17537
L104583 17575
" />
<path d="M99964 14765
L99945 14784
L99926 14840
L99926 14878
L99945 14934
L99983 14971
L100020 14990
L100095 15009
L100151 15009
L100226 14990
L100264 14971
L100301 14934
L100320 14878
L100320 14840
L100301 14784
L100283 14765
" />
<path d="M99926 14390
L99926 14615
" />
<path d="M99926 14503
L100320 14503
L100264 14540
L100226 14578
L100208 14615
" />
<path d="M104089 15065
L104070 15084
L104051 15140
L104051 15178
L104070 15234
L104108 15271
L104145 15290
L104220 15309
L104276 15309
L104351 15290
L104389 15271
L104426 15234
L104445 15178
L104445 15140
L104426 15084
L104408 15065
" />
<path d="M104408 14915
L104426 14896
L104445 14859
L104445 14765
L104426 14728
L104408 14709
L104370 14690
L104333 14690
L104276 14709
L104051 14934
L104051 14690
" />
<path d="M99551 15540
L99739 15671
" />
<path d="M99551 15765
L99945 15765
L99945 15615
L99926 15578
L99908 15559
L99870 15540
L99814 15540
L99776 15559
L99758 15578
L99739 15615
L99739 15765
" />
<path d="M99551 15165
L99551 15390
" />
<path d="M99551 15278
L99945 15278
L99889 15315
L99851 15353
L99833 15390
" />
<path d="M102995 15749
L102676 15749
L102639 15731
L102620 15712
L102601 15674
L102601 15599
L102620 15562
L102639 15543
L102676 15524
L102995 15524
" />
<path d="M102601 15131
L102601 15356
" />
<path d="M102601 15243
L102995 15243
L102939 15281
L102901 15318
L102883 15356
" />
<path d="M97820 17949
L97801 17893
L97801 17799
L97820 17762
L97839 17743
L97876 17724
L97914 17724
L97951 17743
L97970 17762
L97989 17799
L98008 17874
L98026 17912
L98045 17931
L98083 17949
L98120 17949
L98158 17931
L98176 17912
L98195 17874
L98195 17781
L98176 17724
" />
<path d="M97801 17350
L97801 17575
" />
<path d="M97801 17462
L98195 17462
L98139 17500
L98101 17537
L98083 17575
" />
<path d="M103951 17540
L104345 17540
L104345 17390
L104326 17353
L104308 17334
L104270 17315
L104214 17315
L104176 17334
L104158 17353
L104139 17390
L104139 17540
" />
<path d="M103951 16940
L103951 17165
" />
<path d="M103951 17053
L104345 17053
L104289 17090
L104251 17128
L104233 17165
" />
<path d="M101751 10540
L102145 10540
L102145 10390
L102126 10353
L102108 10334
L102070 10315
L102014 10315
L101976 10334
L101958 10353
L101939 10390
L101939 10540
" />
<path d="M102108 10165
L102126 10146
L102145 10109
L102145 10015
L102126 9978
L102108 9959
L102070 9940
L102033 9940
L101976 9959
L101751 10184
L101751 9940
" />
</g> 
</svg>
