<?xml version="1.0" standalone="no"?>
 <!DOCTYPE svg PUBLIC "-//W3C//DTD SVG 1.1//EN" 
 "http://www.w3.org/Graphics/SVG/1.1/DTD/svg11.dtd"> 
<svg xmlns="http://www.w3.org/2000/svg" version="1.1" 
    width="29.7002cm" height="21.0007cm" viewBox="0 0 116930 82680 ">
<title>SVG Picture created as touchsense6-F.Cu.svg date 2019/02/28 20:33:32 </title>
  <desc>Picture generated by PCBNEW </desc>
<g style="fill:#000000; fill-opacity:1;stroke:#000000; stroke-opacity:1;
stroke-linecap:round; stroke-linejoin:round; "
 transform="translate(0 0) scale(1 1)">
</g>
<g style="fill:#000000; fill-opacity:0.0; 
stroke:#000000; stroke-width:-0.000393701; stroke-opacity:1; 
stroke-linecap:round; stroke-linejoin:round;">
</g>
<g style="fill:#000000; fill-opacity:1.0; 
stroke:#000000; stroke-width:0; stroke-opacity:1; 
stroke-linecap:round; stroke-linejoin:round;">
<circle cx="105180" cy="17000" r="954.724" /> 
</g>
<g style="fill:#000000; fill-opacity:1.0; 
stroke:#000000; stroke-width:39.3701; stroke-opacity:1; 
stroke-linecap:round; stroke-linejoin:round;">
</g>
<g style="fill:#000000; fill-opacity:1.0; 
stroke:#000000; stroke-width:0; stroke-opacity:1; 
stroke-linecap:round; stroke-linejoin:round;">
<polyline style="fill-rule:evenodd;"
points="99719,14212
99090,14212
99090,14606
99719,14606
99719,14212
" /> 
<polyline style="fill-rule:evenodd;"
points="99719,15393
99090,15393
99090,15787
99719,15787
99719,15393
" /> 
<polyline style="fill-rule:evenodd;"
points="103115,15787
103744,15787
103744,15393
103115,15393
103115,15787
" /> 
<polyline style="fill-rule:evenodd;"
points="103115,14606
103744,14606
103744,14212
103115,14212
103115,14606
" /> 
<polyline style="fill-rule:evenodd;"
points="100195,15773
100864,15773
100864,15418
100195,15418
100195,15773
" /> 
<polyline style="fill-rule:evenodd;"
points="100195,14631
100864,14631
100864,14276
100195,14276
100195,14631
" /> 
<polyline style="fill-rule:evenodd;"
points="101976,16091
102231,16091
102231,15674
101976,15674
101976,16091
" /> 
<polyline style="fill-rule:evenodd;"
points="101602,16091
101857,16091
101857,15674
101602,15674
101602,16091
" /> 
<polyline style="fill-rule:evenodd;"
points="101228,16091
101483,16091
101483,15674
101228,15674
101228,16091
" /> 
<polyline style="fill-rule:evenodd;"
points="101228,15225
101483,15225
101483,14808
101228,14808
101228,15225
" /> 
<polyline style="fill-rule:evenodd;"
points="101976,15225
102231,15225
102231,14808
101976,14808
101976,15225
" /> 
<polyline style="fill-rule:evenodd;"
points="101602,15225
101857,15225
101857,14808
101602,14808
101602,15225
" /> 
<circle cx="98680" cy="17000" r="954.724" /> 
</g>
<g style="fill:#000000; fill-opacity:1.0; 
stroke:#000000; stroke-width:39.3701; stroke-opacity:1; 
stroke-linecap:round; stroke-linejoin:round;">
</g>
<g style="fill:#000000; fill-opacity:1.0; 
stroke:#000000; stroke-width:0; stroke-opacity:1; 
stroke-linecap:round; stroke-linejoin:round;">
<polyline style="fill-rule:evenodd;"
points="100770,16521
100090,16521
100090,17978
100770,17978
100770,16521
" /> 
</g>
<g style="fill:#000000; fill-opacity:1.0; 
stroke:#000000; stroke-width:680; stroke-opacity:1; 
stroke-linecap:round; stroke-linejoin:round;">
</g>
<g style="fill:#000000; fill-opacity:0.0; 
stroke:#000000; stroke-width:680; stroke-opacity:1; 
stroke-linecap:round; stroke-linejoin:round;">
<path d="M101430 16861
L101430 17638
" />
<path d="M102430 16861
L102430 17638
" />
<path d="M103430 16861
L103430 17638
" />
</g>
<g style="fill:#000000; fill-opacity:1.0; 
stroke:#000000; stroke-width:0; stroke-opacity:1; 
stroke-linecap:round; stroke-linejoin:round;">
<circle cx="101930" cy="11500" r="2559.06" /> 
</g>
<g style="fill:#000000; fill-opacity:1.0; 
stroke:#000000; stroke-width:39.3701; stroke-opacity:1; 
stroke-linecap:round; stroke-linejoin:round;">
</g>
<g style="fill:#000000; fill-opacity:1.0; 
stroke:#000000; stroke-width:137.795; stroke-opacity:1; 
stroke-linecap:round; stroke-linejoin:round;">
</g>
<g style="fill:#000000; fill-opacity:0.0; 
stroke:#000000; stroke-width:137.795; stroke-opacity:1; 
stroke-linecap:round; stroke-linejoin:round;">
<path d="M99405 14409
L99405 14025
" />
<path d="M99405 14025
L101930 11500
" />
<path d="M100530 15595
L100530 15534
" />
<path d="M100530 15534
L99405 14409
" />
<path d="M102104 15883
L101980 15550
" />
<path d="M100787 15343
L100405 15565
" />
<path d="M101780 15350
L100787 15343
" />
<path d="M101980 15550
L101780 15350
" />
</g>
<g style="fill:#000000; fill-opacity:0.0; 
stroke:#000000; stroke-width:157.48; stroke-opacity:1; 
stroke-linecap:round; stroke-linejoin:round;">
<path d="M101730 15016
L101780 14600
" />
<path d="M102399 14560
L103430 15590
" />
<path d="M101780 14600
L101930 14550
" />
<path d="M103430 15590
L103430 17250
" />
<path d="M101930 14550
L102399 14560
" />
<path d="M101355 16850
L101355 15883
" />
<path d="M102680 15600
L102680 16650
" />
<path d="M102680 16650
L102430 17250
" />
<path d="M102104 15016
L102680 15600
" />
</g>
<g style="fill:#000000; fill-opacity:0.0; 
stroke:#000000; stroke-width:137.795; stroke-opacity:1; 
stroke-linecap:round; stroke-linejoin:round;">
<path d="M101355 15016
L101067 15016
" />
<path d="M101067 15016
L100530 14454
" />
</g>
<g style="fill:#000000; fill-opacity:1.0; 
stroke:#000000; stroke-width:106.299; stroke-opacity:1; 
stroke-linecap:round; stroke-linejoin:round;">
<polyline style="fill-rule:evenodd;"
points="101436,8173
100950,8262
100478,8409
100027,8611
99604,8866
99214,9170
98864,9518
98558,9906
98301,10328
98096,10778
97947,11249
97856,11735
97823,12232
97823,12250
97823,16339
97842,16312
97992,16162
98169,16044
98365,15962
98573,15921
98786,15921
98994,15962
99190,16044
99367,16162
99517,16312
99635,16489
99717,16685
99758,16893
99758,17106
99717,17314
99635,17510
99517,17687
99367,17837
99340,17856
99994,17856
99994,17301
100018,17277
100402,17277
100402,17285
100457,17285
100457,17277
100841,17277
100865,17301
100865,17856
101020,17856
100999,17816
100972,17729
100965,17661
100965,16838
100972,16770
100999,16683
101042,16602
101100,16531
101124,16512
100865,16512
100865,17198
100841,17222
100457,17222
100457,16449
100402,16449
100402,17222
100018,17222
99994,17198
99994,16512
99998,16493
100005,16476
100015,16460
100029,16447
100044,16436
100062,16429
100080,16425
100378,16425
100402,16449
100457,16449
100481,16425
100779,16425
100797,16429
100815,16436
100830,16447
100844,16460
100854,16476
100861,16493
100865,16512
101124,16512
101152,16489
101152,16190
101139,16179
101124,16160
101112,16139
101105,16116
101103,16091
101103,15674
101105,15650
101112,15626
101124,15605
101139,15586
101158,15570
101180,15559
101203,15552
101228,15549
101483,15549
101508,15552
101531,15559
101553,15570
101569,15584
101574,15582
101592,15578
101678,15578
101702,15602
101702,15855
101694,15855
101694,15910
101702,15910
101702,16163
101678,16187
101592,16187
101574,16183
101569,16181
101558,16191
101558,16415
101608,16430
101689,16473
101759,16531
101817,16602
101860,16683
101887,16770
101894,16838
101894,17661
101887,17729
101860,17816
101839,17856
102020,17856
101999,17816
101972,17729
101965,17661
101965,16838
101972,16770
101999,16683
102042,16602
102100,16531
102170,16473
102251,16430
102339,16404
102430,16395
102477,16400
102477,15683
102148,15350
102053,15350
102112,15409
102121,15417
102131,15430
102141,15442
102142,15445
102144,15448
102151,15462
102159,15475
102162,15488
102185,15549
102231,15549
102256,15552
102279,15559
102301,15570
102320,15586
102335,15605
102347,15626
102354,15650
102356,15674
102356,16091
102354,16116
102347,16139
102335,16160
102320,16179
102301,16195
102279,16206
102256,16213
102231,16216
101976,16216
101951,16213
101928,16206
101906,16195
101890,16181
101885,16183
101867,16187
101781,16187
101757,16163
101757,15910
101765,15910
101765,15855
101757,15855
101757,15602
101758,15601
101699,15542
100989,15537
100989,15773
100986,15797
100979,15820
100968,15842
100952,15861
100933,15876
100912,15888
100888,15895
100864,15897
100195,15897
100171,15895
100147,15888
100126,15876
100107,15861
100091,15842
100080,15820
100073,15797
100070,15773
100070,15641
99815,15641
99815,15796
99811,15815
99804,15832
99794,15848
99780,15861
99765,15872
99747,15879
99729,15883
99456,15883
99432,15859
99432,15617
99377,15617
99377,15859
99353,15883
99080,15883
99062,15879
99044,15872
99029,15861
99015,15848
99005,15832
98998,15815
98994,15796
98994,15641
99018,15617
99377,15617
99432,15617
99791,15617
99815,15641
100070,15641
100070,15418
100073,15394
100076,15384
99815,15384
99815,15539
99791,15563
99432,15563
99432,15321
99377,15321
99377,15563
99018,15563
98994,15539
98994,15384
98998,15365
99005,15348
99015,15332
99029,15319
99044,15308
99062,15301
99080,15298
99353,15298
99377,15321
99432,15321
99456,15298
99729,15298
99747,15301
99765,15308
99780,15319
99794,15332
99804,15348
99811,15365
99815,15384
100076,15384
100080,15371
100084,15362
99453,14730
99090,14730
99065,14728
99042,14721
99020,14709
99001,14694
98986,14675
98974,14653
98967,14630
98965,14606
98965,14212
98967,14188
98974,14164
98986,14143
99001,14124
99020,14108
99042,14097
99065,14090
99090,14087
99212,14087
99212,14034
99211,14025
99212,14015
99212,14015
99214,13987
99225,13950
99243,13917
99267,13887
99275,13881
99896,13260
99845,13210
99552,12770
99350,12282
99246,11764
99246,11235
99350,10717
99552,10229
99845,9789
100219,9415
100659,9122
101147,8920
101665,8816
102194,8816
102712,8920
103200,9122
103640,9415
104014,9789
104307,10229
104509,10717
104613,11235
104613,11764
104509,12282
104307,12770
104014,13210
103640,13584
103200,13877
102712,14079
102194,14183
101665,14183
101147,14079
100659,13877
100219,13584
100169,13533
99614,14087
99719,14087
99744,14090
99767,14097
99789,14108
99808,14124
99823,14143
99835,14164
99842,14188
99844,14212
99844,14576
100535,15266
100677,15183
100681,15181
100694,15174
100698,15171
100702,15169
100714,15163
100719,15161
100724,15159
100738,15156
100751,15152
100756,15152
100761,15150
100775,15150
100779,15150
100784,15150
100799,15149
100803,15150
100928,15151
100923,15144
100551,14755
100195,14755
100171,14753
100147,14746
100126,14734
100107,14719
100091,14700
100080,14678
100073,14655
100070,14631
100070,14276
100073,14252
100080,14229
100091,14207
100107,14188
100126,14173
100147,14161
100171,14154
100195,14152
100864,14152
100888,14154
100912,14161
100933,14173
100952,14188
100968,14207
100979,14229
100986,14252
100989,14276
100989,14631
100987,14653
101107,14779
101112,14760
101124,14739
101139,14720
101158,14704
101180,14693
101203,14686
101228,14683
101483,14683
101508,14686
101531,14693
101542,14699
101554,14693
101565,14689
101576,14590
101576,14585
101579,14570
101579,14565
101580,14561
101583,14546
101585,14541
101586,14536
101592,14522
101597,14508
101600,14504
101602,14500
101611,14487
101619,14475
101622,14471
101625,14467
101636,14457
101646,14446
101650,14443
101654,14439
101666,14431
101679,14423
101683,14420
101687,14418
101701,14412
101706,14410
101711,14409
101725,14403
101730,14402
101851,14362
101856,14360
101870,14356
101875,14354
101880,14353
101894,14349
101899,14348
101904,14347
101919,14347
101924,14347
101929,14347
101944,14346
101949,14347
102391,14357
102399,14356
102411,14357
102413,14357
102421,14358
102439,14360
102441,14360
102443,14361
102460,14366
102477,14371
102479,14372
102481,14373
102496,14382
102512,14390
102514,14391
102516,14393
102529,14404
102535,14409
102537,14411
102546,14419
102551,14425
103395,15269
103744,15269
103769,15271
103792,15278
103814,15290
103833,15305
103848,15324
103860,15346
103867,15369
103869,15393
103869,15787
103867,15811
103860,15835
103848,15856
103833,15875
103814,15891
103792,15902
103769,15909
103744,15912
103632,15912
103632,16443
103689,16473
103759,16531
103817,16602
103860,16683
103887,16770
103894,16838
103894,17661
103887,17729
103860,17816
103839,17856
104519,17856
104492,17837
104342,17687
104224,17510
104142,17314
104101,17106
104101,16893
104142,16685
104224,16489
104342,16312
104492,16162
104669,16044
104865,15962
105073,15921
105286,15921
105494,15962
105690,16044
105867,16162
106017,16312
106036,16339
106036,14460
103840,14460
103840,14615
103836,14634
103829,14651
103819,14667
103805,14680
103790,14691
103772,14698
103754,14701
103481,14701
103457,14678
103457,14436
103402,14436
103402,14678
103378,14701
103105,14701
103087,14698
103069,14691
103054,14680
103040,14667
103030,14651
103023,14634
103019,14615
103019,14460
103043,14436
103402,14436
103457,14436
103816,14436
103840,14460
106036,14460
106036,14203
103840,14203
103840,14358
103816,14382
103457,14382
103457,14140
103402,14140
103402,14382
103043,14382
103019,14358
103019,14203
103023,14184
103030,14167
103040,14151
103054,14138
103069,14127
103087,14120
103105,14116
103378,14116
103402,14140
103457,14140
103481,14116
103754,14116
103772,14120
103790,14127
103805,14138
103819,14151
103829,14167
103836,14184
103840,14203
106036,14203
106036,12254
106006,11756
105917,11270
105770,10798
105568,10347
105313,9924
105009,9534
104661,9184
104273,8878
103851,8621
103401,8416
102930,8267
102444,8176
101947,8143
101934,8143
101436,8173
" /> 
</g> 
</svg>
