G04 #@! TF.GenerationSoftware,KiCad,Pcbnew,5.0.2-bee76a0~70~ubuntu18.04.1*
G04 #@! TF.CreationDate,2019-03-09T17:40:24+01:00*
G04 #@! TF.ProjectId,touchsense7,746f7563-6873-4656-9e73-65372e6b6963,0_1*
G04 #@! TF.SameCoordinates,Original*
G04 #@! TF.FileFunction,Legend,Top*
G04 #@! TF.FilePolarity,Positive*
%FSLAX46Y46*%
G04 Gerber Fmt 4.6, Leading zero omitted, Abs format (unit mm)*
G04 Created by KiCad (PCBNEW 5.0.2-bee76a0~70~ubuntu18.04.1) date 2019-03-09T17:40:24 CET*
%MOMM*%
%LPD*%
G01*
G04 APERTURE LIST*
%ADD10C,0.150000*%
%ADD11C,0.100000*%
G04 APERTURE END LIST*
D10*
G04 #@! TO.C,S1*
X29845000Y-42180000D02*
X29845000Y-44180000D01*
X28845000Y-43180000D02*
X30845000Y-43180000D01*
X32395000Y-43180000D02*
G75*
G03X32395000Y-43180000I-2550000J0D01*
G01*
G04 #@! TO.C,C1*
X45538500Y-39100000D02*
X45538500Y-37100000D01*
X43488500Y-37100000D02*
X43488500Y-39100000D01*
G04 #@! TO.C,C2*
X33265000Y-37100000D02*
X33265000Y-39100000D01*
X35315000Y-39100000D02*
X35315000Y-37100000D01*
G04 #@! TO.C,R1*
X42731000Y-37163500D02*
X42731000Y-39163500D01*
X40581000Y-39163500D02*
X40581000Y-37163500D01*
G04 #@! TO.C,U1*
X37008000Y-39643000D02*
G75*
G03X37008000Y-39643000I-100000J0D01*
G01*
X37158000Y-38993000D02*
X37158000Y-39493000D01*
X40058000Y-38993000D02*
X37158000Y-38993000D01*
X40058000Y-39493000D02*
X40058000Y-38993000D01*
X37158000Y-39493000D02*
X40058000Y-39493000D01*
G04 #@! TO.C,S1*
X46355000Y-42180000D02*
X46355000Y-44180000D01*
X45355000Y-43180000D02*
X47355000Y-43180000D01*
X48905000Y-43180000D02*
G75*
G03X48905000Y-43180000I-2550000J0D01*
G01*
G04 #@! TO.C,P1*
X43460000Y-41507000D02*
X41910000Y-41507000D01*
X43460000Y-42807000D02*
X43460000Y-41507000D01*
G04 #@! TO.C,P2*
X44800000Y-29210000D02*
G75*
G03X44800000Y-29210000I-6700000J0D01*
G01*
G04 #@! TD*
D11*
G04 #@! TO.C,S1*
X32220000Y-43180000D02*
G75*
G03X32220000Y-43180000I-2375000J0D01*
G01*
G04 #@! TD*
G04 #@! TO.C,S1*
X48730000Y-43180000D02*
G75*
G03X48730000Y-43180000I-2375000J0D01*
G01*
G04 #@! TD*
G04 #@! TO.C,P1*
X41096400Y-41515000D02*
X41096400Y-45115000D01*
X42723600Y-45115000D01*
X42723600Y-41515000D01*
X41096400Y-41515000D01*
X38556400Y-42328600D02*
X38556400Y-44301400D01*
X40183600Y-42328600D02*
X40183600Y-44301400D01*
X38556400Y-44301400D02*
G75*
G03X40183600Y-44301400I813600J0D01*
G01*
X40183600Y-42328600D02*
G75*
G03X38556400Y-42328600I-813600J0D01*
G01*
X36016400Y-42328600D02*
X36016400Y-44301400D01*
X37643600Y-42328600D02*
X37643600Y-44301400D01*
X36016400Y-44301400D02*
G75*
G03X37643600Y-44301400I813600J0D01*
G01*
X37643600Y-42328600D02*
G75*
G03X36016400Y-42328600I-813600J0D01*
G01*
X33476400Y-42328600D02*
X33476400Y-44301400D01*
X35103600Y-42328600D02*
X35103600Y-44301400D01*
X33476400Y-44301400D02*
G75*
G03X35103600Y-44301400I813600J0D01*
G01*
X35103600Y-42328600D02*
G75*
G03X33476400Y-42328600I-813600J0D01*
G01*
G04 #@! TD*
G04 #@! TO.C,P2*
X44550000Y-29210000D02*
G75*
G03X44550000Y-29210000I-6450000J0D01*
G01*
G04 #@! TD*
G04 #@! TO.C,S1*
D10*
X32027761Y-45592904D02*
X32075380Y-45450047D01*
X32075380Y-45211952D01*
X32027761Y-45116714D01*
X31980142Y-45069095D01*
X31884904Y-45021476D01*
X31789666Y-45021476D01*
X31694428Y-45069095D01*
X31646809Y-45116714D01*
X31599190Y-45211952D01*
X31551571Y-45402428D01*
X31503952Y-45497666D01*
X31456333Y-45545285D01*
X31361095Y-45592904D01*
X31265857Y-45592904D01*
X31170619Y-45545285D01*
X31123000Y-45497666D01*
X31075380Y-45402428D01*
X31075380Y-45164333D01*
X31123000Y-45021476D01*
X32075380Y-44069095D02*
X32075380Y-44640523D01*
X32075380Y-44354809D02*
X31075380Y-44354809D01*
X31218238Y-44450047D01*
X31313476Y-44545285D01*
X31361095Y-44640523D01*
G04 #@! TO.C,C1*
X43092642Y-37504666D02*
X43140261Y-37552285D01*
X43187880Y-37695142D01*
X43187880Y-37790380D01*
X43140261Y-37933238D01*
X43045023Y-38028476D01*
X42949785Y-38076095D01*
X42759309Y-38123714D01*
X42616452Y-38123714D01*
X42425976Y-38076095D01*
X42330738Y-38028476D01*
X42235500Y-37933238D01*
X42187880Y-37790380D01*
X42187880Y-37695142D01*
X42235500Y-37552285D01*
X42283119Y-37504666D01*
X43187880Y-36552285D02*
X43187880Y-37123714D01*
X43187880Y-36838000D02*
X42187880Y-36838000D01*
X42330738Y-36933238D01*
X42425976Y-37028476D01*
X42473595Y-37123714D01*
G04 #@! TO.C,C2*
X32615142Y-38266666D02*
X32662761Y-38314285D01*
X32710380Y-38457142D01*
X32710380Y-38552380D01*
X32662761Y-38695238D01*
X32567523Y-38790476D01*
X32472285Y-38838095D01*
X32281809Y-38885714D01*
X32138952Y-38885714D01*
X31948476Y-38838095D01*
X31853238Y-38790476D01*
X31758000Y-38695238D01*
X31710380Y-38552380D01*
X31710380Y-38457142D01*
X31758000Y-38314285D01*
X31805619Y-38266666D01*
X31805619Y-37885714D02*
X31758000Y-37838095D01*
X31710380Y-37742857D01*
X31710380Y-37504761D01*
X31758000Y-37409523D01*
X31805619Y-37361904D01*
X31900857Y-37314285D01*
X31996095Y-37314285D01*
X32138952Y-37361904D01*
X32710380Y-37933333D01*
X32710380Y-37314285D01*
G04 #@! TO.C,R1*
X44140380Y-39473166D02*
X43664190Y-39806500D01*
X44140380Y-40044595D02*
X43140380Y-40044595D01*
X43140380Y-39663642D01*
X43188000Y-39568404D01*
X43235619Y-39520785D01*
X43330857Y-39473166D01*
X43473714Y-39473166D01*
X43568952Y-39520785D01*
X43616571Y-39568404D01*
X43664190Y-39663642D01*
X43664190Y-40044595D01*
X44140380Y-38520785D02*
X44140380Y-39092214D01*
X44140380Y-38806500D02*
X43140380Y-38806500D01*
X43283238Y-38901738D01*
X43378476Y-38996976D01*
X43426095Y-39092214D01*
G04 #@! TO.C,U1*
X35393380Y-40004904D02*
X36202904Y-40004904D01*
X36298142Y-39957285D01*
X36345761Y-39909666D01*
X36393380Y-39814428D01*
X36393380Y-39623952D01*
X36345761Y-39528714D01*
X36298142Y-39481095D01*
X36202904Y-39433476D01*
X35393380Y-39433476D01*
X36393380Y-38433476D02*
X36393380Y-39004904D01*
X36393380Y-38719190D02*
X35393380Y-38719190D01*
X35536238Y-38814428D01*
X35631476Y-38909666D01*
X35679095Y-39004904D01*
G04 #@! TO.C,S1*
X48537761Y-45592904D02*
X48585380Y-45450047D01*
X48585380Y-45211952D01*
X48537761Y-45116714D01*
X48490142Y-45069095D01*
X48394904Y-45021476D01*
X48299666Y-45021476D01*
X48204428Y-45069095D01*
X48156809Y-45116714D01*
X48109190Y-45211952D01*
X48061571Y-45402428D01*
X48013952Y-45497666D01*
X47966333Y-45545285D01*
X47871095Y-45592904D01*
X47775857Y-45592904D01*
X47680619Y-45545285D01*
X47633000Y-45497666D01*
X47585380Y-45402428D01*
X47585380Y-45164333D01*
X47633000Y-45021476D01*
X48585380Y-44069095D02*
X48585380Y-44640523D01*
X48585380Y-44354809D02*
X47585380Y-44354809D01*
X47728238Y-44450047D01*
X47823476Y-44545285D01*
X47871095Y-44640523D01*
G04 #@! TO.C,P1*
X32964380Y-44053095D02*
X31964380Y-44053095D01*
X31964380Y-43672142D01*
X32012000Y-43576904D01*
X32059619Y-43529285D01*
X32154857Y-43481666D01*
X32297714Y-43481666D01*
X32392952Y-43529285D01*
X32440571Y-43576904D01*
X32488190Y-43672142D01*
X32488190Y-44053095D01*
X32964380Y-42529285D02*
X32964380Y-43100714D01*
X32964380Y-42815000D02*
X31964380Y-42815000D01*
X32107238Y-42910238D01*
X32202476Y-43005476D01*
X32250095Y-43100714D01*
G04 #@! TO.C,P2*
X38552380Y-26773095D02*
X37552380Y-26773095D01*
X37552380Y-26392142D01*
X37600000Y-26296904D01*
X37647619Y-26249285D01*
X37742857Y-26201666D01*
X37885714Y-26201666D01*
X37980952Y-26249285D01*
X38028571Y-26296904D01*
X38076190Y-26392142D01*
X38076190Y-26773095D01*
X37647619Y-25820714D02*
X37600000Y-25773095D01*
X37552380Y-25677857D01*
X37552380Y-25439761D01*
X37600000Y-25344523D01*
X37647619Y-25296904D01*
X37742857Y-25249285D01*
X37838095Y-25249285D01*
X37980952Y-25296904D01*
X38552380Y-25868333D01*
X38552380Y-25249285D01*
G04 #@! TD*
M02*
