<?xml version="1.0" standalone="no"?>
 <!DOCTYPE svg PUBLIC "-//W3C//DTD SVG 1.1//EN" 
 "http://www.w3.org/Graphics/SVG/1.1/DTD/svg11.dtd"> 
<svg xmlns="http://www.w3.org/2000/svg" version="1.1" 
    width="29.7002cm" height="21.0007cm" viewBox="0 0 116930 82680 ">
<title>SVG Picture created as touchsense6-B.Cu.svg date 2019/02/28 20:33:32 </title>
  <desc>Picture generated by PCBNEW </desc>
<g style="fill:#000000; fill-opacity:1;stroke:#000000; stroke-opacity:1;
stroke-linecap:round; stroke-linejoin:round; "
 transform="translate(0 0) scale(1 1)">
</g>
<g style="fill:#000000; fill-opacity:0.0; 
stroke:#000000; stroke-width:-0.000393701; stroke-opacity:1; 
stroke-linecap:round; stroke-linejoin:round;">
</g>
<g style="fill:#000000; fill-opacity:1.0; 
stroke:#000000; stroke-width:0; stroke-opacity:1; 
stroke-linecap:round; stroke-linejoin:round;">
<circle cx="105180" cy="17000" r="954.724" /> 
</g>
<g style="fill:#000000; fill-opacity:1.0; 
stroke:#000000; stroke-width:39.3701; stroke-opacity:1; 
stroke-linecap:round; stroke-linejoin:round;">
</g>
<g style="fill:#000000; fill-opacity:1.0; 
stroke:#000000; stroke-width:0; stroke-opacity:1; 
stroke-linecap:round; stroke-linejoin:round;">
<circle cx="98680" cy="17000" r="954.724" /> 
</g>
<g style="fill:#000000; fill-opacity:1.0; 
stroke:#000000; stroke-width:39.3701; stroke-opacity:1; 
stroke-linecap:round; stroke-linejoin:round;">
</g>
<g style="fill:#000000; fill-opacity:1.0; 
stroke:#000000; stroke-width:0; stroke-opacity:1; 
stroke-linecap:round; stroke-linejoin:round;">
<polyline style="fill-rule:evenodd;"
points="100770,16521
100090,16521
100090,17978
100770,17978
100770,16521
" /> 
</g>
<g style="fill:#000000; fill-opacity:1.0; 
stroke:#000000; stroke-width:680; stroke-opacity:1; 
stroke-linecap:round; stroke-linejoin:round;">
</g>
<g style="fill:#000000; fill-opacity:0.0; 
stroke:#000000; stroke-width:680; stroke-opacity:1; 
stroke-linecap:round; stroke-linejoin:round;">
<path d="M101430 16861
L101430 17638
" />
<path d="M102430 16861
L102430 17638
" />
<path d="M103430 16861
L103430 17638
" />
</g>
<g style="fill:#000000; fill-opacity:1.0; 
stroke:#000000; stroke-width:0; stroke-opacity:1; 
stroke-linecap:round; stroke-linejoin:round;">
<circle cx="101930" cy="11500" r="2559.06" /> 
</g>
<g style="fill:#000000; fill-opacity:1.0; 
stroke:#000000; stroke-width:39.3701; stroke-opacity:1; 
stroke-linecap:round; stroke-linejoin:round;">
</g>
<g style="fill:#000000; fill-opacity:1.0; 
stroke:#000000; stroke-width:78.7402; stroke-opacity:1; 
stroke-linecap:round; stroke-linejoin:round;">
<polyline style="fill-rule:evenodd;"
points="101431,8128
100939,8218
100462,8366
100006,8571
99578,8828
99184,9135
98830,9488
98521,9880
98261,10307
98054,10762
97903,11238
97811,11729
97778,12231
97778,12250
97778,16474
97871,16336
98016,16191
98186,16077
98376,15998
98577,15958
98782,15958
98983,15998
99173,16077
99343,16191
99488,16336
99602,16506
99681,16696
99721,16897
99721,17102
99681,17303
99602,17493
99488,17663
99343,17808
99205,17901
101094,17901
101073,17876
101033,17802
101009,17721
101003,17659
101003,16840
101009,16778
101033,16697
101073,16623
101126,16558
101191,16505
101265,16465
101346,16441
101430,16432
101513,16441
101594,16465
101668,16505
101733,16558
101786,16623
101826,16697
101850,16778
101856,16840
101856,17659
101850,17721
101826,17802
101786,17876
101765,17901
102094,17901
102073,17876
102033,17802
102009,17721
102003,17659
102003,16840
102009,16778
102033,16697
102073,16623
102126,16558
102191,16505
102265,16465
102346,16441
102430,16432
102513,16441
102594,16465
102668,16505
102733,16558
102786,16623
102826,16697
102850,16778
102856,16840
102856,17659
102850,17721
102826,17802
102786,17876
102765,17901
103094,17901
103073,17876
103033,17802
103009,17721
103003,17659
103003,16840
103009,16778
103033,16697
103073,16623
103126,16558
103191,16505
103265,16465
103346,16441
103430,16432
103513,16441
103594,16465
103668,16505
103733,16558
103786,16623
103826,16697
103850,16778
103856,16840
103856,17659
103850,17721
103826,17802
103786,17876
103765,17901
104654,17901
104516,17808
104371,17663
104257,17493
104178,17303
104138,17102
104138,16897
104178,16696
104257,16506
104371,16336
104516,16191
104686,16077
104876,15998
105077,15958
105282,15958
105483,15998
105673,16077
105843,16191
105988,16336
106081,16474
106081,12252
106051,11751
105961,11259
105955,11239
104575,11239
104575,11760
104473,12271
104274,12753
103985,13186
103616,13555
103183,13844
102701,14043
102190,14145
101669,14145
101158,14043
100676,13844
100243,13555
99874,13186
99585,12753
99386,12271
99284,11760
99284,11239
99386,10728
99585,10246
99874,9813
100243,9444
100676,9155
101158,8956
101669,8854
102190,8854
102701,8956
103183,9155
103616,9444
103985,9813
104274,10246
104473,10728
104575,11239
105955,11239
105813,10782
105608,10326
105351,9898
105044,9504
104691,9150
104299,8841
103872,8581
103417,8374
102941,8223
102450,8131
101948,8098
101932,8098
101431,8128
" /> 
</g> 
</svg>
