G04 #@! TF.GenerationSoftware,KiCad,Pcbnew,5.0.2-bee76a0~70~ubuntu18.04.1*
G04 #@! TF.CreationDate,2019-03-09T17:32:09+01:00*
G04 #@! TF.ProjectId,touchsense6,746f7563-6873-4656-9e73-65362e6b6963,0_1*
G04 #@! TF.SameCoordinates,Original*
G04 #@! TF.FileFunction,Soldermask,Bot*
G04 #@! TF.FilePolarity,Negative*
%FSLAX46Y46*%
G04 Gerber Fmt 4.6, Leading zero omitted, Abs format (unit mm)*
G04 Created by KiCad (PCBNEW 5.0.2-bee76a0~70~ubuntu18.04.1) date 2019-03-09T17:32:09 CET*
%MOMM*%
%LPD*%
G01*
G04 APERTURE LIST*
%ADD10C,0.100000*%
G04 APERTURE END LIST*
D10*
G36*
X46687543Y-40773638D02*
X47062347Y-40848191D01*
X47503668Y-41030992D01*
X47900848Y-41296379D01*
X48238621Y-41634152D01*
X48504008Y-42031332D01*
X48686809Y-42472653D01*
X48780000Y-42941158D01*
X48780000Y-43418842D01*
X48686809Y-43887347D01*
X48504008Y-44328668D01*
X48238621Y-44725848D01*
X47900848Y-45063621D01*
X47503668Y-45329008D01*
X47062347Y-45511809D01*
X46687543Y-45586362D01*
X46593843Y-45605000D01*
X46116157Y-45605000D01*
X46022457Y-45586362D01*
X45647653Y-45511809D01*
X45206332Y-45329008D01*
X44809152Y-45063621D01*
X44471379Y-44725848D01*
X44205992Y-44328668D01*
X44023191Y-43887347D01*
X43930000Y-43418842D01*
X43930000Y-42941158D01*
X44023191Y-42472653D01*
X44205992Y-42031332D01*
X44471379Y-41634152D01*
X44809152Y-41296379D01*
X45206332Y-41030992D01*
X45647653Y-40848191D01*
X46022457Y-40773638D01*
X46116157Y-40755000D01*
X46593843Y-40755000D01*
X46687543Y-40773638D01*
X46687543Y-40773638D01*
G37*
G36*
X30177543Y-40773638D02*
X30552347Y-40848191D01*
X30993668Y-41030992D01*
X31390848Y-41296379D01*
X31728621Y-41634152D01*
X31994008Y-42031332D01*
X32176809Y-42472653D01*
X32270000Y-42941158D01*
X32270000Y-43418842D01*
X32176809Y-43887347D01*
X31994008Y-44328668D01*
X31728621Y-44725848D01*
X31390848Y-45063621D01*
X30993668Y-45329008D01*
X30552347Y-45511809D01*
X30177543Y-45586362D01*
X30083843Y-45605000D01*
X29606157Y-45605000D01*
X29512457Y-45586362D01*
X29137653Y-45511809D01*
X28696332Y-45329008D01*
X28299152Y-45063621D01*
X27961379Y-44725848D01*
X27695992Y-44328668D01*
X27513191Y-43887347D01*
X27420000Y-43418842D01*
X27420000Y-42941158D01*
X27513191Y-42472653D01*
X27695992Y-42031332D01*
X27961379Y-41634152D01*
X28299152Y-41296379D01*
X28696332Y-41030992D01*
X29137653Y-40848191D01*
X29512457Y-40773638D01*
X29606157Y-40755000D01*
X30083843Y-40755000D01*
X30177543Y-40773638D01*
X30177543Y-40773638D01*
G37*
G36*
X34332420Y-41465000D02*
X34459295Y-41477496D01*
X34579727Y-41514029D01*
X34622088Y-41526879D01*
X34772112Y-41607068D01*
X34903612Y-41714988D01*
X35011532Y-41846488D01*
X35091721Y-41996512D01*
X35091722Y-41996516D01*
X35141104Y-42159305D01*
X35153600Y-42286180D01*
X35153600Y-44343820D01*
X35141104Y-44470695D01*
X35104571Y-44591127D01*
X35091721Y-44633488D01*
X35011532Y-44783512D01*
X34903612Y-44915012D01*
X34772112Y-45022932D01*
X34622087Y-45103121D01*
X34579726Y-45115971D01*
X34459294Y-45152504D01*
X34290000Y-45169178D01*
X34289999Y-45169178D01*
X34233568Y-45163620D01*
X34120705Y-45152504D01*
X34000273Y-45115971D01*
X33957912Y-45103121D01*
X33807888Y-45022932D01*
X33676388Y-44915012D01*
X33568468Y-44783512D01*
X33488279Y-44633487D01*
X33475429Y-44591126D01*
X33438896Y-44470694D01*
X33426400Y-44343819D01*
X33426401Y-42286180D01*
X33438897Y-42159305D01*
X33488279Y-41996516D01*
X33488280Y-41996512D01*
X33568469Y-41846488D01*
X33676389Y-41714988D01*
X33807889Y-41607068D01*
X33957913Y-41526879D01*
X34000274Y-41514029D01*
X34120706Y-41477496D01*
X34290000Y-41460822D01*
X34290001Y-41460822D01*
X34332420Y-41465000D01*
X34332420Y-41465000D01*
G37*
G36*
X36872420Y-41465000D02*
X36999295Y-41477496D01*
X37119727Y-41514029D01*
X37162088Y-41526879D01*
X37312112Y-41607068D01*
X37443612Y-41714988D01*
X37551532Y-41846488D01*
X37631721Y-41996512D01*
X37631722Y-41996516D01*
X37681104Y-42159305D01*
X37693600Y-42286180D01*
X37693600Y-44343820D01*
X37681104Y-44470695D01*
X37644571Y-44591127D01*
X37631721Y-44633488D01*
X37551532Y-44783512D01*
X37443612Y-44915012D01*
X37312112Y-45022932D01*
X37162087Y-45103121D01*
X37119726Y-45115971D01*
X36999294Y-45152504D01*
X36830000Y-45169178D01*
X36829999Y-45169178D01*
X36773568Y-45163620D01*
X36660705Y-45152504D01*
X36540273Y-45115971D01*
X36497912Y-45103121D01*
X36347888Y-45022932D01*
X36216388Y-44915012D01*
X36108468Y-44783512D01*
X36028279Y-44633487D01*
X36015429Y-44591126D01*
X35978896Y-44470694D01*
X35966400Y-44343819D01*
X35966401Y-42286180D01*
X35978897Y-42159305D01*
X36028279Y-41996516D01*
X36028280Y-41996512D01*
X36108469Y-41846488D01*
X36216389Y-41714988D01*
X36347889Y-41607068D01*
X36497913Y-41526879D01*
X36540274Y-41514029D01*
X36660706Y-41477496D01*
X36830000Y-41460822D01*
X36830001Y-41460822D01*
X36872420Y-41465000D01*
X36872420Y-41465000D01*
G37*
G36*
X39412420Y-41465000D02*
X39539295Y-41477496D01*
X39659727Y-41514029D01*
X39702088Y-41526879D01*
X39852112Y-41607068D01*
X39983612Y-41714988D01*
X40091532Y-41846488D01*
X40171721Y-41996512D01*
X40171722Y-41996516D01*
X40221104Y-42159305D01*
X40233600Y-42286180D01*
X40233600Y-44343820D01*
X40221104Y-44470695D01*
X40184571Y-44591127D01*
X40171721Y-44633488D01*
X40091532Y-44783512D01*
X39983612Y-44915012D01*
X39852112Y-45022932D01*
X39702087Y-45103121D01*
X39659726Y-45115971D01*
X39539294Y-45152504D01*
X39370000Y-45169178D01*
X39369999Y-45169178D01*
X39313568Y-45163620D01*
X39200705Y-45152504D01*
X39080273Y-45115971D01*
X39037912Y-45103121D01*
X38887888Y-45022932D01*
X38756388Y-44915012D01*
X38648468Y-44783512D01*
X38568279Y-44633487D01*
X38555429Y-44591126D01*
X38518896Y-44470694D01*
X38506400Y-44343819D01*
X38506401Y-42286180D01*
X38518897Y-42159305D01*
X38568279Y-41996516D01*
X38568280Y-41996512D01*
X38648469Y-41846488D01*
X38756389Y-41714988D01*
X38887889Y-41607068D01*
X39037913Y-41526879D01*
X39080274Y-41514029D01*
X39200706Y-41477496D01*
X39370000Y-41460822D01*
X39370001Y-41460822D01*
X39412420Y-41465000D01*
X39412420Y-41465000D01*
G37*
G36*
X42773600Y-45165000D02*
X41046400Y-45165000D01*
X41046400Y-41465000D01*
X42773600Y-41465000D01*
X42773600Y-45165000D01*
X42773600Y-45165000D01*
G37*
G36*
X39577385Y-22876527D02*
X39995980Y-22959791D01*
X41178905Y-23449774D01*
X42239910Y-24158715D01*
X42243512Y-24161122D01*
X43148878Y-25066488D01*
X43148880Y-25066491D01*
X43860226Y-26131095D01*
X44350209Y-27314020D01*
X44600000Y-28569806D01*
X44600000Y-29850194D01*
X44350209Y-31105980D01*
X43860226Y-32288905D01*
X43151285Y-33349910D01*
X43148878Y-33353512D01*
X42243512Y-34258878D01*
X42243509Y-34258880D01*
X41178905Y-34970226D01*
X39995980Y-35460209D01*
X39577385Y-35543473D01*
X38740196Y-35710000D01*
X37459804Y-35710000D01*
X36622615Y-35543473D01*
X36204020Y-35460209D01*
X35021095Y-34970226D01*
X33956491Y-34258880D01*
X33956488Y-34258878D01*
X33051122Y-33353512D01*
X33048715Y-33349910D01*
X32339774Y-32288905D01*
X31849791Y-31105980D01*
X31600000Y-29850194D01*
X31600000Y-28569806D01*
X31849791Y-27314020D01*
X32339774Y-26131095D01*
X33051120Y-25066491D01*
X33051122Y-25066488D01*
X33956488Y-24161122D01*
X33960090Y-24158715D01*
X35021095Y-23449774D01*
X36204020Y-22959791D01*
X36622615Y-22876527D01*
X37459804Y-22710000D01*
X38740196Y-22710000D01*
X39577385Y-22876527D01*
X39577385Y-22876527D01*
G37*
M02*
