G04 #@! TF.GenerationSoftware,KiCad,Pcbnew,5.0.2-bee76a0~70~ubuntu18.04.1*
G04 #@! TF.CreationDate,2019-03-09T17:40:24+01:00*
G04 #@! TF.ProjectId,touchsense7,746f7563-6873-4656-9e73-65372e6b6963,0_1*
G04 #@! TF.SameCoordinates,Original*
G04 #@! TF.FileFunction,Copper,L1,Top*
G04 #@! TF.FilePolarity,Positive*
%FSLAX46Y46*%
G04 Gerber Fmt 4.6, Leading zero omitted, Abs format (unit mm)*
G04 Created by KiCad (PCBNEW 5.0.2-bee76a0~70~ubuntu18.04.1) date 2019-03-09T17:40:24 CET*
%MOMM*%
%LPD*%
G01*
G04 APERTURE LIST*
G04 #@! TA.AperFunction,ComponentPad*
%ADD10C,4.850000*%
G04 #@! TD*
G04 #@! TA.AperFunction,SMDPad,CuDef*
%ADD11R,1.600000X1.000000*%
G04 #@! TD*
G04 #@! TA.AperFunction,SMDPad,CuDef*
%ADD12R,1.700000X0.900000*%
G04 #@! TD*
G04 #@! TA.AperFunction,SMDPad,CuDef*
%ADD13R,0.650000X1.060000*%
G04 #@! TD*
G04 #@! TA.AperFunction,ComponentPad*
%ADD14R,1.727200X3.700000*%
G04 #@! TD*
G04 #@! TA.AperFunction,ComponentPad*
%ADD15O,1.727200X3.700000*%
G04 #@! TD*
G04 #@! TA.AperFunction,ComponentPad*
%ADD16C,13.000000*%
G04 #@! TD*
G04 #@! TA.AperFunction,Conductor*
%ADD17C,0.600000*%
G04 #@! TD*
G04 #@! TA.AperFunction,Conductor*
%ADD18C,0.350000*%
G04 #@! TD*
G04 APERTURE END LIST*
D10*
G04 #@! TO.P,S1,1*
G04 #@! TO.N,N/C*
X29845000Y-43180000D03*
G04 #@! TD*
D11*
G04 #@! TO.P,C1,1*
G04 #@! TO.N,Net-(C1-Pad1)*
X44513500Y-36600000D03*
G04 #@! TO.P,C1,2*
G04 #@! TO.N,GND*
X44513500Y-39600000D03*
G04 #@! TD*
G04 #@! TO.P,C2,1*
G04 #@! TO.N,VCC*
X34290000Y-39600000D03*
G04 #@! TO.P,C2,2*
G04 #@! TO.N,GND*
X34290000Y-36600000D03*
G04 #@! TD*
D12*
G04 #@! TO.P,R1,1*
G04 #@! TO.N,Net-(C1-Pad1)*
X41656000Y-39613500D03*
G04 #@! TO.P,R1,2*
G04 #@! TO.N,Net-(R1-Pad2)*
X41656000Y-36713500D03*
G04 #@! TD*
D13*
G04 #@! TO.P,U1,1*
G04 #@! TO.N,Net-(C1-Pad1)*
X37658000Y-40343000D03*
G04 #@! TO.P,U1,2*
G04 #@! TO.N,GND*
X38608000Y-40343000D03*
G04 #@! TO.P,U1,3*
G04 #@! TO.N,Net-(P1-Pad2)*
X39558000Y-40343000D03*
G04 #@! TO.P,U1,4*
G04 #@! TO.N,Net-(R1-Pad2)*
X39558000Y-38143000D03*
G04 #@! TO.P,U1,6*
G04 #@! TO.N,Net-(P1-Pad3)*
X37658000Y-38143000D03*
G04 #@! TO.P,U1,5*
G04 #@! TO.N,VCC*
X38608000Y-38143000D03*
G04 #@! TD*
D10*
G04 #@! TO.P,S1,1*
G04 #@! TO.N,N/C*
X46355000Y-43180000D03*
G04 #@! TD*
D14*
G04 #@! TO.P,P1,1*
G04 #@! TO.N,GND*
X41910000Y-43315000D03*
D15*
G04 #@! TO.P,P1,2*
G04 #@! TO.N,Net-(P1-Pad2)*
X39370000Y-43315000D03*
G04 #@! TO.P,P1,3*
G04 #@! TO.N,Net-(P1-Pad3)*
X36830000Y-43315000D03*
G04 #@! TO.P,P1,4*
G04 #@! TO.N,VCC*
X34290000Y-43315000D03*
G04 #@! TD*
D16*
G04 #@! TO.P,P2,1*
G04 #@! TO.N,Net-(C1-Pad1)*
X38100000Y-29210000D03*
G04 #@! TD*
D17*
G04 #@! TO.N,Net-(C1-Pad1)*
X44513500Y-36600000D02*
X44513500Y-35623500D01*
X44513500Y-35623500D02*
X38100000Y-29210000D01*
X41656000Y-39613500D02*
X41656000Y-39457500D01*
X41656000Y-39457500D02*
X44513500Y-36600000D01*
X41697780Y-39260780D02*
X41973500Y-39536500D01*
X37635000Y-39479598D02*
X37853818Y-39260780D01*
X37853818Y-39260780D02*
X41697780Y-39260780D01*
X37635000Y-40320000D02*
X37635000Y-39479598D01*
G04 #@! TO.N,GND*
X41910000Y-42203500D02*
X44513500Y-39600000D01*
X41910000Y-43315000D02*
X41910000Y-42203500D01*
X33990000Y-36600000D02*
X34290000Y-36600000D01*
X32890000Y-37700000D02*
X33990000Y-36600000D01*
X32890000Y-44829835D02*
X32890000Y-37700000D01*
X33725175Y-45665010D02*
X32890000Y-44829835D01*
X41910000Y-43689835D02*
X39934825Y-45665010D01*
X41910000Y-43315000D02*
X41910000Y-43689835D01*
D18*
X38095000Y-41851941D02*
X38095000Y-45665010D01*
X38608000Y-41338941D02*
X38095000Y-41851941D01*
X38608000Y-40343000D02*
X38608000Y-41338941D01*
D17*
X39934825Y-45665010D02*
X38095000Y-45665010D01*
X38095000Y-45665010D02*
X33725175Y-45665010D01*
G04 #@! TO.N,VCC*
X34290000Y-43815000D02*
X34290000Y-39600000D01*
X38608000Y-37013000D02*
X38613080Y-37007920D01*
X38608000Y-38143000D02*
X38608000Y-37013000D01*
X36882080Y-37007920D02*
X34290000Y-39600000D01*
X38613080Y-37007920D02*
X36882080Y-37007920D01*
G04 #@! TO.N,Net-(P1-Pad2)*
X39560500Y-42799000D02*
X39558000Y-40343000D01*
G04 #@! TO.N,Net-(P1-Pad3)*
X37658000Y-38143000D02*
X36465000Y-39336000D01*
X36465000Y-43450000D02*
X36830000Y-43815000D01*
X36465000Y-39336000D02*
X36465000Y-43450000D01*
G04 #@! TO.N,Net-(R1-Pad2)*
X39558000Y-38143000D02*
X40290000Y-38143000D01*
X40290000Y-38143000D02*
X41656000Y-36713500D01*
G04 #@! TD*
M02*
