G04 #@! TF.GenerationSoftware,KiCad,Pcbnew,5.0.2-bee76a0~70~ubuntu18.04.1*
G04 #@! TF.CreationDate,2019-03-29T20:37:00+01:00*
G04 #@! TF.ProjectId,TMC2660_mount,544d4332-3636-4305-9f6d-6f756e742e6b,rev?*
G04 #@! TF.SameCoordinates,PX48f7b77PY788f099*
G04 #@! TF.FileFunction,Copper,L1,Top*
G04 #@! TF.FilePolarity,Positive*
%FSLAX46Y46*%
G04 Gerber Fmt 4.6, Leading zero omitted, Abs format (unit mm)*
G04 Created by KiCad (PCBNEW 5.0.2-bee76a0~70~ubuntu18.04.1) date 2019-03-29T20:37:00 CET*
%MOMM*%
%LPD*%
G01*
G04 APERTURE LIST*
G04 #@! TA.AperFunction,ComponentPad*
%ADD10O,1.700000X1.700000*%
G04 #@! TD*
G04 #@! TA.AperFunction,ComponentPad*
%ADD11R,1.700000X1.700000*%
G04 #@! TD*
G04 #@! TA.AperFunction,ComponentPad*
%ADD12C,3.000000*%
G04 #@! TD*
G04 #@! TA.AperFunction,ComponentPad*
%ADD13R,3.000000X3.000000*%
G04 #@! TD*
G04 #@! TA.AperFunction,Conductor*
%ADD14C,1.700000*%
G04 #@! TD*
G04 #@! TA.AperFunction,Conductor*
%ADD15C,0.300000*%
G04 #@! TD*
%ADD16C,0.300000*%
G04 APERTURE END LIST*
D10*
G04 #@! TO.P,J4,4*
G04 #@! TO.N,/SDO*
X3810000Y5080000D03*
G04 #@! TO.P,J4,3*
G04 #@! TO.N,/SDI*
X3810000Y7620000D03*
G04 #@! TO.P,J4,2*
G04 #@! TO.N,/SCK*
X3810000Y10160000D03*
D11*
G04 #@! TO.P,J4,1*
G04 #@! TO.N,/CSn*
X3810000Y12700000D03*
G04 #@! TD*
D12*
G04 #@! TO.P,J3,6*
G04 #@! TO.N,/VS*
X62230000Y5080000D03*
G04 #@! TO.P,J3,5*
G04 #@! TO.N,GND*
X57150000Y5080000D03*
G04 #@! TO.P,J3,4*
G04 #@! TO.N,/A1*
X52070000Y5080000D03*
D13*
G04 #@! TO.P,J3,1*
G04 #@! TO.N,/B2*
X36830000Y5080000D03*
D12*
G04 #@! TO.P,J3,3*
G04 #@! TO.N,/A2*
X46990000Y5080000D03*
G04 #@! TO.P,J3,2*
G04 #@! TO.N,/B1*
X41910000Y5080000D03*
G04 #@! TD*
G04 #@! TO.P,J2,3*
G04 #@! TO.N,/DIR*
X31750000Y5080000D03*
G04 #@! TO.P,J2,2*
G04 #@! TO.N,/STEP*
X26670000Y5080000D03*
D13*
G04 #@! TO.P,J2,1*
G04 #@! TO.N,/DRV_ENn*
X21590000Y5080000D03*
G04 #@! TD*
D12*
G04 #@! TO.P,J1,2*
G04 #@! TO.N,GND*
X16510000Y5080000D03*
D13*
G04 #@! TO.P,J1,1*
G04 #@! TO.N,/VCC*
X11430000Y5080000D03*
G04 #@! TD*
D10*
G04 #@! TO.P,P1,1*
G04 #@! TO.N,/CSn*
X3810000Y27940000D03*
G04 #@! TO.P,P1,2*
G04 #@! TO.N,/SCK*
X3810000Y30480000D03*
G04 #@! TO.P,P1,3*
G04 #@! TO.N,/SDI*
X3810000Y33020000D03*
G04 #@! TO.P,P1,4*
G04 #@! TO.N,/SDO*
X3810000Y35560000D03*
G04 #@! TD*
G04 #@! TO.P,P2,1*
G04 #@! TO.N,/STEP*
X39370000Y22860000D03*
G04 #@! TO.P,P2,2*
G04 #@! TO.N,/DIR*
X39370000Y20320000D03*
G04 #@! TD*
G04 #@! TO.P,P3,4*
G04 #@! TO.N,GND*
X3810000Y25400000D03*
G04 #@! TO.P,P3,3*
G04 #@! TO.N,/DRV_ENn*
X3810000Y22860000D03*
G04 #@! TO.P,P3,2*
G04 #@! TO.N,GND*
X3810000Y20320000D03*
G04 #@! TO.P,P3,1*
G04 #@! TO.N,/SG_TST*
X3810000Y17780000D03*
G04 #@! TD*
G04 #@! TO.P,P4,1*
G04 #@! TO.N,GND*
X39370000Y17780000D03*
G04 #@! TD*
G04 #@! TO.P,P5,1*
G04 #@! TO.N,GND*
X39370000Y25400000D03*
G04 #@! TD*
G04 #@! TO.P,P6,2*
G04 #@! TO.N,/A1*
X39370000Y35560000D03*
G04 #@! TO.P,P6,1*
G04 #@! TO.N,/A2*
X39370000Y33020000D03*
G04 #@! TD*
G04 #@! TO.P,P7,1*
G04 #@! TO.N,/B2*
X39370000Y27940000D03*
G04 #@! TO.P,P7,2*
G04 #@! TO.N,/B1*
X39370000Y30480000D03*
G04 #@! TD*
G04 #@! TO.P,P8,1*
G04 #@! TO.N,GND*
X3810000Y38100000D03*
G04 #@! TO.P,P8,2*
G04 #@! TO.N,/VCC*
X3810000Y40640000D03*
G04 #@! TD*
G04 #@! TO.P,P9,2*
G04 #@! TO.N,/VS*
X39370000Y40640000D03*
G04 #@! TO.P,P9,1*
G04 #@! TO.N,GND*
X39370000Y38100000D03*
G04 #@! TD*
D11*
G04 #@! TO.P,J5,1*
G04 #@! TO.N,/SG_TST*
X7620000Y15240000D03*
G04 #@! TD*
D14*
G04 #@! TO.N,/VS*
X62230000Y25654000D02*
X62230000Y5080000D01*
X39370000Y40640000D02*
X47244000Y40640000D01*
X47244000Y40640000D02*
X62230000Y25654000D01*
G04 #@! TO.N,/A1*
X39370000Y35560000D02*
X44450000Y35560000D01*
X44450000Y35560000D02*
X52070000Y27940000D01*
X52070000Y27940000D02*
X52070000Y5080000D01*
G04 #@! TO.N,/B2*
X43688000Y13969600D02*
X36830000Y7111600D01*
X36830000Y7086600D02*
X36830000Y5080000D01*
X44450000Y14706600D02*
X43688000Y13944600D01*
X44450000Y24638000D02*
X44450000Y14706600D01*
X39370000Y27940000D02*
X41148000Y27940000D01*
X41148000Y27940000D02*
X44450000Y24638000D01*
G04 #@! TO.N,/A2*
X46990000Y5080000D02*
X46990000Y5462600D01*
X48768000Y7365600D02*
X46990000Y5587600D01*
X49530000Y8132600D02*
X48768000Y7370600D01*
X39370000Y33020000D02*
X43434000Y33020000D01*
X49530000Y26924000D02*
X49530000Y8132600D01*
X43434000Y33020000D02*
X49530000Y26924000D01*
G04 #@! TO.N,/B1*
X46990000Y10160000D02*
X41910000Y5080000D01*
X46990000Y25908000D02*
X46990000Y10160000D01*
X39370000Y30480000D02*
X42418000Y30480000D01*
X42418000Y30480000D02*
X46990000Y25908000D01*
G04 #@! TD*
D15*
G04 #@! TO.N,GND*
X64901831Y42322000D02*
X33650169Y42322000D01*
X38566437Y42037000D02*
X33365169Y42037000D01*
X65182001Y42037000D02*
X48047564Y42037000D01*
X38179091Y41752000D02*
X33156119Y41752000D01*
X65182001Y41752000D02*
X48434910Y41752000D01*
X37988660Y41467000D02*
X32977041Y41467000D01*
X65182001Y41467000D02*
X48691055Y41467000D01*
X37838309Y41182000D02*
X32863158Y41182000D01*
X65182001Y41182000D02*
X48976055Y41182000D01*
X37781619Y40897000D02*
X32763432Y40897000D01*
X65182001Y40897000D02*
X49261055Y40897000D01*
X37736067Y40612000D02*
X32711623Y40612000D01*
X65182001Y40612000D02*
X49546055Y40612000D01*
X37792757Y40327000D02*
X32679511Y40327000D01*
X65182001Y40327000D02*
X49831055Y40327000D01*
X37849447Y40042000D02*
X32662000Y40042000D01*
X65182001Y40042000D02*
X50116055Y40042000D01*
X38026077Y39757000D02*
X32662000Y39757000D01*
X65182001Y39757000D02*
X50401055Y39757000D01*
X38223713Y39472000D02*
X32662000Y39472000D01*
X65182001Y39472000D02*
X50686055Y39472000D01*
X38340067Y39187000D02*
X32662000Y39187000D01*
X65182001Y39187000D02*
X50971055Y39187000D01*
X38120957Y38902000D02*
X32662000Y38902000D01*
X46707945Y38902000D02*
X40619044Y38902000D01*
X65182001Y38902000D02*
X51256055Y38902000D01*
X37955492Y38617000D02*
X32662000Y38617000D01*
X46992945Y38617000D02*
X40784509Y38617000D01*
X65182001Y38617000D02*
X51541055Y38617000D01*
X47277945Y38332000D02*
X32662000Y38332000D01*
X65182001Y38332000D02*
X51826055Y38332000D01*
X47562945Y38047000D02*
X32662000Y38047000D01*
X65182001Y38047000D02*
X52111055Y38047000D01*
X38010763Y37762000D02*
X32662000Y37762000D01*
X47847945Y37762000D02*
X40729238Y37762000D01*
X65182001Y37762000D02*
X52396055Y37762000D01*
X37999386Y37477000D02*
X32662000Y37477000D01*
X48132945Y37477000D02*
X40740613Y37477000D01*
X65182001Y37477000D02*
X52681055Y37477000D01*
X38202449Y37192000D02*
X32662000Y37192000D01*
X44412286Y37192000D02*
X40537550Y37192000D01*
X48417945Y37192000D02*
X44487715Y37192000D01*
X65182001Y37192000D02*
X52966055Y37192000D01*
X38477920Y36907000D02*
X32662000Y36907000D01*
X48702945Y36907000D02*
X45328395Y36907000D01*
X65182001Y36907000D02*
X53251055Y36907000D01*
X38145682Y36622000D02*
X32662000Y36622000D01*
X48987945Y36622000D02*
X45674319Y36622000D01*
X65182001Y36622000D02*
X53536055Y36622000D01*
X37955251Y36337000D02*
X32662000Y36337000D01*
X49272945Y36337000D02*
X45947055Y36337000D01*
X65182001Y36337000D02*
X53821055Y36337000D01*
X37828364Y36052000D02*
X32662000Y36052000D01*
X49557945Y36052000D02*
X46232055Y36052000D01*
X65182001Y36052000D02*
X54106055Y36052000D01*
X37771673Y35767000D02*
X32662000Y35767000D01*
X49842945Y35767000D02*
X46517055Y35767000D01*
X65182001Y35767000D02*
X54391055Y35767000D01*
X37746013Y35482000D02*
X32662000Y35482000D01*
X50127945Y35482000D02*
X46802055Y35482000D01*
X65182001Y35482000D02*
X54676055Y35482000D01*
X37802703Y35197000D02*
X32662000Y35197000D01*
X50412945Y35197000D02*
X47087055Y35197000D01*
X65182001Y35197000D02*
X54961055Y35197000D01*
X37869055Y34912000D02*
X32662000Y34912000D01*
X50697945Y34912000D02*
X47372055Y34912000D01*
X65182001Y34912000D02*
X55246055Y34912000D01*
X38059486Y34627000D02*
X32662000Y34627000D01*
X50982945Y34627000D02*
X47657055Y34627000D01*
X65182001Y34627000D02*
X55531055Y34627000D01*
X38298543Y34342000D02*
X32662000Y34342000D01*
X51267945Y34342000D02*
X47942055Y34342000D01*
X65182001Y34342000D02*
X55816055Y34342000D01*
X38128977Y34057000D02*
X32662000Y34057000D01*
X51552945Y34057000D02*
X48227055Y34057000D01*
X65182001Y34057000D02*
X56101055Y34057000D01*
X37938547Y33772000D02*
X32662000Y33772000D01*
X51837945Y33772000D02*
X48512055Y33772000D01*
X65182001Y33772000D02*
X56386055Y33772000D01*
X37823391Y33487000D02*
X32662000Y33487000D01*
X52122945Y33487000D02*
X48797055Y33487000D01*
X65182001Y33487000D02*
X56671055Y33487000D01*
X37766701Y33202000D02*
X32662000Y33202000D01*
X52407945Y33202000D02*
X49082055Y33202000D01*
X65182001Y33202000D02*
X56956055Y33202000D01*
X37750986Y32917000D02*
X32662000Y32917000D01*
X52692945Y32917000D02*
X49367055Y32917000D01*
X65182001Y32917000D02*
X57241055Y32917000D01*
X37807676Y32632000D02*
X32662000Y32632000D01*
X52977945Y32632000D02*
X49652055Y32632000D01*
X65182001Y32632000D02*
X57526055Y32632000D01*
X37885760Y32347000D02*
X32662000Y32347000D01*
X53262945Y32347000D02*
X49937055Y32347000D01*
X65182001Y32347000D02*
X57811055Y32347000D01*
X38076190Y32062000D02*
X32662000Y32062000D01*
X53547945Y32062000D02*
X50222055Y32062000D01*
X65182001Y32062000D02*
X58096055Y32062000D01*
X38335958Y31777000D02*
X32662000Y31777000D01*
X53832945Y31777000D02*
X50507055Y31777000D01*
X65182001Y31777000D02*
X58381055Y31777000D01*
X38112273Y31492000D02*
X32662000Y31492000D01*
X54117945Y31492000D02*
X50792055Y31492000D01*
X65182001Y31492000D02*
X58666055Y31492000D01*
X37921842Y31207000D02*
X32662000Y31207000D01*
X54402945Y31207000D02*
X51077055Y31207000D01*
X65182001Y31207000D02*
X58951055Y31207000D01*
X37818418Y30922000D02*
X32662000Y30922000D01*
X54687945Y30922000D02*
X51362055Y30922000D01*
X65182001Y30922000D02*
X59236055Y30922000D01*
X37761728Y30637000D02*
X32662000Y30637000D01*
X54972945Y30637000D02*
X51647055Y30637000D01*
X65182001Y30637000D02*
X59521055Y30637000D01*
X37755958Y30352000D02*
X32662000Y30352000D01*
X55257945Y30352000D02*
X51932055Y30352000D01*
X65182001Y30352000D02*
X59806055Y30352000D01*
X37812649Y30067000D02*
X32662000Y30067000D01*
X55542945Y30067000D02*
X52217055Y30067000D01*
X65182001Y30067000D02*
X60091055Y30067000D01*
X37902464Y29782000D02*
X32662000Y29782000D01*
X55827945Y29782000D02*
X52502055Y29782000D01*
X65182001Y29782000D02*
X60376055Y29782000D01*
X38092895Y29497000D02*
X32662000Y29497000D01*
X56112945Y29497000D02*
X52787055Y29497000D01*
X65182001Y29497000D02*
X60661055Y29497000D01*
X38373373Y29212000D02*
X32662000Y29212000D01*
X56397945Y29212000D02*
X53072055Y29212000D01*
X65182001Y29212000D02*
X60946055Y29212000D01*
X38095568Y28927000D02*
X32662000Y28927000D01*
X56682945Y28927000D02*
X53344433Y28927000D01*
X65182001Y28927000D02*
X61231055Y28927000D01*
X37905138Y28642000D02*
X32662000Y28642000D01*
X56967945Y28642000D02*
X53534863Y28642000D01*
X65182001Y28642000D02*
X61516055Y28642000D01*
X37813445Y28357000D02*
X32662000Y28357000D01*
X57252945Y28357000D02*
X53626556Y28357000D01*
X65182001Y28357000D02*
X61801055Y28357000D01*
X37756755Y28072000D02*
X32662000Y28072000D01*
X57537945Y28072000D02*
X53683245Y28072000D01*
X65182001Y28072000D02*
X62086055Y28072000D01*
X37760931Y27787000D02*
X32662000Y27787000D01*
X57822945Y27787000D02*
X53679067Y27787000D01*
X65182001Y27787000D02*
X62371055Y27787000D01*
X37817621Y27502000D02*
X32662000Y27502000D01*
X58107945Y27502000D02*
X53678000Y27502000D01*
X65182001Y27502000D02*
X62656055Y27502000D01*
X37919169Y27217000D02*
X32662000Y27217000D01*
X58392945Y27217000D02*
X53678000Y27217000D01*
X65182001Y27217000D02*
X62941055Y27217000D01*
X38109599Y26932000D02*
X32662000Y26932000D01*
X58677945Y26932000D02*
X53678000Y26932000D01*
X65182001Y26932000D02*
X63226055Y26932000D01*
X38410789Y26647000D02*
X32662000Y26647000D01*
X58962945Y26647000D02*
X53678000Y26647000D01*
X65182001Y26647000D02*
X63500423Y26647000D01*
X38243966Y26362000D02*
X32662000Y26362000D01*
X59247945Y26362000D02*
X53678000Y26362000D01*
X65182001Y26362000D02*
X63690854Y26362000D01*
X38024857Y26077000D02*
X32662000Y26077000D01*
X40736945Y26077000D02*
X40715144Y26077000D01*
X59532945Y26077000D02*
X53678000Y26077000D01*
X65182001Y26077000D02*
X63785362Y26077000D01*
X37985070Y25792000D02*
X32662000Y25792000D01*
X41021945Y25792000D02*
X40754929Y25792000D01*
X59817945Y25792000D02*
X53678000Y25792000D01*
X65182001Y25792000D02*
X63842052Y25792000D01*
X41306945Y25507000D02*
X32662000Y25507000D01*
X60102945Y25507000D02*
X53678000Y25507000D01*
X65182001Y25507000D02*
X63840260Y25507000D01*
X41591945Y25222000D02*
X32662000Y25222000D01*
X60387945Y25222000D02*
X53678000Y25222000D01*
X65182001Y25222000D02*
X63838000Y25222000D01*
X37951289Y24937000D02*
X32662000Y24937000D01*
X41876945Y24937000D02*
X40788712Y24937000D01*
X60622000Y24937000D02*
X53678000Y24937000D01*
X65182001Y24937000D02*
X63838000Y24937000D01*
X38079441Y24652000D02*
X32662000Y24652000D01*
X42161945Y24652000D02*
X40660558Y24652000D01*
X60622000Y24652000D02*
X53678000Y24652000D01*
X65182001Y24652000D02*
X63838000Y24652000D01*
X38298550Y24367000D02*
X32662000Y24367000D01*
X42446945Y24367000D02*
X40441449Y24367000D01*
X60622000Y24367000D02*
X53678000Y24367000D01*
X65182001Y24367000D02*
X63838000Y24367000D01*
X38304531Y24082000D02*
X32662000Y24082000D01*
X42731945Y24082000D02*
X40435470Y24082000D01*
X60622000Y24082000D02*
X53678000Y24082000D01*
X65182001Y24082000D02*
X63838000Y24082000D01*
X38062160Y23797000D02*
X32662000Y23797000D01*
X42842000Y23797000D02*
X40677841Y23797000D01*
X60622000Y23797000D02*
X53678000Y23797000D01*
X65182001Y23797000D02*
X63838000Y23797000D01*
X37871729Y23512000D02*
X32662000Y23512000D01*
X42842000Y23512000D02*
X40868272Y23512000D01*
X60622000Y23512000D02*
X53678000Y23512000D01*
X65182001Y23512000D02*
X63838000Y23512000D01*
X37803500Y23227000D02*
X32662000Y23227000D01*
X42842000Y23227000D02*
X40936501Y23227000D01*
X60622000Y23227000D02*
X53678000Y23227000D01*
X65182001Y23227000D02*
X63838000Y23227000D01*
X37746809Y22942000D02*
X32662000Y22942000D01*
X42842000Y22942000D02*
X40993192Y22942000D01*
X60622000Y22942000D02*
X53678000Y22942000D01*
X65182001Y22942000D02*
X63838000Y22942000D01*
X37770877Y22657000D02*
X32662000Y22657000D01*
X42842000Y22657000D02*
X40969122Y22657000D01*
X60622000Y22657000D02*
X53678000Y22657000D01*
X65182001Y22657000D02*
X63838000Y22657000D01*
X37827567Y22372000D02*
X32662000Y22372000D01*
X42842000Y22372000D02*
X40912432Y22372000D01*
X60622000Y22372000D02*
X53678000Y22372000D01*
X65182001Y22372000D02*
X63838000Y22372000D01*
X37952577Y22087000D02*
X32662000Y22087000D01*
X42842000Y22087000D02*
X40787422Y22087000D01*
X60622000Y22087000D02*
X53678000Y22087000D01*
X65182001Y22087000D02*
X63838000Y22087000D01*
X38143008Y21802000D02*
X32662000Y21802000D01*
X42842000Y21802000D02*
X40596991Y21802000D01*
X60622000Y21802000D02*
X53678000Y21802000D01*
X65182001Y21802000D02*
X63838000Y21802000D01*
X38267115Y21517000D02*
X32662000Y21517000D01*
X42842000Y21517000D02*
X40472886Y21517000D01*
X60622000Y21517000D02*
X53678000Y21517000D01*
X65182001Y21517000D02*
X63838000Y21517000D01*
X38045455Y21232000D02*
X32662000Y21232000D01*
X42842000Y21232000D02*
X40694546Y21232000D01*
X60622000Y21232000D02*
X53678000Y21232000D01*
X65182001Y21232000D02*
X63838000Y21232000D01*
X37855217Y20947000D02*
X32662000Y20947000D01*
X42842000Y20947000D02*
X40884784Y20947000D01*
X60622000Y20947000D02*
X53678000Y20947000D01*
X65182001Y20947000D02*
X63838000Y20947000D01*
X37798527Y20662000D02*
X32662000Y20662000D01*
X42842000Y20662000D02*
X40941474Y20662000D01*
X60622000Y20662000D02*
X53678000Y20662000D01*
X65182001Y20662000D02*
X63838000Y20662000D01*
X37741837Y20377000D02*
X32662000Y20377000D01*
X42842000Y20377000D02*
X40998164Y20377000D01*
X60622000Y20377000D02*
X53678000Y20377000D01*
X65182001Y20377000D02*
X63838000Y20377000D01*
X37775850Y20092000D02*
X32662000Y20092000D01*
X42842000Y20092000D02*
X40964149Y20092000D01*
X60622000Y20092000D02*
X53678000Y20092000D01*
X65182001Y20092000D02*
X63838000Y20092000D01*
X37832540Y19807000D02*
X32662000Y19807000D01*
X42842000Y19807000D02*
X40907459Y19807000D01*
X60622000Y19807000D02*
X53678000Y19807000D01*
X65182001Y19807000D02*
X63838000Y19807000D01*
X37969282Y19522000D02*
X32662000Y19522000D01*
X42842000Y19522000D02*
X40770717Y19522000D01*
X60622000Y19522000D02*
X53678000Y19522000D01*
X65182001Y19522000D02*
X63838000Y19522000D01*
X38159713Y19237000D02*
X32662000Y19237000D01*
X42842000Y19237000D02*
X40580286Y19237000D01*
X60622000Y19237000D02*
X53678000Y19237000D01*
X65182001Y19237000D02*
X63838000Y19237000D01*
X38441470Y18952000D02*
X32662000Y18952000D01*
X42842000Y18952000D02*
X40298531Y18952000D01*
X60622000Y18952000D02*
X53678000Y18952000D01*
X65182001Y18952000D02*
X63838000Y18952000D01*
X38186306Y18667000D02*
X32662000Y18667000D01*
X42842000Y18667000D02*
X40553695Y18667000D01*
X60622000Y18667000D02*
X53678000Y18667000D01*
X65182001Y18667000D02*
X63838000Y18667000D01*
X37990691Y18382000D02*
X32662000Y18382000D01*
X42842000Y18382000D02*
X40749310Y18382000D01*
X60622000Y18382000D02*
X53678000Y18382000D01*
X65182001Y18382000D02*
X63838000Y18382000D01*
X38020754Y18097000D02*
X32662000Y18097000D01*
X42842000Y18097000D02*
X40719245Y18097000D01*
X60622000Y18097000D02*
X53678000Y18097000D01*
X65182001Y18097000D02*
X63838000Y18097000D01*
X42842000Y17812000D02*
X32662000Y17812000D01*
X60622000Y17812000D02*
X53678000Y17812000D01*
X65182001Y17812000D02*
X63838000Y17812000D01*
X42842000Y17527000D02*
X32662000Y17527000D01*
X60622000Y17527000D02*
X53678000Y17527000D01*
X65182001Y17527000D02*
X63838000Y17527000D01*
X37964187Y17242000D02*
X32662000Y17242000D01*
X39624000Y17242000D02*
X39116000Y17242000D01*
X42842000Y17242000D02*
X40775812Y17242000D01*
X60622000Y17242000D02*
X53678000Y17242000D01*
X65182001Y17242000D02*
X63838000Y17242000D01*
X38137101Y16957000D02*
X32662000Y16957000D01*
X39624000Y16957000D02*
X39116000Y16957000D01*
X42842000Y16957000D02*
X40602898Y16957000D01*
X60622000Y16957000D02*
X53678000Y16957000D01*
X65182001Y16957000D02*
X63838000Y16957000D01*
X38356210Y16672000D02*
X32662000Y16672000D01*
X39624000Y16672000D02*
X39116000Y16672000D01*
X42842000Y16672000D02*
X40383789Y16672000D01*
X60622000Y16672000D02*
X53678000Y16672000D01*
X65182001Y16672000D02*
X63838000Y16672000D01*
X38825076Y16387000D02*
X32662000Y16387000D01*
X39777045Y16387000D02*
X38962954Y16387000D01*
X42842000Y16387000D02*
X39914923Y16387000D01*
X60622000Y16387000D02*
X53678000Y16387000D01*
X65182001Y16387000D02*
X63838000Y16387000D01*
X42842000Y16102000D02*
X32662000Y16102000D01*
X60622000Y16102000D02*
X53678000Y16102000D01*
X65182001Y16102000D02*
X63838000Y16102000D01*
X42842000Y15817000D02*
X32662000Y15817000D01*
X60622000Y15817000D02*
X53678000Y15817000D01*
X65182001Y15817000D02*
X63838000Y15817000D01*
X42842000Y15532000D02*
X32662000Y15532000D01*
X60622000Y15532000D02*
X53678000Y15532000D01*
X65182001Y15532000D02*
X63838000Y15532000D01*
X42705441Y15247000D02*
X32662000Y15247000D01*
X60622000Y15247000D02*
X53678000Y15247000D01*
X65182001Y15247000D02*
X63838000Y15247000D01*
X42406345Y14962000D02*
X32662000Y14962000D01*
X60622000Y14962000D02*
X53678000Y14962000D01*
X65182001Y14962000D02*
X63838000Y14962000D01*
X42121345Y14677000D02*
X32662000Y14677000D01*
X60622000Y14677000D02*
X53678000Y14677000D01*
X65182001Y14677000D02*
X63838000Y14677000D01*
X41836345Y14392000D02*
X32662000Y14392000D01*
X60622000Y14392000D02*
X53678000Y14392000D01*
X65182001Y14392000D02*
X63838000Y14392000D01*
X41551345Y14107000D02*
X32662000Y14107000D01*
X60622000Y14107000D02*
X53678000Y14107000D01*
X65182001Y14107000D02*
X63838000Y14107000D01*
X41266345Y13822000D02*
X32662000Y13822000D01*
X60622000Y13822000D02*
X53678000Y13822000D01*
X65182001Y13822000D02*
X63838000Y13822000D01*
X40981345Y13537000D02*
X32662000Y13537000D01*
X60622000Y13537000D02*
X53678000Y13537000D01*
X65182001Y13537000D02*
X63838000Y13537000D01*
X40696345Y13252000D02*
X32662000Y13252000D01*
X45382001Y13252000D02*
X45269454Y13252000D01*
X60622000Y13252000D02*
X53678000Y13252000D01*
X65182001Y13252000D02*
X63838000Y13252000D01*
X40411345Y12967000D02*
X32662000Y12967000D01*
X45382001Y12967000D02*
X44984454Y12967000D01*
X60622000Y12967000D02*
X53678000Y12967000D01*
X65182001Y12967000D02*
X63838000Y12967000D01*
X40126345Y12682000D02*
X32662000Y12682000D01*
X45382001Y12682000D02*
X44692706Y12682000D01*
X60622000Y12682000D02*
X53678000Y12682000D01*
X65182001Y12682000D02*
X63838000Y12682000D01*
X39841345Y12397000D02*
X32662000Y12397000D01*
X45382001Y12397000D02*
X44389455Y12397000D01*
X60622000Y12397000D02*
X53678000Y12397000D01*
X65182001Y12397000D02*
X63838000Y12397000D01*
X39556345Y12112000D02*
X32662000Y12112000D01*
X45382001Y12112000D02*
X44104455Y12112000D01*
X60622000Y12112000D02*
X53678000Y12112000D01*
X65182001Y12112000D02*
X63838000Y12112000D01*
X39271345Y11827000D02*
X32662000Y11827000D01*
X45382001Y11827000D02*
X43819455Y11827000D01*
X60622000Y11827000D02*
X53678000Y11827000D01*
X65182001Y11827000D02*
X63838000Y11827000D01*
X38986346Y11542000D02*
X32662000Y11542000D01*
X45382001Y11542000D02*
X43534455Y11542000D01*
X60622000Y11542000D02*
X53678000Y11542000D01*
X65182001Y11542000D02*
X63838000Y11542000D01*
X38701346Y11257000D02*
X32662000Y11257000D01*
X45382001Y11257000D02*
X43249455Y11257000D01*
X60622000Y11257000D02*
X53678000Y11257000D01*
X65182001Y11257000D02*
X63838000Y11257000D01*
X38416346Y10972000D02*
X32662000Y10972000D01*
X45382001Y10972000D02*
X42964455Y10972000D01*
X60622000Y10972000D02*
X53678000Y10972000D01*
X65182001Y10972000D02*
X63838000Y10972000D01*
X38131346Y10687000D02*
X32662000Y10687000D01*
X45242946Y10687000D02*
X42679455Y10687000D01*
X60622000Y10687000D02*
X53678000Y10687000D01*
X65182001Y10687000D02*
X63838000Y10687000D01*
X37846346Y10402000D02*
X32662000Y10402000D01*
X44957946Y10402000D02*
X42394455Y10402000D01*
X60622000Y10402000D02*
X53678000Y10402000D01*
X65182001Y10402000D02*
X63838000Y10402000D01*
X37561346Y10117000D02*
X32662000Y10117000D01*
X44672946Y10117000D02*
X42109455Y10117000D01*
X60622000Y10117000D02*
X53678000Y10117000D01*
X65182001Y10117000D02*
X63838000Y10117000D01*
X37276346Y9832000D02*
X32662000Y9832000D01*
X44387946Y9832000D02*
X41824455Y9832000D01*
X60622000Y9832000D02*
X53678000Y9832000D01*
X65182001Y9832000D02*
X63838000Y9832000D01*
X36991346Y9547000D02*
X32662000Y9547000D01*
X44102946Y9547000D02*
X41539455Y9547000D01*
X60622000Y9547000D02*
X53678000Y9547000D01*
X65182001Y9547000D02*
X63838000Y9547000D01*
X36706346Y9262000D02*
X32662000Y9262000D01*
X43817946Y9262000D02*
X41254455Y9262000D01*
X60622000Y9262000D02*
X53678000Y9262000D01*
X65182001Y9262000D02*
X63838000Y9262000D01*
X36421346Y8977000D02*
X32662000Y8977000D01*
X43532946Y8977000D02*
X40969455Y8977000D01*
X60622000Y8977000D02*
X53678000Y8977000D01*
X65182001Y8977000D02*
X63838000Y8977000D01*
X36136346Y8692000D02*
X32662000Y8692000D01*
X43247946Y8692000D02*
X40684455Y8692000D01*
X60622000Y8692000D02*
X53678000Y8692000D01*
X65182001Y8692000D02*
X63838000Y8692000D01*
X35851346Y8407000D02*
X32662000Y8407000D01*
X42962946Y8407000D02*
X40399455Y8407000D01*
X60622000Y8407000D02*
X53678000Y8407000D01*
X65182001Y8407000D02*
X63838000Y8407000D01*
X35571205Y8122000D02*
X32662000Y8122000D01*
X42677946Y8122000D02*
X40114455Y8122000D01*
X60622000Y8122000D02*
X53678000Y8122000D01*
X65182001Y8122000D02*
X63838000Y8122000D01*
X35380774Y7837000D02*
X32662000Y7837000D01*
X42392946Y7837000D02*
X39829455Y7837000D01*
X60622000Y7837000D02*
X53678000Y7837000D01*
X65182001Y7837000D02*
X63838000Y7837000D01*
X35278100Y7552000D02*
X32662000Y7552000D01*
X42107946Y7552000D02*
X39544455Y7552000D01*
X60622000Y7552000D02*
X53678000Y7552000D01*
X65182001Y7552000D02*
X63838000Y7552000D01*
X34993805Y7267000D02*
X32662000Y7267000D01*
X41289447Y7267000D02*
X39259455Y7267000D01*
X60622000Y7267000D02*
X53678000Y7267000D01*
X65182001Y7267000D02*
X63838000Y7267000D01*
X34686970Y6982000D02*
X33041294Y6982000D01*
X40618706Y6982000D02*
X38974455Y6982000D01*
X56062382Y6982000D02*
X53678000Y6982000D01*
X60622000Y6982000D02*
X58237619Y6982000D01*
X65182001Y6982000D02*
X63838000Y6982000D01*
X34580423Y6697000D02*
X33326294Y6697000D01*
X40333706Y6697000D02*
X39079578Y6697000D01*
X50462001Y6697000D02*
X50368454Y6697000D01*
X55906341Y6697000D02*
X53678000Y6697000D01*
X60622000Y6697000D02*
X58393660Y6697000D01*
X65182001Y6697000D02*
X63838000Y6697000D01*
X34557150Y6412000D02*
X33611294Y6412000D01*
X40048706Y6412000D02*
X39102850Y6412000D01*
X50208706Y6412000D02*
X50083454Y6412000D01*
X56177210Y6412000D02*
X53931294Y6412000D01*
X60368706Y6412000D02*
X58122790Y6412000D01*
X65182001Y6412000D02*
X64091294Y6412000D01*
X34557150Y6127000D02*
X33760360Y6127000D01*
X39899641Y6127000D02*
X39102850Y6127000D01*
X50059641Y6127000D02*
X49803455Y6127000D01*
X55222019Y6127000D02*
X54080360Y6127000D01*
X56462210Y6127000D02*
X55743790Y6127000D01*
X58556210Y6127000D02*
X57837790Y6127000D01*
X60219641Y6127000D02*
X59080779Y6127000D01*
X65182001Y6127000D02*
X64240360Y6127000D01*
X34557150Y5842000D02*
X33878411Y5842000D01*
X39781590Y5842000D02*
X39102850Y5842000D01*
X49941590Y5842000D02*
X49518455Y5842000D01*
X55128750Y5842000D02*
X54198411Y5842000D01*
X56747210Y5842000D02*
X56028790Y5842000D01*
X58271210Y5842000D02*
X57552790Y5842000D01*
X60101590Y5842000D02*
X59198830Y5842000D01*
X65182001Y5842000D02*
X64358411Y5842000D01*
X34557150Y5557000D02*
X33996462Y5557000D01*
X39663539Y5557000D02*
X39102850Y5557000D01*
X44743539Y5557000D02*
X44661054Y5557000D01*
X49823539Y5557000D02*
X49236462Y5557000D01*
X55035482Y5557000D02*
X54316462Y5557000D01*
X57032210Y5557000D02*
X56313790Y5557000D01*
X57986210Y5557000D02*
X57267790Y5557000D01*
X59983539Y5557000D02*
X59277793Y5557000D01*
X65182001Y5557000D02*
X64476462Y5557000D01*
X34557150Y5272000D02*
X34008000Y5272000D01*
X39652000Y5272000D02*
X39102850Y5272000D01*
X44732000Y5272000D02*
X44376054Y5272000D01*
X49812000Y5272000D02*
X49248000Y5272000D01*
X54970978Y5272000D02*
X54328000Y5272000D01*
X57701210Y5272000D02*
X56598790Y5272000D01*
X59972000Y5272000D02*
X59299617Y5272000D01*
X65182001Y5272000D02*
X64488000Y5272000D01*
X34557150Y4987000D02*
X34008000Y4987000D01*
X39652000Y4987000D02*
X39102850Y4987000D01*
X44732000Y4987000D02*
X44168000Y4987000D01*
X49812000Y4987000D02*
X49248000Y4987000D01*
X54992802Y4987000D02*
X54328000Y4987000D01*
X57602210Y4987000D02*
X56697790Y4987000D01*
X59972000Y4987000D02*
X59321441Y4987000D01*
X65182001Y4987000D02*
X64488000Y4987000D01*
X34557150Y4702000D02*
X34008000Y4702000D01*
X39652000Y4702000D02*
X39102850Y4702000D01*
X44732000Y4702000D02*
X44168000Y4702000D01*
X49812000Y4702000D02*
X49248000Y4702000D01*
X55014626Y4702000D02*
X54328000Y4702000D01*
X57131210Y4702000D02*
X56412790Y4702000D01*
X57887210Y4702000D02*
X57168790Y4702000D01*
X59972000Y4702000D02*
X59296916Y4702000D01*
X65182001Y4702000D02*
X64488000Y4702000D01*
X34557150Y4417000D02*
X33919417Y4417000D01*
X39740582Y4417000D02*
X39102850Y4417000D01*
X44820582Y4417000D02*
X44079417Y4417000D01*
X49900582Y4417000D02*
X49159417Y4417000D01*
X55060162Y4417000D02*
X54239417Y4417000D01*
X56846210Y4417000D02*
X56127790Y4417000D01*
X58172210Y4417000D02*
X57453790Y4417000D01*
X60060582Y4417000D02*
X59203648Y4417000D01*
X65182001Y4417000D02*
X64399417Y4417000D01*
X34557150Y4132000D02*
X33801367Y4132000D01*
X39858632Y4132000D02*
X39102850Y4132000D01*
X44938632Y4132000D02*
X43961367Y4132000D01*
X50018632Y4132000D02*
X49041367Y4132000D01*
X55178214Y4132000D02*
X54121367Y4132000D01*
X56561210Y4132000D02*
X55842790Y4132000D01*
X58457210Y4132000D02*
X57738790Y4132000D01*
X60178632Y4132000D02*
X59110380Y4132000D01*
X65182001Y4132000D02*
X64281367Y4132000D01*
X34557150Y3847000D02*
X33683316Y3847000D01*
X39976683Y3847000D02*
X39102850Y3847000D01*
X45056683Y3847000D02*
X43843316Y3847000D01*
X50136683Y3847000D02*
X48923316Y3847000D01*
X55513530Y3847000D02*
X54003316Y3847000D01*
X56276210Y3847000D02*
X55557790Y3847000D01*
X58742210Y3847000D02*
X58023790Y3847000D01*
X60296683Y3847000D02*
X58786469Y3847000D01*
X65182001Y3847000D02*
X64163316Y3847000D01*
X34560730Y3562000D02*
X33425294Y3562000D01*
X40234706Y3562000D02*
X39099269Y3562000D01*
X45314706Y3562000D02*
X43585294Y3562000D01*
X50394706Y3562000D02*
X48665294Y3562000D01*
X55991210Y3562000D02*
X53745294Y3562000D01*
X60554706Y3562000D02*
X58308790Y3562000D01*
X65182001Y3562000D02*
X63905294Y3562000D01*
X34620819Y3277000D02*
X33140294Y3277000D01*
X40519706Y3277000D02*
X39039180Y3277000D01*
X45599706Y3277000D02*
X43300294Y3277000D01*
X50679706Y3277000D02*
X48380294Y3277000D01*
X56008177Y3277000D02*
X53460294Y3277000D01*
X60839706Y3277000D02*
X58291822Y3277000D01*
X65182001Y3277000D02*
X63620294Y3277000D01*
X34845641Y2992000D02*
X32663851Y2992000D01*
X41050439Y2992000D02*
X38814358Y2992000D01*
X46130439Y2992000D02*
X42769560Y2992000D01*
X51210439Y2992000D02*
X47849560Y2992000D01*
X56591968Y2992000D02*
X52929560Y2992000D01*
X61370439Y2992000D02*
X57817434Y2992000D01*
X65182001Y2992000D02*
X63089560Y2992000D01*
X65182001Y2707000D02*
X32695963Y2707000D01*
X65182001Y2422000D02*
X32728075Y2422000D01*
X65182001Y2137000D02*
X32814521Y2137000D01*
X65182001Y1852000D02*
X32914246Y1852000D01*
X65182001Y1567000D02*
X33068780Y1567000D01*
X65182001Y1282000D02*
X33247858Y1282000D01*
X65040831Y997000D02*
X33511169Y997000D01*
X65182001Y42041830D02*
X65182001Y42041830D01*
X64897001Y858000D02*
X64897001Y42322000D01*
X64612001Y858000D02*
X64612001Y42322000D01*
X64327001Y5917829D02*
X64327001Y42322000D01*
X64327001Y858000D02*
X64327001Y4242170D01*
X64042001Y6461293D02*
X64042001Y42322000D01*
X64042001Y858000D02*
X64042001Y3698707D01*
X63757001Y26219578D02*
X63757001Y42322000D01*
X63757001Y858000D02*
X63757001Y3413707D01*
X63472001Y26689536D02*
X63472001Y42322000D01*
X63472001Y858000D02*
X63472001Y3150412D01*
X63187001Y26971053D02*
X63187001Y42322000D01*
X63187001Y858000D02*
X63187001Y3032361D01*
X62902001Y27256053D02*
X62902001Y42322000D01*
X62902001Y858000D02*
X62902001Y2914310D01*
X62617001Y27541053D02*
X62617001Y42322000D01*
X62617001Y858000D02*
X62617001Y2822000D01*
X62332001Y27826053D02*
X62332001Y42322000D01*
X62332001Y858000D02*
X62332001Y2822000D01*
X62047001Y28111053D02*
X62047001Y42322000D01*
X62047001Y858000D02*
X62047001Y2822000D01*
X61762001Y28396053D02*
X61762001Y42322000D01*
X61762001Y858000D02*
X61762001Y2829810D01*
X61477001Y28681053D02*
X61477001Y42322000D01*
X61477001Y858000D02*
X61477001Y2947861D01*
X61192001Y28966053D02*
X61192001Y42322000D01*
X61192001Y858000D02*
X61192001Y3065912D01*
X60907001Y29251053D02*
X60907001Y42322000D01*
X60907001Y858000D02*
X60907001Y3209705D01*
X60622001Y29536053D02*
X60622001Y42322000D01*
X60622001Y6665295D02*
X60622001Y6665295D01*
X60622001Y858000D02*
X60622001Y3494705D01*
X60337001Y29821053D02*
X60337001Y42322000D01*
X60337001Y6380295D02*
X60337001Y25272945D01*
X60337001Y858000D02*
X60337001Y3779705D01*
X60052001Y30106053D02*
X60052001Y42322000D01*
X60052001Y5722284D02*
X60052001Y25557945D01*
X60052001Y858000D02*
X60052001Y4437717D01*
X59767001Y30391053D02*
X59767001Y42322000D01*
X59767001Y858000D02*
X59767001Y25842945D01*
X59482001Y30676053D02*
X59482001Y42322000D01*
X59482001Y858000D02*
X59482001Y26127945D01*
X59197001Y30961053D02*
X59197001Y42322000D01*
X59197001Y5846414D02*
X59197001Y26412945D01*
X59197001Y858000D02*
X59197001Y4396687D01*
X58912001Y31246053D02*
X58912001Y42322000D01*
X58912001Y6244269D02*
X58912001Y26697945D01*
X58912001Y858000D02*
X58912001Y3915730D01*
X58627001Y31531053D02*
X58627001Y42322000D01*
X58627001Y6197791D02*
X58627001Y26982945D01*
X58627001Y858000D02*
X58627001Y3962209D01*
X58342001Y31816053D02*
X58342001Y42322000D01*
X58342001Y6791351D02*
X58342001Y27267945D01*
X58342001Y5912791D02*
X58342001Y6631211D01*
X58342001Y3528789D02*
X58342001Y4247209D01*
X58342001Y858000D02*
X58342001Y3368648D01*
X58057001Y32101053D02*
X58057001Y42322000D01*
X58057001Y7053797D02*
X58057001Y27552945D01*
X58057001Y5627791D02*
X58057001Y6346211D01*
X58057001Y3813789D02*
X58057001Y4532209D01*
X58057001Y858000D02*
X58057001Y3091232D01*
X57772001Y32386053D02*
X57772001Y42322000D01*
X57772001Y7147065D02*
X57772001Y27837945D01*
X57772001Y5342791D02*
X57772001Y6061211D01*
X57772001Y4098789D02*
X57772001Y4817209D01*
X57772001Y858000D02*
X57772001Y2973180D01*
X57487001Y32671053D02*
X57487001Y42322000D01*
X57487001Y7240333D02*
X57487001Y28122945D01*
X57487001Y5080000D02*
X57487001Y5776211D01*
X57487001Y4383789D02*
X57487001Y5080000D01*
X57487001Y858000D02*
X57487001Y2941487D01*
X57202001Y32956053D02*
X57202001Y42322000D01*
X57202001Y7248302D02*
X57202001Y28407945D01*
X57202001Y5080000D02*
X57202001Y5491211D01*
X57202001Y4668789D02*
X57202001Y5080000D01*
X57202001Y858000D02*
X57202001Y2919663D01*
X56917001Y33241053D02*
X56917001Y42322000D01*
X56917001Y7226477D02*
X56917001Y28692945D01*
X56917001Y5080000D02*
X56917001Y5672209D01*
X56917001Y4487791D02*
X56917001Y5080000D01*
X56917001Y858000D02*
X56917001Y2897838D01*
X56632001Y33526053D02*
X56632001Y42322000D01*
X56632001Y7204653D02*
X56632001Y28977945D01*
X56632001Y5238789D02*
X56632001Y5957209D01*
X56632001Y4202791D02*
X56632001Y4921211D01*
X56632001Y858000D02*
X56632001Y2978900D01*
X56347001Y33811053D02*
X56347001Y42322000D01*
X56347001Y7111848D02*
X56347001Y29262945D01*
X56347001Y5523789D02*
X56347001Y6242209D01*
X56347001Y3917791D02*
X56347001Y4636211D01*
X56347001Y858000D02*
X56347001Y3072168D01*
X56062001Y34096053D02*
X56062001Y42322000D01*
X56062001Y6981306D02*
X56062001Y29547945D01*
X56062001Y5808789D02*
X56062001Y6527209D01*
X56062001Y3632791D02*
X56062001Y4351211D01*
X56062001Y858000D02*
X56062001Y3178695D01*
X55777001Y34381053D02*
X55777001Y42322000D01*
X55777001Y6687869D02*
X55777001Y29832945D01*
X55777001Y6093789D02*
X55777001Y6687869D01*
X55777001Y3472131D02*
X55777001Y4066211D01*
X55777001Y858000D02*
X55777001Y3472131D01*
X55492001Y34666053D02*
X55492001Y42322000D01*
X55492001Y6687869D02*
X55492001Y30117945D01*
X55492001Y6301213D02*
X55492001Y6687869D01*
X55492001Y3472131D02*
X55492001Y3858788D01*
X55492001Y858000D02*
X55492001Y3472131D01*
X55207001Y34951053D02*
X55207001Y42322000D01*
X55207001Y6687869D02*
X55207001Y30402945D01*
X55207001Y6081113D02*
X55207001Y6687869D01*
X55207001Y3472131D02*
X55207001Y4062504D01*
X55207001Y858000D02*
X55207001Y3472131D01*
X54922001Y35236053D02*
X54922001Y42322000D01*
X54922001Y6687869D02*
X54922001Y30687945D01*
X54922001Y5343229D02*
X54922001Y6687869D01*
X54922001Y3472131D02*
X54922001Y5343229D01*
X54922001Y858000D02*
X54922001Y3472131D01*
X54637001Y35521053D02*
X54637001Y42322000D01*
X54637001Y6687869D02*
X54637001Y30972945D01*
X54637001Y5343229D02*
X54637001Y6687869D01*
X54637001Y3472131D02*
X54637001Y5343229D01*
X54637001Y858000D02*
X54637001Y3472131D01*
X54352001Y35806053D02*
X54352001Y42322000D01*
X54352001Y6687869D02*
X54352001Y31257945D01*
X54352001Y5343229D02*
X54352001Y6687869D01*
X54352001Y3472131D02*
X54352001Y5343229D01*
X54352001Y858000D02*
X54352001Y3472131D01*
X54067001Y36091053D02*
X54067001Y42322000D01*
X54067001Y6687869D02*
X54067001Y31542945D01*
X54067001Y6159251D02*
X54067001Y6687869D01*
X54067001Y3472131D02*
X54067001Y4000748D01*
X54067001Y858000D02*
X54067001Y3472131D01*
X53782001Y36376053D02*
X53782001Y42322000D01*
X53782001Y6687869D02*
X53782001Y31827945D01*
X53782001Y6561293D02*
X53782001Y6687869D01*
X53782001Y3472131D02*
X53782001Y3598707D01*
X53782001Y858000D02*
X53782001Y3472131D01*
X53497001Y36661053D02*
X53497001Y42322000D01*
X53497001Y28698664D02*
X53497001Y32112945D01*
X53497001Y858000D02*
X53497001Y3313707D01*
X53212001Y36946053D02*
X53212001Y42322000D01*
X53212001Y29110863D02*
X53212001Y32397945D01*
X53212001Y858000D02*
X53212001Y3108990D01*
X52927001Y37231053D02*
X52927001Y42322000D01*
X52927001Y29357053D02*
X52927001Y32682945D01*
X52927001Y858000D02*
X52927001Y2990939D01*
X52642001Y37516053D02*
X52642001Y42322000D01*
X52642001Y29642053D02*
X52642001Y32967945D01*
X52642001Y858000D02*
X52642001Y2872889D01*
X52357001Y37801053D02*
X52357001Y42322000D01*
X52357001Y29927053D02*
X52357001Y33252945D01*
X52357001Y858000D02*
X52357001Y2822000D01*
X52072001Y38086053D02*
X52072001Y42322000D01*
X52072001Y30212053D02*
X52072001Y33537945D01*
X52072001Y858000D02*
X52072001Y2822000D01*
X51787001Y38371053D02*
X51787001Y42322000D01*
X51787001Y30497053D02*
X51787001Y33822945D01*
X51787001Y858000D02*
X51787001Y2822000D01*
X51502001Y38656053D02*
X51502001Y42322000D01*
X51502001Y30782053D02*
X51502001Y34107945D01*
X51502001Y858000D02*
X51502001Y2871232D01*
X51217001Y38941053D02*
X51217001Y42322000D01*
X51217001Y31067053D02*
X51217001Y34392945D01*
X51217001Y858000D02*
X51217001Y2989283D01*
X50932001Y39226053D02*
X50932001Y42322000D01*
X50932001Y31352053D02*
X50932001Y34677945D01*
X50932001Y858000D02*
X50932001Y3107334D01*
X50647001Y39511053D02*
X50647001Y42322000D01*
X50647001Y31637053D02*
X50647001Y34962945D01*
X50647001Y858000D02*
X50647001Y3309705D01*
X50362001Y39796053D02*
X50362001Y42322000D01*
X50362001Y31922053D02*
X50362001Y35247945D01*
X50362001Y6565295D02*
X50362001Y6690546D01*
X50362001Y858000D02*
X50362001Y3594705D01*
X50077001Y40081053D02*
X50077001Y42322000D01*
X50077001Y32207053D02*
X50077001Y35532945D01*
X50077001Y6168913D02*
X50077001Y6405546D01*
X50077001Y858000D02*
X50077001Y3991088D01*
X49792001Y40366053D02*
X49792001Y42322000D01*
X49792001Y32492053D02*
X49792001Y35817945D01*
X49792001Y858000D02*
X49792001Y6115545D01*
X49507001Y40651053D02*
X49507001Y42322000D01*
X49507001Y32777053D02*
X49507001Y36102945D01*
X49507001Y858000D02*
X49507001Y5830545D01*
X49222001Y40936053D02*
X49222001Y42322000D01*
X49222001Y33062053D02*
X49222001Y36387945D01*
X49222001Y858000D02*
X49222001Y4568088D01*
X48937001Y41221053D02*
X48937001Y42322000D01*
X48937001Y33347053D02*
X48937001Y36672945D01*
X48937001Y858000D02*
X48937001Y3880038D01*
X48652001Y41506053D02*
X48652001Y42322000D01*
X48652001Y33632053D02*
X48652001Y36957945D01*
X48652001Y858000D02*
X48652001Y3548707D01*
X48367001Y41823559D02*
X48367001Y42322000D01*
X48367001Y33917053D02*
X48367001Y37242945D01*
X48367001Y858000D02*
X48367001Y3263707D01*
X48082001Y42013989D02*
X48082001Y42322000D01*
X48082001Y34202053D02*
X48082001Y37527945D01*
X48082001Y858000D02*
X48082001Y3088280D01*
X47797001Y42169502D02*
X47797001Y42322000D01*
X47797001Y34487053D02*
X47797001Y37812945D01*
X47797001Y858000D02*
X47797001Y2970229D01*
X47512001Y42226193D02*
X47512001Y42322000D01*
X47512001Y34772053D02*
X47512001Y38097945D01*
X47512001Y858000D02*
X47512001Y2852178D01*
X47227001Y42276121D02*
X47227001Y42322000D01*
X47227001Y35057053D02*
X47227001Y38382945D01*
X47227001Y858000D02*
X47227001Y2822000D01*
X46942001Y42248000D02*
X46942001Y42322000D01*
X46942001Y35342053D02*
X46942001Y38667945D01*
X46942001Y858000D02*
X46942001Y2822000D01*
X46657001Y42248000D02*
X46657001Y42322000D01*
X46657001Y35627053D02*
X46657001Y38952945D01*
X46657001Y858000D02*
X46657001Y2822000D01*
X46372001Y42248000D02*
X46372001Y42322000D01*
X46372001Y35912053D02*
X46372001Y39032000D01*
X46372001Y858000D02*
X46372001Y2891943D01*
X46087001Y42248000D02*
X46087001Y42322000D01*
X46087001Y36197053D02*
X46087001Y39032000D01*
X46087001Y858000D02*
X46087001Y3009993D01*
X45802001Y42248000D02*
X45802001Y42322000D01*
X45802001Y36482053D02*
X45802001Y39032000D01*
X45802001Y858000D02*
X45802001Y3128044D01*
X45517001Y42248000D02*
X45517001Y42322000D01*
X45517001Y36780977D02*
X45517001Y39032000D01*
X45517001Y858000D02*
X45517001Y3359705D01*
X45232001Y42248000D02*
X45232001Y42322000D01*
X45232001Y36971407D02*
X45232001Y39032000D01*
X45232001Y10676056D02*
X45232001Y13214546D01*
X45232001Y858000D02*
X45232001Y3644705D01*
X44947001Y42248000D02*
X44947001Y42322000D01*
X44947001Y37100642D02*
X44947001Y39032000D01*
X44947001Y10391056D02*
X44947001Y12929546D01*
X44947001Y858000D02*
X44947001Y4111798D01*
X44662001Y42248000D02*
X44662001Y42322000D01*
X44662001Y37157332D02*
X44662001Y39032000D01*
X44662001Y10106056D02*
X44662001Y12661483D01*
X44662001Y858000D02*
X44662001Y5557947D01*
X44377001Y42248000D02*
X44377001Y42322000D01*
X44377001Y37184982D02*
X44377001Y39032000D01*
X44377001Y9821056D02*
X44377001Y12384545D01*
X44377001Y858000D02*
X44377001Y5272947D01*
X44092001Y42248000D02*
X44092001Y42322000D01*
X44092001Y37168000D02*
X44092001Y39032000D01*
X44092001Y9536056D02*
X44092001Y12099545D01*
X44092001Y858000D02*
X44092001Y4447378D01*
X43807001Y42248000D02*
X43807001Y42322000D01*
X43807001Y37168000D02*
X43807001Y39032000D01*
X43807001Y9251056D02*
X43807001Y11814545D01*
X43807001Y858000D02*
X43807001Y3783707D01*
X43522001Y42248000D02*
X43522001Y42322000D01*
X43522001Y37168000D02*
X43522001Y39032000D01*
X43522001Y8966056D02*
X43522001Y11529545D01*
X43522001Y858000D02*
X43522001Y3498707D01*
X43237001Y42248000D02*
X43237001Y42322000D01*
X43237001Y37168000D02*
X43237001Y39032000D01*
X43237001Y8681056D02*
X43237001Y11244545D01*
X43237001Y858000D02*
X43237001Y3213707D01*
X42952001Y42248000D02*
X42952001Y42322000D01*
X42952001Y37168000D02*
X42952001Y39032000D01*
X42952001Y8396056D02*
X42952001Y10959545D01*
X42952001Y858000D02*
X42952001Y3067569D01*
X42667001Y42248000D02*
X42667001Y42322000D01*
X42667001Y37168000D02*
X42667001Y39032000D01*
X42667001Y15221316D02*
X42667001Y24146945D01*
X42667001Y8111056D02*
X42667001Y10674545D01*
X42667001Y858000D02*
X42667001Y2949518D01*
X42382001Y42248000D02*
X42382001Y42322000D01*
X42382001Y37168000D02*
X42382001Y39032000D01*
X42382001Y14937657D02*
X42382001Y24431945D01*
X42382001Y7826056D02*
X42382001Y10389545D01*
X42382001Y858000D02*
X42382001Y2831467D01*
X42097001Y42248000D02*
X42097001Y42322000D01*
X42097001Y37168000D02*
X42097001Y39032000D01*
X42097001Y14652657D02*
X42097001Y24716945D01*
X42097001Y7541056D02*
X42097001Y10104545D01*
X42097001Y858000D02*
X42097001Y2822000D01*
X41812001Y42248000D02*
X41812001Y42322000D01*
X41812001Y37168000D02*
X41812001Y39032000D01*
X41812001Y14367657D02*
X41812001Y25001945D01*
X41812001Y7338000D02*
X41812001Y9819545D01*
X41812001Y858000D02*
X41812001Y2822000D01*
X41527001Y42248000D02*
X41527001Y42322000D01*
X41527001Y37168000D02*
X41527001Y39032000D01*
X41527001Y14082657D02*
X41527001Y25286945D01*
X41527001Y7338000D02*
X41527001Y9534545D01*
X41527001Y858000D02*
X41527001Y2822000D01*
X41242001Y42248000D02*
X41242001Y42322000D01*
X41242001Y37168000D02*
X41242001Y39032000D01*
X41242001Y13797657D02*
X41242001Y25571945D01*
X41242001Y7247348D02*
X41242001Y9249545D01*
X41242001Y858000D02*
X41242001Y2912653D01*
X40957001Y42248000D02*
X40957001Y42322000D01*
X40957001Y37168000D02*
X40957001Y39032000D01*
X40957001Y23123939D02*
X40957001Y25856945D01*
X40957001Y20583939D02*
X40957001Y22596060D01*
X40957001Y13512657D02*
X40957001Y20056060D01*
X40957001Y7129297D02*
X40957001Y8964545D01*
X40957001Y858000D02*
X40957001Y3030704D01*
X40672001Y42248000D02*
X40672001Y42322000D01*
X40672001Y38833117D02*
X40672001Y39032000D01*
X40672001Y37846000D02*
X40672001Y38354000D01*
X40672001Y37168000D02*
X40672001Y37366882D01*
X40672001Y26133117D02*
X40672001Y26141945D01*
X40672001Y25146000D02*
X40672001Y25654000D01*
X40672001Y23805740D02*
X40672001Y24666883D01*
X40672001Y21265740D02*
X40672001Y21914259D01*
X40672001Y18513116D02*
X40672001Y19374259D01*
X40672001Y17526000D02*
X40672001Y18034000D01*
X40672001Y13227657D02*
X40672001Y17046883D01*
X40672001Y7011246D02*
X40672001Y8679545D01*
X40672001Y858000D02*
X40672001Y3148755D01*
X40387001Y42248000D02*
X40387001Y42322000D01*
X40387001Y37846000D02*
X40387001Y38354000D01*
X40387001Y25146000D02*
X40387001Y25654000D01*
X40387001Y24114385D02*
X40387001Y24296177D01*
X40387001Y21574386D02*
X40387001Y21605613D01*
X40387001Y18883822D02*
X40387001Y19065614D01*
X40387001Y17526000D02*
X40387001Y18034000D01*
X40387001Y12942657D02*
X40387001Y16676177D01*
X40387001Y6750295D02*
X40387001Y8394545D01*
X40387001Y858000D02*
X40387001Y3409705D01*
X40102001Y42248000D02*
X40102001Y42322000D01*
X40102001Y37846000D02*
X40102001Y38354000D01*
X40102001Y25146000D02*
X40102001Y25654000D01*
X40102001Y17526000D02*
X40102001Y18034000D01*
X40102001Y12657657D02*
X40102001Y16494777D01*
X40102001Y6465295D02*
X40102001Y8109545D01*
X40102001Y858000D02*
X40102001Y3694705D01*
X39817001Y42248000D02*
X39817001Y42322000D01*
X39817001Y37846000D02*
X39817001Y38354000D01*
X39817001Y25146000D02*
X39817001Y25654000D01*
X39817001Y17526000D02*
X39817001Y18034000D01*
X39817001Y12372657D02*
X39817001Y16368458D01*
X39817001Y5927492D02*
X39817001Y7824545D01*
X39817001Y858000D02*
X39817001Y4232509D01*
X39532001Y42248000D02*
X39532001Y42322000D01*
X39532001Y37826000D02*
X39532001Y38374000D01*
X39532001Y25126000D02*
X39532001Y25674000D01*
X39532001Y17526000D02*
X39532001Y18054000D01*
X39532001Y12087657D02*
X39532001Y17526000D01*
X39532001Y858000D02*
X39532001Y7539545D01*
X39247001Y42248000D02*
X39247001Y42322000D01*
X39247001Y37826000D02*
X39247001Y38374000D01*
X39247001Y25126000D02*
X39247001Y25674000D01*
X39247001Y17526000D02*
X39247001Y18054000D01*
X39247001Y11802657D02*
X39247001Y17526000D01*
X39247001Y858000D02*
X39247001Y7254545D01*
X38962001Y42198346D02*
X38962001Y42322000D01*
X38962001Y37846000D02*
X38962001Y38354000D01*
X38962001Y25146000D02*
X38962001Y25654000D01*
X38962001Y17526000D02*
X38962001Y18034000D01*
X38962001Y11517656D02*
X38962001Y16386557D01*
X38962001Y858000D02*
X38962001Y3161493D01*
X38677001Y42110877D02*
X38677001Y42322000D01*
X38677001Y37846000D02*
X38677001Y38354000D01*
X38677001Y25146000D02*
X38677001Y25654000D01*
X38677001Y17526000D02*
X38677001Y18034000D01*
X38677001Y11232656D02*
X38677001Y16472309D01*
X38677001Y858000D02*
X38677001Y2900220D01*
X38392001Y41920447D02*
X38392001Y42322000D01*
X38392001Y39243501D02*
X38392001Y39359555D01*
X38392001Y37846000D02*
X38392001Y38354000D01*
X38392001Y36840446D02*
X38392001Y36956500D01*
X38392001Y26543501D02*
X38392001Y26659555D01*
X38392001Y25146000D02*
X38392001Y25654000D01*
X38392001Y24140446D02*
X38392001Y24256500D01*
X38392001Y18923501D02*
X38392001Y19039555D01*
X38392001Y17526000D02*
X38392001Y18034000D01*
X38392001Y10947656D02*
X38392001Y16636500D01*
X38392001Y858000D02*
X38392001Y2819482D01*
X38107001Y41644111D02*
X38107001Y42322000D01*
X38107001Y38883848D02*
X38107001Y39635890D01*
X38107001Y37846000D02*
X38107001Y38354000D01*
X38107001Y36564111D02*
X38107001Y37316153D01*
X38107001Y34024111D02*
X38107001Y34555890D01*
X38107001Y31484111D02*
X38107001Y32015890D01*
X38107001Y28944111D02*
X38107001Y29475890D01*
X38107001Y26183848D02*
X38107001Y26935890D01*
X38107001Y25146000D02*
X38107001Y25654000D01*
X38107001Y23864111D02*
X38107001Y24616153D01*
X38107001Y21324111D02*
X38107001Y21855890D01*
X38107001Y18563848D02*
X38107001Y19315890D01*
X38107001Y17526000D02*
X38107001Y18034000D01*
X38107001Y10662656D02*
X38107001Y16996153D01*
X38107001Y858000D02*
X38107001Y2807150D01*
X37822001Y41100016D02*
X37822001Y42322000D01*
X37822001Y36020016D02*
X37822001Y40179985D01*
X37822001Y33480016D02*
X37822001Y35099985D01*
X37822001Y30940016D02*
X37822001Y32559985D01*
X37822001Y28400016D02*
X37822001Y30019985D01*
X37822001Y23320016D02*
X37822001Y27479985D01*
X37822001Y20780016D02*
X37822001Y22399985D01*
X37822001Y17296594D02*
X37822001Y19859985D01*
X37822001Y10377656D02*
X37822001Y17296594D01*
X37822001Y858000D02*
X37822001Y2807150D01*
X37537001Y40640000D02*
X37537001Y42322000D01*
X37537001Y22860000D02*
X37537001Y40640000D01*
X37537001Y17296594D02*
X37537001Y22860000D01*
X37537001Y10092656D02*
X37537001Y17296594D01*
X37537001Y858000D02*
X37537001Y2807150D01*
X37252001Y40640000D02*
X37252001Y42322000D01*
X37252001Y22860000D02*
X37252001Y40640000D01*
X37252001Y17296594D02*
X37252001Y22860000D01*
X37252001Y9807656D02*
X37252001Y17296594D01*
X37252001Y858000D02*
X37252001Y2807150D01*
X36967001Y40640000D02*
X36967001Y42322000D01*
X36967001Y22860000D02*
X36967001Y40640000D01*
X36967001Y17296594D02*
X36967001Y22860000D01*
X36967001Y9522656D02*
X36967001Y17296594D01*
X36967001Y858000D02*
X36967001Y2807150D01*
X36682001Y40640000D02*
X36682001Y42322000D01*
X36682001Y22860000D02*
X36682001Y40640000D01*
X36682001Y17296594D02*
X36682001Y22860000D01*
X36682001Y9237656D02*
X36682001Y17296594D01*
X36682001Y858000D02*
X36682001Y2807150D01*
X36397001Y40640000D02*
X36397001Y42322000D01*
X36397001Y22860000D02*
X36397001Y40640000D01*
X36397001Y17296594D02*
X36397001Y22860000D01*
X36397001Y8952656D02*
X36397001Y17296594D01*
X36397001Y858000D02*
X36397001Y2807150D01*
X36112001Y40640000D02*
X36112001Y42322000D01*
X36112001Y22860000D02*
X36112001Y40640000D01*
X36112001Y17296594D02*
X36112001Y22860000D01*
X36112001Y8667656D02*
X36112001Y17296594D01*
X36112001Y858000D02*
X36112001Y2807150D01*
X35827001Y40640000D02*
X35827001Y42322000D01*
X35827001Y22860000D02*
X35827001Y40640000D01*
X35827001Y17296594D02*
X35827001Y22860000D01*
X35827001Y8382656D02*
X35827001Y17296594D01*
X35827001Y858000D02*
X35827001Y2807150D01*
X35542001Y40640000D02*
X35542001Y42322000D01*
X35542001Y22860000D02*
X35542001Y40640000D01*
X35542001Y17296594D02*
X35542001Y22860000D01*
X35542001Y8078294D02*
X35542001Y17296594D01*
X35542001Y858000D02*
X35542001Y2807150D01*
X35257001Y40640000D02*
X35257001Y42322000D01*
X35257001Y22860000D02*
X35257001Y40640000D01*
X35257001Y17296594D02*
X35257001Y22860000D01*
X35257001Y7445930D02*
X35257001Y17296594D01*
X35257001Y858000D02*
X35257001Y2821671D01*
X34972001Y40640000D02*
X34972001Y42322000D01*
X34972001Y22860000D02*
X34972001Y40640000D01*
X34972001Y17296594D02*
X34972001Y22860000D01*
X34972001Y7252432D02*
X34972001Y17296594D01*
X34972001Y858000D02*
X34972001Y2907569D01*
X34687001Y40640000D02*
X34687001Y42322000D01*
X34687001Y22860000D02*
X34687001Y40640000D01*
X34687001Y17296594D02*
X34687001Y22860000D01*
X34687001Y6982048D02*
X34687001Y17296594D01*
X34687001Y858000D02*
X34687001Y3177953D01*
X34402001Y40640000D02*
X34402001Y42322000D01*
X34402001Y22860000D02*
X34402001Y40640000D01*
X34402001Y17296594D02*
X34402001Y22860000D01*
X34402001Y6580000D02*
X34402001Y17296594D01*
X34402001Y858000D02*
X34402001Y6580000D01*
X34117001Y40640000D02*
X34117001Y42322000D01*
X34117001Y22860000D02*
X34117001Y40640000D01*
X34117001Y17296594D02*
X34117001Y22860000D01*
X34117001Y6580000D02*
X34117001Y17296594D01*
X34117001Y858000D02*
X34117001Y6580000D01*
X33832001Y40640000D02*
X33832001Y42322000D01*
X33832001Y22860000D02*
X33832001Y40640000D01*
X33832001Y17296594D02*
X33832001Y22860000D01*
X33832001Y6580000D02*
X33832001Y17296594D01*
X33832001Y5954043D02*
X33832001Y6580000D01*
X33832001Y858000D02*
X33832001Y4205956D01*
X33547001Y40640000D02*
X33547001Y42218832D01*
X33547001Y22860000D02*
X33547001Y40640000D01*
X33547001Y17296594D02*
X33547001Y22860000D01*
X33547001Y6580000D02*
X33547001Y17296594D01*
X33547001Y6476293D02*
X33547001Y6580000D01*
X33547001Y961168D02*
X33547001Y3683707D01*
X33262001Y40640000D02*
X33262001Y41920509D01*
X33262001Y22860000D02*
X33262001Y40640000D01*
X33262001Y17296594D02*
X33262001Y22860000D01*
X33262001Y6761293D02*
X33262001Y17296594D01*
X33262001Y1259490D02*
X33262001Y3398707D01*
X32977001Y40640000D02*
X32977001Y41466935D01*
X32977001Y22860000D02*
X32977001Y40640000D01*
X32977001Y17296594D02*
X32977001Y22860000D01*
X32977001Y7015801D02*
X32977001Y17296594D01*
X32977001Y1713064D02*
X32977001Y3144198D01*
X32692001Y22860000D02*
X32692001Y40437844D01*
X32692001Y17296594D02*
X32692001Y22860000D01*
X32692001Y7133852D02*
X32692001Y17296594D01*
X32692001Y2742158D02*
X32692001Y3026147D01*
D16*
X65182001Y42041830D02*
X65182000Y1138169D01*
X64901831Y858000D01*
X33650169Y858000D01*
X33284524Y1223645D01*
X32945092Y1763847D01*
X32734381Y2366024D01*
X32662000Y3008426D01*
X32662000Y3013721D01*
X33029054Y3165760D01*
X33664240Y3800946D01*
X34008000Y4630856D01*
X34008000Y5529144D01*
X33664240Y6359054D01*
X33443294Y6580000D01*
X34557150Y6580000D01*
X34557150Y3580000D01*
X34615980Y3284243D01*
X34783513Y3033513D01*
X35034243Y2865980D01*
X35330000Y2807150D01*
X38330000Y2807150D01*
X38625757Y2865980D01*
X38876487Y3033513D01*
X39044020Y3284243D01*
X39102850Y3580000D01*
X39102850Y6580000D01*
X39044020Y6875757D01*
X38973601Y6981146D01*
X44637706Y12645250D01*
X44713042Y12695588D01*
X45382001Y13364546D01*
X45382001Y10826056D01*
X41893946Y7338000D01*
X41460856Y7338000D01*
X40630946Y6994240D01*
X39995760Y6359054D01*
X39652000Y5529144D01*
X39652000Y4630856D01*
X39995760Y3800946D01*
X40630946Y3165760D01*
X41460856Y2822000D01*
X42359144Y2822000D01*
X43189054Y3165760D01*
X43824240Y3800946D01*
X44168000Y4630856D01*
X44168000Y5063946D01*
X44801863Y5697809D01*
X44732000Y5529144D01*
X44732000Y4630856D01*
X45075760Y3800946D01*
X45710946Y3165760D01*
X46540856Y2822000D01*
X47439144Y2822000D01*
X48269054Y3165760D01*
X48904240Y3800946D01*
X49248000Y4630856D01*
X49248000Y5529144D01*
X49235581Y5559126D01*
X50017013Y6340557D01*
X50027085Y6355631D01*
X50462001Y6790546D01*
X50462001Y6665295D01*
X50155760Y6359054D01*
X49812000Y5529144D01*
X49812000Y4630856D01*
X50155760Y3800946D01*
X50790946Y3165760D01*
X51620856Y2822000D01*
X52519144Y2822000D01*
X53349054Y3165760D01*
X53655425Y3472131D01*
X55901341Y3472131D01*
X56070845Y3162541D01*
X56886771Y2895524D01*
X57742771Y2961073D01*
X58229155Y3162541D01*
X58398659Y3472131D01*
X57150000Y4720790D01*
X55901341Y3472131D01*
X53655425Y3472131D01*
X53984240Y3800946D01*
X54328000Y4630856D01*
X54328000Y5343229D01*
X54965524Y5343229D01*
X55031073Y4487229D01*
X55232541Y4000845D01*
X55542131Y3831341D01*
X56790790Y5080000D01*
X57509210Y5080000D01*
X58757869Y3831341D01*
X59067459Y4000845D01*
X59334476Y4816771D01*
X59268927Y5672771D01*
X59067459Y6159155D01*
X58757869Y6328659D01*
X57509210Y5080000D01*
X56790790Y5080000D01*
X55542131Y6328659D01*
X55232541Y6159155D01*
X54965524Y5343229D01*
X54328000Y5343229D01*
X54328000Y5529144D01*
X53984240Y6359054D01*
X53678000Y6665294D01*
X53678000Y6687869D01*
X55901341Y6687869D01*
X57150000Y5439210D01*
X58398659Y6687869D01*
X58229155Y6997459D01*
X57413229Y7264476D01*
X56557229Y7198927D01*
X56070845Y6997459D01*
X55901341Y6687869D01*
X53678000Y6687869D01*
X53678000Y27781635D01*
X53709501Y27940001D01*
X53678000Y28098367D01*
X53678000Y28098371D01*
X53584702Y28567410D01*
X53229303Y29099303D01*
X53095042Y29189013D01*
X45699016Y36585038D01*
X45609303Y36719303D01*
X45077410Y37074702D01*
X44608371Y37168000D01*
X44608369Y37168000D01*
X44450000Y37199502D01*
X44291631Y37168000D01*
X40519099Y37168000D01*
X40721881Y37431763D01*
X40798420Y37616594D01*
X40689271Y37846000D01*
X39624000Y37846000D01*
X39624000Y37826000D01*
X39116000Y37826000D01*
X39116000Y37846000D01*
X38050729Y37846000D01*
X37941580Y37616594D01*
X38018119Y37431763D01*
X38376748Y36965287D01*
X38485270Y36902766D01*
X38210697Y36719303D01*
X37855298Y36187410D01*
X37730498Y35560000D01*
X37855298Y34932590D01*
X38210697Y34400697D01*
X38376367Y34290000D01*
X38210697Y34179303D01*
X37855298Y33647410D01*
X37730498Y33020000D01*
X37855298Y32392590D01*
X38210697Y31860697D01*
X38376367Y31750000D01*
X38210697Y31639303D01*
X37855298Y31107410D01*
X37730498Y30480000D01*
X37855298Y29852590D01*
X38210697Y29320697D01*
X38376367Y29210000D01*
X38210697Y29099303D01*
X37855298Y28567410D01*
X37730498Y27940000D01*
X37855298Y27312590D01*
X38210697Y26780697D01*
X38485270Y26597234D01*
X38376748Y26534713D01*
X38018119Y26068237D01*
X37941580Y25883406D01*
X38050729Y25654000D01*
X39116000Y25654000D01*
X39116000Y25674000D01*
X39624000Y25674000D01*
X39624000Y25654000D01*
X40689271Y25654000D01*
X40798420Y25883406D01*
X40721881Y26068237D01*
X40642645Y26171301D01*
X42842000Y23971945D01*
X42842001Y15372655D01*
X42738303Y15268958D01*
X42662957Y15218613D01*
X35729620Y8285274D01*
X35670697Y8245903D01*
X35631326Y8186980D01*
X35580988Y8136642D01*
X35315299Y7739010D01*
X35234716Y7333897D01*
X35034243Y7294020D01*
X34783513Y7126487D01*
X34615980Y6875757D01*
X34557150Y6580000D01*
X33443294Y6580000D01*
X33029054Y6994240D01*
X32662000Y7146279D01*
X32662000Y17296594D01*
X37941580Y17296594D01*
X38018119Y17111763D01*
X38376748Y16645287D01*
X38886591Y16351561D01*
X39116000Y16458026D01*
X39116000Y17526000D01*
X39624000Y17526000D01*
X39624000Y16458026D01*
X39853409Y16351561D01*
X40363252Y16645287D01*
X40721881Y17111763D01*
X40798420Y17296594D01*
X40689271Y17526000D01*
X39624000Y17526000D01*
X39116000Y17526000D01*
X38050729Y17526000D01*
X37941580Y17296594D01*
X32662000Y17296594D01*
X32662000Y22860000D01*
X37730498Y22860000D01*
X37855298Y22232590D01*
X38210697Y21700697D01*
X38376367Y21590000D01*
X38210697Y21479303D01*
X37855298Y20947410D01*
X37730498Y20320000D01*
X37855298Y19692590D01*
X38210697Y19160697D01*
X38485270Y18977234D01*
X38376748Y18914713D01*
X38018119Y18448237D01*
X37941580Y18263406D01*
X38050729Y18034000D01*
X39116000Y18034000D01*
X39116000Y18054000D01*
X39624000Y18054000D01*
X39624000Y18034000D01*
X40689271Y18034000D01*
X40798420Y18263406D01*
X40721881Y18448237D01*
X40363252Y18914713D01*
X40254730Y18977234D01*
X40529303Y19160697D01*
X40884702Y19692590D01*
X41009502Y20320000D01*
X40884702Y20947410D01*
X40529303Y21479303D01*
X40363633Y21590000D01*
X40529303Y21700697D01*
X40884702Y22232590D01*
X41009502Y22860000D01*
X40884702Y23487410D01*
X40529303Y24019303D01*
X40254730Y24202766D01*
X40363252Y24265287D01*
X40721881Y24731763D01*
X40798420Y24916594D01*
X40689271Y25146000D01*
X39624000Y25146000D01*
X39624000Y25126000D01*
X39116000Y25126000D01*
X39116000Y25146000D01*
X38050729Y25146000D01*
X37941580Y24916594D01*
X38018119Y24731763D01*
X38376748Y24265287D01*
X38485270Y24202766D01*
X38210697Y24019303D01*
X37855298Y23487410D01*
X37730498Y22860000D01*
X32662000Y22860000D01*
X32662000Y40171574D01*
X32714778Y40640000D01*
X37730498Y40640000D01*
X37855298Y40012590D01*
X38210697Y39480697D01*
X38485270Y39297234D01*
X38376748Y39234713D01*
X38018119Y38768237D01*
X37941580Y38583406D01*
X38050729Y38354000D01*
X39116000Y38354000D01*
X39116000Y38374000D01*
X39624000Y38374000D01*
X39624000Y38354000D01*
X40689271Y38354000D01*
X40798420Y38583406D01*
X40721881Y38768237D01*
X40519099Y39032000D01*
X46577946Y39032000D01*
X60622000Y24987945D01*
X60622001Y6665295D01*
X60315760Y6359054D01*
X59972000Y5529144D01*
X59972000Y4630856D01*
X60315760Y3800946D01*
X60950946Y3165760D01*
X61780856Y2822000D01*
X62679144Y2822000D01*
X63509054Y3165760D01*
X64144240Y3800946D01*
X64488000Y4630856D01*
X64488000Y5529144D01*
X64144240Y6359054D01*
X63838000Y6665294D01*
X63838000Y25495635D01*
X63869501Y25654001D01*
X63838000Y25812367D01*
X63838000Y25812371D01*
X63744702Y26281410D01*
X63389303Y26813303D01*
X63255042Y26903013D01*
X48493016Y41665038D01*
X48403303Y41799303D01*
X47871410Y42154702D01*
X47402371Y42248000D01*
X47402369Y42248000D01*
X47244000Y42279502D01*
X47085631Y42248000D01*
X39211629Y42248000D01*
X38742590Y42154702D01*
X38210697Y41799303D01*
X37855298Y41267410D01*
X37730498Y40640000D01*
X32714778Y40640000D01*
X32734381Y40813976D01*
X32945092Y41416153D01*
X33284524Y41956355D01*
X33650169Y42322000D01*
X64901831Y42322000D01*
X65182001Y42041830D01*
G04 #@! TD*
M02*
