G04 #@! TF.GenerationSoftware,KiCad,Pcbnew,5.0.2-bee76a0~70~ubuntu18.04.1*
G04 #@! TF.CreationDate,2019-03-29T20:37:00+01:00*
G04 #@! TF.ProjectId,TMC2660_mount,544d4332-3636-4305-9f6d-6f756e742e6b,rev?*
G04 #@! TF.SameCoordinates,PX48f7b77PY788f099*
G04 #@! TF.FileFunction,Copper,L2,Bot*
G04 #@! TF.FilePolarity,Positive*
%FSLAX46Y46*%
G04 Gerber Fmt 4.6, Leading zero omitted, Abs format (unit mm)*
G04 Created by KiCad (PCBNEW 5.0.2-bee76a0~70~ubuntu18.04.1) date 2019-03-29T20:37:00 CET*
%MOMM*%
%LPD*%
G01*
G04 APERTURE LIST*
G04 #@! TA.AperFunction,ComponentPad*
%ADD10O,1.700000X1.700000*%
G04 #@! TD*
G04 #@! TA.AperFunction,ComponentPad*
%ADD11R,1.700000X1.700000*%
G04 #@! TD*
G04 #@! TA.AperFunction,ComponentPad*
%ADD12C,3.000000*%
G04 #@! TD*
G04 #@! TA.AperFunction,ComponentPad*
%ADD13R,3.000000X3.000000*%
G04 #@! TD*
G04 #@! TA.AperFunction,Conductor*
%ADD14C,0.600000*%
G04 #@! TD*
G04 #@! TA.AperFunction,Conductor*
%ADD15C,1.700000*%
G04 #@! TD*
G04 #@! TA.AperFunction,Conductor*
%ADD16C,0.300000*%
G04 #@! TD*
%ADD17C,0.300000*%
G04 APERTURE END LIST*
D10*
G04 #@! TO.P,J4,4*
G04 #@! TO.N,/SDO*
X3810000Y5080000D03*
G04 #@! TO.P,J4,3*
G04 #@! TO.N,/SDI*
X3810000Y7620000D03*
G04 #@! TO.P,J4,2*
G04 #@! TO.N,/SCK*
X3810000Y10160000D03*
D11*
G04 #@! TO.P,J4,1*
G04 #@! TO.N,/CSn*
X3810000Y12700000D03*
G04 #@! TD*
D12*
G04 #@! TO.P,J3,6*
G04 #@! TO.N,/VS*
X62230000Y5080000D03*
G04 #@! TO.P,J3,5*
G04 #@! TO.N,GND*
X57150000Y5080000D03*
G04 #@! TO.P,J3,4*
G04 #@! TO.N,/A1*
X52070000Y5080000D03*
D13*
G04 #@! TO.P,J3,1*
G04 #@! TO.N,/B2*
X36830000Y5080000D03*
D12*
G04 #@! TO.P,J3,3*
G04 #@! TO.N,/A2*
X46990000Y5080000D03*
G04 #@! TO.P,J3,2*
G04 #@! TO.N,/B1*
X41910000Y5080000D03*
G04 #@! TD*
G04 #@! TO.P,J2,3*
G04 #@! TO.N,/DIR*
X31750000Y5080000D03*
G04 #@! TO.P,J2,2*
G04 #@! TO.N,/STEP*
X26670000Y5080000D03*
D13*
G04 #@! TO.P,J2,1*
G04 #@! TO.N,/DRV_ENn*
X21590000Y5080000D03*
G04 #@! TD*
D12*
G04 #@! TO.P,J1,2*
G04 #@! TO.N,GND*
X16510000Y5080000D03*
D13*
G04 #@! TO.P,J1,1*
G04 #@! TO.N,/VCC*
X11430000Y5080000D03*
G04 #@! TD*
D10*
G04 #@! TO.P,P1,1*
G04 #@! TO.N,/CSn*
X3810000Y27940000D03*
G04 #@! TO.P,P1,2*
G04 #@! TO.N,/SCK*
X3810000Y30480000D03*
G04 #@! TO.P,P1,3*
G04 #@! TO.N,/SDI*
X3810000Y33020000D03*
G04 #@! TO.P,P1,4*
G04 #@! TO.N,/SDO*
X3810000Y35560000D03*
G04 #@! TD*
G04 #@! TO.P,P2,1*
G04 #@! TO.N,/STEP*
X39370000Y22860000D03*
G04 #@! TO.P,P2,2*
G04 #@! TO.N,/DIR*
X39370000Y20320000D03*
G04 #@! TD*
G04 #@! TO.P,P3,4*
G04 #@! TO.N,GND*
X3810000Y25400000D03*
G04 #@! TO.P,P3,3*
G04 #@! TO.N,/DRV_ENn*
X3810000Y22860000D03*
G04 #@! TO.P,P3,2*
G04 #@! TO.N,GND*
X3810000Y20320000D03*
G04 #@! TO.P,P3,1*
G04 #@! TO.N,/SG_TST*
X3810000Y17780000D03*
G04 #@! TD*
G04 #@! TO.P,P4,1*
G04 #@! TO.N,GND*
X39370000Y17780000D03*
G04 #@! TD*
G04 #@! TO.P,P5,1*
G04 #@! TO.N,GND*
X39370000Y25400000D03*
G04 #@! TD*
G04 #@! TO.P,P6,2*
G04 #@! TO.N,/A1*
X39370000Y35560000D03*
G04 #@! TO.P,P6,1*
G04 #@! TO.N,/A2*
X39370000Y33020000D03*
G04 #@! TD*
G04 #@! TO.P,P7,1*
G04 #@! TO.N,/B2*
X39370000Y27940000D03*
G04 #@! TO.P,P7,2*
G04 #@! TO.N,/B1*
X39370000Y30480000D03*
G04 #@! TD*
G04 #@! TO.P,P8,1*
G04 #@! TO.N,GND*
X3810000Y38100000D03*
G04 #@! TO.P,P8,2*
G04 #@! TO.N,/VCC*
X3810000Y40640000D03*
G04 #@! TD*
G04 #@! TO.P,P9,2*
G04 #@! TO.N,/VS*
X39370000Y40640000D03*
G04 #@! TO.P,P9,1*
G04 #@! TO.N,GND*
X39370000Y38100000D03*
G04 #@! TD*
D11*
G04 #@! TO.P,J5,1*
G04 #@! TO.N,/SG_TST*
X7620000Y15240000D03*
G04 #@! TD*
D14*
G04 #@! TO.N,/VCC*
X14605000Y29845000D02*
X3810000Y40640000D01*
X11430000Y5080000D02*
X14605000Y8255000D01*
X14605000Y8255000D02*
X14605000Y29845000D01*
G04 #@! TO.N,/DIR*
X31750000Y14478000D02*
X31750000Y5080000D01*
X39370000Y20320000D02*
X37592000Y20320000D01*
X37592000Y20320000D02*
X31750000Y14478000D01*
G04 #@! TO.N,/STEP*
X37592000Y22860000D02*
X39370000Y22860000D01*
X26670000Y5080000D02*
X26670000Y11938000D01*
X26670000Y11938000D02*
X37592000Y22860000D01*
D15*
G04 #@! TO.N,/VS*
X39370000Y40640000D02*
X47244000Y40640000D01*
X47244000Y40640000D02*
X62230000Y25654000D01*
X62230000Y25654000D02*
X62230000Y5080000D01*
G04 #@! TO.N,/A1*
X52070000Y27940000D02*
X52070000Y5080000D01*
X39370000Y35560000D02*
X44450000Y35560000D01*
X44450000Y35560000D02*
X52070000Y27940000D01*
G04 #@! TO.N,/B2*
X44450000Y14732000D02*
X36830000Y7112000D01*
X44450000Y24638000D02*
X44450000Y14732000D01*
X39370000Y27940000D02*
X41148000Y27940000D01*
X36830000Y7112000D02*
X36830000Y5080000D01*
X41148000Y27940000D02*
X44450000Y24638000D01*
G04 #@! TO.N,/A2*
X46990000Y5588000D02*
X46990000Y5080000D01*
X49530000Y8128000D02*
X46990000Y5588000D01*
X49530000Y26924000D02*
X49530000Y8128000D01*
X39370000Y33020000D02*
X43434000Y33020000D01*
X43434000Y33020000D02*
X49530000Y26924000D01*
G04 #@! TO.N,/B1*
X46990000Y10160000D02*
X41910000Y5080000D01*
X46990000Y25908000D02*
X46990000Y10160000D01*
X39370000Y30480000D02*
X42418000Y30480000D01*
X42418000Y30480000D02*
X46990000Y25908000D01*
D14*
G04 #@! TO.N,/SDO*
X13335000Y26035000D02*
X3810000Y35560000D01*
X13335000Y12065000D02*
X13335000Y26035000D01*
X3810000Y5080000D02*
X6350000Y5080000D01*
X6350000Y5080000D02*
X13335000Y12065000D01*
G04 #@! TO.N,/SDI*
X6985000Y7620000D02*
X3810000Y7620000D01*
X12065000Y12700000D02*
X6985000Y7620000D01*
X3810000Y33020000D02*
X12065000Y24765000D01*
X12065000Y24765000D02*
X12065000Y12700000D01*
G04 #@! TO.N,/SCK*
X5012081Y10160000D02*
X3810000Y10160000D01*
X7620000Y10160000D02*
X5012081Y10160000D01*
X10795000Y13335000D02*
X7620000Y10160000D01*
X3810000Y30480000D02*
X10795000Y23495000D01*
X10795000Y23495000D02*
X10795000Y13335000D01*
G04 #@! TO.N,/CSn*
X8255000Y12700000D02*
X3810000Y12700000D01*
X9525000Y13970000D02*
X8255000Y12700000D01*
X4572000Y27940000D02*
X9525000Y22987000D01*
X9525000Y22987000D02*
X9525000Y13970000D01*
X3810000Y27940000D02*
X4572000Y27940000D01*
G04 #@! TO.N,/DRV_ENn*
X21590000Y5080000D02*
X19489700Y5080000D01*
X19489700Y5080000D02*
X17343800Y2934100D01*
X17343800Y2934100D02*
X3883200Y2934100D01*
X3883200Y2934100D02*
X2338800Y4478500D01*
X2338800Y4478500D02*
X2338800Y21388800D01*
X2338800Y21388800D02*
X3810000Y22860000D01*
G04 #@! TO.N,/SG_TST*
X6350000Y15240000D02*
X3810000Y17780000D01*
X7620000Y15240000D02*
X6350000Y15240000D01*
G04 #@! TD*
D16*
G04 #@! TO.N,GND*
X64905171Y42322000D02*
X1071867Y42322000D01*
X3006437Y42037000D02*
X858000Y42037000D01*
X38566437Y42037000D02*
X4613564Y42037000D01*
X65182001Y42037000D02*
X48047564Y42037000D01*
X2619091Y41752000D02*
X858000Y41752000D01*
X38179091Y41752000D02*
X5000910Y41752000D01*
X65182001Y41752000D02*
X48434910Y41752000D01*
X2428660Y41467000D02*
X858000Y41467000D01*
X37988660Y41467000D02*
X5191341Y41467000D01*
X65182001Y41467000D02*
X48691055Y41467000D01*
X2278309Y41182000D02*
X858000Y41182000D01*
X37838309Y41182000D02*
X5341692Y41182000D01*
X65182001Y41182000D02*
X48976055Y41182000D01*
X2221619Y40897000D02*
X858000Y40897000D01*
X37781619Y40897000D02*
X5398382Y40897000D01*
X65182001Y40897000D02*
X49261055Y40897000D01*
X2176067Y40612000D02*
X858000Y40612000D01*
X37736067Y40612000D02*
X5443932Y40612000D01*
X65182001Y40612000D02*
X49546055Y40612000D01*
X2232757Y40327000D02*
X858000Y40327000D01*
X37792757Y40327000D02*
X5619238Y40327000D01*
X65182001Y40327000D02*
X49831055Y40327000D01*
X2289447Y40042000D02*
X858000Y40042000D01*
X37849447Y40042000D02*
X5904238Y40042000D01*
X65182001Y40042000D02*
X50116055Y40042000D01*
X2466077Y39757000D02*
X858000Y39757000D01*
X38026077Y39757000D02*
X6189238Y39757000D01*
X65182001Y39757000D02*
X50401055Y39757000D01*
X2663713Y39472000D02*
X858000Y39472000D01*
X38223713Y39472000D02*
X6474238Y39472000D01*
X65182001Y39472000D02*
X50686055Y39472000D01*
X2780067Y39187000D02*
X858000Y39187000D01*
X38340067Y39187000D02*
X6759238Y39187000D01*
X65182001Y39187000D02*
X50971055Y39187000D01*
X2560957Y38902000D02*
X858000Y38902000D01*
X38120957Y38902000D02*
X7044238Y38902000D01*
X46707945Y38902000D02*
X40619044Y38902000D01*
X65182001Y38902000D02*
X51256055Y38902000D01*
X2395492Y38617000D02*
X858000Y38617000D01*
X37955492Y38617000D02*
X7329238Y38617000D01*
X46992945Y38617000D02*
X40784509Y38617000D01*
X65182001Y38617000D02*
X51541055Y38617000D01*
X4084000Y38332000D02*
X858000Y38332000D01*
X47277945Y38332000D02*
X7614238Y38332000D01*
X65182001Y38332000D02*
X51826055Y38332000D01*
X4084000Y38047000D02*
X858000Y38047000D01*
X47562945Y38047000D02*
X7899238Y38047000D01*
X65182001Y38047000D02*
X52111055Y38047000D01*
X2450763Y37762000D02*
X858000Y37762000D01*
X38010763Y37762000D02*
X8184238Y37762000D01*
X47847945Y37762000D02*
X40729238Y37762000D01*
X65182001Y37762000D02*
X52396055Y37762000D01*
X2439386Y37477000D02*
X858000Y37477000D01*
X37999386Y37477000D02*
X8469238Y37477000D01*
X48132945Y37477000D02*
X40740613Y37477000D01*
X65182001Y37477000D02*
X52681055Y37477000D01*
X2642449Y37192000D02*
X858000Y37192000D01*
X38202449Y37192000D02*
X8754238Y37192000D01*
X44412286Y37192000D02*
X40537550Y37192000D01*
X48417945Y37192000D02*
X44487715Y37192000D01*
X65182001Y37192000D02*
X52966055Y37192000D01*
X2917920Y36907000D02*
X858000Y36907000D01*
X38477920Y36907000D02*
X9039238Y36907000D01*
X48702945Y36907000D02*
X45328395Y36907000D01*
X65182001Y36907000D02*
X53251055Y36907000D01*
X2585682Y36622000D02*
X858000Y36622000D01*
X38145682Y36622000D02*
X9324238Y36622000D01*
X48987945Y36622000D02*
X45674319Y36622000D01*
X65182001Y36622000D02*
X53536055Y36622000D01*
X2395251Y36337000D02*
X858000Y36337000D01*
X37955251Y36337000D02*
X9609238Y36337000D01*
X49272945Y36337000D02*
X45947055Y36337000D01*
X65182001Y36337000D02*
X53821055Y36337000D01*
X2268364Y36052000D02*
X858000Y36052000D01*
X37828364Y36052000D02*
X9894238Y36052000D01*
X49557945Y36052000D02*
X46232055Y36052000D01*
X65182001Y36052000D02*
X54106055Y36052000D01*
X2211673Y35767000D02*
X858000Y35767000D01*
X37771673Y35767000D02*
X10179238Y35767000D01*
X49842945Y35767000D02*
X46517055Y35767000D01*
X65182001Y35767000D02*
X54391055Y35767000D01*
X2186013Y35482000D02*
X858000Y35482000D01*
X37746013Y35482000D02*
X10464238Y35482000D01*
X50127945Y35482000D02*
X46802055Y35482000D01*
X65182001Y35482000D02*
X54676055Y35482000D01*
X2242703Y35197000D02*
X858000Y35197000D01*
X37802703Y35197000D02*
X10749238Y35197000D01*
X50412945Y35197000D02*
X47087055Y35197000D01*
X65182001Y35197000D02*
X54961055Y35197000D01*
X2309055Y34912000D02*
X858000Y34912000D01*
X37869055Y34912000D02*
X11034238Y34912000D01*
X50697945Y34912000D02*
X47372055Y34912000D01*
X65182001Y34912000D02*
X55246055Y34912000D01*
X2499486Y34627000D02*
X858000Y34627000D01*
X38059486Y34627000D02*
X11319238Y34627000D01*
X50982945Y34627000D02*
X47657055Y34627000D01*
X65182001Y34627000D02*
X55531055Y34627000D01*
X2738543Y34342000D02*
X858000Y34342000D01*
X38298543Y34342000D02*
X11604238Y34342000D01*
X51267945Y34342000D02*
X47942055Y34342000D01*
X65182001Y34342000D02*
X55816055Y34342000D01*
X2568977Y34057000D02*
X858000Y34057000D01*
X38128977Y34057000D02*
X11889238Y34057000D01*
X51552945Y34057000D02*
X48227055Y34057000D01*
X65182001Y34057000D02*
X56101055Y34057000D01*
X2378547Y33772000D02*
X858000Y33772000D01*
X37938547Y33772000D02*
X12174238Y33772000D01*
X51837945Y33772000D02*
X48512055Y33772000D01*
X65182001Y33772000D02*
X56386055Y33772000D01*
X2263391Y33487000D02*
X858000Y33487000D01*
X37823391Y33487000D02*
X12459238Y33487000D01*
X52122945Y33487000D02*
X48797055Y33487000D01*
X65182001Y33487000D02*
X56671055Y33487000D01*
X2206701Y33202000D02*
X858000Y33202000D01*
X37766701Y33202000D02*
X12744238Y33202000D01*
X52407945Y33202000D02*
X49082055Y33202000D01*
X65182001Y33202000D02*
X56956055Y33202000D01*
X2190986Y32917000D02*
X858000Y32917000D01*
X37750986Y32917000D02*
X13029238Y32917000D01*
X52692945Y32917000D02*
X49367055Y32917000D01*
X65182001Y32917000D02*
X57241055Y32917000D01*
X2247676Y32632000D02*
X858000Y32632000D01*
X37807676Y32632000D02*
X13314238Y32632000D01*
X52977945Y32632000D02*
X49652055Y32632000D01*
X65182001Y32632000D02*
X57526055Y32632000D01*
X2325760Y32347000D02*
X858000Y32347000D01*
X37885760Y32347000D02*
X13599238Y32347000D01*
X53262945Y32347000D02*
X49937055Y32347000D01*
X65182001Y32347000D02*
X57811055Y32347000D01*
X2516190Y32062000D02*
X858000Y32062000D01*
X38076190Y32062000D02*
X13884238Y32062000D01*
X53547945Y32062000D02*
X50222055Y32062000D01*
X65182001Y32062000D02*
X58096055Y32062000D01*
X2775958Y31777000D02*
X858000Y31777000D01*
X38335958Y31777000D02*
X14169238Y31777000D01*
X53832945Y31777000D02*
X50507055Y31777000D01*
X65182001Y31777000D02*
X58381055Y31777000D01*
X2552273Y31492000D02*
X858000Y31492000D01*
X38112273Y31492000D02*
X14454238Y31492000D01*
X54117945Y31492000D02*
X50792055Y31492000D01*
X65182001Y31492000D02*
X58666055Y31492000D01*
X2361842Y31207000D02*
X858000Y31207000D01*
X37921842Y31207000D02*
X14739238Y31207000D01*
X54402945Y31207000D02*
X51077055Y31207000D01*
X65182001Y31207000D02*
X58951055Y31207000D01*
X2258418Y30922000D02*
X858000Y30922000D01*
X37818418Y30922000D02*
X15024238Y30922000D01*
X54687945Y30922000D02*
X51362055Y30922000D01*
X65182001Y30922000D02*
X59236055Y30922000D01*
X2201728Y30637000D02*
X858000Y30637000D01*
X37761728Y30637000D02*
X15324037Y30637000D01*
X54972945Y30637000D02*
X51647055Y30637000D01*
X65182001Y30637000D02*
X59521055Y30637000D01*
X2195958Y30352000D02*
X858000Y30352000D01*
X37755958Y30352000D02*
X15538679Y30352000D01*
X55257945Y30352000D02*
X51932055Y30352000D01*
X65182001Y30352000D02*
X59806055Y30352000D01*
X2252649Y30067000D02*
X858000Y30067000D01*
X37812649Y30067000D02*
X15639569Y30067000D01*
X55542945Y30067000D02*
X52217055Y30067000D01*
X65182001Y30067000D02*
X60091055Y30067000D01*
X2342464Y29782000D02*
X858000Y29782000D01*
X37902464Y29782000D02*
X15671194Y29782000D01*
X55827945Y29782000D02*
X52502055Y29782000D01*
X65182001Y29782000D02*
X60376055Y29782000D01*
X2532895Y29497000D02*
X858000Y29497000D01*
X38092895Y29497000D02*
X15663000Y29497000D01*
X56112945Y29497000D02*
X52787055Y29497000D01*
X65182001Y29497000D02*
X60661055Y29497000D01*
X2813373Y29212000D02*
X858000Y29212000D01*
X38373373Y29212000D02*
X15663000Y29212000D01*
X56397945Y29212000D02*
X53072055Y29212000D01*
X65182001Y29212000D02*
X60946055Y29212000D01*
X2535568Y28927000D02*
X858000Y28927000D01*
X38095568Y28927000D02*
X15663000Y28927000D01*
X56682945Y28927000D02*
X53344433Y28927000D01*
X65182001Y28927000D02*
X61231055Y28927000D01*
X2345138Y28642000D02*
X858000Y28642000D01*
X37905138Y28642000D02*
X15663000Y28642000D01*
X56967945Y28642000D02*
X53534863Y28642000D01*
X65182001Y28642000D02*
X61516055Y28642000D01*
X2253445Y28357000D02*
X858000Y28357000D01*
X37813445Y28357000D02*
X15663000Y28357000D01*
X57252945Y28357000D02*
X53626556Y28357000D01*
X65182001Y28357000D02*
X61801055Y28357000D01*
X2196755Y28072000D02*
X858000Y28072000D01*
X37756755Y28072000D02*
X15663000Y28072000D01*
X57537945Y28072000D02*
X53683245Y28072000D01*
X65182001Y28072000D02*
X62086055Y28072000D01*
X2200931Y27787000D02*
X858000Y27787000D01*
X37760931Y27787000D02*
X15663000Y27787000D01*
X57822945Y27787000D02*
X53679067Y27787000D01*
X65182001Y27787000D02*
X62371055Y27787000D01*
X2257621Y27502000D02*
X858000Y27502000D01*
X37817621Y27502000D02*
X15663000Y27502000D01*
X58107945Y27502000D02*
X53678000Y27502000D01*
X65182001Y27502000D02*
X62656055Y27502000D01*
X2359169Y27217000D02*
X858000Y27217000D01*
X37919169Y27217000D02*
X15663000Y27217000D01*
X58392945Y27217000D02*
X53678000Y27217000D01*
X65182001Y27217000D02*
X62941055Y27217000D01*
X2549599Y26932000D02*
X858000Y26932000D01*
X38109599Y26932000D02*
X15663000Y26932000D01*
X58677945Y26932000D02*
X53678000Y26932000D01*
X65182001Y26932000D02*
X63226055Y26932000D01*
X2850789Y26647000D02*
X858000Y26647000D01*
X38410789Y26647000D02*
X15663000Y26647000D01*
X58962945Y26647000D02*
X53678000Y26647000D01*
X65182001Y26647000D02*
X63500423Y26647000D01*
X2683966Y26362000D02*
X858000Y26362000D01*
X38243966Y26362000D02*
X15663000Y26362000D01*
X59247945Y26362000D02*
X53678000Y26362000D01*
X65182001Y26362000D02*
X63690854Y26362000D01*
X2464857Y26077000D02*
X858000Y26077000D01*
X38024857Y26077000D02*
X15663000Y26077000D01*
X40736945Y26077000D02*
X40715144Y26077000D01*
X59532945Y26077000D02*
X53678000Y26077000D01*
X65182001Y26077000D02*
X63785362Y26077000D01*
X2425070Y25792000D02*
X858000Y25792000D01*
X5223762Y25792000D02*
X5194930Y25792000D01*
X37985070Y25792000D02*
X15663000Y25792000D01*
X41021945Y25792000D02*
X40754929Y25792000D01*
X59817945Y25792000D02*
X53678000Y25792000D01*
X65182001Y25792000D02*
X63842052Y25792000D01*
X5508762Y25507000D02*
X858000Y25507000D01*
X41306945Y25507000D02*
X15663000Y25507000D01*
X60102945Y25507000D02*
X53678000Y25507000D01*
X65182001Y25507000D02*
X63840260Y25507000D01*
X5793762Y25222000D02*
X858000Y25222000D01*
X41591945Y25222000D02*
X15663000Y25222000D01*
X60387945Y25222000D02*
X53678000Y25222000D01*
X65182001Y25222000D02*
X63838000Y25222000D01*
X2391289Y24937000D02*
X858000Y24937000D01*
X6078762Y24937000D02*
X5228712Y24937000D01*
X37951289Y24937000D02*
X15663000Y24937000D01*
X41876945Y24937000D02*
X40788712Y24937000D01*
X60622000Y24937000D02*
X53678000Y24937000D01*
X65182001Y24937000D02*
X63838000Y24937000D01*
X2519441Y24652000D02*
X858000Y24652000D01*
X6363762Y24652000D02*
X5100558Y24652000D01*
X38079441Y24652000D02*
X15663000Y24652000D01*
X42161945Y24652000D02*
X40660558Y24652000D01*
X60622000Y24652000D02*
X53678000Y24652000D01*
X65182001Y24652000D02*
X63838000Y24652000D01*
X2738550Y24367000D02*
X858000Y24367000D01*
X6648762Y24367000D02*
X4881449Y24367000D01*
X38298550Y24367000D02*
X15663000Y24367000D01*
X42446945Y24367000D02*
X40441449Y24367000D01*
X60622000Y24367000D02*
X53678000Y24367000D01*
X65182001Y24367000D02*
X63838000Y24367000D01*
X2744531Y24082000D02*
X858000Y24082000D01*
X6933762Y24082000D02*
X4875470Y24082000D01*
X38304531Y24082000D02*
X15663000Y24082000D01*
X42731945Y24082000D02*
X40435470Y24082000D01*
X60622000Y24082000D02*
X53678000Y24082000D01*
X65182001Y24082000D02*
X63838000Y24082000D01*
X2502160Y23797000D02*
X858000Y23797000D01*
X7218762Y23797000D02*
X5117841Y23797000D01*
X37089971Y23797000D02*
X15663000Y23797000D01*
X42842000Y23797000D02*
X40677841Y23797000D01*
X60622000Y23797000D02*
X53678000Y23797000D01*
X65182001Y23797000D02*
X63838000Y23797000D01*
X2311729Y23512000D02*
X858000Y23512000D01*
X7503762Y23512000D02*
X5308272Y23512000D01*
X36747763Y23512000D02*
X15663000Y23512000D01*
X42842000Y23512000D02*
X40868272Y23512000D01*
X60622000Y23512000D02*
X53678000Y23512000D01*
X65182001Y23512000D02*
X63838000Y23512000D01*
X2243500Y23227000D02*
X858000Y23227000D01*
X7788762Y23227000D02*
X5376501Y23227000D01*
X36462763Y23227000D02*
X15663000Y23227000D01*
X42842000Y23227000D02*
X40936501Y23227000D01*
X60622000Y23227000D02*
X53678000Y23227000D01*
X65182001Y23227000D02*
X63838000Y23227000D01*
X2186809Y22942000D02*
X858000Y22942000D01*
X8073762Y22942000D02*
X5433192Y22942000D01*
X36177763Y22942000D02*
X15663000Y22942000D01*
X42842000Y22942000D02*
X40993192Y22942000D01*
X60622000Y22942000D02*
X53678000Y22942000D01*
X65182001Y22942000D02*
X63838000Y22942000D01*
X2110763Y22657000D02*
X858000Y22657000D01*
X8358762Y22657000D02*
X5409122Y22657000D01*
X35892763Y22657000D02*
X15663000Y22657000D01*
X42842000Y22657000D02*
X40969122Y22657000D01*
X60622000Y22657000D02*
X53678000Y22657000D01*
X65182001Y22657000D02*
X63838000Y22657000D01*
X1825763Y22372000D02*
X858000Y22372000D01*
X8467000Y22372000D02*
X5352432Y22372000D01*
X35607763Y22372000D02*
X15663000Y22372000D01*
X42842000Y22372000D02*
X40912432Y22372000D01*
X60622000Y22372000D02*
X53678000Y22372000D01*
X65182001Y22372000D02*
X63838000Y22372000D01*
X1532879Y22087000D02*
X858000Y22087000D01*
X8467000Y22087000D02*
X5227422Y22087000D01*
X35322763Y22087000D02*
X15663000Y22087000D01*
X42842000Y22087000D02*
X40787422Y22087000D01*
X60622000Y22087000D02*
X53678000Y22087000D01*
X65182001Y22087000D02*
X63838000Y22087000D01*
X1342447Y21802000D02*
X858000Y21802000D01*
X8467000Y21802000D02*
X5036991Y21802000D01*
X35037763Y21802000D02*
X15663000Y21802000D01*
X42842000Y21802000D02*
X40596991Y21802000D01*
X60622000Y21802000D02*
X53678000Y21802000D01*
X65182001Y21802000D02*
X63838000Y21802000D01*
X1285575Y21517000D02*
X858000Y21517000D01*
X8467000Y21517000D02*
X4695137Y21517000D01*
X34752763Y21517000D02*
X15663000Y21517000D01*
X42842000Y21517000D02*
X40472886Y21517000D01*
X60622000Y21517000D02*
X53678000Y21517000D01*
X65182001Y21517000D02*
X63838000Y21517000D01*
X1280801Y21232000D02*
X858000Y21232000D01*
X8467000Y21232000D02*
X4974475Y21232000D01*
X34467763Y21232000D02*
X15663000Y21232000D01*
X42842000Y21232000D02*
X40694546Y21232000D01*
X60622000Y21232000D02*
X53678000Y21232000D01*
X65182001Y21232000D02*
X63838000Y21232000D01*
X1280801Y20947000D02*
X858000Y20947000D01*
X8467000Y20947000D02*
X5178958Y20947000D01*
X34182763Y20947000D02*
X15663000Y20947000D01*
X42842000Y20947000D02*
X40884784Y20947000D01*
X60622000Y20947000D02*
X53678000Y20947000D01*
X65182001Y20947000D02*
X63838000Y20947000D01*
X1280801Y20662000D02*
X858000Y20662000D01*
X8467000Y20662000D02*
X5171140Y20662000D01*
X33897763Y20662000D02*
X15663000Y20662000D01*
X42842000Y20662000D02*
X40941474Y20662000D01*
X60622000Y20662000D02*
X53678000Y20662000D01*
X65182001Y20662000D02*
X63838000Y20662000D01*
X1280801Y20377000D02*
X858000Y20377000D01*
X8467000Y20377000D02*
X3536000Y20377000D01*
X33612763Y20377000D02*
X15663000Y20377000D01*
X42842000Y20377000D02*
X40998164Y20377000D01*
X60622000Y20377000D02*
X53678000Y20377000D01*
X65182001Y20377000D02*
X63838000Y20377000D01*
X1280801Y20092000D02*
X858000Y20092000D01*
X8467000Y20092000D02*
X3536000Y20092000D01*
X33327763Y20092000D02*
X15663000Y20092000D01*
X42842000Y20092000D02*
X40964149Y20092000D01*
X60622000Y20092000D02*
X53678000Y20092000D01*
X65182001Y20092000D02*
X63838000Y20092000D01*
X1280801Y19807000D02*
X858000Y19807000D01*
X8467000Y19807000D02*
X5226165Y19807000D01*
X33042763Y19807000D02*
X15663000Y19807000D01*
X42842000Y19807000D02*
X40907459Y19807000D01*
X60622000Y19807000D02*
X53678000Y19807000D01*
X65182001Y19807000D02*
X63838000Y19807000D01*
X1280801Y19522000D02*
X858000Y19522000D01*
X8467000Y19522000D02*
X5062118Y19522000D01*
X32757763Y19522000D02*
X15663000Y19522000D01*
X42842000Y19522000D02*
X40770717Y19522000D01*
X60622000Y19522000D02*
X53678000Y19522000D01*
X65182001Y19522000D02*
X63838000Y19522000D01*
X1280801Y19237000D02*
X858000Y19237000D01*
X8467000Y19237000D02*
X4843009Y19237000D01*
X32472763Y19237000D02*
X15663000Y19237000D01*
X38159713Y19237000D02*
X38005237Y19237000D01*
X42842000Y19237000D02*
X40580286Y19237000D01*
X60622000Y19237000D02*
X53678000Y19237000D01*
X65182001Y19237000D02*
X63838000Y19237000D01*
X1280801Y18952000D02*
X858000Y18952000D01*
X8467000Y18952000D02*
X4950301Y18952000D01*
X32187763Y18952000D02*
X15663000Y18952000D01*
X38441470Y18952000D02*
X37720237Y18952000D01*
X42842000Y18952000D02*
X40298531Y18952000D01*
X60622000Y18952000D02*
X53678000Y18952000D01*
X65182001Y18952000D02*
X63838000Y18952000D01*
X1280801Y18667000D02*
X858000Y18667000D01*
X8467000Y18667000D02*
X5151250Y18667000D01*
X31902763Y18667000D02*
X15663000Y18667000D01*
X38186306Y18667000D02*
X37435237Y18667000D01*
X42842000Y18667000D02*
X40553695Y18667000D01*
X60622000Y18667000D02*
X53678000Y18667000D01*
X65182001Y18667000D02*
X63838000Y18667000D01*
X1280801Y18382000D02*
X858000Y18382000D01*
X8467000Y18382000D02*
X5329757Y18382000D01*
X31617763Y18382000D02*
X15663000Y18382000D01*
X37990691Y18382000D02*
X37150237Y18382000D01*
X42842000Y18382000D02*
X40749310Y18382000D01*
X60622000Y18382000D02*
X53678000Y18382000D01*
X65182001Y18382000D02*
X63838000Y18382000D01*
X1280801Y18097000D02*
X858000Y18097000D01*
X8467000Y18097000D02*
X5386447Y18097000D01*
X31332763Y18097000D02*
X15663000Y18097000D01*
X38020754Y18097000D02*
X36865237Y18097000D01*
X42842000Y18097000D02*
X40719245Y18097000D01*
X60622000Y18097000D02*
X53678000Y18097000D01*
X65182001Y18097000D02*
X63838000Y18097000D01*
X1280801Y17812000D02*
X858000Y17812000D01*
X8467000Y17812000D02*
X5443137Y17812000D01*
X31047763Y17812000D02*
X15663000Y17812000D01*
X42842000Y17812000D02*
X36580237Y17812000D01*
X60622000Y17812000D02*
X53678000Y17812000D01*
X65182001Y17812000D02*
X63838000Y17812000D01*
X1280801Y17527000D02*
X858000Y17527000D01*
X8467000Y17527000D02*
X5559238Y17527000D01*
X30762763Y17527000D02*
X15663000Y17527000D01*
X42842000Y17527000D02*
X36295237Y17527000D01*
X60622000Y17527000D02*
X53678000Y17527000D01*
X65182001Y17527000D02*
X63838000Y17527000D01*
X1280801Y17242000D02*
X858000Y17242000D01*
X8467000Y17242000D02*
X5844238Y17242000D01*
X30477763Y17242000D02*
X15663000Y17242000D01*
X37964187Y17242000D02*
X36010237Y17242000D01*
X39624000Y17242000D02*
X39116000Y17242000D01*
X42842000Y17242000D02*
X40775812Y17242000D01*
X60622000Y17242000D02*
X53678000Y17242000D01*
X65182001Y17242000D02*
X63838000Y17242000D01*
X1280801Y16957000D02*
X858000Y16957000D01*
X8467000Y16957000D02*
X6129238Y16957000D01*
X30192763Y16957000D02*
X15663000Y16957000D01*
X38137101Y16957000D02*
X35725237Y16957000D01*
X39624000Y16957000D02*
X39116000Y16957000D01*
X42842000Y16957000D02*
X40602898Y16957000D01*
X60622000Y16957000D02*
X53678000Y16957000D01*
X65182001Y16957000D02*
X63838000Y16957000D01*
X1280801Y16672000D02*
X858000Y16672000D01*
X29907763Y16672000D02*
X15663000Y16672000D01*
X38356210Y16672000D02*
X35440237Y16672000D01*
X39624000Y16672000D02*
X39116000Y16672000D01*
X42842000Y16672000D02*
X40383789Y16672000D01*
X60622000Y16672000D02*
X53678000Y16672000D01*
X65182001Y16672000D02*
X63838000Y16672000D01*
X1280801Y16387000D02*
X858000Y16387000D01*
X29622763Y16387000D02*
X15663000Y16387000D01*
X38825076Y16387000D02*
X35155237Y16387000D01*
X39777045Y16387000D02*
X38962954Y16387000D01*
X42842000Y16387000D02*
X39914923Y16387000D01*
X60622000Y16387000D02*
X53678000Y16387000D01*
X65182001Y16387000D02*
X63838000Y16387000D01*
X1280801Y16102000D02*
X858000Y16102000D01*
X29337763Y16102000D02*
X15663000Y16102000D01*
X42842000Y16102000D02*
X34870237Y16102000D01*
X60622000Y16102000D02*
X53678000Y16102000D01*
X65182001Y16102000D02*
X63838000Y16102000D01*
X1280801Y15817000D02*
X858000Y15817000D01*
X29052763Y15817000D02*
X15663000Y15817000D01*
X42842000Y15817000D02*
X34585237Y15817000D01*
X60622000Y15817000D02*
X53678000Y15817000D01*
X65182001Y15817000D02*
X63838000Y15817000D01*
X1280801Y15532000D02*
X858000Y15532000D01*
X28767763Y15532000D02*
X15663000Y15532000D01*
X42842000Y15532000D02*
X34300237Y15532000D01*
X60622000Y15532000D02*
X53678000Y15532000D01*
X65182001Y15532000D02*
X63838000Y15532000D01*
X1280801Y15247000D02*
X858000Y15247000D01*
X28482763Y15247000D02*
X15663000Y15247000D01*
X42690946Y15247000D02*
X34015237Y15247000D01*
X60622000Y15247000D02*
X53678000Y15247000D01*
X65182001Y15247000D02*
X63838000Y15247000D01*
X1280801Y14962000D02*
X858000Y14962000D01*
X28197763Y14962000D02*
X15663000Y14962000D01*
X42405946Y14962000D02*
X33730237Y14962000D01*
X60622000Y14962000D02*
X53678000Y14962000D01*
X65182001Y14962000D02*
X63838000Y14962000D01*
X1280801Y14677000D02*
X858000Y14677000D01*
X27912763Y14677000D02*
X15663000Y14677000D01*
X42120946Y14677000D02*
X33445237Y14677000D01*
X60622000Y14677000D02*
X53678000Y14677000D01*
X65182001Y14677000D02*
X63838000Y14677000D01*
X1280801Y14392000D02*
X858000Y14392000D01*
X27627763Y14392000D02*
X15663000Y14392000D01*
X30688380Y14392000D02*
X30620237Y14392000D01*
X41835946Y14392000D02*
X33160237Y14392000D01*
X60622000Y14392000D02*
X53678000Y14392000D01*
X65182001Y14392000D02*
X63838000Y14392000D01*
X1280801Y14107000D02*
X858000Y14107000D01*
X27342763Y14107000D02*
X15663000Y14107000D01*
X30692000Y14107000D02*
X30335237Y14107000D01*
X41550946Y14107000D02*
X32875237Y14107000D01*
X60622000Y14107000D02*
X53678000Y14107000D01*
X65182001Y14107000D02*
X63838000Y14107000D01*
X1280801Y13822000D02*
X858000Y13822000D01*
X27057763Y13822000D02*
X15663000Y13822000D01*
X30692000Y13822000D02*
X30050237Y13822000D01*
X41265946Y13822000D02*
X32808000Y13822000D01*
X60622000Y13822000D02*
X53678000Y13822000D01*
X65182001Y13822000D02*
X63838000Y13822000D01*
X1280801Y13537000D02*
X858000Y13537000D01*
X26772763Y13537000D02*
X15663000Y13537000D01*
X30692000Y13537000D02*
X29765237Y13537000D01*
X40980946Y13537000D02*
X32808000Y13537000D01*
X60622000Y13537000D02*
X53678000Y13537000D01*
X65182001Y13537000D02*
X63838000Y13537000D01*
X1280801Y13252000D02*
X858000Y13252000D01*
X26487763Y13252000D02*
X15663000Y13252000D01*
X30692000Y13252000D02*
X29480237Y13252000D01*
X40695946Y13252000D02*
X32808000Y13252000D01*
X45382001Y13252000D02*
X45244054Y13252000D01*
X60622000Y13252000D02*
X53678000Y13252000D01*
X65182001Y13252000D02*
X63838000Y13252000D01*
X1280801Y12967000D02*
X858000Y12967000D01*
X26202763Y12967000D02*
X15663000Y12967000D01*
X30692000Y12967000D02*
X29195237Y12967000D01*
X40410946Y12967000D02*
X32808000Y12967000D01*
X45382001Y12967000D02*
X44959054Y12967000D01*
X60622000Y12967000D02*
X53678000Y12967000D01*
X65182001Y12967000D02*
X63838000Y12967000D01*
X1280801Y12682000D02*
X858000Y12682000D01*
X25894681Y12682000D02*
X15663000Y12682000D01*
X30692000Y12682000D02*
X28910237Y12682000D01*
X40125946Y12682000D02*
X32808000Y12682000D01*
X45382001Y12682000D02*
X44674054Y12682000D01*
X60622000Y12682000D02*
X53678000Y12682000D01*
X65182001Y12682000D02*
X63838000Y12682000D01*
X1280801Y12397000D02*
X858000Y12397000D01*
X25704250Y12397000D02*
X15663000Y12397000D01*
X30692000Y12397000D02*
X28625237Y12397000D01*
X39840946Y12397000D02*
X32808000Y12397000D01*
X45382001Y12397000D02*
X44389054Y12397000D01*
X60622000Y12397000D02*
X53678000Y12397000D01*
X65182001Y12397000D02*
X63838000Y12397000D01*
X1280801Y12112000D02*
X858000Y12112000D01*
X25625885Y12112000D02*
X15663000Y12112000D01*
X30692000Y12112000D02*
X28340237Y12112000D01*
X39555946Y12112000D02*
X32808000Y12112000D01*
X45382001Y12112000D02*
X44104054Y12112000D01*
X60622000Y12112000D02*
X53678000Y12112000D01*
X65182001Y12112000D02*
X63838000Y12112000D01*
X1280801Y11827000D02*
X858000Y11827000D01*
X25612001Y11827000D02*
X15663000Y11827000D01*
X30692000Y11827000D02*
X28055237Y11827000D01*
X39270946Y11827000D02*
X32808000Y11827000D01*
X45382001Y11827000D02*
X43819054Y11827000D01*
X60622000Y11827000D02*
X53678000Y11827000D01*
X65182001Y11827000D02*
X63838000Y11827000D01*
X1280801Y11542000D02*
X858000Y11542000D01*
X25612001Y11542000D02*
X15663000Y11542000D01*
X30692000Y11542000D02*
X27770237Y11542000D01*
X38985946Y11542000D02*
X32808000Y11542000D01*
X45382001Y11542000D02*
X43534054Y11542000D01*
X60622000Y11542000D02*
X53678000Y11542000D01*
X65182001Y11542000D02*
X63838000Y11542000D01*
X1280801Y11257000D02*
X858000Y11257000D01*
X25612001Y11257000D02*
X15663000Y11257000D01*
X30692000Y11257000D02*
X27728000Y11257000D01*
X38700946Y11257000D02*
X32808000Y11257000D01*
X45382001Y11257000D02*
X43249054Y11257000D01*
X60622000Y11257000D02*
X53678000Y11257000D01*
X65182001Y11257000D02*
X63838000Y11257000D01*
X1280801Y10972000D02*
X858000Y10972000D01*
X25612001Y10972000D02*
X15663000Y10972000D01*
X30692000Y10972000D02*
X27728000Y10972000D01*
X38415946Y10972000D02*
X32808000Y10972000D01*
X45382001Y10972000D02*
X42964054Y10972000D01*
X60622000Y10972000D02*
X53678000Y10972000D01*
X65182001Y10972000D02*
X63838000Y10972000D01*
X1280801Y10687000D02*
X858000Y10687000D01*
X25612001Y10687000D02*
X15663000Y10687000D01*
X30692000Y10687000D02*
X27728000Y10687000D01*
X38130946Y10687000D02*
X32808000Y10687000D01*
X45242946Y10687000D02*
X42679054Y10687000D01*
X60622000Y10687000D02*
X53678000Y10687000D01*
X65182001Y10687000D02*
X63838000Y10687000D01*
X1280801Y10402000D02*
X858000Y10402000D01*
X25612001Y10402000D02*
X15663000Y10402000D01*
X30692000Y10402000D02*
X27728000Y10402000D01*
X37845946Y10402000D02*
X32808000Y10402000D01*
X44957946Y10402000D02*
X42394054Y10402000D01*
X60622000Y10402000D02*
X53678000Y10402000D01*
X65182001Y10402000D02*
X63838000Y10402000D01*
X1280801Y10117000D02*
X858000Y10117000D01*
X25612001Y10117000D02*
X15663000Y10117000D01*
X30692000Y10117000D02*
X27728000Y10117000D01*
X37560946Y10117000D02*
X32808000Y10117000D01*
X44672946Y10117000D02*
X42109054Y10117000D01*
X60622000Y10117000D02*
X53678000Y10117000D01*
X65182001Y10117000D02*
X63838000Y10117000D01*
X1280801Y9832000D02*
X858000Y9832000D01*
X25612001Y9832000D02*
X15663000Y9832000D01*
X30692000Y9832000D02*
X27728000Y9832000D01*
X37275946Y9832000D02*
X32808000Y9832000D01*
X44387946Y9832000D02*
X41824054Y9832000D01*
X60622000Y9832000D02*
X53678000Y9832000D01*
X65182001Y9832000D02*
X63838000Y9832000D01*
X1280801Y9547000D02*
X858000Y9547000D01*
X25612001Y9547000D02*
X15663000Y9547000D01*
X30692000Y9547000D02*
X27728000Y9547000D01*
X36990946Y9547000D02*
X32808000Y9547000D01*
X44102946Y9547000D02*
X41539054Y9547000D01*
X60622000Y9547000D02*
X53678000Y9547000D01*
X65182001Y9547000D02*
X63838000Y9547000D01*
X1280801Y9262000D02*
X858000Y9262000D01*
X25612001Y9262000D02*
X15663000Y9262000D01*
X30692000Y9262000D02*
X27728000Y9262000D01*
X36705946Y9262000D02*
X32808000Y9262000D01*
X43817946Y9262000D02*
X41254054Y9262000D01*
X60622000Y9262000D02*
X53678000Y9262000D01*
X65182001Y9262000D02*
X63838000Y9262000D01*
X1280801Y8977000D02*
X858000Y8977000D01*
X25612001Y8977000D02*
X15663000Y8977000D01*
X30692000Y8977000D02*
X27728000Y8977000D01*
X36420946Y8977000D02*
X32808000Y8977000D01*
X43532946Y8977000D02*
X40969054Y8977000D01*
X60622000Y8977000D02*
X53678000Y8977000D01*
X65182001Y8977000D02*
X63838000Y8977000D01*
X1280801Y8692000D02*
X858000Y8692000D01*
X25612001Y8692000D02*
X15663000Y8692000D01*
X30692000Y8692000D02*
X27728000Y8692000D01*
X36135946Y8692000D02*
X32808000Y8692000D01*
X43247946Y8692000D02*
X40684054Y8692000D01*
X60622000Y8692000D02*
X53678000Y8692000D01*
X65182001Y8692000D02*
X63838000Y8692000D01*
X1280801Y8407000D02*
X858000Y8407000D01*
X25612001Y8407000D02*
X15663000Y8407000D01*
X30692000Y8407000D02*
X27728000Y8407000D01*
X35850946Y8407000D02*
X32808000Y8407000D01*
X42962946Y8407000D02*
X40399054Y8407000D01*
X60622000Y8407000D02*
X53678000Y8407000D01*
X65182001Y8407000D02*
X63838000Y8407000D01*
X1280801Y8122000D02*
X858000Y8122000D01*
X25612001Y8122000D02*
X15657271Y8122000D01*
X30692000Y8122000D02*
X27728000Y8122000D01*
X35570937Y8122000D02*
X32808000Y8122000D01*
X42677946Y8122000D02*
X40114054Y8122000D01*
X60622000Y8122000D02*
X53678000Y8122000D01*
X65182001Y8122000D02*
X63838000Y8122000D01*
X1280801Y7837000D02*
X858000Y7837000D01*
X25612001Y7837000D02*
X15598146Y7837000D01*
X30692000Y7837000D02*
X27728000Y7837000D01*
X35380506Y7837000D02*
X32808000Y7837000D01*
X42392946Y7837000D02*
X39829054Y7837000D01*
X60622000Y7837000D02*
X53678000Y7837000D01*
X65182001Y7837000D02*
X63838000Y7837000D01*
X1280801Y7552000D02*
X858000Y7552000D01*
X25612001Y7552000D02*
X15407715Y7552000D01*
X30692000Y7552000D02*
X27728000Y7552000D01*
X35278020Y7552000D02*
X32808000Y7552000D01*
X42107946Y7552000D02*
X39544054Y7552000D01*
X60622000Y7552000D02*
X53678000Y7552000D01*
X65182001Y7552000D02*
X63838000Y7552000D01*
X1280801Y7267000D02*
X858000Y7267000D01*
X19753805Y7267000D02*
X15113237Y7267000D01*
X25612001Y7267000D02*
X23426196Y7267000D01*
X30692000Y7267000D02*
X27728000Y7267000D01*
X34993805Y7267000D02*
X32808000Y7267000D01*
X41289447Y7267000D02*
X39259054Y7267000D01*
X60622000Y7267000D02*
X53678000Y7267000D01*
X65182001Y7267000D02*
X63838000Y7267000D01*
X1280801Y6982000D02*
X858000Y6982000D01*
X15422382Y6982000D02*
X14828237Y6982000D01*
X19446970Y6982000D02*
X17597619Y6982000D01*
X25378706Y6982000D02*
X23733031Y6982000D01*
X30458706Y6982000D02*
X27961294Y6982000D01*
X34686970Y6982000D02*
X33041294Y6982000D01*
X40618706Y6982000D02*
X38974054Y6982000D01*
X56062382Y6982000D02*
X53678000Y6982000D01*
X60622000Y6982000D02*
X58237619Y6982000D01*
X65182001Y6982000D02*
X63838000Y6982000D01*
X1280801Y6697000D02*
X858000Y6697000D01*
X15266341Y6697000D02*
X14543237Y6697000D01*
X19340423Y6697000D02*
X17753660Y6697000D01*
X25093706Y6697000D02*
X23839578Y6697000D01*
X30173706Y6697000D02*
X28246294Y6697000D01*
X34580423Y6697000D02*
X33326294Y6697000D01*
X40333706Y6697000D02*
X39079578Y6697000D01*
X50462001Y6697000D02*
X50373055Y6697000D01*
X55906341Y6697000D02*
X53678000Y6697000D01*
X60622000Y6697000D02*
X58393660Y6697000D01*
X65182001Y6697000D02*
X63838000Y6697000D01*
X1280801Y6412000D02*
X858000Y6412000D01*
X15537210Y6412000D02*
X14258237Y6412000D01*
X19317150Y6412000D02*
X17482790Y6412000D01*
X24808706Y6412000D02*
X23862850Y6412000D01*
X29888706Y6412000D02*
X28531294Y6412000D01*
X34557150Y6412000D02*
X33611294Y6412000D01*
X40048706Y6412000D02*
X39102850Y6412000D01*
X50208706Y6412000D02*
X50088055Y6412000D01*
X56177210Y6412000D02*
X53931294Y6412000D01*
X60368706Y6412000D02*
X58122790Y6412000D01*
X65182001Y6412000D02*
X64091294Y6412000D01*
X1280801Y6127000D02*
X858000Y6127000D01*
X14582019Y6127000D02*
X13973237Y6127000D01*
X15822210Y6127000D02*
X15103790Y6127000D01*
X17916210Y6127000D02*
X17197790Y6127000D01*
X19317150Y6127000D02*
X18440779Y6127000D01*
X24659641Y6127000D02*
X23862850Y6127000D01*
X29739641Y6127000D02*
X28680360Y6127000D01*
X34557150Y6127000D02*
X33760360Y6127000D01*
X39899641Y6127000D02*
X39102850Y6127000D01*
X50059641Y6127000D02*
X49803055Y6127000D01*
X55222019Y6127000D02*
X54080360Y6127000D01*
X56462210Y6127000D02*
X55743790Y6127000D01*
X58556210Y6127000D02*
X57837790Y6127000D01*
X60219641Y6127000D02*
X59080779Y6127000D01*
X65182001Y6127000D02*
X64240360Y6127000D01*
X1280801Y5842000D02*
X858000Y5842000D01*
X14488750Y5842000D02*
X13702850Y5842000D01*
X16107210Y5842000D02*
X15388790Y5842000D01*
X17631210Y5842000D02*
X16912790Y5842000D01*
X18726408Y5842000D02*
X18558830Y5842000D01*
X24541590Y5842000D02*
X23862850Y5842000D01*
X29621590Y5842000D02*
X28798411Y5842000D01*
X34557150Y5842000D02*
X33878411Y5842000D01*
X39781590Y5842000D02*
X39102850Y5842000D01*
X49941590Y5842000D02*
X49518055Y5842000D01*
X55128750Y5842000D02*
X54198411Y5842000D01*
X56747210Y5842000D02*
X56028790Y5842000D01*
X58271210Y5842000D02*
X57552790Y5842000D01*
X60101590Y5842000D02*
X59198830Y5842000D01*
X65182001Y5842000D02*
X64358411Y5842000D01*
X1280801Y5557000D02*
X858000Y5557000D01*
X14395482Y5557000D02*
X13702850Y5557000D01*
X16392210Y5557000D02*
X15673790Y5557000D01*
X17346210Y5557000D02*
X16627790Y5557000D01*
X24423539Y5557000D02*
X23862850Y5557000D01*
X29503539Y5557000D02*
X28916462Y5557000D01*
X34557150Y5557000D02*
X33996462Y5557000D01*
X39663539Y5557000D02*
X39102850Y5557000D01*
X44743539Y5557000D02*
X44661054Y5557000D01*
X49823539Y5557000D02*
X49236462Y5557000D01*
X55035482Y5557000D02*
X54316462Y5557000D01*
X57032210Y5557000D02*
X56313790Y5557000D01*
X57986210Y5557000D02*
X57267790Y5557000D01*
X59983539Y5557000D02*
X59277793Y5557000D01*
X65182001Y5557000D02*
X64476462Y5557000D01*
X1280801Y5272000D02*
X858000Y5272000D01*
X14330978Y5272000D02*
X13702850Y5272000D01*
X17061210Y5272000D02*
X15958790Y5272000D01*
X24412000Y5272000D02*
X23862850Y5272000D01*
X29492000Y5272000D02*
X28928000Y5272000D01*
X34557150Y5272000D02*
X34008000Y5272000D01*
X39652000Y5272000D02*
X39102850Y5272000D01*
X44732000Y5272000D02*
X44376054Y5272000D01*
X49812000Y5272000D02*
X49248000Y5272000D01*
X54970978Y5272000D02*
X54328000Y5272000D01*
X57701210Y5272000D02*
X56598790Y5272000D01*
X59972000Y5272000D02*
X59299617Y5272000D01*
X65182001Y5272000D02*
X64488000Y5272000D01*
X1280801Y4987000D02*
X858000Y4987000D01*
X14352802Y4987000D02*
X13702850Y4987000D01*
X16804496Y4987000D02*
X16215505Y4987000D01*
X24412000Y4987000D02*
X23862850Y4987000D01*
X29492000Y4987000D02*
X28928000Y4987000D01*
X34557150Y4987000D02*
X34008000Y4987000D01*
X39652000Y4987000D02*
X39102850Y4987000D01*
X44732000Y4987000D02*
X44168000Y4987000D01*
X49812000Y4987000D02*
X49248000Y4987000D01*
X54992802Y4987000D02*
X54328000Y4987000D01*
X57602210Y4987000D02*
X56697790Y4987000D01*
X59972000Y4987000D02*
X59321441Y4987000D01*
X65182001Y4987000D02*
X64488000Y4987000D01*
X1280801Y4702000D02*
X858000Y4702000D01*
X14374626Y4702000D02*
X13702850Y4702000D01*
X24412000Y4702000D02*
X23862850Y4702000D01*
X29492000Y4702000D02*
X28928000Y4702000D01*
X34557150Y4702000D02*
X34008000Y4702000D01*
X39652000Y4702000D02*
X39102850Y4702000D01*
X44732000Y4702000D02*
X44168000Y4702000D01*
X49812000Y4702000D02*
X49248000Y4702000D01*
X55014626Y4702000D02*
X54328000Y4702000D01*
X57131210Y4702000D02*
X56412790Y4702000D01*
X57887210Y4702000D02*
X57168790Y4702000D01*
X59972000Y4702000D02*
X59296916Y4702000D01*
X65182001Y4702000D02*
X64488000Y4702000D01*
X1272307Y4417000D02*
X858000Y4417000D01*
X14420162Y4417000D02*
X13702850Y4417000D01*
X24500582Y4417000D02*
X23862850Y4417000D01*
X29580582Y4417000D02*
X28839417Y4417000D01*
X34557150Y4417000D02*
X33919417Y4417000D01*
X39740582Y4417000D02*
X39102850Y4417000D01*
X44820582Y4417000D02*
X44079417Y4417000D01*
X49900582Y4417000D02*
X49159417Y4417000D01*
X55060162Y4417000D02*
X54239417Y4417000D01*
X56846210Y4417000D02*
X56127790Y4417000D01*
X58172210Y4417000D02*
X57453790Y4417000D01*
X60060582Y4417000D02*
X59203648Y4417000D01*
X65182001Y4417000D02*
X64399417Y4417000D01*
X1328996Y4132000D02*
X858000Y4132000D01*
X14538214Y4132000D02*
X13702850Y4132000D01*
X24618632Y4132000D02*
X23862850Y4132000D01*
X29698632Y4132000D02*
X28721367Y4132000D01*
X34557150Y4132000D02*
X33801367Y4132000D01*
X39858632Y4132000D02*
X39102850Y4132000D01*
X44938632Y4132000D02*
X43961367Y4132000D01*
X50018632Y4132000D02*
X49041367Y4132000D01*
X55178214Y4132000D02*
X54121367Y4132000D01*
X56561210Y4132000D02*
X55842790Y4132000D01*
X58457210Y4132000D02*
X57738790Y4132000D01*
X60178632Y4132000D02*
X59110380Y4132000D01*
X65182001Y4132000D02*
X64281367Y4132000D01*
X1488309Y3847000D02*
X858000Y3847000D01*
X24736683Y3847000D02*
X23862850Y3847000D01*
X29816683Y3847000D02*
X28603316Y3847000D01*
X34557150Y3847000D02*
X33683316Y3847000D01*
X39976683Y3847000D02*
X39102850Y3847000D01*
X45056683Y3847000D02*
X43843316Y3847000D01*
X50136683Y3847000D02*
X48923316Y3847000D01*
X55513530Y3847000D02*
X54003316Y3847000D01*
X56276210Y3847000D02*
X55557790Y3847000D01*
X58742210Y3847000D02*
X58023790Y3847000D01*
X60296683Y3847000D02*
X58786469Y3847000D01*
X65182001Y3847000D02*
X64163316Y3847000D01*
X1759062Y3562000D02*
X858000Y3562000D01*
X24994706Y3562000D02*
X23859269Y3562000D01*
X30074706Y3562000D02*
X28345294Y3562000D01*
X34560730Y3562000D02*
X33425294Y3562000D01*
X40234706Y3562000D02*
X39099269Y3562000D01*
X45314706Y3562000D02*
X43585294Y3562000D01*
X50394706Y3562000D02*
X48665294Y3562000D01*
X55991210Y3562000D02*
X53745294Y3562000D01*
X60554706Y3562000D02*
X58308790Y3562000D01*
X65182001Y3562000D02*
X63905294Y3562000D01*
X2044062Y3277000D02*
X858000Y3277000D01*
X19380819Y3277000D02*
X19182937Y3277000D01*
X25279706Y3277000D02*
X23799180Y3277000D01*
X30359706Y3277000D02*
X28060294Y3277000D01*
X34620819Y3277000D02*
X33140294Y3277000D01*
X40519706Y3277000D02*
X39039180Y3277000D01*
X45599706Y3277000D02*
X43300294Y3277000D01*
X50679706Y3277000D02*
X48380294Y3277000D01*
X56008177Y3277000D02*
X53460294Y3277000D01*
X60839706Y3277000D02*
X58291822Y3277000D01*
X65182001Y3277000D02*
X63620294Y3277000D01*
X2329062Y2992000D02*
X858000Y2992000D01*
X19605641Y2992000D02*
X18897937Y2992000D01*
X25810439Y2992000D02*
X23574358Y2992000D01*
X30890439Y2992000D02*
X27529560Y2992000D01*
X34845641Y2992000D02*
X32609560Y2992000D01*
X41050439Y2992000D02*
X38814358Y2992000D01*
X46130439Y2992000D02*
X42769560Y2992000D01*
X51210439Y2992000D02*
X47849560Y2992000D01*
X56591968Y2992000D02*
X52929560Y2992000D01*
X61370439Y2992000D02*
X57817434Y2992000D01*
X65182001Y2992000D02*
X63089560Y2992000D01*
X2614062Y2707000D02*
X858000Y2707000D01*
X65182001Y2707000D02*
X18612937Y2707000D01*
X2899062Y2422000D02*
X858000Y2422000D01*
X65182001Y2422000D02*
X18327937Y2422000D01*
X3171795Y2137000D02*
X858000Y2137000D01*
X65182001Y2137000D02*
X18055204Y2137000D01*
X65182001Y1852000D02*
X858000Y1852000D01*
X65182001Y1567000D02*
X858000Y1567000D01*
X65182001Y1282000D02*
X858000Y1282000D01*
X65072456Y997000D02*
X1030727Y997000D01*
X65182001Y42044879D02*
X65182001Y42044879D01*
X64897001Y858000D02*
X64897001Y42322000D01*
X64612001Y858000D02*
X64612001Y42322000D01*
X64327001Y5917829D02*
X64327001Y42322000D01*
X64327001Y858000D02*
X64327001Y4242170D01*
X64042001Y6461293D02*
X64042001Y42322000D01*
X64042001Y858000D02*
X64042001Y3698707D01*
X63757001Y26219578D02*
X63757001Y42322000D01*
X63757001Y858000D02*
X63757001Y3413707D01*
X63472001Y26689536D02*
X63472001Y42322000D01*
X63472001Y858000D02*
X63472001Y3150412D01*
X63187001Y26971053D02*
X63187001Y42322000D01*
X63187001Y858000D02*
X63187001Y3032361D01*
X62902001Y27256053D02*
X62902001Y42322000D01*
X62902001Y858000D02*
X62902001Y2914310D01*
X62617001Y27541053D02*
X62617001Y42322000D01*
X62617001Y858000D02*
X62617001Y2822000D01*
X62332001Y27826053D02*
X62332001Y42322000D01*
X62332001Y858000D02*
X62332001Y2822000D01*
X62047001Y28111053D02*
X62047001Y42322000D01*
X62047001Y858000D02*
X62047001Y2822000D01*
X61762001Y28396053D02*
X61762001Y42322000D01*
X61762001Y858000D02*
X61762001Y2829810D01*
X61477001Y28681053D02*
X61477001Y42322000D01*
X61477001Y858000D02*
X61477001Y2947861D01*
X61192001Y28966053D02*
X61192001Y42322000D01*
X61192001Y858000D02*
X61192001Y3065912D01*
X60907001Y29251053D02*
X60907001Y42322000D01*
X60907001Y858000D02*
X60907001Y3209705D01*
X60622001Y29536053D02*
X60622001Y42322000D01*
X60622001Y6665295D02*
X60622001Y6665295D01*
X60622001Y858000D02*
X60622001Y3494705D01*
X60337001Y29821053D02*
X60337001Y42322000D01*
X60337001Y6380295D02*
X60337001Y25272945D01*
X60337001Y858000D02*
X60337001Y3779705D01*
X60052001Y30106053D02*
X60052001Y42322000D01*
X60052001Y5722284D02*
X60052001Y25557945D01*
X60052001Y858000D02*
X60052001Y4437717D01*
X59767001Y30391053D02*
X59767001Y42322000D01*
X59767001Y858000D02*
X59767001Y25842945D01*
X59482001Y30676053D02*
X59482001Y42322000D01*
X59482001Y858000D02*
X59482001Y26127945D01*
X59197001Y30961053D02*
X59197001Y42322000D01*
X59197001Y5846414D02*
X59197001Y26412945D01*
X59197001Y858000D02*
X59197001Y4396687D01*
X58912001Y31246053D02*
X58912001Y42322000D01*
X58912001Y6244269D02*
X58912001Y26697945D01*
X58912001Y858000D02*
X58912001Y3915730D01*
X58627001Y31531053D02*
X58627001Y42322000D01*
X58627001Y6197791D02*
X58627001Y26982945D01*
X58627001Y858000D02*
X58627001Y3962209D01*
X58342001Y31816053D02*
X58342001Y42322000D01*
X58342001Y6791351D02*
X58342001Y27267945D01*
X58342001Y5912791D02*
X58342001Y6631211D01*
X58342001Y3528789D02*
X58342001Y4247209D01*
X58342001Y858000D02*
X58342001Y3368648D01*
X58057001Y32101053D02*
X58057001Y42322000D01*
X58057001Y7053797D02*
X58057001Y27552945D01*
X58057001Y5627791D02*
X58057001Y6346211D01*
X58057001Y3813789D02*
X58057001Y4532209D01*
X58057001Y858000D02*
X58057001Y3091232D01*
X57772001Y32386053D02*
X57772001Y42322000D01*
X57772001Y7147065D02*
X57772001Y27837945D01*
X57772001Y5342791D02*
X57772001Y6061211D01*
X57772001Y4098789D02*
X57772001Y4817209D01*
X57772001Y858000D02*
X57772001Y2973180D01*
X57487001Y32671053D02*
X57487001Y42322000D01*
X57487001Y7240333D02*
X57487001Y28122945D01*
X57487001Y5080000D02*
X57487001Y5776211D01*
X57487001Y4383789D02*
X57487001Y5080000D01*
X57487001Y858000D02*
X57487001Y2941487D01*
X57202001Y32956053D02*
X57202001Y42322000D01*
X57202001Y7248302D02*
X57202001Y28407945D01*
X57202001Y5080000D02*
X57202001Y5491211D01*
X57202001Y4668789D02*
X57202001Y5080000D01*
X57202001Y858000D02*
X57202001Y2919663D01*
X56917001Y33241053D02*
X56917001Y42322000D01*
X56917001Y7226477D02*
X56917001Y28692945D01*
X56917001Y5080000D02*
X56917001Y5672209D01*
X56917001Y4487791D02*
X56917001Y5080000D01*
X56917001Y858000D02*
X56917001Y2897838D01*
X56632001Y33526053D02*
X56632001Y42322000D01*
X56632001Y7204653D02*
X56632001Y28977945D01*
X56632001Y5238789D02*
X56632001Y5957209D01*
X56632001Y4202791D02*
X56632001Y4921211D01*
X56632001Y858000D02*
X56632001Y2978900D01*
X56347001Y33811053D02*
X56347001Y42322000D01*
X56347001Y7111848D02*
X56347001Y29262945D01*
X56347001Y5523789D02*
X56347001Y6242209D01*
X56347001Y3917791D02*
X56347001Y4636211D01*
X56347001Y858000D02*
X56347001Y3072168D01*
X56062001Y34096053D02*
X56062001Y42322000D01*
X56062001Y6981306D02*
X56062001Y29547945D01*
X56062001Y5808789D02*
X56062001Y6527209D01*
X56062001Y3632791D02*
X56062001Y4351211D01*
X56062001Y858000D02*
X56062001Y3178695D01*
X55777001Y34381053D02*
X55777001Y42322000D01*
X55777001Y6687869D02*
X55777001Y29832945D01*
X55777001Y6093789D02*
X55777001Y6687869D01*
X55777001Y3472131D02*
X55777001Y4066211D01*
X55777001Y858000D02*
X55777001Y3472131D01*
X55492001Y34666053D02*
X55492001Y42322000D01*
X55492001Y6687869D02*
X55492001Y30117945D01*
X55492001Y6301213D02*
X55492001Y6687869D01*
X55492001Y3472131D02*
X55492001Y3858788D01*
X55492001Y858000D02*
X55492001Y3472131D01*
X55207001Y34951053D02*
X55207001Y42322000D01*
X55207001Y6687869D02*
X55207001Y30402945D01*
X55207001Y6081113D02*
X55207001Y6687869D01*
X55207001Y3472131D02*
X55207001Y4062504D01*
X55207001Y858000D02*
X55207001Y3472131D01*
X54922001Y35236053D02*
X54922001Y42322000D01*
X54922001Y6687869D02*
X54922001Y30687945D01*
X54922001Y5343229D02*
X54922001Y6687869D01*
X54922001Y3472131D02*
X54922001Y5343229D01*
X54922001Y858000D02*
X54922001Y3472131D01*
X54637001Y35521053D02*
X54637001Y42322000D01*
X54637001Y6687869D02*
X54637001Y30972945D01*
X54637001Y5343229D02*
X54637001Y6687869D01*
X54637001Y3472131D02*
X54637001Y5343229D01*
X54637001Y858000D02*
X54637001Y3472131D01*
X54352001Y35806053D02*
X54352001Y42322000D01*
X54352001Y6687869D02*
X54352001Y31257945D01*
X54352001Y5343229D02*
X54352001Y6687869D01*
X54352001Y3472131D02*
X54352001Y5343229D01*
X54352001Y858000D02*
X54352001Y3472131D01*
X54067001Y36091053D02*
X54067001Y42322000D01*
X54067001Y6687869D02*
X54067001Y31542945D01*
X54067001Y6159251D02*
X54067001Y6687869D01*
X54067001Y3472131D02*
X54067001Y4000748D01*
X54067001Y858000D02*
X54067001Y3472131D01*
X53782001Y36376053D02*
X53782001Y42322000D01*
X53782001Y6687869D02*
X53782001Y31827945D01*
X53782001Y6561293D02*
X53782001Y6687869D01*
X53782001Y3472131D02*
X53782001Y3598707D01*
X53782001Y858000D02*
X53782001Y3472131D01*
X53497001Y36661053D02*
X53497001Y42322000D01*
X53497001Y28698664D02*
X53497001Y32112945D01*
X53497001Y858000D02*
X53497001Y3313707D01*
X53212001Y36946053D02*
X53212001Y42322000D01*
X53212001Y29110863D02*
X53212001Y32397945D01*
X53212001Y858000D02*
X53212001Y3108990D01*
X52927001Y37231053D02*
X52927001Y42322000D01*
X52927001Y29357053D02*
X52927001Y32682945D01*
X52927001Y858000D02*
X52927001Y2990939D01*
X52642001Y37516053D02*
X52642001Y42322000D01*
X52642001Y29642053D02*
X52642001Y32967945D01*
X52642001Y858000D02*
X52642001Y2872889D01*
X52357001Y37801053D02*
X52357001Y42322000D01*
X52357001Y29927053D02*
X52357001Y33252945D01*
X52357001Y858000D02*
X52357001Y2822000D01*
X52072001Y38086053D02*
X52072001Y42322000D01*
X52072001Y30212053D02*
X52072001Y33537945D01*
X52072001Y858000D02*
X52072001Y2822000D01*
X51787001Y38371053D02*
X51787001Y42322000D01*
X51787001Y30497053D02*
X51787001Y33822945D01*
X51787001Y858000D02*
X51787001Y2822000D01*
X51502001Y38656053D02*
X51502001Y42322000D01*
X51502001Y30782053D02*
X51502001Y34107945D01*
X51502001Y858000D02*
X51502001Y2871232D01*
X51217001Y38941053D02*
X51217001Y42322000D01*
X51217001Y31067053D02*
X51217001Y34392945D01*
X51217001Y858000D02*
X51217001Y2989283D01*
X50932001Y39226053D02*
X50932001Y42322000D01*
X50932001Y31352053D02*
X50932001Y34677945D01*
X50932001Y858000D02*
X50932001Y3107334D01*
X50647001Y39511053D02*
X50647001Y42322000D01*
X50647001Y31637053D02*
X50647001Y34962945D01*
X50647001Y858000D02*
X50647001Y3309705D01*
X50362001Y39796053D02*
X50362001Y42322000D01*
X50362001Y31922053D02*
X50362001Y35247945D01*
X50362001Y6565295D02*
X50362001Y6685946D01*
X50362001Y858000D02*
X50362001Y3594705D01*
X50077001Y40081053D02*
X50077001Y42322000D01*
X50077001Y32207053D02*
X50077001Y35532945D01*
X50077001Y6168913D02*
X50077001Y6400946D01*
X50077001Y858000D02*
X50077001Y3991088D01*
X49792001Y40366053D02*
X49792001Y42322000D01*
X49792001Y32492053D02*
X49792001Y35817945D01*
X49792001Y858000D02*
X49792001Y6115946D01*
X49507001Y40651053D02*
X49507001Y42322000D01*
X49507001Y32777053D02*
X49507001Y36102945D01*
X49507001Y858000D02*
X49507001Y5830946D01*
X49222001Y40936053D02*
X49222001Y42322000D01*
X49222001Y33062053D02*
X49222001Y36387945D01*
X49222001Y858000D02*
X49222001Y4568088D01*
X48937001Y41221053D02*
X48937001Y42322000D01*
X48937001Y33347053D02*
X48937001Y36672945D01*
X48937001Y858000D02*
X48937001Y3880038D01*
X48652001Y41506053D02*
X48652001Y42322000D01*
X48652001Y33632053D02*
X48652001Y36957945D01*
X48652001Y858000D02*
X48652001Y3548707D01*
X48367001Y41823559D02*
X48367001Y42322000D01*
X48367001Y33917053D02*
X48367001Y37242945D01*
X48367001Y858000D02*
X48367001Y3263707D01*
X48082001Y42013989D02*
X48082001Y42322000D01*
X48082001Y34202053D02*
X48082001Y37527945D01*
X48082001Y858000D02*
X48082001Y3088280D01*
X47797001Y42169502D02*
X47797001Y42322000D01*
X47797001Y34487053D02*
X47797001Y37812945D01*
X47797001Y858000D02*
X47797001Y2970229D01*
X47512001Y42226193D02*
X47512001Y42322000D01*
X47512001Y34772053D02*
X47512001Y38097945D01*
X47512001Y858000D02*
X47512001Y2852178D01*
X47227001Y42276121D02*
X47227001Y42322000D01*
X47227001Y35057053D02*
X47227001Y38382945D01*
X47227001Y858000D02*
X47227001Y2822000D01*
X46942001Y42248000D02*
X46942001Y42322000D01*
X46942001Y35342053D02*
X46942001Y38667945D01*
X46942001Y858000D02*
X46942001Y2822000D01*
X46657001Y42248000D02*
X46657001Y42322000D01*
X46657001Y35627053D02*
X46657001Y38952945D01*
X46657001Y858000D02*
X46657001Y2822000D01*
X46372001Y42248000D02*
X46372001Y42322000D01*
X46372001Y35912053D02*
X46372001Y39032000D01*
X46372001Y858000D02*
X46372001Y2891943D01*
X46087001Y42248000D02*
X46087001Y42322000D01*
X46087001Y36197053D02*
X46087001Y39032000D01*
X46087001Y858000D02*
X46087001Y3009993D01*
X45802001Y42248000D02*
X45802001Y42322000D01*
X45802001Y36482053D02*
X45802001Y39032000D01*
X45802001Y858000D02*
X45802001Y3128044D01*
X45517001Y42248000D02*
X45517001Y42322000D01*
X45517001Y36780977D02*
X45517001Y39032000D01*
X45517001Y858000D02*
X45517001Y3359705D01*
X45232001Y42248000D02*
X45232001Y42322000D01*
X45232001Y36971407D02*
X45232001Y39032000D01*
X45232001Y10676056D02*
X45232001Y13239946D01*
X45232001Y858000D02*
X45232001Y3644705D01*
X44947001Y42248000D02*
X44947001Y42322000D01*
X44947001Y37100642D02*
X44947001Y39032000D01*
X44947001Y10391056D02*
X44947001Y12954946D01*
X44947001Y858000D02*
X44947001Y4111798D01*
X44662001Y42248000D02*
X44662001Y42322000D01*
X44662001Y37157332D02*
X44662001Y39032000D01*
X44662001Y10106056D02*
X44662001Y12669946D01*
X44662001Y858000D02*
X44662001Y5557947D01*
X44377001Y42248000D02*
X44377001Y42322000D01*
X44377001Y37184982D02*
X44377001Y39032000D01*
X44377001Y9821056D02*
X44377001Y12384946D01*
X44377001Y858000D02*
X44377001Y5272947D01*
X44092001Y42248000D02*
X44092001Y42322000D01*
X44092001Y37168000D02*
X44092001Y39032000D01*
X44092001Y9536056D02*
X44092001Y12099946D01*
X44092001Y858000D02*
X44092001Y4447378D01*
X43807001Y42248000D02*
X43807001Y42322000D01*
X43807001Y37168000D02*
X43807001Y39032000D01*
X43807001Y9251056D02*
X43807001Y11814946D01*
X43807001Y858000D02*
X43807001Y3783707D01*
X43522001Y42248000D02*
X43522001Y42322000D01*
X43522001Y37168000D02*
X43522001Y39032000D01*
X43522001Y8966056D02*
X43522001Y11529946D01*
X43522001Y858000D02*
X43522001Y3498707D01*
X43237001Y42248000D02*
X43237001Y42322000D01*
X43237001Y37168000D02*
X43237001Y39032000D01*
X43237001Y8681056D02*
X43237001Y11244946D01*
X43237001Y858000D02*
X43237001Y3213707D01*
X42952001Y42248000D02*
X42952001Y42322000D01*
X42952001Y37168000D02*
X42952001Y39032000D01*
X42952001Y8396056D02*
X42952001Y10959946D01*
X42952001Y858000D02*
X42952001Y3067569D01*
X42667001Y42248000D02*
X42667001Y42322000D01*
X42667001Y37168000D02*
X42667001Y39032000D01*
X42667001Y15223056D02*
X42667001Y24146945D01*
X42667001Y8111056D02*
X42667001Y10674946D01*
X42667001Y858000D02*
X42667001Y2949518D01*
X42382001Y42248000D02*
X42382001Y42322000D01*
X42382001Y37168000D02*
X42382001Y39032000D01*
X42382001Y14938056D02*
X42382001Y24431945D01*
X42382001Y7826056D02*
X42382001Y10389946D01*
X42382001Y858000D02*
X42382001Y2831467D01*
X42097001Y42248000D02*
X42097001Y42322000D01*
X42097001Y37168000D02*
X42097001Y39032000D01*
X42097001Y14653056D02*
X42097001Y24716945D01*
X42097001Y7541056D02*
X42097001Y10104946D01*
X42097001Y858000D02*
X42097001Y2822000D01*
X41812001Y42248000D02*
X41812001Y42322000D01*
X41812001Y37168000D02*
X41812001Y39032000D01*
X41812001Y14368056D02*
X41812001Y25001945D01*
X41812001Y7338000D02*
X41812001Y9819946D01*
X41812001Y858000D02*
X41812001Y2822000D01*
X41527001Y42248000D02*
X41527001Y42322000D01*
X41527001Y37168000D02*
X41527001Y39032000D01*
X41527001Y14083056D02*
X41527001Y25286945D01*
X41527001Y7338000D02*
X41527001Y9534946D01*
X41527001Y858000D02*
X41527001Y2822000D01*
X41242001Y42248000D02*
X41242001Y42322000D01*
X41242001Y37168000D02*
X41242001Y39032000D01*
X41242001Y13798056D02*
X41242001Y25571945D01*
X41242001Y7247348D02*
X41242001Y9249946D01*
X41242001Y858000D02*
X41242001Y2912653D01*
X40957001Y42248000D02*
X40957001Y42322000D01*
X40957001Y37168000D02*
X40957001Y39032000D01*
X40957001Y23123939D02*
X40957001Y25856945D01*
X40957001Y20583939D02*
X40957001Y22596060D01*
X40957001Y13513056D02*
X40957001Y20056060D01*
X40957001Y7129297D02*
X40957001Y8964946D01*
X40957001Y858000D02*
X40957001Y3030704D01*
X40672001Y42248000D02*
X40672001Y42322000D01*
X40672001Y38833117D02*
X40672001Y39032000D01*
X40672001Y37846000D02*
X40672001Y38354000D01*
X40672001Y37168000D02*
X40672001Y37366882D01*
X40672001Y26133117D02*
X40672001Y26141945D01*
X40672001Y25146000D02*
X40672001Y25654000D01*
X40672001Y23805740D02*
X40672001Y24666883D01*
X40672001Y21265740D02*
X40672001Y21914259D01*
X40672001Y18513116D02*
X40672001Y19374259D01*
X40672001Y17526000D02*
X40672001Y18034000D01*
X40672001Y13228056D02*
X40672001Y17046883D01*
X40672001Y7011246D02*
X40672001Y8679946D01*
X40672001Y858000D02*
X40672001Y3148755D01*
X40387001Y42248000D02*
X40387001Y42322000D01*
X40387001Y37846000D02*
X40387001Y38354000D01*
X40387001Y25146000D02*
X40387001Y25654000D01*
X40387001Y24114385D02*
X40387001Y24296177D01*
X40387001Y21574386D02*
X40387001Y21605613D01*
X40387001Y18883822D02*
X40387001Y19065614D01*
X40387001Y17526000D02*
X40387001Y18034000D01*
X40387001Y12943056D02*
X40387001Y16676177D01*
X40387001Y6750295D02*
X40387001Y8394946D01*
X40387001Y858000D02*
X40387001Y3409705D01*
X40102001Y42248000D02*
X40102001Y42322000D01*
X40102001Y37846000D02*
X40102001Y38354000D01*
X40102001Y25146000D02*
X40102001Y25654000D01*
X40102001Y17526000D02*
X40102001Y18034000D01*
X40102001Y12658056D02*
X40102001Y16494777D01*
X40102001Y6465295D02*
X40102001Y8109946D01*
X40102001Y858000D02*
X40102001Y3694705D01*
X39817001Y42248000D02*
X39817001Y42322000D01*
X39817001Y37846000D02*
X39817001Y38354000D01*
X39817001Y25146000D02*
X39817001Y25654000D01*
X39817001Y17526000D02*
X39817001Y18034000D01*
X39817001Y12373056D02*
X39817001Y16368458D01*
X39817001Y5927492D02*
X39817001Y7824946D01*
X39817001Y858000D02*
X39817001Y4232509D01*
X39532001Y42248000D02*
X39532001Y42322000D01*
X39532001Y37826000D02*
X39532001Y38374000D01*
X39532001Y25126000D02*
X39532001Y25674000D01*
X39532001Y17526000D02*
X39532001Y18054000D01*
X39532001Y12088056D02*
X39532001Y17526000D01*
X39532001Y858000D02*
X39532001Y7539946D01*
X39247001Y42248000D02*
X39247001Y42322000D01*
X39247001Y37826000D02*
X39247001Y38374000D01*
X39247001Y25126000D02*
X39247001Y25674000D01*
X39247001Y17526000D02*
X39247001Y18054000D01*
X39247001Y11803056D02*
X39247001Y17526000D01*
X39247001Y858000D02*
X39247001Y7254946D01*
X38962001Y42198346D02*
X38962001Y42322000D01*
X38962001Y37846000D02*
X38962001Y38354000D01*
X38962001Y25146000D02*
X38962001Y25654000D01*
X38962001Y17526000D02*
X38962001Y18034000D01*
X38962001Y11518056D02*
X38962001Y16386557D01*
X38962001Y858000D02*
X38962001Y3161493D01*
X38677001Y42110877D02*
X38677001Y42322000D01*
X38677001Y37846000D02*
X38677001Y38354000D01*
X38677001Y25146000D02*
X38677001Y25654000D01*
X38677001Y17526000D02*
X38677001Y18034000D01*
X38677001Y11233056D02*
X38677001Y16472309D01*
X38677001Y858000D02*
X38677001Y2900220D01*
X38392001Y41920447D02*
X38392001Y42322000D01*
X38392001Y39243501D02*
X38392001Y39359555D01*
X38392001Y37846000D02*
X38392001Y38354000D01*
X38392001Y36840446D02*
X38392001Y36956500D01*
X38392001Y26543501D02*
X38392001Y26659555D01*
X38392001Y25146000D02*
X38392001Y25654000D01*
X38392001Y24140446D02*
X38392001Y24256500D01*
X38392001Y18923501D02*
X38392001Y19039555D01*
X38392001Y17526000D02*
X38392001Y18034000D01*
X38392001Y10948056D02*
X38392001Y16636500D01*
X38392001Y858000D02*
X38392001Y2819482D01*
X38107001Y41644111D02*
X38107001Y42322000D01*
X38107001Y38883848D02*
X38107001Y39635890D01*
X38107001Y37846000D02*
X38107001Y38354000D01*
X38107001Y36564111D02*
X38107001Y37316153D01*
X38107001Y34024111D02*
X38107001Y34555890D01*
X38107001Y31484111D02*
X38107001Y32015890D01*
X38107001Y28944111D02*
X38107001Y29475890D01*
X38107001Y26183848D02*
X38107001Y26935890D01*
X38107001Y25146000D02*
X38107001Y25654000D01*
X38107001Y23918000D02*
X38107001Y24616153D01*
X38107001Y18563848D02*
X38107001Y19262000D01*
X38107001Y17526000D02*
X38107001Y18034000D01*
X38107001Y10663056D02*
X38107001Y16996153D01*
X38107001Y858000D02*
X38107001Y2807150D01*
X37822001Y41100016D02*
X37822001Y42322000D01*
X37822001Y36020016D02*
X37822001Y40179985D01*
X37822001Y33480016D02*
X37822001Y35099985D01*
X37822001Y30940016D02*
X37822001Y32559985D01*
X37822001Y28400016D02*
X37822001Y30019985D01*
X37822001Y23918000D02*
X37822001Y27479985D01*
X37822001Y17296594D02*
X37822001Y19053763D01*
X37822001Y10378056D02*
X37822001Y17296594D01*
X37822001Y858000D02*
X37822001Y2807150D01*
X37537001Y40640000D02*
X37537001Y42322000D01*
X37537001Y23927788D02*
X37537001Y40640000D01*
X37537001Y17296594D02*
X37537001Y18768763D01*
X37537001Y10093056D02*
X37537001Y17296594D01*
X37537001Y858000D02*
X37537001Y2807150D01*
X37252001Y40640000D02*
X37252001Y42322000D01*
X37252001Y23871098D02*
X37252001Y40640000D01*
X37252001Y17296594D02*
X37252001Y18483763D01*
X37252001Y9808056D02*
X37252001Y17296594D01*
X37252001Y858000D02*
X37252001Y2807150D01*
X36967001Y40640000D02*
X36967001Y42322000D01*
X36967001Y23714835D02*
X36967001Y40640000D01*
X36967001Y17296594D02*
X36967001Y18198763D01*
X36967001Y9523056D02*
X36967001Y17296594D01*
X36967001Y858000D02*
X36967001Y2807150D01*
X36682001Y40640000D02*
X36682001Y42322000D01*
X36682001Y23446239D02*
X36682001Y40640000D01*
X36682001Y17296594D02*
X36682001Y17913763D01*
X36682001Y9238056D02*
X36682001Y17296594D01*
X36682001Y858000D02*
X36682001Y2807150D01*
X36397001Y40640000D02*
X36397001Y42322000D01*
X36397001Y23161239D02*
X36397001Y40640000D01*
X36397001Y17296594D02*
X36397001Y17628763D01*
X36397001Y8953056D02*
X36397001Y17296594D01*
X36397001Y858000D02*
X36397001Y2807150D01*
X36112001Y40640000D02*
X36112001Y42322000D01*
X36112001Y22876239D02*
X36112001Y40640000D01*
X36112001Y17296594D02*
X36112001Y17343763D01*
X36112001Y8668056D02*
X36112001Y17296594D01*
X36112001Y858000D02*
X36112001Y2807150D01*
X35827001Y40640000D02*
X35827001Y42322000D01*
X35827001Y22591239D02*
X35827001Y40640000D01*
X35827001Y8383056D02*
X35827001Y17058764D01*
X35827001Y858000D02*
X35827001Y2807150D01*
X35542001Y40640000D02*
X35542001Y42322000D01*
X35542001Y22306239D02*
X35542001Y40640000D01*
X35542001Y8078696D02*
X35542001Y16773764D01*
X35542001Y858000D02*
X35542001Y2807150D01*
X35257001Y40640000D02*
X35257001Y42322000D01*
X35257001Y22021239D02*
X35257001Y40640000D01*
X35257001Y7446332D02*
X35257001Y16488764D01*
X35257001Y858000D02*
X35257001Y2821671D01*
X34972001Y40640000D02*
X34972001Y42322000D01*
X34972001Y21736239D02*
X34972001Y40640000D01*
X34972001Y7252432D02*
X34972001Y16203764D01*
X34972001Y858000D02*
X34972001Y2907569D01*
X34687001Y40640000D02*
X34687001Y42322000D01*
X34687001Y21451239D02*
X34687001Y40640000D01*
X34687001Y6982048D02*
X34687001Y15918764D01*
X34687001Y858000D02*
X34687001Y3177953D01*
X34402001Y40640000D02*
X34402001Y42322000D01*
X34402001Y21166239D02*
X34402001Y40640000D01*
X34402001Y6580000D02*
X34402001Y15633764D01*
X34402001Y858000D02*
X34402001Y6580000D01*
X34117001Y40640000D02*
X34117001Y42322000D01*
X34117001Y20881239D02*
X34117001Y40640000D01*
X34117001Y6580000D02*
X34117001Y15348764D01*
X34117001Y858000D02*
X34117001Y6580000D01*
X33832001Y40640000D02*
X33832001Y42322000D01*
X33832001Y20596239D02*
X33832001Y40640000D01*
X33832001Y6580000D02*
X33832001Y15063764D01*
X33832001Y5954043D02*
X33832001Y6580000D01*
X33832001Y858000D02*
X33832001Y4205956D01*
X33547001Y40640000D02*
X33547001Y42322000D01*
X33547001Y20311239D02*
X33547001Y40640000D01*
X33547001Y6580000D02*
X33547001Y14778764D01*
X33547001Y6476293D02*
X33547001Y6580000D01*
X33547001Y858000D02*
X33547001Y3683707D01*
X33262001Y40640000D02*
X33262001Y42322000D01*
X33262001Y20026239D02*
X33262001Y40640000D01*
X33262001Y6761293D02*
X33262001Y14493764D01*
X33262001Y858000D02*
X33262001Y3398707D01*
X32977001Y40640000D02*
X32977001Y42322000D01*
X32977001Y19741239D02*
X32977001Y40640000D01*
X32977001Y7015801D02*
X32977001Y14208764D01*
X32977001Y858000D02*
X32977001Y3144198D01*
X32692001Y40640000D02*
X32692001Y42322000D01*
X32692001Y19456239D02*
X32692001Y40640000D01*
X32692001Y858000D02*
X32692001Y3026148D01*
X32407001Y40640000D02*
X32407001Y42322000D01*
X32407001Y19171239D02*
X32407001Y40640000D01*
X32407001Y858000D02*
X32407001Y2908097D01*
X32122001Y40640000D02*
X32122001Y42322000D01*
X32122001Y18886239D02*
X32122001Y40640000D01*
X32122001Y858000D02*
X32122001Y2822000D01*
X31837001Y40640000D02*
X31837001Y42322000D01*
X31837001Y18601239D02*
X31837001Y40640000D01*
X31837001Y858000D02*
X31837001Y2822000D01*
X31552001Y40640000D02*
X31552001Y42322000D01*
X31552001Y18316239D02*
X31552001Y40640000D01*
X31552001Y858000D02*
X31552001Y2822000D01*
X31267001Y40640000D02*
X31267001Y42322000D01*
X31267001Y18031239D02*
X31267001Y40640000D01*
X31267001Y858000D02*
X31267001Y2836024D01*
X30982001Y40640000D02*
X30982001Y42322000D01*
X30982001Y17746239D02*
X30982001Y40640000D01*
X30982001Y858000D02*
X30982001Y2954075D01*
X30697001Y40640000D02*
X30697001Y42322000D01*
X30697001Y17461239D02*
X30697001Y40640000D01*
X30697001Y858000D02*
X30697001Y3072125D01*
X30412001Y40640000D02*
X30412001Y42322000D01*
X30412001Y17176239D02*
X30412001Y40640000D01*
X30412001Y6935295D02*
X30412001Y14183763D01*
X30412001Y858000D02*
X30412001Y3224705D01*
X30127001Y40640000D02*
X30127001Y42322000D01*
X30127001Y16891239D02*
X30127001Y40640000D01*
X30127001Y6650295D02*
X30127001Y13898763D01*
X30127001Y858000D02*
X30127001Y3509705D01*
X29842001Y40640000D02*
X29842001Y42322000D01*
X29842001Y16606239D02*
X29842001Y40640000D01*
X29842001Y6365295D02*
X29842001Y13613763D01*
X29842001Y858000D02*
X29842001Y3794705D01*
X29557001Y40640000D02*
X29557001Y42322000D01*
X29557001Y16321239D02*
X29557001Y40640000D01*
X29557001Y5686071D02*
X29557001Y13328763D01*
X29557001Y858000D02*
X29557001Y4473930D01*
X29272001Y40640000D02*
X29272001Y42322000D01*
X29272001Y16036239D02*
X29272001Y40640000D01*
X29272001Y858000D02*
X29272001Y13043763D01*
X28987001Y40640000D02*
X28987001Y42322000D01*
X28987001Y15751239D02*
X28987001Y40640000D01*
X28987001Y858000D02*
X28987001Y12758763D01*
X28702001Y40640000D02*
X28702001Y42322000D01*
X28702001Y15466239D02*
X28702001Y40640000D01*
X28702001Y6074753D02*
X28702001Y12473763D01*
X28702001Y858000D02*
X28702001Y4085246D01*
X28417001Y40640000D02*
X28417001Y42322000D01*
X28417001Y15181239D02*
X28417001Y40640000D01*
X28417001Y6526293D02*
X28417001Y12188763D01*
X28417001Y858000D02*
X28417001Y3633707D01*
X28132001Y40640000D02*
X28132001Y42322000D01*
X28132001Y14896239D02*
X28132001Y40640000D01*
X28132001Y6811293D02*
X28132001Y11903763D01*
X28132001Y858000D02*
X28132001Y3348707D01*
X27847001Y40640000D02*
X27847001Y42322000D01*
X27847001Y14611239D02*
X27847001Y40640000D01*
X27847001Y7036511D02*
X27847001Y11618763D01*
X27847001Y858000D02*
X27847001Y3123488D01*
X27562001Y40640000D02*
X27562001Y42322000D01*
X27562001Y14326239D02*
X27562001Y40640000D01*
X27562001Y858000D02*
X27562001Y3005437D01*
X27277001Y40640000D02*
X27277001Y42322000D01*
X27277001Y14041239D02*
X27277001Y40640000D01*
X27277001Y858000D02*
X27277001Y2887386D01*
X26992001Y40640000D02*
X26992001Y42322000D01*
X26992001Y13756239D02*
X26992001Y40640000D01*
X26992001Y858000D02*
X26992001Y2822000D01*
X26707001Y40640000D02*
X26707001Y42322000D01*
X26707001Y13471239D02*
X26707001Y40640000D01*
X26707001Y858000D02*
X26707001Y2822000D01*
X26422001Y40640000D02*
X26422001Y42322000D01*
X26422001Y13186239D02*
X26422001Y40640000D01*
X26422001Y858000D02*
X26422001Y2822000D01*
X26137001Y40640000D02*
X26137001Y42322000D01*
X26137001Y12901239D02*
X26137001Y40640000D01*
X26137001Y858000D02*
X26137001Y2856734D01*
X25852001Y40640000D02*
X25852001Y42322000D01*
X25852001Y12618126D02*
X25852001Y40640000D01*
X25852001Y858000D02*
X25852001Y2974785D01*
X25567001Y40640000D02*
X25567001Y42322000D01*
X25567001Y7067165D02*
X25567001Y40640000D01*
X25567001Y858000D02*
X25567001Y3092836D01*
X25282001Y40640000D02*
X25282001Y42322000D01*
X25282001Y6885295D02*
X25282001Y40640000D01*
X25282001Y858000D02*
X25282001Y3274705D01*
X24997001Y40640000D02*
X24997001Y42322000D01*
X24997001Y6600295D02*
X24997001Y40640000D01*
X24997001Y858000D02*
X24997001Y3559705D01*
X24712001Y40640000D02*
X24712001Y42322000D01*
X24712001Y6253411D02*
X24712001Y40640000D01*
X24712001Y858000D02*
X24712001Y3906590D01*
X24427001Y40640000D02*
X24427001Y42322000D01*
X24427001Y5565360D02*
X24427001Y40640000D01*
X24427001Y858000D02*
X24427001Y4594641D01*
X24142001Y40640000D02*
X24142001Y42322000D01*
X24142001Y5529144D02*
X24142001Y40640000D01*
X24142001Y858000D02*
X24142001Y5529144D01*
X23857001Y40640000D02*
X23857001Y42322000D01*
X23857001Y6609404D02*
X23857001Y40640000D01*
X23857001Y858000D02*
X23857001Y3550595D01*
X23572001Y40640000D02*
X23572001Y42322000D01*
X23572001Y7169575D02*
X23572001Y40640000D01*
X23572001Y858000D02*
X23572001Y2990424D01*
X23287001Y40640000D02*
X23287001Y42322000D01*
X23287001Y7313663D02*
X23287001Y40640000D01*
X23287001Y858000D02*
X23287001Y2846336D01*
X23002001Y40640000D02*
X23002001Y42322000D01*
X23002001Y7352850D02*
X23002001Y40640000D01*
X23002001Y858000D02*
X23002001Y2807150D01*
X22717001Y40640000D02*
X22717001Y42322000D01*
X22717001Y7352850D02*
X22717001Y40640000D01*
X22717001Y858000D02*
X22717001Y2807150D01*
X22432001Y40640000D02*
X22432001Y42322000D01*
X22432001Y7352850D02*
X22432001Y40640000D01*
X22432001Y858000D02*
X22432001Y2807150D01*
X22147001Y40640000D02*
X22147001Y42322000D01*
X22147001Y7352850D02*
X22147001Y40640000D01*
X22147001Y858000D02*
X22147001Y2807150D01*
X21862001Y40640000D02*
X21862001Y42322000D01*
X21862001Y7352850D02*
X21862001Y40640000D01*
X21862001Y858000D02*
X21862001Y2807150D01*
X21577001Y40640000D02*
X21577001Y42322000D01*
X21577001Y7352850D02*
X21577001Y40640000D01*
X21577001Y858000D02*
X21577001Y2807150D01*
X21292001Y40640000D02*
X21292001Y42322000D01*
X21292001Y7352850D02*
X21292001Y40640000D01*
X21292001Y858000D02*
X21292001Y2807150D01*
X21007001Y40640000D02*
X21007001Y42322000D01*
X21007001Y7352850D02*
X21007001Y40640000D01*
X21007001Y858000D02*
X21007001Y2807150D01*
X20722001Y40640000D02*
X20722001Y42322000D01*
X20722001Y7352850D02*
X20722001Y40640000D01*
X20722001Y858000D02*
X20722001Y2807150D01*
X20437001Y40640000D02*
X20437001Y42322000D01*
X20437001Y7352850D02*
X20437001Y40640000D01*
X20437001Y858000D02*
X20437001Y2807150D01*
X20152001Y40640000D02*
X20152001Y42322000D01*
X20152001Y7352850D02*
X20152001Y40640000D01*
X20152001Y858000D02*
X20152001Y2807150D01*
X19867001Y40640000D02*
X19867001Y42322000D01*
X19867001Y7308493D02*
X19867001Y40640000D01*
X19867001Y858000D02*
X19867001Y2851508D01*
X19582001Y40640000D02*
X19582001Y42322000D01*
X19582001Y7152204D02*
X19582001Y40640000D01*
X19582001Y858000D02*
X19582001Y3007797D01*
X19297001Y40640000D02*
X19297001Y42322000D01*
X19297001Y6120398D02*
X19297001Y40640000D01*
X19297001Y858000D02*
X19297001Y3391064D01*
X19012001Y40640000D02*
X19012001Y42322000D01*
X19012001Y6033258D02*
X19012001Y40640000D01*
X19012001Y858000D02*
X19012001Y3106064D01*
X18727001Y40640000D02*
X18727001Y42322000D01*
X18727001Y5842826D02*
X18727001Y40640000D01*
X18727001Y858000D02*
X18727001Y2821064D01*
X18442001Y40640000D02*
X18442001Y42322000D01*
X18442001Y6124047D02*
X18442001Y40640000D01*
X18442001Y858000D02*
X18442001Y2536064D01*
X18157001Y40640000D02*
X18157001Y42322000D01*
X18157001Y6307233D02*
X18157001Y40640000D01*
X18157001Y858000D02*
X18157001Y2246792D01*
X17872001Y40640000D02*
X17872001Y42322000D01*
X17872001Y6082791D02*
X17872001Y40640000D01*
X17872001Y858000D02*
X17872001Y2014587D01*
X17587001Y40640000D02*
X17587001Y42322000D01*
X17587001Y6998163D02*
X17587001Y40640000D01*
X17587001Y5797791D02*
X17587001Y6516211D01*
X17587001Y858000D02*
X17587001Y1903748D01*
X17302001Y40640000D02*
X17302001Y42322000D01*
X17302001Y7091431D02*
X17302001Y40640000D01*
X17302001Y5512791D02*
X17302001Y6231211D01*
X17302001Y858000D02*
X17302001Y1863689D01*
X17017001Y40640000D02*
X17017001Y42322000D01*
X17017001Y7184700D02*
X17017001Y40640000D01*
X17017001Y5227791D02*
X17017001Y5946211D01*
X17017001Y858000D02*
X17017001Y1876100D01*
X16732001Y40640000D02*
X16732001Y42322000D01*
X16732001Y7261319D02*
X16732001Y40640000D01*
X16732001Y4914505D02*
X16732001Y5661211D01*
X16732001Y858000D02*
X16732001Y1876100D01*
X16447001Y40640000D02*
X16447001Y42322000D01*
X16447001Y7239495D02*
X16447001Y40640000D01*
X16447001Y4755504D02*
X16447001Y5502209D01*
X16447001Y858000D02*
X16447001Y1876100D01*
X16162001Y40640000D02*
X16162001Y42322000D01*
X16162001Y7217671D02*
X16162001Y40640000D01*
X16162001Y5040504D02*
X16162001Y5787209D01*
X16162001Y858000D02*
X16162001Y1876100D01*
X15877001Y40640000D02*
X15877001Y42322000D01*
X15877001Y7182264D02*
X15877001Y40640000D01*
X15877001Y5353789D02*
X15877001Y6072209D01*
X15877001Y858000D02*
X15877001Y1876100D01*
X15592001Y40640000D02*
X15592001Y42322000D01*
X15592001Y30272197D02*
X15592001Y40640000D01*
X15592001Y7064213D02*
X15592001Y7827802D01*
X15592001Y5638789D02*
X15592001Y6357209D01*
X15592001Y858000D02*
X15592001Y1876100D01*
X15307001Y40640000D02*
X15307001Y42322000D01*
X15307001Y30648382D02*
X15307001Y40640000D01*
X15307001Y6771265D02*
X15307001Y7451617D01*
X15307001Y5923789D02*
X15307001Y6642209D01*
X15307001Y858000D02*
X15307001Y1876100D01*
X15022001Y40640000D02*
X15022001Y42322000D01*
X15022001Y30924236D02*
X15022001Y40640000D01*
X15022001Y6687869D02*
X15022001Y7175763D01*
X15022001Y6208789D02*
X15022001Y6687869D01*
X15022001Y858000D02*
X15022001Y1876100D01*
X14737001Y40640000D02*
X14737001Y42322000D01*
X14737001Y31209236D02*
X14737001Y40640000D01*
X14737001Y6687869D02*
X14737001Y6890763D01*
X14737001Y6238249D02*
X14737001Y6687869D01*
X14737001Y858000D02*
X14737001Y1876100D01*
X14452001Y40640000D02*
X14452001Y42322000D01*
X14452001Y31494236D02*
X14452001Y40640000D01*
X14452001Y5729706D02*
X14452001Y6605764D01*
X14452001Y3992100D02*
X14452001Y4340137D01*
X14452001Y858000D02*
X14452001Y1876100D01*
X14167001Y40640000D02*
X14167001Y42322000D01*
X14167001Y31779236D02*
X14167001Y40640000D01*
X14167001Y3992100D02*
X14167001Y6320764D01*
X14167001Y858000D02*
X14167001Y1876100D01*
X13882001Y40640000D02*
X13882001Y42322000D01*
X13882001Y32064236D02*
X13882001Y40640000D01*
X13882001Y3992100D02*
X13882001Y6035764D01*
X13882001Y858000D02*
X13882001Y1876100D01*
X13597001Y40640000D02*
X13597001Y42322000D01*
X13597001Y32349236D02*
X13597001Y40640000D01*
X13597001Y858000D02*
X13597001Y1876100D01*
X13312001Y40640000D02*
X13312001Y42322000D01*
X13312001Y32634236D02*
X13312001Y40640000D01*
X13312001Y858000D02*
X13312001Y1876100D01*
X13027001Y40640000D02*
X13027001Y42322000D01*
X13027001Y32919236D02*
X13027001Y40640000D01*
X13027001Y858000D02*
X13027001Y1876100D01*
X12742001Y40640000D02*
X12742001Y42322000D01*
X12742001Y33204236D02*
X12742001Y40640000D01*
X12742001Y858000D02*
X12742001Y1876100D01*
X12457001Y40640000D02*
X12457001Y42322000D01*
X12457001Y33489236D02*
X12457001Y40640000D01*
X12457001Y858000D02*
X12457001Y1876100D01*
X12172001Y40640000D02*
X12172001Y42322000D01*
X12172001Y33774236D02*
X12172001Y40640000D01*
X12172001Y858000D02*
X12172001Y1876100D01*
X11887001Y40640000D02*
X11887001Y42322000D01*
X11887001Y34059236D02*
X11887001Y40640000D01*
X11887001Y858000D02*
X11887001Y1876100D01*
X11602001Y40640000D02*
X11602001Y42322000D01*
X11602001Y34344236D02*
X11602001Y40640000D01*
X11602001Y858000D02*
X11602001Y1876100D01*
X11317001Y40640000D02*
X11317001Y42322000D01*
X11317001Y34629236D02*
X11317001Y40640000D01*
X11317001Y858000D02*
X11317001Y1876100D01*
X11032001Y40640000D02*
X11032001Y42322000D01*
X11032001Y34914236D02*
X11032001Y40640000D01*
X11032001Y858000D02*
X11032001Y1876100D01*
X10747001Y40640000D02*
X10747001Y42322000D01*
X10747001Y35199236D02*
X10747001Y40640000D01*
X10747001Y858000D02*
X10747001Y1876100D01*
X10462001Y40640000D02*
X10462001Y42322000D01*
X10462001Y35484236D02*
X10462001Y40640000D01*
X10462001Y858000D02*
X10462001Y1876100D01*
X10177001Y40640000D02*
X10177001Y42322000D01*
X10177001Y35769236D02*
X10177001Y40640000D01*
X10177001Y858000D02*
X10177001Y1876100D01*
X9892001Y40640000D02*
X9892001Y42322000D01*
X9892001Y36054236D02*
X9892001Y40640000D01*
X9892001Y858000D02*
X9892001Y1876100D01*
X9607001Y40640000D02*
X9607001Y42322000D01*
X9607001Y36339236D02*
X9607001Y40640000D01*
X9607001Y858000D02*
X9607001Y1876100D01*
X9322001Y40640000D02*
X9322001Y42322000D01*
X9322001Y36624236D02*
X9322001Y40640000D01*
X9322001Y858000D02*
X9322001Y1876100D01*
X9037001Y40640000D02*
X9037001Y42322000D01*
X9037001Y36909236D02*
X9037001Y40640000D01*
X9037001Y858000D02*
X9037001Y1876100D01*
X8752001Y40640000D02*
X8752001Y42322000D01*
X8752001Y37194236D02*
X8752001Y40640000D01*
X8752001Y858000D02*
X8752001Y1876100D01*
X8467001Y40640000D02*
X8467001Y42322000D01*
X8467001Y37479236D02*
X8467001Y40640000D01*
X8467001Y16862850D02*
X8467001Y16862850D01*
X8467001Y858000D02*
X8467001Y1876100D01*
X8182001Y40640000D02*
X8182001Y42322000D01*
X8182001Y37764236D02*
X8182001Y40640000D01*
X8182001Y16862850D02*
X8182001Y22833762D01*
X8182001Y858000D02*
X8182001Y1876100D01*
X7897001Y40640000D02*
X7897001Y42322000D01*
X7897001Y38049236D02*
X7897001Y40640000D01*
X7897001Y16862850D02*
X7897001Y23118762D01*
X7897001Y858000D02*
X7897001Y1876100D01*
X7612001Y40640000D02*
X7612001Y42322000D01*
X7612001Y38334236D02*
X7612001Y40640000D01*
X7612001Y16862850D02*
X7612001Y23403762D01*
X7612001Y858000D02*
X7612001Y1876100D01*
X7327001Y40640000D02*
X7327001Y42322000D01*
X7327001Y38619236D02*
X7327001Y40640000D01*
X7327001Y16862850D02*
X7327001Y23688762D01*
X7327001Y858000D02*
X7327001Y1876100D01*
X7042001Y40640000D02*
X7042001Y42322000D01*
X7042001Y38904236D02*
X7042001Y40640000D01*
X7042001Y16862850D02*
X7042001Y23973762D01*
X7042001Y858000D02*
X7042001Y1876100D01*
X6757001Y40640000D02*
X6757001Y42322000D01*
X6757001Y39189236D02*
X6757001Y40640000D01*
X6757001Y16860265D02*
X6757001Y24258762D01*
X6757001Y858000D02*
X6757001Y1876100D01*
X6472001Y40640000D02*
X6472001Y42322000D01*
X6472001Y39474236D02*
X6472001Y40640000D01*
X6472001Y16802522D02*
X6472001Y24543762D01*
X6472001Y858000D02*
X6472001Y1876100D01*
X6187001Y40640000D02*
X6187001Y42322000D01*
X6187001Y39759236D02*
X6187001Y40640000D01*
X6187001Y16899236D02*
X6187001Y24828762D01*
X6187001Y858000D02*
X6187001Y1876100D01*
X5902001Y40640000D02*
X5902001Y42322000D01*
X5902001Y40044236D02*
X5902001Y40640000D01*
X5902001Y17184236D02*
X5902001Y25113762D01*
X5902001Y858000D02*
X5902001Y1876100D01*
X5617001Y40640000D02*
X5617001Y42322000D01*
X5617001Y40329236D02*
X5617001Y40640000D01*
X5617001Y17469236D02*
X5617001Y25398762D01*
X5617001Y858000D02*
X5617001Y1876100D01*
X5332001Y41230715D02*
X5332001Y42322000D01*
X5332001Y23450715D02*
X5332001Y25683762D01*
X5332001Y18370715D02*
X5332001Y22269284D01*
X5332001Y858000D02*
X5332001Y1876100D01*
X5047001Y41683019D02*
X5047001Y42322000D01*
X5047001Y25146000D02*
X5047001Y25654000D01*
X5047001Y23903019D02*
X5047001Y24582336D01*
X5047001Y21137663D02*
X5047001Y21816980D01*
X5047001Y20066000D02*
X5047001Y20574000D01*
X5047001Y18823019D02*
X5047001Y19502336D01*
X5047001Y858000D02*
X5047001Y1876100D01*
X4762001Y41937817D02*
X4762001Y42322000D01*
X4762001Y25146000D02*
X4762001Y25654000D01*
X4762001Y24157817D02*
X4762001Y24241521D01*
X4762001Y21478478D02*
X4762001Y21562182D01*
X4762001Y20066000D02*
X4762001Y20574000D01*
X4762001Y19077817D02*
X4762001Y19161521D01*
X4762001Y858000D02*
X4762001Y1876100D01*
X4477001Y42128248D02*
X4477001Y42322000D01*
X4477001Y25146000D02*
X4477001Y25654000D01*
X4477001Y20066000D02*
X4477001Y20574000D01*
X4477001Y858000D02*
X4477001Y1876100D01*
X4192001Y42203517D02*
X4192001Y42322000D01*
X4192001Y25146000D02*
X4192001Y25654000D01*
X4192001Y20066000D02*
X4192001Y20574000D01*
X4192001Y858000D02*
X4192001Y1876100D01*
X3907001Y42248000D02*
X3907001Y42322000D01*
X3907001Y37826000D02*
X3907001Y38374000D01*
X3907001Y25126000D02*
X3907001Y25674000D01*
X3907001Y20046000D02*
X3907001Y20594000D01*
X3907001Y858000D02*
X3907001Y1860108D01*
X3622001Y42242107D02*
X3622001Y42322000D01*
X3622001Y37826000D02*
X3622001Y38374000D01*
X3622001Y25126000D02*
X3622001Y25674000D01*
X3622001Y20046000D02*
X3622001Y20594000D01*
X3622001Y858000D02*
X3622001Y1907329D01*
X3337001Y42185417D02*
X3337001Y42322000D01*
X3337001Y37846000D02*
X3337001Y38354000D01*
X3337001Y25146000D02*
X3337001Y25654000D01*
X3337001Y858000D02*
X3337001Y2026614D01*
X3052001Y42067446D02*
X3052001Y42322000D01*
X3052001Y37846000D02*
X3052001Y38354000D01*
X3052001Y25146000D02*
X3052001Y25654000D01*
X3052001Y858000D02*
X3052001Y2269062D01*
X2767001Y41877015D02*
X2767001Y42322000D01*
X2767001Y39170007D02*
X2767001Y39402986D01*
X2767001Y37846000D02*
X2767001Y38354000D01*
X2767001Y36797015D02*
X2767001Y37029994D01*
X2767001Y34257015D02*
X2767001Y34322986D01*
X2767001Y31717015D02*
X2767001Y31782986D01*
X2767001Y29177015D02*
X2767001Y29242986D01*
X2767001Y26470007D02*
X2767001Y26702986D01*
X2767001Y25146000D02*
X2767001Y25654000D01*
X2767001Y24097015D02*
X2767001Y24329994D01*
X2767001Y858000D02*
X2767001Y2554062D01*
X2482001Y41546832D02*
X2482001Y42322000D01*
X2482001Y38799301D02*
X2482001Y39733169D01*
X2482001Y37827656D02*
X2482001Y38372345D01*
X2482001Y36466832D02*
X2482001Y37400700D01*
X2482001Y33926832D02*
X2482001Y34653169D01*
X2482001Y31386832D02*
X2482001Y32113169D01*
X2482001Y28846832D02*
X2482001Y29573169D01*
X2482001Y26099301D02*
X2482001Y27033169D01*
X2482001Y25127656D02*
X2482001Y25672345D01*
X2482001Y23766832D02*
X2482001Y24700700D01*
X2482001Y858000D02*
X2482001Y2839062D01*
X2197001Y40773240D02*
X2197001Y42322000D01*
X2197001Y35693240D02*
X2197001Y40506761D01*
X2197001Y33153240D02*
X2197001Y35426761D01*
X2197001Y30613240D02*
X2197001Y32886761D01*
X2197001Y28073240D02*
X2197001Y30346761D01*
X2197001Y22993240D02*
X2197001Y27806761D01*
X2197001Y858000D02*
X2197001Y3124062D01*
X1912001Y22458239D02*
X1912001Y42322000D01*
X1912001Y858000D02*
X1912001Y3409062D01*
X1627001Y22185636D02*
X1627001Y42322000D01*
X1627001Y858000D02*
X1627001Y3681664D01*
X1342001Y21800676D02*
X1342001Y42322000D01*
X1342001Y858000D02*
X1342001Y4066621D01*
X1057001Y21388800D02*
X1057001Y42307149D01*
X1057001Y970697D02*
X1057001Y21388800D01*
D17*
X65182001Y42044879D02*
X65182000Y1106429D01*
X64933309Y858000D01*
X1169580Y858000D01*
X858000Y1169908D01*
X858000Y21388800D01*
X1260074Y21388800D01*
X1280801Y21284598D01*
X1280800Y4582697D01*
X1260074Y4478500D01*
X1280800Y4374303D01*
X1280800Y4374299D01*
X1342186Y4065690D01*
X1576025Y3715725D01*
X1664365Y3656698D01*
X3061400Y2259662D01*
X3120425Y2171325D01*
X3470389Y1937486D01*
X3778998Y1876100D01*
X3779002Y1876100D01*
X3883199Y1855374D01*
X3987396Y1876100D01*
X17239603Y1876100D01*
X17343800Y1855374D01*
X17447997Y1876100D01*
X17448002Y1876100D01*
X17756611Y1937486D01*
X18106575Y2171325D01*
X18165602Y2259665D01*
X19345154Y3439217D01*
X19375980Y3284243D01*
X19543513Y3033513D01*
X19794243Y2865980D01*
X20090000Y2807150D01*
X23090000Y2807150D01*
X23385757Y2865980D01*
X23636487Y3033513D01*
X23804020Y3284243D01*
X23862850Y3580000D01*
X23862850Y5529144D01*
X24412000Y5529144D01*
X24412000Y4630856D01*
X24755760Y3800946D01*
X25390946Y3165760D01*
X26220856Y2822000D01*
X27119144Y2822000D01*
X27949054Y3165760D01*
X28584240Y3800946D01*
X28928000Y4630856D01*
X28928000Y5529144D01*
X28584240Y6359054D01*
X27949054Y6994240D01*
X27728000Y7085804D01*
X27728000Y11499763D01*
X30677075Y14448837D01*
X30692000Y14373803D01*
X30692001Y7085804D01*
X30470946Y6994240D01*
X29835760Y6359054D01*
X29492000Y5529144D01*
X29492000Y4630856D01*
X29835760Y3800946D01*
X30470946Y3165760D01*
X31300856Y2822000D01*
X32199144Y2822000D01*
X33029054Y3165760D01*
X33664240Y3800946D01*
X34008000Y4630856D01*
X34008000Y5529144D01*
X33664240Y6359054D01*
X33443294Y6580000D01*
X34557150Y6580000D01*
X34557150Y3580000D01*
X34615980Y3284243D01*
X34783513Y3033513D01*
X35034243Y2865980D01*
X35330000Y2807150D01*
X38330000Y2807150D01*
X38625757Y2865980D01*
X38876487Y3033513D01*
X39044020Y3284243D01*
X39102850Y3580000D01*
X39102850Y6580000D01*
X39044020Y6875757D01*
X38973440Y6981386D01*
X45382001Y13389946D01*
X45382001Y10826056D01*
X41893946Y7338000D01*
X41460856Y7338000D01*
X40630946Y6994240D01*
X39995760Y6359054D01*
X39652000Y5529144D01*
X39652000Y4630856D01*
X39995760Y3800946D01*
X40630946Y3165760D01*
X41460856Y2822000D01*
X42359144Y2822000D01*
X43189054Y3165760D01*
X43824240Y3800946D01*
X44168000Y4630856D01*
X44168000Y5063946D01*
X44801863Y5697809D01*
X44732000Y5529144D01*
X44732000Y4630856D01*
X45075760Y3800946D01*
X45710946Y3165760D01*
X46540856Y2822000D01*
X47439144Y2822000D01*
X48269054Y3165760D01*
X48904240Y3800946D01*
X49248000Y4630856D01*
X49248000Y5529144D01*
X49235464Y5559409D01*
X50462001Y6785946D01*
X50462001Y6665295D01*
X50155760Y6359054D01*
X49812000Y5529144D01*
X49812000Y4630856D01*
X50155760Y3800946D01*
X50790946Y3165760D01*
X51620856Y2822000D01*
X52519144Y2822000D01*
X53349054Y3165760D01*
X53655425Y3472131D01*
X55901341Y3472131D01*
X56070845Y3162541D01*
X56886771Y2895524D01*
X57742771Y2961073D01*
X58229155Y3162541D01*
X58398659Y3472131D01*
X57150000Y4720790D01*
X55901341Y3472131D01*
X53655425Y3472131D01*
X53984240Y3800946D01*
X54328000Y4630856D01*
X54328000Y5343229D01*
X54965524Y5343229D01*
X55031073Y4487229D01*
X55232541Y4000845D01*
X55542131Y3831341D01*
X56790790Y5080000D01*
X57509210Y5080000D01*
X58757869Y3831341D01*
X59067459Y4000845D01*
X59334476Y4816771D01*
X59268927Y5672771D01*
X59067459Y6159155D01*
X58757869Y6328659D01*
X57509210Y5080000D01*
X56790790Y5080000D01*
X55542131Y6328659D01*
X55232541Y6159155D01*
X54965524Y5343229D01*
X54328000Y5343229D01*
X54328000Y5529144D01*
X53984240Y6359054D01*
X53678000Y6665294D01*
X53678000Y6687869D01*
X55901341Y6687869D01*
X57150000Y5439210D01*
X58398659Y6687869D01*
X58229155Y6997459D01*
X57413229Y7264476D01*
X56557229Y7198927D01*
X56070845Y6997459D01*
X55901341Y6687869D01*
X53678000Y6687869D01*
X53678000Y27781635D01*
X53709501Y27940001D01*
X53678000Y28098367D01*
X53678000Y28098371D01*
X53584702Y28567410D01*
X53229303Y29099303D01*
X53095042Y29189013D01*
X45699016Y36585038D01*
X45609303Y36719303D01*
X45077410Y37074702D01*
X44608371Y37168000D01*
X44608369Y37168000D01*
X44450000Y37199502D01*
X44291631Y37168000D01*
X40519099Y37168000D01*
X40721881Y37431763D01*
X40798420Y37616594D01*
X40689271Y37846000D01*
X39624000Y37846000D01*
X39624000Y37826000D01*
X39116000Y37826000D01*
X39116000Y37846000D01*
X38050729Y37846000D01*
X37941580Y37616594D01*
X38018119Y37431763D01*
X38376748Y36965287D01*
X38485270Y36902766D01*
X38210697Y36719303D01*
X37855298Y36187410D01*
X37730498Y35560000D01*
X37855298Y34932590D01*
X38210697Y34400697D01*
X38376367Y34290000D01*
X38210697Y34179303D01*
X37855298Y33647410D01*
X37730498Y33020000D01*
X37855298Y32392590D01*
X38210697Y31860697D01*
X38376367Y31750000D01*
X38210697Y31639303D01*
X37855298Y31107410D01*
X37730498Y30480000D01*
X37855298Y29852590D01*
X38210697Y29320697D01*
X38376367Y29210000D01*
X38210697Y29099303D01*
X37855298Y28567410D01*
X37730498Y27940000D01*
X37855298Y27312590D01*
X38210697Y26780697D01*
X38485270Y26597234D01*
X38376748Y26534713D01*
X38018119Y26068237D01*
X37941580Y25883406D01*
X38050729Y25654000D01*
X39116000Y25654000D01*
X39116000Y25674000D01*
X39624000Y25674000D01*
X39624000Y25654000D01*
X40689271Y25654000D01*
X40798420Y25883406D01*
X40721881Y26068237D01*
X40642645Y26171301D01*
X42842000Y23971945D01*
X42842001Y15398056D01*
X35804962Y8361016D01*
X35670697Y8271303D01*
X35315298Y7739409D01*
X35234633Y7333880D01*
X35034243Y7294020D01*
X34783513Y7126487D01*
X34615980Y6875757D01*
X34557150Y6580000D01*
X33443294Y6580000D01*
X33029054Y6994240D01*
X32808000Y7085804D01*
X32808000Y14039763D01*
X36064831Y17296594D01*
X37941580Y17296594D01*
X38018119Y17111763D01*
X38376748Y16645287D01*
X38886591Y16351561D01*
X39116000Y16458026D01*
X39116000Y17526000D01*
X39624000Y17526000D01*
X39624000Y16458026D01*
X39853409Y16351561D01*
X40363252Y16645287D01*
X40721881Y17111763D01*
X40798420Y17296594D01*
X40689271Y17526000D01*
X39624000Y17526000D01*
X39116000Y17526000D01*
X38050729Y17526000D01*
X37941580Y17296594D01*
X36064831Y17296594D01*
X38030238Y19262000D01*
X38143009Y19262000D01*
X38210697Y19160697D01*
X38485270Y18977234D01*
X38376748Y18914713D01*
X38018119Y18448237D01*
X37941580Y18263406D01*
X38050729Y18034000D01*
X39116000Y18034000D01*
X39116000Y18054000D01*
X39624000Y18054000D01*
X39624000Y18034000D01*
X40689271Y18034000D01*
X40798420Y18263406D01*
X40721881Y18448237D01*
X40363252Y18914713D01*
X40254730Y18977234D01*
X40529303Y19160697D01*
X40884702Y19692590D01*
X41009502Y20320000D01*
X40884702Y20947410D01*
X40529303Y21479303D01*
X40363633Y21590000D01*
X40529303Y21700697D01*
X40884702Y22232590D01*
X41009502Y22860000D01*
X40884702Y23487410D01*
X40529303Y24019303D01*
X40254730Y24202766D01*
X40363252Y24265287D01*
X40721881Y24731763D01*
X40798420Y24916594D01*
X40689271Y25146000D01*
X39624000Y25146000D01*
X39624000Y25126000D01*
X39116000Y25126000D01*
X39116000Y25146000D01*
X38050729Y25146000D01*
X37941580Y24916594D01*
X38018119Y24731763D01*
X38376748Y24265287D01*
X38485270Y24202766D01*
X38210697Y24019303D01*
X38143009Y23918000D01*
X37696202Y23918000D01*
X37592000Y23938727D01*
X37179189Y23856614D01*
X36924258Y23686274D01*
X36829225Y23622775D01*
X36770200Y23534438D01*
X25995563Y12759800D01*
X25907226Y12700775D01*
X25848201Y12612438D01*
X25848200Y12612437D01*
X25673387Y12350811D01*
X25591274Y11938000D01*
X25612001Y11833798D01*
X25612000Y7085804D01*
X25390946Y6994240D01*
X24755760Y6359054D01*
X24412000Y5529144D01*
X23862850Y5529144D01*
X23862850Y6580000D01*
X23804020Y6875757D01*
X23636487Y7126487D01*
X23385757Y7294020D01*
X23090000Y7352850D01*
X20090000Y7352850D01*
X19794243Y7294020D01*
X19543513Y7126487D01*
X19375980Y6875757D01*
X19317150Y6580000D01*
X19317150Y6124405D01*
X19076889Y6076614D01*
X18726925Y5842775D01*
X18667898Y5754435D01*
X18616422Y5702959D01*
X18427459Y6159155D01*
X18117869Y6328659D01*
X16869210Y5080000D01*
X16883353Y5065857D01*
X16524143Y4706647D01*
X16510000Y4720790D01*
X16495858Y4706647D01*
X16136648Y5065857D01*
X16150790Y5080000D01*
X14902131Y6328659D01*
X14592541Y6159155D01*
X14325524Y5343229D01*
X14391073Y4487229D01*
X14592541Y4000845D01*
X14608513Y3992100D01*
X13702850Y3992100D01*
X13702850Y5856613D01*
X14534106Y6687869D01*
X15261341Y6687869D01*
X16510000Y5439210D01*
X17758659Y6687869D01*
X17589155Y6997459D01*
X16773229Y7264476D01*
X15917229Y7198927D01*
X15430845Y6997459D01*
X15261341Y6687869D01*
X14534106Y6687869D01*
X15279438Y7433200D01*
X15367775Y7492225D01*
X15601614Y7842189D01*
X15663000Y8150798D01*
X15663000Y8150802D01*
X15683726Y8254999D01*
X15663000Y8359196D01*
X15663000Y29740804D01*
X15683726Y29845001D01*
X15663000Y29949198D01*
X15663000Y29949202D01*
X15601614Y30257811D01*
X15367775Y30607775D01*
X15279438Y30666800D01*
X5425733Y40520504D01*
X5449502Y40640000D01*
X37730498Y40640000D01*
X37855298Y40012590D01*
X38210697Y39480697D01*
X38485270Y39297234D01*
X38376748Y39234713D01*
X38018119Y38768237D01*
X37941580Y38583406D01*
X38050729Y38354000D01*
X39116000Y38354000D01*
X39116000Y38374000D01*
X39624000Y38374000D01*
X39624000Y38354000D01*
X40689271Y38354000D01*
X40798420Y38583406D01*
X40721881Y38768237D01*
X40519099Y39032000D01*
X46577946Y39032000D01*
X60622000Y24987945D01*
X60622001Y6665295D01*
X60315760Y6359054D01*
X59972000Y5529144D01*
X59972000Y4630856D01*
X60315760Y3800946D01*
X60950946Y3165760D01*
X61780856Y2822000D01*
X62679144Y2822000D01*
X63509054Y3165760D01*
X64144240Y3800946D01*
X64488000Y4630856D01*
X64488000Y5529144D01*
X64144240Y6359054D01*
X63838000Y6665294D01*
X63838000Y25495635D01*
X63869501Y25654001D01*
X63838000Y25812367D01*
X63838000Y25812371D01*
X63744702Y26281410D01*
X63389303Y26813303D01*
X63255042Y26903013D01*
X48493016Y41665038D01*
X48403303Y41799303D01*
X47871410Y42154702D01*
X47402371Y42248000D01*
X47402369Y42248000D01*
X47244000Y42279502D01*
X47085631Y42248000D01*
X39211629Y42248000D01*
X38742590Y42154702D01*
X38210697Y41799303D01*
X37855298Y41267410D01*
X37730498Y40640000D01*
X5449502Y40640000D01*
X5324702Y41267410D01*
X4969303Y41799303D01*
X4437410Y42154702D01*
X3968371Y42248000D01*
X3651629Y42248000D01*
X3182590Y42154702D01*
X2650697Y41799303D01*
X2295298Y41267410D01*
X2170498Y40640000D01*
X2295298Y40012590D01*
X2650697Y39480697D01*
X2925270Y39297234D01*
X2816748Y39234713D01*
X2458119Y38768237D01*
X2381580Y38583406D01*
X2490729Y38354000D01*
X3556000Y38354000D01*
X3556000Y38374000D01*
X4064000Y38374000D01*
X4064000Y38354000D01*
X4084000Y38354000D01*
X4084000Y37846000D01*
X4064000Y37846000D01*
X4064000Y37826000D01*
X3556000Y37826000D01*
X3556000Y37846000D01*
X2490729Y37846000D01*
X2381580Y37616594D01*
X2458119Y37431763D01*
X2816748Y36965287D01*
X2925270Y36902766D01*
X2650697Y36719303D01*
X2295298Y36187410D01*
X2170498Y35560000D01*
X2295298Y34932590D01*
X2650697Y34400697D01*
X2816367Y34290000D01*
X2650697Y34179303D01*
X2295298Y33647410D01*
X2170498Y33020000D01*
X2295298Y32392590D01*
X2650697Y31860697D01*
X2816367Y31750000D01*
X2650697Y31639303D01*
X2295298Y31107410D01*
X2170498Y30480000D01*
X2295298Y29852590D01*
X2650697Y29320697D01*
X2816367Y29210000D01*
X2650697Y29099303D01*
X2295298Y28567410D01*
X2170498Y27940000D01*
X2295298Y27312590D01*
X2650697Y26780697D01*
X2925270Y26597234D01*
X2816748Y26534713D01*
X2458119Y26068237D01*
X2381580Y25883406D01*
X2490729Y25654000D01*
X3556000Y25654000D01*
X3556000Y25674000D01*
X4064000Y25674000D01*
X4064000Y25654000D01*
X5129271Y25654000D01*
X5204226Y25811537D01*
X8467000Y22548762D01*
X8467001Y16862850D01*
X6770000Y16862850D01*
X6474243Y16804020D01*
X6359132Y16727105D01*
X5425733Y17660505D01*
X5449502Y17780000D01*
X5324702Y18407410D01*
X4969303Y18939303D01*
X4694730Y19122766D01*
X4803252Y19185287D01*
X5161881Y19651763D01*
X5238420Y19836594D01*
X5129271Y20066000D01*
X4064000Y20066000D01*
X4064000Y20046000D01*
X3556000Y20046000D01*
X3556000Y20066000D01*
X3536000Y20066000D01*
X3536000Y20574000D01*
X3556000Y20574000D01*
X3556000Y20594000D01*
X4064000Y20594000D01*
X4064000Y20574000D01*
X5129271Y20574000D01*
X5238420Y20803406D01*
X5161881Y20988237D01*
X4803252Y21454713D01*
X4694730Y21517234D01*
X4969303Y21700697D01*
X5324702Y22232590D01*
X5449502Y22860000D01*
X5324702Y23487410D01*
X4969303Y24019303D01*
X4694730Y24202766D01*
X4803252Y24265287D01*
X5161881Y24731763D01*
X5238420Y24916594D01*
X5129271Y25146000D01*
X4064000Y25146000D01*
X4064000Y25126000D01*
X3556000Y25126000D01*
X3556000Y25146000D01*
X2490729Y25146000D01*
X2381580Y24916594D01*
X2458119Y24731763D01*
X2816748Y24265287D01*
X2925270Y24202766D01*
X2650697Y24019303D01*
X2295298Y23487410D01*
X2170498Y22860000D01*
X2194267Y22740505D01*
X1664363Y22210600D01*
X1576026Y22151575D01*
X1517001Y22063238D01*
X1517000Y22063237D01*
X1342187Y21801611D01*
X1260074Y21388800D01*
X858000Y21388800D01*
X858000Y42108359D01*
X1071867Y42322000D01*
X64905171Y42322000D01*
X65182001Y42044879D01*
G04 #@! TD*
M02*
