M48
;DRILL file {KiCad 5.0.2-bee76a0~70~ubuntu18.04.1} date 2019-03-29T20:36:56 CET
;FORMAT={3:3/ absolute / metric / suppress leading zeros}
FMAT,2
METRIC,TZ
T1C0.800
T2C1.200
%
G90
G05
T1
X7620Y15240
X3810Y25400
X3810Y22860
X3810Y20320
X3810Y17780
X39370Y17780
X39370Y25400
X39370Y22860
X39370Y20320
X3810Y35560
X3810Y33020
X3810Y30480
X3810Y27940
X3810Y40640
X3810Y38100
X3810Y12700
X3810Y10160
X3810Y7620
X3810Y5080
X39370Y40640
X39370Y38100
X39370Y35560
X39370Y33020
X39370Y30480
X39370Y27940
T2
X11430Y5080
X16510Y5080
X21590Y5080
X26670Y5080
X31750Y5080
X36830Y5080
X41910Y5080
X46990Y5080
X52070Y5080
X57150Y5080
X62230Y5080
T0
M30
