G04 #@! TF.GenerationSoftware,KiCad,Pcbnew,5.0.2-bee76a0~70~ubuntu18.04.1*
G04 #@! TF.CreationDate,2019-03-29T20:37:00+01:00*
G04 #@! TF.ProjectId,TMC2660_mount,544d4332-3636-4305-9f6d-6f756e742e6b,rev?*
G04 #@! TF.SameCoordinates,PX48f7b77PY788f099*
G04 #@! TF.FileFunction,Soldermask,Bot*
G04 #@! TF.FilePolarity,Negative*
%FSLAX46Y46*%
G04 Gerber Fmt 4.6, Leading zero omitted, Abs format (unit mm)*
G04 Created by KiCad (PCBNEW 5.0.2-bee76a0~70~ubuntu18.04.1) date 2019-03-29T20:37:00 CET*
%MOMM*%
%LPD*%
G01*
G04 APERTURE LIST*
%ADD10C,0.100000*%
G04 APERTURE END LIST*
D10*
G36*
X23141000Y3529000D02*
X20039000Y3529000D01*
X20039000Y6631000D01*
X23141000Y6631000D01*
X23141000Y3529000D01*
X23141000Y3529000D01*
G37*
G36*
X12981000Y3529000D02*
X9879000Y3529000D01*
X9879000Y6631000D01*
X12981000Y6631000D01*
X12981000Y3529000D01*
X12981000Y3529000D01*
G37*
G36*
X16862527Y6591264D02*
X16962410Y6571396D01*
X17244674Y6454479D01*
X17498705Y6284741D01*
X17714741Y6068705D01*
X17884479Y5814674D01*
X18001396Y5532410D01*
X18061000Y5232760D01*
X18061000Y4927240D01*
X18001396Y4627590D01*
X17884479Y4345326D01*
X17714741Y4091295D01*
X17498705Y3875259D01*
X17244674Y3705521D01*
X16962410Y3588604D01*
X16862527Y3568736D01*
X16662762Y3529000D01*
X16357238Y3529000D01*
X16157473Y3568736D01*
X16057590Y3588604D01*
X15775326Y3705521D01*
X15521295Y3875259D01*
X15305259Y4091295D01*
X15135521Y4345326D01*
X15018604Y4627590D01*
X14959000Y4927240D01*
X14959000Y5232760D01*
X15018604Y5532410D01*
X15135521Y5814674D01*
X15305259Y6068705D01*
X15521295Y6284741D01*
X15775326Y6454479D01*
X16057590Y6571396D01*
X16157473Y6591264D01*
X16357238Y6631000D01*
X16662762Y6631000D01*
X16862527Y6591264D01*
X16862527Y6591264D01*
G37*
G36*
X27022527Y6591264D02*
X27122410Y6571396D01*
X27404674Y6454479D01*
X27658705Y6284741D01*
X27874741Y6068705D01*
X28044479Y5814674D01*
X28161396Y5532410D01*
X28221000Y5232760D01*
X28221000Y4927240D01*
X28161396Y4627590D01*
X28044479Y4345326D01*
X27874741Y4091295D01*
X27658705Y3875259D01*
X27404674Y3705521D01*
X27122410Y3588604D01*
X27022527Y3568736D01*
X26822762Y3529000D01*
X26517238Y3529000D01*
X26317473Y3568736D01*
X26217590Y3588604D01*
X25935326Y3705521D01*
X25681295Y3875259D01*
X25465259Y4091295D01*
X25295521Y4345326D01*
X25178604Y4627590D01*
X25119000Y4927240D01*
X25119000Y5232760D01*
X25178604Y5532410D01*
X25295521Y5814674D01*
X25465259Y6068705D01*
X25681295Y6284741D01*
X25935326Y6454479D01*
X26217590Y6571396D01*
X26317473Y6591264D01*
X26517238Y6631000D01*
X26822762Y6631000D01*
X27022527Y6591264D01*
X27022527Y6591264D01*
G37*
G36*
X32102527Y6591264D02*
X32202410Y6571396D01*
X32484674Y6454479D01*
X32738705Y6284741D01*
X32954741Y6068705D01*
X33124479Y5814674D01*
X33241396Y5532410D01*
X33301000Y5232760D01*
X33301000Y4927240D01*
X33241396Y4627590D01*
X33124479Y4345326D01*
X32954741Y4091295D01*
X32738705Y3875259D01*
X32484674Y3705521D01*
X32202410Y3588604D01*
X32102527Y3568736D01*
X31902762Y3529000D01*
X31597238Y3529000D01*
X31397473Y3568736D01*
X31297590Y3588604D01*
X31015326Y3705521D01*
X30761295Y3875259D01*
X30545259Y4091295D01*
X30375521Y4345326D01*
X30258604Y4627590D01*
X30199000Y4927240D01*
X30199000Y5232760D01*
X30258604Y5532410D01*
X30375521Y5814674D01*
X30545259Y6068705D01*
X30761295Y6284741D01*
X31015326Y6454479D01*
X31297590Y6571396D01*
X31397473Y6591264D01*
X31597238Y6631000D01*
X31902762Y6631000D01*
X32102527Y6591264D01*
X32102527Y6591264D01*
G37*
G36*
X42262527Y6591264D02*
X42362410Y6571396D01*
X42644674Y6454479D01*
X42898705Y6284741D01*
X43114741Y6068705D01*
X43284479Y5814674D01*
X43401396Y5532410D01*
X43461000Y5232760D01*
X43461000Y4927240D01*
X43401396Y4627590D01*
X43284479Y4345326D01*
X43114741Y4091295D01*
X42898705Y3875259D01*
X42644674Y3705521D01*
X42362410Y3588604D01*
X42262527Y3568736D01*
X42062762Y3529000D01*
X41757238Y3529000D01*
X41557473Y3568736D01*
X41457590Y3588604D01*
X41175326Y3705521D01*
X40921295Y3875259D01*
X40705259Y4091295D01*
X40535521Y4345326D01*
X40418604Y4627590D01*
X40359000Y4927240D01*
X40359000Y5232760D01*
X40418604Y5532410D01*
X40535521Y5814674D01*
X40705259Y6068705D01*
X40921295Y6284741D01*
X41175326Y6454479D01*
X41457590Y6571396D01*
X41557473Y6591264D01*
X41757238Y6631000D01*
X42062762Y6631000D01*
X42262527Y6591264D01*
X42262527Y6591264D01*
G37*
G36*
X47342527Y6591264D02*
X47442410Y6571396D01*
X47724674Y6454479D01*
X47978705Y6284741D01*
X48194741Y6068705D01*
X48364479Y5814674D01*
X48481396Y5532410D01*
X48541000Y5232760D01*
X48541000Y4927240D01*
X48481396Y4627590D01*
X48364479Y4345326D01*
X48194741Y4091295D01*
X47978705Y3875259D01*
X47724674Y3705521D01*
X47442410Y3588604D01*
X47342527Y3568736D01*
X47142762Y3529000D01*
X46837238Y3529000D01*
X46637473Y3568736D01*
X46537590Y3588604D01*
X46255326Y3705521D01*
X46001295Y3875259D01*
X45785259Y4091295D01*
X45615521Y4345326D01*
X45498604Y4627590D01*
X45439000Y4927240D01*
X45439000Y5232760D01*
X45498604Y5532410D01*
X45615521Y5814674D01*
X45785259Y6068705D01*
X46001295Y6284741D01*
X46255326Y6454479D01*
X46537590Y6571396D01*
X46637473Y6591264D01*
X46837238Y6631000D01*
X47142762Y6631000D01*
X47342527Y6591264D01*
X47342527Y6591264D01*
G37*
G36*
X38381000Y3529000D02*
X35279000Y3529000D01*
X35279000Y6631000D01*
X38381000Y6631000D01*
X38381000Y3529000D01*
X38381000Y3529000D01*
G37*
G36*
X52422527Y6591264D02*
X52522410Y6571396D01*
X52804674Y6454479D01*
X53058705Y6284741D01*
X53274741Y6068705D01*
X53444479Y5814674D01*
X53561396Y5532410D01*
X53621000Y5232760D01*
X53621000Y4927240D01*
X53561396Y4627590D01*
X53444479Y4345326D01*
X53274741Y4091295D01*
X53058705Y3875259D01*
X52804674Y3705521D01*
X52522410Y3588604D01*
X52422527Y3568736D01*
X52222762Y3529000D01*
X51917238Y3529000D01*
X51717473Y3568736D01*
X51617590Y3588604D01*
X51335326Y3705521D01*
X51081295Y3875259D01*
X50865259Y4091295D01*
X50695521Y4345326D01*
X50578604Y4627590D01*
X50519000Y4927240D01*
X50519000Y5232760D01*
X50578604Y5532410D01*
X50695521Y5814674D01*
X50865259Y6068705D01*
X51081295Y6284741D01*
X51335326Y6454479D01*
X51617590Y6571396D01*
X51717473Y6591264D01*
X51917238Y6631000D01*
X52222762Y6631000D01*
X52422527Y6591264D01*
X52422527Y6591264D01*
G37*
G36*
X57502527Y6591264D02*
X57602410Y6571396D01*
X57884674Y6454479D01*
X58138705Y6284741D01*
X58354741Y6068705D01*
X58524479Y5814674D01*
X58641396Y5532410D01*
X58701000Y5232760D01*
X58701000Y4927240D01*
X58641396Y4627590D01*
X58524479Y4345326D01*
X58354741Y4091295D01*
X58138705Y3875259D01*
X57884674Y3705521D01*
X57602410Y3588604D01*
X57502527Y3568736D01*
X57302762Y3529000D01*
X56997238Y3529000D01*
X56797473Y3568736D01*
X56697590Y3588604D01*
X56415326Y3705521D01*
X56161295Y3875259D01*
X55945259Y4091295D01*
X55775521Y4345326D01*
X55658604Y4627590D01*
X55599000Y4927240D01*
X55599000Y5232760D01*
X55658604Y5532410D01*
X55775521Y5814674D01*
X55945259Y6068705D01*
X56161295Y6284741D01*
X56415326Y6454479D01*
X56697590Y6571396D01*
X56797473Y6591264D01*
X56997238Y6631000D01*
X57302762Y6631000D01*
X57502527Y6591264D01*
X57502527Y6591264D01*
G37*
G36*
X62582527Y6591264D02*
X62682410Y6571396D01*
X62964674Y6454479D01*
X63218705Y6284741D01*
X63434741Y6068705D01*
X63604479Y5814674D01*
X63721396Y5532410D01*
X63781000Y5232760D01*
X63781000Y4927240D01*
X63721396Y4627590D01*
X63604479Y4345326D01*
X63434741Y4091295D01*
X63218705Y3875259D01*
X62964674Y3705521D01*
X62682410Y3588604D01*
X62582527Y3568736D01*
X62382762Y3529000D01*
X62077238Y3529000D01*
X61877473Y3568736D01*
X61777590Y3588604D01*
X61495326Y3705521D01*
X61241295Y3875259D01*
X61025259Y4091295D01*
X60855521Y4345326D01*
X60738604Y4627590D01*
X60679000Y4927240D01*
X60679000Y5232760D01*
X60738604Y5532410D01*
X60855521Y5814674D01*
X61025259Y6068705D01*
X61241295Y6284741D01*
X61495326Y6454479D01*
X61777590Y6571396D01*
X61877473Y6591264D01*
X62077238Y6631000D01*
X62382762Y6631000D01*
X62582527Y6591264D01*
X62582527Y6591264D01*
G37*
G36*
X3920442Y5974482D02*
X3986627Y5967963D01*
X4099853Y5933616D01*
X4156467Y5916443D01*
X4295087Y5842348D01*
X4312991Y5832778D01*
X4335053Y5814672D01*
X4450186Y5720186D01*
X4533448Y5618729D01*
X4562778Y5582991D01*
X4562779Y5582989D01*
X4646443Y5426467D01*
X4646443Y5426466D01*
X4697963Y5256627D01*
X4715359Y5080000D01*
X4697963Y4903373D01*
X4663616Y4790147D01*
X4646443Y4733533D01*
X4589815Y4627591D01*
X4562778Y4577009D01*
X4533448Y4541271D01*
X4450186Y4439814D01*
X4348729Y4356552D01*
X4312991Y4327222D01*
X4312989Y4327221D01*
X4156467Y4243557D01*
X4099853Y4226384D01*
X3986627Y4192037D01*
X3920442Y4185518D01*
X3854260Y4179000D01*
X3765740Y4179000D01*
X3699558Y4185518D01*
X3633373Y4192037D01*
X3520147Y4226384D01*
X3463533Y4243557D01*
X3307011Y4327221D01*
X3307009Y4327222D01*
X3271271Y4356552D01*
X3169814Y4439814D01*
X3086552Y4541271D01*
X3057222Y4577009D01*
X3030185Y4627591D01*
X2973557Y4733533D01*
X2956384Y4790147D01*
X2922037Y4903373D01*
X2904641Y5080000D01*
X2922037Y5256627D01*
X2973557Y5426466D01*
X2973557Y5426467D01*
X3057221Y5582989D01*
X3057222Y5582991D01*
X3086552Y5618729D01*
X3169814Y5720186D01*
X3284947Y5814672D01*
X3307009Y5832778D01*
X3324913Y5842348D01*
X3463533Y5916443D01*
X3520147Y5933616D01*
X3633373Y5967963D01*
X3699558Y5974482D01*
X3765740Y5981000D01*
X3854260Y5981000D01*
X3920442Y5974482D01*
X3920442Y5974482D01*
G37*
G36*
X3920442Y8514482D02*
X3986627Y8507963D01*
X4099853Y8473616D01*
X4156467Y8456443D01*
X4295087Y8382348D01*
X4312991Y8372778D01*
X4348729Y8343448D01*
X4450186Y8260186D01*
X4533448Y8158729D01*
X4562778Y8122991D01*
X4562779Y8122989D01*
X4646443Y7966467D01*
X4646443Y7966466D01*
X4697963Y7796627D01*
X4715359Y7620000D01*
X4697963Y7443373D01*
X4663616Y7330147D01*
X4646443Y7273533D01*
X4572348Y7134913D01*
X4562778Y7117009D01*
X4533448Y7081271D01*
X4450186Y6979814D01*
X4348729Y6896552D01*
X4312991Y6867222D01*
X4312989Y6867221D01*
X4156467Y6783557D01*
X4099853Y6766384D01*
X3986627Y6732037D01*
X3920442Y6725518D01*
X3854260Y6719000D01*
X3765740Y6719000D01*
X3699558Y6725518D01*
X3633373Y6732037D01*
X3520147Y6766384D01*
X3463533Y6783557D01*
X3307011Y6867221D01*
X3307009Y6867222D01*
X3271271Y6896552D01*
X3169814Y6979814D01*
X3086552Y7081271D01*
X3057222Y7117009D01*
X3047652Y7134913D01*
X2973557Y7273533D01*
X2956384Y7330147D01*
X2922037Y7443373D01*
X2904641Y7620000D01*
X2922037Y7796627D01*
X2973557Y7966466D01*
X2973557Y7966467D01*
X3057221Y8122989D01*
X3057222Y8122991D01*
X3086552Y8158729D01*
X3169814Y8260186D01*
X3271271Y8343448D01*
X3307009Y8372778D01*
X3324913Y8382348D01*
X3463533Y8456443D01*
X3520147Y8473616D01*
X3633373Y8507963D01*
X3699558Y8514482D01*
X3765740Y8521000D01*
X3854260Y8521000D01*
X3920442Y8514482D01*
X3920442Y8514482D01*
G37*
G36*
X3920442Y11054482D02*
X3986627Y11047963D01*
X4099853Y11013616D01*
X4156467Y10996443D01*
X4295087Y10922348D01*
X4312991Y10912778D01*
X4348729Y10883448D01*
X4450186Y10800186D01*
X4533448Y10698729D01*
X4562778Y10662991D01*
X4562779Y10662989D01*
X4646443Y10506467D01*
X4646443Y10506466D01*
X4697963Y10336627D01*
X4715359Y10160000D01*
X4697963Y9983373D01*
X4663616Y9870147D01*
X4646443Y9813533D01*
X4572348Y9674913D01*
X4562778Y9657009D01*
X4533448Y9621271D01*
X4450186Y9519814D01*
X4348729Y9436552D01*
X4312991Y9407222D01*
X4312989Y9407221D01*
X4156467Y9323557D01*
X4099853Y9306384D01*
X3986627Y9272037D01*
X3920443Y9265519D01*
X3854260Y9259000D01*
X3765740Y9259000D01*
X3699557Y9265519D01*
X3633373Y9272037D01*
X3520147Y9306384D01*
X3463533Y9323557D01*
X3307011Y9407221D01*
X3307009Y9407222D01*
X3271271Y9436552D01*
X3169814Y9519814D01*
X3086552Y9621271D01*
X3057222Y9657009D01*
X3047652Y9674913D01*
X2973557Y9813533D01*
X2956384Y9870147D01*
X2922037Y9983373D01*
X2904641Y10160000D01*
X2922037Y10336627D01*
X2973557Y10506466D01*
X2973557Y10506467D01*
X3057221Y10662989D01*
X3057222Y10662991D01*
X3086552Y10698729D01*
X3169814Y10800186D01*
X3271271Y10883448D01*
X3307009Y10912778D01*
X3324913Y10922348D01*
X3463533Y10996443D01*
X3520147Y11013616D01*
X3633373Y11047963D01*
X3699558Y11054482D01*
X3765740Y11061000D01*
X3854260Y11061000D01*
X3920442Y11054482D01*
X3920442Y11054482D01*
G37*
G36*
X4711000Y11799000D02*
X2909000Y11799000D01*
X2909000Y13601000D01*
X4711000Y13601000D01*
X4711000Y11799000D01*
X4711000Y11799000D01*
G37*
G36*
X8521000Y14339000D02*
X6719000Y14339000D01*
X6719000Y16141000D01*
X8521000Y16141000D01*
X8521000Y14339000D01*
X8521000Y14339000D01*
G37*
G36*
X39480443Y18674481D02*
X39546627Y18667963D01*
X39659853Y18633616D01*
X39716467Y18616443D01*
X39855087Y18542348D01*
X39872991Y18532778D01*
X39908729Y18503448D01*
X40010186Y18420186D01*
X40093448Y18318729D01*
X40122778Y18282991D01*
X40122779Y18282989D01*
X40206443Y18126467D01*
X40206443Y18126466D01*
X40257963Y17956627D01*
X40275359Y17780000D01*
X40257963Y17603373D01*
X40223616Y17490147D01*
X40206443Y17433533D01*
X40132348Y17294913D01*
X40122778Y17277009D01*
X40093448Y17241271D01*
X40010186Y17139814D01*
X39908729Y17056552D01*
X39872991Y17027222D01*
X39872989Y17027221D01*
X39716467Y16943557D01*
X39659853Y16926384D01*
X39546627Y16892037D01*
X39480442Y16885518D01*
X39414260Y16879000D01*
X39325740Y16879000D01*
X39259558Y16885518D01*
X39193373Y16892037D01*
X39080147Y16926384D01*
X39023533Y16943557D01*
X38867011Y17027221D01*
X38867009Y17027222D01*
X38831271Y17056552D01*
X38729814Y17139814D01*
X38646552Y17241271D01*
X38617222Y17277009D01*
X38607652Y17294913D01*
X38533557Y17433533D01*
X38516384Y17490147D01*
X38482037Y17603373D01*
X38464641Y17780000D01*
X38482037Y17956627D01*
X38533557Y18126466D01*
X38533557Y18126467D01*
X38617221Y18282989D01*
X38617222Y18282991D01*
X38646552Y18318729D01*
X38729814Y18420186D01*
X38831271Y18503448D01*
X38867009Y18532778D01*
X38884913Y18542348D01*
X39023533Y18616443D01*
X39080147Y18633616D01*
X39193373Y18667963D01*
X39259557Y18674481D01*
X39325740Y18681000D01*
X39414260Y18681000D01*
X39480443Y18674481D01*
X39480443Y18674481D01*
G37*
G36*
X3920443Y18674481D02*
X3986627Y18667963D01*
X4099853Y18633616D01*
X4156467Y18616443D01*
X4295087Y18542348D01*
X4312991Y18532778D01*
X4348729Y18503448D01*
X4450186Y18420186D01*
X4533448Y18318729D01*
X4562778Y18282991D01*
X4562779Y18282989D01*
X4646443Y18126467D01*
X4646443Y18126466D01*
X4697963Y17956627D01*
X4715359Y17780000D01*
X4697963Y17603373D01*
X4663616Y17490147D01*
X4646443Y17433533D01*
X4572348Y17294913D01*
X4562778Y17277009D01*
X4533448Y17241271D01*
X4450186Y17139814D01*
X4348729Y17056552D01*
X4312991Y17027222D01*
X4312989Y17027221D01*
X4156467Y16943557D01*
X4099853Y16926384D01*
X3986627Y16892037D01*
X3920442Y16885518D01*
X3854260Y16879000D01*
X3765740Y16879000D01*
X3699558Y16885518D01*
X3633373Y16892037D01*
X3520147Y16926384D01*
X3463533Y16943557D01*
X3307011Y17027221D01*
X3307009Y17027222D01*
X3271271Y17056552D01*
X3169814Y17139814D01*
X3086552Y17241271D01*
X3057222Y17277009D01*
X3047652Y17294913D01*
X2973557Y17433533D01*
X2956384Y17490147D01*
X2922037Y17603373D01*
X2904641Y17780000D01*
X2922037Y17956627D01*
X2973557Y18126466D01*
X2973557Y18126467D01*
X3057221Y18282989D01*
X3057222Y18282991D01*
X3086552Y18318729D01*
X3169814Y18420186D01*
X3271271Y18503448D01*
X3307009Y18532778D01*
X3324913Y18542348D01*
X3463533Y18616443D01*
X3520147Y18633616D01*
X3633373Y18667963D01*
X3699557Y18674481D01*
X3765740Y18681000D01*
X3854260Y18681000D01*
X3920443Y18674481D01*
X3920443Y18674481D01*
G37*
G36*
X39480443Y21214481D02*
X39546627Y21207963D01*
X39659853Y21173616D01*
X39716467Y21156443D01*
X39855087Y21082348D01*
X39872991Y21072778D01*
X39908729Y21043448D01*
X40010186Y20960186D01*
X40093448Y20858729D01*
X40122778Y20822991D01*
X40122779Y20822989D01*
X40206443Y20666467D01*
X40206443Y20666466D01*
X40257963Y20496627D01*
X40275359Y20320000D01*
X40257963Y20143373D01*
X40223616Y20030147D01*
X40206443Y19973533D01*
X40132348Y19834913D01*
X40122778Y19817009D01*
X40093448Y19781271D01*
X40010186Y19679814D01*
X39908729Y19596552D01*
X39872991Y19567222D01*
X39872989Y19567221D01*
X39716467Y19483557D01*
X39659853Y19466384D01*
X39546627Y19432037D01*
X39480443Y19425519D01*
X39414260Y19419000D01*
X39325740Y19419000D01*
X39259557Y19425519D01*
X39193373Y19432037D01*
X39080147Y19466384D01*
X39023533Y19483557D01*
X38867011Y19567221D01*
X38867009Y19567222D01*
X38831271Y19596552D01*
X38729814Y19679814D01*
X38646552Y19781271D01*
X38617222Y19817009D01*
X38607652Y19834913D01*
X38533557Y19973533D01*
X38516384Y20030147D01*
X38482037Y20143373D01*
X38464641Y20320000D01*
X38482037Y20496627D01*
X38533557Y20666466D01*
X38533557Y20666467D01*
X38617221Y20822989D01*
X38617222Y20822991D01*
X38646552Y20858729D01*
X38729814Y20960186D01*
X38831271Y21043448D01*
X38867009Y21072778D01*
X38884913Y21082348D01*
X39023533Y21156443D01*
X39080147Y21173616D01*
X39193373Y21207963D01*
X39259558Y21214482D01*
X39325740Y21221000D01*
X39414260Y21221000D01*
X39480443Y21214481D01*
X39480443Y21214481D01*
G37*
G36*
X3920443Y21214481D02*
X3986627Y21207963D01*
X4099853Y21173616D01*
X4156467Y21156443D01*
X4295087Y21082348D01*
X4312991Y21072778D01*
X4348729Y21043448D01*
X4450186Y20960186D01*
X4533448Y20858729D01*
X4562778Y20822991D01*
X4562779Y20822989D01*
X4646443Y20666467D01*
X4646443Y20666466D01*
X4697963Y20496627D01*
X4715359Y20320000D01*
X4697963Y20143373D01*
X4663616Y20030147D01*
X4646443Y19973533D01*
X4572348Y19834913D01*
X4562778Y19817009D01*
X4533448Y19781271D01*
X4450186Y19679814D01*
X4348729Y19596552D01*
X4312991Y19567222D01*
X4312989Y19567221D01*
X4156467Y19483557D01*
X4099853Y19466384D01*
X3986627Y19432037D01*
X3920443Y19425519D01*
X3854260Y19419000D01*
X3765740Y19419000D01*
X3699557Y19425519D01*
X3633373Y19432037D01*
X3520147Y19466384D01*
X3463533Y19483557D01*
X3307011Y19567221D01*
X3307009Y19567222D01*
X3271271Y19596552D01*
X3169814Y19679814D01*
X3086552Y19781271D01*
X3057222Y19817009D01*
X3047652Y19834913D01*
X2973557Y19973533D01*
X2956384Y20030147D01*
X2922037Y20143373D01*
X2904641Y20320000D01*
X2922037Y20496627D01*
X2973557Y20666466D01*
X2973557Y20666467D01*
X3057221Y20822989D01*
X3057222Y20822991D01*
X3086552Y20858729D01*
X3169814Y20960186D01*
X3271271Y21043448D01*
X3307009Y21072778D01*
X3324913Y21082348D01*
X3463533Y21156443D01*
X3520147Y21173616D01*
X3633373Y21207963D01*
X3699558Y21214482D01*
X3765740Y21221000D01*
X3854260Y21221000D01*
X3920443Y21214481D01*
X3920443Y21214481D01*
G37*
G36*
X39480443Y23754481D02*
X39546627Y23747963D01*
X39659853Y23713616D01*
X39716467Y23696443D01*
X39855087Y23622348D01*
X39872991Y23612778D01*
X39908729Y23583448D01*
X40010186Y23500186D01*
X40093448Y23398729D01*
X40122778Y23362991D01*
X40122779Y23362989D01*
X40206443Y23206467D01*
X40206443Y23206466D01*
X40257963Y23036627D01*
X40275359Y22860000D01*
X40257963Y22683373D01*
X40223616Y22570147D01*
X40206443Y22513533D01*
X40132348Y22374913D01*
X40122778Y22357009D01*
X40093448Y22321271D01*
X40010186Y22219814D01*
X39908729Y22136552D01*
X39872991Y22107222D01*
X39872989Y22107221D01*
X39716467Y22023557D01*
X39659853Y22006384D01*
X39546627Y21972037D01*
X39480442Y21965518D01*
X39414260Y21959000D01*
X39325740Y21959000D01*
X39259557Y21965519D01*
X39193373Y21972037D01*
X39080147Y22006384D01*
X39023533Y22023557D01*
X38867011Y22107221D01*
X38867009Y22107222D01*
X38831271Y22136552D01*
X38729814Y22219814D01*
X38646552Y22321271D01*
X38617222Y22357009D01*
X38607652Y22374913D01*
X38533557Y22513533D01*
X38516384Y22570147D01*
X38482037Y22683373D01*
X38464641Y22860000D01*
X38482037Y23036627D01*
X38533557Y23206466D01*
X38533557Y23206467D01*
X38617221Y23362989D01*
X38617222Y23362991D01*
X38646552Y23398729D01*
X38729814Y23500186D01*
X38831271Y23583448D01*
X38867009Y23612778D01*
X38884913Y23622348D01*
X39023533Y23696443D01*
X39080147Y23713616D01*
X39193373Y23747963D01*
X39259558Y23754482D01*
X39325740Y23761000D01*
X39414260Y23761000D01*
X39480443Y23754481D01*
X39480443Y23754481D01*
G37*
G36*
X3920443Y23754481D02*
X3986627Y23747963D01*
X4099853Y23713616D01*
X4156467Y23696443D01*
X4295087Y23622348D01*
X4312991Y23612778D01*
X4348729Y23583448D01*
X4450186Y23500186D01*
X4533448Y23398729D01*
X4562778Y23362991D01*
X4562779Y23362989D01*
X4646443Y23206467D01*
X4646443Y23206466D01*
X4697963Y23036627D01*
X4715359Y22860000D01*
X4697963Y22683373D01*
X4663616Y22570147D01*
X4646443Y22513533D01*
X4572348Y22374913D01*
X4562778Y22357009D01*
X4533448Y22321271D01*
X4450186Y22219814D01*
X4348729Y22136552D01*
X4312991Y22107222D01*
X4312989Y22107221D01*
X4156467Y22023557D01*
X4099853Y22006384D01*
X3986627Y21972037D01*
X3920442Y21965518D01*
X3854260Y21959000D01*
X3765740Y21959000D01*
X3699557Y21965519D01*
X3633373Y21972037D01*
X3520147Y22006384D01*
X3463533Y22023557D01*
X3307011Y22107221D01*
X3307009Y22107222D01*
X3271271Y22136552D01*
X3169814Y22219814D01*
X3086552Y22321271D01*
X3057222Y22357009D01*
X3047652Y22374913D01*
X2973557Y22513533D01*
X2956384Y22570147D01*
X2922037Y22683373D01*
X2904641Y22860000D01*
X2922037Y23036627D01*
X2973557Y23206466D01*
X2973557Y23206467D01*
X3057221Y23362989D01*
X3057222Y23362991D01*
X3086552Y23398729D01*
X3169814Y23500186D01*
X3271271Y23583448D01*
X3307009Y23612778D01*
X3324913Y23622348D01*
X3463533Y23696443D01*
X3520147Y23713616D01*
X3633373Y23747963D01*
X3699558Y23754482D01*
X3765740Y23761000D01*
X3854260Y23761000D01*
X3920443Y23754481D01*
X3920443Y23754481D01*
G37*
G36*
X39480442Y26294482D02*
X39546627Y26287963D01*
X39659853Y26253616D01*
X39716467Y26236443D01*
X39855087Y26162348D01*
X39872991Y26152778D01*
X39908729Y26123448D01*
X40010186Y26040186D01*
X40093448Y25938729D01*
X40122778Y25902991D01*
X40122779Y25902989D01*
X40206443Y25746467D01*
X40206443Y25746466D01*
X40257963Y25576627D01*
X40275359Y25400000D01*
X40257963Y25223373D01*
X40223616Y25110147D01*
X40206443Y25053533D01*
X40132348Y24914913D01*
X40122778Y24897009D01*
X40093448Y24861271D01*
X40010186Y24759814D01*
X39908729Y24676552D01*
X39872991Y24647222D01*
X39872989Y24647221D01*
X39716467Y24563557D01*
X39659853Y24546384D01*
X39546627Y24512037D01*
X39480443Y24505519D01*
X39414260Y24499000D01*
X39325740Y24499000D01*
X39259557Y24505519D01*
X39193373Y24512037D01*
X39080147Y24546384D01*
X39023533Y24563557D01*
X38867011Y24647221D01*
X38867009Y24647222D01*
X38831271Y24676552D01*
X38729814Y24759814D01*
X38646552Y24861271D01*
X38617222Y24897009D01*
X38607652Y24914913D01*
X38533557Y25053533D01*
X38516384Y25110147D01*
X38482037Y25223373D01*
X38464641Y25400000D01*
X38482037Y25576627D01*
X38533557Y25746466D01*
X38533557Y25746467D01*
X38617221Y25902989D01*
X38617222Y25902991D01*
X38646552Y25938729D01*
X38729814Y26040186D01*
X38831271Y26123448D01*
X38867009Y26152778D01*
X38884913Y26162348D01*
X39023533Y26236443D01*
X39080147Y26253616D01*
X39193373Y26287963D01*
X39259557Y26294481D01*
X39325740Y26301000D01*
X39414260Y26301000D01*
X39480442Y26294482D01*
X39480442Y26294482D01*
G37*
G36*
X3920442Y26294482D02*
X3986627Y26287963D01*
X4099853Y26253616D01*
X4156467Y26236443D01*
X4295087Y26162348D01*
X4312991Y26152778D01*
X4348729Y26123448D01*
X4450186Y26040186D01*
X4533448Y25938729D01*
X4562778Y25902991D01*
X4562779Y25902989D01*
X4646443Y25746467D01*
X4646443Y25746466D01*
X4697963Y25576627D01*
X4715359Y25400000D01*
X4697963Y25223373D01*
X4663616Y25110147D01*
X4646443Y25053533D01*
X4572348Y24914913D01*
X4562778Y24897009D01*
X4533448Y24861271D01*
X4450186Y24759814D01*
X4348729Y24676552D01*
X4312991Y24647222D01*
X4312989Y24647221D01*
X4156467Y24563557D01*
X4099853Y24546384D01*
X3986627Y24512037D01*
X3920443Y24505519D01*
X3854260Y24499000D01*
X3765740Y24499000D01*
X3699557Y24505519D01*
X3633373Y24512037D01*
X3520147Y24546384D01*
X3463533Y24563557D01*
X3307011Y24647221D01*
X3307009Y24647222D01*
X3271271Y24676552D01*
X3169814Y24759814D01*
X3086552Y24861271D01*
X3057222Y24897009D01*
X3047652Y24914913D01*
X2973557Y25053533D01*
X2956384Y25110147D01*
X2922037Y25223373D01*
X2904641Y25400000D01*
X2922037Y25576627D01*
X2973557Y25746466D01*
X2973557Y25746467D01*
X3057221Y25902989D01*
X3057222Y25902991D01*
X3086552Y25938729D01*
X3169814Y26040186D01*
X3271271Y26123448D01*
X3307009Y26152778D01*
X3324913Y26162348D01*
X3463533Y26236443D01*
X3520147Y26253616D01*
X3633373Y26287963D01*
X3699557Y26294481D01*
X3765740Y26301000D01*
X3854260Y26301000D01*
X3920442Y26294482D01*
X3920442Y26294482D01*
G37*
G36*
X39480443Y28834481D02*
X39546627Y28827963D01*
X39659853Y28793616D01*
X39716467Y28776443D01*
X39855087Y28702348D01*
X39872991Y28692778D01*
X39908729Y28663448D01*
X40010186Y28580186D01*
X40093448Y28478729D01*
X40122778Y28442991D01*
X40122779Y28442989D01*
X40206443Y28286467D01*
X40206443Y28286466D01*
X40257963Y28116627D01*
X40275359Y27940000D01*
X40257963Y27763373D01*
X40223616Y27650147D01*
X40206443Y27593533D01*
X40132348Y27454913D01*
X40122778Y27437009D01*
X40093448Y27401271D01*
X40010186Y27299814D01*
X39908729Y27216552D01*
X39872991Y27187222D01*
X39872989Y27187221D01*
X39716467Y27103557D01*
X39659853Y27086384D01*
X39546627Y27052037D01*
X39480442Y27045518D01*
X39414260Y27039000D01*
X39325740Y27039000D01*
X39259557Y27045519D01*
X39193373Y27052037D01*
X39080147Y27086384D01*
X39023533Y27103557D01*
X38867011Y27187221D01*
X38867009Y27187222D01*
X38831271Y27216552D01*
X38729814Y27299814D01*
X38646552Y27401271D01*
X38617222Y27437009D01*
X38607652Y27454913D01*
X38533557Y27593533D01*
X38516384Y27650147D01*
X38482037Y27763373D01*
X38464641Y27940000D01*
X38482037Y28116627D01*
X38533557Y28286466D01*
X38533557Y28286467D01*
X38617221Y28442989D01*
X38617222Y28442991D01*
X38646552Y28478729D01*
X38729814Y28580186D01*
X38831271Y28663448D01*
X38867009Y28692778D01*
X38884913Y28702348D01*
X39023533Y28776443D01*
X39080147Y28793616D01*
X39193373Y28827963D01*
X39259558Y28834482D01*
X39325740Y28841000D01*
X39414260Y28841000D01*
X39480443Y28834481D01*
X39480443Y28834481D01*
G37*
G36*
X3920443Y28834481D02*
X3986627Y28827963D01*
X4099853Y28793616D01*
X4156467Y28776443D01*
X4295087Y28702348D01*
X4312991Y28692778D01*
X4348729Y28663448D01*
X4450186Y28580186D01*
X4533448Y28478729D01*
X4562778Y28442991D01*
X4562779Y28442989D01*
X4646443Y28286467D01*
X4646443Y28286466D01*
X4697963Y28116627D01*
X4715359Y27940000D01*
X4697963Y27763373D01*
X4663616Y27650147D01*
X4646443Y27593533D01*
X4572348Y27454913D01*
X4562778Y27437009D01*
X4533448Y27401271D01*
X4450186Y27299814D01*
X4348729Y27216552D01*
X4312991Y27187222D01*
X4312989Y27187221D01*
X4156467Y27103557D01*
X4099853Y27086384D01*
X3986627Y27052037D01*
X3920442Y27045518D01*
X3854260Y27039000D01*
X3765740Y27039000D01*
X3699557Y27045519D01*
X3633373Y27052037D01*
X3520147Y27086384D01*
X3463533Y27103557D01*
X3307011Y27187221D01*
X3307009Y27187222D01*
X3271271Y27216552D01*
X3169814Y27299814D01*
X3086552Y27401271D01*
X3057222Y27437009D01*
X3047652Y27454913D01*
X2973557Y27593533D01*
X2956384Y27650147D01*
X2922037Y27763373D01*
X2904641Y27940000D01*
X2922037Y28116627D01*
X2973557Y28286466D01*
X2973557Y28286467D01*
X3057221Y28442989D01*
X3057222Y28442991D01*
X3086552Y28478729D01*
X3169814Y28580186D01*
X3271271Y28663448D01*
X3307009Y28692778D01*
X3324913Y28702348D01*
X3463533Y28776443D01*
X3520147Y28793616D01*
X3633373Y28827963D01*
X3699557Y28834481D01*
X3765740Y28841000D01*
X3854260Y28841000D01*
X3920443Y28834481D01*
X3920443Y28834481D01*
G37*
G36*
X3920443Y31374481D02*
X3986627Y31367963D01*
X4099853Y31333616D01*
X4156467Y31316443D01*
X4295087Y31242348D01*
X4312991Y31232778D01*
X4348729Y31203448D01*
X4450186Y31120186D01*
X4533448Y31018729D01*
X4562778Y30982991D01*
X4562779Y30982989D01*
X4646443Y30826467D01*
X4646443Y30826466D01*
X4697963Y30656627D01*
X4715359Y30480000D01*
X4697963Y30303373D01*
X4663616Y30190147D01*
X4646443Y30133533D01*
X4572348Y29994913D01*
X4562778Y29977009D01*
X4533448Y29941271D01*
X4450186Y29839814D01*
X4348729Y29756552D01*
X4312991Y29727222D01*
X4312989Y29727221D01*
X4156467Y29643557D01*
X4099853Y29626384D01*
X3986627Y29592037D01*
X3920442Y29585518D01*
X3854260Y29579000D01*
X3765740Y29579000D01*
X3699558Y29585518D01*
X3633373Y29592037D01*
X3520147Y29626384D01*
X3463533Y29643557D01*
X3307011Y29727221D01*
X3307009Y29727222D01*
X3271271Y29756552D01*
X3169814Y29839814D01*
X3086552Y29941271D01*
X3057222Y29977009D01*
X3047652Y29994913D01*
X2973557Y30133533D01*
X2956384Y30190147D01*
X2922037Y30303373D01*
X2904641Y30480000D01*
X2922037Y30656627D01*
X2973557Y30826466D01*
X2973557Y30826467D01*
X3057221Y30982989D01*
X3057222Y30982991D01*
X3086552Y31018729D01*
X3169814Y31120186D01*
X3271271Y31203448D01*
X3307009Y31232778D01*
X3324913Y31242348D01*
X3463533Y31316443D01*
X3520147Y31333616D01*
X3633373Y31367963D01*
X3699557Y31374481D01*
X3765740Y31381000D01*
X3854260Y31381000D01*
X3920443Y31374481D01*
X3920443Y31374481D01*
G37*
G36*
X39480443Y31374481D02*
X39546627Y31367963D01*
X39659853Y31333616D01*
X39716467Y31316443D01*
X39855087Y31242348D01*
X39872991Y31232778D01*
X39908729Y31203448D01*
X40010186Y31120186D01*
X40093448Y31018729D01*
X40122778Y30982991D01*
X40122779Y30982989D01*
X40206443Y30826467D01*
X40206443Y30826466D01*
X40257963Y30656627D01*
X40275359Y30480000D01*
X40257963Y30303373D01*
X40223616Y30190147D01*
X40206443Y30133533D01*
X40132348Y29994913D01*
X40122778Y29977009D01*
X40093448Y29941271D01*
X40010186Y29839814D01*
X39908729Y29756552D01*
X39872991Y29727222D01*
X39872989Y29727221D01*
X39716467Y29643557D01*
X39659853Y29626384D01*
X39546627Y29592037D01*
X39480442Y29585518D01*
X39414260Y29579000D01*
X39325740Y29579000D01*
X39259558Y29585518D01*
X39193373Y29592037D01*
X39080147Y29626384D01*
X39023533Y29643557D01*
X38867011Y29727221D01*
X38867009Y29727222D01*
X38831271Y29756552D01*
X38729814Y29839814D01*
X38646552Y29941271D01*
X38617222Y29977009D01*
X38607652Y29994913D01*
X38533557Y30133533D01*
X38516384Y30190147D01*
X38482037Y30303373D01*
X38464641Y30480000D01*
X38482037Y30656627D01*
X38533557Y30826466D01*
X38533557Y30826467D01*
X38617221Y30982989D01*
X38617222Y30982991D01*
X38646552Y31018729D01*
X38729814Y31120186D01*
X38831271Y31203448D01*
X38867009Y31232778D01*
X38884913Y31242348D01*
X39023533Y31316443D01*
X39080147Y31333616D01*
X39193373Y31367963D01*
X39259557Y31374481D01*
X39325740Y31381000D01*
X39414260Y31381000D01*
X39480443Y31374481D01*
X39480443Y31374481D01*
G37*
G36*
X3920442Y33914482D02*
X3986627Y33907963D01*
X4099853Y33873616D01*
X4156467Y33856443D01*
X4295087Y33782348D01*
X4312991Y33772778D01*
X4348729Y33743448D01*
X4450186Y33660186D01*
X4533448Y33558729D01*
X4562778Y33522991D01*
X4562779Y33522989D01*
X4646443Y33366467D01*
X4646443Y33366466D01*
X4697963Y33196627D01*
X4715359Y33020000D01*
X4697963Y32843373D01*
X4663616Y32730147D01*
X4646443Y32673533D01*
X4572348Y32534913D01*
X4562778Y32517009D01*
X4533448Y32481271D01*
X4450186Y32379814D01*
X4348729Y32296552D01*
X4312991Y32267222D01*
X4312989Y32267221D01*
X4156467Y32183557D01*
X4099853Y32166384D01*
X3986627Y32132037D01*
X3920443Y32125519D01*
X3854260Y32119000D01*
X3765740Y32119000D01*
X3699557Y32125519D01*
X3633373Y32132037D01*
X3520147Y32166384D01*
X3463533Y32183557D01*
X3307011Y32267221D01*
X3307009Y32267222D01*
X3271271Y32296552D01*
X3169814Y32379814D01*
X3086552Y32481271D01*
X3057222Y32517009D01*
X3047652Y32534913D01*
X2973557Y32673533D01*
X2956384Y32730147D01*
X2922037Y32843373D01*
X2904641Y33020000D01*
X2922037Y33196627D01*
X2973557Y33366466D01*
X2973557Y33366467D01*
X3057221Y33522989D01*
X3057222Y33522991D01*
X3086552Y33558729D01*
X3169814Y33660186D01*
X3271271Y33743448D01*
X3307009Y33772778D01*
X3324913Y33782348D01*
X3463533Y33856443D01*
X3520147Y33873616D01*
X3633373Y33907963D01*
X3699558Y33914482D01*
X3765740Y33921000D01*
X3854260Y33921000D01*
X3920442Y33914482D01*
X3920442Y33914482D01*
G37*
G36*
X39480442Y33914482D02*
X39546627Y33907963D01*
X39659853Y33873616D01*
X39716467Y33856443D01*
X39855087Y33782348D01*
X39872991Y33772778D01*
X39908729Y33743448D01*
X40010186Y33660186D01*
X40093448Y33558729D01*
X40122778Y33522991D01*
X40122779Y33522989D01*
X40206443Y33366467D01*
X40206443Y33366466D01*
X40257963Y33196627D01*
X40275359Y33020000D01*
X40257963Y32843373D01*
X40223616Y32730147D01*
X40206443Y32673533D01*
X40132348Y32534913D01*
X40122778Y32517009D01*
X40093448Y32481271D01*
X40010186Y32379814D01*
X39908729Y32296552D01*
X39872991Y32267222D01*
X39872989Y32267221D01*
X39716467Y32183557D01*
X39659853Y32166384D01*
X39546627Y32132037D01*
X39480443Y32125519D01*
X39414260Y32119000D01*
X39325740Y32119000D01*
X39259557Y32125519D01*
X39193373Y32132037D01*
X39080147Y32166384D01*
X39023533Y32183557D01*
X38867011Y32267221D01*
X38867009Y32267222D01*
X38831271Y32296552D01*
X38729814Y32379814D01*
X38646552Y32481271D01*
X38617222Y32517009D01*
X38607652Y32534913D01*
X38533557Y32673533D01*
X38516384Y32730147D01*
X38482037Y32843373D01*
X38464641Y33020000D01*
X38482037Y33196627D01*
X38533557Y33366466D01*
X38533557Y33366467D01*
X38617221Y33522989D01*
X38617222Y33522991D01*
X38646552Y33558729D01*
X38729814Y33660186D01*
X38831271Y33743448D01*
X38867009Y33772778D01*
X38884913Y33782348D01*
X39023533Y33856443D01*
X39080147Y33873616D01*
X39193373Y33907963D01*
X39259558Y33914482D01*
X39325740Y33921000D01*
X39414260Y33921000D01*
X39480442Y33914482D01*
X39480442Y33914482D01*
G37*
G36*
X39480442Y36454482D02*
X39546627Y36447963D01*
X39659853Y36413616D01*
X39716467Y36396443D01*
X39855087Y36322348D01*
X39872991Y36312778D01*
X39908729Y36283448D01*
X40010186Y36200186D01*
X40093448Y36098729D01*
X40122778Y36062991D01*
X40122779Y36062989D01*
X40206443Y35906467D01*
X40206443Y35906466D01*
X40257963Y35736627D01*
X40275359Y35560000D01*
X40257963Y35383373D01*
X40223616Y35270147D01*
X40206443Y35213533D01*
X40132348Y35074913D01*
X40122778Y35057009D01*
X40093448Y35021271D01*
X40010186Y34919814D01*
X39908729Y34836552D01*
X39872991Y34807222D01*
X39872989Y34807221D01*
X39716467Y34723557D01*
X39659853Y34706384D01*
X39546627Y34672037D01*
X39480443Y34665519D01*
X39414260Y34659000D01*
X39325740Y34659000D01*
X39259557Y34665519D01*
X39193373Y34672037D01*
X39080147Y34706384D01*
X39023533Y34723557D01*
X38867011Y34807221D01*
X38867009Y34807222D01*
X38831271Y34836552D01*
X38729814Y34919814D01*
X38646552Y35021271D01*
X38617222Y35057009D01*
X38607652Y35074913D01*
X38533557Y35213533D01*
X38516384Y35270147D01*
X38482037Y35383373D01*
X38464641Y35560000D01*
X38482037Y35736627D01*
X38533557Y35906466D01*
X38533557Y35906467D01*
X38617221Y36062989D01*
X38617222Y36062991D01*
X38646552Y36098729D01*
X38729814Y36200186D01*
X38831271Y36283448D01*
X38867009Y36312778D01*
X38884913Y36322348D01*
X39023533Y36396443D01*
X39080147Y36413616D01*
X39193373Y36447963D01*
X39259558Y36454482D01*
X39325740Y36461000D01*
X39414260Y36461000D01*
X39480442Y36454482D01*
X39480442Y36454482D01*
G37*
G36*
X3920442Y36454482D02*
X3986627Y36447963D01*
X4099853Y36413616D01*
X4156467Y36396443D01*
X4295087Y36322348D01*
X4312991Y36312778D01*
X4348729Y36283448D01*
X4450186Y36200186D01*
X4533448Y36098729D01*
X4562778Y36062991D01*
X4562779Y36062989D01*
X4646443Y35906467D01*
X4646443Y35906466D01*
X4697963Y35736627D01*
X4715359Y35560000D01*
X4697963Y35383373D01*
X4663616Y35270147D01*
X4646443Y35213533D01*
X4572348Y35074913D01*
X4562778Y35057009D01*
X4533448Y35021271D01*
X4450186Y34919814D01*
X4348729Y34836552D01*
X4312991Y34807222D01*
X4312989Y34807221D01*
X4156467Y34723557D01*
X4099853Y34706384D01*
X3986627Y34672037D01*
X3920443Y34665519D01*
X3854260Y34659000D01*
X3765740Y34659000D01*
X3699557Y34665519D01*
X3633373Y34672037D01*
X3520147Y34706384D01*
X3463533Y34723557D01*
X3307011Y34807221D01*
X3307009Y34807222D01*
X3271271Y34836552D01*
X3169814Y34919814D01*
X3086552Y35021271D01*
X3057222Y35057009D01*
X3047652Y35074913D01*
X2973557Y35213533D01*
X2956384Y35270147D01*
X2922037Y35383373D01*
X2904641Y35560000D01*
X2922037Y35736627D01*
X2973557Y35906466D01*
X2973557Y35906467D01*
X3057221Y36062989D01*
X3057222Y36062991D01*
X3086552Y36098729D01*
X3169814Y36200186D01*
X3271271Y36283448D01*
X3307009Y36312778D01*
X3324913Y36322348D01*
X3463533Y36396443D01*
X3520147Y36413616D01*
X3633373Y36447963D01*
X3699558Y36454482D01*
X3765740Y36461000D01*
X3854260Y36461000D01*
X3920442Y36454482D01*
X3920442Y36454482D01*
G37*
G36*
X39480443Y38994481D02*
X39546627Y38987963D01*
X39659853Y38953616D01*
X39716467Y38936443D01*
X39855087Y38862348D01*
X39872991Y38852778D01*
X39908729Y38823448D01*
X40010186Y38740186D01*
X40093448Y38638729D01*
X40122778Y38602991D01*
X40122779Y38602989D01*
X40206443Y38446467D01*
X40206443Y38446466D01*
X40257963Y38276627D01*
X40275359Y38100000D01*
X40257963Y37923373D01*
X40223616Y37810147D01*
X40206443Y37753533D01*
X40132348Y37614913D01*
X40122778Y37597009D01*
X40093448Y37561271D01*
X40010186Y37459814D01*
X39908729Y37376552D01*
X39872991Y37347222D01*
X39872989Y37347221D01*
X39716467Y37263557D01*
X39659853Y37246384D01*
X39546627Y37212037D01*
X39480442Y37205518D01*
X39414260Y37199000D01*
X39325740Y37199000D01*
X39259558Y37205518D01*
X39193373Y37212037D01*
X39080147Y37246384D01*
X39023533Y37263557D01*
X38867011Y37347221D01*
X38867009Y37347222D01*
X38831271Y37376552D01*
X38729814Y37459814D01*
X38646552Y37561271D01*
X38617222Y37597009D01*
X38607652Y37614913D01*
X38533557Y37753533D01*
X38516384Y37810147D01*
X38482037Y37923373D01*
X38464641Y38100000D01*
X38482037Y38276627D01*
X38533557Y38446466D01*
X38533557Y38446467D01*
X38617221Y38602989D01*
X38617222Y38602991D01*
X38646552Y38638729D01*
X38729814Y38740186D01*
X38831271Y38823448D01*
X38867009Y38852778D01*
X38884913Y38862348D01*
X39023533Y38936443D01*
X39080147Y38953616D01*
X39193373Y38987963D01*
X39259557Y38994481D01*
X39325740Y39001000D01*
X39414260Y39001000D01*
X39480443Y38994481D01*
X39480443Y38994481D01*
G37*
G36*
X3920443Y38994481D02*
X3986627Y38987963D01*
X4099853Y38953616D01*
X4156467Y38936443D01*
X4295087Y38862348D01*
X4312991Y38852778D01*
X4348729Y38823448D01*
X4450186Y38740186D01*
X4533448Y38638729D01*
X4562778Y38602991D01*
X4562779Y38602989D01*
X4646443Y38446467D01*
X4646443Y38446466D01*
X4697963Y38276627D01*
X4715359Y38100000D01*
X4697963Y37923373D01*
X4663616Y37810147D01*
X4646443Y37753533D01*
X4572348Y37614913D01*
X4562778Y37597009D01*
X4533448Y37561271D01*
X4450186Y37459814D01*
X4348729Y37376552D01*
X4312991Y37347222D01*
X4312989Y37347221D01*
X4156467Y37263557D01*
X4099853Y37246384D01*
X3986627Y37212037D01*
X3920442Y37205518D01*
X3854260Y37199000D01*
X3765740Y37199000D01*
X3699558Y37205518D01*
X3633373Y37212037D01*
X3520147Y37246384D01*
X3463533Y37263557D01*
X3307011Y37347221D01*
X3307009Y37347222D01*
X3271271Y37376552D01*
X3169814Y37459814D01*
X3086552Y37561271D01*
X3057222Y37597009D01*
X3047652Y37614913D01*
X2973557Y37753533D01*
X2956384Y37810147D01*
X2922037Y37923373D01*
X2904641Y38100000D01*
X2922037Y38276627D01*
X2973557Y38446466D01*
X2973557Y38446467D01*
X3057221Y38602989D01*
X3057222Y38602991D01*
X3086552Y38638729D01*
X3169814Y38740186D01*
X3271271Y38823448D01*
X3307009Y38852778D01*
X3324913Y38862348D01*
X3463533Y38936443D01*
X3520147Y38953616D01*
X3633373Y38987963D01*
X3699557Y38994481D01*
X3765740Y39001000D01*
X3854260Y39001000D01*
X3920443Y38994481D01*
X3920443Y38994481D01*
G37*
G36*
X3920443Y41534481D02*
X3986627Y41527963D01*
X4099853Y41493616D01*
X4156467Y41476443D01*
X4295087Y41402348D01*
X4312991Y41392778D01*
X4348729Y41363448D01*
X4450186Y41280186D01*
X4533448Y41178729D01*
X4562778Y41142991D01*
X4562779Y41142989D01*
X4646443Y40986467D01*
X4646443Y40986466D01*
X4697963Y40816627D01*
X4715359Y40640000D01*
X4697963Y40463373D01*
X4663616Y40350147D01*
X4646443Y40293533D01*
X4572348Y40154913D01*
X4562778Y40137009D01*
X4533448Y40101271D01*
X4450186Y39999814D01*
X4348729Y39916552D01*
X4312991Y39887222D01*
X4312989Y39887221D01*
X4156467Y39803557D01*
X4099853Y39786384D01*
X3986627Y39752037D01*
X3920443Y39745519D01*
X3854260Y39739000D01*
X3765740Y39739000D01*
X3699557Y39745519D01*
X3633373Y39752037D01*
X3520147Y39786384D01*
X3463533Y39803557D01*
X3307011Y39887221D01*
X3307009Y39887222D01*
X3271271Y39916552D01*
X3169814Y39999814D01*
X3086552Y40101271D01*
X3057222Y40137009D01*
X3047652Y40154913D01*
X2973557Y40293533D01*
X2956384Y40350147D01*
X2922037Y40463373D01*
X2904641Y40640000D01*
X2922037Y40816627D01*
X2973557Y40986466D01*
X2973557Y40986467D01*
X3057221Y41142989D01*
X3057222Y41142991D01*
X3086552Y41178729D01*
X3169814Y41280186D01*
X3271271Y41363448D01*
X3307009Y41392778D01*
X3324913Y41402348D01*
X3463533Y41476443D01*
X3520147Y41493616D01*
X3633373Y41527963D01*
X3699557Y41534481D01*
X3765740Y41541000D01*
X3854260Y41541000D01*
X3920443Y41534481D01*
X3920443Y41534481D01*
G37*
G36*
X39480443Y41534481D02*
X39546627Y41527963D01*
X39659853Y41493616D01*
X39716467Y41476443D01*
X39855087Y41402348D01*
X39872991Y41392778D01*
X39908729Y41363448D01*
X40010186Y41280186D01*
X40093448Y41178729D01*
X40122778Y41142991D01*
X40122779Y41142989D01*
X40206443Y40986467D01*
X40206443Y40986466D01*
X40257963Y40816627D01*
X40275359Y40640000D01*
X40257963Y40463373D01*
X40223616Y40350147D01*
X40206443Y40293533D01*
X40132348Y40154913D01*
X40122778Y40137009D01*
X40093448Y40101271D01*
X40010186Y39999814D01*
X39908729Y39916552D01*
X39872991Y39887222D01*
X39872989Y39887221D01*
X39716467Y39803557D01*
X39659853Y39786384D01*
X39546627Y39752037D01*
X39480443Y39745519D01*
X39414260Y39739000D01*
X39325740Y39739000D01*
X39259557Y39745519D01*
X39193373Y39752037D01*
X39080147Y39786384D01*
X39023533Y39803557D01*
X38867011Y39887221D01*
X38867009Y39887222D01*
X38831271Y39916552D01*
X38729814Y39999814D01*
X38646552Y40101271D01*
X38617222Y40137009D01*
X38607652Y40154913D01*
X38533557Y40293533D01*
X38516384Y40350147D01*
X38482037Y40463373D01*
X38464641Y40640000D01*
X38482037Y40816627D01*
X38533557Y40986466D01*
X38533557Y40986467D01*
X38617221Y41142989D01*
X38617222Y41142991D01*
X38646552Y41178729D01*
X38729814Y41280186D01*
X38831271Y41363448D01*
X38867009Y41392778D01*
X38884913Y41402348D01*
X39023533Y41476443D01*
X39080147Y41493616D01*
X39193373Y41527963D01*
X39259557Y41534481D01*
X39325740Y41541000D01*
X39414260Y41541000D01*
X39480443Y41534481D01*
X39480443Y41534481D01*
G37*
M02*
