G04 #@! TF.GenerationSoftware,KiCad,Pcbnew,5.0.2-bee76a0~70~ubuntu18.04.1*
G04 #@! TF.CreationDate,2019-04-07T21:24:10+02:00*
G04 #@! TF.ProjectId,TMC2660_mount2,544d4332-3636-4305-9f6d-6f756e74322e,rev?*
G04 #@! TF.SameCoordinates,PX40126abPY799e129*
G04 #@! TF.FileFunction,Soldermask,Bot*
G04 #@! TF.FilePolarity,Negative*
%FSLAX46Y46*%
G04 Gerber Fmt 4.6, Leading zero omitted, Abs format (unit mm)*
G04 Created by KiCad (PCBNEW 5.0.2-bee76a0~70~ubuntu18.04.1) date 2019-04-07T21:24:10 CEST*
%MOMM*%
%LPD*%
G01*
G04 APERTURE LIST*
%ADD10C,0.100000*%
G04 APERTURE END LIST*
D10*
G36*
X56821308Y7168685D02*
X56921191Y7148817D01*
X57203455Y7031900D01*
X57457486Y6862162D01*
X57673522Y6646126D01*
X57843260Y6392095D01*
X57960177Y6109831D01*
X58019781Y5810181D01*
X58019781Y5504661D01*
X57960177Y5205011D01*
X57843260Y4922747D01*
X57673522Y4668716D01*
X57457486Y4452680D01*
X57203455Y4282942D01*
X56921191Y4166025D01*
X56821308Y4146157D01*
X56621543Y4106421D01*
X56316019Y4106421D01*
X56116254Y4146157D01*
X56016371Y4166025D01*
X55734107Y4282942D01*
X55480076Y4452680D01*
X55264040Y4668716D01*
X55094302Y4922747D01*
X54977385Y5205011D01*
X54917781Y5504661D01*
X54917781Y5810181D01*
X54977385Y6109831D01*
X55094302Y6392095D01*
X55264040Y6646126D01*
X55480076Y6862162D01*
X55734107Y7031900D01*
X56016371Y7148817D01*
X56116254Y7168685D01*
X56316019Y7208421D01*
X56621543Y7208421D01*
X56821308Y7168685D01*
X56821308Y7168685D01*
G37*
G36*
X46661308Y7168685D02*
X46761191Y7148817D01*
X47043455Y7031900D01*
X47297486Y6862162D01*
X47513522Y6646126D01*
X47683260Y6392095D01*
X47800177Y6109831D01*
X47859781Y5810181D01*
X47859781Y5504661D01*
X47800177Y5205011D01*
X47683260Y4922747D01*
X47513522Y4668716D01*
X47297486Y4452680D01*
X47043455Y4282942D01*
X46761191Y4166025D01*
X46661308Y4146157D01*
X46461543Y4106421D01*
X46156019Y4106421D01*
X45956254Y4146157D01*
X45856371Y4166025D01*
X45574107Y4282942D01*
X45320076Y4452680D01*
X45104040Y4668716D01*
X44934302Y4922747D01*
X44817385Y5205011D01*
X44757781Y5504661D01*
X44757781Y5810181D01*
X44817385Y6109831D01*
X44934302Y6392095D01*
X45104040Y6646126D01*
X45320076Y6862162D01*
X45574107Y7031900D01*
X45856371Y7148817D01*
X45956254Y7168685D01*
X46156019Y7208421D01*
X46461543Y7208421D01*
X46661308Y7168685D01*
X46661308Y7168685D01*
G37*
G36*
X32619781Y4106421D02*
X29517781Y4106421D01*
X29517781Y7208421D01*
X32619781Y7208421D01*
X32619781Y4106421D01*
X32619781Y4106421D01*
G37*
G36*
X41581308Y7168685D02*
X41681191Y7148817D01*
X41963455Y7031900D01*
X42217486Y6862162D01*
X42433522Y6646126D01*
X42603260Y6392095D01*
X42720177Y6109831D01*
X42779781Y5810181D01*
X42779781Y5504661D01*
X42720177Y5205011D01*
X42603260Y4922747D01*
X42433522Y4668716D01*
X42217486Y4452680D01*
X41963455Y4282942D01*
X41681191Y4166025D01*
X41581308Y4146157D01*
X41381543Y4106421D01*
X41076019Y4106421D01*
X40876254Y4146157D01*
X40776371Y4166025D01*
X40494107Y4282942D01*
X40240076Y4452680D01*
X40024040Y4668716D01*
X39854302Y4922747D01*
X39737385Y5205011D01*
X39677781Y5504661D01*
X39677781Y5810181D01*
X39737385Y6109831D01*
X39854302Y6392095D01*
X40024040Y6646126D01*
X40240076Y6862162D01*
X40494107Y7031900D01*
X40776371Y7148817D01*
X40876254Y7168685D01*
X41076019Y7208421D01*
X41381543Y7208421D01*
X41581308Y7168685D01*
X41581308Y7168685D01*
G37*
G36*
X36501308Y7168685D02*
X36601191Y7148817D01*
X36883455Y7031900D01*
X37137486Y6862162D01*
X37353522Y6646126D01*
X37523260Y6392095D01*
X37640177Y6109831D01*
X37699781Y5810181D01*
X37699781Y5504661D01*
X37640177Y5205011D01*
X37523260Y4922747D01*
X37353522Y4668716D01*
X37137486Y4452680D01*
X36883455Y4282942D01*
X36601191Y4166025D01*
X36501308Y4146157D01*
X36301543Y4106421D01*
X35996019Y4106421D01*
X35796254Y4146157D01*
X35696371Y4166025D01*
X35414107Y4282942D01*
X35160076Y4452680D01*
X34944040Y4668716D01*
X34774302Y4922747D01*
X34657385Y5205011D01*
X34597781Y5504661D01*
X34597781Y5810181D01*
X34657385Y6109831D01*
X34774302Y6392095D01*
X34944040Y6646126D01*
X35160076Y6862162D01*
X35414107Y7031900D01*
X35696371Y7148817D01*
X35796254Y7168685D01*
X35996019Y7208421D01*
X36301543Y7208421D01*
X36501308Y7168685D01*
X36501308Y7168685D01*
G37*
G36*
X26341408Y7168685D02*
X26441291Y7148817D01*
X26723555Y7031900D01*
X26977586Y6862162D01*
X27193622Y6646126D01*
X27363360Y6392095D01*
X27480277Y6109831D01*
X27539881Y5810181D01*
X27539881Y5504661D01*
X27480277Y5205011D01*
X27363360Y4922747D01*
X27193622Y4668716D01*
X26977586Y4452680D01*
X26723555Y4282942D01*
X26441291Y4166025D01*
X26341408Y4146157D01*
X26141643Y4106421D01*
X25836119Y4106421D01*
X25636354Y4146157D01*
X25536471Y4166025D01*
X25254207Y4282942D01*
X25000176Y4452680D01*
X24784140Y4668716D01*
X24614402Y4922747D01*
X24497485Y5205011D01*
X24437881Y5504661D01*
X24437881Y5810181D01*
X24497485Y6109831D01*
X24614402Y6392095D01*
X24784140Y6646126D01*
X25000176Y6862162D01*
X25254207Y7031900D01*
X25536471Y7148817D01*
X25636354Y7168685D01*
X25836119Y7208421D01*
X26141643Y7208421D01*
X26341408Y7168685D01*
X26341408Y7168685D01*
G37*
G36*
X21261408Y7168685D02*
X21361291Y7148817D01*
X21643555Y7031900D01*
X21897586Y6862162D01*
X22113622Y6646126D01*
X22283360Y6392095D01*
X22400277Y6109831D01*
X22459881Y5810181D01*
X22459881Y5504661D01*
X22400277Y5205011D01*
X22283360Y4922747D01*
X22113622Y4668716D01*
X21897586Y4452680D01*
X21643555Y4282942D01*
X21361291Y4166025D01*
X21261408Y4146157D01*
X21061643Y4106421D01*
X20756119Y4106421D01*
X20556354Y4146157D01*
X20456471Y4166025D01*
X20174207Y4282942D01*
X19920176Y4452680D01*
X19704140Y4668716D01*
X19534402Y4922747D01*
X19417485Y5205011D01*
X19357881Y5504661D01*
X19357881Y5810181D01*
X19417485Y6109831D01*
X19534402Y6392095D01*
X19704140Y6646126D01*
X19920176Y6862162D01*
X20174207Y7031900D01*
X20456471Y7148817D01*
X20556354Y7168685D01*
X20756119Y7208421D01*
X21061643Y7208421D01*
X21261408Y7168685D01*
X21261408Y7168685D01*
G37*
G36*
X17379881Y4106421D02*
X14277881Y4106421D01*
X14277881Y7208421D01*
X17379881Y7208421D01*
X17379881Y4106421D01*
X17379881Y4106421D01*
G37*
G36*
X11101408Y7168685D02*
X11201291Y7148817D01*
X11483555Y7031900D01*
X11737586Y6862162D01*
X11953622Y6646126D01*
X12123360Y6392095D01*
X12240277Y6109831D01*
X12299881Y5810181D01*
X12299881Y5504661D01*
X12240277Y5205011D01*
X12123360Y4922747D01*
X11953622Y4668716D01*
X11737586Y4452680D01*
X11483555Y4282942D01*
X11201291Y4166025D01*
X11101408Y4146157D01*
X10901643Y4106421D01*
X10596119Y4106421D01*
X10396354Y4146157D01*
X10296471Y4166025D01*
X10014207Y4282942D01*
X9760176Y4452680D01*
X9544140Y4668716D01*
X9374402Y4922747D01*
X9257485Y5205011D01*
X9197881Y5504661D01*
X9197881Y5810181D01*
X9257485Y6109831D01*
X9374402Y6392095D01*
X9544140Y6646126D01*
X9760176Y6862162D01*
X10014207Y7031900D01*
X10296471Y7148817D01*
X10396354Y7168685D01*
X10596119Y7208421D01*
X10901643Y7208421D01*
X11101408Y7168685D01*
X11101408Y7168685D01*
G37*
G36*
X7219881Y4106421D02*
X4117881Y4106421D01*
X4117881Y7208421D01*
X7219881Y7208421D01*
X7219881Y4106421D01*
X7219881Y4106421D01*
G37*
G36*
X51741308Y7168685D02*
X51841191Y7148817D01*
X52123455Y7031900D01*
X52377486Y6862162D01*
X52593522Y6646126D01*
X52763260Y6392095D01*
X52880177Y6109831D01*
X52939781Y5810181D01*
X52939781Y5504661D01*
X52880177Y5205011D01*
X52763260Y4922747D01*
X52593522Y4668716D01*
X52377486Y4452680D01*
X52123455Y4282942D01*
X51841191Y4166025D01*
X51741308Y4146157D01*
X51541543Y4106421D01*
X51236019Y4106421D01*
X51036254Y4146157D01*
X50936371Y4166025D01*
X50654107Y4282942D01*
X50400076Y4452680D01*
X50184040Y4668716D01*
X50014302Y4922747D01*
X49897385Y5205011D01*
X49837781Y5504661D01*
X49837781Y5810181D01*
X49897385Y6109831D01*
X50014302Y6392095D01*
X50184040Y6646126D01*
X50400076Y6862162D01*
X50654107Y7031900D01*
X50936371Y7148817D01*
X51036254Y7168685D01*
X51236019Y7208421D01*
X51541543Y7208421D01*
X51741308Y7168685D01*
X51741308Y7168685D01*
G37*
G36*
X42961223Y16556903D02*
X43027408Y16550384D01*
X43140634Y16516037D01*
X43197248Y16498864D01*
X43274435Y16457606D01*
X43353772Y16415199D01*
X43389510Y16385869D01*
X43490967Y16302607D01*
X43574229Y16201150D01*
X43603559Y16165412D01*
X43603560Y16165410D01*
X43687224Y16008888D01*
X43687224Y16008887D01*
X43738744Y15839048D01*
X43756140Y15662421D01*
X43738744Y15485794D01*
X43734242Y15470954D01*
X43687224Y15315954D01*
X43613129Y15177334D01*
X43603559Y15159430D01*
X43574229Y15123692D01*
X43490967Y15022235D01*
X43389510Y14938973D01*
X43353772Y14909643D01*
X43353770Y14909642D01*
X43197248Y14825978D01*
X43140634Y14808805D01*
X43027408Y14774458D01*
X42961224Y14767940D01*
X42895041Y14761421D01*
X42806521Y14761421D01*
X42740338Y14767940D01*
X42674154Y14774458D01*
X42560928Y14808805D01*
X42504314Y14825978D01*
X42347792Y14909642D01*
X42347790Y14909643D01*
X42312052Y14938973D01*
X42210595Y15022235D01*
X42127333Y15123692D01*
X42098003Y15159430D01*
X42088433Y15177334D01*
X42014338Y15315954D01*
X41967320Y15470954D01*
X41962818Y15485794D01*
X41945422Y15662421D01*
X41962818Y15839048D01*
X42014338Y16008887D01*
X42014338Y16008888D01*
X42098002Y16165410D01*
X42098003Y16165412D01*
X42127333Y16201150D01*
X42210595Y16302607D01*
X42312052Y16385869D01*
X42347790Y16415199D01*
X42427127Y16457606D01*
X42504314Y16498864D01*
X42560928Y16516037D01*
X42674154Y16550384D01*
X42740339Y16556903D01*
X42806521Y16563421D01*
X42895041Y16563421D01*
X42961223Y16556903D01*
X42961223Y16556903D01*
G37*
G36*
X40421223Y16556903D02*
X40487408Y16550384D01*
X40600634Y16516037D01*
X40657248Y16498864D01*
X40734435Y16457606D01*
X40813772Y16415199D01*
X40849510Y16385869D01*
X40950967Y16302607D01*
X41034229Y16201150D01*
X41063559Y16165412D01*
X41063560Y16165410D01*
X41147224Y16008888D01*
X41147224Y16008887D01*
X41198744Y15839048D01*
X41216140Y15662421D01*
X41198744Y15485794D01*
X41194242Y15470954D01*
X41147224Y15315954D01*
X41073129Y15177334D01*
X41063559Y15159430D01*
X41034229Y15123692D01*
X40950967Y15022235D01*
X40849510Y14938973D01*
X40813772Y14909643D01*
X40813770Y14909642D01*
X40657248Y14825978D01*
X40600634Y14808805D01*
X40487408Y14774458D01*
X40421224Y14767940D01*
X40355041Y14761421D01*
X40266521Y14761421D01*
X40200338Y14767940D01*
X40134154Y14774458D01*
X40020928Y14808805D01*
X39964314Y14825978D01*
X39807792Y14909642D01*
X39807790Y14909643D01*
X39772052Y14938973D01*
X39670595Y15022235D01*
X39587333Y15123692D01*
X39558003Y15159430D01*
X39548433Y15177334D01*
X39474338Y15315954D01*
X39427320Y15470954D01*
X39422818Y15485794D01*
X39405422Y15662421D01*
X39422818Y15839048D01*
X39474338Y16008887D01*
X39474338Y16008888D01*
X39558002Y16165410D01*
X39558003Y16165412D01*
X39587333Y16201150D01*
X39670595Y16302607D01*
X39772052Y16385869D01*
X39807790Y16415199D01*
X39887127Y16457606D01*
X39964314Y16498864D01*
X40020928Y16516037D01*
X40134154Y16550384D01*
X40200339Y16556903D01*
X40266521Y16563421D01*
X40355041Y16563421D01*
X40421223Y16556903D01*
X40421223Y16556903D01*
G37*
G36*
X37881223Y16556903D02*
X37947408Y16550384D01*
X38060634Y16516037D01*
X38117248Y16498864D01*
X38194435Y16457606D01*
X38273772Y16415199D01*
X38309510Y16385869D01*
X38410967Y16302607D01*
X38494229Y16201150D01*
X38523559Y16165412D01*
X38523560Y16165410D01*
X38607224Y16008888D01*
X38607224Y16008887D01*
X38658744Y15839048D01*
X38676140Y15662421D01*
X38658744Y15485794D01*
X38654242Y15470954D01*
X38607224Y15315954D01*
X38533129Y15177334D01*
X38523559Y15159430D01*
X38494229Y15123692D01*
X38410967Y15022235D01*
X38309510Y14938973D01*
X38273772Y14909643D01*
X38273770Y14909642D01*
X38117248Y14825978D01*
X38060634Y14808805D01*
X37947408Y14774458D01*
X37881224Y14767940D01*
X37815041Y14761421D01*
X37726521Y14761421D01*
X37660338Y14767940D01*
X37594154Y14774458D01*
X37480928Y14808805D01*
X37424314Y14825978D01*
X37267792Y14909642D01*
X37267790Y14909643D01*
X37232052Y14938973D01*
X37130595Y15022235D01*
X37047333Y15123692D01*
X37018003Y15159430D01*
X37008433Y15177334D01*
X36934338Y15315954D01*
X36887320Y15470954D01*
X36882818Y15485794D01*
X36865422Y15662421D01*
X36882818Y15839048D01*
X36934338Y16008887D01*
X36934338Y16008888D01*
X37018002Y16165410D01*
X37018003Y16165412D01*
X37047333Y16201150D01*
X37130595Y16302607D01*
X37232052Y16385869D01*
X37267790Y16415199D01*
X37347127Y16457606D01*
X37424314Y16498864D01*
X37480928Y16516037D01*
X37594154Y16550384D01*
X37660339Y16556903D01*
X37726521Y16563421D01*
X37815041Y16563421D01*
X37881223Y16556903D01*
X37881223Y16556903D01*
G37*
G36*
X45501223Y16556903D02*
X45567408Y16550384D01*
X45680634Y16516037D01*
X45737248Y16498864D01*
X45814435Y16457606D01*
X45893772Y16415199D01*
X45929510Y16385869D01*
X46030967Y16302607D01*
X46114229Y16201150D01*
X46143559Y16165412D01*
X46143560Y16165410D01*
X46227224Y16008888D01*
X46227224Y16008887D01*
X46278744Y15839048D01*
X46296140Y15662421D01*
X46278744Y15485794D01*
X46274242Y15470954D01*
X46227224Y15315954D01*
X46153129Y15177334D01*
X46143559Y15159430D01*
X46114229Y15123692D01*
X46030967Y15022235D01*
X45929510Y14938973D01*
X45893772Y14909643D01*
X45893770Y14909642D01*
X45737248Y14825978D01*
X45680634Y14808805D01*
X45567408Y14774458D01*
X45501224Y14767940D01*
X45435041Y14761421D01*
X45346521Y14761421D01*
X45280338Y14767940D01*
X45214154Y14774458D01*
X45100928Y14808805D01*
X45044314Y14825978D01*
X44887792Y14909642D01*
X44887790Y14909643D01*
X44852052Y14938973D01*
X44750595Y15022235D01*
X44667333Y15123692D01*
X44638003Y15159430D01*
X44628433Y15177334D01*
X44554338Y15315954D01*
X44507320Y15470954D01*
X44502818Y15485794D01*
X44485422Y15662421D01*
X44502818Y15839048D01*
X44554338Y16008887D01*
X44554338Y16008888D01*
X44638002Y16165410D01*
X44638003Y16165412D01*
X44667333Y16201150D01*
X44750595Y16302607D01*
X44852052Y16385869D01*
X44887790Y16415199D01*
X44967127Y16457606D01*
X45044314Y16498864D01*
X45100928Y16516037D01*
X45214154Y16550384D01*
X45280339Y16556903D01*
X45346521Y16563421D01*
X45435041Y16563421D01*
X45501223Y16556903D01*
X45501223Y16556903D01*
G37*
G36*
X35341223Y16556903D02*
X35407408Y16550384D01*
X35520634Y16516037D01*
X35577248Y16498864D01*
X35654435Y16457606D01*
X35733772Y16415199D01*
X35769510Y16385869D01*
X35870967Y16302607D01*
X35954229Y16201150D01*
X35983559Y16165412D01*
X35983560Y16165410D01*
X36067224Y16008888D01*
X36067224Y16008887D01*
X36118744Y15839048D01*
X36136140Y15662421D01*
X36118744Y15485794D01*
X36114242Y15470954D01*
X36067224Y15315954D01*
X35993129Y15177334D01*
X35983559Y15159430D01*
X35954229Y15123692D01*
X35870967Y15022235D01*
X35769510Y14938973D01*
X35733772Y14909643D01*
X35733770Y14909642D01*
X35577248Y14825978D01*
X35520634Y14808805D01*
X35407408Y14774458D01*
X35341224Y14767940D01*
X35275041Y14761421D01*
X35186521Y14761421D01*
X35120338Y14767940D01*
X35054154Y14774458D01*
X34940928Y14808805D01*
X34884314Y14825978D01*
X34727792Y14909642D01*
X34727790Y14909643D01*
X34692052Y14938973D01*
X34590595Y15022235D01*
X34507333Y15123692D01*
X34478003Y15159430D01*
X34468433Y15177334D01*
X34394338Y15315954D01*
X34347320Y15470954D01*
X34342818Y15485794D01*
X34325422Y15662421D01*
X34342818Y15839048D01*
X34394338Y16008887D01*
X34394338Y16008888D01*
X34478002Y16165410D01*
X34478003Y16165412D01*
X34507333Y16201150D01*
X34590595Y16302607D01*
X34692052Y16385869D01*
X34727790Y16415199D01*
X34807127Y16457606D01*
X34884314Y16498864D01*
X34940928Y16516037D01*
X35054154Y16550384D01*
X35120339Y16556903D01*
X35186521Y16563421D01*
X35275041Y16563421D01*
X35341223Y16556903D01*
X35341223Y16556903D01*
G37*
G36*
X30261223Y16556903D02*
X30327408Y16550384D01*
X30440634Y16516037D01*
X30497248Y16498864D01*
X30574435Y16457606D01*
X30653772Y16415199D01*
X30689510Y16385869D01*
X30790967Y16302607D01*
X30874229Y16201150D01*
X30903559Y16165412D01*
X30903560Y16165410D01*
X30987224Y16008888D01*
X30987224Y16008887D01*
X31038744Y15839048D01*
X31056140Y15662421D01*
X31038744Y15485794D01*
X31034242Y15470954D01*
X30987224Y15315954D01*
X30913129Y15177334D01*
X30903559Y15159430D01*
X30874229Y15123692D01*
X30790967Y15022235D01*
X30689510Y14938973D01*
X30653772Y14909643D01*
X30653770Y14909642D01*
X30497248Y14825978D01*
X30440634Y14808805D01*
X30327408Y14774458D01*
X30261224Y14767940D01*
X30195041Y14761421D01*
X30106521Y14761421D01*
X30040338Y14767940D01*
X29974154Y14774458D01*
X29860928Y14808805D01*
X29804314Y14825978D01*
X29647792Y14909642D01*
X29647790Y14909643D01*
X29612052Y14938973D01*
X29510595Y15022235D01*
X29427333Y15123692D01*
X29398003Y15159430D01*
X29388433Y15177334D01*
X29314338Y15315954D01*
X29267320Y15470954D01*
X29262818Y15485794D01*
X29245422Y15662421D01*
X29262818Y15839048D01*
X29314338Y16008887D01*
X29314338Y16008888D01*
X29398002Y16165410D01*
X29398003Y16165412D01*
X29427333Y16201150D01*
X29510595Y16302607D01*
X29612052Y16385869D01*
X29647790Y16415199D01*
X29727127Y16457606D01*
X29804314Y16498864D01*
X29860928Y16516037D01*
X29974154Y16550384D01*
X30040339Y16556903D01*
X30106521Y16563421D01*
X30195041Y16563421D01*
X30261223Y16556903D01*
X30261223Y16556903D01*
G37*
G36*
X32801223Y16556903D02*
X32867408Y16550384D01*
X32980634Y16516037D01*
X33037248Y16498864D01*
X33114435Y16457606D01*
X33193772Y16415199D01*
X33229510Y16385869D01*
X33330967Y16302607D01*
X33414229Y16201150D01*
X33443559Y16165412D01*
X33443560Y16165410D01*
X33527224Y16008888D01*
X33527224Y16008887D01*
X33578744Y15839048D01*
X33596140Y15662421D01*
X33578744Y15485794D01*
X33574242Y15470954D01*
X33527224Y15315954D01*
X33453129Y15177334D01*
X33443559Y15159430D01*
X33414229Y15123692D01*
X33330967Y15022235D01*
X33229510Y14938973D01*
X33193772Y14909643D01*
X33193770Y14909642D01*
X33037248Y14825978D01*
X32980634Y14808805D01*
X32867408Y14774458D01*
X32801224Y14767940D01*
X32735041Y14761421D01*
X32646521Y14761421D01*
X32580338Y14767940D01*
X32514154Y14774458D01*
X32400928Y14808805D01*
X32344314Y14825978D01*
X32187792Y14909642D01*
X32187790Y14909643D01*
X32152052Y14938973D01*
X32050595Y15022235D01*
X31967333Y15123692D01*
X31938003Y15159430D01*
X31928433Y15177334D01*
X31854338Y15315954D01*
X31807320Y15470954D01*
X31802818Y15485794D01*
X31785422Y15662421D01*
X31802818Y15839048D01*
X31854338Y16008887D01*
X31854338Y16008888D01*
X31938002Y16165410D01*
X31938003Y16165412D01*
X31967333Y16201150D01*
X32050595Y16302607D01*
X32152052Y16385869D01*
X32187790Y16415199D01*
X32267127Y16457606D01*
X32344314Y16498864D01*
X32400928Y16516037D01*
X32514154Y16550384D01*
X32580339Y16556903D01*
X32646521Y16563421D01*
X32735041Y16563421D01*
X32801223Y16556903D01*
X32801223Y16556903D01*
G37*
G36*
X50581223Y16556903D02*
X50647408Y16550384D01*
X50760634Y16516037D01*
X50817248Y16498864D01*
X50894435Y16457606D01*
X50973772Y16415199D01*
X51009510Y16385869D01*
X51110967Y16302607D01*
X51194229Y16201150D01*
X51223559Y16165412D01*
X51223560Y16165410D01*
X51307224Y16008888D01*
X51307224Y16008887D01*
X51358744Y15839048D01*
X51376140Y15662421D01*
X51358744Y15485794D01*
X51354242Y15470954D01*
X51307224Y15315954D01*
X51233129Y15177334D01*
X51223559Y15159430D01*
X51194229Y15123692D01*
X51110967Y15022235D01*
X51009510Y14938973D01*
X50973772Y14909643D01*
X50973770Y14909642D01*
X50817248Y14825978D01*
X50760634Y14808805D01*
X50647408Y14774458D01*
X50581224Y14767940D01*
X50515041Y14761421D01*
X50426521Y14761421D01*
X50360338Y14767940D01*
X50294154Y14774458D01*
X50180928Y14808805D01*
X50124314Y14825978D01*
X49967792Y14909642D01*
X49967790Y14909643D01*
X49932052Y14938973D01*
X49830595Y15022235D01*
X49747333Y15123692D01*
X49718003Y15159430D01*
X49708433Y15177334D01*
X49634338Y15315954D01*
X49587320Y15470954D01*
X49582818Y15485794D01*
X49565422Y15662421D01*
X49582818Y15839048D01*
X49634338Y16008887D01*
X49634338Y16008888D01*
X49718002Y16165410D01*
X49718003Y16165412D01*
X49747333Y16201150D01*
X49830595Y16302607D01*
X49932052Y16385869D01*
X49967790Y16415199D01*
X50047127Y16457606D01*
X50124314Y16498864D01*
X50180928Y16516037D01*
X50294154Y16550384D01*
X50360339Y16556903D01*
X50426521Y16563421D01*
X50515041Y16563421D01*
X50581223Y16556903D01*
X50581223Y16556903D01*
G37*
G36*
X48041223Y16556903D02*
X48107408Y16550384D01*
X48220634Y16516037D01*
X48277248Y16498864D01*
X48354435Y16457606D01*
X48433772Y16415199D01*
X48469510Y16385869D01*
X48570967Y16302607D01*
X48654229Y16201150D01*
X48683559Y16165412D01*
X48683560Y16165410D01*
X48767224Y16008888D01*
X48767224Y16008887D01*
X48818744Y15839048D01*
X48836140Y15662421D01*
X48818744Y15485794D01*
X48814242Y15470954D01*
X48767224Y15315954D01*
X48693129Y15177334D01*
X48683559Y15159430D01*
X48654229Y15123692D01*
X48570967Y15022235D01*
X48469510Y14938973D01*
X48433772Y14909643D01*
X48433770Y14909642D01*
X48277248Y14825978D01*
X48220634Y14808805D01*
X48107408Y14774458D01*
X48041224Y14767940D01*
X47975041Y14761421D01*
X47886521Y14761421D01*
X47820338Y14767940D01*
X47754154Y14774458D01*
X47640928Y14808805D01*
X47584314Y14825978D01*
X47427792Y14909642D01*
X47427790Y14909643D01*
X47392052Y14938973D01*
X47290595Y15022235D01*
X47207333Y15123692D01*
X47178003Y15159430D01*
X47168433Y15177334D01*
X47094338Y15315954D01*
X47047320Y15470954D01*
X47042818Y15485794D01*
X47025422Y15662421D01*
X47042818Y15839048D01*
X47094338Y16008887D01*
X47094338Y16008888D01*
X47178002Y16165410D01*
X47178003Y16165412D01*
X47207333Y16201150D01*
X47290595Y16302607D01*
X47392052Y16385869D01*
X47427790Y16415199D01*
X47507127Y16457606D01*
X47584314Y16498864D01*
X47640928Y16516037D01*
X47754154Y16550384D01*
X47820339Y16556903D01*
X47886521Y16563421D01*
X47975041Y16563421D01*
X48041223Y16556903D01*
X48041223Y16556903D01*
G37*
G36*
X27721223Y16556903D02*
X27787408Y16550384D01*
X27900634Y16516037D01*
X27957248Y16498864D01*
X28034435Y16457606D01*
X28113772Y16415199D01*
X28149510Y16385869D01*
X28250967Y16302607D01*
X28334229Y16201150D01*
X28363559Y16165412D01*
X28363560Y16165410D01*
X28447224Y16008888D01*
X28447224Y16008887D01*
X28498744Y15839048D01*
X28516140Y15662421D01*
X28498744Y15485794D01*
X28494242Y15470954D01*
X28447224Y15315954D01*
X28373129Y15177334D01*
X28363559Y15159430D01*
X28334229Y15123692D01*
X28250967Y15022235D01*
X28149510Y14938973D01*
X28113772Y14909643D01*
X28113770Y14909642D01*
X27957248Y14825978D01*
X27900634Y14808805D01*
X27787408Y14774458D01*
X27721224Y14767940D01*
X27655041Y14761421D01*
X27566521Y14761421D01*
X27500338Y14767940D01*
X27434154Y14774458D01*
X27320928Y14808805D01*
X27264314Y14825978D01*
X27107792Y14909642D01*
X27107790Y14909643D01*
X27072052Y14938973D01*
X26970595Y15022235D01*
X26887333Y15123692D01*
X26858003Y15159430D01*
X26848433Y15177334D01*
X26774338Y15315954D01*
X26727320Y15470954D01*
X26722818Y15485794D01*
X26705422Y15662421D01*
X26722818Y15839048D01*
X26774338Y16008887D01*
X26774338Y16008888D01*
X26858002Y16165410D01*
X26858003Y16165412D01*
X26887333Y16201150D01*
X26970595Y16302607D01*
X27072052Y16385869D01*
X27107790Y16415199D01*
X27187127Y16457606D01*
X27264314Y16498864D01*
X27320928Y16516037D01*
X27434154Y16550384D01*
X27500339Y16556903D01*
X27566521Y16563421D01*
X27655041Y16563421D01*
X27721223Y16556903D01*
X27721223Y16556903D01*
G37*
G36*
X8319342Y16711902D02*
X8385527Y16705383D01*
X8498753Y16671036D01*
X8555367Y16653863D01*
X8693987Y16579768D01*
X8711891Y16570198D01*
X8736034Y16550384D01*
X8849086Y16457606D01*
X8932348Y16356149D01*
X8961678Y16320411D01*
X8961679Y16320409D01*
X9045343Y16163887D01*
X9045343Y16163886D01*
X9096863Y15994047D01*
X9114259Y15817420D01*
X9096863Y15640793D01*
X9062516Y15527567D01*
X9045343Y15470953D01*
X8971248Y15332333D01*
X8961678Y15314429D01*
X8932348Y15278691D01*
X8849086Y15177234D01*
X8747629Y15093972D01*
X8711891Y15064642D01*
X8711889Y15064641D01*
X8555367Y14980977D01*
X8498753Y14963804D01*
X8385527Y14929457D01*
X8319343Y14922939D01*
X8253160Y14916420D01*
X8164640Y14916420D01*
X8098457Y14922939D01*
X8032273Y14929457D01*
X7919047Y14963804D01*
X7862433Y14980977D01*
X7705911Y15064641D01*
X7705909Y15064642D01*
X7670171Y15093972D01*
X7568714Y15177234D01*
X7485452Y15278691D01*
X7456122Y15314429D01*
X7446552Y15332333D01*
X7372457Y15470953D01*
X7355284Y15527567D01*
X7320937Y15640793D01*
X7303541Y15817420D01*
X7320937Y15994047D01*
X7372457Y16163886D01*
X7372457Y16163887D01*
X7456121Y16320409D01*
X7456122Y16320411D01*
X7485452Y16356149D01*
X7568714Y16457606D01*
X7681766Y16550384D01*
X7705909Y16570198D01*
X7723813Y16579768D01*
X7862433Y16653863D01*
X7919047Y16671036D01*
X8032273Y16705383D01*
X8098458Y16711902D01*
X8164640Y16718420D01*
X8253160Y16718420D01*
X8319342Y16711902D01*
X8319342Y16711902D01*
G37*
G36*
X13399342Y16711902D02*
X13465527Y16705383D01*
X13578753Y16671036D01*
X13635367Y16653863D01*
X13773987Y16579768D01*
X13791891Y16570198D01*
X13816034Y16550384D01*
X13929086Y16457606D01*
X14012348Y16356149D01*
X14041678Y16320411D01*
X14041679Y16320409D01*
X14125343Y16163887D01*
X14125343Y16163886D01*
X14176863Y15994047D01*
X14194259Y15817420D01*
X14176863Y15640793D01*
X14142516Y15527567D01*
X14125343Y15470953D01*
X14051248Y15332333D01*
X14041678Y15314429D01*
X14012348Y15278691D01*
X13929086Y15177234D01*
X13827629Y15093972D01*
X13791891Y15064642D01*
X13791889Y15064641D01*
X13635367Y14980977D01*
X13578753Y14963804D01*
X13465527Y14929457D01*
X13399343Y14922939D01*
X13333160Y14916420D01*
X13244640Y14916420D01*
X13178457Y14922939D01*
X13112273Y14929457D01*
X12999047Y14963804D01*
X12942433Y14980977D01*
X12785911Y15064641D01*
X12785909Y15064642D01*
X12750171Y15093972D01*
X12648714Y15177234D01*
X12565452Y15278691D01*
X12536122Y15314429D01*
X12526552Y15332333D01*
X12452457Y15470953D01*
X12435284Y15527567D01*
X12400937Y15640793D01*
X12383541Y15817420D01*
X12400937Y15994047D01*
X12452457Y16163886D01*
X12452457Y16163887D01*
X12536121Y16320409D01*
X12536122Y16320411D01*
X12565452Y16356149D01*
X12648714Y16457606D01*
X12761766Y16550384D01*
X12785909Y16570198D01*
X12803813Y16579768D01*
X12942433Y16653863D01*
X12999047Y16671036D01*
X13112273Y16705383D01*
X13178458Y16711902D01*
X13244640Y16718420D01*
X13333160Y16718420D01*
X13399342Y16711902D01*
X13399342Y16711902D01*
G37*
G36*
X10859342Y16711902D02*
X10925527Y16705383D01*
X11038753Y16671036D01*
X11095367Y16653863D01*
X11233987Y16579768D01*
X11251891Y16570198D01*
X11276034Y16550384D01*
X11389086Y16457606D01*
X11472348Y16356149D01*
X11501678Y16320411D01*
X11501679Y16320409D01*
X11585343Y16163887D01*
X11585343Y16163886D01*
X11636863Y15994047D01*
X11654259Y15817420D01*
X11636863Y15640793D01*
X11602516Y15527567D01*
X11585343Y15470953D01*
X11511248Y15332333D01*
X11501678Y15314429D01*
X11472348Y15278691D01*
X11389086Y15177234D01*
X11287629Y15093972D01*
X11251891Y15064642D01*
X11251889Y15064641D01*
X11095367Y14980977D01*
X11038753Y14963804D01*
X10925527Y14929457D01*
X10859343Y14922939D01*
X10793160Y14916420D01*
X10704640Y14916420D01*
X10638457Y14922939D01*
X10572273Y14929457D01*
X10459047Y14963804D01*
X10402433Y14980977D01*
X10245911Y15064641D01*
X10245909Y15064642D01*
X10210171Y15093972D01*
X10108714Y15177234D01*
X10025452Y15278691D01*
X9996122Y15314429D01*
X9986552Y15332333D01*
X9912457Y15470953D01*
X9895284Y15527567D01*
X9860937Y15640793D01*
X9843541Y15817420D01*
X9860937Y15994047D01*
X9912457Y16163886D01*
X9912457Y16163887D01*
X9996121Y16320409D01*
X9996122Y16320411D01*
X10025452Y16356149D01*
X10108714Y16457606D01*
X10221766Y16550384D01*
X10245909Y16570198D01*
X10263813Y16579768D01*
X10402433Y16653863D01*
X10459047Y16671036D01*
X10572273Y16705383D01*
X10638458Y16711902D01*
X10704640Y16718420D01*
X10793160Y16718420D01*
X10859342Y16711902D01*
X10859342Y16711902D01*
G37*
G36*
X6569900Y14916420D02*
X4767900Y14916420D01*
X4767900Y16718420D01*
X6569900Y16718420D01*
X6569900Y14916420D01*
X6569900Y14916420D01*
G37*
G36*
X6569900Y22536420D02*
X4767900Y22536420D01*
X4767900Y24338420D01*
X6569900Y24338420D01*
X6569900Y22536420D01*
X6569900Y22536420D01*
G37*
G36*
X40421223Y52116503D02*
X40487408Y52109984D01*
X40600634Y52075637D01*
X40657248Y52058464D01*
X40795868Y51984369D01*
X40813772Y51974799D01*
X40849510Y51945469D01*
X40950967Y51862207D01*
X41034229Y51760750D01*
X41063559Y51725012D01*
X41063560Y51725010D01*
X41147224Y51568488D01*
X41147224Y51568487D01*
X41198744Y51398648D01*
X41216140Y51222021D01*
X41198744Y51045394D01*
X41164397Y50932168D01*
X41147224Y50875554D01*
X41073129Y50736934D01*
X41063559Y50719030D01*
X41034229Y50683292D01*
X40950967Y50581835D01*
X40849510Y50498573D01*
X40813772Y50469243D01*
X40813770Y50469242D01*
X40657248Y50385578D01*
X40600634Y50368405D01*
X40487408Y50334058D01*
X40421223Y50327539D01*
X40355041Y50321021D01*
X40266521Y50321021D01*
X40200339Y50327539D01*
X40134154Y50334058D01*
X40020928Y50368405D01*
X39964314Y50385578D01*
X39807792Y50469242D01*
X39807790Y50469243D01*
X39772052Y50498573D01*
X39670595Y50581835D01*
X39587333Y50683292D01*
X39558003Y50719030D01*
X39548433Y50736934D01*
X39474338Y50875554D01*
X39457165Y50932168D01*
X39422818Y51045394D01*
X39405422Y51222021D01*
X39422818Y51398648D01*
X39474338Y51568487D01*
X39474338Y51568488D01*
X39558002Y51725010D01*
X39558003Y51725012D01*
X39587333Y51760750D01*
X39670595Y51862207D01*
X39772052Y51945469D01*
X39807790Y51974799D01*
X39825694Y51984369D01*
X39964314Y52058464D01*
X40020928Y52075637D01*
X40134154Y52109984D01*
X40200339Y52116503D01*
X40266521Y52123021D01*
X40355041Y52123021D01*
X40421223Y52116503D01*
X40421223Y52116503D01*
G37*
G36*
X42961223Y52116503D02*
X43027408Y52109984D01*
X43140634Y52075637D01*
X43197248Y52058464D01*
X43335868Y51984369D01*
X43353772Y51974799D01*
X43389510Y51945469D01*
X43490967Y51862207D01*
X43574229Y51760750D01*
X43603559Y51725012D01*
X43603560Y51725010D01*
X43687224Y51568488D01*
X43687224Y51568487D01*
X43738744Y51398648D01*
X43756140Y51222021D01*
X43738744Y51045394D01*
X43704397Y50932168D01*
X43687224Y50875554D01*
X43613129Y50736934D01*
X43603559Y50719030D01*
X43574229Y50683292D01*
X43490967Y50581835D01*
X43389510Y50498573D01*
X43353772Y50469243D01*
X43353770Y50469242D01*
X43197248Y50385578D01*
X43140634Y50368405D01*
X43027408Y50334058D01*
X42961223Y50327539D01*
X42895041Y50321021D01*
X42806521Y50321021D01*
X42740339Y50327539D01*
X42674154Y50334058D01*
X42560928Y50368405D01*
X42504314Y50385578D01*
X42347792Y50469242D01*
X42347790Y50469243D01*
X42312052Y50498573D01*
X42210595Y50581835D01*
X42127333Y50683292D01*
X42098003Y50719030D01*
X42088433Y50736934D01*
X42014338Y50875554D01*
X41997165Y50932168D01*
X41962818Y51045394D01*
X41945422Y51222021D01*
X41962818Y51398648D01*
X42014338Y51568487D01*
X42014338Y51568488D01*
X42098002Y51725010D01*
X42098003Y51725012D01*
X42127333Y51760750D01*
X42210595Y51862207D01*
X42312052Y51945469D01*
X42347790Y51974799D01*
X42365694Y51984369D01*
X42504314Y52058464D01*
X42560928Y52075637D01*
X42674154Y52109984D01*
X42740339Y52116503D01*
X42806521Y52123021D01*
X42895041Y52123021D01*
X42961223Y52116503D01*
X42961223Y52116503D01*
G37*
G36*
X45501223Y52116503D02*
X45567408Y52109984D01*
X45680634Y52075637D01*
X45737248Y52058464D01*
X45875868Y51984369D01*
X45893772Y51974799D01*
X45929510Y51945469D01*
X46030967Y51862207D01*
X46114229Y51760750D01*
X46143559Y51725012D01*
X46143560Y51725010D01*
X46227224Y51568488D01*
X46227224Y51568487D01*
X46278744Y51398648D01*
X46296140Y51222021D01*
X46278744Y51045394D01*
X46244397Y50932168D01*
X46227224Y50875554D01*
X46153129Y50736934D01*
X46143559Y50719030D01*
X46114229Y50683292D01*
X46030967Y50581835D01*
X45929510Y50498573D01*
X45893772Y50469243D01*
X45893770Y50469242D01*
X45737248Y50385578D01*
X45680634Y50368405D01*
X45567408Y50334058D01*
X45501223Y50327539D01*
X45435041Y50321021D01*
X45346521Y50321021D01*
X45280339Y50327539D01*
X45214154Y50334058D01*
X45100928Y50368405D01*
X45044314Y50385578D01*
X44887792Y50469242D01*
X44887790Y50469243D01*
X44852052Y50498573D01*
X44750595Y50581835D01*
X44667333Y50683292D01*
X44638003Y50719030D01*
X44628433Y50736934D01*
X44554338Y50875554D01*
X44537165Y50932168D01*
X44502818Y51045394D01*
X44485422Y51222021D01*
X44502818Y51398648D01*
X44554338Y51568487D01*
X44554338Y51568488D01*
X44638002Y51725010D01*
X44638003Y51725012D01*
X44667333Y51760750D01*
X44750595Y51862207D01*
X44852052Y51945469D01*
X44887790Y51974799D01*
X44905694Y51984369D01*
X45044314Y52058464D01*
X45100928Y52075637D01*
X45214154Y52109984D01*
X45280339Y52116503D01*
X45346521Y52123021D01*
X45435041Y52123021D01*
X45501223Y52116503D01*
X45501223Y52116503D01*
G37*
G36*
X35341223Y52116503D02*
X35407408Y52109984D01*
X35520634Y52075637D01*
X35577248Y52058464D01*
X35715868Y51984369D01*
X35733772Y51974799D01*
X35769510Y51945469D01*
X35870967Y51862207D01*
X35954229Y51760750D01*
X35983559Y51725012D01*
X35983560Y51725010D01*
X36067224Y51568488D01*
X36067224Y51568487D01*
X36118744Y51398648D01*
X36136140Y51222021D01*
X36118744Y51045394D01*
X36084397Y50932168D01*
X36067224Y50875554D01*
X35993129Y50736934D01*
X35983559Y50719030D01*
X35954229Y50683292D01*
X35870967Y50581835D01*
X35769510Y50498573D01*
X35733772Y50469243D01*
X35733770Y50469242D01*
X35577248Y50385578D01*
X35520634Y50368405D01*
X35407408Y50334058D01*
X35341223Y50327539D01*
X35275041Y50321021D01*
X35186521Y50321021D01*
X35120339Y50327539D01*
X35054154Y50334058D01*
X34940928Y50368405D01*
X34884314Y50385578D01*
X34727792Y50469242D01*
X34727790Y50469243D01*
X34692052Y50498573D01*
X34590595Y50581835D01*
X34507333Y50683292D01*
X34478003Y50719030D01*
X34468433Y50736934D01*
X34394338Y50875554D01*
X34377165Y50932168D01*
X34342818Y51045394D01*
X34325422Y51222021D01*
X34342818Y51398648D01*
X34394338Y51568487D01*
X34394338Y51568488D01*
X34478002Y51725010D01*
X34478003Y51725012D01*
X34507333Y51760750D01*
X34590595Y51862207D01*
X34692052Y51945469D01*
X34727790Y51974799D01*
X34745694Y51984369D01*
X34884314Y52058464D01*
X34940928Y52075637D01*
X35054154Y52109984D01*
X35120339Y52116503D01*
X35186521Y52123021D01*
X35275041Y52123021D01*
X35341223Y52116503D01*
X35341223Y52116503D01*
G37*
G36*
X48041223Y52116503D02*
X48107408Y52109984D01*
X48220634Y52075637D01*
X48277248Y52058464D01*
X48415868Y51984369D01*
X48433772Y51974799D01*
X48469510Y51945469D01*
X48570967Y51862207D01*
X48654229Y51760750D01*
X48683559Y51725012D01*
X48683560Y51725010D01*
X48767224Y51568488D01*
X48767224Y51568487D01*
X48818744Y51398648D01*
X48836140Y51222021D01*
X48818744Y51045394D01*
X48784397Y50932168D01*
X48767224Y50875554D01*
X48693129Y50736934D01*
X48683559Y50719030D01*
X48654229Y50683292D01*
X48570967Y50581835D01*
X48469510Y50498573D01*
X48433772Y50469243D01*
X48433770Y50469242D01*
X48277248Y50385578D01*
X48220634Y50368405D01*
X48107408Y50334058D01*
X48041223Y50327539D01*
X47975041Y50321021D01*
X47886521Y50321021D01*
X47820339Y50327539D01*
X47754154Y50334058D01*
X47640928Y50368405D01*
X47584314Y50385578D01*
X47427792Y50469242D01*
X47427790Y50469243D01*
X47392052Y50498573D01*
X47290595Y50581835D01*
X47207333Y50683292D01*
X47178003Y50719030D01*
X47168433Y50736934D01*
X47094338Y50875554D01*
X47077165Y50932168D01*
X47042818Y51045394D01*
X47025422Y51222021D01*
X47042818Y51398648D01*
X47094338Y51568487D01*
X47094338Y51568488D01*
X47178002Y51725010D01*
X47178003Y51725012D01*
X47207333Y51760750D01*
X47290595Y51862207D01*
X47392052Y51945469D01*
X47427790Y51974799D01*
X47445694Y51984369D01*
X47584314Y52058464D01*
X47640928Y52075637D01*
X47754154Y52109984D01*
X47820339Y52116503D01*
X47886521Y52123021D01*
X47975041Y52123021D01*
X48041223Y52116503D01*
X48041223Y52116503D01*
G37*
G36*
X32801223Y52116503D02*
X32867408Y52109984D01*
X32980634Y52075637D01*
X33037248Y52058464D01*
X33175868Y51984369D01*
X33193772Y51974799D01*
X33229510Y51945469D01*
X33330967Y51862207D01*
X33414229Y51760750D01*
X33443559Y51725012D01*
X33443560Y51725010D01*
X33527224Y51568488D01*
X33527224Y51568487D01*
X33578744Y51398648D01*
X33596140Y51222021D01*
X33578744Y51045394D01*
X33544397Y50932168D01*
X33527224Y50875554D01*
X33453129Y50736934D01*
X33443559Y50719030D01*
X33414229Y50683292D01*
X33330967Y50581835D01*
X33229510Y50498573D01*
X33193772Y50469243D01*
X33193770Y50469242D01*
X33037248Y50385578D01*
X32980634Y50368405D01*
X32867408Y50334058D01*
X32801223Y50327539D01*
X32735041Y50321021D01*
X32646521Y50321021D01*
X32580339Y50327539D01*
X32514154Y50334058D01*
X32400928Y50368405D01*
X32344314Y50385578D01*
X32187792Y50469242D01*
X32187790Y50469243D01*
X32152052Y50498573D01*
X32050595Y50581835D01*
X31967333Y50683292D01*
X31938003Y50719030D01*
X31928433Y50736934D01*
X31854338Y50875554D01*
X31837165Y50932168D01*
X31802818Y51045394D01*
X31785422Y51222021D01*
X31802818Y51398648D01*
X31854338Y51568487D01*
X31854338Y51568488D01*
X31938002Y51725010D01*
X31938003Y51725012D01*
X31967333Y51760750D01*
X32050595Y51862207D01*
X32152052Y51945469D01*
X32187790Y51974799D01*
X32205694Y51984369D01*
X32344314Y52058464D01*
X32400928Y52075637D01*
X32514154Y52109984D01*
X32580339Y52116503D01*
X32646521Y52123021D01*
X32735041Y52123021D01*
X32801223Y52116503D01*
X32801223Y52116503D01*
G37*
G36*
X30261223Y52116503D02*
X30327408Y52109984D01*
X30440634Y52075637D01*
X30497248Y52058464D01*
X30635868Y51984369D01*
X30653772Y51974799D01*
X30689510Y51945469D01*
X30790967Y51862207D01*
X30874229Y51760750D01*
X30903559Y51725012D01*
X30903560Y51725010D01*
X30987224Y51568488D01*
X30987224Y51568487D01*
X31038744Y51398648D01*
X31056140Y51222021D01*
X31038744Y51045394D01*
X31004397Y50932168D01*
X30987224Y50875554D01*
X30913129Y50736934D01*
X30903559Y50719030D01*
X30874229Y50683292D01*
X30790967Y50581835D01*
X30689510Y50498573D01*
X30653772Y50469243D01*
X30653770Y50469242D01*
X30497248Y50385578D01*
X30440634Y50368405D01*
X30327408Y50334058D01*
X30261223Y50327539D01*
X30195041Y50321021D01*
X30106521Y50321021D01*
X30040339Y50327539D01*
X29974154Y50334058D01*
X29860928Y50368405D01*
X29804314Y50385578D01*
X29647792Y50469242D01*
X29647790Y50469243D01*
X29612052Y50498573D01*
X29510595Y50581835D01*
X29427333Y50683292D01*
X29398003Y50719030D01*
X29388433Y50736934D01*
X29314338Y50875554D01*
X29297165Y50932168D01*
X29262818Y51045394D01*
X29245422Y51222021D01*
X29262818Y51398648D01*
X29314338Y51568487D01*
X29314338Y51568488D01*
X29398002Y51725010D01*
X29398003Y51725012D01*
X29427333Y51760750D01*
X29510595Y51862207D01*
X29612052Y51945469D01*
X29647790Y51974799D01*
X29665694Y51984369D01*
X29804314Y52058464D01*
X29860928Y52075637D01*
X29974154Y52109984D01*
X30040339Y52116503D01*
X30106521Y52123021D01*
X30195041Y52123021D01*
X30261223Y52116503D01*
X30261223Y52116503D01*
G37*
G36*
X27721223Y52116503D02*
X27787408Y52109984D01*
X27900634Y52075637D01*
X27957248Y52058464D01*
X28095868Y51984369D01*
X28113772Y51974799D01*
X28149510Y51945469D01*
X28250967Y51862207D01*
X28334229Y51760750D01*
X28363559Y51725012D01*
X28363560Y51725010D01*
X28447224Y51568488D01*
X28447224Y51568487D01*
X28498744Y51398648D01*
X28516140Y51222021D01*
X28498744Y51045394D01*
X28464397Y50932168D01*
X28447224Y50875554D01*
X28373129Y50736934D01*
X28363559Y50719030D01*
X28334229Y50683292D01*
X28250967Y50581835D01*
X28149510Y50498573D01*
X28113772Y50469243D01*
X28113770Y50469242D01*
X27957248Y50385578D01*
X27900634Y50368405D01*
X27787408Y50334058D01*
X27721223Y50327539D01*
X27655041Y50321021D01*
X27566521Y50321021D01*
X27500339Y50327539D01*
X27434154Y50334058D01*
X27320928Y50368405D01*
X27264314Y50385578D01*
X27107792Y50469242D01*
X27107790Y50469243D01*
X27072052Y50498573D01*
X26970595Y50581835D01*
X26887333Y50683292D01*
X26858003Y50719030D01*
X26848433Y50736934D01*
X26774338Y50875554D01*
X26757165Y50932168D01*
X26722818Y51045394D01*
X26705422Y51222021D01*
X26722818Y51398648D01*
X26774338Y51568487D01*
X26774338Y51568488D01*
X26858002Y51725010D01*
X26858003Y51725012D01*
X26887333Y51760750D01*
X26970595Y51862207D01*
X27072052Y51945469D01*
X27107790Y51974799D01*
X27125694Y51984369D01*
X27264314Y52058464D01*
X27320928Y52075637D01*
X27434154Y52109984D01*
X27500339Y52116503D01*
X27566521Y52123021D01*
X27655041Y52123021D01*
X27721223Y52116503D01*
X27721223Y52116503D01*
G37*
G36*
X50581223Y52116503D02*
X50647408Y52109984D01*
X50760634Y52075637D01*
X50817248Y52058464D01*
X50955868Y51984369D01*
X50973772Y51974799D01*
X51009510Y51945469D01*
X51110967Y51862207D01*
X51194229Y51760750D01*
X51223559Y51725012D01*
X51223560Y51725010D01*
X51307224Y51568488D01*
X51307224Y51568487D01*
X51358744Y51398648D01*
X51376140Y51222021D01*
X51358744Y51045394D01*
X51324397Y50932168D01*
X51307224Y50875554D01*
X51233129Y50736934D01*
X51223559Y50719030D01*
X51194229Y50683292D01*
X51110967Y50581835D01*
X51009510Y50498573D01*
X50973772Y50469243D01*
X50973770Y50469242D01*
X50817248Y50385578D01*
X50760634Y50368405D01*
X50647408Y50334058D01*
X50581223Y50327539D01*
X50515041Y50321021D01*
X50426521Y50321021D01*
X50360339Y50327539D01*
X50294154Y50334058D01*
X50180928Y50368405D01*
X50124314Y50385578D01*
X49967792Y50469242D01*
X49967790Y50469243D01*
X49932052Y50498573D01*
X49830595Y50581835D01*
X49747333Y50683292D01*
X49718003Y50719030D01*
X49708433Y50736934D01*
X49634338Y50875554D01*
X49617165Y50932168D01*
X49582818Y51045394D01*
X49565422Y51222021D01*
X49582818Y51398648D01*
X49634338Y51568487D01*
X49634338Y51568488D01*
X49718002Y51725010D01*
X49718003Y51725012D01*
X49747333Y51760750D01*
X49830595Y51862207D01*
X49932052Y51945469D01*
X49967790Y51974799D01*
X49985694Y51984369D01*
X50124314Y52058464D01*
X50180928Y52075637D01*
X50294154Y52109984D01*
X50360339Y52116503D01*
X50426521Y52123021D01*
X50515041Y52123021D01*
X50581223Y52116503D01*
X50581223Y52116503D01*
G37*
G36*
X37881223Y52116503D02*
X37947408Y52109984D01*
X38060634Y52075637D01*
X38117248Y52058464D01*
X38255868Y51984369D01*
X38273772Y51974799D01*
X38309510Y51945469D01*
X38410967Y51862207D01*
X38494229Y51760750D01*
X38523559Y51725012D01*
X38523560Y51725010D01*
X38607224Y51568488D01*
X38607224Y51568487D01*
X38658744Y51398648D01*
X38676140Y51222021D01*
X38658744Y51045394D01*
X38624397Y50932168D01*
X38607224Y50875554D01*
X38533129Y50736934D01*
X38523559Y50719030D01*
X38494229Y50683292D01*
X38410967Y50581835D01*
X38309510Y50498573D01*
X38273772Y50469243D01*
X38273770Y50469242D01*
X38117248Y50385578D01*
X38060634Y50368405D01*
X37947408Y50334058D01*
X37881223Y50327539D01*
X37815041Y50321021D01*
X37726521Y50321021D01*
X37660339Y50327539D01*
X37594154Y50334058D01*
X37480928Y50368405D01*
X37424314Y50385578D01*
X37267792Y50469242D01*
X37267790Y50469243D01*
X37232052Y50498573D01*
X37130595Y50581835D01*
X37047333Y50683292D01*
X37018003Y50719030D01*
X37008433Y50736934D01*
X36934338Y50875554D01*
X36917165Y50932168D01*
X36882818Y51045394D01*
X36865422Y51222021D01*
X36882818Y51398648D01*
X36934338Y51568487D01*
X36934338Y51568488D01*
X37018002Y51725010D01*
X37018003Y51725012D01*
X37047333Y51760750D01*
X37130595Y51862207D01*
X37232052Y51945469D01*
X37267790Y51974799D01*
X37285694Y51984369D01*
X37424314Y52058464D01*
X37480928Y52075637D01*
X37594154Y52109984D01*
X37660339Y52116503D01*
X37726521Y52123021D01*
X37815041Y52123021D01*
X37881223Y52116503D01*
X37881223Y52116503D01*
G37*
M02*
