M48
;DRILL file {KiCad 5.0.2-bee76a0~70~ubuntu18.04.1} date 2019-04-07T21:24:13 CEST
;FORMAT={3:3/ absolute / metric / suppress leading zeros}
FMAT,2
METRIC,TZ
T1C0.700
T2C1.000
T3C1.300
%
G90
G05
T1
X27611Y15662
X35231Y15662
X37771Y15662
X40311Y15662
X47931Y51222
X50471Y51222
X42851Y15662
X45391Y15662
X37771Y51222
X40311Y51222
X42851Y51222
X45391Y51222
X47931Y15662
X50471Y15662
X30151Y15662
X32691Y15662
X27611Y51222
X30151Y51222
X32691Y51222
X35231Y51222
T2
X5669Y23437
X5669Y15817
X8209Y15817
X10749Y15817
X13289Y15817
T3
X15829Y5657
X20909Y5657
X25989Y5657
X31069Y5657
X36149Y5657
X41229Y5657
X46309Y5657
X51389Y5657
X56469Y5657
X5669Y5657
X10749Y5657
T0
M30
