G04 #@! TF.GenerationSoftware,KiCad,Pcbnew,5.0.2-bee76a0~70~ubuntu18.04.1*
G04 #@! TF.CreationDate,2019-04-07T21:24:10+02:00*
G04 #@! TF.ProjectId,TMC2660_mount2,544d4332-3636-4305-9f6d-6f756e74322e,rev?*
G04 #@! TF.SameCoordinates,PX40126abPY799e129*
G04 #@! TF.FileFunction,Copper,L1,Top*
G04 #@! TF.FilePolarity,Positive*
%FSLAX46Y46*%
G04 Gerber Fmt 4.6, Leading zero omitted, Abs format (unit mm)*
G04 Created by KiCad (PCBNEW 5.0.2-bee76a0~70~ubuntu18.04.1) date 2019-04-07T21:24:10 CEST*
%MOMM*%
%LPD*%
G01*
G04 APERTURE LIST*
G04 #@! TA.AperFunction,ComponentPad*
%ADD10R,1.700000X1.700000*%
G04 #@! TD*
G04 #@! TA.AperFunction,ComponentPad*
%ADD11O,1.700000X1.700000*%
G04 #@! TD*
G04 #@! TA.AperFunction,ComponentPad*
%ADD12C,3.000000*%
G04 #@! TD*
G04 #@! TA.AperFunction,ComponentPad*
%ADD13R,3.000000X3.000000*%
G04 #@! TD*
G04 #@! TA.AperFunction,Conductor*
%ADD14C,1.700000*%
G04 #@! TD*
G04 #@! TA.AperFunction,Conductor*
%ADD15C,0.300000*%
G04 #@! TD*
%ADD16C,0.300000*%
G04 APERTURE END LIST*
D10*
G04 #@! TO.P,J5,1*
G04 #@! TO.N,/SG_TST*
X5668900Y23437420D03*
G04 #@! TD*
D11*
G04 #@! TO.P,J4,4*
G04 #@! TO.N,/SDO*
X13288900Y15817420D03*
G04 #@! TO.P,J4,3*
G04 #@! TO.N,/SDI*
X10748900Y15817420D03*
G04 #@! TO.P,J4,2*
G04 #@! TO.N,/SCK*
X8208900Y15817420D03*
D10*
G04 #@! TO.P,J4,1*
G04 #@! TO.N,/CSn*
X5668900Y15817420D03*
G04 #@! TD*
D12*
G04 #@! TO.P,J3,6*
G04 #@! TO.N,/VS*
X56468781Y5657421D03*
G04 #@! TO.P,J3,5*
G04 #@! TO.N,GND*
X51388781Y5657421D03*
G04 #@! TO.P,J3,4*
G04 #@! TO.N,/A1*
X46308781Y5657421D03*
D13*
G04 #@! TO.P,J3,1*
G04 #@! TO.N,/B2*
X31068781Y5657421D03*
D12*
G04 #@! TO.P,J3,3*
G04 #@! TO.N,/A2*
X41228781Y5657421D03*
G04 #@! TO.P,J3,2*
G04 #@! TO.N,/B1*
X36148781Y5657421D03*
G04 #@! TD*
G04 #@! TO.P,J2,3*
G04 #@! TO.N,/DIR*
X25988881Y5657421D03*
G04 #@! TO.P,J2,2*
G04 #@! TO.N,/STEP*
X20908881Y5657421D03*
D13*
G04 #@! TO.P,J2,1*
G04 #@! TO.N,/DRV_ENn*
X15828881Y5657421D03*
G04 #@! TD*
D12*
G04 #@! TO.P,J1,2*
G04 #@! TO.N,GND*
X10748881Y5657421D03*
D13*
G04 #@! TO.P,J1,1*
G04 #@! TO.N,/VCC*
X5668881Y5657421D03*
G04 #@! TD*
D11*
G04 #@! TO.P,P1,1*
G04 #@! TO.N,/CSn*
X37770781Y51222021D03*
G04 #@! TO.P,P1,2*
G04 #@! TO.N,/SCK*
X40310781Y51222021D03*
G04 #@! TO.P,P1,3*
G04 #@! TO.N,/SDI*
X42850781Y51222021D03*
G04 #@! TO.P,P1,4*
G04 #@! TO.N,/SDO*
X45390781Y51222021D03*
G04 #@! TD*
G04 #@! TO.P,P2,1*
G04 #@! TO.N,/STEP*
X32690781Y15662421D03*
G04 #@! TO.P,P2,2*
G04 #@! TO.N,/DIR*
X30150781Y15662421D03*
G04 #@! TD*
G04 #@! TO.P,P3,4*
G04 #@! TO.N,GND*
X35230781Y51222021D03*
G04 #@! TO.P,P3,3*
G04 #@! TO.N,/DRV_ENn*
X32690781Y51222021D03*
G04 #@! TO.P,P3,2*
G04 #@! TO.N,GND*
X30150781Y51222021D03*
G04 #@! TO.P,P3,1*
G04 #@! TO.N,/SG_TST*
X27610781Y51222021D03*
G04 #@! TD*
G04 #@! TO.P,P4,1*
G04 #@! TO.N,GND*
X27610781Y15662421D03*
G04 #@! TD*
G04 #@! TO.P,P5,1*
G04 #@! TO.N,GND*
X35230781Y15662421D03*
G04 #@! TD*
G04 #@! TO.P,P6,2*
G04 #@! TO.N,/A1*
X45390781Y15662421D03*
G04 #@! TO.P,P6,1*
G04 #@! TO.N,/A2*
X42850781Y15662421D03*
G04 #@! TD*
G04 #@! TO.P,P7,1*
G04 #@! TO.N,/B2*
X37770781Y15662421D03*
G04 #@! TO.P,P7,2*
G04 #@! TO.N,/B1*
X40310781Y15662421D03*
G04 #@! TD*
G04 #@! TO.P,P8,1*
G04 #@! TO.N,GND*
X47930781Y51222021D03*
G04 #@! TO.P,P8,2*
G04 #@! TO.N,/VCC*
X50470781Y51222021D03*
G04 #@! TD*
G04 #@! TO.P,P9,2*
G04 #@! TO.N,/VS*
X50470781Y15662421D03*
G04 #@! TO.P,P9,1*
G04 #@! TO.N,GND*
X47930781Y15662421D03*
G04 #@! TD*
D14*
G04 #@! TO.N,/VS*
X50470781Y15662421D02*
X56468781Y5657421D01*
G04 #@! TO.N,/A1*
X45390781Y15662421D02*
X46308781Y5657421D01*
G04 #@! TO.N,/B2*
X37770781Y15662421D02*
X31068781Y5657421D01*
G04 #@! TO.N,/A2*
X42850781Y15662421D02*
X41228781Y5657421D01*
G04 #@! TO.N,/B1*
X40310781Y15662421D02*
X36148781Y5657421D01*
G04 #@! TD*
D15*
G04 #@! TO.N,GND*
X59420901Y54329420D02*
X23588941Y54329420D01*
X59420901Y54044420D02*
X23325683Y54044420D01*
X59420901Y53759420D02*
X23122564Y53759420D01*
X59420901Y53474420D02*
X22966092Y53474420D01*
X59420901Y53189420D02*
X22848000Y53189420D01*
X59420901Y52904420D02*
X22763082Y52904420D01*
X26813993Y52619420D02*
X22711314Y52619420D01*
X31893993Y52619420D02*
X28407570Y52619420D01*
X36973993Y52619420D02*
X33487570Y52619420D01*
X39513993Y52619420D02*
X38567570Y52619420D01*
X42053993Y52619420D02*
X41107570Y52619420D01*
X44593993Y52619420D02*
X43647570Y52619420D01*
X49673993Y52619420D02*
X46187570Y52619420D01*
X59420901Y52619420D02*
X51267570Y52619420D01*
X26443525Y52334420D02*
X22691006Y52334420D01*
X29133746Y52334420D02*
X28778037Y52334420D01*
X30575781Y52334420D02*
X29725781Y52334420D01*
X31523526Y52334420D02*
X31167817Y52334420D01*
X34213746Y52334420D02*
X33858037Y52334420D01*
X35655781Y52334420D02*
X34805781Y52334420D01*
X36603526Y52334420D02*
X36247817Y52334420D01*
X39143525Y52334420D02*
X38938038Y52334420D01*
X41683525Y52334420D02*
X41478038Y52334420D01*
X44223525Y52334420D02*
X44018038Y52334420D01*
X46913746Y52334420D02*
X46558037Y52334420D01*
X48355781Y52334420D02*
X47505781Y52334420D01*
X49303526Y52334420D02*
X48947817Y52334420D01*
X59420901Y52334420D02*
X51638038Y52334420D01*
X26229744Y52049420D02*
X22685820Y52049420D01*
X30575781Y52049420D02*
X29725781Y52049420D01*
X35655781Y52049420D02*
X34805781Y52049420D01*
X48355781Y52049420D02*
X47505781Y52049420D01*
X59420901Y52049420D02*
X51851819Y52049420D01*
X26094962Y51764420D02*
X22685820Y51764420D01*
X30575781Y51764420D02*
X29725781Y51764420D01*
X35655781Y51764420D02*
X34805781Y51764420D01*
X48355781Y51764420D02*
X47505781Y51764420D01*
X59420901Y51764420D02*
X51986601Y51764420D01*
X26020353Y51479420D02*
X22685820Y51479420D01*
X30620781Y51479420D02*
X29680781Y51479420D01*
X35700781Y51479420D02*
X34760781Y51479420D01*
X48400781Y51479420D02*
X47460781Y51479420D01*
X59420901Y51479420D02*
X52061210Y51479420D01*
X25997719Y51194420D02*
X22685820Y51194420D01*
X30620781Y51194420D02*
X29680781Y51194420D01*
X35700781Y51194420D02*
X34760781Y51194420D01*
X48400781Y51194420D02*
X47460781Y51194420D01*
X59420901Y51194420D02*
X52083842Y51194420D01*
X26025789Y50909420D02*
X22685820Y50909420D01*
X30620781Y50909420D02*
X29680781Y50909420D01*
X35700781Y50909420D02*
X34760781Y50909420D01*
X48400781Y50909420D02*
X47460781Y50909420D01*
X59420901Y50909420D02*
X52055772Y50909420D01*
X26111706Y50624420D02*
X22685820Y50624420D01*
X30575781Y50624420D02*
X29725781Y50624420D01*
X35655781Y50624420D02*
X34805781Y50624420D01*
X48355781Y50624420D02*
X47505781Y50624420D01*
X59420901Y50624420D02*
X51969855Y50624420D01*
X26259249Y50339420D02*
X22685820Y50339420D01*
X30575781Y50339420D02*
X29725781Y50339420D01*
X35655781Y50339420D02*
X34805781Y50339420D01*
X48355781Y50339420D02*
X47505781Y50339420D01*
X59420901Y50339420D02*
X51822312Y50339420D01*
X26498802Y50054420D02*
X22685820Y50054420D01*
X29205686Y50054420D02*
X28722759Y50054420D01*
X30575781Y50054420D02*
X29725781Y50054420D01*
X31578802Y50054420D02*
X31095875Y50054420D01*
X34285686Y50054420D02*
X33802759Y50054420D01*
X35655781Y50054420D02*
X34805781Y50054420D01*
X36658802Y50054420D02*
X36175875Y50054420D01*
X39198802Y50054420D02*
X38882759Y50054420D01*
X41738802Y50054420D02*
X41422759Y50054420D01*
X44278802Y50054420D02*
X43962759Y50054420D01*
X46985686Y50054420D02*
X46502759Y50054420D01*
X48355781Y50054420D02*
X47505781Y50054420D01*
X49358802Y50054420D02*
X48875875Y50054420D01*
X59420901Y50054420D02*
X51582759Y50054420D01*
X26917268Y49769420D02*
X22685820Y49769420D01*
X31997268Y49769420D02*
X28304293Y49769420D01*
X37077268Y49769420D02*
X33384293Y49769420D01*
X39617268Y49769420D02*
X38464293Y49769420D01*
X42157268Y49769420D02*
X41004293Y49769420D01*
X44697268Y49769420D02*
X43544293Y49769420D01*
X49777268Y49769420D02*
X46084293Y49769420D01*
X59420901Y49769420D02*
X51164293Y49769420D01*
X59420901Y49484420D02*
X22685820Y49484420D01*
X59420901Y49199420D02*
X22685820Y49199420D01*
X59420901Y48914420D02*
X22685820Y48914420D01*
X59420901Y48629420D02*
X22685820Y48629420D01*
X59420901Y48344420D02*
X22685820Y48344420D01*
X59420901Y48059420D02*
X22685820Y48059420D01*
X59420901Y47774420D02*
X22685820Y47774420D01*
X59420901Y47489420D02*
X22685820Y47489420D01*
X59420901Y47204420D02*
X22685820Y47204420D01*
X59420901Y46919420D02*
X22685820Y46919420D01*
X59420901Y46634420D02*
X22685820Y46634420D01*
X59420901Y46349420D02*
X22685820Y46349420D01*
X59420901Y46064420D02*
X22685820Y46064420D01*
X59420901Y45779420D02*
X22685820Y45779420D01*
X59420901Y45494420D02*
X22685820Y45494420D01*
X59420901Y45209420D02*
X22685820Y45209420D01*
X59420901Y44924420D02*
X22685820Y44924420D01*
X59420901Y44639420D02*
X22685820Y44639420D01*
X59420901Y44354420D02*
X22685820Y44354420D01*
X59420901Y44069420D02*
X22685820Y44069420D01*
X59420901Y43784420D02*
X22685820Y43784420D01*
X59420901Y43499420D02*
X22685820Y43499420D01*
X59420901Y43214420D02*
X22685820Y43214420D01*
X59420901Y42929420D02*
X22685820Y42929420D01*
X59420901Y42644420D02*
X22685820Y42644420D01*
X59420901Y42359420D02*
X22685820Y42359420D01*
X59420901Y42074420D02*
X22685820Y42074420D01*
X59420901Y41789420D02*
X22685820Y41789420D01*
X59420901Y41504420D02*
X22685820Y41504420D01*
X59420901Y41219420D02*
X22685820Y41219420D01*
X59420901Y40934420D02*
X22685820Y40934420D01*
X59420901Y40649420D02*
X22685820Y40649420D01*
X59420901Y40364420D02*
X22685820Y40364420D01*
X59420901Y40079420D02*
X22685820Y40079420D01*
X59420901Y39794420D02*
X22685820Y39794420D01*
X59420901Y39509420D02*
X22685820Y39509420D01*
X59420901Y39224420D02*
X22685820Y39224420D01*
X59420901Y38939420D02*
X22685820Y38939420D01*
X59420901Y38654420D02*
X22685820Y38654420D01*
X59420901Y38369420D02*
X22685820Y38369420D01*
X59420901Y38084420D02*
X22685820Y38084420D01*
X59420901Y37799420D02*
X22685820Y37799420D01*
X59420901Y37514420D02*
X22685820Y37514420D01*
X59420901Y37229420D02*
X22685820Y37229420D01*
X59420901Y36944420D02*
X22685820Y36944420D01*
X59420901Y36659420D02*
X22685820Y36659420D01*
X59420901Y36374420D02*
X22685820Y36374420D01*
X59420901Y36089420D02*
X22685820Y36089420D01*
X59420901Y35804420D02*
X22685820Y35804420D01*
X59420901Y35519420D02*
X22685820Y35519420D01*
X59420901Y35234420D02*
X22685820Y35234420D01*
X59420901Y34949420D02*
X22685820Y34949420D01*
X59420901Y34664420D02*
X22685820Y34664420D01*
X59420901Y34379420D02*
X22685820Y34379420D01*
X59420901Y34094420D02*
X22685820Y34094420D01*
X59420901Y33809420D02*
X22685820Y33809420D01*
X59420901Y33524420D02*
X22685820Y33524420D01*
X59420901Y33239420D02*
X22685820Y33239420D01*
X59420901Y32954420D02*
X22685820Y32954420D01*
X59420901Y32669420D02*
X22685820Y32669420D01*
X59420901Y32384420D02*
X22685820Y32384420D01*
X59420901Y32099420D02*
X22685820Y32099420D01*
X59420901Y31814420D02*
X22685820Y31814420D01*
X59420901Y31529420D02*
X22685820Y31529420D01*
X59420901Y31244420D02*
X22685820Y31244420D01*
X59420901Y30959420D02*
X22685820Y30959420D01*
X59420901Y30674420D02*
X22685820Y30674420D01*
X59420901Y30389420D02*
X22685820Y30389420D01*
X59420901Y30104420D02*
X22685820Y30104420D01*
X59420901Y29819420D02*
X22685820Y29819420D01*
X59420901Y29534420D02*
X22685820Y29534420D01*
X59420901Y29249420D02*
X22685820Y29249420D01*
X59420901Y28964420D02*
X22685820Y28964420D01*
X59420901Y28679420D02*
X22685820Y28679420D01*
X59420901Y28394420D02*
X22685820Y28394420D01*
X59420901Y28109420D02*
X22685820Y28109420D01*
X59420901Y27824420D02*
X22685820Y27824420D01*
X59420901Y27539420D02*
X22685820Y27539420D01*
X59420901Y27254420D02*
X22685820Y27254420D01*
X59420901Y26969420D02*
X22685820Y26969420D01*
X59420901Y26684420D02*
X22685820Y26684420D01*
X59420901Y26399420D02*
X22685820Y26399420D01*
X59420901Y26114420D02*
X22685820Y26114420D01*
X59420901Y25829420D02*
X22685820Y25829420D01*
X59420901Y25544420D02*
X22685820Y25544420D01*
X59420901Y25259420D02*
X22685820Y25259420D01*
X59420901Y24974420D02*
X22685820Y24974420D01*
X59420901Y24689420D02*
X22685820Y24689420D01*
X59420901Y24404420D02*
X22685820Y24404420D01*
X59420901Y24119420D02*
X22685820Y24119420D01*
X59420901Y23834420D02*
X22685820Y23834420D01*
X59420901Y23549420D02*
X22685820Y23549420D01*
X59420901Y23264420D02*
X22685820Y23264420D01*
X59420901Y22979420D02*
X22685820Y22979420D01*
X59420901Y22694420D02*
X22685820Y22694420D01*
X59420901Y22409420D02*
X22685820Y22409420D01*
X59420901Y22124420D02*
X22685820Y22124420D01*
X59420901Y21839420D02*
X22685820Y21839420D01*
X59420901Y21554420D02*
X22685820Y21554420D01*
X59420901Y21269420D02*
X22685820Y21269420D01*
X59420901Y20984420D02*
X22685820Y20984420D01*
X59420901Y20699420D02*
X22685820Y20699420D01*
X59420901Y20414420D02*
X22685820Y20414420D01*
X59420901Y20129420D02*
X22685820Y20129420D01*
X59420901Y19844420D02*
X22685820Y19844420D01*
X59420901Y19559420D02*
X22685820Y19559420D01*
X59420901Y19274420D02*
X22685820Y19274420D01*
X59420901Y18989420D02*
X22685820Y18989420D01*
X59420901Y18704420D02*
X22685820Y18704420D01*
X59420901Y18419420D02*
X22685820Y18419420D01*
X59420901Y18134420D02*
X22685820Y18134420D01*
X59420901Y17849420D02*
X22685820Y17849420D01*
X59420901Y17564420D02*
X22685820Y17564420D01*
X59420901Y17279420D02*
X22685820Y17279420D01*
X26907457Y16994420D02*
X22685820Y16994420D01*
X28180125Y16994420D02*
X27041438Y16994420D01*
X29239123Y16994420D02*
X28314106Y16994420D01*
X31779123Y16994420D02*
X31062440Y16994420D01*
X34527457Y16994420D02*
X33602440Y16994420D01*
X35800125Y16994420D02*
X34661438Y16994420D01*
X36859123Y16994420D02*
X35934106Y16994420D01*
X39399123Y16994420D02*
X38682697Y16994420D01*
X41939122Y16994420D02*
X41222777Y16994420D01*
X44479123Y16994420D02*
X43762440Y16994420D01*
X47227457Y16994420D02*
X46302440Y16994420D01*
X48500125Y16994420D02*
X47361438Y16994420D01*
X49559123Y16994420D02*
X48634106Y16994420D01*
X59420901Y16994420D02*
X51382440Y16994420D01*
X26534353Y16709420D02*
X22685820Y16709420D01*
X28035781Y16709420D02*
X27185781Y16709420D01*
X28929853Y16709420D02*
X28687210Y16709420D01*
X31469853Y16709420D02*
X31371710Y16709420D01*
X34154353Y16709420D02*
X33911710Y16709420D01*
X35655781Y16709420D02*
X34805781Y16709420D01*
X36549853Y16709420D02*
X36307210Y16709420D01*
X39089853Y16709420D02*
X38991762Y16709420D01*
X41627011Y16709420D02*
X41531780Y16709420D01*
X44162465Y16709420D02*
X44071710Y16709420D01*
X46854353Y16709420D02*
X46616693Y16709420D01*
X48355781Y16709420D02*
X47505781Y16709420D01*
X49249550Y16709420D02*
X49007210Y16709420D01*
X59420901Y16709420D02*
X51696233Y16709420D01*
X26317808Y16424420D02*
X22685820Y16424420D01*
X28035781Y16424420D02*
X27185781Y16424420D01*
X35655781Y16424420D02*
X34805781Y16424420D01*
X48355781Y16424420D02*
X47505781Y16424420D01*
X59420901Y16424420D02*
X51888782Y16424420D01*
X26309530Y16139420D02*
X22685820Y16139420D01*
X28035781Y16139420D02*
X27185781Y16139420D01*
X35655781Y16139420D02*
X34805781Y16139420D01*
X48355781Y16139420D02*
X47505781Y16139420D01*
X59420901Y16139420D02*
X52059640Y16139420D01*
X28080781Y15854420D02*
X22685820Y15854420D01*
X35700781Y15854420D02*
X34760781Y15854420D01*
X48400781Y15854420D02*
X47460781Y15854420D01*
X59420901Y15854420D02*
X52230497Y15854420D01*
X28080781Y15569420D02*
X22685820Y15569420D01*
X35700781Y15569420D02*
X34760781Y15569420D01*
X48400781Y15569420D02*
X47460781Y15569420D01*
X59420901Y15569420D02*
X52401355Y15569420D01*
X28080781Y15284420D02*
X22685820Y15284420D01*
X35582138Y15284420D02*
X34760781Y15284420D01*
X48400781Y15284420D02*
X47460781Y15284420D01*
X59420901Y15284420D02*
X52572213Y15284420D01*
X26258336Y14999420D02*
X22685820Y14999420D01*
X28035781Y14999420D02*
X27185781Y14999420D01*
X48355781Y14999420D02*
X47505781Y14999420D01*
X59420901Y14999420D02*
X52743070Y14999420D01*
X26444446Y14714420D02*
X22685820Y14714420D01*
X28035781Y14714420D02*
X27185781Y14714420D01*
X28848607Y14714420D02*
X28777115Y14714420D01*
X34064446Y14714420D02*
X33992954Y14714420D01*
X48355781Y14714420D02*
X47505781Y14714420D01*
X49164287Y14714420D02*
X49097115Y14714420D01*
X59420901Y14714420D02*
X52913928Y14714420D01*
X26754050Y14429420D02*
X22685820Y14429420D01*
X28035781Y14429420D02*
X27185781Y14429420D01*
X29118492Y14429420D02*
X28467511Y14429420D01*
X31658492Y14429420D02*
X31183069Y14429420D01*
X34374050Y14429420D02*
X33723069Y14429420D01*
X48355781Y14429420D02*
X47505781Y14429420D01*
X49335145Y14429420D02*
X48787511Y14429420D01*
X59420901Y14429420D02*
X53084786Y14429420D01*
X29615571Y14144420D02*
X22685820Y14144420D01*
X32155571Y14144420D02*
X30685990Y14144420D01*
X34818492Y14144420D02*
X33225990Y14144420D01*
X49506002Y14144420D02*
X47144819Y14144420D01*
X59420901Y14144420D02*
X53255643Y14144420D01*
X34627581Y13859420D02*
X22685820Y13859420D01*
X49676860Y13859420D02*
X47170969Y13859420D01*
X59420901Y13859420D02*
X53426501Y13859420D01*
X34436669Y13574420D02*
X22685820Y13574420D01*
X49847718Y13574420D02*
X47197119Y13574420D01*
X59420901Y13574420D02*
X53597358Y13574420D01*
X34245758Y13289420D02*
X22685820Y13289420D01*
X50018575Y13289420D02*
X47223269Y13289420D01*
X59420901Y13289420D02*
X53768216Y13289420D01*
X34054846Y13004420D02*
X22685820Y13004420D01*
X50189433Y13004420D02*
X47249418Y13004420D01*
X59420901Y13004420D02*
X53939074Y13004420D01*
X33863935Y12719420D02*
X22685820Y12719420D01*
X44046058Y12719420D02*
X44002658Y12719420D01*
X50360290Y12719420D02*
X47275568Y12719420D01*
X59420901Y12719420D02*
X54109931Y12719420D01*
X33673023Y12434420D02*
X22685820Y12434420D01*
X44072208Y12434420D02*
X43956454Y12434420D01*
X50531148Y12434420D02*
X47301718Y12434420D01*
X59420901Y12434420D02*
X54280789Y12434420D01*
X33482112Y12149420D02*
X22685820Y12149420D01*
X40652264Y12149420D02*
X40590983Y12149420D01*
X44098358Y12149420D02*
X43910250Y12149420D01*
X50702005Y12149420D02*
X47327868Y12149420D01*
X59420901Y12149420D02*
X54451647Y12149420D01*
X33291200Y11864420D02*
X22685820Y11864420D01*
X40606060Y11864420D02*
X40472425Y11864420D01*
X44124508Y11864420D02*
X43864046Y11864420D01*
X50872863Y11864420D02*
X47354018Y11864420D01*
X59420901Y11864420D02*
X54622504Y11864420D01*
X33100289Y11579420D02*
X22685820Y11579420D01*
X40559856Y11579420D02*
X40353868Y11579420D01*
X44150658Y11579420D02*
X43817842Y11579420D01*
X51043720Y11579420D02*
X47380168Y11579420D01*
X59420901Y11579420D02*
X54793362Y11579420D01*
X32909377Y11294420D02*
X22685820Y11294420D01*
X40513652Y11294420D02*
X40235310Y11294420D01*
X44176808Y11294420D02*
X43771638Y11294420D01*
X51214578Y11294420D02*
X47406318Y11294420D01*
X59420901Y11294420D02*
X54964220Y11294420D01*
X32718466Y11009420D02*
X22685820Y11009420D01*
X36633587Y11009420D02*
X36589330Y11009420D01*
X40467448Y11009420D02*
X40116752Y11009420D01*
X44202958Y11009420D02*
X43725434Y11009420D01*
X51385436Y11009420D02*
X47432468Y11009420D01*
X59420901Y11009420D02*
X55135077Y11009420D01*
X32527554Y10724420D02*
X22685820Y10724420D01*
X36515030Y10724420D02*
X36398418Y10724420D01*
X40421244Y10724420D02*
X39998194Y10724420D01*
X44229108Y10724420D02*
X43679230Y10724420D01*
X51556293Y10724420D02*
X47458618Y10724420D01*
X59420901Y10724420D02*
X55305935Y10724420D01*
X32336643Y10439420D02*
X22685820Y10439420D01*
X36396472Y10439420D02*
X36207507Y10439420D01*
X40375040Y10439420D02*
X39879637Y10439420D01*
X44255258Y10439420D02*
X43633027Y10439420D01*
X51727151Y10439420D02*
X47484768Y10439420D01*
X59420901Y10439420D02*
X55476792Y10439420D01*
X32145731Y10154420D02*
X22685820Y10154420D01*
X36277914Y10154420D02*
X36016595Y10154420D01*
X40328836Y10154420D02*
X39761079Y10154420D01*
X44281408Y10154420D02*
X43586823Y10154420D01*
X51898008Y10154420D02*
X47510918Y10154420D01*
X59420901Y10154420D02*
X55647650Y10154420D01*
X31954820Y9869420D02*
X22685820Y9869420D01*
X36159356Y9869420D02*
X35825683Y9869420D01*
X40282632Y9869420D02*
X39642521Y9869420D01*
X44307558Y9869420D02*
X43540619Y9869420D01*
X52068866Y9869420D02*
X47537068Y9869420D01*
X59420901Y9869420D02*
X55818508Y9869420D01*
X31763908Y9584420D02*
X22685820Y9584420D01*
X36040799Y9584420D02*
X35634772Y9584420D01*
X40236428Y9584420D02*
X39523963Y9584420D01*
X44333708Y9584420D02*
X43494415Y9584420D01*
X52239723Y9584420D02*
X47563218Y9584420D01*
X59420901Y9584420D02*
X55989365Y9584420D01*
X31572997Y9299420D02*
X22685820Y9299420D01*
X35922241Y9299420D02*
X35443860Y9299420D01*
X40190225Y9299420D02*
X39405406Y9299420D01*
X44359858Y9299420D02*
X43448211Y9299420D01*
X52410581Y9299420D02*
X47589368Y9299420D01*
X59420901Y9299420D02*
X56160223Y9299420D01*
X31382085Y9014420D02*
X22685820Y9014420D01*
X35803683Y9014420D02*
X35252949Y9014420D01*
X40144021Y9014420D02*
X39286848Y9014420D01*
X44386008Y9014420D02*
X43402007Y9014420D01*
X52581439Y9014420D02*
X47615517Y9014420D01*
X59420901Y9014420D02*
X56331081Y9014420D01*
X31191174Y8729420D02*
X22685820Y8729420D01*
X35685126Y8729420D02*
X35062037Y8729420D01*
X40097817Y8729420D02*
X39168290Y8729420D01*
X44412158Y8729420D02*
X43355803Y8729420D01*
X52752296Y8729420D02*
X47641667Y8729420D01*
X59420901Y8729420D02*
X56501938Y8729420D01*
X31000262Y8444420D02*
X22685820Y8444420D01*
X35566568Y8444420D02*
X34871126Y8444420D01*
X40051613Y8444420D02*
X39049732Y8444420D01*
X44438308Y8444420D02*
X43309599Y8444420D01*
X52923154Y8444420D02*
X47667817Y8444420D01*
X59420901Y8444420D02*
X56672796Y8444420D01*
X30809350Y8159420D02*
X22685820Y8159420D01*
X35448010Y8159420D02*
X34680214Y8159420D01*
X40005409Y8159420D02*
X38931175Y8159420D01*
X44464458Y8159420D02*
X43263395Y8159420D01*
X53094011Y8159420D02*
X47693967Y8159420D01*
X59420901Y8159420D02*
X56843653Y8159420D01*
X25560363Y7874420D02*
X22685820Y7874420D01*
X29321182Y7874420D02*
X26417400Y7874420D01*
X35329452Y7874420D02*
X34489303Y7874420D01*
X39959205Y7874420D02*
X38812617Y7874420D01*
X44490608Y7874420D02*
X43217191Y7874420D01*
X53264869Y7874420D02*
X47720117Y7874420D01*
X59420901Y7874420D02*
X57014511Y7874420D01*
X24816031Y7589420D02*
X22685820Y7589420D01*
X28942732Y7589420D02*
X27161732Y7589420D01*
X34975931Y7589420D02*
X34298391Y7589420D01*
X39913001Y7589420D02*
X38694059Y7589420D01*
X44516758Y7589420D02*
X43170988Y7589420D01*
X50474957Y7589420D02*
X47746267Y7589420D01*
X53435726Y7589420D02*
X52302606Y7589420D01*
X59420901Y7589420D02*
X57641632Y7589420D01*
X24442586Y7304420D02*
X22685820Y7304420D01*
X28821592Y7304420D02*
X27535176Y7304420D01*
X34602486Y7304420D02*
X34107480Y7304420D01*
X39682486Y7304420D02*
X38575501Y7304420D01*
X44542908Y7304420D02*
X43124784Y7304420D01*
X50378178Y7304420D02*
X47855076Y7304420D01*
X53606584Y7304420D02*
X52399384Y7304420D01*
X59420901Y7304420D02*
X58015076Y7304420D01*
X24183267Y7019420D02*
X22714496Y7019420D01*
X28807114Y7019420D02*
X27794496Y7019420D01*
X34343167Y7019420D02*
X33916568Y7019420D01*
X39423167Y7019420D02*
X38456944Y7019420D01*
X44503167Y7019420D02*
X43078580Y7019420D01*
X50663178Y7019420D02*
X48114396Y7019420D01*
X53777441Y7019420D02*
X52114384Y7019420D01*
X59420901Y7019420D02*
X58274396Y7019420D01*
X23992836Y6734420D02*
X22904927Y6734420D01*
X28807114Y6734420D02*
X27984927Y6734420D01*
X34152736Y6734420D02*
X33725656Y6734420D01*
X39232736Y6734420D02*
X38338386Y6734420D01*
X44312736Y6734420D02*
X43224827Y6734420D01*
X50948178Y6734420D02*
X48304827Y6734420D01*
X53948299Y6734420D02*
X51829384Y6734420D01*
X59420901Y6734420D02*
X58464827Y6734420D01*
X23872897Y6449420D02*
X23024866Y6449420D01*
X28807114Y6449420D02*
X28104866Y6449420D01*
X34032797Y6449420D02*
X33534745Y6449420D01*
X39112797Y6449420D02*
X38264766Y6449420D01*
X44192797Y6449420D02*
X43344766Y6449420D01*
X49377969Y6449420D02*
X48424766Y6449420D01*
X51233178Y6449420D02*
X49960386Y6449420D01*
X52817176Y6449420D02*
X51544384Y6449420D01*
X54119157Y6449420D02*
X53407001Y6449420D01*
X59420901Y6449420D02*
X58584766Y6449420D01*
X23787493Y6164420D02*
X23110270Y6164420D01*
X28807114Y6164420D02*
X28190270Y6164420D01*
X33947393Y6164420D02*
X33343833Y6164420D01*
X39027393Y6164420D02*
X38350170Y6164420D01*
X44107393Y6164420D02*
X43430170Y6164420D01*
X49283174Y6164420D02*
X48510170Y6164420D01*
X52532176Y6164420D02*
X50245386Y6164420D01*
X54267394Y6164420D02*
X53487441Y6164420D01*
X59420901Y6164420D02*
X58670170Y6164420D01*
X23730881Y5879420D02*
X23166881Y5879420D01*
X28807114Y5879420D02*
X28246881Y5879420D01*
X33890781Y5879420D02*
X33330448Y5879420D01*
X38970781Y5879420D02*
X38406781Y5879420D01*
X44050781Y5879420D02*
X43486781Y5879420D01*
X49241718Y5879420D02*
X48566781Y5879420D01*
X52247176Y5879420D02*
X50530386Y5879420D01*
X54210781Y5879420D02*
X53536404Y5879420D01*
X59420901Y5879420D02*
X58726781Y5879420D01*
X23730881Y5594420D02*
X23166881Y5594420D01*
X28807114Y5594420D02*
X28246881Y5594420D01*
X33890781Y5594420D02*
X33330448Y5594420D01*
X38970781Y5594420D02*
X38406781Y5594420D01*
X44050781Y5594420D02*
X43486781Y5594420D01*
X49229755Y5594420D02*
X48566781Y5594420D01*
X52088178Y5594420D02*
X50689384Y5594420D01*
X54210781Y5594420D02*
X53555783Y5594420D01*
X59420901Y5594420D02*
X58726781Y5594420D01*
X23755865Y5309420D02*
X23141896Y5309420D01*
X28807114Y5309420D02*
X28221896Y5309420D01*
X33915765Y5309420D02*
X33330448Y5309420D01*
X38995765Y5309420D02*
X38381796Y5309420D01*
X44075765Y5309420D02*
X43461796Y5309420D01*
X49250195Y5309420D02*
X48541796Y5309420D01*
X52373178Y5309420D02*
X50404384Y5309420D01*
X54235765Y5309420D02*
X53520043Y5309420D01*
X59420901Y5309420D02*
X58701796Y5309420D01*
X23812556Y5024420D02*
X23085205Y5024420D01*
X28807114Y5024420D02*
X28165205Y5024420D01*
X33972456Y5024420D02*
X33330448Y5024420D01*
X39052456Y5024420D02*
X38325105Y5024420D01*
X44132456Y5024420D02*
X43405105Y5024420D01*
X49324715Y5024420D02*
X48485105Y5024420D01*
X52658178Y5024420D02*
X50119384Y5024420D01*
X54292456Y5024420D02*
X53452478Y5024420D01*
X59420901Y5024420D02*
X58645105Y5024420D01*
X23925088Y4739420D02*
X22972673Y4739420D01*
X28807114Y4739420D02*
X28052673Y4739420D01*
X34084988Y4739420D02*
X33330448Y4739420D01*
X39164988Y4739420D02*
X38212573Y4739420D01*
X44244988Y4739420D02*
X43292573Y4739420D01*
X49463322Y4739420D02*
X48372573Y4739420D01*
X51107176Y4739420D02*
X49834384Y4739420D01*
X52943178Y4739420D02*
X51670386Y4739420D01*
X54404988Y4739420D02*
X53314239Y4739420D01*
X59420901Y4739420D02*
X58532573Y4739420D01*
X24077027Y4454420D02*
X22820734Y4454420D01*
X28807114Y4454420D02*
X27900734Y4454420D01*
X34236927Y4454420D02*
X33330448Y4454420D01*
X39316927Y4454420D02*
X38060634Y4454420D01*
X44396927Y4454420D02*
X43140634Y4454420D01*
X50822176Y4454420D02*
X48220634Y4454420D01*
X54556927Y4454420D02*
X51955386Y4454420D01*
X59420901Y4454420D02*
X58380634Y4454420D01*
X24283588Y4169420D02*
X22718849Y4169420D01*
X28807114Y4169420D02*
X27694174Y4169420D01*
X34443488Y4169420D02*
X33330448Y4169420D01*
X39523488Y4169420D02*
X37854074Y4169420D01*
X44603488Y4169420D02*
X42934074Y4169420D01*
X50537176Y4169420D02*
X48014074Y4169420D01*
X54763488Y4169420D02*
X52240386Y4169420D01*
X59420901Y4169420D02*
X58174074Y4169420D01*
X24578072Y3884420D02*
X22772810Y3884420D01*
X28859487Y3884420D02*
X27399689Y3884420D01*
X34737972Y3884420D02*
X33278074Y3884420D01*
X39817972Y3884420D02*
X37559589Y3884420D01*
X44897972Y3884420D02*
X42639589Y3884420D01*
X50373418Y3884420D02*
X47719589Y3884420D01*
X55057972Y3884420D02*
X52404143Y3884420D01*
X59420901Y3884420D02*
X57879589Y3884420D01*
X25056898Y3599420D02*
X22860808Y3599420D01*
X29053865Y3599420D02*
X26920863Y3599420D01*
X35216798Y3599420D02*
X33083696Y3599420D01*
X40296798Y3599420D02*
X37080763Y3599420D01*
X45376798Y3599420D02*
X42160763Y3599420D01*
X50738653Y3599420D02*
X47240763Y3599420D01*
X55536798Y3599420D02*
X52043872Y3599420D01*
X59420901Y3599420D02*
X57400763Y3599420D01*
X59420901Y3314420D02*
X22984580Y3314420D01*
X59420901Y3029420D02*
X23147377Y3029420D01*
X59420901Y2744420D02*
X23357801Y2744420D01*
X59415926Y2459420D02*
X23629865Y2459420D01*
X59176394Y2174420D02*
X24013871Y2174420D01*
X58858865Y1889420D02*
X24604494Y1889420D01*
X58400109Y1604420D02*
X34653530Y1604420D01*
X59420901Y54329420D02*
X59420901Y54329420D01*
X59135901Y2129677D02*
X59135901Y54329420D01*
X58850901Y1883868D02*
X58850901Y54329420D01*
X58565901Y6494962D02*
X58565901Y54329420D01*
X58565901Y1694076D02*
X58565901Y4819879D01*
X58280901Y7009683D02*
X58280901Y54329420D01*
X58280901Y1548058D02*
X58280901Y4305158D01*
X57995901Y7323595D02*
X57995901Y54329420D01*
X57995901Y1439000D02*
X57995901Y3991247D01*
X57710901Y7543136D02*
X57710901Y54329420D01*
X57710901Y1435420D02*
X57710901Y3771705D01*
X57425901Y7705009D02*
X57425901Y54329420D01*
X57425901Y1435420D02*
X57425901Y3609832D01*
X57140901Y7823060D02*
X57140901Y54329420D01*
X57140901Y1435420D02*
X57140901Y3491781D01*
X56855901Y8138989D02*
X56855901Y54329420D01*
X56855901Y1435420D02*
X56855901Y3432187D01*
X56570901Y8614385D02*
X56570901Y54329420D01*
X56570901Y1435420D02*
X56570901Y3399421D01*
X56285901Y9089781D02*
X56285901Y54329420D01*
X56285901Y1435420D02*
X56285901Y3399421D01*
X56000901Y9565177D02*
X56000901Y54329420D01*
X56000901Y1435420D02*
X56000901Y3448252D01*
X55715901Y10040572D02*
X55715901Y54329420D01*
X55715901Y1435420D02*
X55715901Y3525234D01*
X55430901Y10515968D02*
X55430901Y54329420D01*
X55430901Y1435420D02*
X55430901Y3643285D01*
X55145901Y10991364D02*
X55145901Y54329420D01*
X55145901Y1435420D02*
X55145901Y3825668D01*
X54860901Y11466760D02*
X54860901Y54329420D01*
X54860901Y1435420D02*
X54860901Y4072007D01*
X54575901Y11942155D02*
X54575901Y54329420D01*
X54575901Y1435420D02*
X54575901Y4426025D01*
X54290901Y12417551D02*
X54290901Y54329420D01*
X54290901Y1435420D02*
X54290901Y5032239D01*
X54005901Y12892947D02*
X54005901Y54329420D01*
X54005901Y1435420D02*
X54005901Y6638338D01*
X53720901Y13368343D02*
X53720901Y54329420D01*
X53720901Y1435420D02*
X53720901Y7113734D01*
X53435901Y13843739D02*
X53435901Y54329420D01*
X53435901Y6352144D02*
X53435901Y7589130D01*
X53435901Y1435420D02*
X53435901Y4974579D01*
X53150901Y14319134D02*
X53150901Y54329420D01*
X53150901Y6679732D02*
X53150901Y8064526D01*
X53150901Y1435420D02*
X53150901Y4635109D01*
X52865901Y14794530D02*
X52865901Y54329420D01*
X52865901Y6498145D02*
X52865901Y8539922D01*
X52865901Y1435420D02*
X52865901Y4816697D01*
X52580901Y15269926D02*
X52580901Y54329420D01*
X52580901Y6213145D02*
X52580901Y9015318D01*
X52580901Y1435420D02*
X52580901Y5101697D01*
X52295901Y15745322D02*
X52295901Y54329420D01*
X52295901Y7599917D02*
X52295901Y9490714D01*
X52295901Y5928145D02*
X52295901Y7200937D01*
X52295901Y4113905D02*
X52295901Y5386697D01*
X52295901Y1435420D02*
X52295901Y3714924D01*
X52010901Y51684313D02*
X52010901Y54329420D01*
X52010901Y16220718D02*
X52010901Y50759728D01*
X52010901Y7724737D02*
X52010901Y9966110D01*
X52010901Y5657421D02*
X52010901Y6915937D01*
X52010901Y4398905D02*
X52010901Y5657421D01*
X52010901Y1435420D02*
X52010901Y3590367D01*
X51725901Y52227357D02*
X51725901Y54329420D01*
X51725901Y16669424D02*
X51725901Y50216684D01*
X51725901Y7790048D02*
X51725901Y10441506D01*
X51725901Y5657421D02*
X51725901Y6630937D01*
X51725901Y4683905D02*
X51725901Y5657421D01*
X51725901Y1435420D02*
X51725901Y3518054D01*
X51440901Y52506042D02*
X51440901Y54329420D01*
X51440901Y16953319D02*
X51440901Y49937999D01*
X51440901Y7824704D02*
X51440901Y10916902D01*
X51440901Y5657421D02*
X51440901Y6345937D01*
X51440901Y4968905D02*
X51440901Y5657421D01*
X51440901Y1435420D02*
X51440901Y3497614D01*
X51155901Y52679108D02*
X51155901Y54329420D01*
X51155901Y17125127D02*
X51155901Y49764933D01*
X51155901Y7804264D02*
X51155901Y11392298D01*
X51155901Y5657421D02*
X51155901Y6526697D01*
X51155901Y4788145D02*
X51155901Y5657421D01*
X51155901Y1435420D02*
X51155901Y3511722D01*
X50870901Y52781000D02*
X50870901Y54329420D01*
X50870901Y17227072D02*
X50870901Y49663041D01*
X50870901Y7753094D02*
X50870901Y11867694D01*
X50870901Y5657421D02*
X50870901Y6811697D01*
X50870901Y4503145D02*
X50870901Y5657421D01*
X50870901Y1435420D02*
X50870901Y3555433D01*
X50585901Y52826462D02*
X50585901Y54329420D01*
X50585901Y17270926D02*
X50585901Y49617579D01*
X50585901Y7671134D02*
X50585901Y12343090D01*
X50585901Y5823905D02*
X50585901Y7096697D01*
X50585901Y4218145D02*
X50585901Y5490937D01*
X50585901Y1435420D02*
X50585901Y3650228D01*
X50300901Y52821070D02*
X50300901Y54329420D01*
X50300901Y17264006D02*
X50300901Y49622973D01*
X50300901Y7356431D02*
X50300901Y12818486D01*
X50300901Y6108905D02*
X50300901Y7356431D01*
X50300901Y3958411D02*
X50300901Y5205937D01*
X50300901Y1435420D02*
X50300901Y3958411D01*
X50015901Y52764390D02*
X50015901Y54329420D01*
X50015901Y17206151D02*
X50015901Y49679653D01*
X50015901Y7356431D02*
X50015901Y13293882D01*
X50015901Y6393905D02*
X50015901Y7356431D01*
X50015901Y3958411D02*
X50015901Y4920937D01*
X50015901Y1435420D02*
X50015901Y3958411D01*
X49730901Y52649839D02*
X49730901Y54329420D01*
X49730901Y17091260D02*
X49730901Y49794204D01*
X49730901Y7356431D02*
X49730901Y13769278D01*
X49730901Y6678905D02*
X49730901Y7356431D01*
X49730901Y3958411D02*
X49730901Y4635937D01*
X49730901Y1435420D02*
X49730901Y3958411D01*
X49445901Y52461102D02*
X49445901Y54329420D01*
X49445901Y16904281D02*
X49445901Y49982941D01*
X49445901Y7356431D02*
X49445901Y14244674D01*
X49445901Y6564297D02*
X49445901Y7356431D01*
X49445901Y3958411D02*
X49445901Y4750546D01*
X49445901Y1435420D02*
X49445901Y3958411D01*
X49160901Y52160632D02*
X49160901Y54329420D01*
X49160901Y16604819D02*
X49160901Y50283411D01*
X49160901Y7356431D02*
X49160901Y14720070D01*
X49160901Y5715047D02*
X49160901Y7356431D01*
X49160901Y3958411D02*
X49160901Y5715047D01*
X49160901Y1435420D02*
X49160901Y3958411D01*
X48875901Y52389603D02*
X48875901Y54329420D01*
X48875901Y16830003D02*
X48875901Y50054438D01*
X48875901Y7356431D02*
X48875901Y14494838D01*
X48875901Y5715047D02*
X48875901Y7356431D01*
X48875901Y3958411D02*
X48875901Y5715047D01*
X48875901Y1435420D02*
X48875901Y3958411D01*
X48590901Y52577107D02*
X48590901Y54329420D01*
X48590901Y17017507D02*
X48590901Y49866934D01*
X48590901Y7356431D02*
X48590901Y14307334D01*
X48590901Y5715047D02*
X48590901Y7356431D01*
X48590901Y3958411D02*
X48590901Y5715047D01*
X48590901Y1435420D02*
X48590901Y3958411D01*
X48305901Y52496528D02*
X48305901Y54329420D01*
X48305901Y16936928D02*
X48305901Y52496528D01*
X48305901Y7356431D02*
X48305901Y16936928D01*
X48305901Y6732811D02*
X48305901Y7356431D01*
X48305901Y3958411D02*
X48305901Y4582030D01*
X48305901Y1435420D02*
X48305901Y3958411D01*
X48020901Y52496528D02*
X48020901Y54329420D01*
X48020901Y16936928D02*
X48020901Y52496528D01*
X48020901Y7356431D02*
X48020901Y16936928D01*
X48020901Y7138595D02*
X48020901Y7356431D01*
X48020901Y3958411D02*
X48020901Y4176247D01*
X48020901Y1435420D02*
X48020901Y3958411D01*
X47735901Y52496528D02*
X47735901Y54329420D01*
X47735901Y16936928D02*
X47735901Y52496528D01*
X47735901Y7702391D02*
X47735901Y16936928D01*
X47735901Y1435420D02*
X47735901Y3895318D01*
X47450901Y52518386D02*
X47450901Y54329420D01*
X47450901Y16958786D02*
X47450901Y49925655D01*
X47450901Y10808518D02*
X47450901Y14366055D01*
X47450901Y1435420D02*
X47450901Y3704888D01*
X47165901Y52521127D02*
X47165901Y54329420D01*
X47165901Y16961527D02*
X47165901Y49922916D01*
X47165901Y13914645D02*
X47165901Y14363316D01*
X47165901Y1435420D02*
X47165901Y3568410D01*
X46880901Y52298254D02*
X46880901Y54329420D01*
X46880901Y16738654D02*
X46880901Y50145789D01*
X46880901Y1439185D02*
X46880901Y3468986D01*
X46595901Y52288282D02*
X46595901Y54329420D01*
X46595901Y16730490D02*
X46595901Y50155759D01*
X46595901Y1443036D02*
X46595901Y3412295D01*
X46310901Y52547076D02*
X46310901Y54329420D01*
X46310901Y16987475D02*
X46310901Y49896965D01*
X46310901Y1446887D02*
X46310901Y3399421D01*
X46025901Y52705833D02*
X46025901Y54329420D01*
X46025901Y17146233D02*
X46025901Y49738208D01*
X46025901Y1450739D02*
X46025901Y3411453D01*
X45740901Y52796168D02*
X45740901Y54329420D01*
X45740901Y17236568D02*
X45740901Y49647873D01*
X45740901Y1454590D02*
X45740901Y3468143D01*
X45455901Y52830021D02*
X45455901Y54329420D01*
X45455901Y17270421D02*
X45455901Y49614021D01*
X45455901Y1458441D02*
X45455901Y3566655D01*
X45170901Y52816145D02*
X45170901Y54329420D01*
X45170901Y17257573D02*
X45170901Y49627898D01*
X45170901Y1462293D02*
X45170901Y3702056D01*
X44885901Y52749223D02*
X44885901Y54329420D01*
X44885901Y17192956D02*
X44885901Y49694820D01*
X44885901Y1466144D02*
X44885901Y3892486D01*
X44600901Y52623113D02*
X44600901Y54329420D01*
X44600901Y17067612D02*
X44600901Y49820930D01*
X44600901Y1469995D02*
X44600901Y4172007D01*
X44315901Y52420069D02*
X44315901Y54329420D01*
X44315901Y16860821D02*
X44315901Y50023974D01*
X44315901Y6739157D02*
X44315901Y9778497D01*
X44315901Y1473847D02*
X44315901Y4575686D01*
X44030901Y52318745D02*
X44030901Y54329420D01*
X44030901Y16759145D02*
X44030901Y50125296D01*
X44030901Y1477698D02*
X44030901Y12884620D01*
X43745901Y52566860D02*
X43745901Y54329420D01*
X43745901Y17007260D02*
X43745901Y49877181D01*
X43745901Y1481550D02*
X43745901Y11135662D01*
X43460901Y52717298D02*
X43460901Y54329420D01*
X43460901Y17157697D02*
X43460901Y49726743D01*
X43460901Y6009921D02*
X43460901Y9377693D01*
X43460901Y1485401D02*
X43460901Y5304920D01*
X43175901Y52803751D02*
X43175901Y54329420D01*
X43175901Y17244151D02*
X43175901Y49640290D01*
X43175901Y6807641D02*
X43175901Y7619724D01*
X43175901Y1489252D02*
X43175901Y4507200D01*
X42890901Y52830021D02*
X42890901Y54329420D01*
X42890901Y17271057D02*
X42890901Y49614021D01*
X42890901Y1493104D02*
X42890901Y4126247D01*
X42605901Y52813683D02*
X42605901Y54329420D01*
X42605901Y17254083D02*
X42605901Y49630360D01*
X42605901Y1496955D02*
X42605901Y3861909D01*
X42320901Y52741639D02*
X42320901Y54329420D01*
X42320901Y17182039D02*
X42320901Y49702404D01*
X42320901Y1500806D02*
X42320901Y3671479D01*
X42035901Y52609750D02*
X42035901Y54329420D01*
X42035901Y17050150D02*
X42035901Y49834293D01*
X42035901Y1504658D02*
X42035901Y3547699D01*
X41750901Y52399552D02*
X41750901Y54329420D01*
X41750901Y16839952D02*
X41750901Y50044491D01*
X41750901Y1508509D02*
X41750901Y3459040D01*
X41465901Y52349207D02*
X41465901Y54329420D01*
X41465901Y16789941D02*
X41465901Y50094834D01*
X41465901Y1512360D02*
X41465901Y3402350D01*
X41180901Y52580223D02*
X41180901Y54329420D01*
X41180901Y17020623D02*
X41180901Y49863818D01*
X41180901Y1516212D02*
X41180901Y3399421D01*
X40895901Y52724881D02*
X40895901Y54329420D01*
X40895901Y17165281D02*
X40895901Y49719160D01*
X40895901Y1520063D02*
X40895901Y3421399D01*
X40610901Y52808241D02*
X40610901Y54329420D01*
X40610901Y17248641D02*
X40610901Y49635800D01*
X40610901Y11894287D02*
X40610901Y12197299D01*
X40610901Y1523914D02*
X40610901Y3478089D01*
X40325901Y52830021D02*
X40325901Y54329420D01*
X40325901Y17276931D02*
X40325901Y49614021D01*
X40325901Y10136318D02*
X40325901Y11512190D01*
X40325901Y1527766D02*
X40325901Y3587366D01*
X40040901Y52811220D02*
X40040901Y54329420D01*
X40040901Y17251794D02*
X40040901Y49632823D01*
X40040901Y8378350D02*
X40040901Y10827080D01*
X40040901Y1531617D02*
X40040901Y3735465D01*
X39755901Y52734055D02*
X39755901Y54329420D01*
X39755901Y17174603D02*
X39755901Y49709988D01*
X39755901Y7377835D02*
X39755901Y10141971D01*
X39755901Y1535468D02*
X39755901Y3937007D01*
X39470901Y52596388D02*
X39470901Y54329420D01*
X39470901Y17036950D02*
X39470901Y49847655D01*
X39470901Y7090860D02*
X39470901Y9456862D01*
X39470901Y1539320D02*
X39470901Y4223983D01*
X39185901Y52379035D02*
X39185901Y54329420D01*
X39185901Y16819703D02*
X39185901Y50065008D01*
X39185901Y6625910D02*
X39185901Y8771753D01*
X39185901Y1543171D02*
X39185901Y4688933D01*
X38900901Y52374733D02*
X38900901Y54329420D01*
X38900901Y16815133D02*
X38900901Y50069308D01*
X38900901Y1547023D02*
X38900901Y8086644D01*
X38615901Y52593586D02*
X38615901Y54329420D01*
X38615901Y17033986D02*
X38615901Y49850455D01*
X38615901Y1550874D02*
X38615901Y7401535D01*
X38330901Y52732465D02*
X38330901Y54329420D01*
X38330901Y17172865D02*
X38330901Y49711576D01*
X38330901Y6261287D02*
X38330901Y6716426D01*
X38330901Y1554725D02*
X38330901Y5053554D01*
X38045901Y52810703D02*
X38045901Y54329420D01*
X38045901Y17251103D02*
X38045901Y49633338D01*
X38045901Y1558577D02*
X38045901Y4432369D01*
X37760901Y52830021D02*
X37760901Y54329420D01*
X37760901Y17277055D02*
X37760901Y49614021D01*
X37760901Y1562428D02*
X37760901Y4076247D01*
X37475901Y52808758D02*
X37475901Y54329420D01*
X37475901Y17249320D02*
X37475901Y49635285D01*
X37475901Y1566279D02*
X37475901Y3828501D01*
X37190901Y52726472D02*
X37190901Y54329420D01*
X37190901Y17167016D02*
X37190901Y49717571D01*
X37190901Y1570131D02*
X37190901Y3645040D01*
X36905901Y52583025D02*
X36905901Y54329420D01*
X36905901Y17023586D02*
X36905901Y49861018D01*
X36905901Y1573982D02*
X36905901Y3526989D01*
X36620901Y52355593D02*
X36620901Y54329420D01*
X36620901Y16795993D02*
X36620901Y50088450D01*
X36620901Y10978925D02*
X36620901Y11056550D01*
X36620901Y1577833D02*
X36620901Y3449094D01*
X36335901Y52237427D02*
X36335901Y54329420D01*
X36335901Y16677827D02*
X36335901Y50206614D01*
X36335901Y10293816D02*
X36335901Y10631091D01*
X36335901Y1581685D02*
X36335901Y3399421D01*
X36050901Y52482117D02*
X36050901Y54329420D01*
X36050901Y16922517D02*
X36050901Y49961924D01*
X36050901Y9608707D02*
X36050901Y10205632D01*
X36050901Y1585536D02*
X36050901Y3399421D01*
X35765901Y52540389D02*
X35765901Y54329420D01*
X35765901Y16980789D02*
X35765901Y49903654D01*
X35765901Y8923597D02*
X35765901Y9780173D01*
X35765901Y1589387D02*
X35765901Y3431344D01*
X35480901Y52496528D02*
X35480901Y54329420D01*
X35480901Y15192421D02*
X35480901Y52496528D01*
X35480901Y8238488D02*
X35480901Y9354714D01*
X35480901Y1593239D02*
X35480901Y3490025D01*
X35195901Y52496528D02*
X35195901Y54329420D01*
X35195901Y15192421D02*
X35195901Y52496528D01*
X35195901Y7706767D02*
X35195901Y8929256D01*
X35195901Y1597090D02*
X35195901Y3608076D01*
X34910901Y52496528D02*
X34910901Y54329420D01*
X34910901Y15192421D02*
X34910901Y52496528D01*
X34910901Y7545970D02*
X34910901Y8503797D01*
X34910901Y1600942D02*
X34910901Y3768873D01*
X34625901Y52568173D02*
X34625901Y54329420D01*
X34625901Y17008573D02*
X34625901Y49875868D01*
X34625901Y13856914D02*
X34625901Y14316268D01*
X34625901Y7327835D02*
X34625901Y8078338D01*
X34625901Y1604793D02*
X34625901Y3987007D01*
X34340901Y52430488D02*
X34340901Y54329420D01*
X34340901Y16870888D02*
X34340901Y50013555D01*
X34340901Y13431455D02*
X34340901Y14453955D01*
X34340901Y7016030D02*
X34340901Y7652879D01*
X34340901Y1608644D02*
X34340901Y4298813D01*
X34055901Y52160612D02*
X34055901Y54329420D01*
X34055901Y16601012D02*
X34055901Y50283431D01*
X34055901Y13005996D02*
X34055901Y14723831D01*
X34055901Y6505199D02*
X34055901Y7227420D01*
X34055901Y1612496D02*
X34055901Y4809644D01*
X33770901Y52415767D02*
X33770901Y54329420D01*
X33770901Y16856167D02*
X33770901Y50028274D01*
X33770901Y12580537D02*
X33770901Y14468674D01*
X33770901Y1616347D02*
X33770901Y6801961D01*
X33485901Y52620311D02*
X33485901Y54329420D01*
X33485901Y17060711D02*
X33485901Y49823730D01*
X33485901Y12155078D02*
X33485901Y14264130D01*
X33485901Y1620198D02*
X33485901Y6376503D01*
X33200901Y52747632D02*
X33200901Y54329420D01*
X33200901Y17188032D02*
X33200901Y49696409D01*
X33200901Y11729619D02*
X33200901Y14136809D01*
X33200901Y1624050D02*
X33200901Y3732819D01*
X32915901Y52815628D02*
X32915901Y54329420D01*
X32915901Y17256028D02*
X32915901Y49628413D01*
X32915901Y11304160D02*
X32915901Y14068813D01*
X32915901Y1627901D02*
X32915901Y3483473D01*
X32630901Y52830021D02*
X32630901Y54329420D01*
X32630901Y17270421D02*
X32630901Y49614021D01*
X32630901Y10878701D02*
X32630901Y14054421D01*
X32630901Y1631752D02*
X32630901Y3401872D01*
X32345901Y52797758D02*
X32345901Y54329420D01*
X32345901Y17238158D02*
X32345901Y49646285D01*
X32345901Y10453243D02*
X32345901Y14086685D01*
X32345901Y1635604D02*
X32345901Y3395754D01*
X32060901Y52708635D02*
X32060901Y54329420D01*
X32060901Y17149035D02*
X32060901Y49735408D01*
X32060901Y10027784D02*
X32060901Y14175808D01*
X32060901Y1639455D02*
X32060901Y3395754D01*
X31775901Y52551377D02*
X31775901Y54329420D01*
X31775901Y16991777D02*
X31775901Y49892666D01*
X31775901Y9602325D02*
X31775901Y14333066D01*
X31775901Y1643306D02*
X31775901Y3395754D01*
X31490901Y52294668D02*
X31490901Y54329420D01*
X31490901Y16735068D02*
X31490901Y50149375D01*
X31490901Y9176866D02*
X31490901Y14589775D01*
X31490901Y1647158D02*
X31490901Y3395754D01*
X31205901Y52292483D02*
X31205901Y54329420D01*
X31205901Y16876684D02*
X31205901Y50151558D01*
X31205901Y8751407D02*
X31205901Y14448157D01*
X31205901Y1651009D02*
X31205901Y3395754D01*
X30920901Y52518326D02*
X30920901Y54329420D01*
X30920901Y17074074D02*
X30920901Y49925715D01*
X30920901Y8325948D02*
X30920901Y14250767D01*
X30920901Y1654860D02*
X30920901Y3395754D01*
X30635901Y52520474D02*
X30635901Y54329420D01*
X30635901Y17195616D02*
X30635901Y49923569D01*
X30635901Y7919088D02*
X30635901Y14129225D01*
X30635901Y1658712D02*
X30635901Y3395754D01*
X30350901Y52496528D02*
X30350901Y54329420D01*
X30350901Y17258490D02*
X30350901Y52496528D01*
X30350901Y7919088D02*
X30350901Y14066351D01*
X30350901Y1662563D02*
X30350901Y3395754D01*
X30065901Y52496528D02*
X30065901Y54329420D01*
X30065901Y17269841D02*
X30065901Y52496528D01*
X30065901Y7919088D02*
X30065901Y14055002D01*
X30065901Y1666415D02*
X30065901Y3395754D01*
X29780901Y52496528D02*
X29780901Y54329420D01*
X29780901Y17230575D02*
X29780901Y52496528D01*
X29780901Y7919088D02*
X29780901Y14094268D01*
X29780901Y1670266D02*
X29780901Y3395754D01*
X29495901Y52579908D02*
X29495901Y54329420D01*
X29495901Y17135672D02*
X29495901Y49864135D01*
X29495901Y7911911D02*
X29495901Y14189171D01*
X29495901Y1674117D02*
X29495901Y3402932D01*
X29210901Y52393482D02*
X29210901Y54329420D01*
X29210901Y16971260D02*
X29210901Y50050561D01*
X29210901Y7825617D02*
X29210901Y14353583D01*
X29210901Y1677969D02*
X29210901Y3489226D01*
X28925901Y52154246D02*
X28925901Y54329420D01*
X28925901Y16704605D02*
X28925901Y50289795D01*
X28925901Y7562664D02*
X28925901Y14620238D01*
X28925901Y1681820D02*
X28925901Y3752179D01*
X28640901Y52456801D02*
X28640901Y54329420D01*
X28640901Y16760412D02*
X28640901Y49987240D01*
X28640901Y1685671D02*
X28640901Y14564429D01*
X28355901Y52647037D02*
X28355901Y54329420D01*
X28355901Y16972085D02*
X28355901Y49797004D01*
X28355901Y1689523D02*
X28355901Y14352756D01*
X28070901Y52762800D02*
X28070901Y54329420D01*
X28070901Y16950917D02*
X28070901Y49681241D01*
X28070901Y15237421D02*
X28070901Y16087421D01*
X28070901Y6531417D02*
X28070901Y14373926D01*
X28070901Y1693374D02*
X28070901Y4783424D01*
X27785901Y52820553D02*
X27785901Y54329420D01*
X27785901Y16936928D02*
X27785901Y49623488D01*
X27785901Y7032282D02*
X27785901Y16936928D01*
X27785901Y1697225D02*
X27785901Y4282559D01*
X27500901Y52826979D02*
X27500901Y54329420D01*
X27500901Y16936928D02*
X27500901Y49617064D01*
X27500901Y7338695D02*
X27500901Y16936928D01*
X27500901Y1701077D02*
X27500901Y3976147D01*
X27215901Y52782591D02*
X27215901Y54329420D01*
X27215901Y16936928D02*
X27215901Y49661452D01*
X27215901Y7553225D02*
X27215901Y16936928D01*
X27215901Y1704928D02*
X27215901Y3761616D01*
X26930901Y52681909D02*
X26930901Y54329420D01*
X26930901Y17006949D02*
X26930901Y49762134D01*
X26930901Y15237421D02*
X26930901Y16087421D01*
X26930901Y7711264D02*
X26930901Y14317894D01*
X26930901Y1708779D02*
X26930901Y3603577D01*
X26645901Y52510343D02*
X26645901Y54329420D01*
X26645901Y16815379D02*
X26645901Y49933700D01*
X26645901Y15237421D02*
X26645901Y16087421D01*
X26645901Y7828968D02*
X26645901Y14509464D01*
X26645901Y1712631D02*
X26645901Y3485873D01*
X26360901Y52233743D02*
X26360901Y54329420D01*
X26360901Y16496157D02*
X26360901Y50210300D01*
X26360901Y15237421D02*
X26360901Y16087421D01*
X26360901Y7885658D02*
X26360901Y14828686D01*
X26360901Y1716482D02*
X26360901Y3429183D01*
X26075901Y51701588D02*
X26075901Y54329420D01*
X26075901Y16308532D02*
X26075901Y50742455D01*
X26075901Y15016310D02*
X26075901Y16308532D01*
X26075901Y7915421D02*
X26075901Y15016310D01*
X26075901Y1720333D02*
X26075901Y3399421D01*
X25790901Y51222021D02*
X25790901Y54329420D01*
X25790901Y16308532D02*
X25790901Y51222021D01*
X25790901Y15016310D02*
X25790901Y16308532D01*
X25790901Y7915421D02*
X25790901Y15016310D01*
X25790901Y1724185D02*
X25790901Y3399421D01*
X25505901Y51222021D02*
X25505901Y54329420D01*
X25505901Y16308532D02*
X25505901Y51222021D01*
X25505901Y15016310D02*
X25505901Y16308532D01*
X25505901Y7863587D02*
X25505901Y15016310D01*
X25505901Y1728036D02*
X25505901Y3451256D01*
X25220901Y51222021D02*
X25220901Y54329420D01*
X25220901Y16308532D02*
X25220901Y51222021D01*
X25220901Y15016310D02*
X25220901Y16308532D01*
X25220901Y7783355D02*
X25220901Y15016310D01*
X25220901Y1748750D02*
X25220901Y3531488D01*
X24935901Y51222021D02*
X24935901Y54329420D01*
X24935901Y16308532D02*
X24935901Y51222021D01*
X24935901Y15016310D02*
X24935901Y16308532D01*
X24935901Y7665304D02*
X24935901Y15016310D01*
X24935901Y1796713D02*
X24935901Y3649539D01*
X24650901Y51222021D02*
X24650901Y54329420D01*
X24650901Y16308532D02*
X24650901Y51222021D01*
X24650901Y15016310D02*
X24650901Y16308532D01*
X24650901Y7479085D02*
X24650901Y15016310D01*
X24650901Y1874401D02*
X24650901Y3835758D01*
X24365901Y51222021D02*
X24365901Y54329420D01*
X24365901Y16308532D02*
X24365901Y51222021D01*
X24365901Y15016310D02*
X24365901Y16308532D01*
X24365901Y7227735D02*
X24365901Y15016310D01*
X24365901Y1984863D02*
X24365901Y4087107D01*
X24080901Y51222021D02*
X24080901Y54329420D01*
X24080901Y16308532D02*
X24080901Y51222021D01*
X24080901Y15016310D02*
X24080901Y16308532D01*
X24080901Y6866220D02*
X24080901Y15016310D01*
X24080901Y2133085D02*
X24080901Y4448623D01*
X23795901Y51222021D02*
X23795901Y54329420D01*
X23795901Y16308532D02*
X23795901Y51222021D01*
X23795901Y15016310D02*
X23795901Y16308532D01*
X23795901Y6206691D02*
X23795901Y15016310D01*
X23795901Y2327071D02*
X23795901Y5108152D01*
X23510901Y51222021D02*
X23510901Y54250317D01*
X23510901Y16308532D02*
X23510901Y51222021D01*
X23510901Y15016310D02*
X23510901Y16308532D01*
X23510901Y5879815D02*
X23510901Y15016310D01*
X23510901Y2580002D02*
X23510901Y5879815D01*
X23225901Y51222021D02*
X23225901Y53915546D01*
X23225901Y16308532D02*
X23225901Y51222021D01*
X23225901Y15016310D02*
X23225901Y16308532D01*
X23225901Y5879815D02*
X23225901Y15016310D01*
X23225901Y2914773D02*
X23225901Y5879815D01*
X22940901Y51222021D02*
X22940901Y53417898D01*
X22940901Y16308532D02*
X22940901Y51222021D01*
X22940901Y15016310D02*
X22940901Y16308532D01*
X22940901Y6652127D02*
X22940901Y15016310D01*
X22940901Y3412421D02*
X22940901Y4662714D01*
D16*
X59420900Y2466352D02*
X59345523Y2361304D01*
X59129245Y2122322D01*
X58887357Y1909287D01*
X58622965Y1724934D01*
X58339443Y1571614D01*
X58040433Y1451295D01*
X57982938Y1435420D01*
X47159520Y1435420D01*
X25501809Y1728092D01*
X25157062Y1753445D01*
X24822250Y1818948D01*
X24497646Y1923999D01*
X24187942Y2067079D01*
X23897542Y2246154D01*
X23630625Y2458649D01*
X23391020Y2701515D01*
X23182161Y2971266D01*
X23007023Y3264064D01*
X22868139Y3575677D01*
X22767485Y3901664D01*
X22706512Y4237337D01*
X22703973Y4279674D01*
X22909894Y4587857D01*
X23080107Y4998787D01*
X23166881Y5435027D01*
X23166881Y5879815D01*
X23730881Y5879815D01*
X23730881Y5435027D01*
X23817655Y4998787D01*
X23987868Y4587857D01*
X24234978Y4218030D01*
X24549490Y3903518D01*
X24919317Y3656408D01*
X25330247Y3486195D01*
X25766487Y3399421D01*
X26211275Y3399421D01*
X26647515Y3486195D01*
X27058445Y3656408D01*
X27428272Y3903518D01*
X27742784Y4218030D01*
X27989894Y4587857D01*
X28160107Y4998787D01*
X28246881Y5435027D01*
X28246881Y5879815D01*
X28160107Y6316055D01*
X27989894Y6726985D01*
X27742784Y7096812D01*
X27428272Y7411324D01*
X27058445Y7658434D01*
X26647515Y7828647D01*
X26211275Y7915421D01*
X25766487Y7915421D01*
X25330247Y7828647D01*
X24919317Y7658434D01*
X24549490Y7411324D01*
X24234978Y7096812D01*
X23987868Y6726985D01*
X23817655Y6316055D01*
X23730881Y5879815D01*
X23166881Y5879815D01*
X23080107Y6316055D01*
X22909894Y6726985D01*
X22685820Y7062336D01*
X22685820Y15016310D01*
X26248190Y15016310D01*
X26400422Y14762897D01*
X26599167Y14544052D01*
X26836788Y14368185D01*
X26964673Y14299847D01*
X27185781Y14387914D01*
X27185781Y15237421D01*
X26328392Y15237421D01*
X26248190Y15016310D01*
X22685820Y15016310D01*
X22685820Y16308532D01*
X26248190Y16308532D01*
X26328392Y16087421D01*
X27185781Y16087421D01*
X27185781Y16936928D01*
X28035781Y16936928D01*
X28035781Y16087421D01*
X28080781Y16087421D01*
X28080781Y15237421D01*
X28035781Y15237421D01*
X28035781Y14387914D01*
X28256889Y14299847D01*
X28384774Y14368185D01*
X28622395Y14544052D01*
X28814670Y14755773D01*
X29008252Y14519892D01*
X29253102Y14318949D01*
X29532449Y14169635D01*
X29835558Y14077688D01*
X30071790Y14054421D01*
X30229772Y14054421D01*
X30466004Y14077688D01*
X30769113Y14169635D01*
X31048460Y14318949D01*
X31293310Y14519892D01*
X31420781Y14675216D01*
X31548252Y14519892D01*
X31793102Y14318949D01*
X32072449Y14169635D01*
X32375558Y14077688D01*
X32611790Y14054421D01*
X32769772Y14054421D01*
X33006004Y14077688D01*
X33309113Y14169635D01*
X33588460Y14318949D01*
X33833310Y14519892D01*
X34026892Y14755773D01*
X34219167Y14544052D01*
X34456788Y14368185D01*
X34584673Y14299847D01*
X34780779Y14377956D01*
X34780779Y14154421D01*
X34825191Y14154421D01*
X30648360Y7919088D01*
X29568781Y7919088D01*
X29420187Y7904453D01*
X29277304Y7861110D01*
X29145621Y7790724D01*
X29030201Y7696001D01*
X28935478Y7580581D01*
X28865092Y7448898D01*
X28821749Y7306015D01*
X28807114Y7157421D01*
X28807114Y4157421D01*
X28821749Y4008827D01*
X28865092Y3865944D01*
X28935478Y3734261D01*
X29030201Y3618841D01*
X29145621Y3524118D01*
X29277304Y3453732D01*
X29420187Y3410389D01*
X29568781Y3395754D01*
X32568781Y3395754D01*
X32717375Y3410389D01*
X32860258Y3453732D01*
X32991941Y3524118D01*
X33107361Y3618841D01*
X33202084Y3734261D01*
X33272470Y3865944D01*
X33315813Y4008827D01*
X33330448Y4157421D01*
X33330448Y6144437D01*
X36706105Y11183746D01*
X35272993Y7738699D01*
X35079217Y7658434D01*
X34709390Y7411324D01*
X34394878Y7096812D01*
X34147768Y6726985D01*
X33977555Y6316055D01*
X33890781Y5879815D01*
X33890781Y5435027D01*
X33977555Y4998787D01*
X34147768Y4587857D01*
X34394878Y4218030D01*
X34709390Y3903518D01*
X35079217Y3656408D01*
X35490147Y3486195D01*
X35926387Y3399421D01*
X36371175Y3399421D01*
X36807415Y3486195D01*
X37218345Y3656408D01*
X37588172Y3903518D01*
X37902684Y4218030D01*
X38149794Y4587857D01*
X38320007Y4998787D01*
X38406781Y5435027D01*
X38406781Y5879815D01*
X38320007Y6316055D01*
X38242345Y6503547D01*
X40691395Y12390798D01*
X39895637Y7482316D01*
X39789390Y7411324D01*
X39474878Y7096812D01*
X39227768Y6726985D01*
X39057555Y6316055D01*
X38970781Y5879815D01*
X38970781Y5435027D01*
X39057555Y4998787D01*
X39227768Y4587857D01*
X39474878Y4218030D01*
X39789390Y3903518D01*
X40159217Y3656408D01*
X40570147Y3486195D01*
X41006387Y3399421D01*
X41451175Y3399421D01*
X41887415Y3486195D01*
X42298345Y3656408D01*
X42668172Y3903518D01*
X42982684Y4218030D01*
X43229794Y4587857D01*
X43400007Y4998787D01*
X43486781Y5435027D01*
X43486781Y5879815D01*
X43400007Y6316055D01*
X43229794Y6726985D01*
X43069953Y6966204D01*
X44030373Y12890374D01*
X44561362Y7103296D01*
X44554878Y7096812D01*
X44307768Y6726985D01*
X44137555Y6316055D01*
X44050781Y5879815D01*
X44050781Y5435027D01*
X44137555Y4998787D01*
X44307768Y4587857D01*
X44554878Y4218030D01*
X44869390Y3903518D01*
X45239217Y3656408D01*
X45650147Y3486195D01*
X46086387Y3399421D01*
X46531175Y3399421D01*
X46967415Y3486195D01*
X47378345Y3656408D01*
X47748172Y3903518D01*
X47803065Y3958411D01*
X50326167Y3958411D01*
X50506007Y3676801D01*
X50909369Y3542638D01*
X51331155Y3489744D01*
X51755155Y3520153D01*
X52165075Y3632696D01*
X52271555Y3676801D01*
X52451395Y3958411D01*
X51388781Y5021025D01*
X50326167Y3958411D01*
X47803065Y3958411D01*
X48062684Y4218030D01*
X48309794Y4587857D01*
X48480007Y4998787D01*
X48566781Y5435027D01*
X48566781Y5715047D01*
X49221104Y5715047D01*
X49251513Y5291047D01*
X49364056Y4881127D01*
X49408161Y4774647D01*
X49689771Y4594807D01*
X50752385Y5657421D01*
X52025177Y5657421D01*
X53087791Y4594807D01*
X53369401Y4774647D01*
X53503564Y5178009D01*
X53556458Y5599795D01*
X53526049Y6023795D01*
X53413506Y6433715D01*
X53369401Y6540195D01*
X53087791Y6720035D01*
X52025177Y5657421D01*
X50752385Y5657421D01*
X49689771Y6720035D01*
X49408161Y6540195D01*
X49273998Y6136833D01*
X49221104Y5715047D01*
X48566781Y5715047D01*
X48566781Y5879815D01*
X48480007Y6316055D01*
X48309794Y6726985D01*
X48062684Y7096812D01*
X47803065Y7356431D01*
X50326167Y7356431D01*
X51388781Y6293817D01*
X52451395Y7356431D01*
X52271555Y7638041D01*
X51868193Y7772204D01*
X51446407Y7825098D01*
X51022407Y7794689D01*
X50612487Y7682146D01*
X50506007Y7638041D01*
X50326167Y7356431D01*
X47803065Y7356431D01*
X47764066Y7395430D01*
X47121919Y14393992D01*
X47156788Y14368185D01*
X47284673Y14299847D01*
X47505781Y14387914D01*
X47505781Y15237421D01*
X47460781Y15237421D01*
X47460781Y16087421D01*
X47505781Y16087421D01*
X47505781Y16936928D01*
X48355781Y16936928D01*
X48355781Y16087421D01*
X48400781Y16087421D01*
X48400781Y15237421D01*
X48355781Y15237421D01*
X48355781Y14387914D01*
X48576889Y14299847D01*
X48704774Y14368185D01*
X48942395Y14544052D01*
X49134670Y14755773D01*
X49152579Y14733951D01*
X54273029Y6192753D01*
X54210781Y5879815D01*
X54210781Y5435027D01*
X54297555Y4998787D01*
X54467768Y4587857D01*
X54714878Y4218030D01*
X55029390Y3903518D01*
X55399217Y3656408D01*
X55810147Y3486195D01*
X56246387Y3399421D01*
X56691175Y3399421D01*
X57127415Y3486195D01*
X57538345Y3656408D01*
X57908172Y3903518D01*
X58222684Y4218030D01*
X58469794Y4587857D01*
X58640007Y4998787D01*
X58726781Y5435027D01*
X58726781Y5879815D01*
X58640007Y6316055D01*
X58469794Y6726985D01*
X58222684Y7096812D01*
X57908172Y7411324D01*
X57538345Y7658434D01*
X57127415Y7828647D01*
X57030380Y7847949D01*
X51870272Y16455295D01*
X51814253Y16560100D01*
X51738764Y16652084D01*
X51667896Y16747620D01*
X51638493Y16774265D01*
X51613310Y16804950D01*
X51521327Y16880438D01*
X51433182Y16960314D01*
X51399143Y16980712D01*
X51368460Y17005893D01*
X51263524Y17061983D01*
X51161483Y17123131D01*
X51124117Y17136497D01*
X51089113Y17155207D01*
X50975253Y17189746D01*
X50863241Y17229813D01*
X50823986Y17235632D01*
X50786004Y17247154D01*
X50667588Y17258817D01*
X50549916Y17276261D01*
X50431262Y17270421D01*
X50391790Y17270421D01*
X50352362Y17266538D01*
X50233552Y17260690D01*
X50195060Y17251045D01*
X50155558Y17247154D01*
X50041693Y17212613D01*
X49926304Y17183699D01*
X49890433Y17166729D01*
X49852449Y17155207D01*
X49747513Y17099118D01*
X49639979Y17048246D01*
X49608107Y17024604D01*
X49573102Y17005893D01*
X49481121Y16930406D01*
X49385582Y16859536D01*
X49358937Y16830133D01*
X49328252Y16804950D01*
X49252764Y16712967D01*
X49172888Y16624822D01*
X49152490Y16590783D01*
X49134670Y16569069D01*
X48942395Y16780790D01*
X48704774Y16956657D01*
X48576889Y17024995D01*
X48355781Y16936928D01*
X47505781Y16936928D01*
X47284673Y17024995D01*
X47156788Y16956657D01*
X46919167Y16780790D01*
X46726892Y16569069D01*
X46687308Y16617303D01*
X46646612Y16679098D01*
X46587083Y16739427D01*
X46533310Y16804950D01*
X46476107Y16851895D01*
X46424137Y16904564D01*
X46353982Y16952120D01*
X46288460Y17005893D01*
X46223197Y17040777D01*
X46161951Y17082294D01*
X46083870Y17115249D01*
X46009113Y17155207D01*
X45938296Y17176689D01*
X45870130Y17205459D01*
X45787120Y17222548D01*
X45706004Y17247154D01*
X45632360Y17254407D01*
X45559887Y17269327D01*
X45475134Y17269893D01*
X45469772Y17270421D01*
X45396051Y17270421D01*
X45243147Y17271442D01*
X45159909Y17255462D01*
X45075558Y17247154D01*
X45004747Y17225674D01*
X44932080Y17211723D01*
X44853563Y17179813D01*
X44772449Y17155207D01*
X44707184Y17120322D01*
X44638640Y17092465D01*
X44567859Y17045851D01*
X44493102Y17005893D01*
X44435899Y16958948D01*
X44374104Y16918252D01*
X44313775Y16858723D01*
X44248252Y16804950D01*
X44201307Y16747747D01*
X44148638Y16695777D01*
X44120312Y16653991D01*
X44075615Y16704661D01*
X43993310Y16804950D01*
X43970986Y16823271D01*
X43951886Y16844923D01*
X43848745Y16923591D01*
X43748460Y17005893D01*
X43722994Y17019505D01*
X43700034Y17037017D01*
X43583526Y17094052D01*
X43469113Y17155207D01*
X43441477Y17163590D01*
X43415545Y17176285D01*
X43290153Y17209494D01*
X43166004Y17247154D01*
X43137266Y17249984D01*
X43109353Y17257377D01*
X42979889Y17265485D01*
X42929772Y17270421D01*
X42901070Y17270421D01*
X42793224Y17277175D01*
X42664671Y17259871D01*
X42535558Y17247154D01*
X42507923Y17238771D01*
X42479307Y17234919D01*
X42356591Y17192865D01*
X42232449Y17155207D01*
X42206984Y17141596D01*
X42179666Y17132234D01*
X42067501Y17067040D01*
X41953102Y17005893D01*
X41930782Y16987576D01*
X41905815Y16973064D01*
X41808526Y16887243D01*
X41708252Y16804950D01*
X41689934Y16782629D01*
X41668278Y16763526D01*
X41589603Y16660375D01*
X41580781Y16649626D01*
X41554319Y16681870D01*
X41455041Y16803215D01*
X41454094Y16803994D01*
X41453310Y16804950D01*
X41331455Y16904954D01*
X41210497Y17004529D01*
X41209414Y17005110D01*
X41208460Y17005893D01*
X41069640Y17080094D01*
X40931377Y17154267D01*
X40930200Y17154626D01*
X40929113Y17155207D01*
X40778600Y17200865D01*
X40628407Y17246674D01*
X40627183Y17246796D01*
X40626004Y17247154D01*
X40469542Y17262564D01*
X40313232Y17278199D01*
X40233014Y17270421D01*
X40231790Y17270421D01*
X40154234Y17262782D01*
X39997962Y17247630D01*
X39996785Y17247275D01*
X39995558Y17247154D01*
X39845032Y17201493D01*
X39694714Y17156143D01*
X39693628Y17155565D01*
X39692449Y17155207D01*
X39553902Y17081152D01*
X39415140Y17007253D01*
X39414186Y17006472D01*
X39413102Y17005893D01*
X39291853Y16906387D01*
X39169986Y16806682D01*
X39169202Y16805730D01*
X39168252Y16804950D01*
X39068703Y16683649D01*
X39040738Y16649679D01*
X39013673Y16682657D01*
X38914639Y16803617D01*
X38913916Y16804212D01*
X38913310Y16804950D01*
X38790597Y16905658D01*
X38670024Y17004845D01*
X38669197Y17005289D01*
X38668460Y17005893D01*
X38528757Y17080566D01*
X38390851Y17154485D01*
X38389951Y17154759D01*
X38389113Y17155207D01*
X38237735Y17201127D01*
X38087849Y17246785D01*
X38086913Y17246878D01*
X38086004Y17247154D01*
X37928592Y17262658D01*
X37772663Y17278199D01*
X37692736Y17270421D01*
X37691790Y17270421D01*
X37613687Y17262728D01*
X37457404Y17247520D01*
X37456499Y17247247D01*
X37455558Y17247154D01*
X37304537Y17201342D01*
X37154187Y17155925D01*
X37153356Y17155482D01*
X37152449Y17155207D01*
X37013262Y17080810D01*
X36874667Y17006937D01*
X36873937Y17006339D01*
X36873102Y17005893D01*
X36751179Y16905833D01*
X36629583Y16806279D01*
X36628984Y16805550D01*
X36628252Y16804950D01*
X36528571Y16683488D01*
X36478780Y16622962D01*
X36478254Y16622177D01*
X36434670Y16569069D01*
X36242395Y16780790D01*
X36004774Y16956657D01*
X35876889Y17024995D01*
X35655781Y16936928D01*
X35655781Y16087421D01*
X35700781Y16087421D01*
X35700781Y15461535D01*
X35520511Y15192421D01*
X34805781Y15192421D01*
X34805781Y15237421D01*
X34760781Y15237421D01*
X34760781Y16087421D01*
X34805781Y16087421D01*
X34805781Y16936928D01*
X34584673Y17024995D01*
X34456788Y16956657D01*
X34219167Y16780790D01*
X34026892Y16569069D01*
X33833310Y16804950D01*
X33588460Y17005893D01*
X33309113Y17155207D01*
X33006004Y17247154D01*
X32769772Y17270421D01*
X32611790Y17270421D01*
X32375558Y17247154D01*
X32072449Y17155207D01*
X31793102Y17005893D01*
X31548252Y16804950D01*
X31420781Y16649626D01*
X31293310Y16804950D01*
X31048460Y17005893D01*
X30769113Y17155207D01*
X30466004Y17247154D01*
X30229772Y17270421D01*
X30071790Y17270421D01*
X29835558Y17247154D01*
X29532449Y17155207D01*
X29253102Y17005893D01*
X29008252Y16804950D01*
X28814670Y16569069D01*
X28622395Y16780790D01*
X28384774Y16956657D01*
X28256889Y17024995D01*
X28035781Y16936928D01*
X27185781Y16936928D01*
X26964673Y17024995D01*
X26836788Y16956657D01*
X26599167Y16780790D01*
X26400422Y16561945D01*
X26248190Y16308532D01*
X22685820Y16308532D01*
X22685820Y51222021D01*
X25995001Y51222021D01*
X26026048Y50906798D01*
X26117995Y50603689D01*
X26267309Y50324342D01*
X26468252Y50079492D01*
X26713102Y49878549D01*
X26992449Y49729235D01*
X27295558Y49637288D01*
X27531790Y49614021D01*
X27689772Y49614021D01*
X27926004Y49637288D01*
X28229113Y49729235D01*
X28508460Y49878549D01*
X28753310Y50079492D01*
X28946892Y50315373D01*
X29139167Y50103652D01*
X29376788Y49927785D01*
X29504673Y49859447D01*
X29725781Y49947514D01*
X29725781Y50797021D01*
X29680781Y50797021D01*
X29680781Y51647021D01*
X29725781Y51647021D01*
X29725781Y52496528D01*
X30575781Y52496528D01*
X30575781Y51647021D01*
X30620781Y51647021D01*
X30620781Y50797021D01*
X30575781Y50797021D01*
X30575781Y49947514D01*
X30796889Y49859447D01*
X30924774Y49927785D01*
X31162395Y50103652D01*
X31354670Y50315373D01*
X31548252Y50079492D01*
X31793102Y49878549D01*
X32072449Y49729235D01*
X32375558Y49637288D01*
X32611790Y49614021D01*
X32769772Y49614021D01*
X33006004Y49637288D01*
X33309113Y49729235D01*
X33588460Y49878549D01*
X33833310Y50079492D01*
X34026892Y50315373D01*
X34219167Y50103652D01*
X34456788Y49927785D01*
X34584673Y49859447D01*
X34805781Y49947514D01*
X34805781Y50797021D01*
X34760781Y50797021D01*
X34760781Y51647021D01*
X34805781Y51647021D01*
X34805781Y52496528D01*
X35655781Y52496528D01*
X35655781Y51647021D01*
X35700781Y51647021D01*
X35700781Y50797021D01*
X35655781Y50797021D01*
X35655781Y49947514D01*
X35876889Y49859447D01*
X36004774Y49927785D01*
X36242395Y50103652D01*
X36434670Y50315373D01*
X36628252Y50079492D01*
X36873102Y49878549D01*
X37152449Y49729235D01*
X37455558Y49637288D01*
X37691790Y49614021D01*
X37849772Y49614021D01*
X38086004Y49637288D01*
X38389113Y49729235D01*
X38668460Y49878549D01*
X38913310Y50079492D01*
X39040781Y50234816D01*
X39168252Y50079492D01*
X39413102Y49878549D01*
X39692449Y49729235D01*
X39995558Y49637288D01*
X40231790Y49614021D01*
X40389772Y49614021D01*
X40626004Y49637288D01*
X40929113Y49729235D01*
X41208460Y49878549D01*
X41453310Y50079492D01*
X41580781Y50234816D01*
X41708252Y50079492D01*
X41953102Y49878549D01*
X42232449Y49729235D01*
X42535558Y49637288D01*
X42771790Y49614021D01*
X42929772Y49614021D01*
X43166004Y49637288D01*
X43469113Y49729235D01*
X43748460Y49878549D01*
X43993310Y50079492D01*
X44120781Y50234816D01*
X44248252Y50079492D01*
X44493102Y49878549D01*
X44772449Y49729235D01*
X45075558Y49637288D01*
X45311790Y49614021D01*
X45469772Y49614021D01*
X45706004Y49637288D01*
X46009113Y49729235D01*
X46288460Y49878549D01*
X46533310Y50079492D01*
X46726892Y50315373D01*
X46919167Y50103652D01*
X47156788Y49927785D01*
X47284673Y49859447D01*
X47505781Y49947514D01*
X47505781Y50797021D01*
X47460781Y50797021D01*
X47460781Y51647021D01*
X47505781Y51647021D01*
X47505781Y52496528D01*
X48355781Y52496528D01*
X48355781Y51647021D01*
X48400781Y51647021D01*
X48400781Y50797021D01*
X48355781Y50797021D01*
X48355781Y49947514D01*
X48576889Y49859447D01*
X48704774Y49927785D01*
X48942395Y50103652D01*
X49134670Y50315373D01*
X49328252Y50079492D01*
X49573102Y49878549D01*
X49852449Y49729235D01*
X50155558Y49637288D01*
X50391790Y49614021D01*
X50549772Y49614021D01*
X50786004Y49637288D01*
X51089113Y49729235D01*
X51368460Y49878549D01*
X51613310Y50079492D01*
X51814253Y50324342D01*
X51963567Y50603689D01*
X52055514Y50906798D01*
X52086561Y51222021D01*
X52055514Y51537244D01*
X51963567Y51840353D01*
X51814253Y52119700D01*
X51613310Y52364550D01*
X51368460Y52565493D01*
X51089113Y52714807D01*
X50786004Y52806754D01*
X50549772Y52830021D01*
X50391790Y52830021D01*
X50155558Y52806754D01*
X49852449Y52714807D01*
X49573102Y52565493D01*
X49328252Y52364550D01*
X49134670Y52128669D01*
X48942395Y52340390D01*
X48704774Y52516257D01*
X48576889Y52584595D01*
X48355781Y52496528D01*
X47505781Y52496528D01*
X47284673Y52584595D01*
X47156788Y52516257D01*
X46919167Y52340390D01*
X46726892Y52128669D01*
X46533310Y52364550D01*
X46288460Y52565493D01*
X46009113Y52714807D01*
X45706004Y52806754D01*
X45469772Y52830021D01*
X45311790Y52830021D01*
X45075558Y52806754D01*
X44772449Y52714807D01*
X44493102Y52565493D01*
X44248252Y52364550D01*
X44120781Y52209226D01*
X43993310Y52364550D01*
X43748460Y52565493D01*
X43469113Y52714807D01*
X43166004Y52806754D01*
X42929772Y52830021D01*
X42771790Y52830021D01*
X42535558Y52806754D01*
X42232449Y52714807D01*
X41953102Y52565493D01*
X41708252Y52364550D01*
X41580781Y52209226D01*
X41453310Y52364550D01*
X41208460Y52565493D01*
X40929113Y52714807D01*
X40626004Y52806754D01*
X40389772Y52830021D01*
X40231790Y52830021D01*
X39995558Y52806754D01*
X39692449Y52714807D01*
X39413102Y52565493D01*
X39168252Y52364550D01*
X39040781Y52209226D01*
X38913310Y52364550D01*
X38668460Y52565493D01*
X38389113Y52714807D01*
X38086004Y52806754D01*
X37849772Y52830021D01*
X37691790Y52830021D01*
X37455558Y52806754D01*
X37152449Y52714807D01*
X36873102Y52565493D01*
X36628252Y52364550D01*
X36434670Y52128669D01*
X36242395Y52340390D01*
X36004774Y52516257D01*
X35876889Y52584595D01*
X35655781Y52496528D01*
X34805781Y52496528D01*
X34584673Y52584595D01*
X34456788Y52516257D01*
X34219167Y52340390D01*
X34026892Y52128669D01*
X33833310Y52364550D01*
X33588460Y52565493D01*
X33309113Y52714807D01*
X33006004Y52806754D01*
X32769772Y52830021D01*
X32611790Y52830021D01*
X32375558Y52806754D01*
X32072449Y52714807D01*
X31793102Y52565493D01*
X31548252Y52364550D01*
X31354670Y52128669D01*
X31162395Y52340390D01*
X30924774Y52516257D01*
X30796889Y52584595D01*
X30575781Y52496528D01*
X29725781Y52496528D01*
X29504673Y52584595D01*
X29376788Y52516257D01*
X29139167Y52340390D01*
X28946892Y52128669D01*
X28753310Y52364550D01*
X28508460Y52565493D01*
X28229113Y52714807D01*
X27926004Y52806754D01*
X27689772Y52830021D01*
X27531790Y52830021D01*
X27295558Y52806754D01*
X26992449Y52714807D01*
X26713102Y52565493D01*
X26468252Y52364550D01*
X26267309Y52119700D01*
X26117995Y51840353D01*
X26026048Y51537244D01*
X25995001Y51222021D01*
X22685820Y51222021D01*
X22685820Y52247934D01*
X22706512Y52592983D01*
X22767485Y52928656D01*
X22868139Y53254643D01*
X23007023Y53566256D01*
X23182161Y53859054D01*
X23391020Y54128805D01*
X23588941Y54329420D01*
X59420901Y54329420D01*
X59420900Y2466352D01*
G04 #@! TD*
M02*
