G04 #@! TF.GenerationSoftware,KiCad,Pcbnew,5.0.2-bee76a0~70~ubuntu18.04.1*
G04 #@! TF.CreationDate,2019-04-18T20:00:00+02:00*
G04 #@! TF.ProjectId,Cramps2_nano-soc,4372616d-7073-4325-9f6e-616e6f2d736f,rev?*
G04 #@! TF.SameCoordinates,Original*
G04 #@! TF.FileFunction,Soldermask,Top*
G04 #@! TF.FilePolarity,Negative*
%FSLAX46Y46*%
G04 Gerber Fmt 4.6, Leading zero omitted, Abs format (unit mm)*
G04 Created by KiCad (PCBNEW 5.0.2-bee76a0~70~ubuntu18.04.1) date 2019-04-18T20:00:00 CEST*
%MOMM*%
%LPD*%
G01*
G04 APERTURE LIST*
%ADD10C,0.100000*%
G04 APERTURE END LIST*
D10*
G36*
X94881000Y-143141000D02*
X93079000Y-143141000D01*
X93079000Y-141339000D01*
X94881000Y-141339000D01*
X94881000Y-143141000D01*
X94881000Y-143141000D01*
G37*
G36*
X91550442Y-141345518D02*
X91616627Y-141352037D01*
X91729853Y-141386384D01*
X91786467Y-141403557D01*
X91925087Y-141477652D01*
X91942991Y-141487222D01*
X91978729Y-141516552D01*
X92080186Y-141599814D01*
X92163448Y-141701271D01*
X92192778Y-141737009D01*
X92192779Y-141737011D01*
X92276443Y-141893533D01*
X92276443Y-141893534D01*
X92327963Y-142063373D01*
X92345359Y-142240000D01*
X92327963Y-142416627D01*
X92293616Y-142529853D01*
X92276443Y-142586467D01*
X92202348Y-142725087D01*
X92192778Y-142742991D01*
X92163448Y-142778729D01*
X92080186Y-142880186D01*
X91978729Y-142963448D01*
X91942991Y-142992778D01*
X91942989Y-142992779D01*
X91786467Y-143076443D01*
X91729853Y-143093616D01*
X91616627Y-143127963D01*
X91550443Y-143134481D01*
X91484260Y-143141000D01*
X91395740Y-143141000D01*
X91329557Y-143134481D01*
X91263373Y-143127963D01*
X91150147Y-143093616D01*
X91093533Y-143076443D01*
X90937011Y-142992779D01*
X90937009Y-142992778D01*
X90901271Y-142963448D01*
X90799814Y-142880186D01*
X90716552Y-142778729D01*
X90687222Y-142742991D01*
X90677652Y-142725087D01*
X90603557Y-142586467D01*
X90586384Y-142529853D01*
X90552037Y-142416627D01*
X90534641Y-142240000D01*
X90552037Y-142063373D01*
X90603557Y-141893534D01*
X90603557Y-141893533D01*
X90687221Y-141737011D01*
X90687222Y-141737009D01*
X90716552Y-141701271D01*
X90799814Y-141599814D01*
X90901271Y-141516552D01*
X90937009Y-141487222D01*
X90954913Y-141477652D01*
X91093533Y-141403557D01*
X91150147Y-141386384D01*
X91263373Y-141352037D01*
X91329558Y-141345518D01*
X91395740Y-141339000D01*
X91484260Y-141339000D01*
X91550442Y-141345518D01*
X91550442Y-141345518D01*
G37*
G36*
X91550442Y-138805518D02*
X91616627Y-138812037D01*
X91729853Y-138846384D01*
X91786467Y-138863557D01*
X91925087Y-138937652D01*
X91942991Y-138947222D01*
X91978729Y-138976552D01*
X92080186Y-139059814D01*
X92163448Y-139161271D01*
X92192778Y-139197009D01*
X92192779Y-139197011D01*
X92276443Y-139353533D01*
X92276443Y-139353534D01*
X92327963Y-139523373D01*
X92345359Y-139700000D01*
X92327963Y-139876627D01*
X92293616Y-139989853D01*
X92276443Y-140046467D01*
X92202348Y-140185087D01*
X92192778Y-140202991D01*
X92163448Y-140238729D01*
X92080186Y-140340186D01*
X91978729Y-140423448D01*
X91942991Y-140452778D01*
X91942989Y-140452779D01*
X91786467Y-140536443D01*
X91729853Y-140553616D01*
X91616627Y-140587963D01*
X91550442Y-140594482D01*
X91484260Y-140601000D01*
X91395740Y-140601000D01*
X91329558Y-140594482D01*
X91263373Y-140587963D01*
X91150147Y-140553616D01*
X91093533Y-140536443D01*
X90937011Y-140452779D01*
X90937009Y-140452778D01*
X90901271Y-140423448D01*
X90799814Y-140340186D01*
X90716552Y-140238729D01*
X90687222Y-140202991D01*
X90677652Y-140185087D01*
X90603557Y-140046467D01*
X90586384Y-139989853D01*
X90552037Y-139876627D01*
X90534641Y-139700000D01*
X90552037Y-139523373D01*
X90603557Y-139353534D01*
X90603557Y-139353533D01*
X90687221Y-139197011D01*
X90687222Y-139197009D01*
X90716552Y-139161271D01*
X90799814Y-139059814D01*
X90901271Y-138976552D01*
X90937009Y-138947222D01*
X90954913Y-138937652D01*
X91093533Y-138863557D01*
X91150147Y-138846384D01*
X91263373Y-138812037D01*
X91329558Y-138805518D01*
X91395740Y-138799000D01*
X91484260Y-138799000D01*
X91550442Y-138805518D01*
X91550442Y-138805518D01*
G37*
G36*
X94090442Y-138805518D02*
X94156627Y-138812037D01*
X94269853Y-138846384D01*
X94326467Y-138863557D01*
X94465087Y-138937652D01*
X94482991Y-138947222D01*
X94518729Y-138976552D01*
X94620186Y-139059814D01*
X94703448Y-139161271D01*
X94732778Y-139197009D01*
X94732779Y-139197011D01*
X94816443Y-139353533D01*
X94816443Y-139353534D01*
X94867963Y-139523373D01*
X94885359Y-139700000D01*
X94867963Y-139876627D01*
X94833616Y-139989853D01*
X94816443Y-140046467D01*
X94742348Y-140185087D01*
X94732778Y-140202991D01*
X94703448Y-140238729D01*
X94620186Y-140340186D01*
X94518729Y-140423448D01*
X94482991Y-140452778D01*
X94482989Y-140452779D01*
X94326467Y-140536443D01*
X94269853Y-140553616D01*
X94156627Y-140587963D01*
X94090442Y-140594482D01*
X94024260Y-140601000D01*
X93935740Y-140601000D01*
X93869558Y-140594482D01*
X93803373Y-140587963D01*
X93690147Y-140553616D01*
X93633533Y-140536443D01*
X93477011Y-140452779D01*
X93477009Y-140452778D01*
X93441271Y-140423448D01*
X93339814Y-140340186D01*
X93256552Y-140238729D01*
X93227222Y-140202991D01*
X93217652Y-140185087D01*
X93143557Y-140046467D01*
X93126384Y-139989853D01*
X93092037Y-139876627D01*
X93074641Y-139700000D01*
X93092037Y-139523373D01*
X93143557Y-139353534D01*
X93143557Y-139353533D01*
X93227221Y-139197011D01*
X93227222Y-139197009D01*
X93256552Y-139161271D01*
X93339814Y-139059814D01*
X93441271Y-138976552D01*
X93477009Y-138947222D01*
X93494913Y-138937652D01*
X93633533Y-138863557D01*
X93690147Y-138846384D01*
X93803373Y-138812037D01*
X93869558Y-138805518D01*
X93935740Y-138799000D01*
X94024260Y-138799000D01*
X94090442Y-138805518D01*
X94090442Y-138805518D01*
G37*
G36*
X94090443Y-136265519D02*
X94156627Y-136272037D01*
X94269853Y-136306384D01*
X94326467Y-136323557D01*
X94465087Y-136397652D01*
X94482991Y-136407222D01*
X94518729Y-136436552D01*
X94620186Y-136519814D01*
X94703448Y-136621271D01*
X94732778Y-136657009D01*
X94732779Y-136657011D01*
X94816443Y-136813533D01*
X94816443Y-136813534D01*
X94867963Y-136983373D01*
X94885359Y-137160000D01*
X94867963Y-137336627D01*
X94833616Y-137449853D01*
X94816443Y-137506467D01*
X94742348Y-137645087D01*
X94732778Y-137662991D01*
X94703448Y-137698729D01*
X94620186Y-137800186D01*
X94518729Y-137883448D01*
X94482991Y-137912778D01*
X94482989Y-137912779D01*
X94326467Y-137996443D01*
X94269853Y-138013616D01*
X94156627Y-138047963D01*
X94090442Y-138054482D01*
X94024260Y-138061000D01*
X93935740Y-138061000D01*
X93869558Y-138054482D01*
X93803373Y-138047963D01*
X93690147Y-138013616D01*
X93633533Y-137996443D01*
X93477011Y-137912779D01*
X93477009Y-137912778D01*
X93441271Y-137883448D01*
X93339814Y-137800186D01*
X93256552Y-137698729D01*
X93227222Y-137662991D01*
X93217652Y-137645087D01*
X93143557Y-137506467D01*
X93126384Y-137449853D01*
X93092037Y-137336627D01*
X93074641Y-137160000D01*
X93092037Y-136983373D01*
X93143557Y-136813534D01*
X93143557Y-136813533D01*
X93227221Y-136657011D01*
X93227222Y-136657009D01*
X93256552Y-136621271D01*
X93339814Y-136519814D01*
X93441271Y-136436552D01*
X93477009Y-136407222D01*
X93494913Y-136397652D01*
X93633533Y-136323557D01*
X93690147Y-136306384D01*
X93803373Y-136272037D01*
X93869557Y-136265519D01*
X93935740Y-136259000D01*
X94024260Y-136259000D01*
X94090443Y-136265519D01*
X94090443Y-136265519D01*
G37*
G36*
X91550443Y-136265519D02*
X91616627Y-136272037D01*
X91729853Y-136306384D01*
X91786467Y-136323557D01*
X91925087Y-136397652D01*
X91942991Y-136407222D01*
X91978729Y-136436552D01*
X92080186Y-136519814D01*
X92163448Y-136621271D01*
X92192778Y-136657009D01*
X92192779Y-136657011D01*
X92276443Y-136813533D01*
X92276443Y-136813534D01*
X92327963Y-136983373D01*
X92345359Y-137160000D01*
X92327963Y-137336627D01*
X92293616Y-137449853D01*
X92276443Y-137506467D01*
X92202348Y-137645087D01*
X92192778Y-137662991D01*
X92163448Y-137698729D01*
X92080186Y-137800186D01*
X91978729Y-137883448D01*
X91942991Y-137912778D01*
X91942989Y-137912779D01*
X91786467Y-137996443D01*
X91729853Y-138013616D01*
X91616627Y-138047963D01*
X91550442Y-138054482D01*
X91484260Y-138061000D01*
X91395740Y-138061000D01*
X91329558Y-138054482D01*
X91263373Y-138047963D01*
X91150147Y-138013616D01*
X91093533Y-137996443D01*
X90937011Y-137912779D01*
X90937009Y-137912778D01*
X90901271Y-137883448D01*
X90799814Y-137800186D01*
X90716552Y-137698729D01*
X90687222Y-137662991D01*
X90677652Y-137645087D01*
X90603557Y-137506467D01*
X90586384Y-137449853D01*
X90552037Y-137336627D01*
X90534641Y-137160000D01*
X90552037Y-136983373D01*
X90603557Y-136813534D01*
X90603557Y-136813533D01*
X90687221Y-136657011D01*
X90687222Y-136657009D01*
X90716552Y-136621271D01*
X90799814Y-136519814D01*
X90901271Y-136436552D01*
X90937009Y-136407222D01*
X90954913Y-136397652D01*
X91093533Y-136323557D01*
X91150147Y-136306384D01*
X91263373Y-136272037D01*
X91329557Y-136265519D01*
X91395740Y-136259000D01*
X91484260Y-136259000D01*
X91550443Y-136265519D01*
X91550443Y-136265519D01*
G37*
G36*
X94090443Y-133725519D02*
X94156627Y-133732037D01*
X94269853Y-133766384D01*
X94326467Y-133783557D01*
X94465087Y-133857652D01*
X94482991Y-133867222D01*
X94518729Y-133896552D01*
X94620186Y-133979814D01*
X94703448Y-134081271D01*
X94732778Y-134117009D01*
X94732779Y-134117011D01*
X94816443Y-134273533D01*
X94816443Y-134273534D01*
X94867963Y-134443373D01*
X94885359Y-134620000D01*
X94867963Y-134796627D01*
X94833616Y-134909853D01*
X94816443Y-134966467D01*
X94742348Y-135105087D01*
X94732778Y-135122991D01*
X94703448Y-135158729D01*
X94620186Y-135260186D01*
X94518729Y-135343448D01*
X94482991Y-135372778D01*
X94482989Y-135372779D01*
X94326467Y-135456443D01*
X94269853Y-135473616D01*
X94156627Y-135507963D01*
X94090443Y-135514481D01*
X94024260Y-135521000D01*
X93935740Y-135521000D01*
X93869557Y-135514481D01*
X93803373Y-135507963D01*
X93690147Y-135473616D01*
X93633533Y-135456443D01*
X93477011Y-135372779D01*
X93477009Y-135372778D01*
X93441271Y-135343448D01*
X93339814Y-135260186D01*
X93256552Y-135158729D01*
X93227222Y-135122991D01*
X93217652Y-135105087D01*
X93143557Y-134966467D01*
X93126384Y-134909853D01*
X93092037Y-134796627D01*
X93074641Y-134620000D01*
X93092037Y-134443373D01*
X93143557Y-134273534D01*
X93143557Y-134273533D01*
X93227221Y-134117011D01*
X93227222Y-134117009D01*
X93256552Y-134081271D01*
X93339814Y-133979814D01*
X93441271Y-133896552D01*
X93477009Y-133867222D01*
X93494913Y-133857652D01*
X93633533Y-133783557D01*
X93690147Y-133766384D01*
X93803373Y-133732037D01*
X93869557Y-133725519D01*
X93935740Y-133719000D01*
X94024260Y-133719000D01*
X94090443Y-133725519D01*
X94090443Y-133725519D01*
G37*
G36*
X91550443Y-133725519D02*
X91616627Y-133732037D01*
X91729853Y-133766384D01*
X91786467Y-133783557D01*
X91925087Y-133857652D01*
X91942991Y-133867222D01*
X91978729Y-133896552D01*
X92080186Y-133979814D01*
X92163448Y-134081271D01*
X92192778Y-134117009D01*
X92192779Y-134117011D01*
X92276443Y-134273533D01*
X92276443Y-134273534D01*
X92327963Y-134443373D01*
X92345359Y-134620000D01*
X92327963Y-134796627D01*
X92293616Y-134909853D01*
X92276443Y-134966467D01*
X92202348Y-135105087D01*
X92192778Y-135122991D01*
X92163448Y-135158729D01*
X92080186Y-135260186D01*
X91978729Y-135343448D01*
X91942991Y-135372778D01*
X91942989Y-135372779D01*
X91786467Y-135456443D01*
X91729853Y-135473616D01*
X91616627Y-135507963D01*
X91550443Y-135514481D01*
X91484260Y-135521000D01*
X91395740Y-135521000D01*
X91329557Y-135514481D01*
X91263373Y-135507963D01*
X91150147Y-135473616D01*
X91093533Y-135456443D01*
X90937011Y-135372779D01*
X90937009Y-135372778D01*
X90901271Y-135343448D01*
X90799814Y-135260186D01*
X90716552Y-135158729D01*
X90687222Y-135122991D01*
X90677652Y-135105087D01*
X90603557Y-134966467D01*
X90586384Y-134909853D01*
X90552037Y-134796627D01*
X90534641Y-134620000D01*
X90552037Y-134443373D01*
X90603557Y-134273534D01*
X90603557Y-134273533D01*
X90687221Y-134117011D01*
X90687222Y-134117009D01*
X90716552Y-134081271D01*
X90799814Y-133979814D01*
X90901271Y-133896552D01*
X90937009Y-133867222D01*
X90954913Y-133857652D01*
X91093533Y-133783557D01*
X91150147Y-133766384D01*
X91263373Y-133732037D01*
X91329557Y-133725519D01*
X91395740Y-133719000D01*
X91484260Y-133719000D01*
X91550443Y-133725519D01*
X91550443Y-133725519D01*
G37*
G36*
X94090442Y-131185518D02*
X94156627Y-131192037D01*
X94269853Y-131226384D01*
X94326467Y-131243557D01*
X94465087Y-131317652D01*
X94482991Y-131327222D01*
X94518729Y-131356552D01*
X94620186Y-131439814D01*
X94703448Y-131541271D01*
X94732778Y-131577009D01*
X94732779Y-131577011D01*
X94816443Y-131733533D01*
X94816443Y-131733534D01*
X94867963Y-131903373D01*
X94885359Y-132080000D01*
X94867963Y-132256627D01*
X94833616Y-132369853D01*
X94816443Y-132426467D01*
X94742348Y-132565087D01*
X94732778Y-132582991D01*
X94703448Y-132618729D01*
X94620186Y-132720186D01*
X94518729Y-132803448D01*
X94482991Y-132832778D01*
X94482989Y-132832779D01*
X94326467Y-132916443D01*
X94269853Y-132933616D01*
X94156627Y-132967963D01*
X94090443Y-132974481D01*
X94024260Y-132981000D01*
X93935740Y-132981000D01*
X93869557Y-132974481D01*
X93803373Y-132967963D01*
X93690147Y-132933616D01*
X93633533Y-132916443D01*
X93477011Y-132832779D01*
X93477009Y-132832778D01*
X93441271Y-132803448D01*
X93339814Y-132720186D01*
X93256552Y-132618729D01*
X93227222Y-132582991D01*
X93217652Y-132565087D01*
X93143557Y-132426467D01*
X93126384Y-132369853D01*
X93092037Y-132256627D01*
X93074641Y-132080000D01*
X93092037Y-131903373D01*
X93143557Y-131733534D01*
X93143557Y-131733533D01*
X93227221Y-131577011D01*
X93227222Y-131577009D01*
X93256552Y-131541271D01*
X93339814Y-131439814D01*
X93441271Y-131356552D01*
X93477009Y-131327222D01*
X93494913Y-131317652D01*
X93633533Y-131243557D01*
X93690147Y-131226384D01*
X93803373Y-131192037D01*
X93869558Y-131185518D01*
X93935740Y-131179000D01*
X94024260Y-131179000D01*
X94090442Y-131185518D01*
X94090442Y-131185518D01*
G37*
G36*
X91550442Y-131185518D02*
X91616627Y-131192037D01*
X91729853Y-131226384D01*
X91786467Y-131243557D01*
X91925087Y-131317652D01*
X91942991Y-131327222D01*
X91978729Y-131356552D01*
X92080186Y-131439814D01*
X92163448Y-131541271D01*
X92192778Y-131577009D01*
X92192779Y-131577011D01*
X92276443Y-131733533D01*
X92276443Y-131733534D01*
X92327963Y-131903373D01*
X92345359Y-132080000D01*
X92327963Y-132256627D01*
X92293616Y-132369853D01*
X92276443Y-132426467D01*
X92202348Y-132565087D01*
X92192778Y-132582991D01*
X92163448Y-132618729D01*
X92080186Y-132720186D01*
X91978729Y-132803448D01*
X91942991Y-132832778D01*
X91942989Y-132832779D01*
X91786467Y-132916443D01*
X91729853Y-132933616D01*
X91616627Y-132967963D01*
X91550443Y-132974481D01*
X91484260Y-132981000D01*
X91395740Y-132981000D01*
X91329557Y-132974481D01*
X91263373Y-132967963D01*
X91150147Y-132933616D01*
X91093533Y-132916443D01*
X90937011Y-132832779D01*
X90937009Y-132832778D01*
X90901271Y-132803448D01*
X90799814Y-132720186D01*
X90716552Y-132618729D01*
X90687222Y-132582991D01*
X90677652Y-132565087D01*
X90603557Y-132426467D01*
X90586384Y-132369853D01*
X90552037Y-132256627D01*
X90534641Y-132080000D01*
X90552037Y-131903373D01*
X90603557Y-131733534D01*
X90603557Y-131733533D01*
X90687221Y-131577011D01*
X90687222Y-131577009D01*
X90716552Y-131541271D01*
X90799814Y-131439814D01*
X90901271Y-131356552D01*
X90937009Y-131327222D01*
X90954913Y-131317652D01*
X91093533Y-131243557D01*
X91150147Y-131226384D01*
X91263373Y-131192037D01*
X91329558Y-131185518D01*
X91395740Y-131179000D01*
X91484260Y-131179000D01*
X91550442Y-131185518D01*
X91550442Y-131185518D01*
G37*
G36*
X89148228Y-123641703D02*
X89303100Y-123705853D01*
X89442481Y-123798985D01*
X89561015Y-123917519D01*
X89654147Y-124056900D01*
X89718297Y-124211772D01*
X89751000Y-124376184D01*
X89751000Y-124543816D01*
X89718297Y-124708228D01*
X89654147Y-124863100D01*
X89561015Y-125002481D01*
X89442481Y-125121015D01*
X89303100Y-125214147D01*
X89148228Y-125278297D01*
X88983816Y-125311000D01*
X88816184Y-125311000D01*
X88651772Y-125278297D01*
X88496900Y-125214147D01*
X88357519Y-125121015D01*
X88238985Y-125002481D01*
X88145853Y-124863100D01*
X88081703Y-124708228D01*
X88049000Y-124543816D01*
X88049000Y-124376184D01*
X88081703Y-124211772D01*
X88145853Y-124056900D01*
X88238985Y-123917519D01*
X88357519Y-123798985D01*
X88496900Y-123705853D01*
X88651772Y-123641703D01*
X88816184Y-123609000D01*
X88983816Y-123609000D01*
X89148228Y-123641703D01*
X89148228Y-123641703D01*
G37*
G36*
X96686821Y-123621313D02*
X96686824Y-123621314D01*
X96686825Y-123621314D01*
X96847239Y-123669975D01*
X96847241Y-123669976D01*
X96847244Y-123669977D01*
X96995078Y-123748995D01*
X97124659Y-123855341D01*
X97231005Y-123984922D01*
X97310023Y-124132756D01*
X97310024Y-124132759D01*
X97310025Y-124132761D01*
X97358686Y-124293175D01*
X97358687Y-124293179D01*
X97375117Y-124460000D01*
X97358687Y-124626821D01*
X97358686Y-124626824D01*
X97358686Y-124626825D01*
X97311807Y-124781366D01*
X97310023Y-124787244D01*
X97231005Y-124935078D01*
X97124659Y-125064659D01*
X96995078Y-125171005D01*
X96847244Y-125250023D01*
X96847241Y-125250024D01*
X96847239Y-125250025D01*
X96686825Y-125298686D01*
X96686824Y-125298686D01*
X96686821Y-125298687D01*
X96561804Y-125311000D01*
X96478196Y-125311000D01*
X96353179Y-125298687D01*
X96353176Y-125298686D01*
X96353175Y-125298686D01*
X96192761Y-125250025D01*
X96192759Y-125250024D01*
X96192756Y-125250023D01*
X96044922Y-125171005D01*
X95915341Y-125064659D01*
X95808995Y-124935078D01*
X95729977Y-124787244D01*
X95728194Y-124781366D01*
X95681314Y-124626825D01*
X95681314Y-124626824D01*
X95681313Y-124626821D01*
X95664883Y-124460000D01*
X95681313Y-124293179D01*
X95681314Y-124293175D01*
X95729975Y-124132761D01*
X95729976Y-124132759D01*
X95729977Y-124132756D01*
X95808995Y-123984922D01*
X95915341Y-123855341D01*
X96044922Y-123748995D01*
X96192756Y-123669977D01*
X96192759Y-123669976D01*
X96192761Y-123669975D01*
X96353175Y-123621314D01*
X96353176Y-123621314D01*
X96353179Y-123621313D01*
X96478196Y-123609000D01*
X96561804Y-123609000D01*
X96686821Y-123621313D01*
X96686821Y-123621313D01*
G37*
G36*
X120179294Y-122978633D02*
X120351694Y-123030931D01*
X120351696Y-123030932D01*
X120510583Y-123115859D01*
X120510585Y-123115860D01*
X120510584Y-123115860D01*
X120649849Y-123230151D01*
X120764140Y-123369416D01*
X120849069Y-123528306D01*
X120901367Y-123700706D01*
X120919025Y-123880000D01*
X120901367Y-124059294D01*
X120855112Y-124211772D01*
X120849068Y-124231696D01*
X120764141Y-124390583D01*
X120649849Y-124529849D01*
X120510583Y-124644141D01*
X120390685Y-124708228D01*
X120351694Y-124729069D01*
X120179294Y-124781367D01*
X120044931Y-124794600D01*
X119955069Y-124794600D01*
X119820706Y-124781367D01*
X119648306Y-124729069D01*
X119609315Y-124708228D01*
X119489417Y-124644141D01*
X119350151Y-124529849D01*
X119235859Y-124390583D01*
X119150932Y-124231696D01*
X119144888Y-124211772D01*
X119098633Y-124059294D01*
X119080975Y-123880000D01*
X119098633Y-123700706D01*
X119150931Y-123528306D01*
X119235860Y-123369416D01*
X119350151Y-123230151D01*
X119489416Y-123115860D01*
X119489415Y-123115860D01*
X119489417Y-123115859D01*
X119648304Y-123030932D01*
X119648306Y-123030931D01*
X119820706Y-122978633D01*
X119955069Y-122965400D01*
X120044931Y-122965400D01*
X120179294Y-122978633D01*
X120179294Y-122978633D01*
G37*
G36*
X168439294Y-122978633D02*
X168611694Y-123030931D01*
X168611696Y-123030932D01*
X168770583Y-123115859D01*
X168770585Y-123115860D01*
X168770584Y-123115860D01*
X168909849Y-123230151D01*
X169024140Y-123369416D01*
X169109069Y-123528306D01*
X169161367Y-123700706D01*
X169179025Y-123880000D01*
X169161367Y-124059294D01*
X169115112Y-124211772D01*
X169109068Y-124231696D01*
X169024141Y-124390583D01*
X168909849Y-124529849D01*
X168770583Y-124644141D01*
X168650685Y-124708228D01*
X168611694Y-124729069D01*
X168439294Y-124781367D01*
X168304931Y-124794600D01*
X168215069Y-124794600D01*
X168080706Y-124781367D01*
X167908306Y-124729069D01*
X167869315Y-124708228D01*
X167749417Y-124644141D01*
X167610151Y-124529849D01*
X167495859Y-124390583D01*
X167410932Y-124231696D01*
X167404888Y-124211772D01*
X167358633Y-124059294D01*
X167340975Y-123880000D01*
X167358633Y-123700706D01*
X167410931Y-123528306D01*
X167495860Y-123369416D01*
X167610151Y-123230151D01*
X167749416Y-123115860D01*
X167749415Y-123115860D01*
X167749417Y-123115859D01*
X167908304Y-123030932D01*
X167908306Y-123030931D01*
X168080706Y-122978633D01*
X168215069Y-122965400D01*
X168304931Y-122965400D01*
X168439294Y-122978633D01*
X168439294Y-122978633D01*
G37*
G36*
X170979294Y-122978633D02*
X171151694Y-123030931D01*
X171151696Y-123030932D01*
X171310583Y-123115859D01*
X171310585Y-123115860D01*
X171310584Y-123115860D01*
X171449849Y-123230151D01*
X171564140Y-123369416D01*
X171649069Y-123528306D01*
X171701367Y-123700706D01*
X171719025Y-123880000D01*
X171701367Y-124059294D01*
X171655112Y-124211772D01*
X171649068Y-124231696D01*
X171564141Y-124390583D01*
X171449849Y-124529849D01*
X171310583Y-124644141D01*
X171190685Y-124708228D01*
X171151694Y-124729069D01*
X170979294Y-124781367D01*
X170844931Y-124794600D01*
X170755069Y-124794600D01*
X170620706Y-124781367D01*
X170448306Y-124729069D01*
X170409315Y-124708228D01*
X170289417Y-124644141D01*
X170150151Y-124529849D01*
X170035859Y-124390583D01*
X169950932Y-124231696D01*
X169944888Y-124211772D01*
X169898633Y-124059294D01*
X169880975Y-123880000D01*
X169898633Y-123700706D01*
X169950931Y-123528306D01*
X170035860Y-123369416D01*
X170150151Y-123230151D01*
X170289416Y-123115860D01*
X170289415Y-123115860D01*
X170289417Y-123115859D01*
X170448304Y-123030932D01*
X170448306Y-123030931D01*
X170620706Y-122978633D01*
X170755069Y-122965400D01*
X170844931Y-122965400D01*
X170979294Y-122978633D01*
X170979294Y-122978633D01*
G37*
G36*
X122719294Y-122978633D02*
X122891694Y-123030931D01*
X122891696Y-123030932D01*
X123050583Y-123115859D01*
X123050585Y-123115860D01*
X123050584Y-123115860D01*
X123189849Y-123230151D01*
X123304140Y-123369416D01*
X123389069Y-123528306D01*
X123441367Y-123700706D01*
X123459025Y-123880000D01*
X123441367Y-124059294D01*
X123395112Y-124211772D01*
X123389068Y-124231696D01*
X123304141Y-124390583D01*
X123189849Y-124529849D01*
X123050583Y-124644141D01*
X122930685Y-124708228D01*
X122891694Y-124729069D01*
X122719294Y-124781367D01*
X122584931Y-124794600D01*
X122495069Y-124794600D01*
X122360706Y-124781367D01*
X122188306Y-124729069D01*
X122149315Y-124708228D01*
X122029417Y-124644141D01*
X121890151Y-124529849D01*
X121775859Y-124390583D01*
X121690932Y-124231696D01*
X121684888Y-124211772D01*
X121638633Y-124059294D01*
X121620975Y-123880000D01*
X121638633Y-123700706D01*
X121690931Y-123528306D01*
X121775860Y-123369416D01*
X121890151Y-123230151D01*
X122029416Y-123115860D01*
X122029415Y-123115860D01*
X122029417Y-123115859D01*
X122188304Y-123030932D01*
X122188306Y-123030931D01*
X122360706Y-122978633D01*
X122495069Y-122965400D01*
X122584931Y-122965400D01*
X122719294Y-122978633D01*
X122719294Y-122978633D01*
G37*
G36*
X170979294Y-120438633D02*
X171151694Y-120490931D01*
X171151696Y-120490932D01*
X171310583Y-120575859D01*
X171310585Y-120575860D01*
X171310584Y-120575860D01*
X171449849Y-120690151D01*
X171564140Y-120829416D01*
X171649069Y-120988306D01*
X171701367Y-121160706D01*
X171719025Y-121340000D01*
X171701367Y-121519294D01*
X171649069Y-121691694D01*
X171649068Y-121691696D01*
X171564141Y-121850583D01*
X171449849Y-121989849D01*
X171310583Y-122104141D01*
X171151696Y-122189068D01*
X171151694Y-122189069D01*
X170979294Y-122241367D01*
X170844931Y-122254600D01*
X170755069Y-122254600D01*
X170620706Y-122241367D01*
X170448306Y-122189069D01*
X170448304Y-122189068D01*
X170289417Y-122104141D01*
X170150151Y-121989849D01*
X170035859Y-121850583D01*
X169950932Y-121691696D01*
X169950931Y-121691694D01*
X169898633Y-121519294D01*
X169880975Y-121340000D01*
X169898633Y-121160706D01*
X169950931Y-120988306D01*
X170035860Y-120829416D01*
X170150151Y-120690151D01*
X170289416Y-120575860D01*
X170289415Y-120575860D01*
X170289417Y-120575859D01*
X170448304Y-120490932D01*
X170448306Y-120490931D01*
X170620706Y-120438633D01*
X170755069Y-120425400D01*
X170844931Y-120425400D01*
X170979294Y-120438633D01*
X170979294Y-120438633D01*
G37*
G36*
X122719294Y-120438633D02*
X122891694Y-120490931D01*
X122891696Y-120490932D01*
X123050583Y-120575859D01*
X123050585Y-120575860D01*
X123050584Y-120575860D01*
X123189849Y-120690151D01*
X123304140Y-120829416D01*
X123389069Y-120988306D01*
X123441367Y-121160706D01*
X123459025Y-121340000D01*
X123441367Y-121519294D01*
X123389069Y-121691694D01*
X123389068Y-121691696D01*
X123304141Y-121850583D01*
X123189849Y-121989849D01*
X123050583Y-122104141D01*
X122891696Y-122189068D01*
X122891694Y-122189069D01*
X122719294Y-122241367D01*
X122584931Y-122254600D01*
X122495069Y-122254600D01*
X122360706Y-122241367D01*
X122188306Y-122189069D01*
X122188304Y-122189068D01*
X122029417Y-122104141D01*
X121890151Y-121989849D01*
X121775859Y-121850583D01*
X121690932Y-121691696D01*
X121690931Y-121691694D01*
X121638633Y-121519294D01*
X121620975Y-121340000D01*
X121638633Y-121160706D01*
X121690931Y-120988306D01*
X121775860Y-120829416D01*
X121890151Y-120690151D01*
X122029416Y-120575860D01*
X122029415Y-120575860D01*
X122029417Y-120575859D01*
X122188304Y-120490932D01*
X122188306Y-120490931D01*
X122360706Y-120438633D01*
X122495069Y-120425400D01*
X122584931Y-120425400D01*
X122719294Y-120438633D01*
X122719294Y-120438633D01*
G37*
G36*
X120179294Y-120438633D02*
X120351694Y-120490931D01*
X120351696Y-120490932D01*
X120510583Y-120575859D01*
X120510585Y-120575860D01*
X120510584Y-120575860D01*
X120649849Y-120690151D01*
X120764140Y-120829416D01*
X120849069Y-120988306D01*
X120901367Y-121160706D01*
X120919025Y-121340000D01*
X120901367Y-121519294D01*
X120849069Y-121691694D01*
X120849068Y-121691696D01*
X120764141Y-121850583D01*
X120649849Y-121989849D01*
X120510583Y-122104141D01*
X120351696Y-122189068D01*
X120351694Y-122189069D01*
X120179294Y-122241367D01*
X120044931Y-122254600D01*
X119955069Y-122254600D01*
X119820706Y-122241367D01*
X119648306Y-122189069D01*
X119648304Y-122189068D01*
X119489417Y-122104141D01*
X119350151Y-121989849D01*
X119235859Y-121850583D01*
X119150932Y-121691696D01*
X119150931Y-121691694D01*
X119098633Y-121519294D01*
X119080975Y-121340000D01*
X119098633Y-121160706D01*
X119150931Y-120988306D01*
X119235860Y-120829416D01*
X119350151Y-120690151D01*
X119489416Y-120575860D01*
X119489415Y-120575860D01*
X119489417Y-120575859D01*
X119648304Y-120490932D01*
X119648306Y-120490931D01*
X119820706Y-120438633D01*
X119955069Y-120425400D01*
X120044931Y-120425400D01*
X120179294Y-120438633D01*
X120179294Y-120438633D01*
G37*
G36*
X168439294Y-120438633D02*
X168611694Y-120490931D01*
X168611696Y-120490932D01*
X168770583Y-120575859D01*
X168770585Y-120575860D01*
X168770584Y-120575860D01*
X168909849Y-120690151D01*
X169024140Y-120829416D01*
X169109069Y-120988306D01*
X169161367Y-121160706D01*
X169179025Y-121340000D01*
X169161367Y-121519294D01*
X169109069Y-121691694D01*
X169109068Y-121691696D01*
X169024141Y-121850583D01*
X168909849Y-121989849D01*
X168770583Y-122104141D01*
X168611696Y-122189068D01*
X168611694Y-122189069D01*
X168439294Y-122241367D01*
X168304931Y-122254600D01*
X168215069Y-122254600D01*
X168080706Y-122241367D01*
X167908306Y-122189069D01*
X167908304Y-122189068D01*
X167749417Y-122104141D01*
X167610151Y-121989849D01*
X167495859Y-121850583D01*
X167410932Y-121691696D01*
X167410931Y-121691694D01*
X167358633Y-121519294D01*
X167340975Y-121340000D01*
X167358633Y-121160706D01*
X167410931Y-120988306D01*
X167495860Y-120829416D01*
X167610151Y-120690151D01*
X167749416Y-120575860D01*
X167749415Y-120575860D01*
X167749417Y-120575859D01*
X167908304Y-120490932D01*
X167908306Y-120490931D01*
X168080706Y-120438633D01*
X168215069Y-120425400D01*
X168304931Y-120425400D01*
X168439294Y-120438633D01*
X168439294Y-120438633D01*
G37*
G36*
X170979294Y-117898633D02*
X171151694Y-117950931D01*
X171151696Y-117950932D01*
X171310583Y-118035859D01*
X171310585Y-118035860D01*
X171310584Y-118035860D01*
X171449849Y-118150151D01*
X171564140Y-118289416D01*
X171649069Y-118448306D01*
X171701367Y-118620706D01*
X171719025Y-118800000D01*
X171701367Y-118979294D01*
X171649069Y-119151694D01*
X171649068Y-119151696D01*
X171564141Y-119310583D01*
X171449849Y-119449849D01*
X171310583Y-119564141D01*
X171151696Y-119649068D01*
X171151694Y-119649069D01*
X170979294Y-119701367D01*
X170844931Y-119714600D01*
X170755069Y-119714600D01*
X170620706Y-119701367D01*
X170448306Y-119649069D01*
X170448304Y-119649068D01*
X170289417Y-119564141D01*
X170150151Y-119449849D01*
X170035859Y-119310583D01*
X169950932Y-119151696D01*
X169950931Y-119151694D01*
X169898633Y-118979294D01*
X169880975Y-118800000D01*
X169898633Y-118620706D01*
X169950931Y-118448306D01*
X170035860Y-118289416D01*
X170150151Y-118150151D01*
X170289416Y-118035860D01*
X170289415Y-118035860D01*
X170289417Y-118035859D01*
X170448304Y-117950932D01*
X170448306Y-117950931D01*
X170620706Y-117898633D01*
X170755069Y-117885400D01*
X170844931Y-117885400D01*
X170979294Y-117898633D01*
X170979294Y-117898633D01*
G37*
G36*
X122719294Y-117898633D02*
X122891694Y-117950931D01*
X122891696Y-117950932D01*
X123050583Y-118035859D01*
X123050585Y-118035860D01*
X123050584Y-118035860D01*
X123189849Y-118150151D01*
X123304140Y-118289416D01*
X123389069Y-118448306D01*
X123441367Y-118620706D01*
X123459025Y-118800000D01*
X123441367Y-118979294D01*
X123389069Y-119151694D01*
X123389068Y-119151696D01*
X123304141Y-119310583D01*
X123189849Y-119449849D01*
X123050583Y-119564141D01*
X122891696Y-119649068D01*
X122891694Y-119649069D01*
X122719294Y-119701367D01*
X122584931Y-119714600D01*
X122495069Y-119714600D01*
X122360706Y-119701367D01*
X122188306Y-119649069D01*
X122188304Y-119649068D01*
X122029417Y-119564141D01*
X121890151Y-119449849D01*
X121775859Y-119310583D01*
X121690932Y-119151696D01*
X121690931Y-119151694D01*
X121638633Y-118979294D01*
X121620975Y-118800000D01*
X121638633Y-118620706D01*
X121690931Y-118448306D01*
X121775860Y-118289416D01*
X121890151Y-118150151D01*
X122029416Y-118035860D01*
X122029415Y-118035860D01*
X122029417Y-118035859D01*
X122188304Y-117950932D01*
X122188306Y-117950931D01*
X122360706Y-117898633D01*
X122495069Y-117885400D01*
X122584931Y-117885400D01*
X122719294Y-117898633D01*
X122719294Y-117898633D01*
G37*
G36*
X120179294Y-117898633D02*
X120351694Y-117950931D01*
X120351696Y-117950932D01*
X120510583Y-118035859D01*
X120510585Y-118035860D01*
X120510584Y-118035860D01*
X120649849Y-118150151D01*
X120764140Y-118289416D01*
X120849069Y-118448306D01*
X120901367Y-118620706D01*
X120919025Y-118800000D01*
X120901367Y-118979294D01*
X120849069Y-119151694D01*
X120849068Y-119151696D01*
X120764141Y-119310583D01*
X120649849Y-119449849D01*
X120510583Y-119564141D01*
X120351696Y-119649068D01*
X120351694Y-119649069D01*
X120179294Y-119701367D01*
X120044931Y-119714600D01*
X119955069Y-119714600D01*
X119820706Y-119701367D01*
X119648306Y-119649069D01*
X119648304Y-119649068D01*
X119489417Y-119564141D01*
X119350151Y-119449849D01*
X119235859Y-119310583D01*
X119150932Y-119151696D01*
X119150931Y-119151694D01*
X119098633Y-118979294D01*
X119080975Y-118800000D01*
X119098633Y-118620706D01*
X119150931Y-118448306D01*
X119235860Y-118289416D01*
X119350151Y-118150151D01*
X119489416Y-118035860D01*
X119489415Y-118035860D01*
X119489417Y-118035859D01*
X119648304Y-117950932D01*
X119648306Y-117950931D01*
X119820706Y-117898633D01*
X119955069Y-117885400D01*
X120044931Y-117885400D01*
X120179294Y-117898633D01*
X120179294Y-117898633D01*
G37*
G36*
X168439294Y-117898633D02*
X168611694Y-117950931D01*
X168611696Y-117950932D01*
X168770583Y-118035859D01*
X168770585Y-118035860D01*
X168770584Y-118035860D01*
X168909849Y-118150151D01*
X169024140Y-118289416D01*
X169109069Y-118448306D01*
X169161367Y-118620706D01*
X169179025Y-118800000D01*
X169161367Y-118979294D01*
X169109069Y-119151694D01*
X169109068Y-119151696D01*
X169024141Y-119310583D01*
X168909849Y-119449849D01*
X168770583Y-119564141D01*
X168611696Y-119649068D01*
X168611694Y-119649069D01*
X168439294Y-119701367D01*
X168304931Y-119714600D01*
X168215069Y-119714600D01*
X168080706Y-119701367D01*
X167908306Y-119649069D01*
X167908304Y-119649068D01*
X167749417Y-119564141D01*
X167610151Y-119449849D01*
X167495859Y-119310583D01*
X167410932Y-119151696D01*
X167410931Y-119151694D01*
X167358633Y-118979294D01*
X167340975Y-118800000D01*
X167358633Y-118620706D01*
X167410931Y-118448306D01*
X167495860Y-118289416D01*
X167610151Y-118150151D01*
X167749416Y-118035860D01*
X167749415Y-118035860D01*
X167749417Y-118035859D01*
X167908304Y-117950932D01*
X167908306Y-117950931D01*
X168080706Y-117898633D01*
X168215069Y-117885400D01*
X168304931Y-117885400D01*
X168439294Y-117898633D01*
X168439294Y-117898633D01*
G37*
G36*
X94090442Y-115945518D02*
X94156627Y-115952037D01*
X94269853Y-115986384D01*
X94326467Y-116003557D01*
X94465087Y-116077652D01*
X94482991Y-116087222D01*
X94518729Y-116116552D01*
X94620186Y-116199814D01*
X94703448Y-116301271D01*
X94732778Y-116337009D01*
X94732779Y-116337011D01*
X94816443Y-116493533D01*
X94816443Y-116493534D01*
X94867963Y-116663373D01*
X94885359Y-116840000D01*
X94867963Y-117016627D01*
X94839921Y-117109068D01*
X94816443Y-117186467D01*
X94742348Y-117325087D01*
X94732778Y-117342991D01*
X94703448Y-117378729D01*
X94620186Y-117480186D01*
X94518729Y-117563448D01*
X94482991Y-117592778D01*
X94482989Y-117592779D01*
X94326467Y-117676443D01*
X94269853Y-117693616D01*
X94156627Y-117727963D01*
X94090442Y-117734482D01*
X94024260Y-117741000D01*
X93935740Y-117741000D01*
X93869558Y-117734482D01*
X93803373Y-117727963D01*
X93690147Y-117693616D01*
X93633533Y-117676443D01*
X93477011Y-117592779D01*
X93477009Y-117592778D01*
X93441271Y-117563448D01*
X93339814Y-117480186D01*
X93256552Y-117378729D01*
X93227222Y-117342991D01*
X93217652Y-117325087D01*
X93143557Y-117186467D01*
X93120079Y-117109068D01*
X93092037Y-117016627D01*
X93074641Y-116840000D01*
X93092037Y-116663373D01*
X93143557Y-116493534D01*
X93143557Y-116493533D01*
X93227221Y-116337011D01*
X93227222Y-116337009D01*
X93256552Y-116301271D01*
X93339814Y-116199814D01*
X93441271Y-116116552D01*
X93477009Y-116087222D01*
X93494913Y-116077652D01*
X93633533Y-116003557D01*
X93690147Y-115986384D01*
X93803373Y-115952037D01*
X93869558Y-115945518D01*
X93935740Y-115939000D01*
X94024260Y-115939000D01*
X94090442Y-115945518D01*
X94090442Y-115945518D01*
G37*
G36*
X91550442Y-115945518D02*
X91616627Y-115952037D01*
X91729853Y-115986384D01*
X91786467Y-116003557D01*
X91925087Y-116077652D01*
X91942991Y-116087222D01*
X91978729Y-116116552D01*
X92080186Y-116199814D01*
X92163448Y-116301271D01*
X92192778Y-116337009D01*
X92192779Y-116337011D01*
X92276443Y-116493533D01*
X92276443Y-116493534D01*
X92327963Y-116663373D01*
X92345359Y-116840000D01*
X92327963Y-117016627D01*
X92299921Y-117109068D01*
X92276443Y-117186467D01*
X92202348Y-117325087D01*
X92192778Y-117342991D01*
X92163448Y-117378729D01*
X92080186Y-117480186D01*
X91978729Y-117563448D01*
X91942991Y-117592778D01*
X91942989Y-117592779D01*
X91786467Y-117676443D01*
X91729853Y-117693616D01*
X91616627Y-117727963D01*
X91550442Y-117734482D01*
X91484260Y-117741000D01*
X91395740Y-117741000D01*
X91329558Y-117734482D01*
X91263373Y-117727963D01*
X91150147Y-117693616D01*
X91093533Y-117676443D01*
X90937011Y-117592779D01*
X90937009Y-117592778D01*
X90901271Y-117563448D01*
X90799814Y-117480186D01*
X90716552Y-117378729D01*
X90687222Y-117342991D01*
X90677652Y-117325087D01*
X90603557Y-117186467D01*
X90580079Y-117109068D01*
X90552037Y-117016627D01*
X90534641Y-116840000D01*
X90552037Y-116663373D01*
X90603557Y-116493534D01*
X90603557Y-116493533D01*
X90687221Y-116337011D01*
X90687222Y-116337009D01*
X90716552Y-116301271D01*
X90799814Y-116199814D01*
X90901271Y-116116552D01*
X90937009Y-116087222D01*
X90954913Y-116077652D01*
X91093533Y-116003557D01*
X91150147Y-115986384D01*
X91263373Y-115952037D01*
X91329558Y-115945518D01*
X91395740Y-115939000D01*
X91484260Y-115939000D01*
X91550442Y-115945518D01*
X91550442Y-115945518D01*
G37*
G36*
X120179294Y-115358633D02*
X120351694Y-115410931D01*
X120351696Y-115410932D01*
X120510583Y-115495859D01*
X120510585Y-115495860D01*
X120510584Y-115495860D01*
X120649849Y-115610151D01*
X120764140Y-115749416D01*
X120849069Y-115908306D01*
X120901367Y-116080706D01*
X120919025Y-116260000D01*
X120901367Y-116439294D01*
X120849069Y-116611694D01*
X120849068Y-116611696D01*
X120764141Y-116770583D01*
X120649849Y-116909849D01*
X120510583Y-117024141D01*
X120351696Y-117109068D01*
X120351694Y-117109069D01*
X120179294Y-117161367D01*
X120044931Y-117174600D01*
X119955069Y-117174600D01*
X119820706Y-117161367D01*
X119648306Y-117109069D01*
X119648304Y-117109068D01*
X119489417Y-117024141D01*
X119350151Y-116909849D01*
X119235859Y-116770583D01*
X119150932Y-116611696D01*
X119150931Y-116611694D01*
X119098633Y-116439294D01*
X119080975Y-116260000D01*
X119098633Y-116080706D01*
X119150931Y-115908306D01*
X119235860Y-115749416D01*
X119350151Y-115610151D01*
X119489416Y-115495860D01*
X119489415Y-115495860D01*
X119489417Y-115495859D01*
X119648304Y-115410932D01*
X119648306Y-115410931D01*
X119820706Y-115358633D01*
X119955069Y-115345400D01*
X120044931Y-115345400D01*
X120179294Y-115358633D01*
X120179294Y-115358633D01*
G37*
G36*
X122719294Y-115358633D02*
X122891694Y-115410931D01*
X122891696Y-115410932D01*
X123050583Y-115495859D01*
X123050585Y-115495860D01*
X123050584Y-115495860D01*
X123189849Y-115610151D01*
X123304140Y-115749416D01*
X123389069Y-115908306D01*
X123441367Y-116080706D01*
X123459025Y-116260000D01*
X123441367Y-116439294D01*
X123389069Y-116611694D01*
X123389068Y-116611696D01*
X123304141Y-116770583D01*
X123189849Y-116909849D01*
X123050583Y-117024141D01*
X122891696Y-117109068D01*
X122891694Y-117109069D01*
X122719294Y-117161367D01*
X122584931Y-117174600D01*
X122495069Y-117174600D01*
X122360706Y-117161367D01*
X122188306Y-117109069D01*
X122188304Y-117109068D01*
X122029417Y-117024141D01*
X121890151Y-116909849D01*
X121775859Y-116770583D01*
X121690932Y-116611696D01*
X121690931Y-116611694D01*
X121638633Y-116439294D01*
X121620975Y-116260000D01*
X121638633Y-116080706D01*
X121690931Y-115908306D01*
X121775860Y-115749416D01*
X121890151Y-115610151D01*
X122029416Y-115495860D01*
X122029415Y-115495860D01*
X122029417Y-115495859D01*
X122188304Y-115410932D01*
X122188306Y-115410931D01*
X122360706Y-115358633D01*
X122495069Y-115345400D01*
X122584931Y-115345400D01*
X122719294Y-115358633D01*
X122719294Y-115358633D01*
G37*
G36*
X168439294Y-115358633D02*
X168611694Y-115410931D01*
X168611696Y-115410932D01*
X168770583Y-115495859D01*
X168770585Y-115495860D01*
X168770584Y-115495860D01*
X168909849Y-115610151D01*
X169024140Y-115749416D01*
X169109069Y-115908306D01*
X169161367Y-116080706D01*
X169179025Y-116260000D01*
X169161367Y-116439294D01*
X169109069Y-116611694D01*
X169109068Y-116611696D01*
X169024141Y-116770583D01*
X168909849Y-116909849D01*
X168770583Y-117024141D01*
X168611696Y-117109068D01*
X168611694Y-117109069D01*
X168439294Y-117161367D01*
X168304931Y-117174600D01*
X168215069Y-117174600D01*
X168080706Y-117161367D01*
X167908306Y-117109069D01*
X167908304Y-117109068D01*
X167749417Y-117024141D01*
X167610151Y-116909849D01*
X167495859Y-116770583D01*
X167410932Y-116611696D01*
X167410931Y-116611694D01*
X167358633Y-116439294D01*
X167340975Y-116260000D01*
X167358633Y-116080706D01*
X167410931Y-115908306D01*
X167495860Y-115749416D01*
X167610151Y-115610151D01*
X167749416Y-115495860D01*
X167749415Y-115495860D01*
X167749417Y-115495859D01*
X167908304Y-115410932D01*
X167908306Y-115410931D01*
X168080706Y-115358633D01*
X168215069Y-115345400D01*
X168304931Y-115345400D01*
X168439294Y-115358633D01*
X168439294Y-115358633D01*
G37*
G36*
X170979294Y-115358633D02*
X171151694Y-115410931D01*
X171151696Y-115410932D01*
X171310583Y-115495859D01*
X171310585Y-115495860D01*
X171310584Y-115495860D01*
X171449849Y-115610151D01*
X171564140Y-115749416D01*
X171649069Y-115908306D01*
X171701367Y-116080706D01*
X171719025Y-116260000D01*
X171701367Y-116439294D01*
X171649069Y-116611694D01*
X171649068Y-116611696D01*
X171564141Y-116770583D01*
X171449849Y-116909849D01*
X171310583Y-117024141D01*
X171151696Y-117109068D01*
X171151694Y-117109069D01*
X170979294Y-117161367D01*
X170844931Y-117174600D01*
X170755069Y-117174600D01*
X170620706Y-117161367D01*
X170448306Y-117109069D01*
X170448304Y-117109068D01*
X170289417Y-117024141D01*
X170150151Y-116909849D01*
X170035859Y-116770583D01*
X169950932Y-116611696D01*
X169950931Y-116611694D01*
X169898633Y-116439294D01*
X169880975Y-116260000D01*
X169898633Y-116080706D01*
X169950931Y-115908306D01*
X170035860Y-115749416D01*
X170150151Y-115610151D01*
X170289416Y-115495860D01*
X170289415Y-115495860D01*
X170289417Y-115495859D01*
X170448304Y-115410932D01*
X170448306Y-115410931D01*
X170620706Y-115358633D01*
X170755069Y-115345400D01*
X170844931Y-115345400D01*
X170979294Y-115358633D01*
X170979294Y-115358633D01*
G37*
G36*
X94090443Y-113405519D02*
X94156627Y-113412037D01*
X94269853Y-113446384D01*
X94326467Y-113463557D01*
X94465087Y-113537652D01*
X94482991Y-113547222D01*
X94518729Y-113576552D01*
X94620186Y-113659814D01*
X94703448Y-113761271D01*
X94732778Y-113797009D01*
X94732779Y-113797011D01*
X94816443Y-113953533D01*
X94816443Y-113953534D01*
X94867963Y-114123373D01*
X94885359Y-114300000D01*
X94867963Y-114476627D01*
X94839921Y-114569068D01*
X94816443Y-114646467D01*
X94742348Y-114785087D01*
X94732778Y-114802991D01*
X94703448Y-114838729D01*
X94620186Y-114940186D01*
X94518729Y-115023448D01*
X94482991Y-115052778D01*
X94482989Y-115052779D01*
X94326467Y-115136443D01*
X94269853Y-115153616D01*
X94156627Y-115187963D01*
X94090442Y-115194482D01*
X94024260Y-115201000D01*
X93935740Y-115201000D01*
X93869558Y-115194482D01*
X93803373Y-115187963D01*
X93690147Y-115153616D01*
X93633533Y-115136443D01*
X93477011Y-115052779D01*
X93477009Y-115052778D01*
X93441271Y-115023448D01*
X93339814Y-114940186D01*
X93256552Y-114838729D01*
X93227222Y-114802991D01*
X93217652Y-114785087D01*
X93143557Y-114646467D01*
X93120079Y-114569068D01*
X93092037Y-114476627D01*
X93074641Y-114300000D01*
X93092037Y-114123373D01*
X93143557Y-113953534D01*
X93143557Y-113953533D01*
X93227221Y-113797011D01*
X93227222Y-113797009D01*
X93256552Y-113761271D01*
X93339814Y-113659814D01*
X93441271Y-113576552D01*
X93477009Y-113547222D01*
X93494913Y-113537652D01*
X93633533Y-113463557D01*
X93690147Y-113446384D01*
X93803373Y-113412037D01*
X93869557Y-113405519D01*
X93935740Y-113399000D01*
X94024260Y-113399000D01*
X94090443Y-113405519D01*
X94090443Y-113405519D01*
G37*
G36*
X91550443Y-113405519D02*
X91616627Y-113412037D01*
X91729853Y-113446384D01*
X91786467Y-113463557D01*
X91925087Y-113537652D01*
X91942991Y-113547222D01*
X91978729Y-113576552D01*
X92080186Y-113659814D01*
X92163448Y-113761271D01*
X92192778Y-113797009D01*
X92192779Y-113797011D01*
X92276443Y-113953533D01*
X92276443Y-113953534D01*
X92327963Y-114123373D01*
X92345359Y-114300000D01*
X92327963Y-114476627D01*
X92299921Y-114569068D01*
X92276443Y-114646467D01*
X92202348Y-114785087D01*
X92192778Y-114802991D01*
X92163448Y-114838729D01*
X92080186Y-114940186D01*
X91978729Y-115023448D01*
X91942991Y-115052778D01*
X91942989Y-115052779D01*
X91786467Y-115136443D01*
X91729853Y-115153616D01*
X91616627Y-115187963D01*
X91550442Y-115194482D01*
X91484260Y-115201000D01*
X91395740Y-115201000D01*
X91329558Y-115194482D01*
X91263373Y-115187963D01*
X91150147Y-115153616D01*
X91093533Y-115136443D01*
X90937011Y-115052779D01*
X90937009Y-115052778D01*
X90901271Y-115023448D01*
X90799814Y-114940186D01*
X90716552Y-114838729D01*
X90687222Y-114802991D01*
X90677652Y-114785087D01*
X90603557Y-114646467D01*
X90580079Y-114569068D01*
X90552037Y-114476627D01*
X90534641Y-114300000D01*
X90552037Y-114123373D01*
X90603557Y-113953534D01*
X90603557Y-113953533D01*
X90687221Y-113797011D01*
X90687222Y-113797009D01*
X90716552Y-113761271D01*
X90799814Y-113659814D01*
X90901271Y-113576552D01*
X90937009Y-113547222D01*
X90954913Y-113537652D01*
X91093533Y-113463557D01*
X91150147Y-113446384D01*
X91263373Y-113412037D01*
X91329557Y-113405519D01*
X91395740Y-113399000D01*
X91484260Y-113399000D01*
X91550443Y-113405519D01*
X91550443Y-113405519D01*
G37*
G36*
X170979294Y-112818633D02*
X171151694Y-112870931D01*
X171151696Y-112870932D01*
X171310583Y-112955859D01*
X171310585Y-112955860D01*
X171310584Y-112955860D01*
X171449849Y-113070151D01*
X171564140Y-113209416D01*
X171649069Y-113368306D01*
X171701367Y-113540706D01*
X171719025Y-113720000D01*
X171701367Y-113899294D01*
X171649069Y-114071694D01*
X171649068Y-114071696D01*
X171564141Y-114230583D01*
X171449849Y-114369849D01*
X171310583Y-114484141D01*
X171151696Y-114569068D01*
X171151694Y-114569069D01*
X170979294Y-114621367D01*
X170844931Y-114634600D01*
X170755069Y-114634600D01*
X170620706Y-114621367D01*
X170448306Y-114569069D01*
X170448304Y-114569068D01*
X170289417Y-114484141D01*
X170150151Y-114369849D01*
X170035859Y-114230583D01*
X169950932Y-114071696D01*
X169950931Y-114071694D01*
X169898633Y-113899294D01*
X169880975Y-113720000D01*
X169898633Y-113540706D01*
X169950931Y-113368306D01*
X170035860Y-113209416D01*
X170150151Y-113070151D01*
X170289416Y-112955860D01*
X170289415Y-112955860D01*
X170289417Y-112955859D01*
X170448304Y-112870932D01*
X170448306Y-112870931D01*
X170620706Y-112818633D01*
X170755069Y-112805400D01*
X170844931Y-112805400D01*
X170979294Y-112818633D01*
X170979294Y-112818633D01*
G37*
G36*
X168439294Y-112818633D02*
X168611694Y-112870931D01*
X168611696Y-112870932D01*
X168770583Y-112955859D01*
X168770585Y-112955860D01*
X168770584Y-112955860D01*
X168909849Y-113070151D01*
X169024140Y-113209416D01*
X169109069Y-113368306D01*
X169161367Y-113540706D01*
X169179025Y-113720000D01*
X169161367Y-113899294D01*
X169109069Y-114071694D01*
X169109068Y-114071696D01*
X169024141Y-114230583D01*
X168909849Y-114369849D01*
X168770583Y-114484141D01*
X168611696Y-114569068D01*
X168611694Y-114569069D01*
X168439294Y-114621367D01*
X168304931Y-114634600D01*
X168215069Y-114634600D01*
X168080706Y-114621367D01*
X167908306Y-114569069D01*
X167908304Y-114569068D01*
X167749417Y-114484141D01*
X167610151Y-114369849D01*
X167495859Y-114230583D01*
X167410932Y-114071696D01*
X167410931Y-114071694D01*
X167358633Y-113899294D01*
X167340975Y-113720000D01*
X167358633Y-113540706D01*
X167410931Y-113368306D01*
X167495860Y-113209416D01*
X167610151Y-113070151D01*
X167749416Y-112955860D01*
X167749415Y-112955860D01*
X167749417Y-112955859D01*
X167908304Y-112870932D01*
X167908306Y-112870931D01*
X168080706Y-112818633D01*
X168215069Y-112805400D01*
X168304931Y-112805400D01*
X168439294Y-112818633D01*
X168439294Y-112818633D01*
G37*
G36*
X120179294Y-112818633D02*
X120351694Y-112870931D01*
X120351696Y-112870932D01*
X120510583Y-112955859D01*
X120510585Y-112955860D01*
X120510584Y-112955860D01*
X120649849Y-113070151D01*
X120764140Y-113209416D01*
X120849069Y-113368306D01*
X120901367Y-113540706D01*
X120919025Y-113720000D01*
X120901367Y-113899294D01*
X120849069Y-114071694D01*
X120849068Y-114071696D01*
X120764141Y-114230583D01*
X120649849Y-114369849D01*
X120510583Y-114484141D01*
X120351696Y-114569068D01*
X120351694Y-114569069D01*
X120179294Y-114621367D01*
X120044931Y-114634600D01*
X119955069Y-114634600D01*
X119820706Y-114621367D01*
X119648306Y-114569069D01*
X119648304Y-114569068D01*
X119489417Y-114484141D01*
X119350151Y-114369849D01*
X119235859Y-114230583D01*
X119150932Y-114071696D01*
X119150931Y-114071694D01*
X119098633Y-113899294D01*
X119080975Y-113720000D01*
X119098633Y-113540706D01*
X119150931Y-113368306D01*
X119235860Y-113209416D01*
X119350151Y-113070151D01*
X119489416Y-112955860D01*
X119489415Y-112955860D01*
X119489417Y-112955859D01*
X119648304Y-112870932D01*
X119648306Y-112870931D01*
X119820706Y-112818633D01*
X119955069Y-112805400D01*
X120044931Y-112805400D01*
X120179294Y-112818633D01*
X120179294Y-112818633D01*
G37*
G36*
X122719294Y-112818633D02*
X122891694Y-112870931D01*
X122891696Y-112870932D01*
X123050583Y-112955859D01*
X123050585Y-112955860D01*
X123050584Y-112955860D01*
X123189849Y-113070151D01*
X123304140Y-113209416D01*
X123389069Y-113368306D01*
X123441367Y-113540706D01*
X123459025Y-113720000D01*
X123441367Y-113899294D01*
X123389069Y-114071694D01*
X123389068Y-114071696D01*
X123304141Y-114230583D01*
X123189849Y-114369849D01*
X123050583Y-114484141D01*
X122891696Y-114569068D01*
X122891694Y-114569069D01*
X122719294Y-114621367D01*
X122584931Y-114634600D01*
X122495069Y-114634600D01*
X122360706Y-114621367D01*
X122188306Y-114569069D01*
X122188304Y-114569068D01*
X122029417Y-114484141D01*
X121890151Y-114369849D01*
X121775859Y-114230583D01*
X121690932Y-114071696D01*
X121690931Y-114071694D01*
X121638633Y-113899294D01*
X121620975Y-113720000D01*
X121638633Y-113540706D01*
X121690931Y-113368306D01*
X121775860Y-113209416D01*
X121890151Y-113070151D01*
X122029416Y-112955860D01*
X122029415Y-112955860D01*
X122029417Y-112955859D01*
X122188304Y-112870932D01*
X122188306Y-112870931D01*
X122360706Y-112818633D01*
X122495069Y-112805400D01*
X122584931Y-112805400D01*
X122719294Y-112818633D01*
X122719294Y-112818633D01*
G37*
G36*
X91550442Y-110865518D02*
X91616627Y-110872037D01*
X91729853Y-110906384D01*
X91786467Y-110923557D01*
X91925087Y-110997652D01*
X91942991Y-111007222D01*
X91978729Y-111036552D01*
X92080186Y-111119814D01*
X92163448Y-111221271D01*
X92192778Y-111257009D01*
X92192779Y-111257011D01*
X92276443Y-111413533D01*
X92276443Y-111413534D01*
X92327963Y-111583373D01*
X92345359Y-111760000D01*
X92327963Y-111936627D01*
X92299921Y-112029068D01*
X92276443Y-112106467D01*
X92202348Y-112245087D01*
X92192778Y-112262991D01*
X92163448Y-112298729D01*
X92080186Y-112400186D01*
X91978729Y-112483448D01*
X91942991Y-112512778D01*
X91942989Y-112512779D01*
X91786467Y-112596443D01*
X91729853Y-112613616D01*
X91616627Y-112647963D01*
X91550442Y-112654482D01*
X91484260Y-112661000D01*
X91395740Y-112661000D01*
X91329558Y-112654482D01*
X91263373Y-112647963D01*
X91150147Y-112613616D01*
X91093533Y-112596443D01*
X90937011Y-112512779D01*
X90937009Y-112512778D01*
X90901271Y-112483448D01*
X90799814Y-112400186D01*
X90716552Y-112298729D01*
X90687222Y-112262991D01*
X90677652Y-112245087D01*
X90603557Y-112106467D01*
X90580079Y-112029068D01*
X90552037Y-111936627D01*
X90534641Y-111760000D01*
X90552037Y-111583373D01*
X90603557Y-111413534D01*
X90603557Y-111413533D01*
X90687221Y-111257011D01*
X90687222Y-111257009D01*
X90716552Y-111221271D01*
X90799814Y-111119814D01*
X90901271Y-111036552D01*
X90937009Y-111007222D01*
X90954913Y-110997652D01*
X91093533Y-110923557D01*
X91150147Y-110906384D01*
X91263373Y-110872037D01*
X91329558Y-110865518D01*
X91395740Y-110859000D01*
X91484260Y-110859000D01*
X91550442Y-110865518D01*
X91550442Y-110865518D01*
G37*
G36*
X94090442Y-110865518D02*
X94156627Y-110872037D01*
X94269853Y-110906384D01*
X94326467Y-110923557D01*
X94465087Y-110997652D01*
X94482991Y-111007222D01*
X94518729Y-111036552D01*
X94620186Y-111119814D01*
X94703448Y-111221271D01*
X94732778Y-111257009D01*
X94732779Y-111257011D01*
X94816443Y-111413533D01*
X94816443Y-111413534D01*
X94867963Y-111583373D01*
X94885359Y-111760000D01*
X94867963Y-111936627D01*
X94839921Y-112029068D01*
X94816443Y-112106467D01*
X94742348Y-112245087D01*
X94732778Y-112262991D01*
X94703448Y-112298729D01*
X94620186Y-112400186D01*
X94518729Y-112483448D01*
X94482991Y-112512778D01*
X94482989Y-112512779D01*
X94326467Y-112596443D01*
X94269853Y-112613616D01*
X94156627Y-112647963D01*
X94090442Y-112654482D01*
X94024260Y-112661000D01*
X93935740Y-112661000D01*
X93869558Y-112654482D01*
X93803373Y-112647963D01*
X93690147Y-112613616D01*
X93633533Y-112596443D01*
X93477011Y-112512779D01*
X93477009Y-112512778D01*
X93441271Y-112483448D01*
X93339814Y-112400186D01*
X93256552Y-112298729D01*
X93227222Y-112262991D01*
X93217652Y-112245087D01*
X93143557Y-112106467D01*
X93120079Y-112029068D01*
X93092037Y-111936627D01*
X93074641Y-111760000D01*
X93092037Y-111583373D01*
X93143557Y-111413534D01*
X93143557Y-111413533D01*
X93227221Y-111257011D01*
X93227222Y-111257009D01*
X93256552Y-111221271D01*
X93339814Y-111119814D01*
X93441271Y-111036552D01*
X93477009Y-111007222D01*
X93494913Y-110997652D01*
X93633533Y-110923557D01*
X93690147Y-110906384D01*
X93803373Y-110872037D01*
X93869558Y-110865518D01*
X93935740Y-110859000D01*
X94024260Y-110859000D01*
X94090442Y-110865518D01*
X94090442Y-110865518D01*
G37*
G36*
X120179294Y-110278633D02*
X120351694Y-110330931D01*
X120351696Y-110330932D01*
X120510583Y-110415859D01*
X120510585Y-110415860D01*
X120510584Y-110415860D01*
X120649849Y-110530151D01*
X120764140Y-110669416D01*
X120849069Y-110828306D01*
X120901367Y-111000706D01*
X120919025Y-111180000D01*
X120901367Y-111359294D01*
X120849069Y-111531694D01*
X120849068Y-111531696D01*
X120764141Y-111690583D01*
X120649849Y-111829849D01*
X120510583Y-111944141D01*
X120351696Y-112029068D01*
X120351694Y-112029069D01*
X120179294Y-112081367D01*
X120044931Y-112094600D01*
X119955069Y-112094600D01*
X119820706Y-112081367D01*
X119648306Y-112029069D01*
X119648304Y-112029068D01*
X119489417Y-111944141D01*
X119350151Y-111829849D01*
X119235859Y-111690583D01*
X119150932Y-111531696D01*
X119150931Y-111531694D01*
X119098633Y-111359294D01*
X119080975Y-111180000D01*
X119098633Y-111000706D01*
X119150931Y-110828306D01*
X119235860Y-110669416D01*
X119350151Y-110530151D01*
X119489416Y-110415860D01*
X119489415Y-110415860D01*
X119489417Y-110415859D01*
X119648304Y-110330932D01*
X119648306Y-110330931D01*
X119820706Y-110278633D01*
X119955069Y-110265400D01*
X120044931Y-110265400D01*
X120179294Y-110278633D01*
X120179294Y-110278633D01*
G37*
G36*
X122719294Y-110278633D02*
X122891694Y-110330931D01*
X122891696Y-110330932D01*
X123050583Y-110415859D01*
X123050585Y-110415860D01*
X123050584Y-110415860D01*
X123189849Y-110530151D01*
X123304140Y-110669416D01*
X123389069Y-110828306D01*
X123441367Y-111000706D01*
X123459025Y-111180000D01*
X123441367Y-111359294D01*
X123389069Y-111531694D01*
X123389068Y-111531696D01*
X123304141Y-111690583D01*
X123189849Y-111829849D01*
X123050583Y-111944141D01*
X122891696Y-112029068D01*
X122891694Y-112029069D01*
X122719294Y-112081367D01*
X122584931Y-112094600D01*
X122495069Y-112094600D01*
X122360706Y-112081367D01*
X122188306Y-112029069D01*
X122188304Y-112029068D01*
X122029417Y-111944141D01*
X121890151Y-111829849D01*
X121775859Y-111690583D01*
X121690932Y-111531696D01*
X121690931Y-111531694D01*
X121638633Y-111359294D01*
X121620975Y-111180000D01*
X121638633Y-111000706D01*
X121690931Y-110828306D01*
X121775860Y-110669416D01*
X121890151Y-110530151D01*
X122029416Y-110415860D01*
X122029415Y-110415860D01*
X122029417Y-110415859D01*
X122188304Y-110330932D01*
X122188306Y-110330931D01*
X122360706Y-110278633D01*
X122495069Y-110265400D01*
X122584931Y-110265400D01*
X122719294Y-110278633D01*
X122719294Y-110278633D01*
G37*
G36*
X170979294Y-110278633D02*
X171151694Y-110330931D01*
X171151696Y-110330932D01*
X171310583Y-110415859D01*
X171310585Y-110415860D01*
X171310584Y-110415860D01*
X171449849Y-110530151D01*
X171564140Y-110669416D01*
X171649069Y-110828306D01*
X171701367Y-111000706D01*
X171719025Y-111180000D01*
X171701367Y-111359294D01*
X171649069Y-111531694D01*
X171649068Y-111531696D01*
X171564141Y-111690583D01*
X171449849Y-111829849D01*
X171310583Y-111944141D01*
X171151696Y-112029068D01*
X171151694Y-112029069D01*
X170979294Y-112081367D01*
X170844931Y-112094600D01*
X170755069Y-112094600D01*
X170620706Y-112081367D01*
X170448306Y-112029069D01*
X170448304Y-112029068D01*
X170289417Y-111944141D01*
X170150151Y-111829849D01*
X170035859Y-111690583D01*
X169950932Y-111531696D01*
X169950931Y-111531694D01*
X169898633Y-111359294D01*
X169880975Y-111180000D01*
X169898633Y-111000706D01*
X169950931Y-110828306D01*
X170035860Y-110669416D01*
X170150151Y-110530151D01*
X170289416Y-110415860D01*
X170289415Y-110415860D01*
X170289417Y-110415859D01*
X170448304Y-110330932D01*
X170448306Y-110330931D01*
X170620706Y-110278633D01*
X170755069Y-110265400D01*
X170844931Y-110265400D01*
X170979294Y-110278633D01*
X170979294Y-110278633D01*
G37*
G36*
X168439294Y-110278633D02*
X168611694Y-110330931D01*
X168611696Y-110330932D01*
X168770583Y-110415859D01*
X168770585Y-110415860D01*
X168770584Y-110415860D01*
X168909849Y-110530151D01*
X169024140Y-110669416D01*
X169109069Y-110828306D01*
X169161367Y-111000706D01*
X169179025Y-111180000D01*
X169161367Y-111359294D01*
X169109069Y-111531694D01*
X169109068Y-111531696D01*
X169024141Y-111690583D01*
X168909849Y-111829849D01*
X168770583Y-111944141D01*
X168611696Y-112029068D01*
X168611694Y-112029069D01*
X168439294Y-112081367D01*
X168304931Y-112094600D01*
X168215069Y-112094600D01*
X168080706Y-112081367D01*
X167908306Y-112029069D01*
X167908304Y-112029068D01*
X167749417Y-111944141D01*
X167610151Y-111829849D01*
X167495859Y-111690583D01*
X167410932Y-111531696D01*
X167410931Y-111531694D01*
X167358633Y-111359294D01*
X167340975Y-111180000D01*
X167358633Y-111000706D01*
X167410931Y-110828306D01*
X167495860Y-110669416D01*
X167610151Y-110530151D01*
X167749416Y-110415860D01*
X167749415Y-110415860D01*
X167749417Y-110415859D01*
X167908304Y-110330932D01*
X167908306Y-110330931D01*
X168080706Y-110278633D01*
X168215069Y-110265400D01*
X168304931Y-110265400D01*
X168439294Y-110278633D01*
X168439294Y-110278633D01*
G37*
G36*
X94090443Y-108325519D02*
X94156627Y-108332037D01*
X94269853Y-108366384D01*
X94326467Y-108383557D01*
X94465087Y-108457652D01*
X94482991Y-108467222D01*
X94518729Y-108496552D01*
X94620186Y-108579814D01*
X94703448Y-108681271D01*
X94732778Y-108717009D01*
X94732779Y-108717011D01*
X94816443Y-108873533D01*
X94816443Y-108873534D01*
X94867963Y-109043373D01*
X94885359Y-109220000D01*
X94867963Y-109396627D01*
X94839921Y-109489068D01*
X94816443Y-109566467D01*
X94742348Y-109705087D01*
X94732778Y-109722991D01*
X94703448Y-109758729D01*
X94620186Y-109860186D01*
X94518729Y-109943448D01*
X94482991Y-109972778D01*
X94482989Y-109972779D01*
X94326467Y-110056443D01*
X94269853Y-110073616D01*
X94156627Y-110107963D01*
X94090443Y-110114481D01*
X94024260Y-110121000D01*
X93935740Y-110121000D01*
X93869557Y-110114481D01*
X93803373Y-110107963D01*
X93690147Y-110073616D01*
X93633533Y-110056443D01*
X93477011Y-109972779D01*
X93477009Y-109972778D01*
X93441271Y-109943448D01*
X93339814Y-109860186D01*
X93256552Y-109758729D01*
X93227222Y-109722991D01*
X93217652Y-109705087D01*
X93143557Y-109566467D01*
X93120079Y-109489068D01*
X93092037Y-109396627D01*
X93074641Y-109220000D01*
X93092037Y-109043373D01*
X93143557Y-108873534D01*
X93143557Y-108873533D01*
X93227221Y-108717011D01*
X93227222Y-108717009D01*
X93256552Y-108681271D01*
X93339814Y-108579814D01*
X93441271Y-108496552D01*
X93477009Y-108467222D01*
X93494913Y-108457652D01*
X93633533Y-108383557D01*
X93690147Y-108366384D01*
X93803373Y-108332037D01*
X93869557Y-108325519D01*
X93935740Y-108319000D01*
X94024260Y-108319000D01*
X94090443Y-108325519D01*
X94090443Y-108325519D01*
G37*
G36*
X91550443Y-108325519D02*
X91616627Y-108332037D01*
X91729853Y-108366384D01*
X91786467Y-108383557D01*
X91925087Y-108457652D01*
X91942991Y-108467222D01*
X91978729Y-108496552D01*
X92080186Y-108579814D01*
X92163448Y-108681271D01*
X92192778Y-108717009D01*
X92192779Y-108717011D01*
X92276443Y-108873533D01*
X92276443Y-108873534D01*
X92327963Y-109043373D01*
X92345359Y-109220000D01*
X92327963Y-109396627D01*
X92299921Y-109489068D01*
X92276443Y-109566467D01*
X92202348Y-109705087D01*
X92192778Y-109722991D01*
X92163448Y-109758729D01*
X92080186Y-109860186D01*
X91978729Y-109943448D01*
X91942991Y-109972778D01*
X91942989Y-109972779D01*
X91786467Y-110056443D01*
X91729853Y-110073616D01*
X91616627Y-110107963D01*
X91550443Y-110114481D01*
X91484260Y-110121000D01*
X91395740Y-110121000D01*
X91329557Y-110114481D01*
X91263373Y-110107963D01*
X91150147Y-110073616D01*
X91093533Y-110056443D01*
X90937011Y-109972779D01*
X90937009Y-109972778D01*
X90901271Y-109943448D01*
X90799814Y-109860186D01*
X90716552Y-109758729D01*
X90687222Y-109722991D01*
X90677652Y-109705087D01*
X90603557Y-109566467D01*
X90580079Y-109489068D01*
X90552037Y-109396627D01*
X90534641Y-109220000D01*
X90552037Y-109043373D01*
X90603557Y-108873534D01*
X90603557Y-108873533D01*
X90687221Y-108717011D01*
X90687222Y-108717009D01*
X90716552Y-108681271D01*
X90799814Y-108579814D01*
X90901271Y-108496552D01*
X90937009Y-108467222D01*
X90954913Y-108457652D01*
X91093533Y-108383557D01*
X91150147Y-108366384D01*
X91263373Y-108332037D01*
X91329557Y-108325519D01*
X91395740Y-108319000D01*
X91484260Y-108319000D01*
X91550443Y-108325519D01*
X91550443Y-108325519D01*
G37*
G36*
X170979294Y-107738633D02*
X171151694Y-107790931D01*
X171151696Y-107790932D01*
X171310583Y-107875859D01*
X171310585Y-107875860D01*
X171310584Y-107875860D01*
X171449849Y-107990151D01*
X171564140Y-108129416D01*
X171649069Y-108288306D01*
X171701367Y-108460706D01*
X171719025Y-108640000D01*
X171701367Y-108819294D01*
X171649069Y-108991694D01*
X171649068Y-108991696D01*
X171564141Y-109150583D01*
X171449849Y-109289849D01*
X171310583Y-109404141D01*
X171151696Y-109489068D01*
X171151694Y-109489069D01*
X170979294Y-109541367D01*
X170844931Y-109554600D01*
X170755069Y-109554600D01*
X170620706Y-109541367D01*
X170448306Y-109489069D01*
X170448304Y-109489068D01*
X170289417Y-109404141D01*
X170150151Y-109289849D01*
X170035859Y-109150583D01*
X169950932Y-108991696D01*
X169950931Y-108991694D01*
X169898633Y-108819294D01*
X169880975Y-108640000D01*
X169898633Y-108460706D01*
X169950931Y-108288306D01*
X170035860Y-108129416D01*
X170150151Y-107990151D01*
X170289416Y-107875860D01*
X170289415Y-107875860D01*
X170289417Y-107875859D01*
X170448304Y-107790932D01*
X170448306Y-107790931D01*
X170620706Y-107738633D01*
X170755069Y-107725400D01*
X170844931Y-107725400D01*
X170979294Y-107738633D01*
X170979294Y-107738633D01*
G37*
G36*
X122719294Y-107738633D02*
X122891694Y-107790931D01*
X122891696Y-107790932D01*
X123050583Y-107875859D01*
X123050585Y-107875860D01*
X123050584Y-107875860D01*
X123189849Y-107990151D01*
X123304140Y-108129416D01*
X123389069Y-108288306D01*
X123441367Y-108460706D01*
X123459025Y-108640000D01*
X123441367Y-108819294D01*
X123389069Y-108991694D01*
X123389068Y-108991696D01*
X123304141Y-109150583D01*
X123189849Y-109289849D01*
X123050583Y-109404141D01*
X122891696Y-109489068D01*
X122891694Y-109489069D01*
X122719294Y-109541367D01*
X122584931Y-109554600D01*
X122495069Y-109554600D01*
X122360706Y-109541367D01*
X122188306Y-109489069D01*
X122188304Y-109489068D01*
X122029417Y-109404141D01*
X121890151Y-109289849D01*
X121775859Y-109150583D01*
X121690932Y-108991696D01*
X121690931Y-108991694D01*
X121638633Y-108819294D01*
X121620975Y-108640000D01*
X121638633Y-108460706D01*
X121690931Y-108288306D01*
X121775860Y-108129416D01*
X121890151Y-107990151D01*
X122029416Y-107875860D01*
X122029415Y-107875860D01*
X122029417Y-107875859D01*
X122188304Y-107790932D01*
X122188306Y-107790931D01*
X122360706Y-107738633D01*
X122495069Y-107725400D01*
X122584931Y-107725400D01*
X122719294Y-107738633D01*
X122719294Y-107738633D01*
G37*
G36*
X168439294Y-107738633D02*
X168611694Y-107790931D01*
X168611696Y-107790932D01*
X168770583Y-107875859D01*
X168770585Y-107875860D01*
X168770584Y-107875860D01*
X168909849Y-107990151D01*
X169024140Y-108129416D01*
X169109069Y-108288306D01*
X169161367Y-108460706D01*
X169179025Y-108640000D01*
X169161367Y-108819294D01*
X169109069Y-108991694D01*
X169109068Y-108991696D01*
X169024141Y-109150583D01*
X168909849Y-109289849D01*
X168770583Y-109404141D01*
X168611696Y-109489068D01*
X168611694Y-109489069D01*
X168439294Y-109541367D01*
X168304931Y-109554600D01*
X168215069Y-109554600D01*
X168080706Y-109541367D01*
X167908306Y-109489069D01*
X167908304Y-109489068D01*
X167749417Y-109404141D01*
X167610151Y-109289849D01*
X167495859Y-109150583D01*
X167410932Y-108991696D01*
X167410931Y-108991694D01*
X167358633Y-108819294D01*
X167340975Y-108640000D01*
X167358633Y-108460706D01*
X167410931Y-108288306D01*
X167495860Y-108129416D01*
X167610151Y-107990151D01*
X167749416Y-107875860D01*
X167749415Y-107875860D01*
X167749417Y-107875859D01*
X167908304Y-107790932D01*
X167908306Y-107790931D01*
X168080706Y-107738633D01*
X168215069Y-107725400D01*
X168304931Y-107725400D01*
X168439294Y-107738633D01*
X168439294Y-107738633D01*
G37*
G36*
X120179294Y-107738633D02*
X120351694Y-107790931D01*
X120351696Y-107790932D01*
X120510583Y-107875859D01*
X120510585Y-107875860D01*
X120510584Y-107875860D01*
X120649849Y-107990151D01*
X120764140Y-108129416D01*
X120849069Y-108288306D01*
X120901367Y-108460706D01*
X120919025Y-108640000D01*
X120901367Y-108819294D01*
X120849069Y-108991694D01*
X120849068Y-108991696D01*
X120764141Y-109150583D01*
X120649849Y-109289849D01*
X120510583Y-109404141D01*
X120351696Y-109489068D01*
X120351694Y-109489069D01*
X120179294Y-109541367D01*
X120044931Y-109554600D01*
X119955069Y-109554600D01*
X119820706Y-109541367D01*
X119648306Y-109489069D01*
X119648304Y-109489068D01*
X119489417Y-109404141D01*
X119350151Y-109289849D01*
X119235859Y-109150583D01*
X119150932Y-108991696D01*
X119150931Y-108991694D01*
X119098633Y-108819294D01*
X119080975Y-108640000D01*
X119098633Y-108460706D01*
X119150931Y-108288306D01*
X119235860Y-108129416D01*
X119350151Y-107990151D01*
X119489416Y-107875860D01*
X119489415Y-107875860D01*
X119489417Y-107875859D01*
X119648304Y-107790932D01*
X119648306Y-107790931D01*
X119820706Y-107738633D01*
X119955069Y-107725400D01*
X120044931Y-107725400D01*
X120179294Y-107738633D01*
X120179294Y-107738633D01*
G37*
G36*
X91550443Y-105785519D02*
X91616627Y-105792037D01*
X91729853Y-105826384D01*
X91786467Y-105843557D01*
X91925087Y-105917652D01*
X91942991Y-105927222D01*
X91978729Y-105956552D01*
X92080186Y-106039814D01*
X92163448Y-106141271D01*
X92192778Y-106177009D01*
X92192779Y-106177011D01*
X92276443Y-106333533D01*
X92276443Y-106333534D01*
X92327963Y-106503373D01*
X92345359Y-106680000D01*
X92327963Y-106856627D01*
X92299921Y-106949068D01*
X92276443Y-107026467D01*
X92202348Y-107165087D01*
X92192778Y-107182991D01*
X92163448Y-107218729D01*
X92080186Y-107320186D01*
X91978729Y-107403448D01*
X91942991Y-107432778D01*
X91942989Y-107432779D01*
X91786467Y-107516443D01*
X91729853Y-107533616D01*
X91616627Y-107567963D01*
X91550443Y-107574481D01*
X91484260Y-107581000D01*
X91395740Y-107581000D01*
X91329557Y-107574481D01*
X91263373Y-107567963D01*
X91150147Y-107533616D01*
X91093533Y-107516443D01*
X90937011Y-107432779D01*
X90937009Y-107432778D01*
X90901271Y-107403448D01*
X90799814Y-107320186D01*
X90716552Y-107218729D01*
X90687222Y-107182991D01*
X90677652Y-107165087D01*
X90603557Y-107026467D01*
X90580079Y-106949068D01*
X90552037Y-106856627D01*
X90534641Y-106680000D01*
X90552037Y-106503373D01*
X90603557Y-106333534D01*
X90603557Y-106333533D01*
X90687221Y-106177011D01*
X90687222Y-106177009D01*
X90716552Y-106141271D01*
X90799814Y-106039814D01*
X90901271Y-105956552D01*
X90937009Y-105927222D01*
X90954913Y-105917652D01*
X91093533Y-105843557D01*
X91150147Y-105826384D01*
X91263373Y-105792037D01*
X91329557Y-105785519D01*
X91395740Y-105779000D01*
X91484260Y-105779000D01*
X91550443Y-105785519D01*
X91550443Y-105785519D01*
G37*
G36*
X94090443Y-105785519D02*
X94156627Y-105792037D01*
X94269853Y-105826384D01*
X94326467Y-105843557D01*
X94465087Y-105917652D01*
X94482991Y-105927222D01*
X94518729Y-105956552D01*
X94620186Y-106039814D01*
X94703448Y-106141271D01*
X94732778Y-106177009D01*
X94732779Y-106177011D01*
X94816443Y-106333533D01*
X94816443Y-106333534D01*
X94867963Y-106503373D01*
X94885359Y-106680000D01*
X94867963Y-106856627D01*
X94839921Y-106949068D01*
X94816443Y-107026467D01*
X94742348Y-107165087D01*
X94732778Y-107182991D01*
X94703448Y-107218729D01*
X94620186Y-107320186D01*
X94518729Y-107403448D01*
X94482991Y-107432778D01*
X94482989Y-107432779D01*
X94326467Y-107516443D01*
X94269853Y-107533616D01*
X94156627Y-107567963D01*
X94090443Y-107574481D01*
X94024260Y-107581000D01*
X93935740Y-107581000D01*
X93869557Y-107574481D01*
X93803373Y-107567963D01*
X93690147Y-107533616D01*
X93633533Y-107516443D01*
X93477011Y-107432779D01*
X93477009Y-107432778D01*
X93441271Y-107403448D01*
X93339814Y-107320186D01*
X93256552Y-107218729D01*
X93227222Y-107182991D01*
X93217652Y-107165087D01*
X93143557Y-107026467D01*
X93120079Y-106949068D01*
X93092037Y-106856627D01*
X93074641Y-106680000D01*
X93092037Y-106503373D01*
X93143557Y-106333534D01*
X93143557Y-106333533D01*
X93227221Y-106177011D01*
X93227222Y-106177009D01*
X93256552Y-106141271D01*
X93339814Y-106039814D01*
X93441271Y-105956552D01*
X93477009Y-105927222D01*
X93494913Y-105917652D01*
X93633533Y-105843557D01*
X93690147Y-105826384D01*
X93803373Y-105792037D01*
X93869557Y-105785519D01*
X93935740Y-105779000D01*
X94024260Y-105779000D01*
X94090443Y-105785519D01*
X94090443Y-105785519D01*
G37*
G36*
X122719294Y-105198633D02*
X122891694Y-105250931D01*
X122891696Y-105250932D01*
X123050583Y-105335859D01*
X123050585Y-105335860D01*
X123050584Y-105335860D01*
X123189849Y-105450151D01*
X123304140Y-105589416D01*
X123389069Y-105748306D01*
X123441367Y-105920706D01*
X123459025Y-106100000D01*
X123441367Y-106279294D01*
X123389069Y-106451694D01*
X123389068Y-106451696D01*
X123304141Y-106610583D01*
X123189849Y-106749849D01*
X123050583Y-106864141D01*
X122891696Y-106949068D01*
X122891694Y-106949069D01*
X122719294Y-107001367D01*
X122584931Y-107014600D01*
X122495069Y-107014600D01*
X122360706Y-107001367D01*
X122188306Y-106949069D01*
X122188304Y-106949068D01*
X122029417Y-106864141D01*
X121890151Y-106749849D01*
X121775859Y-106610583D01*
X121690932Y-106451696D01*
X121690931Y-106451694D01*
X121638633Y-106279294D01*
X121620975Y-106100000D01*
X121638633Y-105920706D01*
X121690931Y-105748306D01*
X121775860Y-105589416D01*
X121890151Y-105450151D01*
X122029416Y-105335860D01*
X122029415Y-105335860D01*
X122029417Y-105335859D01*
X122188304Y-105250932D01*
X122188306Y-105250931D01*
X122360706Y-105198633D01*
X122495069Y-105185400D01*
X122584931Y-105185400D01*
X122719294Y-105198633D01*
X122719294Y-105198633D01*
G37*
G36*
X120179294Y-105198633D02*
X120351694Y-105250931D01*
X120351696Y-105250932D01*
X120510583Y-105335859D01*
X120510585Y-105335860D01*
X120510584Y-105335860D01*
X120649849Y-105450151D01*
X120764140Y-105589416D01*
X120849069Y-105748306D01*
X120901367Y-105920706D01*
X120919025Y-106100000D01*
X120901367Y-106279294D01*
X120849069Y-106451694D01*
X120849068Y-106451696D01*
X120764141Y-106610583D01*
X120649849Y-106749849D01*
X120510583Y-106864141D01*
X120351696Y-106949068D01*
X120351694Y-106949069D01*
X120179294Y-107001367D01*
X120044931Y-107014600D01*
X119955069Y-107014600D01*
X119820706Y-107001367D01*
X119648306Y-106949069D01*
X119648304Y-106949068D01*
X119489417Y-106864141D01*
X119350151Y-106749849D01*
X119235859Y-106610583D01*
X119150932Y-106451696D01*
X119150931Y-106451694D01*
X119098633Y-106279294D01*
X119080975Y-106100000D01*
X119098633Y-105920706D01*
X119150931Y-105748306D01*
X119235860Y-105589416D01*
X119350151Y-105450151D01*
X119489416Y-105335860D01*
X119489415Y-105335860D01*
X119489417Y-105335859D01*
X119648304Y-105250932D01*
X119648306Y-105250931D01*
X119820706Y-105198633D01*
X119955069Y-105185400D01*
X120044931Y-105185400D01*
X120179294Y-105198633D01*
X120179294Y-105198633D01*
G37*
G36*
X170979294Y-105198633D02*
X171151694Y-105250931D01*
X171151696Y-105250932D01*
X171310583Y-105335859D01*
X171310585Y-105335860D01*
X171310584Y-105335860D01*
X171449849Y-105450151D01*
X171564140Y-105589416D01*
X171649069Y-105748306D01*
X171701367Y-105920706D01*
X171719025Y-106100000D01*
X171701367Y-106279294D01*
X171649069Y-106451694D01*
X171649068Y-106451696D01*
X171564141Y-106610583D01*
X171449849Y-106749849D01*
X171310583Y-106864141D01*
X171151696Y-106949068D01*
X171151694Y-106949069D01*
X170979294Y-107001367D01*
X170844931Y-107014600D01*
X170755069Y-107014600D01*
X170620706Y-107001367D01*
X170448306Y-106949069D01*
X170448304Y-106949068D01*
X170289417Y-106864141D01*
X170150151Y-106749849D01*
X170035859Y-106610583D01*
X169950932Y-106451696D01*
X169950931Y-106451694D01*
X169898633Y-106279294D01*
X169880975Y-106100000D01*
X169898633Y-105920706D01*
X169950931Y-105748306D01*
X170035860Y-105589416D01*
X170150151Y-105450151D01*
X170289416Y-105335860D01*
X170289415Y-105335860D01*
X170289417Y-105335859D01*
X170448304Y-105250932D01*
X170448306Y-105250931D01*
X170620706Y-105198633D01*
X170755069Y-105185400D01*
X170844931Y-105185400D01*
X170979294Y-105198633D01*
X170979294Y-105198633D01*
G37*
G36*
X168439294Y-105198633D02*
X168611694Y-105250931D01*
X168611696Y-105250932D01*
X168770583Y-105335859D01*
X168770585Y-105335860D01*
X168770584Y-105335860D01*
X168909849Y-105450151D01*
X169024140Y-105589416D01*
X169109069Y-105748306D01*
X169161367Y-105920706D01*
X169179025Y-106100000D01*
X169161367Y-106279294D01*
X169109069Y-106451694D01*
X169109068Y-106451696D01*
X169024141Y-106610583D01*
X168909849Y-106749849D01*
X168770583Y-106864141D01*
X168611696Y-106949068D01*
X168611694Y-106949069D01*
X168439294Y-107001367D01*
X168304931Y-107014600D01*
X168215069Y-107014600D01*
X168080706Y-107001367D01*
X167908306Y-106949069D01*
X167908304Y-106949068D01*
X167749417Y-106864141D01*
X167610151Y-106749849D01*
X167495859Y-106610583D01*
X167410932Y-106451696D01*
X167410931Y-106451694D01*
X167358633Y-106279294D01*
X167340975Y-106100000D01*
X167358633Y-105920706D01*
X167410931Y-105748306D01*
X167495860Y-105589416D01*
X167610151Y-105450151D01*
X167749416Y-105335860D01*
X167749415Y-105335860D01*
X167749417Y-105335859D01*
X167908304Y-105250932D01*
X167908306Y-105250931D01*
X168080706Y-105198633D01*
X168215069Y-105185400D01*
X168304931Y-105185400D01*
X168439294Y-105198633D01*
X168439294Y-105198633D01*
G37*
G36*
X91550443Y-103245519D02*
X91616627Y-103252037D01*
X91729853Y-103286384D01*
X91786467Y-103303557D01*
X91925087Y-103377652D01*
X91942991Y-103387222D01*
X91978729Y-103416552D01*
X92080186Y-103499814D01*
X92163448Y-103601271D01*
X92192778Y-103637009D01*
X92192779Y-103637011D01*
X92276443Y-103793533D01*
X92276443Y-103793534D01*
X92327963Y-103963373D01*
X92345359Y-104140000D01*
X92327963Y-104316627D01*
X92299921Y-104409068D01*
X92276443Y-104486467D01*
X92202348Y-104625087D01*
X92192778Y-104642991D01*
X92163448Y-104678729D01*
X92080186Y-104780186D01*
X91978729Y-104863448D01*
X91942991Y-104892778D01*
X91942989Y-104892779D01*
X91786467Y-104976443D01*
X91729853Y-104993616D01*
X91616627Y-105027963D01*
X91550442Y-105034482D01*
X91484260Y-105041000D01*
X91395740Y-105041000D01*
X91329557Y-105034481D01*
X91263373Y-105027963D01*
X91150147Y-104993616D01*
X91093533Y-104976443D01*
X90937011Y-104892779D01*
X90937009Y-104892778D01*
X90901271Y-104863448D01*
X90799814Y-104780186D01*
X90716552Y-104678729D01*
X90687222Y-104642991D01*
X90677652Y-104625087D01*
X90603557Y-104486467D01*
X90580079Y-104409068D01*
X90552037Y-104316627D01*
X90534641Y-104140000D01*
X90552037Y-103963373D01*
X90603557Y-103793534D01*
X90603557Y-103793533D01*
X90687221Y-103637011D01*
X90687222Y-103637009D01*
X90716552Y-103601271D01*
X90799814Y-103499814D01*
X90901271Y-103416552D01*
X90937009Y-103387222D01*
X90954913Y-103377652D01*
X91093533Y-103303557D01*
X91150147Y-103286384D01*
X91263373Y-103252037D01*
X91329558Y-103245518D01*
X91395740Y-103239000D01*
X91484260Y-103239000D01*
X91550443Y-103245519D01*
X91550443Y-103245519D01*
G37*
G36*
X94090443Y-103245519D02*
X94156627Y-103252037D01*
X94269853Y-103286384D01*
X94326467Y-103303557D01*
X94465087Y-103377652D01*
X94482991Y-103387222D01*
X94518729Y-103416552D01*
X94620186Y-103499814D01*
X94703448Y-103601271D01*
X94732778Y-103637009D01*
X94732779Y-103637011D01*
X94816443Y-103793533D01*
X94816443Y-103793534D01*
X94867963Y-103963373D01*
X94885359Y-104140000D01*
X94867963Y-104316627D01*
X94839921Y-104409068D01*
X94816443Y-104486467D01*
X94742348Y-104625087D01*
X94732778Y-104642991D01*
X94703448Y-104678729D01*
X94620186Y-104780186D01*
X94518729Y-104863448D01*
X94482991Y-104892778D01*
X94482989Y-104892779D01*
X94326467Y-104976443D01*
X94269853Y-104993616D01*
X94156627Y-105027963D01*
X94090442Y-105034482D01*
X94024260Y-105041000D01*
X93935740Y-105041000D01*
X93869557Y-105034481D01*
X93803373Y-105027963D01*
X93690147Y-104993616D01*
X93633533Y-104976443D01*
X93477011Y-104892779D01*
X93477009Y-104892778D01*
X93441271Y-104863448D01*
X93339814Y-104780186D01*
X93256552Y-104678729D01*
X93227222Y-104642991D01*
X93217652Y-104625087D01*
X93143557Y-104486467D01*
X93120079Y-104409068D01*
X93092037Y-104316627D01*
X93074641Y-104140000D01*
X93092037Y-103963373D01*
X93143557Y-103793534D01*
X93143557Y-103793533D01*
X93227221Y-103637011D01*
X93227222Y-103637009D01*
X93256552Y-103601271D01*
X93339814Y-103499814D01*
X93441271Y-103416552D01*
X93477009Y-103387222D01*
X93494913Y-103377652D01*
X93633533Y-103303557D01*
X93690147Y-103286384D01*
X93803373Y-103252037D01*
X93869558Y-103245518D01*
X93935740Y-103239000D01*
X94024260Y-103239000D01*
X94090443Y-103245519D01*
X94090443Y-103245519D01*
G37*
G36*
X120179294Y-102658633D02*
X120351694Y-102710931D01*
X120351696Y-102710932D01*
X120510583Y-102795859D01*
X120510585Y-102795860D01*
X120510584Y-102795860D01*
X120649849Y-102910151D01*
X120764140Y-103049416D01*
X120849069Y-103208306D01*
X120901367Y-103380706D01*
X120919025Y-103560000D01*
X120901367Y-103739294D01*
X120849069Y-103911694D01*
X120849068Y-103911696D01*
X120764141Y-104070583D01*
X120649849Y-104209849D01*
X120510583Y-104324141D01*
X120351696Y-104409068D01*
X120351694Y-104409069D01*
X120179294Y-104461367D01*
X120044931Y-104474600D01*
X119955069Y-104474600D01*
X119820706Y-104461367D01*
X119648306Y-104409069D01*
X119648304Y-104409068D01*
X119489417Y-104324141D01*
X119350151Y-104209849D01*
X119235859Y-104070583D01*
X119150932Y-103911696D01*
X119150931Y-103911694D01*
X119098633Y-103739294D01*
X119080975Y-103560000D01*
X119098633Y-103380706D01*
X119150931Y-103208306D01*
X119235860Y-103049416D01*
X119350151Y-102910151D01*
X119489416Y-102795860D01*
X119489415Y-102795860D01*
X119489417Y-102795859D01*
X119648304Y-102710932D01*
X119648306Y-102710931D01*
X119820706Y-102658633D01*
X119955069Y-102645400D01*
X120044931Y-102645400D01*
X120179294Y-102658633D01*
X120179294Y-102658633D01*
G37*
G36*
X122719294Y-102658633D02*
X122891694Y-102710931D01*
X122891696Y-102710932D01*
X123050583Y-102795859D01*
X123050585Y-102795860D01*
X123050584Y-102795860D01*
X123189849Y-102910151D01*
X123304140Y-103049416D01*
X123389069Y-103208306D01*
X123441367Y-103380706D01*
X123459025Y-103560000D01*
X123441367Y-103739294D01*
X123389069Y-103911694D01*
X123389068Y-103911696D01*
X123304141Y-104070583D01*
X123189849Y-104209849D01*
X123050583Y-104324141D01*
X122891696Y-104409068D01*
X122891694Y-104409069D01*
X122719294Y-104461367D01*
X122584931Y-104474600D01*
X122495069Y-104474600D01*
X122360706Y-104461367D01*
X122188306Y-104409069D01*
X122188304Y-104409068D01*
X122029417Y-104324141D01*
X121890151Y-104209849D01*
X121775859Y-104070583D01*
X121690932Y-103911696D01*
X121690931Y-103911694D01*
X121638633Y-103739294D01*
X121620975Y-103560000D01*
X121638633Y-103380706D01*
X121690931Y-103208306D01*
X121775860Y-103049416D01*
X121890151Y-102910151D01*
X122029416Y-102795860D01*
X122029415Y-102795860D01*
X122029417Y-102795859D01*
X122188304Y-102710932D01*
X122188306Y-102710931D01*
X122360706Y-102658633D01*
X122495069Y-102645400D01*
X122584931Y-102645400D01*
X122719294Y-102658633D01*
X122719294Y-102658633D01*
G37*
G36*
X168439294Y-102658633D02*
X168611694Y-102710931D01*
X168611696Y-102710932D01*
X168770583Y-102795859D01*
X168770585Y-102795860D01*
X168770584Y-102795860D01*
X168909849Y-102910151D01*
X169024140Y-103049416D01*
X169109069Y-103208306D01*
X169161367Y-103380706D01*
X169179025Y-103560000D01*
X169161367Y-103739294D01*
X169109069Y-103911694D01*
X169109068Y-103911696D01*
X169024141Y-104070583D01*
X168909849Y-104209849D01*
X168770583Y-104324141D01*
X168611696Y-104409068D01*
X168611694Y-104409069D01*
X168439294Y-104461367D01*
X168304931Y-104474600D01*
X168215069Y-104474600D01*
X168080706Y-104461367D01*
X167908306Y-104409069D01*
X167908304Y-104409068D01*
X167749417Y-104324141D01*
X167610151Y-104209849D01*
X167495859Y-104070583D01*
X167410932Y-103911696D01*
X167410931Y-103911694D01*
X167358633Y-103739294D01*
X167340975Y-103560000D01*
X167358633Y-103380706D01*
X167410931Y-103208306D01*
X167495860Y-103049416D01*
X167610151Y-102910151D01*
X167749416Y-102795860D01*
X167749415Y-102795860D01*
X167749417Y-102795859D01*
X167908304Y-102710932D01*
X167908306Y-102710931D01*
X168080706Y-102658633D01*
X168215069Y-102645400D01*
X168304931Y-102645400D01*
X168439294Y-102658633D01*
X168439294Y-102658633D01*
G37*
G36*
X170979294Y-102658633D02*
X171151694Y-102710931D01*
X171151696Y-102710932D01*
X171310583Y-102795859D01*
X171310585Y-102795860D01*
X171310584Y-102795860D01*
X171449849Y-102910151D01*
X171564140Y-103049416D01*
X171649069Y-103208306D01*
X171701367Y-103380706D01*
X171719025Y-103560000D01*
X171701367Y-103739294D01*
X171649069Y-103911694D01*
X171649068Y-103911696D01*
X171564141Y-104070583D01*
X171449849Y-104209849D01*
X171310583Y-104324141D01*
X171151696Y-104409068D01*
X171151694Y-104409069D01*
X170979294Y-104461367D01*
X170844931Y-104474600D01*
X170755069Y-104474600D01*
X170620706Y-104461367D01*
X170448306Y-104409069D01*
X170448304Y-104409068D01*
X170289417Y-104324141D01*
X170150151Y-104209849D01*
X170035859Y-104070583D01*
X169950932Y-103911696D01*
X169950931Y-103911694D01*
X169898633Y-103739294D01*
X169880975Y-103560000D01*
X169898633Y-103380706D01*
X169950931Y-103208306D01*
X170035860Y-103049416D01*
X170150151Y-102910151D01*
X170289416Y-102795860D01*
X170289415Y-102795860D01*
X170289417Y-102795859D01*
X170448304Y-102710932D01*
X170448306Y-102710931D01*
X170620706Y-102658633D01*
X170755069Y-102645400D01*
X170844931Y-102645400D01*
X170979294Y-102658633D01*
X170979294Y-102658633D01*
G37*
G36*
X91550443Y-100705519D02*
X91616627Y-100712037D01*
X91729853Y-100746384D01*
X91786467Y-100763557D01*
X91925087Y-100837652D01*
X91942991Y-100847222D01*
X91978729Y-100876552D01*
X92080186Y-100959814D01*
X92163448Y-101061271D01*
X92192778Y-101097009D01*
X92192779Y-101097011D01*
X92276443Y-101253533D01*
X92276443Y-101253534D01*
X92327963Y-101423373D01*
X92345359Y-101600000D01*
X92327963Y-101776627D01*
X92299921Y-101869068D01*
X92276443Y-101946467D01*
X92202348Y-102085087D01*
X92192778Y-102102991D01*
X92163448Y-102138729D01*
X92080186Y-102240186D01*
X91978729Y-102323448D01*
X91942991Y-102352778D01*
X91942989Y-102352779D01*
X91786467Y-102436443D01*
X91729853Y-102453616D01*
X91616627Y-102487963D01*
X91550442Y-102494482D01*
X91484260Y-102501000D01*
X91395740Y-102501000D01*
X91329558Y-102494482D01*
X91263373Y-102487963D01*
X91150147Y-102453616D01*
X91093533Y-102436443D01*
X90937011Y-102352779D01*
X90937009Y-102352778D01*
X90901271Y-102323448D01*
X90799814Y-102240186D01*
X90716552Y-102138729D01*
X90687222Y-102102991D01*
X90677652Y-102085087D01*
X90603557Y-101946467D01*
X90580079Y-101869068D01*
X90552037Y-101776627D01*
X90534641Y-101600000D01*
X90552037Y-101423373D01*
X90603557Y-101253534D01*
X90603557Y-101253533D01*
X90687221Y-101097011D01*
X90687222Y-101097009D01*
X90716552Y-101061271D01*
X90799814Y-100959814D01*
X90901271Y-100876552D01*
X90937009Y-100847222D01*
X90954913Y-100837652D01*
X91093533Y-100763557D01*
X91150147Y-100746384D01*
X91263373Y-100712037D01*
X91329557Y-100705519D01*
X91395740Y-100699000D01*
X91484260Y-100699000D01*
X91550443Y-100705519D01*
X91550443Y-100705519D01*
G37*
G36*
X94090443Y-100705519D02*
X94156627Y-100712037D01*
X94269853Y-100746384D01*
X94326467Y-100763557D01*
X94465087Y-100837652D01*
X94482991Y-100847222D01*
X94518729Y-100876552D01*
X94620186Y-100959814D01*
X94703448Y-101061271D01*
X94732778Y-101097009D01*
X94732779Y-101097011D01*
X94816443Y-101253533D01*
X94816443Y-101253534D01*
X94867963Y-101423373D01*
X94885359Y-101600000D01*
X94867963Y-101776627D01*
X94839921Y-101869068D01*
X94816443Y-101946467D01*
X94742348Y-102085087D01*
X94732778Y-102102991D01*
X94703448Y-102138729D01*
X94620186Y-102240186D01*
X94518729Y-102323448D01*
X94482991Y-102352778D01*
X94482989Y-102352779D01*
X94326467Y-102436443D01*
X94269853Y-102453616D01*
X94156627Y-102487963D01*
X94090442Y-102494482D01*
X94024260Y-102501000D01*
X93935740Y-102501000D01*
X93869558Y-102494482D01*
X93803373Y-102487963D01*
X93690147Y-102453616D01*
X93633533Y-102436443D01*
X93477011Y-102352779D01*
X93477009Y-102352778D01*
X93441271Y-102323448D01*
X93339814Y-102240186D01*
X93256552Y-102138729D01*
X93227222Y-102102991D01*
X93217652Y-102085087D01*
X93143557Y-101946467D01*
X93120079Y-101869068D01*
X93092037Y-101776627D01*
X93074641Y-101600000D01*
X93092037Y-101423373D01*
X93143557Y-101253534D01*
X93143557Y-101253533D01*
X93227221Y-101097011D01*
X93227222Y-101097009D01*
X93256552Y-101061271D01*
X93339814Y-100959814D01*
X93441271Y-100876552D01*
X93477009Y-100847222D01*
X93494913Y-100837652D01*
X93633533Y-100763557D01*
X93690147Y-100746384D01*
X93803373Y-100712037D01*
X93869557Y-100705519D01*
X93935740Y-100699000D01*
X94024260Y-100699000D01*
X94090443Y-100705519D01*
X94090443Y-100705519D01*
G37*
G36*
X122719294Y-100118633D02*
X122891694Y-100170931D01*
X122891696Y-100170932D01*
X123050583Y-100255859D01*
X123050585Y-100255860D01*
X123050584Y-100255860D01*
X123189849Y-100370151D01*
X123304140Y-100509416D01*
X123389069Y-100668306D01*
X123441367Y-100840706D01*
X123459025Y-101020000D01*
X123441367Y-101199294D01*
X123389069Y-101371694D01*
X123389068Y-101371696D01*
X123304141Y-101530583D01*
X123189849Y-101669849D01*
X123050583Y-101784141D01*
X122891696Y-101869068D01*
X122891694Y-101869069D01*
X122719294Y-101921367D01*
X122584931Y-101934600D01*
X122495069Y-101934600D01*
X122360706Y-101921367D01*
X122188306Y-101869069D01*
X122188304Y-101869068D01*
X122029417Y-101784141D01*
X121890151Y-101669849D01*
X121775859Y-101530583D01*
X121690932Y-101371696D01*
X121690931Y-101371694D01*
X121638633Y-101199294D01*
X121620975Y-101020000D01*
X121638633Y-100840706D01*
X121690931Y-100668306D01*
X121775860Y-100509416D01*
X121890151Y-100370151D01*
X122029416Y-100255860D01*
X122029415Y-100255860D01*
X122029417Y-100255859D01*
X122188304Y-100170932D01*
X122188306Y-100170931D01*
X122360706Y-100118633D01*
X122495069Y-100105400D01*
X122584931Y-100105400D01*
X122719294Y-100118633D01*
X122719294Y-100118633D01*
G37*
G36*
X120179294Y-100118633D02*
X120351694Y-100170931D01*
X120351696Y-100170932D01*
X120510583Y-100255859D01*
X120510585Y-100255860D01*
X120510584Y-100255860D01*
X120649849Y-100370151D01*
X120764140Y-100509416D01*
X120849069Y-100668306D01*
X120901367Y-100840706D01*
X120919025Y-101020000D01*
X120901367Y-101199294D01*
X120849069Y-101371694D01*
X120849068Y-101371696D01*
X120764141Y-101530583D01*
X120649849Y-101669849D01*
X120510583Y-101784141D01*
X120351696Y-101869068D01*
X120351694Y-101869069D01*
X120179294Y-101921367D01*
X120044931Y-101934600D01*
X119955069Y-101934600D01*
X119820706Y-101921367D01*
X119648306Y-101869069D01*
X119648304Y-101869068D01*
X119489417Y-101784141D01*
X119350151Y-101669849D01*
X119235859Y-101530583D01*
X119150932Y-101371696D01*
X119150931Y-101371694D01*
X119098633Y-101199294D01*
X119080975Y-101020000D01*
X119098633Y-100840706D01*
X119150931Y-100668306D01*
X119235860Y-100509416D01*
X119350151Y-100370151D01*
X119489416Y-100255860D01*
X119489415Y-100255860D01*
X119489417Y-100255859D01*
X119648304Y-100170932D01*
X119648306Y-100170931D01*
X119820706Y-100118633D01*
X119955069Y-100105400D01*
X120044931Y-100105400D01*
X120179294Y-100118633D01*
X120179294Y-100118633D01*
G37*
G36*
X168439294Y-100118633D02*
X168611694Y-100170931D01*
X168611696Y-100170932D01*
X168770583Y-100255859D01*
X168770585Y-100255860D01*
X168770584Y-100255860D01*
X168909849Y-100370151D01*
X169024140Y-100509416D01*
X169109069Y-100668306D01*
X169161367Y-100840706D01*
X169179025Y-101020000D01*
X169161367Y-101199294D01*
X169109069Y-101371694D01*
X169109068Y-101371696D01*
X169024141Y-101530583D01*
X168909849Y-101669849D01*
X168770583Y-101784141D01*
X168611696Y-101869068D01*
X168611694Y-101869069D01*
X168439294Y-101921367D01*
X168304931Y-101934600D01*
X168215069Y-101934600D01*
X168080706Y-101921367D01*
X167908306Y-101869069D01*
X167908304Y-101869068D01*
X167749417Y-101784141D01*
X167610151Y-101669849D01*
X167495859Y-101530583D01*
X167410932Y-101371696D01*
X167410931Y-101371694D01*
X167358633Y-101199294D01*
X167340975Y-101020000D01*
X167358633Y-100840706D01*
X167410931Y-100668306D01*
X167495860Y-100509416D01*
X167610151Y-100370151D01*
X167749416Y-100255860D01*
X167749415Y-100255860D01*
X167749417Y-100255859D01*
X167908304Y-100170932D01*
X167908306Y-100170931D01*
X168080706Y-100118633D01*
X168215069Y-100105400D01*
X168304931Y-100105400D01*
X168439294Y-100118633D01*
X168439294Y-100118633D01*
G37*
G36*
X170979294Y-100118633D02*
X171151694Y-100170931D01*
X171151696Y-100170932D01*
X171310583Y-100255859D01*
X171310585Y-100255860D01*
X171310584Y-100255860D01*
X171449849Y-100370151D01*
X171564140Y-100509416D01*
X171649069Y-100668306D01*
X171701367Y-100840706D01*
X171719025Y-101020000D01*
X171701367Y-101199294D01*
X171649069Y-101371694D01*
X171649068Y-101371696D01*
X171564141Y-101530583D01*
X171449849Y-101669849D01*
X171310583Y-101784141D01*
X171151696Y-101869068D01*
X171151694Y-101869069D01*
X170979294Y-101921367D01*
X170844931Y-101934600D01*
X170755069Y-101934600D01*
X170620706Y-101921367D01*
X170448306Y-101869069D01*
X170448304Y-101869068D01*
X170289417Y-101784141D01*
X170150151Y-101669849D01*
X170035859Y-101530583D01*
X169950932Y-101371696D01*
X169950931Y-101371694D01*
X169898633Y-101199294D01*
X169880975Y-101020000D01*
X169898633Y-100840706D01*
X169950931Y-100668306D01*
X170035860Y-100509416D01*
X170150151Y-100370151D01*
X170289416Y-100255860D01*
X170289415Y-100255860D01*
X170289417Y-100255859D01*
X170448304Y-100170932D01*
X170448306Y-100170931D01*
X170620706Y-100118633D01*
X170755069Y-100105400D01*
X170844931Y-100105400D01*
X170979294Y-100118633D01*
X170979294Y-100118633D01*
G37*
G36*
X94090443Y-98165519D02*
X94156627Y-98172037D01*
X94269853Y-98206384D01*
X94326467Y-98223557D01*
X94465087Y-98297652D01*
X94482991Y-98307222D01*
X94518729Y-98336552D01*
X94620186Y-98419814D01*
X94703448Y-98521271D01*
X94732778Y-98557009D01*
X94732779Y-98557011D01*
X94816443Y-98713533D01*
X94816443Y-98713534D01*
X94867963Y-98883373D01*
X94885359Y-99060000D01*
X94867963Y-99236627D01*
X94839921Y-99329068D01*
X94816443Y-99406467D01*
X94742348Y-99545087D01*
X94732778Y-99562991D01*
X94703448Y-99598729D01*
X94620186Y-99700186D01*
X94518729Y-99783448D01*
X94482991Y-99812778D01*
X94482989Y-99812779D01*
X94326467Y-99896443D01*
X94269853Y-99913616D01*
X94156627Y-99947963D01*
X94090443Y-99954481D01*
X94024260Y-99961000D01*
X93935740Y-99961000D01*
X93869557Y-99954481D01*
X93803373Y-99947963D01*
X93690147Y-99913616D01*
X93633533Y-99896443D01*
X93477011Y-99812779D01*
X93477009Y-99812778D01*
X93441271Y-99783448D01*
X93339814Y-99700186D01*
X93256552Y-99598729D01*
X93227222Y-99562991D01*
X93217652Y-99545087D01*
X93143557Y-99406467D01*
X93120079Y-99329068D01*
X93092037Y-99236627D01*
X93074641Y-99060000D01*
X93092037Y-98883373D01*
X93143557Y-98713534D01*
X93143557Y-98713533D01*
X93227221Y-98557011D01*
X93227222Y-98557009D01*
X93256552Y-98521271D01*
X93339814Y-98419814D01*
X93441271Y-98336552D01*
X93477009Y-98307222D01*
X93494913Y-98297652D01*
X93633533Y-98223557D01*
X93690147Y-98206384D01*
X93803373Y-98172037D01*
X93869557Y-98165519D01*
X93935740Y-98159000D01*
X94024260Y-98159000D01*
X94090443Y-98165519D01*
X94090443Y-98165519D01*
G37*
G36*
X91550443Y-98165519D02*
X91616627Y-98172037D01*
X91729853Y-98206384D01*
X91786467Y-98223557D01*
X91925087Y-98297652D01*
X91942991Y-98307222D01*
X91978729Y-98336552D01*
X92080186Y-98419814D01*
X92163448Y-98521271D01*
X92192778Y-98557009D01*
X92192779Y-98557011D01*
X92276443Y-98713533D01*
X92276443Y-98713534D01*
X92327963Y-98883373D01*
X92345359Y-99060000D01*
X92327963Y-99236627D01*
X92299921Y-99329068D01*
X92276443Y-99406467D01*
X92202348Y-99545087D01*
X92192778Y-99562991D01*
X92163448Y-99598729D01*
X92080186Y-99700186D01*
X91978729Y-99783448D01*
X91942991Y-99812778D01*
X91942989Y-99812779D01*
X91786467Y-99896443D01*
X91729853Y-99913616D01*
X91616627Y-99947963D01*
X91550443Y-99954481D01*
X91484260Y-99961000D01*
X91395740Y-99961000D01*
X91329557Y-99954481D01*
X91263373Y-99947963D01*
X91150147Y-99913616D01*
X91093533Y-99896443D01*
X90937011Y-99812779D01*
X90937009Y-99812778D01*
X90901271Y-99783448D01*
X90799814Y-99700186D01*
X90716552Y-99598729D01*
X90687222Y-99562991D01*
X90677652Y-99545087D01*
X90603557Y-99406467D01*
X90580079Y-99329068D01*
X90552037Y-99236627D01*
X90534641Y-99060000D01*
X90552037Y-98883373D01*
X90603557Y-98713534D01*
X90603557Y-98713533D01*
X90687221Y-98557011D01*
X90687222Y-98557009D01*
X90716552Y-98521271D01*
X90799814Y-98419814D01*
X90901271Y-98336552D01*
X90937009Y-98307222D01*
X90954913Y-98297652D01*
X91093533Y-98223557D01*
X91150147Y-98206384D01*
X91263373Y-98172037D01*
X91329557Y-98165519D01*
X91395740Y-98159000D01*
X91484260Y-98159000D01*
X91550443Y-98165519D01*
X91550443Y-98165519D01*
G37*
G36*
X122719294Y-97578633D02*
X122891694Y-97630931D01*
X122891696Y-97630932D01*
X123050583Y-97715859D01*
X123050585Y-97715860D01*
X123050584Y-97715860D01*
X123189849Y-97830151D01*
X123304140Y-97969416D01*
X123389069Y-98128306D01*
X123441367Y-98300706D01*
X123459025Y-98480000D01*
X123441367Y-98659294D01*
X123389069Y-98831694D01*
X123389068Y-98831696D01*
X123304141Y-98990583D01*
X123189849Y-99129849D01*
X123050583Y-99244141D01*
X122891696Y-99329068D01*
X122891694Y-99329069D01*
X122719294Y-99381367D01*
X122584931Y-99394600D01*
X122495069Y-99394600D01*
X122360706Y-99381367D01*
X122188306Y-99329069D01*
X122188304Y-99329068D01*
X122029417Y-99244141D01*
X121890151Y-99129849D01*
X121775859Y-98990583D01*
X121690932Y-98831696D01*
X121690931Y-98831694D01*
X121638633Y-98659294D01*
X121620975Y-98480000D01*
X121638633Y-98300706D01*
X121690931Y-98128306D01*
X121775860Y-97969416D01*
X121890151Y-97830151D01*
X122029416Y-97715860D01*
X122029415Y-97715860D01*
X122029417Y-97715859D01*
X122188304Y-97630932D01*
X122188306Y-97630931D01*
X122360706Y-97578633D01*
X122495069Y-97565400D01*
X122584931Y-97565400D01*
X122719294Y-97578633D01*
X122719294Y-97578633D01*
G37*
G36*
X168439294Y-97578633D02*
X168611694Y-97630931D01*
X168611696Y-97630932D01*
X168770583Y-97715859D01*
X168770585Y-97715860D01*
X168770584Y-97715860D01*
X168909849Y-97830151D01*
X169024140Y-97969416D01*
X169109069Y-98128306D01*
X169161367Y-98300706D01*
X169179025Y-98480000D01*
X169161367Y-98659294D01*
X169109069Y-98831694D01*
X169109068Y-98831696D01*
X169024141Y-98990583D01*
X168909849Y-99129849D01*
X168770583Y-99244141D01*
X168611696Y-99329068D01*
X168611694Y-99329069D01*
X168439294Y-99381367D01*
X168304931Y-99394600D01*
X168215069Y-99394600D01*
X168080706Y-99381367D01*
X167908306Y-99329069D01*
X167908304Y-99329068D01*
X167749417Y-99244141D01*
X167610151Y-99129849D01*
X167495859Y-98990583D01*
X167410932Y-98831696D01*
X167410931Y-98831694D01*
X167358633Y-98659294D01*
X167340975Y-98480000D01*
X167358633Y-98300706D01*
X167410931Y-98128306D01*
X167495860Y-97969416D01*
X167610151Y-97830151D01*
X167749416Y-97715860D01*
X167749415Y-97715860D01*
X167749417Y-97715859D01*
X167908304Y-97630932D01*
X167908306Y-97630931D01*
X168080706Y-97578633D01*
X168215069Y-97565400D01*
X168304931Y-97565400D01*
X168439294Y-97578633D01*
X168439294Y-97578633D01*
G37*
G36*
X170979294Y-97578633D02*
X171151694Y-97630931D01*
X171151696Y-97630932D01*
X171310583Y-97715859D01*
X171310585Y-97715860D01*
X171310584Y-97715860D01*
X171449849Y-97830151D01*
X171564140Y-97969416D01*
X171649069Y-98128306D01*
X171701367Y-98300706D01*
X171719025Y-98480000D01*
X171701367Y-98659294D01*
X171649069Y-98831694D01*
X171649068Y-98831696D01*
X171564141Y-98990583D01*
X171449849Y-99129849D01*
X171310583Y-99244141D01*
X171151696Y-99329068D01*
X171151694Y-99329069D01*
X170979294Y-99381367D01*
X170844931Y-99394600D01*
X170755069Y-99394600D01*
X170620706Y-99381367D01*
X170448306Y-99329069D01*
X170448304Y-99329068D01*
X170289417Y-99244141D01*
X170150151Y-99129849D01*
X170035859Y-98990583D01*
X169950932Y-98831696D01*
X169950931Y-98831694D01*
X169898633Y-98659294D01*
X169880975Y-98480000D01*
X169898633Y-98300706D01*
X169950931Y-98128306D01*
X170035860Y-97969416D01*
X170150151Y-97830151D01*
X170289416Y-97715860D01*
X170289415Y-97715860D01*
X170289417Y-97715859D01*
X170448304Y-97630932D01*
X170448306Y-97630931D01*
X170620706Y-97578633D01*
X170755069Y-97565400D01*
X170844931Y-97565400D01*
X170979294Y-97578633D01*
X170979294Y-97578633D01*
G37*
G36*
X120179294Y-97578633D02*
X120351694Y-97630931D01*
X120351696Y-97630932D01*
X120510583Y-97715859D01*
X120510585Y-97715860D01*
X120510584Y-97715860D01*
X120649849Y-97830151D01*
X120764140Y-97969416D01*
X120849069Y-98128306D01*
X120901367Y-98300706D01*
X120919025Y-98480000D01*
X120901367Y-98659294D01*
X120849069Y-98831694D01*
X120849068Y-98831696D01*
X120764141Y-98990583D01*
X120649849Y-99129849D01*
X120510583Y-99244141D01*
X120351696Y-99329068D01*
X120351694Y-99329069D01*
X120179294Y-99381367D01*
X120044931Y-99394600D01*
X119955069Y-99394600D01*
X119820706Y-99381367D01*
X119648306Y-99329069D01*
X119648304Y-99329068D01*
X119489417Y-99244141D01*
X119350151Y-99129849D01*
X119235859Y-98990583D01*
X119150932Y-98831696D01*
X119150931Y-98831694D01*
X119098633Y-98659294D01*
X119080975Y-98480000D01*
X119098633Y-98300706D01*
X119150931Y-98128306D01*
X119235860Y-97969416D01*
X119350151Y-97830151D01*
X119489416Y-97715860D01*
X119489415Y-97715860D01*
X119489417Y-97715859D01*
X119648304Y-97630932D01*
X119648306Y-97630931D01*
X119820706Y-97578633D01*
X119955069Y-97565400D01*
X120044931Y-97565400D01*
X120179294Y-97578633D01*
X120179294Y-97578633D01*
G37*
G36*
X91550442Y-95625518D02*
X91616627Y-95632037D01*
X91729853Y-95666384D01*
X91786467Y-95683557D01*
X91925087Y-95757652D01*
X91942991Y-95767222D01*
X91978729Y-95796552D01*
X92080186Y-95879814D01*
X92163448Y-95981271D01*
X92192778Y-96017009D01*
X92192779Y-96017011D01*
X92276443Y-96173533D01*
X92276443Y-96173534D01*
X92327963Y-96343373D01*
X92345359Y-96520000D01*
X92327963Y-96696627D01*
X92299921Y-96789068D01*
X92276443Y-96866467D01*
X92202348Y-97005087D01*
X92192778Y-97022991D01*
X92163448Y-97058729D01*
X92080186Y-97160186D01*
X91978729Y-97243448D01*
X91942991Y-97272778D01*
X91942989Y-97272779D01*
X91786467Y-97356443D01*
X91729853Y-97373616D01*
X91616627Y-97407963D01*
X91550442Y-97414482D01*
X91484260Y-97421000D01*
X91395740Y-97421000D01*
X91329558Y-97414482D01*
X91263373Y-97407963D01*
X91150147Y-97373616D01*
X91093533Y-97356443D01*
X90937011Y-97272779D01*
X90937009Y-97272778D01*
X90901271Y-97243448D01*
X90799814Y-97160186D01*
X90716552Y-97058729D01*
X90687222Y-97022991D01*
X90677652Y-97005087D01*
X90603557Y-96866467D01*
X90580079Y-96789068D01*
X90552037Y-96696627D01*
X90534641Y-96520000D01*
X90552037Y-96343373D01*
X90603557Y-96173534D01*
X90603557Y-96173533D01*
X90687221Y-96017011D01*
X90687222Y-96017009D01*
X90716552Y-95981271D01*
X90799814Y-95879814D01*
X90901271Y-95796552D01*
X90937009Y-95767222D01*
X90954913Y-95757652D01*
X91093533Y-95683557D01*
X91150147Y-95666384D01*
X91263373Y-95632037D01*
X91329558Y-95625518D01*
X91395740Y-95619000D01*
X91484260Y-95619000D01*
X91550442Y-95625518D01*
X91550442Y-95625518D01*
G37*
G36*
X94090442Y-95625518D02*
X94156627Y-95632037D01*
X94269853Y-95666384D01*
X94326467Y-95683557D01*
X94465087Y-95757652D01*
X94482991Y-95767222D01*
X94518729Y-95796552D01*
X94620186Y-95879814D01*
X94703448Y-95981271D01*
X94732778Y-96017009D01*
X94732779Y-96017011D01*
X94816443Y-96173533D01*
X94816443Y-96173534D01*
X94867963Y-96343373D01*
X94885359Y-96520000D01*
X94867963Y-96696627D01*
X94839921Y-96789068D01*
X94816443Y-96866467D01*
X94742348Y-97005087D01*
X94732778Y-97022991D01*
X94703448Y-97058729D01*
X94620186Y-97160186D01*
X94518729Y-97243448D01*
X94482991Y-97272778D01*
X94482989Y-97272779D01*
X94326467Y-97356443D01*
X94269853Y-97373616D01*
X94156627Y-97407963D01*
X94090442Y-97414482D01*
X94024260Y-97421000D01*
X93935740Y-97421000D01*
X93869558Y-97414482D01*
X93803373Y-97407963D01*
X93690147Y-97373616D01*
X93633533Y-97356443D01*
X93477011Y-97272779D01*
X93477009Y-97272778D01*
X93441271Y-97243448D01*
X93339814Y-97160186D01*
X93256552Y-97058729D01*
X93227222Y-97022991D01*
X93217652Y-97005087D01*
X93143557Y-96866467D01*
X93120079Y-96789068D01*
X93092037Y-96696627D01*
X93074641Y-96520000D01*
X93092037Y-96343373D01*
X93143557Y-96173534D01*
X93143557Y-96173533D01*
X93227221Y-96017011D01*
X93227222Y-96017009D01*
X93256552Y-95981271D01*
X93339814Y-95879814D01*
X93441271Y-95796552D01*
X93477009Y-95767222D01*
X93494913Y-95757652D01*
X93633533Y-95683557D01*
X93690147Y-95666384D01*
X93803373Y-95632037D01*
X93869558Y-95625518D01*
X93935740Y-95619000D01*
X94024260Y-95619000D01*
X94090442Y-95625518D01*
X94090442Y-95625518D01*
G37*
G36*
X120179294Y-95038633D02*
X120351694Y-95090931D01*
X120351696Y-95090932D01*
X120510583Y-95175859D01*
X120510585Y-95175860D01*
X120510584Y-95175860D01*
X120649849Y-95290151D01*
X120764140Y-95429416D01*
X120849069Y-95588306D01*
X120901367Y-95760706D01*
X120919025Y-95940000D01*
X120901367Y-96119294D01*
X120849069Y-96291694D01*
X120849068Y-96291696D01*
X120764141Y-96450583D01*
X120649849Y-96589849D01*
X120510583Y-96704141D01*
X120351696Y-96789068D01*
X120351694Y-96789069D01*
X120179294Y-96841367D01*
X120044931Y-96854600D01*
X119955069Y-96854600D01*
X119820706Y-96841367D01*
X119648306Y-96789069D01*
X119648304Y-96789068D01*
X119489417Y-96704141D01*
X119350151Y-96589849D01*
X119235859Y-96450583D01*
X119150932Y-96291696D01*
X119150931Y-96291694D01*
X119098633Y-96119294D01*
X119080975Y-95940000D01*
X119098633Y-95760706D01*
X119150931Y-95588306D01*
X119235860Y-95429416D01*
X119350151Y-95290151D01*
X119489416Y-95175860D01*
X119489415Y-95175860D01*
X119489417Y-95175859D01*
X119648304Y-95090932D01*
X119648306Y-95090931D01*
X119820706Y-95038633D01*
X119955069Y-95025400D01*
X120044931Y-95025400D01*
X120179294Y-95038633D01*
X120179294Y-95038633D01*
G37*
G36*
X170979294Y-95038633D02*
X171151694Y-95090931D01*
X171151696Y-95090932D01*
X171310583Y-95175859D01*
X171310585Y-95175860D01*
X171310584Y-95175860D01*
X171449849Y-95290151D01*
X171564140Y-95429416D01*
X171649069Y-95588306D01*
X171701367Y-95760706D01*
X171719025Y-95940000D01*
X171701367Y-96119294D01*
X171649069Y-96291694D01*
X171649068Y-96291696D01*
X171564141Y-96450583D01*
X171449849Y-96589849D01*
X171310583Y-96704141D01*
X171151696Y-96789068D01*
X171151694Y-96789069D01*
X170979294Y-96841367D01*
X170844931Y-96854600D01*
X170755069Y-96854600D01*
X170620706Y-96841367D01*
X170448306Y-96789069D01*
X170448304Y-96789068D01*
X170289417Y-96704141D01*
X170150151Y-96589849D01*
X170035859Y-96450583D01*
X169950932Y-96291696D01*
X169950931Y-96291694D01*
X169898633Y-96119294D01*
X169880975Y-95940000D01*
X169898633Y-95760706D01*
X169950931Y-95588306D01*
X170035860Y-95429416D01*
X170150151Y-95290151D01*
X170289416Y-95175860D01*
X170289415Y-95175860D01*
X170289417Y-95175859D01*
X170448304Y-95090932D01*
X170448306Y-95090931D01*
X170620706Y-95038633D01*
X170755069Y-95025400D01*
X170844931Y-95025400D01*
X170979294Y-95038633D01*
X170979294Y-95038633D01*
G37*
G36*
X122719294Y-95038633D02*
X122891694Y-95090931D01*
X122891696Y-95090932D01*
X123050583Y-95175859D01*
X123050585Y-95175860D01*
X123050584Y-95175860D01*
X123189849Y-95290151D01*
X123304140Y-95429416D01*
X123389069Y-95588306D01*
X123441367Y-95760706D01*
X123459025Y-95940000D01*
X123441367Y-96119294D01*
X123389069Y-96291694D01*
X123389068Y-96291696D01*
X123304141Y-96450583D01*
X123189849Y-96589849D01*
X123050583Y-96704141D01*
X122891696Y-96789068D01*
X122891694Y-96789069D01*
X122719294Y-96841367D01*
X122584931Y-96854600D01*
X122495069Y-96854600D01*
X122360706Y-96841367D01*
X122188306Y-96789069D01*
X122188304Y-96789068D01*
X122029417Y-96704141D01*
X121890151Y-96589849D01*
X121775859Y-96450583D01*
X121690932Y-96291696D01*
X121690931Y-96291694D01*
X121638633Y-96119294D01*
X121620975Y-95940000D01*
X121638633Y-95760706D01*
X121690931Y-95588306D01*
X121775860Y-95429416D01*
X121890151Y-95290151D01*
X122029416Y-95175860D01*
X122029415Y-95175860D01*
X122029417Y-95175859D01*
X122188304Y-95090932D01*
X122188306Y-95090931D01*
X122360706Y-95038633D01*
X122495069Y-95025400D01*
X122584931Y-95025400D01*
X122719294Y-95038633D01*
X122719294Y-95038633D01*
G37*
G36*
X168439294Y-95038633D02*
X168611694Y-95090931D01*
X168611696Y-95090932D01*
X168770583Y-95175859D01*
X168770585Y-95175860D01*
X168770584Y-95175860D01*
X168909849Y-95290151D01*
X169024140Y-95429416D01*
X169109069Y-95588306D01*
X169161367Y-95760706D01*
X169179025Y-95940000D01*
X169161367Y-96119294D01*
X169109069Y-96291694D01*
X169109068Y-96291696D01*
X169024141Y-96450583D01*
X168909849Y-96589849D01*
X168770583Y-96704141D01*
X168611696Y-96789068D01*
X168611694Y-96789069D01*
X168439294Y-96841367D01*
X168304931Y-96854600D01*
X168215069Y-96854600D01*
X168080706Y-96841367D01*
X167908306Y-96789069D01*
X167908304Y-96789068D01*
X167749417Y-96704141D01*
X167610151Y-96589849D01*
X167495859Y-96450583D01*
X167410932Y-96291696D01*
X167410931Y-96291694D01*
X167358633Y-96119294D01*
X167340975Y-95940000D01*
X167358633Y-95760706D01*
X167410931Y-95588306D01*
X167495860Y-95429416D01*
X167610151Y-95290151D01*
X167749416Y-95175860D01*
X167749415Y-95175860D01*
X167749417Y-95175859D01*
X167908304Y-95090932D01*
X167908306Y-95090931D01*
X168080706Y-95038633D01*
X168215069Y-95025400D01*
X168304931Y-95025400D01*
X168439294Y-95038633D01*
X168439294Y-95038633D01*
G37*
G36*
X94090443Y-93085519D02*
X94156627Y-93092037D01*
X94269853Y-93126384D01*
X94326467Y-93143557D01*
X94465087Y-93217652D01*
X94482991Y-93227222D01*
X94518729Y-93256552D01*
X94620186Y-93339814D01*
X94703448Y-93441271D01*
X94732778Y-93477009D01*
X94732779Y-93477011D01*
X94816443Y-93633533D01*
X94816443Y-93633534D01*
X94867963Y-93803373D01*
X94885359Y-93980000D01*
X94867963Y-94156627D01*
X94839921Y-94249068D01*
X94816443Y-94326467D01*
X94742348Y-94465087D01*
X94732778Y-94482991D01*
X94703448Y-94518729D01*
X94620186Y-94620186D01*
X94518729Y-94703448D01*
X94482991Y-94732778D01*
X94482989Y-94732779D01*
X94326467Y-94816443D01*
X94269853Y-94833616D01*
X94156627Y-94867963D01*
X94090443Y-94874481D01*
X94024260Y-94881000D01*
X93935740Y-94881000D01*
X93869557Y-94874481D01*
X93803373Y-94867963D01*
X93690147Y-94833616D01*
X93633533Y-94816443D01*
X93477011Y-94732779D01*
X93477009Y-94732778D01*
X93441271Y-94703448D01*
X93339814Y-94620186D01*
X93256552Y-94518729D01*
X93227222Y-94482991D01*
X93217652Y-94465087D01*
X93143557Y-94326467D01*
X93120079Y-94249068D01*
X93092037Y-94156627D01*
X93074641Y-93980000D01*
X93092037Y-93803373D01*
X93143557Y-93633534D01*
X93143557Y-93633533D01*
X93227221Y-93477011D01*
X93227222Y-93477009D01*
X93256552Y-93441271D01*
X93339814Y-93339814D01*
X93441271Y-93256552D01*
X93477009Y-93227222D01*
X93494913Y-93217652D01*
X93633533Y-93143557D01*
X93690147Y-93126384D01*
X93803373Y-93092037D01*
X93869557Y-93085519D01*
X93935740Y-93079000D01*
X94024260Y-93079000D01*
X94090443Y-93085519D01*
X94090443Y-93085519D01*
G37*
G36*
X91550443Y-93085519D02*
X91616627Y-93092037D01*
X91729853Y-93126384D01*
X91786467Y-93143557D01*
X91925087Y-93217652D01*
X91942991Y-93227222D01*
X91978729Y-93256552D01*
X92080186Y-93339814D01*
X92163448Y-93441271D01*
X92192778Y-93477009D01*
X92192779Y-93477011D01*
X92276443Y-93633533D01*
X92276443Y-93633534D01*
X92327963Y-93803373D01*
X92345359Y-93980000D01*
X92327963Y-94156627D01*
X92299921Y-94249068D01*
X92276443Y-94326467D01*
X92202348Y-94465087D01*
X92192778Y-94482991D01*
X92163448Y-94518729D01*
X92080186Y-94620186D01*
X91978729Y-94703448D01*
X91942991Y-94732778D01*
X91942989Y-94732779D01*
X91786467Y-94816443D01*
X91729853Y-94833616D01*
X91616627Y-94867963D01*
X91550443Y-94874481D01*
X91484260Y-94881000D01*
X91395740Y-94881000D01*
X91329557Y-94874481D01*
X91263373Y-94867963D01*
X91150147Y-94833616D01*
X91093533Y-94816443D01*
X90937011Y-94732779D01*
X90937009Y-94732778D01*
X90901271Y-94703448D01*
X90799814Y-94620186D01*
X90716552Y-94518729D01*
X90687222Y-94482991D01*
X90677652Y-94465087D01*
X90603557Y-94326467D01*
X90580079Y-94249068D01*
X90552037Y-94156627D01*
X90534641Y-93980000D01*
X90552037Y-93803373D01*
X90603557Y-93633534D01*
X90603557Y-93633533D01*
X90687221Y-93477011D01*
X90687222Y-93477009D01*
X90716552Y-93441271D01*
X90799814Y-93339814D01*
X90901271Y-93256552D01*
X90937009Y-93227222D01*
X90954913Y-93217652D01*
X91093533Y-93143557D01*
X91150147Y-93126384D01*
X91263373Y-93092037D01*
X91329557Y-93085519D01*
X91395740Y-93079000D01*
X91484260Y-93079000D01*
X91550443Y-93085519D01*
X91550443Y-93085519D01*
G37*
G36*
X122719294Y-92498633D02*
X122891694Y-92550931D01*
X122891696Y-92550932D01*
X123050583Y-92635859D01*
X123050585Y-92635860D01*
X123050584Y-92635860D01*
X123189849Y-92750151D01*
X123304140Y-92889416D01*
X123389069Y-93048306D01*
X123441367Y-93220706D01*
X123459025Y-93400000D01*
X123441367Y-93579294D01*
X123389069Y-93751694D01*
X123389068Y-93751696D01*
X123304141Y-93910583D01*
X123189849Y-94049849D01*
X123050583Y-94164141D01*
X122891696Y-94249068D01*
X122891694Y-94249069D01*
X122719294Y-94301367D01*
X122584931Y-94314600D01*
X122495069Y-94314600D01*
X122360706Y-94301367D01*
X122188306Y-94249069D01*
X122188304Y-94249068D01*
X122029417Y-94164141D01*
X121890151Y-94049849D01*
X121775859Y-93910583D01*
X121690932Y-93751696D01*
X121690931Y-93751694D01*
X121638633Y-93579294D01*
X121620975Y-93400000D01*
X121638633Y-93220706D01*
X121690931Y-93048306D01*
X121775860Y-92889416D01*
X121890151Y-92750151D01*
X122029416Y-92635860D01*
X122029415Y-92635860D01*
X122029417Y-92635859D01*
X122188304Y-92550932D01*
X122188306Y-92550931D01*
X122360706Y-92498633D01*
X122495069Y-92485400D01*
X122584931Y-92485400D01*
X122719294Y-92498633D01*
X122719294Y-92498633D01*
G37*
G36*
X120179294Y-92498633D02*
X120351694Y-92550931D01*
X120351696Y-92550932D01*
X120510583Y-92635859D01*
X120510585Y-92635860D01*
X120510584Y-92635860D01*
X120649849Y-92750151D01*
X120764140Y-92889416D01*
X120849069Y-93048306D01*
X120901367Y-93220706D01*
X120919025Y-93400000D01*
X120901367Y-93579294D01*
X120849069Y-93751694D01*
X120849068Y-93751696D01*
X120764141Y-93910583D01*
X120649849Y-94049849D01*
X120510583Y-94164141D01*
X120351696Y-94249068D01*
X120351694Y-94249069D01*
X120179294Y-94301367D01*
X120044931Y-94314600D01*
X119955069Y-94314600D01*
X119820706Y-94301367D01*
X119648306Y-94249069D01*
X119648304Y-94249068D01*
X119489417Y-94164141D01*
X119350151Y-94049849D01*
X119235859Y-93910583D01*
X119150932Y-93751696D01*
X119150931Y-93751694D01*
X119098633Y-93579294D01*
X119080975Y-93400000D01*
X119098633Y-93220706D01*
X119150931Y-93048306D01*
X119235860Y-92889416D01*
X119350151Y-92750151D01*
X119489416Y-92635860D01*
X119489415Y-92635860D01*
X119489417Y-92635859D01*
X119648304Y-92550932D01*
X119648306Y-92550931D01*
X119820706Y-92498633D01*
X119955069Y-92485400D01*
X120044931Y-92485400D01*
X120179294Y-92498633D01*
X120179294Y-92498633D01*
G37*
G36*
X170979294Y-92498633D02*
X171151694Y-92550931D01*
X171151696Y-92550932D01*
X171310583Y-92635859D01*
X171310585Y-92635860D01*
X171310584Y-92635860D01*
X171449849Y-92750151D01*
X171564140Y-92889416D01*
X171649069Y-93048306D01*
X171701367Y-93220706D01*
X171719025Y-93400000D01*
X171701367Y-93579294D01*
X171649069Y-93751694D01*
X171649068Y-93751696D01*
X171564141Y-93910583D01*
X171449849Y-94049849D01*
X171310583Y-94164141D01*
X171151696Y-94249068D01*
X171151694Y-94249069D01*
X170979294Y-94301367D01*
X170844931Y-94314600D01*
X170755069Y-94314600D01*
X170620706Y-94301367D01*
X170448306Y-94249069D01*
X170448304Y-94249068D01*
X170289417Y-94164141D01*
X170150151Y-94049849D01*
X170035859Y-93910583D01*
X169950932Y-93751696D01*
X169950931Y-93751694D01*
X169898633Y-93579294D01*
X169880975Y-93400000D01*
X169898633Y-93220706D01*
X169950931Y-93048306D01*
X170035860Y-92889416D01*
X170150151Y-92750151D01*
X170289416Y-92635860D01*
X170289415Y-92635860D01*
X170289417Y-92635859D01*
X170448304Y-92550932D01*
X170448306Y-92550931D01*
X170620706Y-92498633D01*
X170755069Y-92485400D01*
X170844931Y-92485400D01*
X170979294Y-92498633D01*
X170979294Y-92498633D01*
G37*
G36*
X168439294Y-92498633D02*
X168611694Y-92550931D01*
X168611696Y-92550932D01*
X168770583Y-92635859D01*
X168770585Y-92635860D01*
X168770584Y-92635860D01*
X168909849Y-92750151D01*
X169024140Y-92889416D01*
X169109069Y-93048306D01*
X169161367Y-93220706D01*
X169179025Y-93400000D01*
X169161367Y-93579294D01*
X169109069Y-93751694D01*
X169109068Y-93751696D01*
X169024141Y-93910583D01*
X168909849Y-94049849D01*
X168770583Y-94164141D01*
X168611696Y-94249068D01*
X168611694Y-94249069D01*
X168439294Y-94301367D01*
X168304931Y-94314600D01*
X168215069Y-94314600D01*
X168080706Y-94301367D01*
X167908306Y-94249069D01*
X167908304Y-94249068D01*
X167749417Y-94164141D01*
X167610151Y-94049849D01*
X167495859Y-93910583D01*
X167410932Y-93751696D01*
X167410931Y-93751694D01*
X167358633Y-93579294D01*
X167340975Y-93400000D01*
X167358633Y-93220706D01*
X167410931Y-93048306D01*
X167495860Y-92889416D01*
X167610151Y-92750151D01*
X167749416Y-92635860D01*
X167749415Y-92635860D01*
X167749417Y-92635859D01*
X167908304Y-92550932D01*
X167908306Y-92550931D01*
X168080706Y-92498633D01*
X168215069Y-92485400D01*
X168304931Y-92485400D01*
X168439294Y-92498633D01*
X168439294Y-92498633D01*
G37*
G36*
X91550443Y-90545519D02*
X91616627Y-90552037D01*
X91729853Y-90586384D01*
X91786467Y-90603557D01*
X91925087Y-90677652D01*
X91942991Y-90687222D01*
X91978729Y-90716552D01*
X92080186Y-90799814D01*
X92163448Y-90901271D01*
X92192778Y-90937009D01*
X92192779Y-90937011D01*
X92276443Y-91093533D01*
X92276443Y-91093534D01*
X92327963Y-91263373D01*
X92345359Y-91440000D01*
X92327963Y-91616627D01*
X92299921Y-91709068D01*
X92276443Y-91786467D01*
X92202348Y-91925087D01*
X92192778Y-91942991D01*
X92163448Y-91978729D01*
X92080186Y-92080186D01*
X91978729Y-92163448D01*
X91942991Y-92192778D01*
X91942989Y-92192779D01*
X91786467Y-92276443D01*
X91729853Y-92293616D01*
X91616627Y-92327963D01*
X91550443Y-92334481D01*
X91484260Y-92341000D01*
X91395740Y-92341000D01*
X91329557Y-92334481D01*
X91263373Y-92327963D01*
X91150147Y-92293616D01*
X91093533Y-92276443D01*
X90937011Y-92192779D01*
X90937009Y-92192778D01*
X90901271Y-92163448D01*
X90799814Y-92080186D01*
X90716552Y-91978729D01*
X90687222Y-91942991D01*
X90677652Y-91925087D01*
X90603557Y-91786467D01*
X90580079Y-91709068D01*
X90552037Y-91616627D01*
X90534641Y-91440000D01*
X90552037Y-91263373D01*
X90603557Y-91093534D01*
X90603557Y-91093533D01*
X90687221Y-90937011D01*
X90687222Y-90937009D01*
X90716552Y-90901271D01*
X90799814Y-90799814D01*
X90901271Y-90716552D01*
X90937009Y-90687222D01*
X90954913Y-90677652D01*
X91093533Y-90603557D01*
X91150147Y-90586384D01*
X91263373Y-90552037D01*
X91329557Y-90545519D01*
X91395740Y-90539000D01*
X91484260Y-90539000D01*
X91550443Y-90545519D01*
X91550443Y-90545519D01*
G37*
G36*
X94090443Y-90545519D02*
X94156627Y-90552037D01*
X94269853Y-90586384D01*
X94326467Y-90603557D01*
X94465087Y-90677652D01*
X94482991Y-90687222D01*
X94518729Y-90716552D01*
X94620186Y-90799814D01*
X94703448Y-90901271D01*
X94732778Y-90937009D01*
X94732779Y-90937011D01*
X94816443Y-91093533D01*
X94816443Y-91093534D01*
X94867963Y-91263373D01*
X94885359Y-91440000D01*
X94867963Y-91616627D01*
X94839921Y-91709068D01*
X94816443Y-91786467D01*
X94742348Y-91925087D01*
X94732778Y-91942991D01*
X94703448Y-91978729D01*
X94620186Y-92080186D01*
X94518729Y-92163448D01*
X94482991Y-92192778D01*
X94482989Y-92192779D01*
X94326467Y-92276443D01*
X94269853Y-92293616D01*
X94156627Y-92327963D01*
X94090443Y-92334481D01*
X94024260Y-92341000D01*
X93935740Y-92341000D01*
X93869557Y-92334481D01*
X93803373Y-92327963D01*
X93690147Y-92293616D01*
X93633533Y-92276443D01*
X93477011Y-92192779D01*
X93477009Y-92192778D01*
X93441271Y-92163448D01*
X93339814Y-92080186D01*
X93256552Y-91978729D01*
X93227222Y-91942991D01*
X93217652Y-91925087D01*
X93143557Y-91786467D01*
X93120079Y-91709068D01*
X93092037Y-91616627D01*
X93074641Y-91440000D01*
X93092037Y-91263373D01*
X93143557Y-91093534D01*
X93143557Y-91093533D01*
X93227221Y-90937011D01*
X93227222Y-90937009D01*
X93256552Y-90901271D01*
X93339814Y-90799814D01*
X93441271Y-90716552D01*
X93477009Y-90687222D01*
X93494913Y-90677652D01*
X93633533Y-90603557D01*
X93690147Y-90586384D01*
X93803373Y-90552037D01*
X93869557Y-90545519D01*
X93935740Y-90539000D01*
X94024260Y-90539000D01*
X94090443Y-90545519D01*
X94090443Y-90545519D01*
G37*
G36*
X170979294Y-89958633D02*
X171151694Y-90010931D01*
X171151696Y-90010932D01*
X171310583Y-90095859D01*
X171310585Y-90095860D01*
X171310584Y-90095860D01*
X171449849Y-90210151D01*
X171564140Y-90349416D01*
X171649069Y-90508306D01*
X171701367Y-90680706D01*
X171719025Y-90860000D01*
X171701367Y-91039294D01*
X171649069Y-91211694D01*
X171649068Y-91211696D01*
X171564141Y-91370583D01*
X171449849Y-91509849D01*
X171310583Y-91624141D01*
X171151696Y-91709068D01*
X171151694Y-91709069D01*
X170979294Y-91761367D01*
X170844931Y-91774600D01*
X170755069Y-91774600D01*
X170620706Y-91761367D01*
X170448306Y-91709069D01*
X170448304Y-91709068D01*
X170289417Y-91624141D01*
X170150151Y-91509849D01*
X170035859Y-91370583D01*
X169950932Y-91211696D01*
X169950931Y-91211694D01*
X169898633Y-91039294D01*
X169880975Y-90860000D01*
X169898633Y-90680706D01*
X169950931Y-90508306D01*
X170035860Y-90349416D01*
X170150151Y-90210151D01*
X170289416Y-90095860D01*
X170289415Y-90095860D01*
X170289417Y-90095859D01*
X170448304Y-90010932D01*
X170448306Y-90010931D01*
X170620706Y-89958633D01*
X170755069Y-89945400D01*
X170844931Y-89945400D01*
X170979294Y-89958633D01*
X170979294Y-89958633D01*
G37*
G36*
X168439294Y-89958633D02*
X168611694Y-90010931D01*
X168611696Y-90010932D01*
X168770583Y-90095859D01*
X168770585Y-90095860D01*
X168770584Y-90095860D01*
X168909849Y-90210151D01*
X169024140Y-90349416D01*
X169109069Y-90508306D01*
X169161367Y-90680706D01*
X169179025Y-90860000D01*
X169161367Y-91039294D01*
X169109069Y-91211694D01*
X169109068Y-91211696D01*
X169024141Y-91370583D01*
X168909849Y-91509849D01*
X168770583Y-91624141D01*
X168611696Y-91709068D01*
X168611694Y-91709069D01*
X168439294Y-91761367D01*
X168304931Y-91774600D01*
X168215069Y-91774600D01*
X168080706Y-91761367D01*
X167908306Y-91709069D01*
X167908304Y-91709068D01*
X167749417Y-91624141D01*
X167610151Y-91509849D01*
X167495859Y-91370583D01*
X167410932Y-91211696D01*
X167410931Y-91211694D01*
X167358633Y-91039294D01*
X167340975Y-90860000D01*
X167358633Y-90680706D01*
X167410931Y-90508306D01*
X167495860Y-90349416D01*
X167610151Y-90210151D01*
X167749416Y-90095860D01*
X167749415Y-90095860D01*
X167749417Y-90095859D01*
X167908304Y-90010932D01*
X167908306Y-90010931D01*
X168080706Y-89958633D01*
X168215069Y-89945400D01*
X168304931Y-89945400D01*
X168439294Y-89958633D01*
X168439294Y-89958633D01*
G37*
G36*
X122719294Y-89958633D02*
X122891694Y-90010931D01*
X122891696Y-90010932D01*
X123050583Y-90095859D01*
X123050585Y-90095860D01*
X123050584Y-90095860D01*
X123189849Y-90210151D01*
X123304140Y-90349416D01*
X123389069Y-90508306D01*
X123441367Y-90680706D01*
X123459025Y-90860000D01*
X123441367Y-91039294D01*
X123389069Y-91211694D01*
X123389068Y-91211696D01*
X123304141Y-91370583D01*
X123189849Y-91509849D01*
X123050583Y-91624141D01*
X122891696Y-91709068D01*
X122891694Y-91709069D01*
X122719294Y-91761367D01*
X122584931Y-91774600D01*
X122495069Y-91774600D01*
X122360706Y-91761367D01*
X122188306Y-91709069D01*
X122188304Y-91709068D01*
X122029417Y-91624141D01*
X121890151Y-91509849D01*
X121775859Y-91370583D01*
X121690932Y-91211696D01*
X121690931Y-91211694D01*
X121638633Y-91039294D01*
X121620975Y-90860000D01*
X121638633Y-90680706D01*
X121690931Y-90508306D01*
X121775860Y-90349416D01*
X121890151Y-90210151D01*
X122029416Y-90095860D01*
X122029415Y-90095860D01*
X122029417Y-90095859D01*
X122188304Y-90010932D01*
X122188306Y-90010931D01*
X122360706Y-89958633D01*
X122495069Y-89945400D01*
X122584931Y-89945400D01*
X122719294Y-89958633D01*
X122719294Y-89958633D01*
G37*
G36*
X120179294Y-89958633D02*
X120351694Y-90010931D01*
X120351696Y-90010932D01*
X120510583Y-90095859D01*
X120510585Y-90095860D01*
X120510584Y-90095860D01*
X120649849Y-90210151D01*
X120764140Y-90349416D01*
X120849069Y-90508306D01*
X120901367Y-90680706D01*
X120919025Y-90860000D01*
X120901367Y-91039294D01*
X120849069Y-91211694D01*
X120849068Y-91211696D01*
X120764141Y-91370583D01*
X120649849Y-91509849D01*
X120510583Y-91624141D01*
X120351696Y-91709068D01*
X120351694Y-91709069D01*
X120179294Y-91761367D01*
X120044931Y-91774600D01*
X119955069Y-91774600D01*
X119820706Y-91761367D01*
X119648306Y-91709069D01*
X119648304Y-91709068D01*
X119489417Y-91624141D01*
X119350151Y-91509849D01*
X119235859Y-91370583D01*
X119150932Y-91211696D01*
X119150931Y-91211694D01*
X119098633Y-91039294D01*
X119080975Y-90860000D01*
X119098633Y-90680706D01*
X119150931Y-90508306D01*
X119235860Y-90349416D01*
X119350151Y-90210151D01*
X119489416Y-90095860D01*
X119489415Y-90095860D01*
X119489417Y-90095859D01*
X119648304Y-90010932D01*
X119648306Y-90010931D01*
X119820706Y-89958633D01*
X119955069Y-89945400D01*
X120044931Y-89945400D01*
X120179294Y-89958633D01*
X120179294Y-89958633D01*
G37*
G36*
X94090443Y-88005519D02*
X94156627Y-88012037D01*
X94269853Y-88046384D01*
X94326467Y-88063557D01*
X94465087Y-88137652D01*
X94482991Y-88147222D01*
X94518729Y-88176552D01*
X94620186Y-88259814D01*
X94703448Y-88361271D01*
X94732778Y-88397009D01*
X94732779Y-88397011D01*
X94816443Y-88553533D01*
X94816443Y-88553534D01*
X94867963Y-88723373D01*
X94885359Y-88900000D01*
X94867963Y-89076627D01*
X94839921Y-89169068D01*
X94816443Y-89246467D01*
X94742348Y-89385087D01*
X94732778Y-89402991D01*
X94703448Y-89438729D01*
X94620186Y-89540186D01*
X94518729Y-89623448D01*
X94482991Y-89652778D01*
X94482989Y-89652779D01*
X94326467Y-89736443D01*
X94269853Y-89753616D01*
X94156627Y-89787963D01*
X94090443Y-89794481D01*
X94024260Y-89801000D01*
X93935740Y-89801000D01*
X93869557Y-89794481D01*
X93803373Y-89787963D01*
X93690147Y-89753616D01*
X93633533Y-89736443D01*
X93477011Y-89652779D01*
X93477009Y-89652778D01*
X93441271Y-89623448D01*
X93339814Y-89540186D01*
X93256552Y-89438729D01*
X93227222Y-89402991D01*
X93217652Y-89385087D01*
X93143557Y-89246467D01*
X93120079Y-89169068D01*
X93092037Y-89076627D01*
X93074641Y-88900000D01*
X93092037Y-88723373D01*
X93143557Y-88553534D01*
X93143557Y-88553533D01*
X93227221Y-88397011D01*
X93227222Y-88397009D01*
X93256552Y-88361271D01*
X93339814Y-88259814D01*
X93441271Y-88176552D01*
X93477009Y-88147222D01*
X93494913Y-88137652D01*
X93633533Y-88063557D01*
X93690147Y-88046384D01*
X93803373Y-88012037D01*
X93869557Y-88005519D01*
X93935740Y-87999000D01*
X94024260Y-87999000D01*
X94090443Y-88005519D01*
X94090443Y-88005519D01*
G37*
G36*
X91550443Y-88005519D02*
X91616627Y-88012037D01*
X91729853Y-88046384D01*
X91786467Y-88063557D01*
X91925087Y-88137652D01*
X91942991Y-88147222D01*
X91978729Y-88176552D01*
X92080186Y-88259814D01*
X92163448Y-88361271D01*
X92192778Y-88397009D01*
X92192779Y-88397011D01*
X92276443Y-88553533D01*
X92276443Y-88553534D01*
X92327963Y-88723373D01*
X92345359Y-88900000D01*
X92327963Y-89076627D01*
X92299921Y-89169068D01*
X92276443Y-89246467D01*
X92202348Y-89385087D01*
X92192778Y-89402991D01*
X92163448Y-89438729D01*
X92080186Y-89540186D01*
X91978729Y-89623448D01*
X91942991Y-89652778D01*
X91942989Y-89652779D01*
X91786467Y-89736443D01*
X91729853Y-89753616D01*
X91616627Y-89787963D01*
X91550443Y-89794481D01*
X91484260Y-89801000D01*
X91395740Y-89801000D01*
X91329557Y-89794481D01*
X91263373Y-89787963D01*
X91150147Y-89753616D01*
X91093533Y-89736443D01*
X90937011Y-89652779D01*
X90937009Y-89652778D01*
X90901271Y-89623448D01*
X90799814Y-89540186D01*
X90716552Y-89438729D01*
X90687222Y-89402991D01*
X90677652Y-89385087D01*
X90603557Y-89246467D01*
X90580079Y-89169068D01*
X90552037Y-89076627D01*
X90534641Y-88900000D01*
X90552037Y-88723373D01*
X90603557Y-88553534D01*
X90603557Y-88553533D01*
X90687221Y-88397011D01*
X90687222Y-88397009D01*
X90716552Y-88361271D01*
X90799814Y-88259814D01*
X90901271Y-88176552D01*
X90937009Y-88147222D01*
X90954913Y-88137652D01*
X91093533Y-88063557D01*
X91150147Y-88046384D01*
X91263373Y-88012037D01*
X91329557Y-88005519D01*
X91395740Y-87999000D01*
X91484260Y-87999000D01*
X91550443Y-88005519D01*
X91550443Y-88005519D01*
G37*
G36*
X170979294Y-87418633D02*
X171151694Y-87470931D01*
X171151696Y-87470932D01*
X171310583Y-87555859D01*
X171310585Y-87555860D01*
X171310584Y-87555860D01*
X171449849Y-87670151D01*
X171564140Y-87809416D01*
X171649069Y-87968306D01*
X171701367Y-88140706D01*
X171719025Y-88320000D01*
X171701367Y-88499294D01*
X171649069Y-88671694D01*
X171649068Y-88671696D01*
X171564141Y-88830583D01*
X171449849Y-88969849D01*
X171310583Y-89084141D01*
X171151696Y-89169068D01*
X171151694Y-89169069D01*
X170979294Y-89221367D01*
X170844931Y-89234600D01*
X170755069Y-89234600D01*
X170620706Y-89221367D01*
X170448306Y-89169069D01*
X170448304Y-89169068D01*
X170289417Y-89084141D01*
X170150151Y-88969849D01*
X170035859Y-88830583D01*
X169950932Y-88671696D01*
X169950931Y-88671694D01*
X169898633Y-88499294D01*
X169880975Y-88320000D01*
X169898633Y-88140706D01*
X169950931Y-87968306D01*
X170035860Y-87809416D01*
X170150151Y-87670151D01*
X170289416Y-87555860D01*
X170289415Y-87555860D01*
X170289417Y-87555859D01*
X170448304Y-87470932D01*
X170448306Y-87470931D01*
X170620706Y-87418633D01*
X170755069Y-87405400D01*
X170844931Y-87405400D01*
X170979294Y-87418633D01*
X170979294Y-87418633D01*
G37*
G36*
X120179294Y-87418633D02*
X120351694Y-87470931D01*
X120351696Y-87470932D01*
X120510583Y-87555859D01*
X120510585Y-87555860D01*
X120510584Y-87555860D01*
X120649849Y-87670151D01*
X120764140Y-87809416D01*
X120849069Y-87968306D01*
X120901367Y-88140706D01*
X120919025Y-88320000D01*
X120901367Y-88499294D01*
X120849069Y-88671694D01*
X120849068Y-88671696D01*
X120764141Y-88830583D01*
X120649849Y-88969849D01*
X120510583Y-89084141D01*
X120351696Y-89169068D01*
X120351694Y-89169069D01*
X120179294Y-89221367D01*
X120044931Y-89234600D01*
X119955069Y-89234600D01*
X119820706Y-89221367D01*
X119648306Y-89169069D01*
X119648304Y-89169068D01*
X119489417Y-89084141D01*
X119350151Y-88969849D01*
X119235859Y-88830583D01*
X119150932Y-88671696D01*
X119150931Y-88671694D01*
X119098633Y-88499294D01*
X119080975Y-88320000D01*
X119098633Y-88140706D01*
X119150931Y-87968306D01*
X119235860Y-87809416D01*
X119350151Y-87670151D01*
X119489416Y-87555860D01*
X119489415Y-87555860D01*
X119489417Y-87555859D01*
X119648304Y-87470932D01*
X119648306Y-87470931D01*
X119820706Y-87418633D01*
X119955069Y-87405400D01*
X120044931Y-87405400D01*
X120179294Y-87418633D01*
X120179294Y-87418633D01*
G37*
G36*
X122719294Y-87418633D02*
X122891694Y-87470931D01*
X122891696Y-87470932D01*
X123050583Y-87555859D01*
X123050585Y-87555860D01*
X123050584Y-87555860D01*
X123189849Y-87670151D01*
X123304140Y-87809416D01*
X123389069Y-87968306D01*
X123441367Y-88140706D01*
X123459025Y-88320000D01*
X123441367Y-88499294D01*
X123389069Y-88671694D01*
X123389068Y-88671696D01*
X123304141Y-88830583D01*
X123189849Y-88969849D01*
X123050583Y-89084141D01*
X122891696Y-89169068D01*
X122891694Y-89169069D01*
X122719294Y-89221367D01*
X122584931Y-89234600D01*
X122495069Y-89234600D01*
X122360706Y-89221367D01*
X122188306Y-89169069D01*
X122188304Y-89169068D01*
X122029417Y-89084141D01*
X121890151Y-88969849D01*
X121775859Y-88830583D01*
X121690932Y-88671696D01*
X121690931Y-88671694D01*
X121638633Y-88499294D01*
X121620975Y-88320000D01*
X121638633Y-88140706D01*
X121690931Y-87968306D01*
X121775860Y-87809416D01*
X121890151Y-87670151D01*
X122029416Y-87555860D01*
X122029415Y-87555860D01*
X122029417Y-87555859D01*
X122188304Y-87470932D01*
X122188306Y-87470931D01*
X122360706Y-87418633D01*
X122495069Y-87405400D01*
X122584931Y-87405400D01*
X122719294Y-87418633D01*
X122719294Y-87418633D01*
G37*
G36*
X168439294Y-87418633D02*
X168611694Y-87470931D01*
X168611696Y-87470932D01*
X168770583Y-87555859D01*
X168770585Y-87555860D01*
X168770584Y-87555860D01*
X168909849Y-87670151D01*
X169024140Y-87809416D01*
X169109069Y-87968306D01*
X169161367Y-88140706D01*
X169179025Y-88320000D01*
X169161367Y-88499294D01*
X169109069Y-88671694D01*
X169109068Y-88671696D01*
X169024141Y-88830583D01*
X168909849Y-88969849D01*
X168770583Y-89084141D01*
X168611696Y-89169068D01*
X168611694Y-89169069D01*
X168439294Y-89221367D01*
X168304931Y-89234600D01*
X168215069Y-89234600D01*
X168080706Y-89221367D01*
X167908306Y-89169069D01*
X167908304Y-89169068D01*
X167749417Y-89084141D01*
X167610151Y-88969849D01*
X167495859Y-88830583D01*
X167410932Y-88671696D01*
X167410931Y-88671694D01*
X167358633Y-88499294D01*
X167340975Y-88320000D01*
X167358633Y-88140706D01*
X167410931Y-87968306D01*
X167495860Y-87809416D01*
X167610151Y-87670151D01*
X167749416Y-87555860D01*
X167749415Y-87555860D01*
X167749417Y-87555859D01*
X167908304Y-87470932D01*
X167908306Y-87470931D01*
X168080706Y-87418633D01*
X168215069Y-87405400D01*
X168304931Y-87405400D01*
X168439294Y-87418633D01*
X168439294Y-87418633D01*
G37*
G36*
X91550442Y-85465518D02*
X91616627Y-85472037D01*
X91729853Y-85506384D01*
X91786467Y-85523557D01*
X91925087Y-85597652D01*
X91942991Y-85607222D01*
X91978729Y-85636552D01*
X92080186Y-85719814D01*
X92163448Y-85821271D01*
X92192778Y-85857009D01*
X92192779Y-85857011D01*
X92276443Y-86013533D01*
X92276443Y-86013534D01*
X92327963Y-86183373D01*
X92345359Y-86360000D01*
X92327963Y-86536627D01*
X92299921Y-86629068D01*
X92276443Y-86706467D01*
X92202348Y-86845087D01*
X92192778Y-86862991D01*
X92163448Y-86898729D01*
X92080186Y-87000186D01*
X91978729Y-87083448D01*
X91942991Y-87112778D01*
X91942989Y-87112779D01*
X91786467Y-87196443D01*
X91729853Y-87213616D01*
X91616627Y-87247963D01*
X91550442Y-87254482D01*
X91484260Y-87261000D01*
X91395740Y-87261000D01*
X91329558Y-87254482D01*
X91263373Y-87247963D01*
X91150147Y-87213616D01*
X91093533Y-87196443D01*
X90937011Y-87112779D01*
X90937009Y-87112778D01*
X90901271Y-87083448D01*
X90799814Y-87000186D01*
X90716552Y-86898729D01*
X90687222Y-86862991D01*
X90677652Y-86845087D01*
X90603557Y-86706467D01*
X90580079Y-86629068D01*
X90552037Y-86536627D01*
X90534641Y-86360000D01*
X90552037Y-86183373D01*
X90603557Y-86013534D01*
X90603557Y-86013533D01*
X90687221Y-85857011D01*
X90687222Y-85857009D01*
X90716552Y-85821271D01*
X90799814Y-85719814D01*
X90901271Y-85636552D01*
X90937009Y-85607222D01*
X90954913Y-85597652D01*
X91093533Y-85523557D01*
X91150147Y-85506384D01*
X91263373Y-85472037D01*
X91329558Y-85465518D01*
X91395740Y-85459000D01*
X91484260Y-85459000D01*
X91550442Y-85465518D01*
X91550442Y-85465518D01*
G37*
G36*
X94090442Y-85465518D02*
X94156627Y-85472037D01*
X94269853Y-85506384D01*
X94326467Y-85523557D01*
X94465087Y-85597652D01*
X94482991Y-85607222D01*
X94518729Y-85636552D01*
X94620186Y-85719814D01*
X94703448Y-85821271D01*
X94732778Y-85857009D01*
X94732779Y-85857011D01*
X94816443Y-86013533D01*
X94816443Y-86013534D01*
X94867963Y-86183373D01*
X94885359Y-86360000D01*
X94867963Y-86536627D01*
X94839921Y-86629068D01*
X94816443Y-86706467D01*
X94742348Y-86845087D01*
X94732778Y-86862991D01*
X94703448Y-86898729D01*
X94620186Y-87000186D01*
X94518729Y-87083448D01*
X94482991Y-87112778D01*
X94482989Y-87112779D01*
X94326467Y-87196443D01*
X94269853Y-87213616D01*
X94156627Y-87247963D01*
X94090442Y-87254482D01*
X94024260Y-87261000D01*
X93935740Y-87261000D01*
X93869558Y-87254482D01*
X93803373Y-87247963D01*
X93690147Y-87213616D01*
X93633533Y-87196443D01*
X93477011Y-87112779D01*
X93477009Y-87112778D01*
X93441271Y-87083448D01*
X93339814Y-87000186D01*
X93256552Y-86898729D01*
X93227222Y-86862991D01*
X93217652Y-86845087D01*
X93143557Y-86706467D01*
X93120079Y-86629068D01*
X93092037Y-86536627D01*
X93074641Y-86360000D01*
X93092037Y-86183373D01*
X93143557Y-86013534D01*
X93143557Y-86013533D01*
X93227221Y-85857011D01*
X93227222Y-85857009D01*
X93256552Y-85821271D01*
X93339814Y-85719814D01*
X93441271Y-85636552D01*
X93477009Y-85607222D01*
X93494913Y-85597652D01*
X93633533Y-85523557D01*
X93690147Y-85506384D01*
X93803373Y-85472037D01*
X93869558Y-85465518D01*
X93935740Y-85459000D01*
X94024260Y-85459000D01*
X94090442Y-85465518D01*
X94090442Y-85465518D01*
G37*
G36*
X170979294Y-84878633D02*
X171151694Y-84930931D01*
X171151696Y-84930932D01*
X171310583Y-85015859D01*
X171310585Y-85015860D01*
X171310584Y-85015860D01*
X171449849Y-85130151D01*
X171564140Y-85269416D01*
X171649069Y-85428306D01*
X171701367Y-85600706D01*
X171719025Y-85780000D01*
X171701367Y-85959294D01*
X171649069Y-86131694D01*
X171649068Y-86131696D01*
X171564141Y-86290583D01*
X171449849Y-86429849D01*
X171310583Y-86544141D01*
X171151696Y-86629068D01*
X171151694Y-86629069D01*
X170979294Y-86681367D01*
X170844931Y-86694600D01*
X170755069Y-86694600D01*
X170620706Y-86681367D01*
X170448306Y-86629069D01*
X170448304Y-86629068D01*
X170289417Y-86544141D01*
X170150151Y-86429849D01*
X170035859Y-86290583D01*
X169950932Y-86131696D01*
X169950931Y-86131694D01*
X169898633Y-85959294D01*
X169880975Y-85780000D01*
X169898633Y-85600706D01*
X169950931Y-85428306D01*
X170035860Y-85269416D01*
X170150151Y-85130151D01*
X170289416Y-85015860D01*
X170289415Y-85015860D01*
X170289417Y-85015859D01*
X170448304Y-84930932D01*
X170448306Y-84930931D01*
X170620706Y-84878633D01*
X170755069Y-84865400D01*
X170844931Y-84865400D01*
X170979294Y-84878633D01*
X170979294Y-84878633D01*
G37*
G36*
X168439294Y-84878633D02*
X168611694Y-84930931D01*
X168611696Y-84930932D01*
X168770583Y-85015859D01*
X168770585Y-85015860D01*
X168770584Y-85015860D01*
X168909849Y-85130151D01*
X169024140Y-85269416D01*
X169109069Y-85428306D01*
X169161367Y-85600706D01*
X169179025Y-85780000D01*
X169161367Y-85959294D01*
X169109069Y-86131694D01*
X169109068Y-86131696D01*
X169024141Y-86290583D01*
X168909849Y-86429849D01*
X168770583Y-86544141D01*
X168611696Y-86629068D01*
X168611694Y-86629069D01*
X168439294Y-86681367D01*
X168304931Y-86694600D01*
X168215069Y-86694600D01*
X168080706Y-86681367D01*
X167908306Y-86629069D01*
X167908304Y-86629068D01*
X167749417Y-86544141D01*
X167610151Y-86429849D01*
X167495859Y-86290583D01*
X167410932Y-86131696D01*
X167410931Y-86131694D01*
X167358633Y-85959294D01*
X167340975Y-85780000D01*
X167358633Y-85600706D01*
X167410931Y-85428306D01*
X167495860Y-85269416D01*
X167610151Y-85130151D01*
X167749416Y-85015860D01*
X167749415Y-85015860D01*
X167749417Y-85015859D01*
X167908304Y-84930932D01*
X167908306Y-84930931D01*
X168080706Y-84878633D01*
X168215069Y-84865400D01*
X168304931Y-84865400D01*
X168439294Y-84878633D01*
X168439294Y-84878633D01*
G37*
G36*
X120179294Y-84878633D02*
X120351694Y-84930931D01*
X120351696Y-84930932D01*
X120510583Y-85015859D01*
X120510585Y-85015860D01*
X120510584Y-85015860D01*
X120649849Y-85130151D01*
X120764140Y-85269416D01*
X120849069Y-85428306D01*
X120901367Y-85600706D01*
X120919025Y-85780000D01*
X120901367Y-85959294D01*
X120849069Y-86131694D01*
X120849068Y-86131696D01*
X120764141Y-86290583D01*
X120649849Y-86429849D01*
X120510583Y-86544141D01*
X120351696Y-86629068D01*
X120351694Y-86629069D01*
X120179294Y-86681367D01*
X120044931Y-86694600D01*
X119955069Y-86694600D01*
X119820706Y-86681367D01*
X119648306Y-86629069D01*
X119648304Y-86629068D01*
X119489417Y-86544141D01*
X119350151Y-86429849D01*
X119235859Y-86290583D01*
X119150932Y-86131696D01*
X119150931Y-86131694D01*
X119098633Y-85959294D01*
X119080975Y-85780000D01*
X119098633Y-85600706D01*
X119150931Y-85428306D01*
X119235860Y-85269416D01*
X119350151Y-85130151D01*
X119489416Y-85015860D01*
X119489415Y-85015860D01*
X119489417Y-85015859D01*
X119648304Y-84930932D01*
X119648306Y-84930931D01*
X119820706Y-84878633D01*
X119955069Y-84865400D01*
X120044931Y-84865400D01*
X120179294Y-84878633D01*
X120179294Y-84878633D01*
G37*
G36*
X122719294Y-84878633D02*
X122891694Y-84930931D01*
X122891696Y-84930932D01*
X123050583Y-85015859D01*
X123050585Y-85015860D01*
X123050584Y-85015860D01*
X123189849Y-85130151D01*
X123304140Y-85269416D01*
X123389069Y-85428306D01*
X123441367Y-85600706D01*
X123459025Y-85780000D01*
X123441367Y-85959294D01*
X123389069Y-86131694D01*
X123389068Y-86131696D01*
X123304141Y-86290583D01*
X123189849Y-86429849D01*
X123050583Y-86544141D01*
X122891696Y-86629068D01*
X122891694Y-86629069D01*
X122719294Y-86681367D01*
X122584931Y-86694600D01*
X122495069Y-86694600D01*
X122360706Y-86681367D01*
X122188306Y-86629069D01*
X122188304Y-86629068D01*
X122029417Y-86544141D01*
X121890151Y-86429849D01*
X121775859Y-86290583D01*
X121690932Y-86131696D01*
X121690931Y-86131694D01*
X121638633Y-85959294D01*
X121620975Y-85780000D01*
X121638633Y-85600706D01*
X121690931Y-85428306D01*
X121775860Y-85269416D01*
X121890151Y-85130151D01*
X122029416Y-85015860D01*
X122029415Y-85015860D01*
X122029417Y-85015859D01*
X122188304Y-84930932D01*
X122188306Y-84930931D01*
X122360706Y-84878633D01*
X122495069Y-84865400D01*
X122584931Y-84865400D01*
X122719294Y-84878633D01*
X122719294Y-84878633D01*
G37*
G36*
X94090443Y-82925519D02*
X94156627Y-82932037D01*
X94269853Y-82966384D01*
X94326467Y-82983557D01*
X94465087Y-83057652D01*
X94482991Y-83067222D01*
X94518729Y-83096552D01*
X94620186Y-83179814D01*
X94703448Y-83281271D01*
X94732778Y-83317009D01*
X94732779Y-83317011D01*
X94816443Y-83473533D01*
X94816443Y-83473534D01*
X94867963Y-83643373D01*
X94885359Y-83820000D01*
X94867963Y-83996627D01*
X94839921Y-84089068D01*
X94816443Y-84166467D01*
X94742348Y-84305087D01*
X94732778Y-84322991D01*
X94703448Y-84358729D01*
X94620186Y-84460186D01*
X94518729Y-84543448D01*
X94482991Y-84572778D01*
X94482989Y-84572779D01*
X94326467Y-84656443D01*
X94269853Y-84673616D01*
X94156627Y-84707963D01*
X94090443Y-84714481D01*
X94024260Y-84721000D01*
X93935740Y-84721000D01*
X93869557Y-84714481D01*
X93803373Y-84707963D01*
X93690147Y-84673616D01*
X93633533Y-84656443D01*
X93477011Y-84572779D01*
X93477009Y-84572778D01*
X93441271Y-84543448D01*
X93339814Y-84460186D01*
X93256552Y-84358729D01*
X93227222Y-84322991D01*
X93217652Y-84305087D01*
X93143557Y-84166467D01*
X93120079Y-84089068D01*
X93092037Y-83996627D01*
X93074641Y-83820000D01*
X93092037Y-83643373D01*
X93143557Y-83473534D01*
X93143557Y-83473533D01*
X93227221Y-83317011D01*
X93227222Y-83317009D01*
X93256552Y-83281271D01*
X93339814Y-83179814D01*
X93441271Y-83096552D01*
X93477009Y-83067222D01*
X93494913Y-83057652D01*
X93633533Y-82983557D01*
X93690147Y-82966384D01*
X93803373Y-82932037D01*
X93869557Y-82925519D01*
X93935740Y-82919000D01*
X94024260Y-82919000D01*
X94090443Y-82925519D01*
X94090443Y-82925519D01*
G37*
G36*
X91550443Y-82925519D02*
X91616627Y-82932037D01*
X91729853Y-82966384D01*
X91786467Y-82983557D01*
X91925087Y-83057652D01*
X91942991Y-83067222D01*
X91978729Y-83096552D01*
X92080186Y-83179814D01*
X92163448Y-83281271D01*
X92192778Y-83317009D01*
X92192779Y-83317011D01*
X92276443Y-83473533D01*
X92276443Y-83473534D01*
X92327963Y-83643373D01*
X92345359Y-83820000D01*
X92327963Y-83996627D01*
X92299921Y-84089068D01*
X92276443Y-84166467D01*
X92202348Y-84305087D01*
X92192778Y-84322991D01*
X92163448Y-84358729D01*
X92080186Y-84460186D01*
X91978729Y-84543448D01*
X91942991Y-84572778D01*
X91942989Y-84572779D01*
X91786467Y-84656443D01*
X91729853Y-84673616D01*
X91616627Y-84707963D01*
X91550443Y-84714481D01*
X91484260Y-84721000D01*
X91395740Y-84721000D01*
X91329557Y-84714481D01*
X91263373Y-84707963D01*
X91150147Y-84673616D01*
X91093533Y-84656443D01*
X90937011Y-84572779D01*
X90937009Y-84572778D01*
X90901271Y-84543448D01*
X90799814Y-84460186D01*
X90716552Y-84358729D01*
X90687222Y-84322991D01*
X90677652Y-84305087D01*
X90603557Y-84166467D01*
X90580079Y-84089068D01*
X90552037Y-83996627D01*
X90534641Y-83820000D01*
X90552037Y-83643373D01*
X90603557Y-83473534D01*
X90603557Y-83473533D01*
X90687221Y-83317011D01*
X90687222Y-83317009D01*
X90716552Y-83281271D01*
X90799814Y-83179814D01*
X90901271Y-83096552D01*
X90937009Y-83067222D01*
X90954913Y-83057652D01*
X91093533Y-82983557D01*
X91150147Y-82966384D01*
X91263373Y-82932037D01*
X91329557Y-82925519D01*
X91395740Y-82919000D01*
X91484260Y-82919000D01*
X91550443Y-82925519D01*
X91550443Y-82925519D01*
G37*
G36*
X168439294Y-82338633D02*
X168611694Y-82390931D01*
X168611696Y-82390932D01*
X168770583Y-82475859D01*
X168770585Y-82475860D01*
X168770584Y-82475860D01*
X168909849Y-82590151D01*
X169024140Y-82729416D01*
X169109069Y-82888306D01*
X169161367Y-83060706D01*
X169179025Y-83240000D01*
X169161367Y-83419294D01*
X169109069Y-83591694D01*
X169109068Y-83591696D01*
X169024141Y-83750583D01*
X168909849Y-83889849D01*
X168770583Y-84004141D01*
X168611696Y-84089068D01*
X168611694Y-84089069D01*
X168439294Y-84141367D01*
X168304931Y-84154600D01*
X168215069Y-84154600D01*
X168080706Y-84141367D01*
X167908306Y-84089069D01*
X167908304Y-84089068D01*
X167749417Y-84004141D01*
X167610151Y-83889849D01*
X167495859Y-83750583D01*
X167410932Y-83591696D01*
X167410931Y-83591694D01*
X167358633Y-83419294D01*
X167340975Y-83240000D01*
X167358633Y-83060706D01*
X167410931Y-82888306D01*
X167495860Y-82729416D01*
X167610151Y-82590151D01*
X167749416Y-82475860D01*
X167749415Y-82475860D01*
X167749417Y-82475859D01*
X167908304Y-82390932D01*
X167908306Y-82390931D01*
X168080706Y-82338633D01*
X168215069Y-82325400D01*
X168304931Y-82325400D01*
X168439294Y-82338633D01*
X168439294Y-82338633D01*
G37*
G36*
X170979294Y-82338633D02*
X171151694Y-82390931D01*
X171151696Y-82390932D01*
X171310583Y-82475859D01*
X171310585Y-82475860D01*
X171310584Y-82475860D01*
X171449849Y-82590151D01*
X171564140Y-82729416D01*
X171649069Y-82888306D01*
X171701367Y-83060706D01*
X171719025Y-83240000D01*
X171701367Y-83419294D01*
X171649069Y-83591694D01*
X171649068Y-83591696D01*
X171564141Y-83750583D01*
X171449849Y-83889849D01*
X171310583Y-84004141D01*
X171151696Y-84089068D01*
X171151694Y-84089069D01*
X170979294Y-84141367D01*
X170844931Y-84154600D01*
X170755069Y-84154600D01*
X170620706Y-84141367D01*
X170448306Y-84089069D01*
X170448304Y-84089068D01*
X170289417Y-84004141D01*
X170150151Y-83889849D01*
X170035859Y-83750583D01*
X169950932Y-83591696D01*
X169950931Y-83591694D01*
X169898633Y-83419294D01*
X169880975Y-83240000D01*
X169898633Y-83060706D01*
X169950931Y-82888306D01*
X170035860Y-82729416D01*
X170150151Y-82590151D01*
X170289416Y-82475860D01*
X170289415Y-82475860D01*
X170289417Y-82475859D01*
X170448304Y-82390932D01*
X170448306Y-82390931D01*
X170620706Y-82338633D01*
X170755069Y-82325400D01*
X170844931Y-82325400D01*
X170979294Y-82338633D01*
X170979294Y-82338633D01*
G37*
G36*
X122719294Y-82338633D02*
X122891694Y-82390931D01*
X122891696Y-82390932D01*
X123050583Y-82475859D01*
X123050585Y-82475860D01*
X123050584Y-82475860D01*
X123189849Y-82590151D01*
X123304140Y-82729416D01*
X123389069Y-82888306D01*
X123441367Y-83060706D01*
X123459025Y-83240000D01*
X123441367Y-83419294D01*
X123389069Y-83591694D01*
X123389068Y-83591696D01*
X123304141Y-83750583D01*
X123189849Y-83889849D01*
X123050583Y-84004141D01*
X122891696Y-84089068D01*
X122891694Y-84089069D01*
X122719294Y-84141367D01*
X122584931Y-84154600D01*
X122495069Y-84154600D01*
X122360706Y-84141367D01*
X122188306Y-84089069D01*
X122188304Y-84089068D01*
X122029417Y-84004141D01*
X121890151Y-83889849D01*
X121775859Y-83750583D01*
X121690932Y-83591696D01*
X121690931Y-83591694D01*
X121638633Y-83419294D01*
X121620975Y-83240000D01*
X121638633Y-83060706D01*
X121690931Y-82888306D01*
X121775860Y-82729416D01*
X121890151Y-82590151D01*
X122029416Y-82475860D01*
X122029415Y-82475860D01*
X122029417Y-82475859D01*
X122188304Y-82390932D01*
X122188306Y-82390931D01*
X122360706Y-82338633D01*
X122495069Y-82325400D01*
X122584931Y-82325400D01*
X122719294Y-82338633D01*
X122719294Y-82338633D01*
G37*
G36*
X120179294Y-82338633D02*
X120351694Y-82390931D01*
X120351696Y-82390932D01*
X120510583Y-82475859D01*
X120510585Y-82475860D01*
X120510584Y-82475860D01*
X120649849Y-82590151D01*
X120764140Y-82729416D01*
X120849069Y-82888306D01*
X120901367Y-83060706D01*
X120919025Y-83240000D01*
X120901367Y-83419294D01*
X120849069Y-83591694D01*
X120849068Y-83591696D01*
X120764141Y-83750583D01*
X120649849Y-83889849D01*
X120510583Y-84004141D01*
X120351696Y-84089068D01*
X120351694Y-84089069D01*
X120179294Y-84141367D01*
X120044931Y-84154600D01*
X119955069Y-84154600D01*
X119820706Y-84141367D01*
X119648306Y-84089069D01*
X119648304Y-84089068D01*
X119489417Y-84004141D01*
X119350151Y-83889849D01*
X119235859Y-83750583D01*
X119150932Y-83591696D01*
X119150931Y-83591694D01*
X119098633Y-83419294D01*
X119080975Y-83240000D01*
X119098633Y-83060706D01*
X119150931Y-82888306D01*
X119235860Y-82729416D01*
X119350151Y-82590151D01*
X119489416Y-82475860D01*
X119489415Y-82475860D01*
X119489417Y-82475859D01*
X119648304Y-82390932D01*
X119648306Y-82390931D01*
X119820706Y-82338633D01*
X119955069Y-82325400D01*
X120044931Y-82325400D01*
X120179294Y-82338633D01*
X120179294Y-82338633D01*
G37*
G36*
X91550442Y-80385518D02*
X91616627Y-80392037D01*
X91729853Y-80426384D01*
X91786467Y-80443557D01*
X91925087Y-80517652D01*
X91942991Y-80527222D01*
X91978729Y-80556552D01*
X92080186Y-80639814D01*
X92163448Y-80741271D01*
X92192778Y-80777009D01*
X92192779Y-80777011D01*
X92276443Y-80933533D01*
X92276443Y-80933534D01*
X92327963Y-81103373D01*
X92345359Y-81280000D01*
X92327963Y-81456627D01*
X92299921Y-81549068D01*
X92276443Y-81626467D01*
X92202348Y-81765087D01*
X92192778Y-81782991D01*
X92163448Y-81818729D01*
X92080186Y-81920186D01*
X91978729Y-82003448D01*
X91942991Y-82032778D01*
X91942989Y-82032779D01*
X91786467Y-82116443D01*
X91729853Y-82133616D01*
X91616627Y-82167963D01*
X91550443Y-82174481D01*
X91484260Y-82181000D01*
X91395740Y-82181000D01*
X91329557Y-82174481D01*
X91263373Y-82167963D01*
X91150147Y-82133616D01*
X91093533Y-82116443D01*
X90937011Y-82032779D01*
X90937009Y-82032778D01*
X90901271Y-82003448D01*
X90799814Y-81920186D01*
X90716552Y-81818729D01*
X90687222Y-81782991D01*
X90677652Y-81765087D01*
X90603557Y-81626467D01*
X90580079Y-81549068D01*
X90552037Y-81456627D01*
X90534641Y-81280000D01*
X90552037Y-81103373D01*
X90603557Y-80933534D01*
X90603557Y-80933533D01*
X90687221Y-80777011D01*
X90687222Y-80777009D01*
X90716552Y-80741271D01*
X90799814Y-80639814D01*
X90901271Y-80556552D01*
X90937009Y-80527222D01*
X90954913Y-80517652D01*
X91093533Y-80443557D01*
X91150147Y-80426384D01*
X91263373Y-80392037D01*
X91329558Y-80385518D01*
X91395740Y-80379000D01*
X91484260Y-80379000D01*
X91550442Y-80385518D01*
X91550442Y-80385518D01*
G37*
G36*
X94090442Y-80385518D02*
X94156627Y-80392037D01*
X94269853Y-80426384D01*
X94326467Y-80443557D01*
X94465087Y-80517652D01*
X94482991Y-80527222D01*
X94518729Y-80556552D01*
X94620186Y-80639814D01*
X94703448Y-80741271D01*
X94732778Y-80777009D01*
X94732779Y-80777011D01*
X94816443Y-80933533D01*
X94816443Y-80933534D01*
X94867963Y-81103373D01*
X94885359Y-81280000D01*
X94867963Y-81456627D01*
X94839921Y-81549068D01*
X94816443Y-81626467D01*
X94742348Y-81765087D01*
X94732778Y-81782991D01*
X94703448Y-81818729D01*
X94620186Y-81920186D01*
X94518729Y-82003448D01*
X94482991Y-82032778D01*
X94482989Y-82032779D01*
X94326467Y-82116443D01*
X94269853Y-82133616D01*
X94156627Y-82167963D01*
X94090443Y-82174481D01*
X94024260Y-82181000D01*
X93935740Y-82181000D01*
X93869557Y-82174481D01*
X93803373Y-82167963D01*
X93690147Y-82133616D01*
X93633533Y-82116443D01*
X93477011Y-82032779D01*
X93477009Y-82032778D01*
X93441271Y-82003448D01*
X93339814Y-81920186D01*
X93256552Y-81818729D01*
X93227222Y-81782991D01*
X93217652Y-81765087D01*
X93143557Y-81626467D01*
X93120079Y-81549068D01*
X93092037Y-81456627D01*
X93074641Y-81280000D01*
X93092037Y-81103373D01*
X93143557Y-80933534D01*
X93143557Y-80933533D01*
X93227221Y-80777011D01*
X93227222Y-80777009D01*
X93256552Y-80741271D01*
X93339814Y-80639814D01*
X93441271Y-80556552D01*
X93477009Y-80527222D01*
X93494913Y-80517652D01*
X93633533Y-80443557D01*
X93690147Y-80426384D01*
X93803373Y-80392037D01*
X93869558Y-80385518D01*
X93935740Y-80379000D01*
X94024260Y-80379000D01*
X94090442Y-80385518D01*
X94090442Y-80385518D01*
G37*
G36*
X120179294Y-79798633D02*
X120351694Y-79850931D01*
X120351696Y-79850932D01*
X120510583Y-79935859D01*
X120510585Y-79935860D01*
X120510584Y-79935860D01*
X120649849Y-80050151D01*
X120764140Y-80189416D01*
X120849069Y-80348306D01*
X120901367Y-80520706D01*
X120919025Y-80700000D01*
X120901367Y-80879294D01*
X120849069Y-81051694D01*
X120849068Y-81051696D01*
X120764141Y-81210583D01*
X120649849Y-81349849D01*
X120510583Y-81464141D01*
X120351696Y-81549068D01*
X120351694Y-81549069D01*
X120179294Y-81601367D01*
X120044931Y-81614600D01*
X119955069Y-81614600D01*
X119820706Y-81601367D01*
X119648306Y-81549069D01*
X119648304Y-81549068D01*
X119489417Y-81464141D01*
X119350151Y-81349849D01*
X119235859Y-81210583D01*
X119150932Y-81051696D01*
X119150931Y-81051694D01*
X119098633Y-80879294D01*
X119080975Y-80700000D01*
X119098633Y-80520706D01*
X119150931Y-80348306D01*
X119235860Y-80189416D01*
X119350151Y-80050151D01*
X119489416Y-79935860D01*
X119489415Y-79935860D01*
X119489417Y-79935859D01*
X119648304Y-79850932D01*
X119648306Y-79850931D01*
X119820706Y-79798633D01*
X119955069Y-79785400D01*
X120044931Y-79785400D01*
X120179294Y-79798633D01*
X120179294Y-79798633D01*
G37*
G36*
X170979294Y-79798633D02*
X171151694Y-79850931D01*
X171151696Y-79850932D01*
X171310583Y-79935859D01*
X171310585Y-79935860D01*
X171310584Y-79935860D01*
X171449849Y-80050151D01*
X171564140Y-80189416D01*
X171649069Y-80348306D01*
X171701367Y-80520706D01*
X171719025Y-80700000D01*
X171701367Y-80879294D01*
X171649069Y-81051694D01*
X171649068Y-81051696D01*
X171564141Y-81210583D01*
X171449849Y-81349849D01*
X171310583Y-81464141D01*
X171151696Y-81549068D01*
X171151694Y-81549069D01*
X170979294Y-81601367D01*
X170844931Y-81614600D01*
X170755069Y-81614600D01*
X170620706Y-81601367D01*
X170448306Y-81549069D01*
X170448304Y-81549068D01*
X170289417Y-81464141D01*
X170150151Y-81349849D01*
X170035859Y-81210583D01*
X169950932Y-81051696D01*
X169950931Y-81051694D01*
X169898633Y-80879294D01*
X169880975Y-80700000D01*
X169898633Y-80520706D01*
X169950931Y-80348306D01*
X170035860Y-80189416D01*
X170150151Y-80050151D01*
X170289416Y-79935860D01*
X170289415Y-79935860D01*
X170289417Y-79935859D01*
X170448304Y-79850932D01*
X170448306Y-79850931D01*
X170620706Y-79798633D01*
X170755069Y-79785400D01*
X170844931Y-79785400D01*
X170979294Y-79798633D01*
X170979294Y-79798633D01*
G37*
G36*
X168439294Y-79798633D02*
X168611694Y-79850931D01*
X168611696Y-79850932D01*
X168770583Y-79935859D01*
X168770585Y-79935860D01*
X168770584Y-79935860D01*
X168909849Y-80050151D01*
X169024140Y-80189416D01*
X169109069Y-80348306D01*
X169161367Y-80520706D01*
X169179025Y-80700000D01*
X169161367Y-80879294D01*
X169109069Y-81051694D01*
X169109068Y-81051696D01*
X169024141Y-81210583D01*
X168909849Y-81349849D01*
X168770583Y-81464141D01*
X168611696Y-81549068D01*
X168611694Y-81549069D01*
X168439294Y-81601367D01*
X168304931Y-81614600D01*
X168215069Y-81614600D01*
X168080706Y-81601367D01*
X167908306Y-81549069D01*
X167908304Y-81549068D01*
X167749417Y-81464141D01*
X167610151Y-81349849D01*
X167495859Y-81210583D01*
X167410932Y-81051696D01*
X167410931Y-81051694D01*
X167358633Y-80879294D01*
X167340975Y-80700000D01*
X167358633Y-80520706D01*
X167410931Y-80348306D01*
X167495860Y-80189416D01*
X167610151Y-80050151D01*
X167749416Y-79935860D01*
X167749415Y-79935860D01*
X167749417Y-79935859D01*
X167908304Y-79850932D01*
X167908306Y-79850931D01*
X168080706Y-79798633D01*
X168215069Y-79785400D01*
X168304931Y-79785400D01*
X168439294Y-79798633D01*
X168439294Y-79798633D01*
G37*
G36*
X122719294Y-79798633D02*
X122891694Y-79850931D01*
X122891696Y-79850932D01*
X123050583Y-79935859D01*
X123050585Y-79935860D01*
X123050584Y-79935860D01*
X123189849Y-80050151D01*
X123304140Y-80189416D01*
X123389069Y-80348306D01*
X123441367Y-80520706D01*
X123459025Y-80700000D01*
X123441367Y-80879294D01*
X123389069Y-81051694D01*
X123389068Y-81051696D01*
X123304141Y-81210583D01*
X123189849Y-81349849D01*
X123050583Y-81464141D01*
X122891696Y-81549068D01*
X122891694Y-81549069D01*
X122719294Y-81601367D01*
X122584931Y-81614600D01*
X122495069Y-81614600D01*
X122360706Y-81601367D01*
X122188306Y-81549069D01*
X122188304Y-81549068D01*
X122029417Y-81464141D01*
X121890151Y-81349849D01*
X121775859Y-81210583D01*
X121690932Y-81051696D01*
X121690931Y-81051694D01*
X121638633Y-80879294D01*
X121620975Y-80700000D01*
X121638633Y-80520706D01*
X121690931Y-80348306D01*
X121775860Y-80189416D01*
X121890151Y-80050151D01*
X122029416Y-79935860D01*
X122029415Y-79935860D01*
X122029417Y-79935859D01*
X122188304Y-79850932D01*
X122188306Y-79850931D01*
X122360706Y-79798633D01*
X122495069Y-79785400D01*
X122584931Y-79785400D01*
X122719294Y-79798633D01*
X122719294Y-79798633D01*
G37*
G36*
X91550443Y-77845519D02*
X91616627Y-77852037D01*
X91729853Y-77886384D01*
X91786467Y-77903557D01*
X91925087Y-77977652D01*
X91942991Y-77987222D01*
X91978729Y-78016552D01*
X92080186Y-78099814D01*
X92163448Y-78201271D01*
X92192778Y-78237009D01*
X92192779Y-78237011D01*
X92276443Y-78393533D01*
X92276443Y-78393534D01*
X92327963Y-78563373D01*
X92345359Y-78740000D01*
X92327963Y-78916627D01*
X92299921Y-79009068D01*
X92276443Y-79086467D01*
X92202348Y-79225087D01*
X92192778Y-79242991D01*
X92163448Y-79278729D01*
X92080186Y-79380186D01*
X91978729Y-79463448D01*
X91942991Y-79492778D01*
X91942989Y-79492779D01*
X91786467Y-79576443D01*
X91729853Y-79593616D01*
X91616627Y-79627963D01*
X91550442Y-79634482D01*
X91484260Y-79641000D01*
X91395740Y-79641000D01*
X91329558Y-79634482D01*
X91263373Y-79627963D01*
X91150147Y-79593616D01*
X91093533Y-79576443D01*
X90937011Y-79492779D01*
X90937009Y-79492778D01*
X90901271Y-79463448D01*
X90799814Y-79380186D01*
X90716552Y-79278729D01*
X90687222Y-79242991D01*
X90677652Y-79225087D01*
X90603557Y-79086467D01*
X90580079Y-79009068D01*
X90552037Y-78916627D01*
X90534641Y-78740000D01*
X90552037Y-78563373D01*
X90603557Y-78393534D01*
X90603557Y-78393533D01*
X90687221Y-78237011D01*
X90687222Y-78237009D01*
X90716552Y-78201271D01*
X90799814Y-78099814D01*
X90901271Y-78016552D01*
X90937009Y-77987222D01*
X90954913Y-77977652D01*
X91093533Y-77903557D01*
X91150147Y-77886384D01*
X91263373Y-77852037D01*
X91329557Y-77845519D01*
X91395740Y-77839000D01*
X91484260Y-77839000D01*
X91550443Y-77845519D01*
X91550443Y-77845519D01*
G37*
G36*
X94090443Y-77845519D02*
X94156627Y-77852037D01*
X94269853Y-77886384D01*
X94326467Y-77903557D01*
X94465087Y-77977652D01*
X94482991Y-77987222D01*
X94518729Y-78016552D01*
X94620186Y-78099814D01*
X94703448Y-78201271D01*
X94732778Y-78237009D01*
X94732779Y-78237011D01*
X94816443Y-78393533D01*
X94816443Y-78393534D01*
X94867963Y-78563373D01*
X94885359Y-78740000D01*
X94867963Y-78916627D01*
X94839921Y-79009068D01*
X94816443Y-79086467D01*
X94742348Y-79225087D01*
X94732778Y-79242991D01*
X94703448Y-79278729D01*
X94620186Y-79380186D01*
X94518729Y-79463448D01*
X94482991Y-79492778D01*
X94482989Y-79492779D01*
X94326467Y-79576443D01*
X94269853Y-79593616D01*
X94156627Y-79627963D01*
X94090442Y-79634482D01*
X94024260Y-79641000D01*
X93935740Y-79641000D01*
X93869558Y-79634482D01*
X93803373Y-79627963D01*
X93690147Y-79593616D01*
X93633533Y-79576443D01*
X93477011Y-79492779D01*
X93477009Y-79492778D01*
X93441271Y-79463448D01*
X93339814Y-79380186D01*
X93256552Y-79278729D01*
X93227222Y-79242991D01*
X93217652Y-79225087D01*
X93143557Y-79086467D01*
X93120079Y-79009068D01*
X93092037Y-78916627D01*
X93074641Y-78740000D01*
X93092037Y-78563373D01*
X93143557Y-78393534D01*
X93143557Y-78393533D01*
X93227221Y-78237011D01*
X93227222Y-78237009D01*
X93256552Y-78201271D01*
X93339814Y-78099814D01*
X93441271Y-78016552D01*
X93477009Y-77987222D01*
X93494913Y-77977652D01*
X93633533Y-77903557D01*
X93690147Y-77886384D01*
X93803373Y-77852037D01*
X93869557Y-77845519D01*
X93935740Y-77839000D01*
X94024260Y-77839000D01*
X94090443Y-77845519D01*
X94090443Y-77845519D01*
G37*
G36*
X122719294Y-77258633D02*
X122891694Y-77310931D01*
X122891696Y-77310932D01*
X123050583Y-77395859D01*
X123050585Y-77395860D01*
X123050584Y-77395860D01*
X123189849Y-77510151D01*
X123304140Y-77649416D01*
X123389069Y-77808306D01*
X123441367Y-77980706D01*
X123459025Y-78160000D01*
X123441367Y-78339294D01*
X123389069Y-78511694D01*
X123389068Y-78511696D01*
X123304141Y-78670583D01*
X123189849Y-78809849D01*
X123050583Y-78924141D01*
X122891696Y-79009068D01*
X122891694Y-79009069D01*
X122719294Y-79061367D01*
X122584931Y-79074600D01*
X122495069Y-79074600D01*
X122360706Y-79061367D01*
X122188306Y-79009069D01*
X122188304Y-79009068D01*
X122029417Y-78924141D01*
X121890151Y-78809849D01*
X121775859Y-78670583D01*
X121690932Y-78511696D01*
X121690931Y-78511694D01*
X121638633Y-78339294D01*
X121620975Y-78160000D01*
X121638633Y-77980706D01*
X121690931Y-77808306D01*
X121775860Y-77649416D01*
X121890151Y-77510151D01*
X122029416Y-77395860D01*
X122029415Y-77395860D01*
X122029417Y-77395859D01*
X122188304Y-77310932D01*
X122188306Y-77310931D01*
X122360706Y-77258633D01*
X122495069Y-77245400D01*
X122584931Y-77245400D01*
X122719294Y-77258633D01*
X122719294Y-77258633D01*
G37*
G36*
X120179294Y-77258633D02*
X120351694Y-77310931D01*
X120351696Y-77310932D01*
X120510583Y-77395859D01*
X120510585Y-77395860D01*
X120510584Y-77395860D01*
X120649849Y-77510151D01*
X120764140Y-77649416D01*
X120849069Y-77808306D01*
X120901367Y-77980706D01*
X120919025Y-78160000D01*
X120901367Y-78339294D01*
X120849069Y-78511694D01*
X120849068Y-78511696D01*
X120764141Y-78670583D01*
X120649849Y-78809849D01*
X120510583Y-78924141D01*
X120351696Y-79009068D01*
X120351694Y-79009069D01*
X120179294Y-79061367D01*
X120044931Y-79074600D01*
X119955069Y-79074600D01*
X119820706Y-79061367D01*
X119648306Y-79009069D01*
X119648304Y-79009068D01*
X119489417Y-78924141D01*
X119350151Y-78809849D01*
X119235859Y-78670583D01*
X119150932Y-78511696D01*
X119150931Y-78511694D01*
X119098633Y-78339294D01*
X119080975Y-78160000D01*
X119098633Y-77980706D01*
X119150931Y-77808306D01*
X119235860Y-77649416D01*
X119350151Y-77510151D01*
X119489416Y-77395860D01*
X119489415Y-77395860D01*
X119489417Y-77395859D01*
X119648304Y-77310932D01*
X119648306Y-77310931D01*
X119820706Y-77258633D01*
X119955069Y-77245400D01*
X120044931Y-77245400D01*
X120179294Y-77258633D01*
X120179294Y-77258633D01*
G37*
G36*
X170979294Y-77258633D02*
X171151694Y-77310931D01*
X171151696Y-77310932D01*
X171310583Y-77395859D01*
X171310585Y-77395860D01*
X171310584Y-77395860D01*
X171449849Y-77510151D01*
X171564140Y-77649416D01*
X171649069Y-77808306D01*
X171701367Y-77980706D01*
X171719025Y-78160000D01*
X171701367Y-78339294D01*
X171649069Y-78511694D01*
X171649068Y-78511696D01*
X171564141Y-78670583D01*
X171449849Y-78809849D01*
X171310583Y-78924141D01*
X171151696Y-79009068D01*
X171151694Y-79009069D01*
X170979294Y-79061367D01*
X170844931Y-79074600D01*
X170755069Y-79074600D01*
X170620706Y-79061367D01*
X170448306Y-79009069D01*
X170448304Y-79009068D01*
X170289417Y-78924141D01*
X170150151Y-78809849D01*
X170035859Y-78670583D01*
X169950932Y-78511696D01*
X169950931Y-78511694D01*
X169898633Y-78339294D01*
X169880975Y-78160000D01*
X169898633Y-77980706D01*
X169950931Y-77808306D01*
X170035860Y-77649416D01*
X170150151Y-77510151D01*
X170289416Y-77395860D01*
X170289415Y-77395860D01*
X170289417Y-77395859D01*
X170448304Y-77310932D01*
X170448306Y-77310931D01*
X170620706Y-77258633D01*
X170755069Y-77245400D01*
X170844931Y-77245400D01*
X170979294Y-77258633D01*
X170979294Y-77258633D01*
G37*
G36*
X168439294Y-77258633D02*
X168611694Y-77310931D01*
X168611696Y-77310932D01*
X168770583Y-77395859D01*
X168770585Y-77395860D01*
X168770584Y-77395860D01*
X168909849Y-77510151D01*
X169024140Y-77649416D01*
X169109069Y-77808306D01*
X169161367Y-77980706D01*
X169179025Y-78160000D01*
X169161367Y-78339294D01*
X169109069Y-78511694D01*
X169109068Y-78511696D01*
X169024141Y-78670583D01*
X168909849Y-78809849D01*
X168770583Y-78924141D01*
X168611696Y-79009068D01*
X168611694Y-79009069D01*
X168439294Y-79061367D01*
X168304931Y-79074600D01*
X168215069Y-79074600D01*
X168080706Y-79061367D01*
X167908306Y-79009069D01*
X167908304Y-79009068D01*
X167749417Y-78924141D01*
X167610151Y-78809849D01*
X167495859Y-78670583D01*
X167410932Y-78511696D01*
X167410931Y-78511694D01*
X167358633Y-78339294D01*
X167340975Y-78160000D01*
X167358633Y-77980706D01*
X167410931Y-77808306D01*
X167495860Y-77649416D01*
X167610151Y-77510151D01*
X167749416Y-77395860D01*
X167749415Y-77395860D01*
X167749417Y-77395859D01*
X167908304Y-77310932D01*
X167908306Y-77310931D01*
X168080706Y-77258633D01*
X168215069Y-77245400D01*
X168304931Y-77245400D01*
X168439294Y-77258633D01*
X168439294Y-77258633D01*
G37*
G36*
X91550442Y-75305518D02*
X91616627Y-75312037D01*
X91729853Y-75346384D01*
X91786467Y-75363557D01*
X91925087Y-75437652D01*
X91942991Y-75447222D01*
X91978729Y-75476552D01*
X92080186Y-75559814D01*
X92163448Y-75661271D01*
X92192778Y-75697009D01*
X92192779Y-75697011D01*
X92276443Y-75853533D01*
X92276443Y-75853534D01*
X92327963Y-76023373D01*
X92345359Y-76200000D01*
X92327963Y-76376627D01*
X92299921Y-76469068D01*
X92276443Y-76546467D01*
X92202348Y-76685087D01*
X92192778Y-76702991D01*
X92163448Y-76738729D01*
X92080186Y-76840186D01*
X91978729Y-76923448D01*
X91942991Y-76952778D01*
X91942989Y-76952779D01*
X91786467Y-77036443D01*
X91729853Y-77053616D01*
X91616627Y-77087963D01*
X91550442Y-77094482D01*
X91484260Y-77101000D01*
X91395740Y-77101000D01*
X91329558Y-77094482D01*
X91263373Y-77087963D01*
X91150147Y-77053616D01*
X91093533Y-77036443D01*
X90937011Y-76952779D01*
X90937009Y-76952778D01*
X90901271Y-76923448D01*
X90799814Y-76840186D01*
X90716552Y-76738729D01*
X90687222Y-76702991D01*
X90677652Y-76685087D01*
X90603557Y-76546467D01*
X90580079Y-76469068D01*
X90552037Y-76376627D01*
X90534641Y-76200000D01*
X90552037Y-76023373D01*
X90603557Y-75853534D01*
X90603557Y-75853533D01*
X90687221Y-75697011D01*
X90687222Y-75697009D01*
X90716552Y-75661271D01*
X90799814Y-75559814D01*
X90901271Y-75476552D01*
X90937009Y-75447222D01*
X90954913Y-75437652D01*
X91093533Y-75363557D01*
X91150147Y-75346384D01*
X91263373Y-75312037D01*
X91329558Y-75305518D01*
X91395740Y-75299000D01*
X91484260Y-75299000D01*
X91550442Y-75305518D01*
X91550442Y-75305518D01*
G37*
G36*
X94090442Y-75305518D02*
X94156627Y-75312037D01*
X94269853Y-75346384D01*
X94326467Y-75363557D01*
X94465087Y-75437652D01*
X94482991Y-75447222D01*
X94518729Y-75476552D01*
X94620186Y-75559814D01*
X94703448Y-75661271D01*
X94732778Y-75697009D01*
X94732779Y-75697011D01*
X94816443Y-75853533D01*
X94816443Y-75853534D01*
X94867963Y-76023373D01*
X94885359Y-76200000D01*
X94867963Y-76376627D01*
X94839921Y-76469068D01*
X94816443Y-76546467D01*
X94742348Y-76685087D01*
X94732778Y-76702991D01*
X94703448Y-76738729D01*
X94620186Y-76840186D01*
X94518729Y-76923448D01*
X94482991Y-76952778D01*
X94482989Y-76952779D01*
X94326467Y-77036443D01*
X94269853Y-77053616D01*
X94156627Y-77087963D01*
X94090442Y-77094482D01*
X94024260Y-77101000D01*
X93935740Y-77101000D01*
X93869558Y-77094482D01*
X93803373Y-77087963D01*
X93690147Y-77053616D01*
X93633533Y-77036443D01*
X93477011Y-76952779D01*
X93477009Y-76952778D01*
X93441271Y-76923448D01*
X93339814Y-76840186D01*
X93256552Y-76738729D01*
X93227222Y-76702991D01*
X93217652Y-76685087D01*
X93143557Y-76546467D01*
X93120079Y-76469068D01*
X93092037Y-76376627D01*
X93074641Y-76200000D01*
X93092037Y-76023373D01*
X93143557Y-75853534D01*
X93143557Y-75853533D01*
X93227221Y-75697011D01*
X93227222Y-75697009D01*
X93256552Y-75661271D01*
X93339814Y-75559814D01*
X93441271Y-75476552D01*
X93477009Y-75447222D01*
X93494913Y-75437652D01*
X93633533Y-75363557D01*
X93690147Y-75346384D01*
X93803373Y-75312037D01*
X93869558Y-75305518D01*
X93935740Y-75299000D01*
X94024260Y-75299000D01*
X94090442Y-75305518D01*
X94090442Y-75305518D01*
G37*
G36*
X168439294Y-74718633D02*
X168611694Y-74770931D01*
X168611696Y-74770932D01*
X168770583Y-74855859D01*
X168770585Y-74855860D01*
X168770584Y-74855860D01*
X168909849Y-74970151D01*
X169024140Y-75109416D01*
X169109069Y-75268306D01*
X169161367Y-75440706D01*
X169179025Y-75620000D01*
X169161367Y-75799294D01*
X169109069Y-75971694D01*
X169109068Y-75971696D01*
X169024141Y-76130583D01*
X168909849Y-76269849D01*
X168770583Y-76384141D01*
X168611696Y-76469068D01*
X168611694Y-76469069D01*
X168439294Y-76521367D01*
X168304931Y-76534600D01*
X168215069Y-76534600D01*
X168080706Y-76521367D01*
X167908306Y-76469069D01*
X167908304Y-76469068D01*
X167749417Y-76384141D01*
X167610151Y-76269849D01*
X167495859Y-76130583D01*
X167410932Y-75971696D01*
X167410931Y-75971694D01*
X167358633Y-75799294D01*
X167340975Y-75620000D01*
X167358633Y-75440706D01*
X167410931Y-75268306D01*
X167495860Y-75109416D01*
X167610151Y-74970151D01*
X167749416Y-74855860D01*
X167749415Y-74855860D01*
X167749417Y-74855859D01*
X167908304Y-74770932D01*
X167908306Y-74770931D01*
X168080706Y-74718633D01*
X168215069Y-74705400D01*
X168304931Y-74705400D01*
X168439294Y-74718633D01*
X168439294Y-74718633D01*
G37*
G36*
X170979294Y-74718633D02*
X171151694Y-74770931D01*
X171151696Y-74770932D01*
X171310583Y-74855859D01*
X171310585Y-74855860D01*
X171310584Y-74855860D01*
X171449849Y-74970151D01*
X171564140Y-75109416D01*
X171649069Y-75268306D01*
X171701367Y-75440706D01*
X171719025Y-75620000D01*
X171701367Y-75799294D01*
X171649069Y-75971694D01*
X171649068Y-75971696D01*
X171564141Y-76130583D01*
X171449849Y-76269849D01*
X171310583Y-76384141D01*
X171151696Y-76469068D01*
X171151694Y-76469069D01*
X170979294Y-76521367D01*
X170844931Y-76534600D01*
X170755069Y-76534600D01*
X170620706Y-76521367D01*
X170448306Y-76469069D01*
X170448304Y-76469068D01*
X170289417Y-76384141D01*
X170150151Y-76269849D01*
X170035859Y-76130583D01*
X169950932Y-75971696D01*
X169950931Y-75971694D01*
X169898633Y-75799294D01*
X169880975Y-75620000D01*
X169898633Y-75440706D01*
X169950931Y-75268306D01*
X170035860Y-75109416D01*
X170150151Y-74970151D01*
X170289416Y-74855860D01*
X170289415Y-74855860D01*
X170289417Y-74855859D01*
X170448304Y-74770932D01*
X170448306Y-74770931D01*
X170620706Y-74718633D01*
X170755069Y-74705400D01*
X170844931Y-74705400D01*
X170979294Y-74718633D01*
X170979294Y-74718633D01*
G37*
G36*
X120179294Y-74718633D02*
X120351694Y-74770931D01*
X120351696Y-74770932D01*
X120510583Y-74855859D01*
X120510585Y-74855860D01*
X120510584Y-74855860D01*
X120649849Y-74970151D01*
X120764140Y-75109416D01*
X120849069Y-75268306D01*
X120901367Y-75440706D01*
X120919025Y-75620000D01*
X120901367Y-75799294D01*
X120849069Y-75971694D01*
X120849068Y-75971696D01*
X120764141Y-76130583D01*
X120649849Y-76269849D01*
X120510583Y-76384141D01*
X120351696Y-76469068D01*
X120351694Y-76469069D01*
X120179294Y-76521367D01*
X120044931Y-76534600D01*
X119955069Y-76534600D01*
X119820706Y-76521367D01*
X119648306Y-76469069D01*
X119648304Y-76469068D01*
X119489417Y-76384141D01*
X119350151Y-76269849D01*
X119235859Y-76130583D01*
X119150932Y-75971696D01*
X119150931Y-75971694D01*
X119098633Y-75799294D01*
X119080975Y-75620000D01*
X119098633Y-75440706D01*
X119150931Y-75268306D01*
X119235860Y-75109416D01*
X119350151Y-74970151D01*
X119489416Y-74855860D01*
X119489415Y-74855860D01*
X119489417Y-74855859D01*
X119648304Y-74770932D01*
X119648306Y-74770931D01*
X119820706Y-74718633D01*
X119955069Y-74705400D01*
X120044931Y-74705400D01*
X120179294Y-74718633D01*
X120179294Y-74718633D01*
G37*
G36*
X122719294Y-74718633D02*
X122891694Y-74770931D01*
X122891696Y-74770932D01*
X123050583Y-74855859D01*
X123050585Y-74855860D01*
X123050584Y-74855860D01*
X123189849Y-74970151D01*
X123304140Y-75109416D01*
X123389069Y-75268306D01*
X123441367Y-75440706D01*
X123459025Y-75620000D01*
X123441367Y-75799294D01*
X123389069Y-75971694D01*
X123389068Y-75971696D01*
X123304141Y-76130583D01*
X123189849Y-76269849D01*
X123050583Y-76384141D01*
X122891696Y-76469068D01*
X122891694Y-76469069D01*
X122719294Y-76521367D01*
X122584931Y-76534600D01*
X122495069Y-76534600D01*
X122360706Y-76521367D01*
X122188306Y-76469069D01*
X122188304Y-76469068D01*
X122029417Y-76384141D01*
X121890151Y-76269849D01*
X121775859Y-76130583D01*
X121690932Y-75971696D01*
X121690931Y-75971694D01*
X121638633Y-75799294D01*
X121620975Y-75620000D01*
X121638633Y-75440706D01*
X121690931Y-75268306D01*
X121775860Y-75109416D01*
X121890151Y-74970151D01*
X122029416Y-74855860D01*
X122029415Y-74855860D01*
X122029417Y-74855859D01*
X122188304Y-74770932D01*
X122188306Y-74770931D01*
X122360706Y-74718633D01*
X122495069Y-74705400D01*
X122584931Y-74705400D01*
X122719294Y-74718633D01*
X122719294Y-74718633D01*
G37*
G36*
X91550442Y-72765518D02*
X91616627Y-72772037D01*
X91729853Y-72806384D01*
X91786467Y-72823557D01*
X91925087Y-72897652D01*
X91942991Y-72907222D01*
X91978729Y-72936552D01*
X92080186Y-73019814D01*
X92163448Y-73121271D01*
X92192778Y-73157009D01*
X92192779Y-73157011D01*
X92276443Y-73313533D01*
X92276443Y-73313534D01*
X92327963Y-73483373D01*
X92345359Y-73660000D01*
X92327963Y-73836627D01*
X92299921Y-73929068D01*
X92276443Y-74006467D01*
X92202348Y-74145087D01*
X92192778Y-74162991D01*
X92163448Y-74198729D01*
X92080186Y-74300186D01*
X91978729Y-74383448D01*
X91942991Y-74412778D01*
X91942989Y-74412779D01*
X91786467Y-74496443D01*
X91729853Y-74513616D01*
X91616627Y-74547963D01*
X91550442Y-74554482D01*
X91484260Y-74561000D01*
X91395740Y-74561000D01*
X91329558Y-74554482D01*
X91263373Y-74547963D01*
X91150147Y-74513616D01*
X91093533Y-74496443D01*
X90937011Y-74412779D01*
X90937009Y-74412778D01*
X90901271Y-74383448D01*
X90799814Y-74300186D01*
X90716552Y-74198729D01*
X90687222Y-74162991D01*
X90677652Y-74145087D01*
X90603557Y-74006467D01*
X90580079Y-73929068D01*
X90552037Y-73836627D01*
X90534641Y-73660000D01*
X90552037Y-73483373D01*
X90603557Y-73313534D01*
X90603557Y-73313533D01*
X90687221Y-73157011D01*
X90687222Y-73157009D01*
X90716552Y-73121271D01*
X90799814Y-73019814D01*
X90901271Y-72936552D01*
X90937009Y-72907222D01*
X90954913Y-72897652D01*
X91093533Y-72823557D01*
X91150147Y-72806384D01*
X91263373Y-72772037D01*
X91329558Y-72765518D01*
X91395740Y-72759000D01*
X91484260Y-72759000D01*
X91550442Y-72765518D01*
X91550442Y-72765518D01*
G37*
G36*
X94090442Y-72765518D02*
X94156627Y-72772037D01*
X94269853Y-72806384D01*
X94326467Y-72823557D01*
X94465087Y-72897652D01*
X94482991Y-72907222D01*
X94518729Y-72936552D01*
X94620186Y-73019814D01*
X94703448Y-73121271D01*
X94732778Y-73157009D01*
X94732779Y-73157011D01*
X94816443Y-73313533D01*
X94816443Y-73313534D01*
X94867963Y-73483373D01*
X94885359Y-73660000D01*
X94867963Y-73836627D01*
X94839921Y-73929068D01*
X94816443Y-74006467D01*
X94742348Y-74145087D01*
X94732778Y-74162991D01*
X94703448Y-74198729D01*
X94620186Y-74300186D01*
X94518729Y-74383448D01*
X94482991Y-74412778D01*
X94482989Y-74412779D01*
X94326467Y-74496443D01*
X94269853Y-74513616D01*
X94156627Y-74547963D01*
X94090442Y-74554482D01*
X94024260Y-74561000D01*
X93935740Y-74561000D01*
X93869558Y-74554482D01*
X93803373Y-74547963D01*
X93690147Y-74513616D01*
X93633533Y-74496443D01*
X93477011Y-74412779D01*
X93477009Y-74412778D01*
X93441271Y-74383448D01*
X93339814Y-74300186D01*
X93256552Y-74198729D01*
X93227222Y-74162991D01*
X93217652Y-74145087D01*
X93143557Y-74006467D01*
X93120079Y-73929068D01*
X93092037Y-73836627D01*
X93074641Y-73660000D01*
X93092037Y-73483373D01*
X93143557Y-73313534D01*
X93143557Y-73313533D01*
X93227221Y-73157011D01*
X93227222Y-73157009D01*
X93256552Y-73121271D01*
X93339814Y-73019814D01*
X93441271Y-72936552D01*
X93477009Y-72907222D01*
X93494913Y-72897652D01*
X93633533Y-72823557D01*
X93690147Y-72806384D01*
X93803373Y-72772037D01*
X93869558Y-72765518D01*
X93935740Y-72759000D01*
X94024260Y-72759000D01*
X94090442Y-72765518D01*
X94090442Y-72765518D01*
G37*
G36*
X120179294Y-72178633D02*
X120351694Y-72230931D01*
X120351696Y-72230932D01*
X120510583Y-72315859D01*
X120510585Y-72315860D01*
X120510584Y-72315860D01*
X120649849Y-72430151D01*
X120764140Y-72569416D01*
X120849069Y-72728306D01*
X120901367Y-72900706D01*
X120919025Y-73080000D01*
X120901367Y-73259294D01*
X120849069Y-73431694D01*
X120849068Y-73431696D01*
X120764141Y-73590583D01*
X120649849Y-73729849D01*
X120510583Y-73844141D01*
X120351696Y-73929068D01*
X120351694Y-73929069D01*
X120179294Y-73981367D01*
X120044931Y-73994600D01*
X119955069Y-73994600D01*
X119820706Y-73981367D01*
X119648306Y-73929069D01*
X119648304Y-73929068D01*
X119489417Y-73844141D01*
X119350151Y-73729849D01*
X119235859Y-73590583D01*
X119150932Y-73431696D01*
X119150931Y-73431694D01*
X119098633Y-73259294D01*
X119080975Y-73080000D01*
X119098633Y-72900706D01*
X119150931Y-72728306D01*
X119235860Y-72569416D01*
X119350151Y-72430151D01*
X119489416Y-72315860D01*
X119489415Y-72315860D01*
X119489417Y-72315859D01*
X119648304Y-72230932D01*
X119648306Y-72230931D01*
X119820706Y-72178633D01*
X119955069Y-72165400D01*
X120044931Y-72165400D01*
X120179294Y-72178633D01*
X120179294Y-72178633D01*
G37*
G36*
X122719294Y-72178633D02*
X122891694Y-72230931D01*
X122891696Y-72230932D01*
X123050583Y-72315859D01*
X123050585Y-72315860D01*
X123050584Y-72315860D01*
X123189849Y-72430151D01*
X123304140Y-72569416D01*
X123389069Y-72728306D01*
X123441367Y-72900706D01*
X123459025Y-73080000D01*
X123441367Y-73259294D01*
X123389069Y-73431694D01*
X123389068Y-73431696D01*
X123304141Y-73590583D01*
X123189849Y-73729849D01*
X123050583Y-73844141D01*
X122891696Y-73929068D01*
X122891694Y-73929069D01*
X122719294Y-73981367D01*
X122584931Y-73994600D01*
X122495069Y-73994600D01*
X122360706Y-73981367D01*
X122188306Y-73929069D01*
X122188304Y-73929068D01*
X122029417Y-73844141D01*
X121890151Y-73729849D01*
X121775859Y-73590583D01*
X121690932Y-73431696D01*
X121690931Y-73431694D01*
X121638633Y-73259294D01*
X121620975Y-73080000D01*
X121638633Y-72900706D01*
X121690931Y-72728306D01*
X121775860Y-72569416D01*
X121890151Y-72430151D01*
X122029416Y-72315860D01*
X122029415Y-72315860D01*
X122029417Y-72315859D01*
X122188304Y-72230932D01*
X122188306Y-72230931D01*
X122360706Y-72178633D01*
X122495069Y-72165400D01*
X122584931Y-72165400D01*
X122719294Y-72178633D01*
X122719294Y-72178633D01*
G37*
G36*
X170979294Y-72178633D02*
X171151694Y-72230931D01*
X171151696Y-72230932D01*
X171310583Y-72315859D01*
X171310585Y-72315860D01*
X171310584Y-72315860D01*
X171449849Y-72430151D01*
X171564140Y-72569416D01*
X171649069Y-72728306D01*
X171701367Y-72900706D01*
X171719025Y-73080000D01*
X171701367Y-73259294D01*
X171649069Y-73431694D01*
X171649068Y-73431696D01*
X171564141Y-73590583D01*
X171449849Y-73729849D01*
X171310583Y-73844141D01*
X171151696Y-73929068D01*
X171151694Y-73929069D01*
X170979294Y-73981367D01*
X170844931Y-73994600D01*
X170755069Y-73994600D01*
X170620706Y-73981367D01*
X170448306Y-73929069D01*
X170448304Y-73929068D01*
X170289417Y-73844141D01*
X170150151Y-73729849D01*
X170035859Y-73590583D01*
X169950932Y-73431696D01*
X169950931Y-73431694D01*
X169898633Y-73259294D01*
X169880975Y-73080000D01*
X169898633Y-72900706D01*
X169950931Y-72728306D01*
X170035860Y-72569416D01*
X170150151Y-72430151D01*
X170289416Y-72315860D01*
X170289415Y-72315860D01*
X170289417Y-72315859D01*
X170448304Y-72230932D01*
X170448306Y-72230931D01*
X170620706Y-72178633D01*
X170755069Y-72165400D01*
X170844931Y-72165400D01*
X170979294Y-72178633D01*
X170979294Y-72178633D01*
G37*
G36*
X168439294Y-72178633D02*
X168611694Y-72230931D01*
X168611696Y-72230932D01*
X168770583Y-72315859D01*
X168770585Y-72315860D01*
X168770584Y-72315860D01*
X168909849Y-72430151D01*
X169024140Y-72569416D01*
X169109069Y-72728306D01*
X169161367Y-72900706D01*
X169179025Y-73080000D01*
X169161367Y-73259294D01*
X169109069Y-73431694D01*
X169109068Y-73431696D01*
X169024141Y-73590583D01*
X168909849Y-73729849D01*
X168770583Y-73844141D01*
X168611696Y-73929068D01*
X168611694Y-73929069D01*
X168439294Y-73981367D01*
X168304931Y-73994600D01*
X168215069Y-73994600D01*
X168080706Y-73981367D01*
X167908306Y-73929069D01*
X167908304Y-73929068D01*
X167749417Y-73844141D01*
X167610151Y-73729849D01*
X167495859Y-73590583D01*
X167410932Y-73431696D01*
X167410931Y-73431694D01*
X167358633Y-73259294D01*
X167340975Y-73080000D01*
X167358633Y-72900706D01*
X167410931Y-72728306D01*
X167495860Y-72569416D01*
X167610151Y-72430151D01*
X167749416Y-72315860D01*
X167749415Y-72315860D01*
X167749417Y-72315859D01*
X167908304Y-72230932D01*
X167908306Y-72230931D01*
X168080706Y-72178633D01*
X168215069Y-72165400D01*
X168304931Y-72165400D01*
X168439294Y-72178633D01*
X168439294Y-72178633D01*
G37*
G36*
X91550442Y-70225518D02*
X91616627Y-70232037D01*
X91729853Y-70266384D01*
X91786467Y-70283557D01*
X91925087Y-70357652D01*
X91942991Y-70367222D01*
X91978729Y-70396552D01*
X92080186Y-70479814D01*
X92163448Y-70581271D01*
X92192778Y-70617009D01*
X92192779Y-70617011D01*
X92276443Y-70773533D01*
X92276443Y-70773534D01*
X92327963Y-70943373D01*
X92345359Y-71120000D01*
X92327963Y-71296627D01*
X92299921Y-71389068D01*
X92276443Y-71466467D01*
X92202348Y-71605087D01*
X92192778Y-71622991D01*
X92163448Y-71658729D01*
X92080186Y-71760186D01*
X91978729Y-71843448D01*
X91942991Y-71872778D01*
X91942989Y-71872779D01*
X91786467Y-71956443D01*
X91729853Y-71973616D01*
X91616627Y-72007963D01*
X91550443Y-72014481D01*
X91484260Y-72021000D01*
X91395740Y-72021000D01*
X91329557Y-72014481D01*
X91263373Y-72007963D01*
X91150147Y-71973616D01*
X91093533Y-71956443D01*
X90937011Y-71872779D01*
X90937009Y-71872778D01*
X90901271Y-71843448D01*
X90799814Y-71760186D01*
X90716552Y-71658729D01*
X90687222Y-71622991D01*
X90677652Y-71605087D01*
X90603557Y-71466467D01*
X90580079Y-71389068D01*
X90552037Y-71296627D01*
X90534641Y-71120000D01*
X90552037Y-70943373D01*
X90603557Y-70773534D01*
X90603557Y-70773533D01*
X90687221Y-70617011D01*
X90687222Y-70617009D01*
X90716552Y-70581271D01*
X90799814Y-70479814D01*
X90901271Y-70396552D01*
X90937009Y-70367222D01*
X90954913Y-70357652D01*
X91093533Y-70283557D01*
X91150147Y-70266384D01*
X91263373Y-70232037D01*
X91329558Y-70225518D01*
X91395740Y-70219000D01*
X91484260Y-70219000D01*
X91550442Y-70225518D01*
X91550442Y-70225518D01*
G37*
G36*
X94090442Y-70225518D02*
X94156627Y-70232037D01*
X94269853Y-70266384D01*
X94326467Y-70283557D01*
X94465087Y-70357652D01*
X94482991Y-70367222D01*
X94518729Y-70396552D01*
X94620186Y-70479814D01*
X94703448Y-70581271D01*
X94732778Y-70617009D01*
X94732779Y-70617011D01*
X94816443Y-70773533D01*
X94816443Y-70773534D01*
X94867963Y-70943373D01*
X94885359Y-71120000D01*
X94867963Y-71296627D01*
X94839921Y-71389068D01*
X94816443Y-71466467D01*
X94742348Y-71605087D01*
X94732778Y-71622991D01*
X94703448Y-71658729D01*
X94620186Y-71760186D01*
X94518729Y-71843448D01*
X94482991Y-71872778D01*
X94482989Y-71872779D01*
X94326467Y-71956443D01*
X94269853Y-71973616D01*
X94156627Y-72007963D01*
X94090443Y-72014481D01*
X94024260Y-72021000D01*
X93935740Y-72021000D01*
X93869557Y-72014481D01*
X93803373Y-72007963D01*
X93690147Y-71973616D01*
X93633533Y-71956443D01*
X93477011Y-71872779D01*
X93477009Y-71872778D01*
X93441271Y-71843448D01*
X93339814Y-71760186D01*
X93256552Y-71658729D01*
X93227222Y-71622991D01*
X93217652Y-71605087D01*
X93143557Y-71466467D01*
X93120079Y-71389068D01*
X93092037Y-71296627D01*
X93074641Y-71120000D01*
X93092037Y-70943373D01*
X93143557Y-70773534D01*
X93143557Y-70773533D01*
X93227221Y-70617011D01*
X93227222Y-70617009D01*
X93256552Y-70581271D01*
X93339814Y-70479814D01*
X93441271Y-70396552D01*
X93477009Y-70367222D01*
X93494913Y-70357652D01*
X93633533Y-70283557D01*
X93690147Y-70266384D01*
X93803373Y-70232037D01*
X93869558Y-70225518D01*
X93935740Y-70219000D01*
X94024260Y-70219000D01*
X94090442Y-70225518D01*
X94090442Y-70225518D01*
G37*
G36*
X120179294Y-69638633D02*
X120351694Y-69690931D01*
X120351696Y-69690932D01*
X120510583Y-69775859D01*
X120510585Y-69775860D01*
X120510584Y-69775860D01*
X120649849Y-69890151D01*
X120764140Y-70029416D01*
X120849069Y-70188306D01*
X120901367Y-70360706D01*
X120919025Y-70540000D01*
X120901367Y-70719294D01*
X120849069Y-70891694D01*
X120849068Y-70891696D01*
X120764141Y-71050583D01*
X120649849Y-71189849D01*
X120510583Y-71304141D01*
X120351696Y-71389068D01*
X120351694Y-71389069D01*
X120179294Y-71441367D01*
X120044931Y-71454600D01*
X119955069Y-71454600D01*
X119820706Y-71441367D01*
X119648306Y-71389069D01*
X119648304Y-71389068D01*
X119489417Y-71304141D01*
X119350151Y-71189849D01*
X119235859Y-71050583D01*
X119150932Y-70891696D01*
X119150931Y-70891694D01*
X119098633Y-70719294D01*
X119080975Y-70540000D01*
X119098633Y-70360706D01*
X119150931Y-70188306D01*
X119235860Y-70029416D01*
X119350151Y-69890151D01*
X119489416Y-69775860D01*
X119489415Y-69775860D01*
X119489417Y-69775859D01*
X119648304Y-69690932D01*
X119648306Y-69690931D01*
X119820706Y-69638633D01*
X119955069Y-69625400D01*
X120044931Y-69625400D01*
X120179294Y-69638633D01*
X120179294Y-69638633D01*
G37*
G36*
X122719294Y-69638633D02*
X122891694Y-69690931D01*
X122891696Y-69690932D01*
X123050583Y-69775859D01*
X123050585Y-69775860D01*
X123050584Y-69775860D01*
X123189849Y-69890151D01*
X123304140Y-70029416D01*
X123389069Y-70188306D01*
X123441367Y-70360706D01*
X123459025Y-70540000D01*
X123441367Y-70719294D01*
X123389069Y-70891694D01*
X123389068Y-70891696D01*
X123304141Y-71050583D01*
X123189849Y-71189849D01*
X123050583Y-71304141D01*
X122891696Y-71389068D01*
X122891694Y-71389069D01*
X122719294Y-71441367D01*
X122584931Y-71454600D01*
X122495069Y-71454600D01*
X122360706Y-71441367D01*
X122188306Y-71389069D01*
X122188304Y-71389068D01*
X122029417Y-71304141D01*
X121890151Y-71189849D01*
X121775859Y-71050583D01*
X121690932Y-70891696D01*
X121690931Y-70891694D01*
X121638633Y-70719294D01*
X121620975Y-70540000D01*
X121638633Y-70360706D01*
X121690931Y-70188306D01*
X121775860Y-70029416D01*
X121890151Y-69890151D01*
X122029416Y-69775860D01*
X122029415Y-69775860D01*
X122029417Y-69775859D01*
X122188304Y-69690932D01*
X122188306Y-69690931D01*
X122360706Y-69638633D01*
X122495069Y-69625400D01*
X122584931Y-69625400D01*
X122719294Y-69638633D01*
X122719294Y-69638633D01*
G37*
G36*
X168439294Y-69638633D02*
X168611694Y-69690931D01*
X168611696Y-69690932D01*
X168770583Y-69775859D01*
X168770585Y-69775860D01*
X168770584Y-69775860D01*
X168909849Y-69890151D01*
X169024140Y-70029416D01*
X169109069Y-70188306D01*
X169161367Y-70360706D01*
X169179025Y-70540000D01*
X169161367Y-70719294D01*
X169109069Y-70891694D01*
X169109068Y-70891696D01*
X169024141Y-71050583D01*
X168909849Y-71189849D01*
X168770583Y-71304141D01*
X168611696Y-71389068D01*
X168611694Y-71389069D01*
X168439294Y-71441367D01*
X168304931Y-71454600D01*
X168215069Y-71454600D01*
X168080706Y-71441367D01*
X167908306Y-71389069D01*
X167908304Y-71389068D01*
X167749417Y-71304141D01*
X167610151Y-71189849D01*
X167495859Y-71050583D01*
X167410932Y-70891696D01*
X167410931Y-70891694D01*
X167358633Y-70719294D01*
X167340975Y-70540000D01*
X167358633Y-70360706D01*
X167410931Y-70188306D01*
X167495860Y-70029416D01*
X167610151Y-69890151D01*
X167749416Y-69775860D01*
X167749415Y-69775860D01*
X167749417Y-69775859D01*
X167908304Y-69690932D01*
X167908306Y-69690931D01*
X168080706Y-69638633D01*
X168215069Y-69625400D01*
X168304931Y-69625400D01*
X168439294Y-69638633D01*
X168439294Y-69638633D01*
G37*
G36*
X170979294Y-69638633D02*
X171151694Y-69690931D01*
X171151696Y-69690932D01*
X171310583Y-69775859D01*
X171310585Y-69775860D01*
X171310584Y-69775860D01*
X171449849Y-69890151D01*
X171564140Y-70029416D01*
X171649069Y-70188306D01*
X171701367Y-70360706D01*
X171719025Y-70540000D01*
X171701367Y-70719294D01*
X171649069Y-70891694D01*
X171649068Y-70891696D01*
X171564141Y-71050583D01*
X171449849Y-71189849D01*
X171310583Y-71304141D01*
X171151696Y-71389068D01*
X171151694Y-71389069D01*
X170979294Y-71441367D01*
X170844931Y-71454600D01*
X170755069Y-71454600D01*
X170620706Y-71441367D01*
X170448306Y-71389069D01*
X170448304Y-71389068D01*
X170289417Y-71304141D01*
X170150151Y-71189849D01*
X170035859Y-71050583D01*
X169950932Y-70891696D01*
X169950931Y-70891694D01*
X169898633Y-70719294D01*
X169880975Y-70540000D01*
X169898633Y-70360706D01*
X169950931Y-70188306D01*
X170035860Y-70029416D01*
X170150151Y-69890151D01*
X170289416Y-69775860D01*
X170289415Y-69775860D01*
X170289417Y-69775859D01*
X170448304Y-69690932D01*
X170448306Y-69690931D01*
X170620706Y-69638633D01*
X170755069Y-69625400D01*
X170844931Y-69625400D01*
X170979294Y-69638633D01*
X170979294Y-69638633D01*
G37*
G36*
X94090443Y-67685519D02*
X94156627Y-67692037D01*
X94269853Y-67726384D01*
X94326467Y-67743557D01*
X94465087Y-67817652D01*
X94482991Y-67827222D01*
X94518729Y-67856552D01*
X94620186Y-67939814D01*
X94703448Y-68041271D01*
X94732778Y-68077009D01*
X94732779Y-68077011D01*
X94816443Y-68233533D01*
X94816443Y-68233534D01*
X94867963Y-68403373D01*
X94885359Y-68580000D01*
X94867963Y-68756627D01*
X94839921Y-68849068D01*
X94816443Y-68926467D01*
X94742348Y-69065087D01*
X94732778Y-69082991D01*
X94703448Y-69118729D01*
X94620186Y-69220186D01*
X94518729Y-69303448D01*
X94482991Y-69332778D01*
X94482989Y-69332779D01*
X94326467Y-69416443D01*
X94269853Y-69433616D01*
X94156627Y-69467963D01*
X94090442Y-69474482D01*
X94024260Y-69481000D01*
X93935740Y-69481000D01*
X93869558Y-69474482D01*
X93803373Y-69467963D01*
X93690147Y-69433616D01*
X93633533Y-69416443D01*
X93477011Y-69332779D01*
X93477009Y-69332778D01*
X93441271Y-69303448D01*
X93339814Y-69220186D01*
X93256552Y-69118729D01*
X93227222Y-69082991D01*
X93217652Y-69065087D01*
X93143557Y-68926467D01*
X93120079Y-68849068D01*
X93092037Y-68756627D01*
X93074641Y-68580000D01*
X93092037Y-68403373D01*
X93143557Y-68233534D01*
X93143557Y-68233533D01*
X93227221Y-68077011D01*
X93227222Y-68077009D01*
X93256552Y-68041271D01*
X93339814Y-67939814D01*
X93441271Y-67856552D01*
X93477009Y-67827222D01*
X93494913Y-67817652D01*
X93633533Y-67743557D01*
X93690147Y-67726384D01*
X93803373Y-67692037D01*
X93869557Y-67685519D01*
X93935740Y-67679000D01*
X94024260Y-67679000D01*
X94090443Y-67685519D01*
X94090443Y-67685519D01*
G37*
G36*
X92341000Y-69481000D02*
X90539000Y-69481000D01*
X90539000Y-67679000D01*
X92341000Y-67679000D01*
X92341000Y-69481000D01*
X92341000Y-69481000D01*
G37*
G36*
X170979294Y-67098633D02*
X171151694Y-67150931D01*
X171151696Y-67150932D01*
X171310583Y-67235859D01*
X171310585Y-67235860D01*
X171310584Y-67235860D01*
X171449849Y-67350151D01*
X171564140Y-67489416D01*
X171649069Y-67648306D01*
X171701367Y-67820706D01*
X171719025Y-68000000D01*
X171701367Y-68179294D01*
X171649069Y-68351694D01*
X171649068Y-68351696D01*
X171564141Y-68510583D01*
X171449849Y-68649849D01*
X171310583Y-68764141D01*
X171151696Y-68849068D01*
X171151694Y-68849069D01*
X170979294Y-68901367D01*
X170844931Y-68914600D01*
X170755069Y-68914600D01*
X170620706Y-68901367D01*
X170448306Y-68849069D01*
X170448304Y-68849068D01*
X170289417Y-68764141D01*
X170150151Y-68649849D01*
X170035859Y-68510583D01*
X169950932Y-68351696D01*
X169950931Y-68351694D01*
X169898633Y-68179294D01*
X169880975Y-68000000D01*
X169898633Y-67820706D01*
X169950931Y-67648306D01*
X170035860Y-67489416D01*
X170150151Y-67350151D01*
X170289416Y-67235860D01*
X170289415Y-67235860D01*
X170289417Y-67235859D01*
X170448304Y-67150932D01*
X170448306Y-67150931D01*
X170620706Y-67098633D01*
X170755069Y-67085400D01*
X170844931Y-67085400D01*
X170979294Y-67098633D01*
X170979294Y-67098633D01*
G37*
G36*
X169174600Y-68914600D02*
X167345400Y-68914600D01*
X167345400Y-67085400D01*
X169174600Y-67085400D01*
X169174600Y-68914600D01*
X169174600Y-68914600D01*
G37*
G36*
X122719294Y-67098633D02*
X122891694Y-67150931D01*
X122891696Y-67150932D01*
X123050583Y-67235859D01*
X123050585Y-67235860D01*
X123050584Y-67235860D01*
X123189849Y-67350151D01*
X123304140Y-67489416D01*
X123389069Y-67648306D01*
X123441367Y-67820706D01*
X123459025Y-68000000D01*
X123441367Y-68179294D01*
X123389069Y-68351694D01*
X123389068Y-68351696D01*
X123304141Y-68510583D01*
X123189849Y-68649849D01*
X123050583Y-68764141D01*
X122891696Y-68849068D01*
X122891694Y-68849069D01*
X122719294Y-68901367D01*
X122584931Y-68914600D01*
X122495069Y-68914600D01*
X122360706Y-68901367D01*
X122188306Y-68849069D01*
X122188304Y-68849068D01*
X122029417Y-68764141D01*
X121890151Y-68649849D01*
X121775859Y-68510583D01*
X121690932Y-68351696D01*
X121690931Y-68351694D01*
X121638633Y-68179294D01*
X121620975Y-68000000D01*
X121638633Y-67820706D01*
X121690931Y-67648306D01*
X121775860Y-67489416D01*
X121890151Y-67350151D01*
X122029416Y-67235860D01*
X122029415Y-67235860D01*
X122029417Y-67235859D01*
X122188304Y-67150932D01*
X122188306Y-67150931D01*
X122360706Y-67098633D01*
X122495069Y-67085400D01*
X122584931Y-67085400D01*
X122719294Y-67098633D01*
X122719294Y-67098633D01*
G37*
G36*
X120914600Y-68914600D02*
X119085400Y-68914600D01*
X119085400Y-67085400D01*
X120914600Y-67085400D01*
X120914600Y-68914600D01*
X120914600Y-68914600D01*
G37*
M02*
