G04 #@! TF.GenerationSoftware,KiCad,Pcbnew,5.0.2-bee76a0~70~ubuntu18.04.1*
G04 #@! TF.CreationDate,2019-04-18T20:00:00+02:00*
G04 #@! TF.ProjectId,Cramps2_nano-soc,4372616d-7073-4325-9f6e-616e6f2d736f,rev?*
G04 #@! TF.SameCoordinates,Original*
G04 #@! TF.FileFunction,Copper,L1,Top*
G04 #@! TF.FilePolarity,Positive*
%FSLAX46Y46*%
G04 Gerber Fmt 4.6, Leading zero omitted, Abs format (unit mm)*
G04 Created by KiCad (PCBNEW 5.0.2-bee76a0~70~ubuntu18.04.1) date 2019-04-18T20:00:00 CEST*
%MOMM*%
%LPD*%
G01*
G04 APERTURE LIST*
G04 #@! TA.AperFunction,ComponentPad*
%ADD10O,1.727200X1.727200*%
G04 #@! TD*
G04 #@! TA.AperFunction,ComponentPad*
%ADD11R,1.727200X1.727200*%
G04 #@! TD*
G04 #@! TA.AperFunction,ComponentPad*
%ADD12R,1.700000X1.700000*%
G04 #@! TD*
G04 #@! TA.AperFunction,ComponentPad*
%ADD13O,1.700000X1.700000*%
G04 #@! TD*
G04 #@! TA.AperFunction,ComponentPad*
%ADD14C,1.600000*%
G04 #@! TD*
G04 #@! TA.AperFunction,ComponentPad*
%ADD15O,1.600000X1.600000*%
G04 #@! TD*
G04 #@! TA.AperFunction,ViaPad*
%ADD16C,0.800000*%
G04 #@! TD*
G04 #@! TA.AperFunction,Conductor*
%ADD17C,0.250000*%
G04 #@! TD*
G04 APERTURE END LIST*
D10*
G04 #@! TO.P,P9,46*
G04 #@! TO.N,DGND*
X122540000Y-123880000D03*
G04 #@! TO.P,P9,45*
X120000000Y-123880000D03*
G04 #@! TO.P,P9,44*
X122540000Y-121340000D03*
G04 #@! TO.P,P9,43*
X120000000Y-121340000D03*
G04 #@! TO.P,P9,42*
G04 #@! TO.N,STEP_U*
X122540000Y-118800000D03*
G04 #@! TO.P,P9,41*
G04 #@! TO.N,FET5*
X120000000Y-118800000D03*
G04 #@! TO.P,P9,40*
G04 #@! TO.N,AIN1*
X122540000Y-116260000D03*
G04 #@! TO.P,P9,39*
G04 #@! TO.N,AIN0*
X120000000Y-116260000D03*
G04 #@! TO.P,P9,38*
G04 #@! TO.N,AIN3*
X122540000Y-113720000D03*
G04 #@! TO.P,P9,37*
G04 #@! TO.N,AIN2*
X120000000Y-113720000D03*
G04 #@! TO.P,P9,36*
G04 #@! TO.N,THERM1*
X122540000Y-111180000D03*
G04 #@! TO.P,P9,35*
G04 #@! TO.N,THERM2*
X120000000Y-111180000D03*
G04 #@! TO.P,P9,34*
G04 #@! TO.N,ADC_GND*
X122540000Y-108640000D03*
G04 #@! TO.P,P9,33*
G04 #@! TO.N,THERM0*
X120000000Y-108640000D03*
G04 #@! TO.P,P9,32*
G04 #@! TO.N,ADC_VDD*
X122540000Y-106100000D03*
G04 #@! TO.P,P9,31*
G04 #@! TO.N,STEP_W*
X120000000Y-106100000D03*
G04 #@! TO.P,P9,30*
G04 #@! TO.N,DIR_W*
X122540000Y-103560000D03*
G04 #@! TO.P,P9,29*
G04 #@! TO.N,STEP_V*
X120000000Y-103560000D03*
G04 #@! TO.P,P9,28*
G04 #@! TO.N,DIR_V*
X122540000Y-101020000D03*
G04 #@! TO.P,P9,27*
G04 #@! TO.N,FET3*
X120000000Y-101020000D03*
G04 #@! TO.P,P9,26*
G04 #@! TO.N,E2_DIR*
X122540000Y-98480000D03*
G04 #@! TO.P,P9,25*
G04 #@! TO.N,LED*
X120000000Y-98480000D03*
G04 #@! TO.P,P9,24*
G04 #@! TO.N,E2_STEP*
X122540000Y-95940000D03*
G04 #@! TO.P,P9,23*
G04 #@! TO.N,MACHINE_PWR*
X120000000Y-95940000D03*
G04 #@! TO.P,P9,22*
G04 #@! TO.N,FET6*
X122540000Y-93400000D03*
G04 #@! TO.P,P9,21*
G04 #@! TO.N,FET4*
X120000000Y-93400000D03*
G04 #@! TO.P,P9,20*
G04 #@! TO.N,SDA*
X122540000Y-90860000D03*
G04 #@! TO.P,P9,19*
G04 #@! TO.N,Net-(P9-Pad19)*
X120000000Y-90860000D03*
G04 #@! TO.P,P9,18*
G04 #@! TO.N,E1_DIR*
X122540000Y-88320000D03*
G04 #@! TO.P,P9,17*
G04 #@! TO.N,E1_STEP*
X120000000Y-88320000D03*
G04 #@! TO.P,P9,16*
G04 #@! TO.N,E0_STEP*
X122540000Y-85780000D03*
G04 #@! TO.P,P9,15*
G04 #@! TO.N,FET2*
X120000000Y-85780000D03*
G04 #@! TO.P,P9,14*
G04 #@! TO.N,AXIS_ENAn*
X122540000Y-83240000D03*
G04 #@! TO.P,P9,13*
G04 #@! TO.N,Z-MIN*
X120000000Y-83240000D03*
G04 #@! TO.P,P9,12*
G04 #@! TO.N,E0_DIR*
X122540000Y-80700000D03*
G04 #@! TO.P,P9,11*
G04 #@! TO.N,Z-MAX*
X120000000Y-80700000D03*
G04 #@! TO.P,P9,10*
G04 #@! TO.N,Net-(P9-Pad10)*
X122540000Y-78160000D03*
G04 #@! TO.P,P9,9*
G04 #@! TO.N,Net-(P9-Pad9)*
X120000000Y-78160000D03*
G04 #@! TO.P,P9,8*
G04 #@! TO.N,SYS_5V*
X122540000Y-75620000D03*
G04 #@! TO.P,P9,7*
X120000000Y-75620000D03*
G04 #@! TO.P,P9,6*
X122540000Y-73080000D03*
G04 #@! TO.P,P9,5*
X120000000Y-73080000D03*
G04 #@! TO.P,P9,4*
G04 #@! TO.N,ADC_VDD*
X122540000Y-70540000D03*
G04 #@! TO.P,P9,3*
X120000000Y-70540000D03*
G04 #@! TO.P,P9,2*
G04 #@! TO.N,DGND*
X122540000Y-68000000D03*
D11*
G04 #@! TO.P,P9,1*
X120000000Y-68000000D03*
G04 #@! TD*
D10*
G04 #@! TO.P,P8,46*
G04 #@! TO.N,Net-(P8-Pad46)*
X170800000Y-123880000D03*
G04 #@! TO.P,P8,45*
G04 #@! TO.N,Net-(P8-Pad45)*
X168260000Y-123880000D03*
G04 #@! TO.P,P8,44*
G04 #@! TO.N,Net-(P8-Pad44)*
X170800000Y-121340000D03*
G04 #@! TO.P,P8,43*
G04 #@! TO.N,Net-(P8-Pad43)*
X168260000Y-121340000D03*
G04 #@! TO.P,P8,42*
G04 #@! TO.N,Net-(P8-Pad42)*
X170800000Y-118800000D03*
G04 #@! TO.P,P8,41*
G04 #@! TO.N,Net-(P8-Pad41)*
X168260000Y-118800000D03*
G04 #@! TO.P,P8,40*
G04 #@! TO.N,Net-(P8-Pad40)*
X170800000Y-116260000D03*
G04 #@! TO.P,P8,39*
G04 #@! TO.N,Net-(P8-Pad39)*
X168260000Y-116260000D03*
G04 #@! TO.P,P8,38*
G04 #@! TO.N,Net-(P8-Pad38)*
X170800000Y-113720000D03*
G04 #@! TO.P,P8,37*
G04 #@! TO.N,Net-(P8-Pad37)*
X168260000Y-113720000D03*
G04 #@! TO.P,P8,36*
G04 #@! TO.N,Net-(P8-Pad36)*
X170800000Y-111180000D03*
G04 #@! TO.P,P8,35*
G04 #@! TO.N,Net-(P8-Pad35)*
X168260000Y-111180000D03*
G04 #@! TO.P,P8,34*
G04 #@! TO.N,Net-(P8-Pad34)*
X170800000Y-108640000D03*
G04 #@! TO.P,P8,33*
G04 #@! TO.N,Net-(P8-Pad33)*
X168260000Y-108640000D03*
G04 #@! TO.P,P8,32*
G04 #@! TO.N,Net-(P8-Pad32)*
X170800000Y-106100000D03*
G04 #@! TO.P,P8,31*
G04 #@! TO.N,Net-(P8-Pad31)*
X168260000Y-106100000D03*
G04 #@! TO.P,P8,30*
G04 #@! TO.N,Net-(P8-Pad30)*
X170800000Y-103560000D03*
G04 #@! TO.P,P8,29*
G04 #@! TO.N,Net-(P8-Pad29)*
X168260000Y-103560000D03*
G04 #@! TO.P,P8,28*
G04 #@! TO.N,Net-(P8-Pad28)*
X170800000Y-101020000D03*
G04 #@! TO.P,P8,27*
G04 #@! TO.N,Net-(P8-Pad27)*
X168260000Y-101020000D03*
G04 #@! TO.P,P8,26*
G04 #@! TO.N,ESTOP_SW*
X170800000Y-98480000D03*
G04 #@! TO.P,P8,25*
G04 #@! TO.N,Net-(P8-Pad25)*
X168260000Y-98480000D03*
G04 #@! TO.P,P8,24*
G04 #@! TO.N,Net-(P8-Pad24)*
X170800000Y-95940000D03*
G04 #@! TO.P,P8,23*
G04 #@! TO.N,Net-(P8-Pad23)*
X168260000Y-95940000D03*
G04 #@! TO.P,P8,22*
G04 #@! TO.N,Net-(P8-Pad22)*
X170800000Y-93400000D03*
G04 #@! TO.P,P8,21*
G04 #@! TO.N,Net-(P8-Pad21)*
X168260000Y-93400000D03*
G04 #@! TO.P,P8,20*
G04 #@! TO.N,Net-(P8-Pad20)*
X170800000Y-90860000D03*
G04 #@! TO.P,P8,19*
G04 #@! TO.N,Z_STEP*
X168260000Y-90860000D03*
G04 #@! TO.P,P8,18*
G04 #@! TO.N,Z_DIR*
X170800000Y-88320000D03*
G04 #@! TO.P,P8,17*
G04 #@! TO.N,ESTOP*
X168260000Y-88320000D03*
G04 #@! TO.P,P8,16*
G04 #@! TO.N,DIR_U*
X170800000Y-85780000D03*
G04 #@! TO.P,P8,15*
G04 #@! TO.N,Y_STEP*
X168260000Y-85780000D03*
G04 #@! TO.P,P8,14*
G04 #@! TO.N,Y_DIR*
X170800000Y-83240000D03*
G04 #@! TO.P,P8,13*
G04 #@! TO.N,X_STEP*
X168260000Y-83240000D03*
G04 #@! TO.P,P8,12*
G04 #@! TO.N,X_DIR*
X170800000Y-80700000D03*
G04 #@! TO.P,P8,11*
G04 #@! TO.N,FET1*
X168260000Y-80700000D03*
G04 #@! TO.P,P8,10*
G04 #@! TO.N,Y-MIN*
X170800000Y-78160000D03*
G04 #@! TO.P,P8,9*
G04 #@! TO.N,Y-MAX*
X168260000Y-78160000D03*
G04 #@! TO.P,P8,8*
G04 #@! TO.N,X-MIN*
X170800000Y-75620000D03*
G04 #@! TO.P,P8,7*
G04 #@! TO.N,X-MAX*
X168260000Y-75620000D03*
G04 #@! TO.P,P8,6*
G04 #@! TO.N,Net-(P8-Pad6)*
X170800000Y-73080000D03*
G04 #@! TO.P,P8,5*
G04 #@! TO.N,Net-(P8-Pad5)*
X168260000Y-73080000D03*
G04 #@! TO.P,P8,4*
G04 #@! TO.N,Net-(P8-Pad4)*
X170800000Y-70540000D03*
G04 #@! TO.P,P8,3*
G04 #@! TO.N,Net-(P8-Pad3)*
X168260000Y-70540000D03*
G04 #@! TO.P,P8,2*
G04 #@! TO.N,DGND*
X170800000Y-68000000D03*
D11*
G04 #@! TO.P,P8,1*
X168260000Y-68000000D03*
G04 #@! TD*
D12*
G04 #@! TO.P,ADC1,1*
G04 #@! TO.N,Net-(ADC1-Pad1)*
X93980000Y-142240000D03*
D13*
G04 #@! TO.P,ADC1,2*
G04 #@! TO.N,THERM0*
X91440000Y-142240000D03*
G04 #@! TO.P,ADC1,3*
G04 #@! TO.N,THERM1*
X93980000Y-139700000D03*
G04 #@! TO.P,ADC1,4*
G04 #@! TO.N,THERM2*
X91440000Y-139700000D03*
G04 #@! TO.P,ADC1,5*
G04 #@! TO.N,AIN3*
X93980000Y-137160000D03*
G04 #@! TO.P,ADC1,6*
G04 #@! TO.N,AIN0*
X91440000Y-137160000D03*
G04 #@! TO.P,ADC1,7*
G04 #@! TO.N,AIN1*
X93980000Y-134620000D03*
G04 #@! TO.P,ADC1,8*
G04 #@! TO.N,AIN2*
X91440000Y-134620000D03*
G04 #@! TO.P,ADC1,9*
G04 #@! TO.N,Net-(ADC1-Pad9)*
X93980000Y-132080000D03*
G04 #@! TO.P,ADC1,10*
G04 #@! TO.N,ADC_GND*
X91440000Y-132080000D03*
G04 #@! TD*
D12*
G04 #@! TO.P,GPIO_0,1*
G04 #@! TO.N,X_STEP*
X91440000Y-68580000D03*
D13*
G04 #@! TO.P,GPIO_0,2*
G04 #@! TO.N,X_DIR*
X93980000Y-68580000D03*
G04 #@! TO.P,GPIO_0,3*
G04 #@! TO.N,Y_STEP*
X91440000Y-71120000D03*
G04 #@! TO.P,GPIO_0,4*
G04 #@! TO.N,Y_DIR*
X93980000Y-71120000D03*
G04 #@! TO.P,GPIO_0,5*
G04 #@! TO.N,Z_STEP*
X91440000Y-73660000D03*
G04 #@! TO.P,GPIO_0,6*
G04 #@! TO.N,Z_DIR*
X93980000Y-73660000D03*
G04 #@! TO.P,GPIO_0,7*
G04 #@! TO.N,E0_STEP*
X91440000Y-76200000D03*
G04 #@! TO.P,GPIO_0,8*
G04 #@! TO.N,E0_DIR*
X93980000Y-76200000D03*
G04 #@! TO.P,GPIO_0,9*
G04 #@! TO.N,E1_STEP*
X91440000Y-78740000D03*
G04 #@! TO.P,GPIO_0,10*
G04 #@! TO.N,E1_DIR*
X93980000Y-78740000D03*
G04 #@! TO.P,GPIO_0,11*
G04 #@! TO.N,SYS_5V*
X91440000Y-81280000D03*
G04 #@! TO.P,GPIO_0,12*
G04 #@! TO.N,DGND*
X93980000Y-81280000D03*
G04 #@! TO.P,GPIO_0,13*
G04 #@! TO.N,E2_STEP*
X91440000Y-83820000D03*
G04 #@! TO.P,GPIO_0,14*
G04 #@! TO.N,E2_DIR*
X93980000Y-83820000D03*
G04 #@! TO.P,GPIO_0,15*
G04 #@! TO.N,STEP_U*
X91440000Y-86360000D03*
G04 #@! TO.P,GPIO_0,16*
G04 #@! TO.N,DIR_U*
X93980000Y-86360000D03*
G04 #@! TO.P,GPIO_0,17*
G04 #@! TO.N,STEP_V*
X91440000Y-88900000D03*
G04 #@! TO.P,GPIO_0,18*
G04 #@! TO.N,DIR_V*
X93980000Y-88900000D03*
G04 #@! TO.P,GPIO_0,19*
G04 #@! TO.N,STEP_W*
X91440000Y-91440000D03*
G04 #@! TO.P,GPIO_0,20*
G04 #@! TO.N,DIR_W*
X93980000Y-91440000D03*
G04 #@! TO.P,GPIO_0,21*
G04 #@! TO.N,FET1*
X91440000Y-93980000D03*
G04 #@! TO.P,GPIO_0,22*
G04 #@! TO.N,FET2*
X93980000Y-93980000D03*
G04 #@! TO.P,GPIO_0,23*
G04 #@! TO.N,FET3*
X91440000Y-96520000D03*
G04 #@! TO.P,GPIO_0,24*
G04 #@! TO.N,FET4*
X93980000Y-96520000D03*
G04 #@! TO.P,GPIO_0,25*
G04 #@! TO.N,FET5*
X91440000Y-99060000D03*
G04 #@! TO.P,GPIO_0,26*
G04 #@! TO.N,FET6*
X93980000Y-99060000D03*
G04 #@! TO.P,GPIO_0,27*
G04 #@! TO.N,X-MIN*
X91440000Y-101600000D03*
G04 #@! TO.P,GPIO_0,28*
G04 #@! TO.N,X-MAX*
X93980000Y-101600000D03*
G04 #@! TO.P,GPIO_0,29*
G04 #@! TO.N,ADC_VDD*
X91440000Y-104140000D03*
G04 #@! TO.P,GPIO_0,30*
G04 #@! TO.N,DGND*
X93980000Y-104140000D03*
G04 #@! TO.P,GPIO_0,31*
G04 #@! TO.N,Y-MIN*
X91440000Y-106680000D03*
G04 #@! TO.P,GPIO_0,32*
G04 #@! TO.N,Y-MAX*
X93980000Y-106680000D03*
G04 #@! TO.P,GPIO_0,33*
G04 #@! TO.N,Z-MIN*
X91440000Y-109220000D03*
G04 #@! TO.P,GPIO_0,34*
G04 #@! TO.N,Z-MAX*
X93980000Y-109220000D03*
G04 #@! TO.P,GPIO_0,35*
G04 #@! TO.N,SDA*
X91440000Y-111760000D03*
G04 #@! TO.P,GPIO_0,36*
G04 #@! TO.N,LED*
X93980000Y-111760000D03*
G04 #@! TO.P,GPIO_0,37*
G04 #@! TO.N,AXIS_ENAn*
X91440000Y-114300000D03*
G04 #@! TO.P,GPIO_0,38*
G04 #@! TO.N,MACHINE_PWR*
X93980000Y-114300000D03*
G04 #@! TO.P,GPIO_0,39*
G04 #@! TO.N,ESTOP*
X91440000Y-116840000D03*
G04 #@! TO.P,GPIO_0,40*
G04 #@! TO.N,ESTOP_SW*
X93980000Y-116840000D03*
G04 #@! TD*
D14*
G04 #@! TO.P,R1,1*
G04 #@! TO.N,ADC_VDD*
X88900000Y-124460000D03*
D15*
G04 #@! TO.P,R1,2*
G04 #@! TO.N,Net-(ADC1-Pad9)*
X96520000Y-124460000D03*
G04 #@! TD*
D16*
G04 #@! TO.N,DIR_U*
X158476300Y-79400300D03*
G04 #@! TO.N,FET3*
X103130800Y-98291000D03*
G04 #@! TO.N,FET4*
X106455600Y-95267700D03*
G04 #@! TO.N,FET6*
X111351200Y-91461800D03*
G04 #@! TO.N,AXIS_ENAn*
X107751700Y-102805300D03*
G04 #@! TD*
D17*
G04 #@! TO.N,THERM0*
X118811100Y-108640000D02*
X97511100Y-129940000D01*
X97511100Y-129940000D02*
X91272100Y-129940000D01*
X91272100Y-129940000D02*
X89789800Y-131422300D01*
X89789800Y-131422300D02*
X89789800Y-139781800D01*
X89789800Y-139781800D02*
X91072700Y-141064700D01*
X91072700Y-141064700D02*
X91440000Y-141064700D01*
X120000000Y-108640000D02*
X118811100Y-108640000D01*
X91440000Y-142240000D02*
X91440000Y-141064700D01*
G04 #@! TO.N,THERM1*
X122540000Y-111180000D02*
X122540000Y-112368900D01*
X93980000Y-139700000D02*
X98316400Y-139700000D01*
X98316400Y-139700000D02*
X117946400Y-120070000D01*
X117946400Y-120070000D02*
X122987800Y-120070000D01*
X122987800Y-120070000D02*
X124193000Y-118864800D01*
X124193000Y-118864800D02*
X124193000Y-113652400D01*
X124193000Y-113652400D02*
X122909500Y-112368900D01*
X122909500Y-112368900D02*
X122540000Y-112368900D01*
G04 #@! TO.N,THERM2*
X118811100Y-111180000D02*
X99600800Y-130390300D01*
X99600800Y-130390300D02*
X91464100Y-130390300D01*
X91464100Y-130390300D02*
X90263300Y-131591100D01*
X90263300Y-131591100D02*
X90263300Y-137715300D01*
X90263300Y-137715300D02*
X91072700Y-138524700D01*
X91072700Y-138524700D02*
X91440000Y-138524700D01*
X120000000Y-111180000D02*
X118811100Y-111180000D01*
X91440000Y-139700000D02*
X91440000Y-138524700D01*
G04 #@! TO.N,AIN3*
X122540000Y-114908900D02*
X122911600Y-114908900D01*
X122911600Y-114908900D02*
X123728900Y-115726200D01*
X123728900Y-115726200D02*
X123728900Y-116765800D01*
X123728900Y-116765800D02*
X122964700Y-117530000D01*
X122964700Y-117530000D02*
X118658000Y-117530000D01*
X118658000Y-117530000D02*
X99028000Y-137160000D01*
X99028000Y-137160000D02*
X93980000Y-137160000D01*
X122540000Y-113720000D02*
X122540000Y-114908900D01*
G04 #@! TO.N,AIN0*
X120000000Y-116260000D02*
X118811100Y-116260000D01*
X91440000Y-137160000D02*
X92615300Y-137160000D01*
X92615300Y-137160000D02*
X92615300Y-136792600D01*
X92615300Y-136792600D02*
X93423200Y-135984700D01*
X93423200Y-135984700D02*
X99086400Y-135984700D01*
X99086400Y-135984700D02*
X118811100Y-116260000D01*
G04 #@! TO.N,AIN1*
X122540000Y-116260000D02*
X121351100Y-116260000D01*
X93980000Y-134620000D02*
X99028000Y-134620000D01*
X99028000Y-134620000D02*
X118576900Y-115071100D01*
X118576900Y-115071100D02*
X120533800Y-115071100D01*
X120533800Y-115071100D02*
X121351100Y-115888400D01*
X121351100Y-115888400D02*
X121351100Y-116260000D01*
G04 #@! TO.N,AIN2*
X120000000Y-113720000D02*
X118811100Y-113720000D01*
X91440000Y-134620000D02*
X92615300Y-134620000D01*
X92615300Y-134620000D02*
X92615300Y-134252600D01*
X92615300Y-134252600D02*
X93423200Y-133444700D01*
X93423200Y-133444700D02*
X99086400Y-133444700D01*
X99086400Y-133444700D02*
X118811100Y-113720000D01*
G04 #@! TO.N,ADC_GND*
X122540000Y-108640000D02*
X122540000Y-109828900D01*
X91440000Y-132080000D02*
X92615300Y-132080000D01*
X92615300Y-132080000D02*
X92615300Y-131712700D01*
X92615300Y-131712700D02*
X93431000Y-130897000D01*
X93431000Y-130897000D02*
X100138800Y-130897000D01*
X100138800Y-130897000D02*
X118666800Y-112369000D01*
X118666800Y-112369000D02*
X120514300Y-112369000D01*
X120514300Y-112369000D02*
X121351100Y-111532200D01*
X121351100Y-111532200D02*
X121351100Y-110646200D01*
X121351100Y-110646200D02*
X122168400Y-109828900D01*
X122168400Y-109828900D02*
X122540000Y-109828900D01*
G04 #@! TO.N,X_DIR*
X170800000Y-80700000D02*
X170800000Y-79511100D01*
X93980000Y-68580000D02*
X95155300Y-68580000D01*
X95155300Y-68580000D02*
X96924300Y-66811000D01*
X96924300Y-66811000D02*
X121038900Y-66811000D01*
X121038900Y-66811000D02*
X121270000Y-67042100D01*
X121270000Y-67042100D02*
X121270000Y-68473800D01*
X121270000Y-68473800D02*
X122066200Y-69270000D01*
X122066200Y-69270000D02*
X165062600Y-69270000D01*
X165062600Y-69270000D02*
X167602600Y-71810000D01*
X167602600Y-71810000D02*
X171237100Y-71810000D01*
X171237100Y-71810000D02*
X172439200Y-73012100D01*
X172439200Y-73012100D02*
X172439200Y-78243400D01*
X172439200Y-78243400D02*
X171171500Y-79511100D01*
X171171500Y-79511100D02*
X170800000Y-79511100D01*
G04 #@! TO.N,Y_STEP*
X168260000Y-84591100D02*
X168631600Y-84591100D01*
X168631600Y-84591100D02*
X169448900Y-83773800D01*
X169448900Y-83773800D02*
X169448900Y-82887800D01*
X169448900Y-82887800D02*
X170285700Y-82051000D01*
X170285700Y-82051000D02*
X171140100Y-82051000D01*
X171140100Y-82051000D02*
X172894500Y-80296600D01*
X172894500Y-80296600D02*
X172894500Y-68387600D01*
X172894500Y-68387600D02*
X170866100Y-66359200D01*
X170866100Y-66359200D02*
X94528800Y-66359200D01*
X94528800Y-66359200D02*
X92615300Y-68272700D01*
X92615300Y-68272700D02*
X92615300Y-69577500D01*
X92615300Y-69577500D02*
X92248100Y-69944700D01*
X92248100Y-69944700D02*
X91440000Y-69944700D01*
X168260000Y-85780000D02*
X168260000Y-84591100D01*
X91440000Y-71120000D02*
X91440000Y-69944700D01*
G04 #@! TO.N,SYS_5V*
X118811100Y-73080000D02*
X109425300Y-82465800D01*
X109425300Y-82465800D02*
X93433800Y-82465800D01*
X93433800Y-82465800D02*
X92615300Y-81647300D01*
X92615300Y-81647300D02*
X92615300Y-81280000D01*
X120000000Y-73080000D02*
X122540000Y-73080000D01*
X119405600Y-73080000D02*
X120000000Y-73080000D01*
X119405600Y-73080000D02*
X118811100Y-73080000D01*
X91440000Y-81280000D02*
X92615300Y-81280000D01*
G04 #@! TO.N,DGND*
X122540000Y-123880000D02*
X122540000Y-122528900D01*
X120000000Y-123880000D02*
X122540000Y-123880000D01*
X122540000Y-121340000D02*
X122540000Y-122528900D01*
X168260000Y-68000000D02*
X170800000Y-68000000D01*
X122540000Y-68000000D02*
X168260000Y-68000000D01*
X120000000Y-68000000D02*
X118811100Y-68000000D01*
X93980000Y-81280000D02*
X105531100Y-81280000D01*
X105531100Y-81280000D02*
X118811100Y-68000000D01*
G04 #@! TO.N,DIR_U*
X93980000Y-86360000D02*
X106168000Y-86360000D01*
X106168000Y-86360000D02*
X113127700Y-79400300D01*
X113127700Y-79400300D02*
X158476300Y-79400300D01*
G04 #@! TO.N,FET1*
X168260000Y-80700000D02*
X168260000Y-79511100D01*
X91440000Y-93980000D02*
X92615300Y-93980000D01*
X92615300Y-93980000D02*
X92615300Y-93612600D01*
X92615300Y-93612600D02*
X93423200Y-92804700D01*
X93423200Y-92804700D02*
X104358300Y-92804700D01*
X104358300Y-92804700D02*
X112653000Y-84510000D01*
X112653000Y-84510000D02*
X155800200Y-84510000D01*
X155800200Y-84510000D02*
X165960200Y-74350000D01*
X165960200Y-74350000D02*
X171290900Y-74350000D01*
X171290900Y-74350000D02*
X171988900Y-75048000D01*
X171988900Y-75048000D02*
X171988900Y-76113600D01*
X171988900Y-76113600D02*
X171131500Y-76971000D01*
X171131500Y-76971000D02*
X170285700Y-76971000D01*
X170285700Y-76971000D02*
X169448900Y-77807800D01*
X169448900Y-77807800D02*
X169448900Y-78693800D01*
X169448900Y-78693800D02*
X168631600Y-79511100D01*
X168631600Y-79511100D02*
X168260000Y-79511100D01*
G04 #@! TO.N,FET2*
X93980000Y-93980000D02*
X105455600Y-93980000D01*
X105455600Y-93980000D02*
X113655600Y-85780000D01*
X113655600Y-85780000D02*
X120000000Y-85780000D01*
G04 #@! TO.N,FET3*
X92615300Y-96520000D02*
X92615300Y-96887400D01*
X92615300Y-96887400D02*
X93423200Y-97695300D01*
X93423200Y-97695300D02*
X102535100Y-97695300D01*
X102535100Y-97695300D02*
X103130800Y-98291000D01*
X91440000Y-96520000D02*
X92615300Y-96520000D01*
G04 #@! TO.N,FET4*
X95155300Y-96520000D02*
X96407600Y-95267700D01*
X96407600Y-95267700D02*
X106455600Y-95267700D01*
X93980000Y-96520000D02*
X95155300Y-96520000D01*
G04 #@! TO.N,FET6*
X95155300Y-99060000D02*
X103753000Y-99060000D01*
X103753000Y-99060000D02*
X111351200Y-91461800D01*
X93980000Y-99060000D02*
X95155300Y-99060000D01*
G04 #@! TO.N,X-MIN*
X170800000Y-75620000D02*
X169611100Y-75620000D01*
X91440000Y-101600000D02*
X92615300Y-101600000D01*
X92615300Y-101600000D02*
X92615300Y-101967300D01*
X92615300Y-101967300D02*
X93452700Y-102804700D01*
X93452700Y-102804700D02*
X101945400Y-102804700D01*
X101945400Y-102804700D02*
X115160100Y-89590000D01*
X115160100Y-89590000D02*
X154218000Y-89590000D01*
X154218000Y-89590000D02*
X166999100Y-76808900D01*
X166999100Y-76808900D02*
X168793800Y-76808900D01*
X168793800Y-76808900D02*
X169611100Y-75991600D01*
X169611100Y-75991600D02*
X169611100Y-75620000D01*
G04 #@! TO.N,X-MAX*
X167071100Y-75620000D02*
X155641100Y-87050000D01*
X155641100Y-87050000D02*
X117063200Y-87050000D01*
X117063200Y-87050000D02*
X102513200Y-101600000D01*
X102513200Y-101600000D02*
X93980000Y-101600000D01*
X168260000Y-75620000D02*
X167071100Y-75620000D01*
G04 #@! TO.N,ADC_VDD*
X122540000Y-106100000D02*
X121351100Y-106100000D01*
X88900000Y-124460000D02*
X93534600Y-119825400D01*
X93534600Y-119825400D02*
X105192800Y-119825400D01*
X105192800Y-119825400D02*
X117729300Y-107288900D01*
X117729300Y-107288900D02*
X120533800Y-107288900D01*
X120533800Y-107288900D02*
X121351100Y-106471600D01*
X121351100Y-106471600D02*
X121351100Y-106100000D01*
X120000000Y-70540000D02*
X122540000Y-70540000D01*
G04 #@! TO.N,Y-MAX*
X168260000Y-78160000D02*
X167071100Y-78160000D01*
X93980000Y-106680000D02*
X99343900Y-106680000D01*
X99343900Y-106680000D02*
X111353900Y-94670000D01*
X111353900Y-94670000D02*
X150561100Y-94670000D01*
X150561100Y-94670000D02*
X167071100Y-78160000D01*
G04 #@! TO.N,Z-MIN*
X91440000Y-108044700D02*
X91072700Y-108044700D01*
X91072700Y-108044700D02*
X90249600Y-107221600D01*
X90249600Y-107221600D02*
X90249600Y-93464000D01*
X90249600Y-93464000D02*
X91095300Y-92618300D01*
X91095300Y-92618300D02*
X91925900Y-92618300D01*
X91925900Y-92618300D02*
X92804600Y-91739600D01*
X92804600Y-91739600D02*
X92804600Y-90914400D01*
X92804600Y-90914400D02*
X93492600Y-90226400D01*
X93492600Y-90226400D02*
X105300700Y-90226400D01*
X105300700Y-90226400D02*
X112287100Y-83240000D01*
X112287100Y-83240000D02*
X120000000Y-83240000D01*
X91440000Y-109220000D02*
X91440000Y-108044700D01*
G04 #@! TO.N,Z-MAX*
X92804700Y-109220000D02*
X92804700Y-109587300D01*
X92804700Y-109587300D02*
X91991000Y-110401000D01*
X91991000Y-110401000D02*
X90887300Y-110401000D01*
X90887300Y-110401000D02*
X89759900Y-109273600D01*
X89759900Y-109273600D02*
X89759900Y-91428600D01*
X89759900Y-91428600D02*
X90923800Y-90264700D01*
X90923800Y-90264700D02*
X91739500Y-90264700D01*
X91739500Y-90264700D02*
X92804600Y-89199600D01*
X92804600Y-89199600D02*
X92804600Y-88374400D01*
X92804600Y-88374400D02*
X93482900Y-87696100D01*
X93482900Y-87696100D02*
X106557600Y-87696100D01*
X106557600Y-87696100D02*
X113553700Y-80700000D01*
X113553700Y-80700000D02*
X120000000Y-80700000D01*
X93980000Y-109220000D02*
X92804700Y-109220000D01*
G04 #@! TO.N,SDA*
X92615300Y-111760000D02*
X92615300Y-111392600D01*
X92615300Y-111392600D02*
X93423200Y-110584700D01*
X93423200Y-110584700D02*
X94285700Y-110584700D01*
X94285700Y-110584700D02*
X95155400Y-109715000D01*
X95155400Y-109715000D02*
X95155400Y-108731200D01*
X95155400Y-108731200D02*
X94279600Y-107855400D01*
X94279600Y-107855400D02*
X93454400Y-107855400D01*
X93454400Y-107855400D02*
X92804600Y-107205600D01*
X92804600Y-107205600D02*
X92804600Y-106154400D01*
X92804600Y-106154400D02*
X93549000Y-105410000D01*
X93549000Y-105410000D02*
X99977000Y-105410000D01*
X99977000Y-105410000D02*
X113338100Y-92048900D01*
X113338100Y-92048900D02*
X120533800Y-92048900D01*
X120533800Y-92048900D02*
X121351100Y-91231600D01*
X121351100Y-91231600D02*
X121351100Y-90860000D01*
X122540000Y-90860000D02*
X121351100Y-90860000D01*
X91440000Y-111760000D02*
X92615300Y-111760000D01*
G04 #@! TO.N,LED*
X95155300Y-111760000D02*
X108435300Y-98480000D01*
X108435300Y-98480000D02*
X118811100Y-98480000D01*
X120000000Y-98480000D02*
X118811100Y-98480000D01*
X93980000Y-111760000D02*
X95155300Y-111760000D01*
G04 #@! TO.N,AXIS_ENAn*
X92615300Y-114300000D02*
X92615300Y-113932600D01*
X92615300Y-113932600D02*
X93423200Y-113124700D01*
X93423200Y-113124700D02*
X97432300Y-113124700D01*
X97432300Y-113124700D02*
X107751700Y-102805300D01*
X91440000Y-114300000D02*
X92615300Y-114300000D01*
G04 #@! TO.N,MACHINE_PWR*
X95155300Y-114300000D02*
X97282800Y-114300000D01*
X97282800Y-114300000D02*
X111818400Y-99764400D01*
X111818400Y-99764400D02*
X120469700Y-99764400D01*
X120469700Y-99764400D02*
X121188900Y-99045200D01*
X121188900Y-99045200D02*
X121188900Y-97946200D01*
X121188900Y-97946200D02*
X120371600Y-97128900D01*
X120371600Y-97128900D02*
X120000000Y-97128900D01*
X93980000Y-114300000D02*
X95155300Y-114300000D01*
X120000000Y-95940000D02*
X120000000Y-97128900D01*
G04 #@! TO.N,ESTOP*
X92615300Y-116840000D02*
X92615300Y-116472600D01*
X92615300Y-116472600D02*
X93423200Y-115664700D01*
X93423200Y-115664700D02*
X96555000Y-115664700D01*
X96555000Y-115664700D02*
X109929700Y-102290000D01*
X109929700Y-102290000D02*
X153101100Y-102290000D01*
X153101100Y-102290000D02*
X167071100Y-88320000D01*
X168260000Y-88320000D02*
X167071100Y-88320000D01*
X91440000Y-116840000D02*
X92615300Y-116840000D01*
G04 #@! TO.N,ESTOP_SW*
X93980000Y-116840000D02*
X99345300Y-116840000D01*
X99345300Y-116840000D02*
X111355300Y-104830000D01*
X111355300Y-104830000D02*
X156757900Y-104830000D01*
X156757900Y-104830000D02*
X161919000Y-99668900D01*
X161919000Y-99668900D02*
X168793800Y-99668900D01*
X168793800Y-99668900D02*
X169611100Y-98851600D01*
X169611100Y-98851600D02*
X169611100Y-98480000D01*
X170800000Y-98480000D02*
X169611100Y-98480000D01*
G04 #@! TO.N,SYS_5V*
X120000000Y-75620000D02*
X122540000Y-75620000D01*
X120000000Y-74398686D02*
X120000000Y-73080000D01*
X120000000Y-75620000D02*
X120000000Y-74398686D01*
G04 #@! TD*
M02*
