M48
;DRILL file {KiCad 5.0.2-bee76a0~70~ubuntu18.04.1} date 2019-04-18T19:59:55 CEST
;FORMAT={3:3/ absolute / metric / suppress leading zeros}
FMAT,2
METRIC,TZ
T1C0.400
T2C0.800
T3C1.000
T4C1.016
%
G90
G05
T1
X103131Y-98291
X106456Y-95268
X107752Y-102805
X111351Y-91462
X158476Y-79400
T2
X88900Y-124460
X96520Y-124460
T3
X91440Y-68580
X91440Y-71120
X91440Y-73660
X91440Y-76200
X91440Y-78740
X91440Y-81280
X91440Y-83820
X91440Y-86360
X91440Y-88900
X91440Y-91440
X91440Y-93980
X91440Y-96520
X91440Y-99060
X91440Y-101600
X91440Y-104140
X91440Y-106680
X91440Y-109220
X91440Y-111760
X91440Y-114300
X91440Y-116840
X93980Y-68580
X93980Y-71120
X93980Y-73660
X93980Y-76200
X93980Y-78740
X93980Y-81280
X93980Y-83820
X93980Y-86360
X93980Y-88900
X93980Y-91440
X93980Y-93980
X93980Y-96520
X93980Y-99060
X93980Y-101600
X93980Y-104140
X93980Y-106680
X93980Y-109220
X93980Y-111760
X93980Y-114300
X93980Y-116840
X91440Y-132080
X91440Y-134620
X91440Y-137160
X91440Y-139700
X91440Y-142240
X93980Y-132080
X93980Y-134620
X93980Y-137160
X93980Y-139700
X93980Y-142240
T4
X120000Y-68000
X120000Y-70540
X120000Y-73080
X120000Y-75620
X120000Y-78160
X120000Y-80700
X120000Y-83240
X120000Y-85780
X120000Y-88320
X120000Y-90860
X120000Y-93400
X120000Y-95940
X120000Y-98480
X120000Y-101020
X120000Y-103560
X120000Y-106100
X120000Y-108640
X120000Y-111180
X120000Y-113720
X120000Y-116260
X120000Y-118800
X120000Y-121340
X120000Y-123880
X122540Y-68000
X122540Y-70540
X122540Y-73080
X122540Y-75620
X122540Y-78160
X122540Y-80700
X122540Y-83240
X122540Y-85780
X122540Y-88320
X122540Y-90860
X122540Y-93400
X122540Y-95940
X122540Y-98480
X122540Y-101020
X122540Y-103560
X122540Y-106100
X122540Y-108640
X122540Y-111180
X122540Y-113720
X122540Y-116260
X122540Y-118800
X122540Y-121340
X122540Y-123880
X168260Y-68000
X168260Y-70540
X168260Y-73080
X168260Y-75620
X168260Y-78160
X168260Y-80700
X168260Y-83240
X168260Y-85780
X168260Y-88320
X168260Y-90860
X168260Y-93400
X168260Y-95940
X168260Y-98480
X168260Y-101020
X168260Y-103560
X168260Y-106100
X168260Y-108640
X168260Y-111180
X168260Y-113720
X168260Y-116260
X168260Y-118800
X168260Y-121340
X168260Y-123880
X170800Y-68000
X170800Y-70540
X170800Y-73080
X170800Y-75620
X170800Y-78160
X170800Y-80700
X170800Y-83240
X170800Y-85780
X170800Y-88320
X170800Y-90860
X170800Y-93400
X170800Y-95940
X170800Y-98480
X170800Y-101020
X170800Y-103560
X170800Y-106100
X170800Y-108640
X170800Y-111180
X170800Y-113720
X170800Y-116260
X170800Y-118800
X170800Y-121340
X170800Y-123880
T0
M30
