G04 #@! TF.GenerationSoftware,KiCad,Pcbnew,5.0.2-bee76a0~70~ubuntu18.04.1*
G04 #@! TF.CreationDate,2019-04-18T20:00:00+02:00*
G04 #@! TF.ProjectId,Cramps2_nano-soc,4372616d-7073-4325-9f6e-616e6f2d736f,rev?*
G04 #@! TF.SameCoordinates,Original*
G04 #@! TF.FileFunction,Legend,Top*
G04 #@! TF.FilePolarity,Positive*
%FSLAX46Y46*%
G04 Gerber Fmt 4.6, Leading zero omitted, Abs format (unit mm)*
G04 Created by KiCad (PCBNEW 5.0.2-bee76a0~70~ubuntu18.04.1) date 2019-04-18T20:00:00 CEST*
%MOMM*%
%LPD*%
G01*
G04 APERTURE LIST*
%ADD10C,0.300000*%
%ADD11C,0.150000*%
%ADD12C,0.120000*%
G04 APERTURE END LIST*
D10*
X136141428Y-135063571D02*
X136998571Y-135063571D01*
X136570000Y-136563571D02*
X136570000Y-135063571D01*
X138070000Y-136492142D02*
X137927142Y-136563571D01*
X137641428Y-136563571D01*
X137498571Y-136492142D01*
X137427142Y-136349285D01*
X137427142Y-135777857D01*
X137498571Y-135635000D01*
X137641428Y-135563571D01*
X137927142Y-135563571D01*
X138070000Y-135635000D01*
X138141428Y-135777857D01*
X138141428Y-135920714D01*
X137427142Y-136063571D01*
X138784285Y-136563571D02*
X138784285Y-135563571D01*
X138784285Y-135849285D02*
X138855714Y-135706428D01*
X138927142Y-135635000D01*
X139070000Y-135563571D01*
X139212857Y-135563571D01*
X140355714Y-136563571D02*
X140355714Y-135777857D01*
X140284285Y-135635000D01*
X140141428Y-135563571D01*
X139855714Y-135563571D01*
X139712857Y-135635000D01*
X140355714Y-136492142D02*
X140212857Y-136563571D01*
X139855714Y-136563571D01*
X139712857Y-136492142D01*
X139641428Y-136349285D01*
X139641428Y-136206428D01*
X139712857Y-136063571D01*
X139855714Y-135992142D01*
X140212857Y-135992142D01*
X140355714Y-135920714D01*
X140998571Y-136492142D02*
X141141428Y-136563571D01*
X141427142Y-136563571D01*
X141570000Y-136492142D01*
X141641428Y-136349285D01*
X141641428Y-136277857D01*
X141570000Y-136135000D01*
X141427142Y-136063571D01*
X141212857Y-136063571D01*
X141070000Y-135992142D01*
X140998571Y-135849285D01*
X140998571Y-135777857D01*
X141070000Y-135635000D01*
X141212857Y-135563571D01*
X141427142Y-135563571D01*
X141570000Y-135635000D01*
X142284285Y-136563571D02*
X142284285Y-135563571D01*
X142284285Y-135063571D02*
X142212857Y-135135000D01*
X142284285Y-135206428D01*
X142355714Y-135135000D01*
X142284285Y-135063571D01*
X142284285Y-135206428D01*
X143641428Y-136492142D02*
X143498571Y-136563571D01*
X143212857Y-136563571D01*
X143070000Y-136492142D01*
X142998571Y-136420714D01*
X142927142Y-136277857D01*
X142927142Y-135849285D01*
X142998571Y-135706428D01*
X143070000Y-135635000D01*
X143212857Y-135563571D01*
X143498571Y-135563571D01*
X143641428Y-135635000D01*
X146284285Y-136420714D02*
X146212857Y-136492142D01*
X145998571Y-136563571D01*
X145855714Y-136563571D01*
X145641428Y-136492142D01*
X145498571Y-136349285D01*
X145427142Y-136206428D01*
X145355714Y-135920714D01*
X145355714Y-135706428D01*
X145427142Y-135420714D01*
X145498571Y-135277857D01*
X145641428Y-135135000D01*
X145855714Y-135063571D01*
X145998571Y-135063571D01*
X146212857Y-135135000D01*
X146284285Y-135206428D01*
X146927142Y-136563571D02*
X146927142Y-135563571D01*
X146927142Y-135849285D02*
X146998571Y-135706428D01*
X147070000Y-135635000D01*
X147212857Y-135563571D01*
X147355714Y-135563571D01*
X148498571Y-136563571D02*
X148498571Y-135777857D01*
X148427142Y-135635000D01*
X148284285Y-135563571D01*
X147998571Y-135563571D01*
X147855714Y-135635000D01*
X148498571Y-136492142D02*
X148355714Y-136563571D01*
X147998571Y-136563571D01*
X147855714Y-136492142D01*
X147784285Y-136349285D01*
X147784285Y-136206428D01*
X147855714Y-136063571D01*
X147998571Y-135992142D01*
X148355714Y-135992142D01*
X148498571Y-135920714D01*
X149212857Y-136563571D02*
X149212857Y-135563571D01*
X149212857Y-135706428D02*
X149284285Y-135635000D01*
X149427142Y-135563571D01*
X149641428Y-135563571D01*
X149784285Y-135635000D01*
X149855714Y-135777857D01*
X149855714Y-136563571D01*
X149855714Y-135777857D02*
X149927142Y-135635000D01*
X150070000Y-135563571D01*
X150284285Y-135563571D01*
X150427142Y-135635000D01*
X150498571Y-135777857D01*
X150498571Y-136563571D01*
X151212857Y-135563571D02*
X151212857Y-137063571D01*
X151212857Y-135635000D02*
X151355714Y-135563571D01*
X151641428Y-135563571D01*
X151784285Y-135635000D01*
X151855714Y-135706428D01*
X151927142Y-135849285D01*
X151927142Y-136277857D01*
X151855714Y-136420714D01*
X151784285Y-136492142D01*
X151641428Y-136563571D01*
X151355714Y-136563571D01*
X151212857Y-136492142D01*
X152498571Y-136492142D02*
X152641428Y-136563571D01*
X152927142Y-136563571D01*
X153070000Y-136492142D01*
X153141428Y-136349285D01*
X153141428Y-136277857D01*
X153070000Y-136135000D01*
X152927142Y-136063571D01*
X152712857Y-136063571D01*
X152570000Y-135992142D01*
X152498571Y-135849285D01*
X152498571Y-135777857D01*
X152570000Y-135635000D01*
X152712857Y-135563571D01*
X152927142Y-135563571D01*
X153070000Y-135635000D01*
X154927142Y-136563571D02*
X154927142Y-135063571D01*
X154927142Y-135635000D02*
X155070000Y-135563571D01*
X155355714Y-135563571D01*
X155498571Y-135635000D01*
X155570000Y-135706428D01*
X155641428Y-135849285D01*
X155641428Y-136277857D01*
X155570000Y-136420714D01*
X155498571Y-136492142D01*
X155355714Y-136563571D01*
X155070000Y-136563571D01*
X154927142Y-136492142D01*
X156498571Y-136563571D02*
X156355714Y-136492142D01*
X156284285Y-136420714D01*
X156212857Y-136277857D01*
X156212857Y-135849285D01*
X156284285Y-135706428D01*
X156355714Y-135635000D01*
X156498571Y-135563571D01*
X156712857Y-135563571D01*
X156855714Y-135635000D01*
X156927142Y-135706428D01*
X156998571Y-135849285D01*
X156998571Y-136277857D01*
X156927142Y-136420714D01*
X156855714Y-136492142D01*
X156712857Y-136563571D01*
X156498571Y-136563571D01*
X157641428Y-136563571D02*
X157641428Y-135063571D01*
X157641428Y-135635000D02*
X157784285Y-135563571D01*
X158070000Y-135563571D01*
X158212857Y-135635000D01*
X158284285Y-135706428D01*
X158355714Y-135849285D01*
X158355714Y-136277857D01*
X158284285Y-136420714D01*
X158212857Y-136492142D01*
X158070000Y-136563571D01*
X157784285Y-136563571D01*
X157641428Y-136492142D01*
X141891428Y-139113571D02*
X141891428Y-137613571D01*
X141891428Y-138327857D02*
X142748571Y-138327857D01*
X142748571Y-139113571D02*
X142748571Y-137613571D01*
X143677142Y-139113571D02*
X143534285Y-139042142D01*
X143462857Y-138970714D01*
X143391428Y-138827857D01*
X143391428Y-138399285D01*
X143462857Y-138256428D01*
X143534285Y-138185000D01*
X143677142Y-138113571D01*
X143891428Y-138113571D01*
X144034285Y-138185000D01*
X144105714Y-138256428D01*
X144177142Y-138399285D01*
X144177142Y-138827857D01*
X144105714Y-138970714D01*
X144034285Y-139042142D01*
X143891428Y-139113571D01*
X143677142Y-139113571D01*
X145034285Y-139113571D02*
X144891428Y-139042142D01*
X144820000Y-138899285D01*
X144820000Y-137613571D01*
X145820000Y-139113571D02*
X145677142Y-139042142D01*
X145605714Y-138970714D01*
X145534285Y-138827857D01*
X145534285Y-138399285D01*
X145605714Y-138256428D01*
X145677142Y-138185000D01*
X145820000Y-138113571D01*
X146034285Y-138113571D01*
X146177142Y-138185000D01*
X146248571Y-138256428D01*
X146320000Y-138399285D01*
X146320000Y-138827857D01*
X146248571Y-138970714D01*
X146177142Y-139042142D01*
X146034285Y-139113571D01*
X145820000Y-139113571D01*
X146748571Y-138113571D02*
X147320000Y-138113571D01*
X146962857Y-137613571D02*
X146962857Y-138899285D01*
X147034285Y-139042142D01*
X147177142Y-139113571D01*
X147320000Y-139113571D01*
X147820000Y-139113571D02*
X147820000Y-138113571D01*
X147820000Y-138399285D02*
X147891428Y-138256428D01*
X147962857Y-138185000D01*
X148105714Y-138113571D01*
X148248571Y-138113571D01*
X148962857Y-139113571D02*
X148820000Y-139042142D01*
X148748571Y-138970714D01*
X148677142Y-138827857D01*
X148677142Y-138399285D01*
X148748571Y-138256428D01*
X148820000Y-138185000D01*
X148962857Y-138113571D01*
X149177142Y-138113571D01*
X149320000Y-138185000D01*
X149391428Y-138256428D01*
X149462857Y-138399285D01*
X149462857Y-138827857D01*
X149391428Y-138970714D01*
X149320000Y-139042142D01*
X149177142Y-139113571D01*
X148962857Y-139113571D01*
X150105714Y-138113571D02*
X150105714Y-139113571D01*
X150105714Y-138256428D02*
X150177142Y-138185000D01*
X150320000Y-138113571D01*
X150534285Y-138113571D01*
X150677142Y-138185000D01*
X150748571Y-138327857D01*
X150748571Y-139113571D01*
X151462857Y-139113571D02*
X151462857Y-138113571D01*
X151462857Y-137613571D02*
X151391428Y-137685000D01*
X151462857Y-137756428D01*
X151534285Y-137685000D01*
X151462857Y-137613571D01*
X151462857Y-137756428D01*
X152820000Y-139042142D02*
X152677142Y-139113571D01*
X152391428Y-139113571D01*
X152248571Y-139042142D01*
X152177142Y-138970714D01*
X152105714Y-138827857D01*
X152105714Y-138399285D01*
X152177142Y-138256428D01*
X152248571Y-138185000D01*
X152391428Y-138113571D01*
X152677142Y-138113571D01*
X152820000Y-138185000D01*
D11*
G04 #@! TO.C,P9*
X118450000Y-66450000D02*
X118450000Y-68000000D01*
X121270000Y-69270000D02*
X118730000Y-69270000D01*
X121270000Y-66730000D02*
X121270000Y-69270000D01*
X120000000Y-66450000D02*
X118450000Y-66450000D01*
X123810000Y-66730000D02*
X121270000Y-66730000D01*
X123810000Y-125150000D02*
X118730000Y-125150000D01*
X118730000Y-125150000D02*
X118730000Y-69270000D01*
X123810000Y-125150000D02*
X123810000Y-66730000D01*
G04 #@! TO.C,P8*
X166710000Y-66450000D02*
X166710000Y-68000000D01*
X169530000Y-69270000D02*
X166990000Y-69270000D01*
X169530000Y-66730000D02*
X169530000Y-69270000D01*
X168260000Y-66450000D02*
X166710000Y-66450000D01*
X172070000Y-66730000D02*
X169530000Y-66730000D01*
X172070000Y-125150000D02*
X166990000Y-125150000D01*
X166990000Y-125150000D02*
X166990000Y-69270000D01*
X172070000Y-125150000D02*
X172070000Y-66730000D01*
D12*
G04 #@! TO.C,ADC1*
X90000000Y-143570000D02*
X90000000Y-130750000D01*
X90000000Y-130750000D02*
X87340000Y-130750000D01*
X87340000Y-130750000D02*
X87340000Y-143570000D01*
X87340000Y-143570000D02*
X90000000Y-143570000D01*
X87340000Y-142620000D02*
X81340000Y-142620000D01*
X81340000Y-142620000D02*
X81340000Y-141860000D01*
X81340000Y-141860000D02*
X87340000Y-141860000D01*
X87340000Y-142560000D02*
X81340000Y-142560000D01*
X87340000Y-142440000D02*
X81340000Y-142440000D01*
X87340000Y-142320000D02*
X81340000Y-142320000D01*
X87340000Y-142200000D02*
X81340000Y-142200000D01*
X87340000Y-142080000D02*
X81340000Y-142080000D01*
X87340000Y-141960000D02*
X81340000Y-141960000D01*
X90397071Y-142620000D02*
X90000000Y-142620000D01*
X90397071Y-141860000D02*
X90000000Y-141860000D01*
X92870000Y-142620000D02*
X92482929Y-142620000D01*
X92870000Y-141860000D02*
X92482929Y-141860000D01*
X90000000Y-140970000D02*
X87340000Y-140970000D01*
X87340000Y-140080000D02*
X81340000Y-140080000D01*
X81340000Y-140080000D02*
X81340000Y-139320000D01*
X81340000Y-139320000D02*
X87340000Y-139320000D01*
X90397071Y-140080000D02*
X90000000Y-140080000D01*
X90397071Y-139320000D02*
X90000000Y-139320000D01*
X92937071Y-140080000D02*
X92482929Y-140080000D01*
X92937071Y-139320000D02*
X92482929Y-139320000D01*
X90000000Y-138430000D02*
X87340000Y-138430000D01*
X87340000Y-137540000D02*
X81340000Y-137540000D01*
X81340000Y-137540000D02*
X81340000Y-136780000D01*
X81340000Y-136780000D02*
X87340000Y-136780000D01*
X90397071Y-137540000D02*
X90000000Y-137540000D01*
X90397071Y-136780000D02*
X90000000Y-136780000D01*
X92937071Y-137540000D02*
X92482929Y-137540000D01*
X92937071Y-136780000D02*
X92482929Y-136780000D01*
X90000000Y-135890000D02*
X87340000Y-135890000D01*
X87340000Y-135000000D02*
X81340000Y-135000000D01*
X81340000Y-135000000D02*
X81340000Y-134240000D01*
X81340000Y-134240000D02*
X87340000Y-134240000D01*
X90397071Y-135000000D02*
X90000000Y-135000000D01*
X90397071Y-134240000D02*
X90000000Y-134240000D01*
X92937071Y-135000000D02*
X92482929Y-135000000D01*
X92937071Y-134240000D02*
X92482929Y-134240000D01*
X90000000Y-133350000D02*
X87340000Y-133350000D01*
X87340000Y-132460000D02*
X81340000Y-132460000D01*
X81340000Y-132460000D02*
X81340000Y-131700000D01*
X81340000Y-131700000D02*
X87340000Y-131700000D01*
X90397071Y-132460000D02*
X90000000Y-132460000D01*
X90397071Y-131700000D02*
X90000000Y-131700000D01*
X92937071Y-132460000D02*
X92482929Y-132460000D01*
X92937071Y-131700000D02*
X92482929Y-131700000D01*
X95250000Y-142240000D02*
X95250000Y-143510000D01*
X95250000Y-143510000D02*
X93980000Y-143510000D01*
G04 #@! TO.C,GPIO_0*
X90110000Y-118170000D02*
X95310000Y-118170000D01*
X90110000Y-69850000D02*
X90110000Y-118170000D01*
X95310000Y-67250000D02*
X95310000Y-118170000D01*
X90110000Y-69850000D02*
X92710000Y-69850000D01*
X92710000Y-69850000D02*
X92710000Y-67250000D01*
X92710000Y-67250000D02*
X95310000Y-67250000D01*
X90110000Y-68580000D02*
X90110000Y-67250000D01*
X90110000Y-67250000D02*
X91440000Y-67250000D01*
G04 #@! TO.C,R1*
X89440000Y-123420000D02*
X89440000Y-123090000D01*
X89440000Y-123090000D02*
X95980000Y-123090000D01*
X95980000Y-123090000D02*
X95980000Y-123420000D01*
X89440000Y-125500000D02*
X89440000Y-125830000D01*
X89440000Y-125830000D02*
X95980000Y-125830000D01*
X95980000Y-125830000D02*
X95980000Y-125500000D01*
G04 #@! TO.C,P9*
D11*
X118641904Y-64968380D02*
X118641904Y-63968380D01*
X119022857Y-63968380D01*
X119118095Y-64016000D01*
X119165714Y-64063619D01*
X119213333Y-64158857D01*
X119213333Y-64301714D01*
X119165714Y-64396952D01*
X119118095Y-64444571D01*
X119022857Y-64492190D01*
X118641904Y-64492190D01*
X119689523Y-64968380D02*
X119880000Y-64968380D01*
X119975238Y-64920761D01*
X120022857Y-64873142D01*
X120118095Y-64730285D01*
X120165714Y-64539809D01*
X120165714Y-64158857D01*
X120118095Y-64063619D01*
X120070476Y-64016000D01*
X119975238Y-63968380D01*
X119784761Y-63968380D01*
X119689523Y-64016000D01*
X119641904Y-64063619D01*
X119594285Y-64158857D01*
X119594285Y-64396952D01*
X119641904Y-64492190D01*
X119689523Y-64539809D01*
X119784761Y-64587428D01*
X119975238Y-64587428D01*
X120070476Y-64539809D01*
X120118095Y-64492190D01*
X120165714Y-64396952D01*
G04 #@! TO.C,P8*
X167409904Y-64968380D02*
X167409904Y-63968380D01*
X167790857Y-63968380D01*
X167886095Y-64016000D01*
X167933714Y-64063619D01*
X167981333Y-64158857D01*
X167981333Y-64301714D01*
X167933714Y-64396952D01*
X167886095Y-64444571D01*
X167790857Y-64492190D01*
X167409904Y-64492190D01*
X168552761Y-64396952D02*
X168457523Y-64349333D01*
X168409904Y-64301714D01*
X168362285Y-64206476D01*
X168362285Y-64158857D01*
X168409904Y-64063619D01*
X168457523Y-64016000D01*
X168552761Y-63968380D01*
X168743238Y-63968380D01*
X168838476Y-64016000D01*
X168886095Y-64063619D01*
X168933714Y-64158857D01*
X168933714Y-64206476D01*
X168886095Y-64301714D01*
X168838476Y-64349333D01*
X168743238Y-64396952D01*
X168552761Y-64396952D01*
X168457523Y-64444571D01*
X168409904Y-64492190D01*
X168362285Y-64587428D01*
X168362285Y-64777904D01*
X168409904Y-64873142D01*
X168457523Y-64920761D01*
X168552761Y-64968380D01*
X168743238Y-64968380D01*
X168838476Y-64920761D01*
X168886095Y-64873142D01*
X168933714Y-64777904D01*
X168933714Y-64587428D01*
X168886095Y-64492190D01*
X168838476Y-64444571D01*
X168743238Y-64396952D01*
G04 #@! TO.C,ADC1*
X90741714Y-144946666D02*
X91217904Y-144946666D01*
X90646476Y-145232380D02*
X90979809Y-144232380D01*
X91313142Y-145232380D01*
X91646476Y-145232380D02*
X91646476Y-144232380D01*
X91884571Y-144232380D01*
X92027428Y-144280000D01*
X92122666Y-144375238D01*
X92170285Y-144470476D01*
X92217904Y-144660952D01*
X92217904Y-144803809D01*
X92170285Y-144994285D01*
X92122666Y-145089523D01*
X92027428Y-145184761D01*
X91884571Y-145232380D01*
X91646476Y-145232380D01*
X93217904Y-145137142D02*
X93170285Y-145184761D01*
X93027428Y-145232380D01*
X92932190Y-145232380D01*
X92789333Y-145184761D01*
X92694095Y-145089523D01*
X92646476Y-144994285D01*
X92598857Y-144803809D01*
X92598857Y-144660952D01*
X92646476Y-144470476D01*
X92694095Y-144375238D01*
X92789333Y-144280000D01*
X92932190Y-144232380D01*
X93027428Y-144232380D01*
X93170285Y-144280000D01*
X93217904Y-144327619D01*
X94170285Y-145232380D02*
X93598857Y-145232380D01*
X93884571Y-145232380D02*
X93884571Y-144232380D01*
X93789333Y-144375238D01*
X93694095Y-144470476D01*
X93598857Y-144518095D01*
G04 #@! TO.C,GPIO_0*
X90852857Y-65750000D02*
X90757619Y-65702380D01*
X90614761Y-65702380D01*
X90471904Y-65750000D01*
X90376666Y-65845238D01*
X90329047Y-65940476D01*
X90281428Y-66130952D01*
X90281428Y-66273809D01*
X90329047Y-66464285D01*
X90376666Y-66559523D01*
X90471904Y-66654761D01*
X90614761Y-66702380D01*
X90710000Y-66702380D01*
X90852857Y-66654761D01*
X90900476Y-66607142D01*
X90900476Y-66273809D01*
X90710000Y-66273809D01*
X91329047Y-66702380D02*
X91329047Y-65702380D01*
X91710000Y-65702380D01*
X91805238Y-65750000D01*
X91852857Y-65797619D01*
X91900476Y-65892857D01*
X91900476Y-66035714D01*
X91852857Y-66130952D01*
X91805238Y-66178571D01*
X91710000Y-66226190D01*
X91329047Y-66226190D01*
X92329047Y-66702380D02*
X92329047Y-65702380D01*
X92995714Y-65702380D02*
X93186190Y-65702380D01*
X93281428Y-65750000D01*
X93376666Y-65845238D01*
X93424285Y-66035714D01*
X93424285Y-66369047D01*
X93376666Y-66559523D01*
X93281428Y-66654761D01*
X93186190Y-66702380D01*
X92995714Y-66702380D01*
X92900476Y-66654761D01*
X92805238Y-66559523D01*
X92757619Y-66369047D01*
X92757619Y-66035714D01*
X92805238Y-65845238D01*
X92900476Y-65750000D01*
X92995714Y-65702380D01*
X93614761Y-66797619D02*
X94376666Y-66797619D01*
X94805238Y-65702380D02*
X94900476Y-65702380D01*
X94995714Y-65750000D01*
X95043333Y-65797619D01*
X95090952Y-65892857D01*
X95138571Y-66083333D01*
X95138571Y-66321428D01*
X95090952Y-66511904D01*
X95043333Y-66607142D01*
X94995714Y-66654761D01*
X94900476Y-66702380D01*
X94805238Y-66702380D01*
X94710000Y-66654761D01*
X94662380Y-66607142D01*
X94614761Y-66511904D01*
X94567142Y-66321428D01*
X94567142Y-66083333D01*
X94614761Y-65892857D01*
X94662380Y-65797619D01*
X94710000Y-65750000D01*
X94805238Y-65702380D01*
G04 #@! TO.C,R1*
X92543333Y-122542380D02*
X92210000Y-122066190D01*
X91971904Y-122542380D02*
X91971904Y-121542380D01*
X92352857Y-121542380D01*
X92448095Y-121590000D01*
X92495714Y-121637619D01*
X92543333Y-121732857D01*
X92543333Y-121875714D01*
X92495714Y-121970952D01*
X92448095Y-122018571D01*
X92352857Y-122066190D01*
X91971904Y-122066190D01*
X93495714Y-122542380D02*
X92924285Y-122542380D01*
X93210000Y-122542380D02*
X93210000Y-121542380D01*
X93114761Y-121685238D01*
X93019523Y-121780476D01*
X92924285Y-121828095D01*
G04 #@! TD*
M02*
