M48
;DRILL file {KiCad 5.0.2-bee76a0~70~ubuntu18.04.1} date 2019-03-31T17:31:48 CEST
;FORMAT={3:3/ absolute / metric / suppress leading zeros}
FMAT,2
METRIC,TZ
T1C0.900
%
G90
G05
T1
X114300Y-93980
X111760Y-104140
X114300Y-104140
X121920Y-91440
X121920Y-93980
X121920Y-96520
X121920Y-99060
X119380Y-104140
X121920Y-104140
X127000Y-104140
X129540Y-104140
X129540Y-91440
X129540Y-93980
X129540Y-96520
X129540Y-99060
X106680Y-91440
X106680Y-93980
X106680Y-96520
X106680Y-99060
X114300Y-91440
X114300Y-96520
X114300Y-99060
X99060Y-91440
X99060Y-93980
X99060Y-96520
X99060Y-99060
T0
M30
