<?xml version="1.0" standalone="no"?>
<!DOCTYPE svg PUBLIC "-//W3C//DTD SVG 1.1//EN"
"http://www.w3.org/Graphics/SVG/1.1/DTD/svg11.dtd">
<svg width="1779" height="1374" viewBox="0 0 1779 1374" version="1.1"
xmlns="http://www.w3.org/2000/svg"
xmlns:xlink="http://www.w3.org/1999/xlink">
<g fill-rule="evenodd"><path d="M 215,1373 L 175,1373 L 136,1365 L 100,1349 L 67,1325 L 41,1296 L 21,1261 L 8,1223 L 4,1183 L 8,1144 L 21,1106 L 41,1071 L 67,1042 L 100,1018 L 136,1002 L 175,994 L 215,994 L 254,1002 L 290,1018 L 323,1042 L 349,1071 L 369,1106 L 382,1144 L 386,1183 L 382,1223 L 369,1261 L 349,1296 L 323,1325 L 290,1349 L 254,1365 L 215,1373 z " style="fill-opacity:1.000000;fill:rgb(103,198,105);stroke:rgb(0,0,0);stroke-width:2"/></g>
<g fill-rule="evenodd"><path d="M 0,902 L 0,766 L 129,766 L 129,746 L 124,741 L 59,741 L 57,741 L 55,739 L 55,737 L 55,720 L 55,719 L 57,717 L 59,716 L 65,717 L 192,717 L 194,718 L 200,722 L 210,724 L 357,724 L 360,725 L 361,726 L 362,730 L 365,735 L 370,739 L 377,740 L 460,740 L 466,739 L 471,736 L 475,730 L 476,724 L 476,673 L 476,669 L 477,667 L 481,663 L 484,654 L 484,645 L 480,640 L 460,640 L 460,649 L 377,649 L 377,640 L 357,640 L 352,644 L 352,654 L 356,663 L 359,666 L 360,667 L 360,669 L 360,670 L 359,672 L 356,673 L 305,673 L 304,672 L 303,671 L 302,670 L 302,668 L 303,666 L 310,634 L 303,602 L 285,575 L 258,556 L 226,550 L 65,550 L 60,551 L 58,551 L 57,550 L 56,549 L 55,547 L 55,520 L 56,518 L 58,517 L 59,516 L 65,518 L 226,518 L 258,511 L 285,493 L 303,466 L 304,463 L 304,461 L 306,460 L 307,459 L 465,459 L 467,461 L 533,527 L 534,529 L 534,551 L 533,552 L 532,554 L 530,555 L 529,555 L 528,554 L 504,531 L 496,525 L 486,523 L 479,523 L 477,523 L 476,521 L 475,518 L 472,512 L 466,509 L 460,507 L 377,507 L 371,508 L 365,512 L 362,517 L 361,524 L 361,574 L 361,579 L 360,581 L 356,584 L 352,593 L 352,603 L 357,608 L 377,608 L 377,598 L 460,598 L 460,608 L 480,608 L 484,603 L 484,592 L 485,591 L 486,590 L 488,589 L 490,589 L 491,590 L 497,596 L 498,598 L 498,756 L 498,757 L 486,782 L 485,784 L 483,784 L 438,784 L 432,786 L 426,789 L 423,794 L 421,801 L 421,926 L 422,932 L 426,938 L 431,941 L 438,943 L 454,943 L 455,943 L 457,944 L 457,946 L 461,991 L 460,994 L 458,995 L 450,997 L 444,1000 L 441,1005 L 439,1012 L 439,1145 L 440,1149 L 440,1313 L 1714,1313 L 1714,64 L 785,64 L 785,1195 L 784,1197 L 783,1198 L 781,1198 L 544,1198 L 542,1198 L 541,1197 L 540,1196 L 540,1194 L 540,1154 L 540,1153 L 541,1152 L 542,1145 L 542,1012 L 541,1006 L 538,1000 L 532,997 L 526,995 L 515,995 L 514,995 L 512,993 L 512,992 L 509,947 L 509,945 L 511,943 L 513,943 L 516,943 L 522,942 L 527,938 L 531,933 L 532,926 L 532,820 L 533,818 L 534,817 L 535,816 L 546,816 L 548,817 L 549,819 L 549,973 L 550,975 L 550,977 L 551,980 L 551,983 L 553,987 L 555,989 L 557,992 L 558,993 L 560,994 L 666,1074 L 667,1075 L 667,1077 L 667,1145 L 669,1151 L 672,1157 L 677,1160 L 684,1161 L 754,1161 L 760,1160 L 766,1157 L 769,1152 L 771,1145 L 771,1012 L 769,1006 L 766,1000 L 761,997 L 754,995 L 684,995 L 678,997 L 672,1000 L 668,1007 L 666,1008 L 664,1008 L 663,1007 L 602,962 L 601,960 L 600,959 L 600,819 L 601,817 L 602,816 L 604,816 L 645,815 L 647,815 L 649,817 L 649,819 L 649,843 L 654,848 L 674,848 L 674,801 L 697,801 L 697,781 L 692,776 L 669,776 L 660,780 L 653,787 L 649,796 L 649,811 L 649,812 L 648,814 L 645,815 L 604,815 L 602,815 L 601,814 L 600,811 L 600,744 L 601,742 L 602,741 L 604,740 L 633,740 L 639,739 L 644,736 L 648,730 L 649,724 L 649,673 L 648,667 L 646,663 L 645,661 L 645,660 L 648,656 L 649,652 L 650,650 L 652,649 L 664,649 L 675,647 L 683,642 L 701,624 L 706,615 L 708,605 L 708,440 L 708,438 L 708,435 L 707,433 L 706,430 L 705,428 L 704,426 L 702,424 L 701,422 L 699,421 L 697,419 L 443,242 L 443,241 L 442,239 L 442,171 L 441,165 L 438,160 L 432,156 L 426,155 L 348,155 L 342,156 L 336,159 L 333,165 L 331,171 L 331,204 L 331,207 L 329,208 L 327,208 L 308,208 L 306,208 L 304,207 L 304,205 L 303,202 L 285,175 L 258,157 L 226,150 L 65,150 L 59,151 L 57,151 L 55,149 L 55,147 L 55,4 L 55,2 L 56,1 L 58,0 L 59,0 L 1775,0 L 1776,0 L 1778,2 L 1779,4 L 1779,1364 L 1778,1366 L 1777,1367 L 1775,1368 L 309,1368 L 307,1366 L 306,1364 L 306,1363 L 307,1361 L 309,1360 L 312,1359 L 370,1301 L 402,1225 L 402,1143 L 370,1067 L 312,1008 L 236,977 L 154,977 L 78,1008 L 20,1066 L 18,1070 L 18,1071 L 16,1072 L 14,1072 L 12,1071 L 11,1070 L 11,1068 L 11,945 L 12,943 L 13,941 L 15,941 L 55,940 L 55,929 L 56,927 L 58,926 L 124,926 L 129,921 L 129,902 L 0,902M 291,850 L 291,902 L 161,902 L 161,921 L 166,926 L 296,926 L 304,922 L 311,915 L 315,906 L 315,854 L 310,850 L 291,850M 291,818 L 310,818 L 315,813 L 315,761 L 311,752 L 304,745 L 296,741 L 166,741 L 161,746 L 161,766 L 291,766 L 291,818M 674,880 L 654,880 L 649,884 L 649,931 L 653,940 L 660,947 L 669,951 L 692,951 L 697,946 L 697,927 L 674,927 L 674,880M 729,927 L 729,946 L 734,951 L 757,951 L 766,947 L 773,940 L 777,931 L 777,884 L 772,880 L 752,880 L 752,927 L 729,927M 752,848 L 772,848 L 777,843 L 777,796 L 773,787 L 766,780 L 757,776 L 734,776 L 729,781 L 729,801 L 752,801 L 752,848M 662,250 L 662,297 L 639,297 L 639,316 L 644,321 L 667,321 L 676,317 L 683,311 L 687,302 L 687,255 L 682,250 L 662,250M 662,218 L 682,218 L 687,213 L 687,166 L 683,157 L 676,150 L 667,147 L 644,147 L 639,151 L 639,171 L 662,171 L 662,218M 607,171 L 607,151 L 602,147 L 579,147 L 570,150 L 563,157 L 559,166 L 559,213 L 564,218 L 584,218 L 584,171 L 607,171M 584,250 L 564,250 L 559,255 L 559,302 L 563,311 L 570,317 L 579,321 L 602,321 L 607,316 L 607,297 L 584,297 L 584,250 z " style="fill-opacity:1.000000;fill:rgb(115,81,255);stroke:rgb(0,0,0);stroke-width:2"/></g>
<g fill-rule="evenodd"><path d="M 199,701 L 67,702 L 54,700 L 41,696 L 29,689 L 18,681 L 10,670 L 4,657 L 0,644 L 0,630 L 2,617 L 6,604 L 14,592 L 23,582 L 34,574 L 47,569 L 61,566 L 223,566 L 236,567 L 250,571 L 262,578 L 272,587 L 280,598 L 286,610 L 290,623 L 291,637 L 289,651 L 284,664 L 276,675 L 267,685 L 262,689 L 377,689 L 377,673 L 460,673 L 460,724 L 377,724 L 377,708 L 210,708 L 208,708 L 204,707 L 199,701 z " style="fill-opacity:1.000000;fill:rgb(74,236,41);stroke:rgb(0,0,0);stroke-width:2"/></g>
<g fill-rule="evenodd"><path d="M 491,927 L 498,1012 L 526,1012 L 526,1145 L 520,1145 L 520,1216 L 805,1216 L 805,92 L 805,89 L 806,87 L 808,85 L 811,84 L 813,84 L 1686,84 L 1689,85 L 1691,85 L 1693,87 L 1694,89 L 1694,92 L 1694,1285 L 1694,1289 L 1693,1290 L 1691,1292 L 1689,1293 L 1686,1293 L 468,1293 L 466,1293 L 463,1292 L 461,1290 L 461,1289 L 460,1285 L 460,1145 L 455,1145 L 455,1012 L 478,1012 L 472,927 L 437,927 L 437,801 L 495,801 L 514,760 L 514,591 L 482,559 L 460,559 L 460,575 L 377,575 L 377,523 L 460,523 L 460,539 L 486,539 L 490,540 L 492,541 L 531,580 L 533,583 L 534,585 L 534,762 L 534,764 L 533,766 L 516,802 L 516,927 L 491,927 z " style="fill-opacity:1.000000;fill:rgb(205,186,171);stroke:rgb(0,0,0);stroke-width:2"/></g>
<g fill-rule="evenodd"><path d="M 684,1043 L 684,1012 L 754,1012 L 754,1145 L 684,1145 L 684,1067 L 569,981 L 568,980 L 566,977 L 565,974 L 565,724 L 550,724 L 550,673 L 633,673 L 633,724 L 585,724 L 585,969 L 684,1043 z " style="fill-opacity:1.000000;fill:rgb(242,251,227);stroke:rgb(0,0,0);stroke-width:2"/></g>
<g fill-rule="evenodd"><path d="M 426,249 L 688,432 L 691,435 L 692,438 L 693,440 L 692,608 L 691,611 L 690,613 L 670,632 L 667,633 L 665,634 L 633,634 L 633,649 L 550,649 L 550,598 L 633,598 L 633,614 L 661,614 L 673,602 L 673,445 L 426,273 L 426,297 L 348,297 L 348,244 L 290,244 L 289,251 L 284,264 L 276,276 L 267,285 L 256,293 L 243,299 L 230,302 L 67,302 L 54,300 L 41,296 L 29,290 L 18,281 L 10,270 L 4,258 L 0,244 L 0,230 L 2,217 L 6,204 L 14,192 L 23,182 L 34,174 L 47,169 L 61,166 L 223,166 L 236,167 L 250,171 L 262,178 L 272,187 L 280,198 L 286,210 L 290,224 L 348,224 L 348,171 L 426,171 L 426,249 z " style="fill-opacity:1.000000;fill:rgb(70,124,194);stroke:rgb(0,0,0);stroke-width:2"/></g>
<g fill-rule="evenodd"><path d="M 290,444 L 289,451 L 284,464 L 276,475 L 267,485 L 256,493 L 243,499 L 230,501 L 67,502 L 54,500 L 41,496 L 29,490 L 18,481 L 10,470 L 4,457 L 0,444 L 0,430 L 2,417 L 6,404 L 14,392 L 23,382 L 34,374 L 47,369 L 61,366 L 223,366 L 236,367 L 250,371 L 262,378 L 272,387 L 280,398 L 286,410 L 290,424 L 476,424 L 480,425 L 483,427 L 580,523 L 633,523 L 633,575 L 550,575 L 550,523 L 552,523 L 472,444 L 290,444 z " style="fill-opacity:1.000000;fill:rgb(84,248,27);stroke:rgb(0,0,0);stroke-width:2"/></g>
</svg>
