<?xml version="1.0" standalone="no"?>
<!DOCTYPE svg PUBLIC "-//W3C//DTD SVG 1.1//EN"
"http://www.w3.org/Graphics/SVG/1.1/DTD/svg11.dtd">
<svg width="1800" height="1400" viewBox="0 0 1800 1400" version="1.1"
xmlns="http://www.w3.org/2000/svg"
xmlns:xlink="http://www.w3.org/1999/xlink">
<g fill-rule="evenodd"><path d="M 390,1200 L 386,1239 L 374,1277 L 354,1312 L 327,1341 L 295,1365 L 259,1381 L 219,1389 L 180,1389 L 140,1381 L 104,1365 L 72,1341 L 45,1312 L 25,1277 L 13,1239 L 9,1200 L 13,1160 L 25,1122 L 45,1087 L 72,1058 L 104,1034 L 140,1018 L 180,1010 L 219,1010 L 259,1018 L 295,1034 L 327,1058 L 354,1087 L 374,1122 L 386,1160 L 390,1200 z " style="fill-opacity:1.000000;fill:rgb(103,198,105);stroke:rgb(0,0,0);stroke-width:2"/></g>
<g fill-rule="evenodd"><path d="M 133,918 L 4,918 L 4,782 L 133,782 L 133,762 L 129,757 L 63,757 L 61,757 L 60,755 L 60,753 L 60,736 L 60,735 L 61,733 L 63,732 L 69,733 L 196,733 L 199,734 L 205,738 L 215,740 L 362,740 L 364,741 L 365,742 L 366,746 L 370,751 L 375,755 L 382,756 L 464,756 L 470,755 L 476,751 L 479,746 L 481,740 L 481,689 L 480,685 L 481,683 L 485,679 L 489,670 L 489,660 L 484,656 L 465,656 L 465,665 L 381,665 L 381,656 L 362,656 L 357,660 L 357,670 L 361,679 L 364,682 L 365,683 L 365,685 L 365,686 L 363,688 L 361,689 L 310,689 L 308,688 L 307,687 L 306,686 L 306,684 L 308,682 L 314,650 L 308,617 L 290,590 L 262,572 L 230,566 L 69,566 L 64,567 L 63,567 L 61,566 L 60,565 L 60,563 L 60,536 L 60,534 L 62,533 L 63,532 L 69,533 L 230,533 L 262,527 L 290,509 L 308,482 L 308,478 L 309,477 L 310,476 L 311,475 L 469,475 L 471,476 L 538,542 L 538,545 L 538,567 L 538,568 L 537,569 L 535,570 L 534,570 L 532,570 L 509,547 L 500,541 L 490,539 L 484,539 L 482,538 L 480,537 L 480,533 L 476,528 L 471,524 L 464,523 L 382,523 L 375,524 L 370,528 L 366,533 L 365,539 L 365,590 L 366,594 L 364,596 L 361,600 L 357,609 L 357,619 L 362,623 L 381,623 L 381,614 L 465,614 L 465,623 L 484,623 L 489,619 L 489,608 L 490,606 L 491,605 L 493,605 L 494,605 L 496,606 L 502,612 L 503,614 L 503,771 L 503,773 L 491,798 L 489,800 L 487,800 L 442,800 L 436,802 L 431,805 L 427,810 L 426,817 L 426,942 L 427,948 L 431,954 L 436,957 L 442,959 L 459,959 L 460,959 L 461,960 L 462,962 L 465,1007 L 465,1010 L 463,1011 L 454,1013 L 449,1016 L 445,1021 L 444,1028 L 444,1161 L 444,1165 L 445,1329 L 1719,1329 L 1719,80 L 790,80 L 789,1211 L 789,1213 L 788,1214 L 786,1215 L 548,1215 L 547,1214 L 546,1213 L 545,1212 L 545,1211 L 545,1170 L 545,1169 L 546,1168 L 547,1161 L 547,1028 L 546,1022 L 542,1016 L 537,1013 L 530,1011 L 520,1011 L 518,1011 L 517,1009 L 517,1008 L 513,963 L 514,961 L 516,959 L 517,959 L 520,959 L 527,957 L 532,954 L 536,949 L 537,942 L 537,836 L 538,834 L 539,833 L 540,832 L 551,832 L 553,833 L 554,835 L 554,989 L 554,991 L 554,993 L 555,996 L 556,999 L 558,1003 L 560,1005 L 561,1008 L 563,1009 L 564,1010 L 671,1090 L 672,1091 L 672,1093 L 672,1161 L 673,1167 L 677,1173 L 682,1176 L 689,1178 L 759,1178 L 765,1176 L 770,1173 L 774,1168 L 775,1161 L 775,1028 L 774,1022 L 771,1016 L 765,1013 L 759,1011 L 689,1011 L 682,1013 L 677,1016 L 672,1023 L 671,1024 L 669,1024 L 667,1023 L 607,978 L 605,976 L 605,975 L 605,835 L 606,833 L 607,832 L 609,831 L 650,831 L 652,831 L 653,833 L 654,835 L 654,859 L 659,863 L 678,863 L 678,817 L 702,817 L 702,797 L 697,792 L 673,792 L 665,796 L 658,803 L 654,812 L 654,827 L 654,828 L 652,830 L 650,831 L 609,831 L 607,830 L 606,829 L 605,827 L 605,760 L 606,758 L 607,757 L 608,756 L 637,756 L 644,755 L 649,751 L 653,746 L 654,740 L 654,689 L 653,683 L 650,679 L 650,677 L 650,675 L 653,671 L 653,668 L 654,666 L 656,665 L 669,665 L 679,663 L 688,657 L 705,640 L 711,631 L 713,621 L 713,456 L 713,453 L 713,451 L 712,448 L 711,446 L 710,444 L 709,442 L 707,440 L 706,438 L 704,436 L 702,434 L 448,258 L 447,256 L 447,255 L 447,187 L 446,181 L 442,175 L 437,172 L 430,170 L 352,170 L 346,172 L 341,175 L 337,180 L 336,187 L 336,220 L 335,222 L 333,224 L 332,224 L 312,224 L 310,223 L 309,222 L 308,221 L 308,217 L 290,190 L 262,172 L 230,166 L 69,166 L 63,167 L 61,166 L 60,164 L 60,163 L 60,19 L 60,18 L 61,16 L 62,16 L 63,15 L 1780,15 L 1781,16 L 1783,17 L 1784,19 L 1784,1380 L 1783,1382 L 1782,1383 L 1780,1384 L 314,1384 L 312,1383 L 311,1381 L 311,1379 L 312,1377 L 313,1376 L 316,1375 L 375,1317 L 406,1241 L 406,1159 L 375,1083 L 317,1024 L 241,993 L 159,993 L 83,1024 L 24,1082 L 23,1086 L 22,1087 L 20,1088 L 18,1088 L 16,1087 L 16,1086 L 15,1085 L 15,961 L 16,958 L 18,957 L 19,957 L 59,956 L 60,945 L 61,943 L 63,942 L 129,942 L 133,937 L 133,918M 295,866 L 295,918 L 166,918 L 166,937 L 170,942 L 300,942 L 309,938 L 316,931 L 319,922 L 319,870 L 315,866 L 295,866M 295,833 L 315,833 L 319,829 L 319,777 L 316,768 L 309,761 L 300,757 L 170,757 L 166,762 L 166,782 L 295,782 L 295,833M 678,896 L 659,896 L 654,900 L 654,947 L 658,956 L 664,963 L 673,967 L 697,967 L 702,962 L 702,942 L 678,942 L 678,896M 734,942 L 734,962 L 738,967 L 762,967 L 771,963 L 778,956 L 781,947 L 781,900 L 776,896 L 757,896 L 757,942 L 734,942M 757,863 L 776,863 L 781,859 L 781,812 L 778,803 L 771,796 L 762,792 L 738,792 L 734,797 L 734,817 L 757,817 L 757,863M 667,266 L 667,312 L 644,312 L 644,332 L 648,337 L 672,337 L 681,333 L 688,326 L 691,317 L 691,270 L 686,266 L 667,266M 667,233 L 686,233 L 691,229 L 691,182 L 688,173 L 681,166 L 672,162 L 648,162 L 644,167 L 644,187 L 667,187 L 667,233M 612,187 L 612,167 L 607,162 L 583,162 L 575,166 L 568,173 L 564,182 L 564,229 L 569,233 L 588,233 L 588,187 L 612,187M 588,266 L 569,266 L 564,270 L 564,317 L 568,326 L 574,333 L 583,337 L 607,337 L 612,332 L 612,312 L 588,312 L 588,266 z " style="fill-opacity:1.000000;fill:rgb(115,81,255);stroke:rgb(0,0,0);stroke-width:2"/></g>
<g fill-rule="evenodd"><path d="M 203,717 L 72,718 L 58,716 L 45,712 L 33,705 L 23,696 L 14,685 L 8,673 L 5,660 L 4,646 L 6,632 L 11,620 L 18,608 L 28,598 L 39,590 L 51,585 L 65,582 L 227,582 L 241,583 L 254,587 L 266,594 L 276,603 L 285,614 L 291,626 L 294,639 L 295,653 L 293,667 L 288,679 L 281,691 L 271,701 L 267,704 L 381,704 L 381,689 L 465,689 L 465,740 L 381,740 L 381,724 L 214,724 L 212,724 L 209,722 L 203,717 z " style="fill-opacity:1.000000;fill:rgb(74,236,41);stroke:rgb(0,0,0);stroke-width:2"/></g>
<g fill-rule="evenodd"><path d="M 496,942 L 502,1028 L 531,1028 L 531,1161 L 524,1161 L 525,1232 L 809,1232 L 810,107 L 810,104 L 811,103 L 813,101 L 816,100 L 817,100 L 1692,100 L 1695,100 L 1696,101 L 1698,103 L 1699,104 L 1699,107 L 1699,1302 L 1699,1305 L 1698,1306 L 1696,1308 L 1694,1309 L 1692,1310 L 472,1310 L 471,1309 L 468,1308 L 466,1306 L 465,1305 L 465,1302 L 465,1161 L 460,1161 L 460,1028 L 483,1028 L 476,942 L 442,942 L 442,817 L 500,817 L 519,776 L 519,607 L 487,575 L 465,575 L 465,590 L 381,590 L 381,539 L 465,539 L 465,555 L 491,555 L 494,556 L 496,557 L 535,596 L 538,599 L 538,601 L 538,778 L 538,779 L 537,782 L 521,818 L 521,942 L 496,942 z " style="fill-opacity:1.000000;fill:rgb(205,186,171);stroke:rgb(0,0,0);stroke-width:2"/></g>
<g fill-rule="evenodd"><path d="M 688,1059 L 688,1028 L 759,1028 L 759,1161 L 688,1161 L 688,1083 L 574,997 L 572,996 L 570,993 L 570,990 L 570,740 L 554,740 L 554,689 L 638,689 L 638,740 L 589,740 L 589,985 L 688,1059 z " style="fill-opacity:1.000000;fill:rgb(242,251,227);stroke:rgb(0,0,0);stroke-width:2"/></g>
<g fill-rule="evenodd"><path d="M 431,265 L 693,448 L 696,450 L 697,454 L 697,456 L 697,623 L 696,627 L 694,628 L 675,648 L 671,649 L 670,649 L 638,649 L 638,665 L 554,665 L 554,614 L 638,614 L 638,630 L 665,630 L 678,617 L 678,461 L 431,289 L 431,312 L 352,312 L 352,259 L 294,259 L 293,267 L 288,279 L 281,291 L 271,301 L 260,309 L 248,314 L 234,317 L 72,318 L 58,316 L 45,312 L 33,305 L 23,296 L 14,285 L 8,273 L 5,260 L 4,246 L 6,232 L 11,220 L 18,208 L 28,198 L 39,190 L 51,185 L 65,182 L 227,182 L 241,183 L 254,187 L 266,194 L 276,203 L 285,214 L 291,226 L 294,240 L 352,240 L 352,187 L 431,187 L 431,265 z " style="fill-opacity:1.000000;fill:rgb(70,124,194);stroke:rgb(0,0,0);stroke-width:2"/></g>
<g fill-rule="evenodd"><path d="M 294,459 L 293,467 L 288,479 L 281,491 L 271,501 L 260,509 L 248,514 L 234,517 L 72,518 L 58,516 L 45,512 L 33,505 L 23,496 L 14,485 L 8,473 L 5,460 L 4,446 L 6,432 L 11,420 L 18,408 L 28,398 L 39,390 L 51,385 L 65,382 L 227,382 L 241,383 L 254,387 L 266,394 L 276,403 L 285,414 L 291,426 L 294,440 L 481,440 L 485,440 L 488,443 L 584,539 L 638,539 L 638,590 L 554,590 L 554,539 L 557,539 L 477,459 L 294,459 z " style="fill-opacity:1.000000;fill:rgb(84,248,27);stroke:rgb(0,0,0);stroke-width:2"/></g>
</svg>
