<?xml version="1.0" standalone="no"?>
<!DOCTYPE svg PUBLIC "-//W3C//DTD SVG 1.1//EN"
"http://www.w3.org/Graphics/SVG/1.1/DTD/svg11.dtd">
<svg width="1800" height="1400" viewBox="0 0 1800 1400" version="1.1"
xmlns="http://www.w3.org/2000/svg"
xmlns:xlink="http://www.w3.org/1999/xlink">
<g fill-rule="evenodd"><path d="M 730,1078 L 730,117 L 730,114 L 732,112 L 734,110 L 737,110 L 1682,110 L 1685,110 L 1687,112 L 1689,114 L 1689,117 L 1689,1282 L 1689,1284 L 1687,1287 L 1685,1289 L 1682,1290 L 736,1289 L 733,1288 L 731,1286 L 730,1283 L 730,1282 L 730,1078M 811,1176 L 803,1176 L 803,1240 L 804,1243 L 807,1245 L 810,1247 L 913,1247 L 913,1238 L 811,1238 L 811,1176M 811,1143 L 811,1081 L 913,1081 L 913,1072 L 810,1072 L 807,1074 L 804,1076 L 803,1079 L 803,1143 L 811,1143M 946,1238 L 946,1247 L 1049,1247 L 1052,1245 L 1055,1243 L 1056,1240 L 1056,1176 L 1048,1176 L 1048,1238 L 946,1238M 1048,1143 L 1056,1143 L 1056,1079 L 1055,1076 L 1052,1074 L 1049,1072 L 946,1072 L 946,1081 L 1048,1081 L 1048,1143 z " style="fill-opacity:1.000000;fill:rgb(103,198,105);stroke:rgb(0,0,0);stroke-width:2"/></g>
<g fill-rule="evenodd"><path d="M 72,718 L 58,716 L 45,712 L 33,705 L 23,696 L 14,685 L 8,673 L 5,660 L 4,646 L 6,632 L 11,620 L 18,608 L 28,598 L 39,590 L 51,585 L 65,582 L 227,582 L 241,583 L 254,587 L 266,594 L 276,603 L 285,614 L 291,626 L 294,639 L 295,653 L 293,667 L 288,679 L 281,691 L 271,701 L 260,709 L 248,714 L 234,717 L 72,718 z " style="fill-opacity:1.000000;fill:rgb(115,81,255);stroke:rgb(0,0,0);stroke-width:2"/></g>
<g fill-rule="evenodd"><path d="M 72,518 L 58,516 L 45,512 L 33,505 L 23,496 L 14,485 L 8,473 L 5,460 L 4,446 L 6,432 L 11,420 L 18,408 L 28,398 L 39,390 L 51,385 L 65,382 L 227,382 L 241,383 L 254,387 L 266,394 L 276,403 L 285,414 L 291,426 L 294,439 L 295,453 L 293,467 L 288,479 L 281,491 L 271,501 L 260,509 L 248,514 L 234,517 L 72,518 z " style="fill-opacity:1.000000;fill:rgb(74,236,41);stroke:rgb(0,0,0);stroke-width:2"/></g>
<g fill-rule="evenodd"><path d="M 72,318 L 58,316 L 45,312 L 33,305 L 23,296 L 14,285 L 8,273 L 5,260 L 4,246 L 6,232 L 11,220 L 18,208 L 28,198 L 39,190 L 51,185 L 65,182 L 227,182 L 241,183 L 254,187 L 266,194 L 276,203 L 285,214 L 291,226 L 294,239 L 295,253 L 293,267 L 288,279 L 281,291 L 271,301 L 260,309 L 248,314 L 234,317 L 72,318 z " style="fill-opacity:1.000000;fill:rgb(205,186,171);stroke:rgb(0,0,0);stroke-width:2"/></g>
<g fill-rule="evenodd"><path d="M 390,1200 L 386,1239 L 374,1277 L 354,1312 L 327,1341 L 295,1365 L 259,1381 L 219,1389 L 180,1389 L 140,1381 L 104,1365 L 72,1341 L 45,1312 L 25,1277 L 13,1239 L 9,1200 L 13,1160 L 25,1122 L 45,1087 L 72,1058 L 104,1034 L 140,1018 L 180,1010 L 219,1010 L 259,1018 L 295,1034 L 327,1058 L 354,1087 L 374,1122 L 386,1160 L 390,1200 z " style="fill-opacity:1.000000;fill:rgb(242,251,227);stroke:rgb(0,0,0);stroke-width:2"/></g>
<g fill-rule="evenodd"><path d="M 133,918 L 4,918 L 4,782 L 133,782 L 133,774 L 133,773 L 15,773 L 13,772 L 12,771 L 11,769 L 11,717 L 12,715 L 13,714 L 14,713 L 17,714 L 37,727 L 69,733 L 230,733 L 262,727 L 290,709 L 308,682 L 314,650 L 308,617 L 290,590 L 262,572 L 230,566 L 69,566 L 37,572 L 17,585 L 16,586 L 14,585 L 12,584 L 11,582 L 11,517 L 12,516 L 12,515 L 14,514 L 15,513 L 17,514 L 37,527 L 69,533 L 230,533 L 262,527 L 290,509 L 308,482 L 314,450 L 308,417 L 290,390 L 262,372 L 230,366 L 69,366 L 37,372 L 17,385 L 16,386 L 14,385 L 12,384 L 11,382 L 11,317 L 12,315 L 13,314 L 14,313 L 16,313 L 17,314 L 37,327 L 69,333 L 230,333 L 262,327 L 290,309 L 308,282 L 314,250 L 308,217 L 290,190 L 262,172 L 230,166 L 69,166 L 37,172 L 17,185 L 15,186 L 13,185 L 12,183 L 11,182 L 11,15 L 12,14 L 13,12 L 15,11 L 1784,11 L 1785,12 L 1787,13 L 1788,15 L 1788,1384 L 1787,1386 L 1786,1387 L 1784,1388 L 304,1388 L 302,1387 L 301,1385 L 301,1383 L 302,1381 L 304,1380 L 316,1375 L 375,1317 L 406,1241 L 406,1159 L 375,1083 L 317,1024 L 241,993 L 159,993 L 83,1024 L 24,1082 L 19,1095 L 18,1097 L 16,1098 L 14,1098 L 12,1097 L 12,1095 L 11,1094 L 11,930 L 12,928 L 14,926 L 15,926 L 133,926 L 133,925 L 133,918M 720,1300 L 1699,1299 L 1699,100 L 720,100 L 719,1299 L 720,1300M 295,866 L 295,918 L 166,918 L 166,925 L 166,926 L 297,926 L 300,925 L 302,922 L 304,919 L 304,866 L 303,866 L 295,866M 295,833 L 303,833 L 304,833 L 304,780 L 302,777 L 300,774 L 297,773 L 166,773 L 166,774 L 166,782 L 295,782 L 295,833 z " style="fill-opacity:1.000000;fill:rgb(70,124,194);stroke:rgb(0,0,0);stroke-width:2"/></g>
</svg>
