G04 #@! TF.GenerationSoftware,KiCad,Pcbnew,5.0.2-bee76a0~70~ubuntu18.04.1*
G04 #@! TF.CreationDate,2019-04-19T13:27:44+02:00*
G04 #@! TF.ProjectId,LTC_SPI,4c54435f-5350-4492-9e6b-696361645f70,rev?*
G04 #@! TF.SameCoordinates,PX7270e00PY76c8ef8*
G04 #@! TF.FileFunction,Legend,Top*
G04 #@! TF.FilePolarity,Positive*
%FSLAX46Y46*%
G04 Gerber Fmt 4.6, Leading zero omitted, Abs format (unit mm)*
G04 Created by KiCad (PCBNEW 5.0.2-bee76a0~70~ubuntu18.04.1) date 2019-04-19T13:27:44 CEST*
%MOMM*%
%LPD*%
G01*
G04 APERTURE LIST*
%ADD10C,0.120000*%
%ADD11C,0.150000*%
G04 APERTURE END LIST*
D10*
G04 #@! TO.C,J1*
X14937940Y8913880D02*
X14937940Y6853880D01*
X14937940Y8913880D02*
X817940Y8913880D01*
X817940Y8913880D02*
X817940Y4793880D01*
X12877940Y4793880D02*
X817940Y4793880D01*
X12877940Y6853880D02*
X12877940Y4793880D01*
X14937940Y6853880D02*
X12877940Y6853880D01*
X14937940Y4793880D02*
X13877940Y4793880D01*
X14937940Y5853880D02*
X14937940Y4793880D01*
G04 #@! TO.C,P1*
X12760000Y715000D02*
X2480000Y715000D01*
X2480000Y715000D02*
X2480000Y-1945000D01*
X2480000Y-1945000D02*
X12760000Y-1945000D01*
X12760000Y-1945000D02*
X12760000Y715000D01*
X11810000Y-1945000D02*
X11810000Y-7945000D01*
X11810000Y-7945000D02*
X11050000Y-7945000D01*
X11050000Y-7945000D02*
X11050000Y-1945000D01*
X11750000Y-1945000D02*
X11750000Y-7945000D01*
X11630000Y-1945000D02*
X11630000Y-7945000D01*
X11510000Y-1945000D02*
X11510000Y-7945000D01*
X11390000Y-1945000D02*
X11390000Y-7945000D01*
X11270000Y-1945000D02*
X11270000Y-7945000D01*
X11150000Y-1945000D02*
X11150000Y-7945000D01*
X11810000Y1045000D02*
X11810000Y715000D01*
X11050000Y1045000D02*
X11050000Y715000D01*
X10160000Y715000D02*
X10160000Y-1945000D01*
X9270000Y-1945000D02*
X9270000Y-7945000D01*
X9270000Y-7945000D02*
X8510000Y-7945000D01*
X8510000Y-7945000D02*
X8510000Y-1945000D01*
X9270000Y1112071D02*
X9270000Y715000D01*
X8510000Y1112071D02*
X8510000Y715000D01*
X7620000Y715000D02*
X7620000Y-1945000D01*
X6730000Y-1945000D02*
X6730000Y-7945000D01*
X6730000Y-7945000D02*
X5970000Y-7945000D01*
X5970000Y-7945000D02*
X5970000Y-1945000D01*
X6730000Y1112071D02*
X6730000Y715000D01*
X5970000Y1112071D02*
X5970000Y715000D01*
X5080000Y715000D02*
X5080000Y-1945000D01*
X4190000Y-1945000D02*
X4190000Y-7945000D01*
X4190000Y-7945000D02*
X3430000Y-7945000D01*
X3430000Y-7945000D02*
X3430000Y-1945000D01*
X4190000Y1112071D02*
X4190000Y715000D01*
X3430000Y1112071D02*
X3430000Y715000D01*
X11430000Y3425000D02*
X12700000Y3425000D01*
X12700000Y3425000D02*
X12700000Y2155000D01*
G04 #@! TO.C,J1*
D11*
X13955780Y3404087D02*
X14670066Y3404087D01*
X14812923Y3356468D01*
X14908161Y3261230D01*
X14955780Y3118373D01*
X14955780Y3023135D01*
X14955780Y4404087D02*
X14955780Y3832659D01*
X14955780Y4118373D02*
X13955780Y4118373D01*
X14098638Y4023135D01*
X14193876Y3927897D01*
X14241495Y3832659D01*
G04 #@! TO.C,P1*
X14152380Y-2968095D02*
X13152380Y-2968095D01*
X13152380Y-2587142D01*
X13200000Y-2491904D01*
X13247619Y-2444285D01*
X13342857Y-2396666D01*
X13485714Y-2396666D01*
X13580952Y-2444285D01*
X13628571Y-2491904D01*
X13676190Y-2587142D01*
X13676190Y-2968095D01*
X14152380Y-1444285D02*
X14152380Y-2015714D01*
X14152380Y-1730000D02*
X13152380Y-1730000D01*
X13295238Y-1825238D01*
X13390476Y-1920476D01*
X13438095Y-2015714D01*
G04 #@! TD*
M02*
